<?xml version="1.0" encoding="UTF-8"?><svg xmlns="http://www.w3.org/2000/svg" viewBox="0 0 595.2 841.68"><g id="illinois"><path id="illinois-path" d="M95.95,387.08c.47-10,7.4-17.6,11.83-25.64,2.53-7.32-1.93-17.67,6.43-22.19,23.12-6.84,15.31-7.25,23.83-26.17,8.46-9.05,15.07-21.35,9.07-33.72-2.26-4.52-7.89-7.27-9.53-12.49-2.2-9.77,3.83-23.57,15.62-23.58,10.97-1.59,21.88-2.3,31.8-7.69,9.46-2.5,19.68-7.19,21.26-18.07.96-11.1,13.83-15.07,14.98-26.01,8.51-41.1-15.76-26.19-22.1-51.17.18-8.48-27.9-21.51-10.03-22.85,71.07,2.15,142.32,4.2,212.87,4.39,47.72-3.27,14.65,8.31,29.9,37.2,4.7,7.87,9.62,14.81,11.51,24.16,1.51,14.05,11.7,24.99,11.08,39.15.7,80.09.9,161.28,1.52,241.47-.19,7.91.82,16.41-.23,24.23-5.45,11.49-4.43,8.68-5.14,20.69-6.94,11.1,4.55,21.42,5.76,32.45,1.07,18.33,6.3,21.87-7.6,37.46-2.81,6.5-4.65,13.34-9.31,18.92-4.52,7.5-7.74,16.48-15.65,21.25-13.15,9.95,1.46,8.47-10.92,30.21-1.29,5.8-2.16,11.95-3.31,17.59-.27,3.96.74,8.66-1.05,12.68-9.9,13.7-10.31,14.2-2.38,29.16.22,6.41-9.36,5.35-13.66,7.21-6.79,2.84-13.41,3.82-19.8,6.86-15.13,12.19,8.64,28.56-3.86,37.23-5.17,2.55-14.03-4.68-20.24-7.09-11.53-4.18-24.1-16.11-34.31-4.72-13.63,11.1-4.2,21.25-11.13,21.94-7.4-1.16-16.29-4.68-19.58-12.01-3.37-7.86-11.09-16.92-9.39-25.66,1.55-3.23,5.01-5.94,4.78-9.87-.07-4.9-4.32-9.89-5.23-14.95-1.28-5.97.36-12.88-2.87-18.36-4.72-6.42-12.58-9.82-17.18-16.55-5.58-6.45-11.42-8.91-19.43-9.69-4.39-4.35-5.84-10.11-12.16-13.04-11.75-10.19-31.74-20.95-27.46-39.34,4.05-12.11,12.61-23.41,16.33-35.43.54-3.67-.6-7.56.52-11.14,4.03-8.46,10.33-13.53-1.11-19.48-32.64-18.17-22,3.78-36.65-.19-12.89-10.65-4.28-31.79-13.01-44.94-4.97-8.67-14.76-14.36-22.41-20.79-8.56-10.72-17.35-21.47-27.22-31.15-3.31-3.4-3.81-8.05-5.6-12.15-3.88-6.15-4.49-12.83-5.66-20.05-2.22-9.2-5.57-18.38-3.88-27.87" vector-effect="none" fill="none" stroke="#fec757" stroke-linecap="square" stroke-linejoin="bevel" stroke-width=".74"/></g><g id="railroad"><path id="railroad-path" d="M446.79,218.91c-23.86,54.08-33.06,119.65-52.41,175.78-1.78,5.35-3.02,10.75-3.71,16.34-2.24,16.34-3.29,33.95-6.23,50.06-4.02,16.5-12.19,33.96-17.94,51.5-2.22,6.22-3.44,12.29-5.87,17.87-3.02,6.85-8.51,13.18-13.87,19.18-6.56,7.18-13.89,13.99-21.25,20.45-4.91,4.43-10.54,8.46-13.8,13.66-13.81,29.35-12.99,73.18-11.38,104.59.15,2.82.15,5.6-.32,8.37-1.11,6.05-3.78,12.2-.98,17.98,1.67,3.85,4.19,7.33,4.92,11.26.4,1.91.45,3.87.22,5.8-.92,6.29-2.71,12.21-2.47,18.73.07,5.85.6,10.92,1.05,16.39" fill="none" stroke="#fec757" stroke-linecap="round" stroke-linejoin="round" stroke-width="4"/></g><g id="town01-chebanse"><circle cx="419.75" cy="298.24" r="5" fill="#fec757"/></g><g id="town02-onarga"><circle cx="411.5" cy="331.58" r="5" fill="#fec757"/></g><g id="town03-champaign-urbana"><circle cx="392" cy="400.75" r="5" fill="#fec757"/></g><g id="town04-arcola"><circle cx="385" cy="452.85" r="5" fill="#fec757"/></g><g id="town05-neoga"><circle cx="372" cy="495.66" r="5" fill="#fec757"/></g><g id="town06-farina"><circle cx="342.2" cy="553.02" r="5" fill="#fec757"/></g><g id="town07-centralia"><circle cx="308.7" cy="588.24" r="5" fill="#fec757"/></g><g id="town08-tamaroa"><circle cx="299.8" cy="634.48" r="5" fill="#fec757"/></g></svg>