<?xml version="1.0" encoding="UTF-8"?><svg xmlns="http://www.w3.org/2000/svg" viewBox="0 0 600 480"><g class="allpaths"><path d="M195.94,331.08c-25.73-25.95-54.82-51.14-80.62-77.07" fill="none" stroke="#e6e6e6" stroke-linecap="round" stroke-linejoin="round" stroke-width="2.68"/><path d="M115.63,412.63c-9.35-14.81-37.12-9.33-52.21-10.04-18,.21-26.78,3.18-28.57,22.55-137.48-4.66-119.66,82.54-155.23,66.88-14.6,13.69-24.38,3.17-39.85-2.32-34.5-7.24-48.64-6.76-37.07-46.49" fill="none" stroke="#e6e6e6" stroke-linecap="round" stroke-linejoin="round" stroke-width="2.68"/><path d="M114.39,60.16c-49.61-.47-112.09,3.05-161.72,2.47-3.51.58-5.42-2.54-7.1-5.1" fill="none" stroke="#e6e6e6" stroke-linecap="round" stroke-linejoin="round" stroke-width="2.68"/><path d="M260.35,234.08c36.07-36.18,74.29-79.7,109.82-116.15,3.97-1.68,7.21,2.55,9.42,5.25" fill="none" stroke="#e6e6e6" stroke-linecap="round" stroke-linejoin="round" stroke-width="2.68"/><path d="M401.06,367.84c-33.67-33.15-74.73-69.68-106.42-104.57" fill="none" stroke="#e6e6e6" stroke-linecap="round" stroke-linejoin="round" stroke-width="2.68"/><path d="M416.51,383.74c1.08-1.01-34.14-33.35-35.22-34.6" fill="none" stroke="#e6e6e6" stroke-linecap="round" stroke-linejoin="round" stroke-width="2.68"/><path d="M115.32,254c6.03-2.74,14.88,1.08,21.01-2.32,58.33-59.43,117.07-123.18,175.62-182.57" fill="none" stroke="#e6e6e6" stroke-linecap="round" stroke-linejoin="round" stroke-width="2.68"/><path d="M258.35,389.31c25.16-27.59,53.42-55.58,79.08-82.79" fill="none" stroke="#e6e6e6" stroke-linecap="round" stroke-linejoin="round" stroke-width="2.68"/><path d="M333.1,188.2c-30.99-31.56-65.84-64.25-97.62-95.14" fill="none" stroke="#e6e6e6" stroke-linecap="round" stroke-linejoin="round" stroke-width="2.68"/><path d="M394.57,247.05c-13.03-13.66-29.96-28.91-42.94-42.63" fill="none" stroke="#e6e6e6" stroke-linecap="round" stroke-linejoin="round" stroke-width="2.68"/><path d="M394.57,247.05c-2.78-2.84-10.48-10.71-13.28-13.28" fill="none" stroke="#e6e6e6" stroke-linecap="round" stroke-linejoin="round" stroke-width="2.68"/><path d="M337.43,306.52c20.37-21.65,43.31-44.63,63.64-66.26" fill="none" stroke="#e6e6e6" stroke-linecap="round" stroke-linejoin="round" stroke-width="2.68"/><path d="M381.29,261.26c10.16-11.54,32.43-33.54,42.79-45.25" fill="none" stroke="#e6e6e6" stroke-linecap="round" stroke-linejoin="round" stroke-width="2.68"/><path d="M379.59,123.18c1.72,1.87,5.68,7.03,7.26,9.11" fill="none" stroke="#e6e6e6" stroke-linecap="round" stroke-linejoin="round" stroke-width="2.68"/><path d="M307,387.14c-21.59-19.62-46.47-45.61-68.73-64.25" fill="none" stroke="#e6e6e6" stroke-linecap="round" stroke-linejoin="round" stroke-width="2.68"/><path d="M357.97,385.29c-28.74-28.43-63.83-62.38-92.98-90.05" fill="none" stroke="#e6e6e6" stroke-linecap="round" stroke-linejoin="round" stroke-width="2.68"/><path d="M148.68,182.95c1.46-1.48,29.1-29.02,29.19-29.35" fill="none" stroke="#e6e6e6" stroke-linecap="round" stroke-linejoin="round" stroke-width="2.68"/><path d="M177.1,152.83c33.27-33.5,70.33-71.98,102.87-106.11" fill="none" stroke="#e6e6e6" stroke-linecap="round" stroke-linejoin="round" stroke-width="2.68"/><path d="M365.69,276.86c-13.16-13.54-30.04-28.82-42.48-43.25" fill="none" stroke="#e6e6e6" stroke-linecap="round" stroke-linejoin="round" stroke-width="2.68"/><path d="M219.73,193.3c-3.58-2.98-11.38-9.82-14.37-13.28" fill="none" stroke="#e6e6e6" stroke-linecap="round" stroke-linejoin="round" stroke-width="2.68"/><path d="M229.93,362.89c53.85-57.86,112.11-115.92,165.58-174.23" fill="none" stroke="#e6e6e6" stroke-linecap="round" stroke-linejoin="round" stroke-width="2.68"/><path d="M381.29,204.27c1.55-1.7,13.2-14.05,14.21-15.6" fill="none" stroke="#e6e6e6" stroke-linecap="round" stroke-linejoin="round" stroke-width="2.68"/><line x1="274.72" y1="73.75" x2="287.23" y2="60.78" fill="none" stroke="#e6e6e6" stroke-linecap="round" stroke-linejoin="round" stroke-width="2.68"/><path d="M258.35,389.31c46.22-2.76,96.68-3.12,142.72-4.48" fill="none" stroke="#e6e6e6" stroke-linecap="round" stroke-linejoin="round" stroke-width="2.68"/><path d="M381.29,385.44c9.85.3,25.42-1.03,35.22-1.7" fill="none" stroke="#e6e6e6" stroke-linecap="round" stroke-linejoin="round" stroke-width="2.68"/><path d="M153.62,290.45c56.64-61.2,117.1-122.42,174.38-183.03" fill="none" stroke="#e6e6e6" stroke-linecap="round" stroke-linejoin="round" stroke-width="2.68"/><path d="M181.43,316.71c25.26-26.8,54.02-55.51,78.93-82.63" fill="none" stroke="#e6e6e6" stroke-linecap="round" stroke-linejoin="round" stroke-width="2.68"/><path d="M380.67,348.53c.87-25.48.7-61.44.31-86.96" fill="none" stroke="#e6e6e6" stroke-linecap="round" stroke-linejoin="round" stroke-width="2.68"/><path d="M142.97,119.47c2.69-2.86,17.61-18.22,19.62-21.01" fill="none" stroke="#e6e6e6" stroke-linecap="round" stroke-linejoin="round" stroke-width="2.68"/><path d="M381.29,513.64c-.43-49.78.59-115.49-.62-165.11" fill="none" stroke="#e6e6e6" stroke-linecap="round" stroke-linejoin="round" stroke-width="2.68"/><path d="M205.37,180.02c-29.32-28.09-61.56-60.58-91.59-88.19" fill="none" stroke="#e6e6e6" stroke-linecap="round" stroke-linejoin="round" stroke-width="2.68"/><path d="M111.46,518.43c-.18-18.92-1.5-43.41,0-62.25,20.86-26.15,80.25-83.97,102.87-108.12" fill="none" stroke="#e6e6e6" stroke-linecap="round" stroke-linejoin="round" stroke-width="2.68"/><path d="M294.64,263.27c4.56-5.29,23.36-24.33,28.57-29.66" fill="none" stroke="#e6e6e6" stroke-linecap="round" stroke-linejoin="round" stroke-width="2.68"/><path d="M264.99,295.24c-48.76-46.78-98.42-94.34-146.73-141.64" fill="none" stroke="#e6e6e6" stroke-linecap="round" stroke-linejoin="round" stroke-width="2.68"/><path d="M220.81,305.9c-21.81-22.82-47.22-46.75-69.81-68.73" fill="none" stroke="#e6e6e6" stroke-linecap="round" stroke-linejoin="round" stroke-width="2.68"/><path d="M-251.36,316.87c14.72-12.17,40.01-62.24,53.59-63.33,98.2,3.83,218.53-12.77,313.08.47" fill="none" stroke="#e6e6e6" stroke-linecap="round" stroke-linejoin="round" stroke-width="2.68"/><path d="M258.35,389.31c-15.54-11.59-29.67-28.21-44.02-41.24" fill="none" stroke="#e6e6e6" stroke-linecap="round" stroke-linejoin="round" stroke-width="2.68"/><path d="M304.99,217.4c-31.59-31.82-66.72-62.67-98.39-94.37" fill="none" stroke="#e6e6e6" stroke-linecap="round" stroke-linejoin="round" stroke-width="2.68"/><path d="M260.35,234.08c-12.32-13.23-28.14-27.69-40.62-40.78" fill="none" stroke="#e6e6e6" stroke-linecap="round" stroke-linejoin="round" stroke-width="2.68"/><line x1="275.49" y1="248.29" x2="260.35" y2="234.08" fill="none" stroke="#e6e6e6" stroke-linecap="round" stroke-linejoin="round" stroke-width="2.68"/><path d="M214.33,348.07c25.32-26.32,55.46-58.27,80.32-84.8" fill="none" stroke="#e6e6e6" stroke-linecap="round" stroke-linejoin="round" stroke-width="2.68"/><path d="M118.25,153.61c-3.6-2.69-4.84-7.93-4.48-12.2.41-59.04.98-120.42,1.54-179.48" fill="none" stroke="#e6e6e6" stroke-linecap="round" stroke-linejoin="round" stroke-width="2.68"/><path d="M323.22,233.61c25.35-24.33,53.2-58.23,77.85-83.41" fill="none" stroke="#e6e6e6" stroke-linecap="round" stroke-linejoin="round" stroke-width="2.68"/><path d="M381.29,171.06c3.11-2.4,74.96-80.96,78.77-82.32" fill="none" stroke="#e6e6e6" stroke-linecap="round" stroke-linejoin="round" stroke-width="2.68"/><path d="M159.96,366.75c-18.5-18.24-40.2-30.16-4.94-45.1" fill="none" stroke="#e6e6e6" stroke-linecap="round" stroke-linejoin="round" stroke-width="2.68"/><path d="M246.61,248.91c-2.49-2.93-9.98-11.74-12.36-14.52" fill="none" stroke="#e6e6e6" stroke-linecap="round" stroke-linejoin="round" stroke-width="2.68"/><path d="M252.32,216.93c.18-3.21,3.15-6.17,6.18-6.95" fill="none" stroke="#e6e6e6" stroke-linecap="round" stroke-linejoin="round" stroke-width="2.68"/><path d="M250.78,224.19c-2.64,3.02-10.2,11.7-12.97,14.36" fill="none" stroke="#e6e6e6" stroke-linecap="round" stroke-linejoin="round" stroke-width="2.68"/><line x1="114.08" y1="128.74" x2="71.45" y2="131.67" fill="none" stroke="#e6e6e6" stroke-linecap="round" stroke-linejoin="round" stroke-width="2.68"/><path d="M247.84,221.26c16.38-16.4,39.43-44.96,56.84-61.32" fill="none" stroke="#e6e6e6" stroke-linecap="round" stroke-linejoin="round" stroke-width="2.68"/><path d="M305.45,102.33c-36.47,41.49-77.32,81.7-115.22,121.87" fill="none" stroke="#e6e6e6" stroke-linecap="round" stroke-linejoin="round" stroke-width="2.68"/><path d="M114.86,9.5c.51-.45,28.94-.1,29.04-1.39,0,0-.62-24.71-.62-24.71-2.44-2.09-3.47-5.19-3.09-8.34" fill="none" stroke="#e6e6e6" stroke-linecap="round" stroke-linejoin="round" stroke-width="2.68"/><path d="M243.98,376.95c49.99-54.71,106.3-112.06,157.08-166.04" fill="none" stroke="#e6e6e6" stroke-linecap="round" stroke-linejoin="round" stroke-width="2.68"/><line x1="381.29" y1="231.3" x2="409.71" y2="201.95" fill="none" stroke="#e6e6e6" stroke-linecap="round" stroke-linejoin="round" stroke-width="2.68"/><path d="M181.43,316.71c-3.53,2.87-9.38,12.57-14.06,11.74-5.91-2.46-14.35-2.13-12.05-10.97,25.73-34.78,63.58-64.18,91.75-97.15" fill="none" stroke="#e6e6e6" stroke-linecap="round" stroke-linejoin="round" stroke-width="2.68"/><path d="M89.83-12.9c-.13,20.7.8,31.18,25.02,26.26" fill="none" stroke="#e6e6e6" stroke-linecap="round" stroke-linejoin="round" stroke-width="2.68"/><path d="M323.22,233.61c25.35-24.33,53.2-58.23,77.85-83.41" fill="none" stroke="#e6e6e6" stroke-linecap="round" stroke-linejoin="round" stroke-width="2.68"/><path d="M381.29,171.06c3.11-2.4,74.96-80.96,78.77-82.32" fill="none" stroke="#e6e6e6" stroke-linecap="round" stroke-linejoin="round" stroke-width="2.68"/><path d="M337.43,306.52c20.37-21.65,43.31-44.63,63.64-66.26" fill="none" stroke="#e6e6e6" stroke-linecap="round" stroke-linejoin="round" stroke-width="2.68"/><path d="M381.29,261.26c10.16-11.54,32.43-33.54,42.79-45.25" fill="none" stroke="#e6e6e6" stroke-linecap="round" stroke-linejoin="round" stroke-width="2.68"/><path d="M394.57,247.05c-13.03-13.66-29.96-28.91-42.94-42.63" fill="none" stroke="#e6e6e6" stroke-linecap="round" stroke-linejoin="round" stroke-width="2.68"/><path d="M394.57,247.05c-2.78-2.84-10.48-10.71-13.28-13.28" fill="none" stroke="#e6e6e6" stroke-linecap="round" stroke-linejoin="round" stroke-width="2.68"/><path d="M712.29,504.37c-150.77-149.87-80.9-130.93-295.78-120.63" fill="none" stroke="#e6e6e6" stroke-linecap="round" stroke-linejoin="round" stroke-width="2.68"/><path d="M229.93,362.89c53.85-57.86,112.11-115.92,165.58-174.23" fill="none" stroke="#e6e6e6" stroke-linecap="round" stroke-linejoin="round" stroke-width="2.68"/><path d="M381.29,204.27c1.55-1.7,13.2-14.05,14.21-15.6" fill="none" stroke="#e6e6e6" stroke-linecap="round" stroke-linejoin="round" stroke-width="2.68"/><path d="M258.35,389.31c46.22-2.76,96.68-3.12,142.72-4.48" fill="none" stroke="#e6e6e6" stroke-linecap="round" stroke-linejoin="round" stroke-width="2.68"/><path d="M381.29,385.44c9.85.3,25.42-1.03,35.22-1.7" fill="none" stroke="#e6e6e6" stroke-linecap="round" stroke-linejoin="round" stroke-width="2.68"/><path d="M401.06,367.84c-33.67-33.15-74.73-69.68-106.42-104.57" fill="none" stroke="#e6e6e6" stroke-linecap="round" stroke-linejoin="round" stroke-width="2.68"/><path d="M416.51,383.74c1.08-1.01-34.14-33.35-35.22-34.6" fill="none" stroke="#e6e6e6" stroke-linecap="round" stroke-linejoin="round" stroke-width="2.68"/><path d="M243.98,376.95c49.99-54.71,106.3-112.06,157.08-166.04" fill="none" stroke="#e6e6e6" stroke-linecap="round" stroke-linejoin="round" stroke-width="2.68"/><line x1="381.29" y1="231.3" x2="409.71" y2="201.95" fill="none" stroke="#e6e6e6" stroke-linecap="round" stroke-linejoin="round" stroke-width="2.68"/><path d="M362.29,157.78c-42.2-41.1-85.56-82.29-128.04-123.1C195.98-2.4,174.68-34.11,115.32-24.17" fill="none" stroke="#e6e6e6" stroke-linecap="round" stroke-linejoin="round" stroke-width="3.22"/><path d="M10.13,521.36C139.58,387.27,273.21,252.56,401.06,117.15" fill="none" stroke="#e6e6e6" stroke-linecap="round" stroke-linejoin="round" stroke-width="3.22"/><path d="M381.29,138.01c40.85-42.68,91.09-99.1,132.83-141.17" fill="none" stroke="#e6e6e6" stroke-linecap="round" stroke-linejoin="round" stroke-width="3.22"/><path d="M401.06,193.76c-12.12-11.31-26.7-24.64-38.77-35.99" fill="none" stroke="#e6e6e6" stroke-linecap="round" stroke-linejoin="round" stroke-width="3.22"/><path d="M530.03,241.34c-83.29,12.57-92.6-14.41-148.74-65.95" fill="none" stroke="#e6e6e6" stroke-linecap="round" stroke-linejoin="round" stroke-width="3.22"/><path d="M10.13,521.36C139.58,387.27,273.21,252.56,401.06,117.15" fill="none" stroke="#e6e6e6" stroke-linecap="round" stroke-linejoin="round" stroke-width="3.22"/><path d="M381.29,138.01c40.85-42.68,91.09-99.1,132.83-141.17" fill="none" stroke="#e6e6e6" stroke-linecap="round" stroke-linejoin="round" stroke-width="3.22"/><path d="M401.06,193.76c-12.12-11.31-26.7-24.64-38.77-35.99" fill="none" stroke="#e6e6e6" stroke-linecap="round" stroke-linejoin="round" stroke-width="3.22"/><path d="M530.03,241.34c-83.29,12.57-92.6-14.41-148.74-65.95" fill="none" stroke="#e6e6e6" stroke-linecap="round" stroke-linejoin="round" stroke-width="3.22"/><path d="M1033.71,226.05c-165.68,5.47-338.23,7.61-503.68,15.29" fill="none" stroke="#e6e6e6" stroke-linecap="round" stroke-linejoin="round" stroke-width="3.22"/><path d="M362.29,157.78c-42.2-41.1-85.56-82.29-128.04-123.1C195.98-2.4,174.68-34.11,115.32-24.17" fill="none" stroke="#e6e6e6" stroke-linecap="round" stroke-linejoin="round" stroke-width="4.61"/><path d="M10.13,521.36C139.58,387.27,273.21,252.56,401.06,117.15" fill="none" stroke="#e6e6e6" stroke-linecap="round" stroke-linejoin="round" stroke-width="4.61"/><path d="M381.29,138.01c40.85-42.68,91.09-99.1,132.83-141.17" fill="none" stroke="#e6e6e6" stroke-linecap="round" stroke-linejoin="round" stroke-width="4.61"/><path d="M10.13,521.36C139.58,387.27,273.21,252.56,401.06,117.15" fill="none" stroke="#e6e6e6" stroke-linecap="round" stroke-linejoin="round" stroke-width="4.61"/><path d="M381.29,138.01c40.85-42.68,91.09-99.1,132.83-141.17" fill="none" stroke="#e6e6e6" stroke-linecap="round" stroke-linejoin="round" stroke-width="4.61"/></g><g class="rail"><path d="M-22.68,579.91C101.1,446.36,239.41,303.22,364.89,171.63" fill="none" stroke="#fff30d" stroke-dasharray="2 3" stroke-linecap="round" stroke-linejoin="round"/><path d="M365.93,170.55c.23-.24.46-.48.69-.72" fill="none" stroke="#fff30d" stroke-linecap="round" stroke-linejoin="round"/><path d="M-52.74,611.46C96.33,456.23,250.38,294.77,399.33,139.5" fill="none" stroke="#fff30d" stroke-dasharray="2 3" stroke-linecap="round" stroke-linejoin="round"/><path d="M400.37,138.42c.23-.24.46-.48.69-.72" fill="none" stroke="#fff30d" stroke-linecap="round" stroke-linejoin="round"/><path d="M381.29,158.39c.23-.24.46-.48.69-.72" fill="none" stroke="#fff30d" stroke-linecap="round" stroke-linejoin="round"/><path d="M384.07,155.49c42.03-43.93,143.71-150.96,183.89-191.78" fill="none" stroke="#fff30d" stroke-dasharray="2.02 3.02" stroke-linecap="round" stroke-linejoin="round"/><path d="M149.3,397.8c.22-.25.45-.5.67-.74" fill="none" stroke="#fff30d" stroke-linecap="round" stroke-linejoin="round"/><path d="M151.97,394.83c79.07-87.75,164-175.33,247.32-258.92" fill="none" stroke="#fff30d" stroke-dasharray="2 3" stroke-linecap="round" stroke-linejoin="round"/><path d="M400.36,134.85c.24-.24.47-.47.71-.71" fill="none" stroke="#fff30d" stroke-linecap="round" stroke-linejoin="round"/><path d="M381.29,154.22c.24-.22.48-.45.72-.69" fill="none" stroke="#fff30d" stroke-linecap="round" stroke-linejoin="round"/><path d="M384.16,151.47c33.73-32.76,139.16-145.96,172.76-176.75" fill="none" stroke="#fff30d" stroke-dasharray="1.99 2.98" stroke-linecap="round" stroke-linejoin="round"/><path d="M-52.74,611.46C96.33,456.23,250.38,294.77,399.33,139.5" fill="none" stroke="#fff30d" stroke-dasharray="2 3" stroke-linecap="round" stroke-linejoin="round"/><path d="M400.37,138.42c.23-.24.46-.48.69-.72" fill="none" stroke="#fff30d" stroke-linecap="round" stroke-linejoin="round"/><path d="M381.29,158.39c.23-.24.46-.48.69-.72" fill="none" stroke="#fff30d" stroke-linecap="round" stroke-linejoin="round"/><path d="M384.07,155.49c42.03-43.93,143.71-150.96,183.89-191.78" fill="none" stroke="#fff30d" stroke-dasharray="2.02 3.02" stroke-linecap="round" stroke-linejoin="round"/><path d="M149.3,397.8c.22-.25.45-.5.67-.74" fill="none" stroke="#fff30d" stroke-linecap="round" stroke-linejoin="round"/><path d="M151.97,394.83c79.07-87.75,164-175.33,247.32-258.92" fill="none" stroke="#fff30d" stroke-dasharray="2 3" stroke-linecap="round" stroke-linejoin="round"/><path d="M400.36,134.85c.24-.24.47-.47.71-.71" fill="none" stroke="#fff30d" stroke-linecap="round" stroke-linejoin="round"/><path d="M381.29,154.22c.24-.22.48-.45.72-.69" fill="none" stroke="#fff30d" stroke-linecap="round" stroke-linejoin="round"/><path d="M384.16,151.47c33.73-32.76,139.16-145.96,172.76-176.75" fill="none" stroke="#fff30d" stroke-dasharray="1.99 2.98" stroke-linecap="round" stroke-linejoin="round"/></g><g class="grid"><path d="M195.94,331.08c-25.73-25.95-54.82-51.14-80.62-77.07" fill="none" stroke="#ccc" stroke-linecap="round" stroke-linejoin="round" stroke-width="2.68"/><path d="M260.35,234.08c36.07-36.18,74.29-79.7,109.82-116.15,3.97-1.68,7.21,2.55,9.42,5.25" fill="none" stroke="#ccc" stroke-linecap="round" stroke-linejoin="round" stroke-width="2.68"/><path d="M401.06,367.84c-33.67-33.15-74.73-69.68-106.42-104.57" fill="none" stroke="#ccc" stroke-linecap="round" stroke-linejoin="round" stroke-width="2.68"/><path d="M416.51,383.74c1.08-1.01-34.14-33.35-35.22-34.6" fill="none" stroke="#ccc" stroke-linecap="round" stroke-linejoin="round" stroke-width="2.68"/><path d="M115.32,254c6.03-2.74,14.88,1.08,21.01-2.32,58.33-59.43,117.07-123.18,175.62-182.57" fill="none" stroke="#ccc" stroke-linecap="round" stroke-linejoin="round" stroke-width="2.68"/><path d="M258.35,389.31c25.16-27.59,53.42-55.58,79.08-82.79" fill="none" stroke="#ccc" stroke-linecap="round" stroke-linejoin="round" stroke-width="2.68"/><path d="M333.1,188.2c-30.99-31.56-65.84-64.25-97.62-95.14" fill="none" stroke="#ccc" stroke-linecap="round" stroke-linejoin="round" stroke-width="2.68"/><path d="M394.57,247.05c-13.03-13.66-29.96-28.91-42.94-42.63" fill="none" stroke="#ccc" stroke-linecap="round" stroke-linejoin="round" stroke-width="2.68"/><path d="M394.57,247.05c-2.78-2.84-10.48-10.71-13.28-13.28" fill="none" stroke="#ccc" stroke-linecap="round" stroke-linejoin="round" stroke-width="2.68"/><path d="M337.43,306.52c20.37-21.65,43.31-44.63,63.64-66.26" fill="none" stroke="#ccc" stroke-linecap="round" stroke-linejoin="round" stroke-width="2.68"/><path d="M381.29,261.26c10.16-11.54,32.43-33.54,42.79-45.25" fill="none" stroke="#ccc" stroke-linecap="round" stroke-linejoin="round" stroke-width="2.68"/><path d="M379.59,123.18c1.72,1.87,5.68,7.03,7.26,9.11" fill="none" stroke="#ccc" stroke-linecap="round" stroke-linejoin="round" stroke-width="2.68"/><path d="M307,387.14c-21.59-19.62-46.47-45.61-68.73-64.25" fill="none" stroke="#ccc" stroke-linecap="round" stroke-linejoin="round" stroke-width="2.68"/><path d="M357.97,385.29c-28.74-28.43-63.83-62.38-92.98-90.05" fill="none" stroke="#ccc" stroke-linecap="round" stroke-linejoin="round" stroke-width="2.68"/><path d="M148.68,182.95c1.46-1.48,29.1-29.02,29.19-29.35" fill="none" stroke="#ccc" stroke-linecap="round" stroke-linejoin="round" stroke-width="2.68"/><path d="M177.1,152.83c33.27-33.5,70.33-71.98,102.87-106.11" fill="none" stroke="#ccc" stroke-linecap="round" stroke-linejoin="round" stroke-width="2.68"/><path d="M365.69,276.86c-13.16-13.54-30.04-28.82-42.48-43.25" fill="none" stroke="#ccc" stroke-linecap="round" stroke-linejoin="round" stroke-width="2.68"/><path d="M219.73,193.3c-3.58-2.98-11.38-9.82-14.37-13.28" fill="none" stroke="#ccc" stroke-linecap="round" stroke-linejoin="round" stroke-width="2.68"/><path d="M229.93,362.89c53.85-57.86,112.11-115.92,165.58-174.23" fill="none" stroke="#ccc" stroke-linecap="round" stroke-linejoin="round" stroke-width="2.68"/><path d="M381.29,204.27c1.55-1.7,13.2-14.05,14.21-15.6" fill="none" stroke="#ccc" stroke-linecap="round" stroke-linejoin="round" stroke-width="2.68"/><path d="M153.62,290.45c56.64-61.2,117.1-122.42,174.38-183.03" fill="none" stroke="#ccc" stroke-linecap="round" stroke-linejoin="round" stroke-width="2.68"/><path d="M181.43,316.71c25.26-26.8,54.02-55.51,78.93-82.63" fill="none" stroke="#ccc" stroke-linecap="round" stroke-linejoin="round" stroke-width="2.68"/><path d="M142.97,119.47c2.69-2.86,17.61-18.22,19.62-21.01" fill="none" stroke="#ccc" stroke-linecap="round" stroke-linejoin="round" stroke-width="2.68"/><path d="M205.37,180.02c-29.32-28.09-61.56-60.58-91.59-88.19" fill="none" stroke="#ccc" stroke-linecap="round" stroke-linejoin="round" stroke-width="2.68"/><path d="M112.69,453.4c22.19-23.47,79.43-82.9,101.63-105.34" fill="none" stroke="#ccc" stroke-linecap="round" stroke-linejoin="round" stroke-width="2.68"/><path d="M294.64,263.27c4.56-5.29,23.36-24.33,28.57-29.66" fill="none" stroke="#ccc" stroke-linecap="round" stroke-linejoin="round" stroke-width="2.68"/><path d="M264.99,295.24c-48.76-46.78-98.42-94.34-146.73-141.64" fill="none" stroke="#ccc" stroke-linecap="round" stroke-linejoin="round" stroke-width="2.68"/><path d="M220.81,305.9c-21.81-22.82-47.22-46.75-69.81-68.73" fill="none" stroke="#ccc" stroke-linecap="round" stroke-linejoin="round" stroke-width="2.68"/><path d="M258.35,389.31c-15.54-11.59-29.67-28.21-44.02-41.24" fill="none" stroke="#ccc" stroke-linecap="round" stroke-linejoin="round" stroke-width="2.68"/><path d="M304.99,217.4c-31.59-31.82-66.72-62.67-98.39-94.37" fill="none" stroke="#ccc" stroke-linecap="round" stroke-linejoin="round" stroke-width="2.68"/><path d="M260.35,234.08c-12.32-13.23-28.14-27.69-40.62-40.78" fill="none" stroke="#ccc" stroke-linecap="round" stroke-linejoin="round" stroke-width="2.68"/><line x1="275.49" y1="248.29" x2="260.35" y2="234.08" fill="none" stroke="#ccc" stroke-linecap="round" stroke-linejoin="round" stroke-width="2.68"/><path d="M214.33,348.07c25.32-26.32,55.46-58.27,80.32-84.8" fill="none" stroke="#ccc" stroke-linecap="round" stroke-linejoin="round" stroke-width="2.68"/><path d="M323.22,233.61c25.35-24.33,53.2-58.23,77.85-83.41" fill="none" stroke="#ccc" stroke-linecap="round" stroke-linejoin="round" stroke-width="2.68"/><path d="M381.29,171.06c3.11-2.4,74.96-80.96,78.77-82.32" fill="none" stroke="#ccc" stroke-linecap="round" stroke-linejoin="round" stroke-width="2.68"/><path d="M159.96,366.75c-18.5-18.24-40.2-30.16-4.94-45.1" fill="none" stroke="#ccc" stroke-linecap="round" stroke-linejoin="round" stroke-width="2.68"/><path d="M246.61,248.91c-2.49-2.93-9.98-11.74-12.36-14.52" fill="none" stroke="#ccc" stroke-linecap="round" stroke-linejoin="round" stroke-width="2.68"/><path d="M252.32,216.93c.18-3.21,3.15-6.17,6.18-6.95" fill="none" stroke="#ccc" stroke-linecap="round" stroke-linejoin="round" stroke-width="2.68"/><path d="M250.78,224.19c-2.64,3.02-10.2,11.7-12.97,14.36" fill="none" stroke="#ccc" stroke-linecap="round" stroke-linejoin="round" stroke-width="2.68"/><path d="M247.84,221.26c16.38-16.4,39.43-44.96,56.84-61.32" fill="none" stroke="#ccc" stroke-linecap="round" stroke-linejoin="round" stroke-width="2.68"/><path d="M305.45,102.33c-36.47,41.49-77.32,81.7-115.22,121.87" fill="none" stroke="#ccc" stroke-linecap="round" stroke-linejoin="round" stroke-width="2.68"/><path d="M243.98,376.95c49.99-54.71,106.3-112.06,157.08-166.04" fill="none" stroke="#ccc" stroke-linecap="round" stroke-linejoin="round" stroke-width="2.68"/><line x1="381.29" y1="231.3" x2="409.71" y2="201.95" fill="none" stroke="#ccc" stroke-linecap="round" stroke-linejoin="round" stroke-width="2.68"/><path d="M181.43,316.71c-3.53,2.87-9.38,12.57-14.06,11.74-5.91-2.46-14.35-2.13-12.05-10.97,25.73-34.78,63.58-64.18,91.75-97.15" fill="none" stroke="#ccc" stroke-linecap="round" stroke-linejoin="round" stroke-width="2.68"/><path d="M323.22,233.61c25.35-24.33,53.2-58.23,77.85-83.41" fill="none" stroke="#ccc" stroke-linecap="round" stroke-linejoin="round" stroke-width="2.68"/><path d="M381.29,171.06c3.11-2.4,74.96-80.96,78.77-82.32" fill="none" stroke="#ccc" stroke-linecap="round" stroke-linejoin="round" stroke-width="2.68"/><path d="M337.43,306.52c20.37-21.65,43.31-44.63,63.64-66.26" fill="none" stroke="#ccc" stroke-linecap="round" stroke-linejoin="round" stroke-width="2.68"/><path d="M381.29,261.26c10.16-11.54,32.43-33.54,42.79-45.25" fill="none" stroke="#ccc" stroke-linecap="round" stroke-linejoin="round" stroke-width="2.68"/><path d="M394.57,247.05c-13.03-13.66-29.96-28.91-42.94-42.63" fill="none" stroke="#ccc" stroke-linecap="round" stroke-linejoin="round" stroke-width="2.68"/><path d="M394.57,247.05c-2.78-2.84-10.48-10.71-13.28-13.28" fill="none" stroke="#ccc" stroke-linecap="round" stroke-linejoin="round" stroke-width="2.68"/><path d="M229.93,362.89c53.85-57.86,112.11-115.92,165.58-174.23" fill="none" stroke="#ccc" stroke-linecap="round" stroke-linejoin="round" stroke-width="2.68"/><path d="M381.29,204.27c1.55-1.7,13.2-14.05,14.21-15.6" fill="none" stroke="#ccc" stroke-linecap="round" stroke-linejoin="round" stroke-width="2.68"/><path d="M401.06,367.84c-33.67-33.15-74.73-69.68-106.42-104.57" fill="none" stroke="#ccc" stroke-linecap="round" stroke-linejoin="round" stroke-width="2.68"/><path d="M416.51,383.74c1.08-1.01-34.14-33.35-35.22-34.6" fill="none" stroke="#ccc" stroke-linecap="round" stroke-linejoin="round" stroke-width="2.68"/><path d="M243.98,376.95c49.99-54.71,106.3-112.06,157.08-166.04" fill="none" stroke="#ccc" stroke-linecap="round" stroke-linejoin="round" stroke-width="2.68"/><line x1="381.29" y1="231.3" x2="409.71" y2="201.95" fill="none" stroke="#ccc" stroke-linecap="round" stroke-linejoin="round" stroke-width="2.68"/><path d="M362.29,157.78C306.74,103.68,248.95,49.14,193.16-4.87" fill="none" stroke="#ccc" stroke-linecap="round" stroke-linejoin="round" stroke-width="3.22"/><path d="M10.13,521.36C139.58,387.27,273.21,252.56,401.06,117.15" fill="none" stroke="#ccc" stroke-linecap="round" stroke-linejoin="round" stroke-width="3.22"/><path d="M381.29,138.01c40.85-42.68,91.09-99.1,132.83-141.17" fill="none" stroke="#ccc" stroke-linecap="round" stroke-linejoin="round" stroke-width="3.22"/><path d="M401.06,193.76c-12.12-11.31-26.7-24.64-38.77-35.99" fill="none" stroke="#ccc" stroke-linecap="round" stroke-linejoin="round" stroke-width="3.22"/><path d="M442.92,231.45c-21.65-16.45-41.29-38.05-61.63-56.07" fill="none" stroke="#ccc" stroke-linecap="round" stroke-linejoin="round" stroke-width="3.22"/><path d="M10.13,521.36C139.58,387.27,273.21,252.56,401.06,117.15" fill="none" stroke="#ccc" stroke-linecap="round" stroke-linejoin="round" stroke-width="3.22"/><path d="M381.29,138.01c40.85-42.68,91.09-99.1,132.83-141.17" fill="none" stroke="#ccc" stroke-linecap="round" stroke-linejoin="round" stroke-width="3.22"/><path d="M401.06,193.76c-12.12-11.31-26.7-24.64-38.77-35.99" fill="none" stroke="#ccc" stroke-linecap="round" stroke-linejoin="round" stroke-width="3.22"/><path d="M442.92,231.45c-21.65-16.45-41.29-38.05-61.63-56.07" fill="none" stroke="#ccc" stroke-linecap="round" stroke-linejoin="round" stroke-width="3.22"/><path d="M362.29,157.78C306.74,103.68,248.95,49.14,193.16-4.87" fill="none" stroke="#ccc" stroke-linecap="round" stroke-linejoin="round" stroke-width="4.61"/><path d="M10.13,521.36C139.58,387.27,273.21,252.56,401.06,117.15" fill="none" stroke="#ccc" stroke-linecap="round" stroke-linejoin="round" stroke-width="4.61"/><path d="M381.29,138.01c40.85-42.68,91.09-99.1,132.83-141.17" fill="none" stroke="#ccc" stroke-linecap="round" stroke-linejoin="round" stroke-width="4.61"/><path d="M10.13,521.36C139.58,387.27,273.21,252.56,401.06,117.15" fill="none" stroke="#ccc" stroke-linecap="round" stroke-linejoin="round" stroke-width="4.61"/><path d="M381.29,138.01c40.85-42.68,91.09-99.1,132.83-141.17" fill="none" stroke="#ccc" stroke-linecap="round" stroke-linejoin="round" stroke-width="4.61"/></g><g class="chestnut"><path d="M547.64-38.07c-53.84,54.94-113.7,120.01-166.35,176.08l19.77-20.85C273.23,252.53,139.54,387.31,10.13,521.36" fill="none" stroke-linecap="round" stroke-linejoin="round"/></g><g class="oak"><path d="M111.46,518.43c-.18-18.92-1.5-43.41,0-62.25,20.86-26.15,80.25-83.97,102.87-108.12" fill="none" stroke-linecap="round" stroke-linejoin="round"/><path d="M294.64,263.27c4.56-5.29,23.36-24.33,28.57-29.66" fill="none" stroke-linecap="round" stroke-linejoin="round"/><path d="M214.33,348.07c25.32-26.32,55.46-58.27,80.32-84.8" fill="none" stroke-linecap="round" stroke-linejoin="round"/><path d="M323.22,233.61c25.35-24.33,53.2-58.23,77.85-83.41" fill="none" stroke-linecap="round" stroke-linejoin="round"/><path d="M381.29,171.06c3.11-2.4,74.96-80.96,78.77-82.32" fill="none" stroke-linecap="round" stroke-linejoin="round"/></g></svg>