<?xml version="1.0" encoding="UTF-8"?><svg xmlns="http://www.w3.org/2000/svg" viewBox="0 0 600 480"><g class="allpaths"><path d="M235.62,182.15c-3.96-19.46,7.74-49.72,9.1-70.38" fill="none" stroke="#e6e6e6" stroke-linecap="round" stroke-linejoin="round" stroke-width="2.62"/><path d="M416.48,70.18c.08-14.38-1.37-46.53-1.79-61.28" fill="none" stroke="#e6e6e6" stroke-linecap="round" stroke-linejoin="round" stroke-width="2.62"/><path d="M102.03,276.39c-1.12-40.01-3.72-88.65-3.58-128.52" fill="none" stroke="#e6e6e6" stroke-linecap="round" stroke-linejoin="round" stroke-width="2.62"/><path d="M69.82,207.05c-8.6-4.03-20.31-4.12-29.08-6.11-27.6-19.24-22.09,9.21-22.07,27.43" fill="none" stroke="#e6e6e6" stroke-linecap="round" stroke-linejoin="round" stroke-width="2.62"/><path d="M244.72,111.78c6.41-25.53,13.9-68.32,12.97-94.68" fill="none" stroke="#e6e6e6" stroke-linecap="round" stroke-linejoin="round" stroke-width="2.62"/><path d="M227.72,333.79c1.02-5.09,8.58-47.92,9.69-54.12" fill="none" stroke="#e6e6e6" stroke-linecap="round" stroke-linejoin="round" stroke-width="2.62"/><path d="M221.16,372.11c3.16-18.17,6.74-39.23,9.99-57.4" fill="none" stroke="#e6e6e6" stroke-linecap="round" stroke-linejoin="round" stroke-width="2.62"/><path d="M137.36,275.34c-.94-31.55-2.44-65.97-2.83-97.51" fill="none" stroke="#e6e6e6" stroke-linecap="round" stroke-linejoin="round" stroke-width="2.62"/><polyline points="103.37 320.37 102.18 278.62 102.03 276.39" fill="none" stroke="#e6e6e6" stroke-linecap="round" stroke-linejoin="round" stroke-width="2.62"/><path d="M270.96,333.79c1.56-9.16,6.36-37.23,7.9-46.82" fill="none" stroke="#e6e6e6" stroke-linecap="round" stroke-linejoin="round" stroke-width="2.62"/><path d="M263.36,379.56c3.05-20.87,7.25-44.1,10.88-64.86" fill="none" stroke="#e6e6e6" stroke-linecap="round" stroke-linejoin="round" stroke-width="2.62"/><path d="M320.76,57.06c-.62-6.97-15.34-5.43-20.28-7.16-10.61-3.85-38.02-2.14-42.49-13.12" fill="none" stroke="#e6e6e6" stroke-linecap="round" stroke-linejoin="round" stroke-width="2.62"/><path d="M70.87,228.67c-5-16.47,8.85-67.75-15.35-68.44-62.09,8.33-43.65-1.9-45.18,67.84" fill="none" stroke="#e6e6e6" stroke-linecap="round" stroke-linejoin="round" stroke-width="2.62"/><path d="M237.41,279.67c13.17-77,27.78-157.04,41.6-233.79" fill="none" stroke="#e6e6e6" stroke-linecap="round" stroke-linejoin="round" stroke-width="2.62"/><path d="M404.26,212.12c-26.85-4.99-56.77-10.5-83.8-14.61" fill="none" stroke="#e6e6e6" stroke-linecap="round" stroke-linejoin="round" stroke-width="2.62"/><line x1="172.4" y1="274.45" x2="170.47" y2="226.44" fill="none" stroke="#e6e6e6" stroke-linecap="round" stroke-linejoin="round" stroke-width="2.62"/><path d="M312.86,100.89c.15-2.63,7.24-40.07,7.9-43.84" fill="none" stroke="#e6e6e6" stroke-linecap="round" stroke-linejoin="round" stroke-width="2.62"/><path d="M339.4,14.86c9.55.24,23.26-2.35,30.12,5.96" fill="none" stroke="#e6e6e6" stroke-linecap="round" stroke-linejoin="round" stroke-width="2.62"/><path d="M139.45,333.79c-.61-17.27-1.46-41.13-2.09-58.45" fill="none" stroke="#e6e6e6" stroke-linecap="round" stroke-linejoin="round" stroke-width="2.62"/><path d="M144.37,381.65c-3.39-19.18-5.35-47.76-5.67-66.95" fill="none" stroke="#e6e6e6" stroke-linecap="round" stroke-linejoin="round" stroke-width="2.62"/><path d="M76.08,333.79c-.66-17.47-1.86-38.14-2.24-55.61" fill="none" stroke="#e6e6e6" stroke-linecap="round" stroke-linejoin="round" stroke-width="2.62"/><path d="M77.57,376.88c.21-19.73-1.59-42.44-2.38-62.18" fill="none" stroke="#e6e6e6" stroke-linecap="round" stroke-linejoin="round" stroke-width="2.62"/><path d="M173.75,333.79c.31-17.43-.84-41.97-1.34-59.34" fill="none" stroke="#e6e6e6" stroke-linecap="round" stroke-linejoin="round" stroke-width="2.62"/><path d="M174.49,348.1c-.76-9.36-.7-24.07-.89-33.4" fill="none" stroke="#e6e6e6" stroke-linecap="round" stroke-linejoin="round" stroke-width="2.62"/><polyline points="257.69 17.1 261.42 -25.1 278.86 -29.42" fill="none" stroke="#e6e6e6" stroke-linecap="round" stroke-linejoin="round" stroke-width="2.62"/><path d="M209.68,333.79c-.41-9.79-2.16-49.12-2.68-59.64" fill="none" stroke="#e6e6e6" stroke-linecap="round" stroke-linejoin="round" stroke-width="2.62"/><path d="M217.88,548.79c-2.56-76.35-6.07-157.95-8.95-234.09" fill="none" stroke="#e6e6e6" stroke-linecap="round" stroke-linejoin="round" stroke-width="2.62"/><path d="M320.16,54.52c14.34-6.23,10.28-27.12,12.67-39.66" fill="none" stroke="#e6e6e6" stroke-linecap="round" stroke-linejoin="round" stroke-width="2.62"/><path d="M303.91,291c56.09,8.83,114.41,20.67,170.42,30.42" fill="none" stroke="#e6e6e6" stroke-linecap="round" stroke-linejoin="round" stroke-width="2.62"/><path d="M455.25,318.13c25.04,7.98,80.24,5.8,107.95,4.17,13.8-2.75,55.52,5.4,62.77-9.99" fill="none" stroke="#e6e6e6" stroke-linecap="round" stroke-linejoin="round" stroke-width="2.62"/><path d="M455.25,318.13c43.77,11.34,106.33,2.7,150.89,3.13,5.97-1.44,15.23-.05,18.34-6.56" fill="none" stroke="#e6e6e6" stroke-linecap="round" stroke-linejoin="round" stroke-width="2.62"/><path d="M116.49,333.79c-.12-2.97-.4-10.55-.15-13.42" fill="none" stroke="#e6e6e6" stroke-linecap="round" stroke-linejoin="round" stroke-width="2.62"/><path d="M118.88,347.36c-4.01-5.06-2.1-20.96-2.53-26.99" fill="none" stroke="#e6e6e6" stroke-linecap="round" stroke-linejoin="round" stroke-width="2.62"/><path d="M474.33,273.25c-52.95-9.8-110.14-19.23-162.82-29.52" fill="none" stroke="#e6e6e6" stroke-linecap="round" stroke-linejoin="round" stroke-width="2.62"/><path d="M624.03,265.95c-54.37,5.85-114.53,13.22-168.78,4.03" fill="none" stroke="#e6e6e6" stroke-linecap="round" stroke-linejoin="round" stroke-width="2.62"/><path d="M416.48,70.18c-23.67-1.9-47.41-9.31-70.82-12.97" fill="none" stroke="#e6e6e6" stroke-linecap="round" stroke-linejoin="round" stroke-width="2.62"/><path d="M198.2,19.33c-3.55-99.03-7.55-216.78-10.89-315.35" fill="none" stroke="#e6e6e6" stroke-linecap="round" stroke-linejoin="round" stroke-width="2.62"/><path d="M311.52,243.73c-6.36-1.05-17.76-3.03-24.15-4.03" fill="none" stroke="#e6e6e6" stroke-linecap="round" stroke-linejoin="round" stroke-width="2.62"/><path d="M370.11,158.6c-13.09-2.65-28.09-5.92-41.15-8.8" fill="none" stroke="#e6e6e6" stroke-linecap="round" stroke-linejoin="round" stroke-width="2.62"/><path d="M378.01,111.63c-12.96-1.77-28.5-4.84-41.3-7.16" fill="none" stroke="#e6e6e6" stroke-linecap="round" stroke-linejoin="round" stroke-width="2.62"/><path d="M376.37,333.79c1.08-6.03,4.53-22.84,5.82-29.07" fill="none" stroke="#e6e6e6" stroke-linecap="round" stroke-linejoin="round" stroke-width="2.62"/><path d="M373.69,767.38c.92-149.45-29.55-306.11,6.41-452.67" fill="none" stroke="#e6e6e6" stroke-linecap="round" stroke-linejoin="round" stroke-width="2.62"/><path d="M387.71,305.61c11.23-76.74,35.66-157.34,28.78-235.43" fill="none" stroke="#e6e6e6" stroke-linecap="round" stroke-linejoin="round" stroke-width="2.62"/><path d="M244.72,111.78c-11.1.24-31.83,1.58-43.09,1.79" fill="none" stroke="#e6e6e6" stroke-linecap="round" stroke-linejoin="round" stroke-width="2.62"/><path d="M-64.37,23.06c126.5-4.27,278.31-2.32,403.77-8.2" fill="none" stroke="#e6e6e6" stroke-linecap="round" stroke-linejoin="round" stroke-width="2.62"/><path d="M338.65,333.79c2.01-9.95,4.62-25.71,6.56-35.78" fill="none" stroke="#e6e6e6" stroke-linecap="round" stroke-linejoin="round" stroke-width="2.62"/><path d="M322.55,422.8c6.52-34.42,13.01-73.84,19.68-108.1" fill="none" stroke="#e6e6e6" stroke-linecap="round" stroke-linejoin="round" stroke-width="2.62"/><path d="M278.86,286.97c10.63-61.09,23.07-124.92,33.99-186.08" fill="none" stroke="#e6e6e6" stroke-linecap="round" stroke-linejoin="round" stroke-width="2.62"/><path d="M207,274.15c-2.07-79.5-5.81-174.96-8.8-254.81" fill="none" stroke="#e6e6e6" stroke-linecap="round" stroke-linejoin="round" stroke-width="2.62"/><path d="M312.86,100.89c-19.13-5.04-43.59-8.83-62.92-12.82" fill="none" stroke="#e6e6e6" stroke-linecap="round" stroke-linejoin="round" stroke-width="2.62"/><path d="M170.47,226.44c-.57-12.01-1.53-37.34-1.64-49.2" fill="none" stroke="#e6e6e6" stroke-linecap="round" stroke-linejoin="round" stroke-width="2.62"/><path d="M345.21,298.01c14.26-76.21,26.41-156.74,42.2-232.6" fill="none" stroke="#e6e6e6" stroke-linecap="round" stroke-linejoin="round" stroke-width="2.62"/><path d="M287.36,239.71c-113.3-26.33-231.31-4.79-346.66-13.27" fill="none" stroke="#e6e6e6" stroke-linecap="round" stroke-linejoin="round" stroke-width="2.62"/><path d="M300.78,195.13c-29.83-9.38-66.03-12.03-96.92-18.19" fill="none" stroke="#e6e6e6" stroke-linecap="round" stroke-linejoin="round" stroke-width="2.62"/><path d="M69.37,179.77c44.37-1.13,90.06-3.05,134.49-2.83" fill="none" stroke="#e6e6e6" stroke-linecap="round" stroke-linejoin="round" stroke-width="2.62"/><path d="M209.08,319.18c-43.97.87-89.49.62-133.45,2.09" fill="none" stroke="#e6e6e6" stroke-linecap="round" stroke-linejoin="round" stroke-width="2.62"/><path d="M271.11,332.6c-19.75-4.22-42.53-6.62-62.03-11.78" fill="none" stroke="#e6e6e6" stroke-linecap="round" stroke-linejoin="round" stroke-width="2.62"/><path d="M271.11,332.6c-19.75-4.22-42.53-6.62-62.03-11.78" fill="none" stroke="#e6e6e6" stroke-linecap="round" stroke-linejoin="round" stroke-width="2.62"/><line x1="303.76" y1="149.5" x2="261.57" y2="142.49" fill="none" stroke="#e6e6e6" stroke-linecap="round" stroke-linejoin="round" stroke-width="2.62"/><line x1="232.79" y1="181.71" x2="223.84" y2="228.23" fill="none" stroke="#e6e6e6" stroke-linecap="round" stroke-linejoin="round" stroke-width="2.62"/><line x1="414.99" y1="310.53" x2="411.26" y2="333.79" fill="none" stroke="#e6e6e6" stroke-linecap="round" stroke-linejoin="round" stroke-width="2.62"/><path d="M414.4,314.7c-1.44,7.12-4.37,23.94-1.49,30.86-.91,5.38-1.83,7.44-6.86,9.99,0,0-33.4-6.41-33.4-6.41" fill="none" stroke="#e6e6e6" stroke-linecap="round" stroke-linejoin="round" stroke-width="2.62"/><path d="M443.62,112.22c-.6-19.51-1.41-46.29-1.79-65.75,7.85-.28,24.78-.98,32.5-1.19" fill="none" stroke="#e6e6e6" stroke-linecap="round" stroke-linejoin="round" stroke-width="2.62"/><path d="M455.25,46.02c3.81-.33,19.3-.71,23.41-.89,7.24,6.14,3.03,19.87,5.07,28.33-2.89,2.69-5.26,8.93-5.37,12.82" fill="none" stroke="#e6e6e6" stroke-linecap="round" stroke-linejoin="round" stroke-width="2.62"/><path d="M441.83,46.47c-24.55,1.73-21.17-4.8-19.98,20.87" fill="none" stroke="#e6e6e6" stroke-linecap="round" stroke-linejoin="round" stroke-width="2.62"/><path d="M463.15,111.78c-.69-19.59-1.02-46.53-2.09-66.05" fill="none" stroke="#e6e6e6" stroke-linecap="round" stroke-linejoin="round" stroke-width="2.62"/><path d="M474.33,65.26c-15.28.53-37.16,1.38-52.48,2.09-.24,11.23.71,34.08,1.64,45.33" fill="none" stroke="#e6e6e6" stroke-linecap="round" stroke-linejoin="round" stroke-width="2.62"/><path d="M483.13,64.96c-4.92.18-23.32.8-27.88,1.04" fill="none" stroke="#e6e6e6" stroke-linecap="round" stroke-linejoin="round" stroke-width="2.62"/><path d="M471.65,114.61c-.85-6.59-40.84-.58-48.16-1.94,0,0-.3,15.8-.3,15.8l4.32,5.66c1.54-.29,5.66.16,5.96-2.09" fill="none" stroke="#e6e6e6" stroke-linecap="round" stroke-linejoin="round" stroke-width="2.62"/><path d="M471.65,114.61l-1.64-2.98c-3.64.08-11.1.23-14.76.3" fill="none" stroke="#e6e6e6" stroke-linecap="round" stroke-linejoin="round" stroke-width="2.62"/><path d="M417.23,88.67c17.18-.63,39.95-1.65,57.11-2.24" fill="none" stroke="#e6e6e6" stroke-linecap="round" stroke-linejoin="round" stroke-width="2.62"/><path d="M474.33,112.52c-3.85.61-3.21,10.88-3.73,13.42,0,0-2.09,6.56-2.09,6.56-6.19,4.65-8.18,6.22-16.1,4.17,0,0-18.94-4.62-18.94-4.62,1.93-22.63,22.46-10.98,38.17-17.44" fill="none" stroke="#e6e6e6" stroke-linecap="round" stroke-linejoin="round" stroke-width="2.62"/><path d="M455.25,87.18c4.62-.29,18.29-.66,23.11-.89.19,10.86,5.71,21.7-6.71,28.33.14,9.9-3.04,25.9-16.4,22.51" fill="none" stroke="#e6e6e6" stroke-linecap="round" stroke-linejoin="round" stroke-width="2.62"/><path d="M455.25,117.29c3.7.09,12.73-1.83,16.4-2.68" fill="none" stroke="#e6e6e6" stroke-linecap="round" stroke-linejoin="round" stroke-width="2.62"/><line x1="410.37" y1="285.78" x2="406.49" y2="309.04" fill="none" stroke="#e6e6e6" stroke-linecap="round" stroke-linejoin="round" stroke-width="2.62"/><polyline points="474.33 296.51 410.37 285.78 414.54 262.37" fill="none" stroke="#e6e6e6" stroke-linecap="round" stroke-linejoin="round" stroke-width="2.62"/><line x1="492.38" y1="299.5" x2="455.25" y2="293.23" fill="none" stroke="#e6e6e6" stroke-linecap="round" stroke-linejoin="round" stroke-width="2.62"/><path d="M357.89,300.24c.88-4.04,3-12.86,3.73-17-7.2-5.95-7.84,3.43-8.35,8.5.15,1.56,5.11,1.5,6.11,1.94" fill="none" stroke="#e6e6e6" stroke-linecap="round" stroke-linejoin="round" stroke-width="2.62"/><path d="M189.4,274c-.51-24.19-2.24-72.88-3.43-97.07" fill="none" stroke="#e6e6e6" stroke-linecap="round" stroke-linejoin="round" stroke-width="2.62"/><path d="M365.19,61.08c-15.66,88.8-32.77,183.8-47.86,272.71" fill="none" stroke="#e6e6e6" stroke-linecap="round" stroke-linejoin="round" stroke-width="2.62"/><path d="M320.61,314.7c-2.73,17.26-9.91,54.9-12.97,72.46" fill="none" stroke="#e6e6e6" stroke-linecap="round" stroke-linejoin="round" stroke-width="2.62"/><path d="M151.08,177.53c1.9,42.26,3.39,100.14,4.47,142.39" fill="none" stroke="#e6e6e6" stroke-linecap="round" stroke-linejoin="round" stroke-width="2.62"/><line x1="190.74" y1="319.33" x2="191.34" y2="333.79" fill="none" stroke="#e6e6e6" stroke-linecap="round" stroke-linejoin="round" stroke-width="2.62"/><line x1="190.74" y1="319.33" x2="192.08" y2="352.58" fill="none" stroke="#e6e6e6" stroke-linecap="round" stroke-linejoin="round" stroke-width="2.62"/><line x1="116.19" y1="178.28" x2="117.53" y2="227.63" fill="none" stroke="#e6e6e6" stroke-linecap="round" stroke-linejoin="round" stroke-width="2.62"/><line x1="378.16" y1="324.4" x2="341.63" y2="317.69" fill="none" stroke="#e6e6e6" stroke-linecap="round" stroke-linejoin="round" stroke-width="2.62"/><line x1="378.16" y1="324.4" x2="341.63" y2="317.69" fill="none" stroke="#e6e6e6" stroke-linecap="round" stroke-linejoin="round" stroke-width="2.62"/><path d="M373.54,255.06c5.28-31.62,18.74-104.59,23.56-137.02-.91-5.81-15.16-5.37-19.09-6.41" fill="none" stroke="#e6e6e6" stroke-linecap="round" stroke-linejoin="round" stroke-width="2.62"/><line x1="420.96" y1="47.37" x2="416.04" y2="47.81" fill="none" stroke="#e6e6e6" stroke-linecap="round" stroke-linejoin="round" stroke-width="2.62"/><path d="M274.54,188.71c-6.44,47.06-16.52,98.27-24.9,145.08" fill="none" stroke="#e6e6e6" stroke-linecap="round" stroke-linejoin="round" stroke-width="2.62"/><path d="M253.22,314.7c-3.64,19.38-7.47,41.83-10.74,61.28" fill="none" stroke="#e6e6e6" stroke-linecap="round" stroke-linejoin="round" stroke-width="2.62"/><line x1="117.53" y1="227.63" x2="119.17" y2="275.49" fill="none" stroke="#e6e6e6" stroke-linecap="round" stroke-linejoin="round" stroke-width="2.62"/><path d="M541.58,5.17c-.33-68.79-3.96-167.62-5.67-236.62" fill="none" stroke="#e6e6e6" stroke-linecap="round" stroke-linejoin="round" stroke-width="2.62"/><path d="M604.8-233.99c-33.09-1.01-78.66,3.78-111.83,2.53,1.02,69.5,1.2,169.05,3.28,238.27" fill="none" stroke="#e6e6e6" stroke-linecap="round" stroke-linejoin="round" stroke-width="2.62"/><path d="M303.91,291c56.09,8.83,114.41,20.67,170.42,30.42" fill="none" stroke="#e6e6e6" stroke-linecap="round" stroke-linejoin="round" stroke-width="2.62"/><path d="M455.25,318.13c25.04,7.98,80.24,5.8,107.95,4.17,13.8-2.75,55.52,5.4,62.77-9.99" fill="none" stroke="#e6e6e6" stroke-linecap="round" stroke-linejoin="round" stroke-width="2.62"/><path d="M455.25,318.13c43.77,11.34,106.33,2.7,150.89,3.13,5.97-1.44,15.23-.05,18.34-6.56" fill="none" stroke="#e6e6e6" stroke-linecap="round" stroke-linejoin="round" stroke-width="2.62"/><path d="M474.33,273.25c-52.95-9.8-110.14-19.23-162.82-29.52" fill="none" stroke="#e6e6e6" stroke-linecap="round" stroke-linejoin="round" stroke-width="2.62"/><path d="M624.03,265.95c-54.37,5.85-114.53,13.22-168.78,4.03" fill="none" stroke="#e6e6e6" stroke-linecap="round" stroke-linejoin="round" stroke-width="2.62"/><path d="M574.53,3.53C731.61-.1,927.01-12.63,1085.05-19.13" fill="none" stroke="#e6e6e6" stroke-linecap="round" stroke-linejoin="round" stroke-width="2.62"/><path d="M492.97,333.79c.3-22.76-1.46-47.59-1.34-70.38" fill="none" stroke="#e6e6e6" stroke-linecap="round" stroke-linejoin="round" stroke-width="2.62"/><path d="M495.06,403.27c.35-22.38-2.51-66.36-2.24-88.57" fill="none" stroke="#e6e6e6" stroke-linecap="round" stroke-linejoin="round" stroke-width="2.62"/><line x1="514.14" y1="53.63" x2="514.74" y2="73.46" fill="none" stroke="#e6e6e6" stroke-linecap="round" stroke-linejoin="round" stroke-width="2.62"/><path d="M482.53,54.22c15.87-.3,47.8-.9,63.67-1.19-.37,3.4,2.75,19-2.24,20.43,0,0-60.24,0-60.24,0" fill="none" stroke="#e6e6e6" stroke-linecap="round" stroke-linejoin="round" stroke-width="2.62"/><path d="M474.33,65.26c-15.28.53-37.16,1.38-52.48,2.09-.24,11.23.71,34.08,1.64,45.33" fill="none" stroke="#e6e6e6" stroke-linecap="round" stroke-linejoin="round" stroke-width="2.62"/><path d="M483.13,64.96c-4.92.18-23.32.8-27.88,1.04" fill="none" stroke="#e6e6e6" stroke-linecap="round" stroke-linejoin="round" stroke-width="2.62"/><path d="M471.65,114.61c-.85-6.59-40.84-.58-48.16-1.94,0,0-.3,15.8-.3,15.8l4.32,5.66c1.54-.29,5.66.16,5.96-2.09" fill="none" stroke="#e6e6e6" stroke-linecap="round" stroke-linejoin="round" stroke-width="2.62"/><path d="M471.65,114.61l-1.64-2.98c-3.64.08-11.1.23-14.76.3" fill="none" stroke="#e6e6e6" stroke-linecap="round" stroke-linejoin="round" stroke-width="2.62"/><path d="M417.23,88.67c17.18-.63,39.95-1.65,57.11-2.24" fill="none" stroke="#e6e6e6" stroke-linecap="round" stroke-linejoin="round" stroke-width="2.62"/><path d="M474.33,112.52c-3.85.61-3.21,10.88-3.73,13.42,0,0-2.09,6.56-2.09,6.56-6.19,4.65-8.18,6.22-16.1,4.17,0,0-18.94-4.62-18.94-4.62,1.93-22.63,22.46-10.98,38.17-17.44" fill="none" stroke="#e6e6e6" stroke-linecap="round" stroke-linejoin="round" stroke-width="2.62"/><path d="M455.25,87.18c4.62-.29,18.29-.66,23.11-.89.19,10.86,5.71,21.7-6.71,28.33.14,9.9-3.04,25.9-16.4,22.51" fill="none" stroke="#e6e6e6" stroke-linecap="round" stroke-linejoin="round" stroke-width="2.62"/><path d="M455.25,117.29c3.7.09,12.73-1.83,16.4-2.68" fill="none" stroke="#e6e6e6" stroke-linecap="round" stroke-linejoin="round" stroke-width="2.62"/><polyline points="474.33 296.51 410.37 285.78 414.54 262.37" fill="none" stroke="#e6e6e6" stroke-linecap="round" stroke-linejoin="round" stroke-width="2.62"/><line x1="492.38" y1="299.5" x2="455.25" y2="293.23" fill="none" stroke="#e6e6e6" stroke-linecap="round" stroke-linejoin="round" stroke-width="2.62"/><path d="M443.62,112.22c-.6-19.51-1.41-46.29-1.79-65.75,7.85-.28,24.78-.98,32.5-1.19" fill="none" stroke="#e6e6e6" stroke-linecap="round" stroke-linejoin="round" stroke-width="2.62"/><path d="M455.25,46.02c3.81-.33,19.3-.71,23.41-.89,7.24,6.14,3.03,19.87,5.07,28.33-2.89,2.69-5.26,8.93-5.37,12.82" fill="none" stroke="#e6e6e6" stroke-linecap="round" stroke-linejoin="round" stroke-width="2.62"/><path d="M139.45,333.79c-.61-17.27-1.46-41.13-2.09-58.45" fill="none" stroke="#e6e6e6" stroke-linecap="round" stroke-linejoin="round" stroke-width="2.62"/><path d="M144.37,381.65c-3.39-19.18-5.35-47.76-5.67-66.95" fill="none" stroke="#e6e6e6" stroke-linecap="round" stroke-linejoin="round" stroke-width="2.62"/><path d="M76.08,333.79c-.66-17.47-1.86-38.14-2.24-55.61" fill="none" stroke="#e6e6e6" stroke-linecap="round" stroke-linejoin="round" stroke-width="2.62"/><path d="M77.57,376.88c.21-19.73-1.59-42.44-2.38-62.18" fill="none" stroke="#e6e6e6" stroke-linecap="round" stroke-linejoin="round" stroke-width="2.62"/><path d="M173.75,333.79c.31-17.43-.84-41.97-1.34-59.34" fill="none" stroke="#e6e6e6" stroke-linecap="round" stroke-linejoin="round" stroke-width="2.62"/><path d="M174.49,348.1c-.76-9.36-.7-24.07-.89-33.4" fill="none" stroke="#e6e6e6" stroke-linecap="round" stroke-linejoin="round" stroke-width="2.62"/><path d="M116.49,333.79c-.12-2.97-.4-10.55-.15-13.42" fill="none" stroke="#e6e6e6" stroke-linecap="round" stroke-linejoin="round" stroke-width="2.62"/><path d="M118.88,347.36c-4.01-5.06-2.1-20.96-2.53-26.99" fill="none" stroke="#e6e6e6" stroke-linecap="round" stroke-linejoin="round" stroke-width="2.62"/><path d="M268.57,380.31c-17.9-2.76-39.44-7-57.4-9.69" fill="none" stroke="#e6e6e6" stroke-linecap="round" stroke-linejoin="round" stroke-width="2.62"/><path d="M376.37,333.79c1.08-6.03,4.53-22.84,5.82-29.07" fill="none" stroke="#e6e6e6" stroke-linecap="round" stroke-linejoin="round" stroke-width="2.62"/><path d="M373.69,767.38c.92-149.45-29.55-306.11,6.41-452.67" fill="none" stroke="#e6e6e6" stroke-linecap="round" stroke-linejoin="round" stroke-width="2.62"/><path d="M372.05,351.09c-24.54-4.79-51.85-8.91-76.34-13.57" fill="none" stroke="#e6e6e6" stroke-linecap="round" stroke-linejoin="round" stroke-width="2.62"/><path d="M338.65,333.79c2.01-9.95,4.62-25.71,6.56-35.78" fill="none" stroke="#e6e6e6" stroke-linecap="round" stroke-linejoin="round" stroke-width="2.62"/><path d="M322.55,422.8c6.52-34.42,13.01-73.84,19.68-108.1" fill="none" stroke="#e6e6e6" stroke-linecap="round" stroke-linejoin="round" stroke-width="2.62"/><path d="M209.68,333.79c-.41-9.79-2.16-49.12-2.68-59.64" fill="none" stroke="#e6e6e6" stroke-linecap="round" stroke-linejoin="round" stroke-width="2.62"/><path d="M217.88,548.79c-2.56-76.35-6.07-157.95-8.95-234.09" fill="none" stroke="#e6e6e6" stroke-linecap="round" stroke-linejoin="round" stroke-width="2.62"/><path d="M348.05,395.07c6.53,3.39,17.93,11.95,25.35,12.67,4.06.58,94.43-3.41,100.94-3.58" fill="none" stroke="#e6e6e6" stroke-linecap="round" stroke-linejoin="round" stroke-width="2.62"/><path d="M455.25,404.91c71.24-2.29,151.5-5.84,222.61-10.59" fill="none" stroke="#e6e6e6" stroke-linecap="round" stroke-linejoin="round" stroke-width="2.62"/><path d="M268.57,380.31c31,5.16,64.65,11.25,95.42,17.59" fill="none" stroke="#e6e6e6" stroke-linecap="round" stroke-linejoin="round" stroke-width="2.62"/><path d="M271.11,332.6c-19.75-4.22-42.53-6.62-62.03-11.78" fill="none" stroke="#e6e6e6" stroke-linecap="round" stroke-linejoin="round" stroke-width="2.62"/><path d="M271.11,332.6c-19.75-4.22-42.53-6.62-62.03-11.78" fill="none" stroke="#e6e6e6" stroke-linecap="round" stroke-linejoin="round" stroke-width="2.62"/><path d="M227.72,333.79c1.02-5.09,8.58-47.92,9.69-54.12" fill="none" stroke="#e6e6e6" stroke-linecap="round" stroke-linejoin="round" stroke-width="2.62"/><path d="M221.16,372.11c3.16-18.17,6.74-39.23,9.99-57.4" fill="none" stroke="#e6e6e6" stroke-linecap="round" stroke-linejoin="round" stroke-width="2.62"/><path d="M270.96,333.79c1.56-9.16,6.36-37.23,7.9-46.82" fill="none" stroke="#e6e6e6" stroke-linecap="round" stroke-linejoin="round" stroke-width="2.62"/><path d="M263.36,379.56c3.05-20.87,7.25-44.1,10.88-64.86" fill="none" stroke="#e6e6e6" stroke-linecap="round" stroke-linejoin="round" stroke-width="2.62"/><path d="M210.42,352.43c-12.66.31-27.28,1.38-38.32-4.18-16.27-1.27-37.53,2.57-53.23-.89" fill="none" stroke="#e6e6e6" stroke-linecap="round" stroke-linejoin="round" stroke-width="2.62"/><line x1="414.99" y1="310.53" x2="411.26" y2="333.79" fill="none" stroke="#e6e6e6" stroke-linecap="round" stroke-linejoin="round" stroke-width="2.62"/><path d="M414.4,314.7c-1.44,7.12-4.37,23.94-1.49,30.86-.91,5.38-1.83,7.44-6.86,9.99,0,0-33.4-6.41-33.4-6.41" fill="none" stroke="#e6e6e6" stroke-linecap="round" stroke-linejoin="round" stroke-width="2.62"/><line x1="190.74" y1="319.33" x2="191.34" y2="333.79" fill="none" stroke="#e6e6e6" stroke-linecap="round" stroke-linejoin="round" stroke-width="2.62"/><line x1="190.74" y1="319.33" x2="192.08" y2="352.58" fill="none" stroke="#e6e6e6" stroke-linecap="round" stroke-linejoin="round" stroke-width="2.62"/><line x1="378.16" y1="324.4" x2="341.63" y2="317.69" fill="none" stroke="#e6e6e6" stroke-linecap="round" stroke-linejoin="round" stroke-width="2.62"/><line x1="378.16" y1="324.4" x2="341.63" y2="317.69" fill="none" stroke="#e6e6e6" stroke-linecap="round" stroke-linejoin="round" stroke-width="2.62"/><path d="M322.55,422.8c-3.49,17.18-.72,17.03,13.42,24.45,1.5,3.19,4.15,14.38,8.95,14.46" fill="none" stroke="#e6e6e6" stroke-linecap="round" stroke-linejoin="round" stroke-width="2.62"/><path d="M274.54,188.71c-6.44,47.06-16.52,98.27-24.9,145.08" fill="none" stroke="#e6e6e6" stroke-linecap="round" stroke-linejoin="round" stroke-width="2.62"/><path d="M253.22,314.7c-3.64,19.38-7.47,41.83-10.74,61.28" fill="none" stroke="#e6e6e6" stroke-linecap="round" stroke-linejoin="round" stroke-width="2.62"/><path d="M365.19,61.08c-15.66,88.8-32.77,183.8-47.86,272.71" fill="none" stroke="#e6e6e6" stroke-linecap="round" stroke-linejoin="round" stroke-width="2.62"/><path d="M320.61,314.7c-2.73,17.26-9.91,54.9-12.97,72.46" fill="none" stroke="#e6e6e6" stroke-linecap="round" stroke-linejoin="round" stroke-width="2.62"/><path d="M303.91,291c56.09,8.83,114.41,20.67,170.42,30.42" fill="none" stroke="#e6e6e6" stroke-linecap="round" stroke-linejoin="round" stroke-width="2.62"/><path d="M455.25,318.13c25.04,7.98,80.24,5.8,107.95,4.17,13.8-2.75,55.52,5.4,62.77-9.99" fill="none" stroke="#e6e6e6" stroke-linecap="round" stroke-linejoin="round" stroke-width="2.62"/><path d="M455.25,318.13c43.77,11.34,106.33,2.7,150.89,3.13,5.97-1.44,15.23-.05,18.34-6.56" fill="none" stroke="#e6e6e6" stroke-linecap="round" stroke-linejoin="round" stroke-width="2.62"/><path d="M348.05,395.07c6.53,3.39,17.93,11.95,25.35,12.67,4.06.58,94.43-3.41,100.94-3.58" fill="none" stroke="#e6e6e6" stroke-linecap="round" stroke-linejoin="round" stroke-width="2.62"/><path d="M455.25,404.91c71.24-2.29,151.5-5.84,222.61-10.59" fill="none" stroke="#e6e6e6" stroke-linecap="round" stroke-linejoin="round" stroke-width="2.62"/><path d="M492.97,333.79c.3-22.76-1.46-47.59-1.34-70.38" fill="none" stroke="#e6e6e6" stroke-linecap="round" stroke-linejoin="round" stroke-width="2.62"/><path d="M495.06,403.27c.35-22.38-2.51-66.36-2.24-88.57" fill="none" stroke="#e6e6e6" stroke-linecap="round" stroke-linejoin="round" stroke-width="2.62"/><path d="M414.69,8.9c6.17-.13,54.93-.88,59.64-1.19" fill="none" stroke="#e6e6e6" stroke-linecap="round" stroke-linejoin="round" stroke-width="4.54"/><path d="M455.25,8.15c36.45-1.18,82.89-2.34,119.28-4.62" fill="none" stroke="#e6e6e6" stroke-linecap="round" stroke-linejoin="round" stroke-width="4.54"/><path d="M290.79,288.76c-3.35-.61-8.54-1.46-11.93-1.79" fill="none" stroke="#e6e6e6" stroke-linecap="round" stroke-linejoin="round" stroke-width="4.54"/><path d="M278.86,286.97c-65.11-16.39-133.44-13.15-199.95-9.69-61.9,21.6-169.17,8.25-234.39,13.12" fill="none" stroke="#e6e6e6" stroke-linecap="round" stroke-linejoin="round" stroke-width="4.54"/><line x1="296.31" y1="333.79" x2="303.91" y2="291" fill="none" stroke="#e6e6e6" stroke-linecap="round" stroke-linejoin="round" stroke-width="4.54"/><path d="M254.86,568.33c14.63-79.63,30.69-174.01,44.88-253.62" fill="none" stroke="#e6e6e6" stroke-linecap="round" stroke-linejoin="round" stroke-width="4.54"/><path d="M303.91,291c16.75-59.54,24.82-240.28,65.6-270.17" fill="none" stroke="#e6e6e6" stroke-linecap="round" stroke-linejoin="round" stroke-width="4.54"/><path d="M369.52,20.83c12.47-8.71,30.28-11.8,45.18-11.93" fill="none" stroke="#e6e6e6" stroke-linecap="round" stroke-linejoin="round" stroke-width="4.54"/><path d="M303.91,291c-3.66-.51-9.51-1.55-13.12-2.24" fill="none" stroke="#e6e6e6" stroke-linecap="round" stroke-linejoin="round" stroke-width="4.54"/><path d="M414.69,8.9c6.17-.13,54.93-.88,59.64-1.19" fill="none" stroke="#e6e6e6" stroke-linecap="round" stroke-linejoin="round" stroke-width="4.54"/><path d="M455.25,8.15c36.45-1.18,82.89-2.34,119.28-4.62" fill="none" stroke="#e6e6e6" stroke-linecap="round" stroke-linejoin="round" stroke-width="4.54"/><path d="M574.53,3.53c18.48-6.22,30.45-18.77,36.38-37.28.69-81.38-6.34-180.81-8.65-262.27" fill="none" stroke="#e6e6e6" stroke-linecap="round" stroke-linejoin="round" stroke-width="4.54"/><line x1="296.31" y1="333.79" x2="303.91" y2="291" fill="none" stroke="#e6e6e6" stroke-linecap="round" stroke-linejoin="round" stroke-width="4.54"/><path d="M254.86,568.33c14.63-79.63,30.69-174.01,44.88-253.62" fill="none" stroke="#e6e6e6" stroke-linecap="round" stroke-linejoin="round" stroke-width="4.54"/><path d="M290.79,288.76c-3.35-.61-8.54-1.46-11.93-1.79" fill="none" stroke="#e6e6e6" stroke-linecap="round" stroke-linejoin="round" stroke-width="4.54"/><path d="M278.86,286.97c-65.11-16.39-133.44-13.15-199.95-9.69-61.9,21.6-169.17,8.25-234.39,13.12" fill="none" stroke="#e6e6e6" stroke-linecap="round" stroke-linejoin="round" stroke-width="4.54"/><path d="M303.91,291c-3.66-.51-9.51-1.55-13.12-2.24" fill="none" stroke="#e6e6e6" stroke-linecap="round" stroke-linejoin="round" stroke-width="4.54"/></g><g class="rail"><path d="M282.74,333.79c.06-.33.12-.66.18-.98" fill="none" stroke="#fff30d" stroke-linecap="round" stroke-linejoin="round"/><path d="M283.44,329.85c34.37-193.07,76.27-429.81,110.98-623.41" fill="none" stroke="#fff30d" stroke-dasharray="2 3" stroke-linecap="round" stroke-linejoin="round"/><path d="M175.18,940.58c34.21-193.92,76.89-431.26,110.55-623.41" fill="none" stroke="#fff30d" stroke-dasharray="2 3" stroke-linecap="round" stroke-linejoin="round"/><path d="M286,315.69c.06-.33.11-.66.17-.98" fill="none" stroke="#fff30d" stroke-linecap="round" stroke-linejoin="round"/><path d="M395.95-292.08c-33.39,186.4-78.25,437.56-110.99,623.41" fill="none" stroke="#fff30d" stroke-dasharray="2 3" stroke-linecap="round" stroke-linejoin="round"/><path d="M284.7,332.81c-.06.33-.12.66-.17.98" fill="none" stroke="#fff30d" stroke-linecap="round" stroke-linejoin="round"/><path d="M287.96,314.7c-.06.32-.11.64-.18.98" fill="none" stroke="#fff30d" stroke-linecap="round" stroke-linejoin="round"/><path d="M287.26,318.63c-13.73,76.91-96.32,541.76-110.84,623.42" fill="none" stroke="#fff30d" stroke-dasharray="2 3" stroke-linecap="round" stroke-linejoin="round"/><path d="M324.64,97.61c.08-.32.15-.64.21-.97" fill="none" stroke="#fff30d" stroke-linecap="round" stroke-linejoin="round"/><path d="M325.32,93.68c1.21-10.01-.4-24.1-1.73-32.9,1.87-25.49,11.24-67.56,15.56-94.14" fill="none" stroke="#fff30d" stroke-dasharray="2 3" stroke-linecap="round" stroke-linejoin="round"/><path d="M395.95-292.08c-33.39,186.4-78.25,437.56-110.99,623.41" fill="none" stroke="#fff30d" stroke-dasharray="2 3" stroke-linecap="round" stroke-linejoin="round"/><path d="M284.7,332.81c-.06.33-.12.66-.17.98" fill="none" stroke="#fff30d" stroke-linecap="round" stroke-linejoin="round"/><path d="M287.96,314.7c-.06.32-.11.64-.18.98" fill="none" stroke="#fff30d" stroke-linecap="round" stroke-linejoin="round"/><path d="M287.26,318.63c-13.73,76.91-96.32,541.76-110.84,623.42" fill="none" stroke="#fff30d" stroke-dasharray="2 3" stroke-linecap="round" stroke-linejoin="round"/><path d="M282.74,333.79c.06-.33.12-.66.18-.98" fill="none" stroke="#fff30d" stroke-linecap="round" stroke-linejoin="round"/><path d="M283.44,329.85c34.37-193.07,76.27-429.81,110.98-623.41" fill="none" stroke="#fff30d" stroke-dasharray="2 3" stroke-linecap="round" stroke-linejoin="round"/><path d="M175.18,940.58c34.21-193.92,76.89-431.26,110.55-623.41" fill="none" stroke="#fff30d" stroke-dasharray="2 3" stroke-linecap="round" stroke-linejoin="round"/><path d="M286,315.69c.06-.33.11-.66.17-.98" fill="none" stroke="#fff30d" stroke-linecap="round" stroke-linejoin="round"/></g><g class="grid"><path d="M227.72,333.79c1.02-5.09,8.58-47.92,9.69-54.12" fill="none" stroke="#ccc" stroke-linecap="round" stroke-linejoin="round" stroke-width="2.62"/><path d="M270.96,333.79c1.56-9.16,6.36-37.23,7.9-46.82" fill="none" stroke="#ccc" stroke-linecap="round" stroke-linejoin="round" stroke-width="2.62"/><path d="M263.36,379.56c3.05-20.87,7.25-44.1,10.88-64.86" fill="none" stroke="#ccc" stroke-linecap="round" stroke-linejoin="round" stroke-width="2.62"/><path d="M237.41,279.67c13.17-77,27.78-157.04,41.6-233.79" fill="none" stroke="#ccc" stroke-linecap="round" stroke-linejoin="round" stroke-width="2.62"/><path d="M404.26,212.12c-26.85-4.99-56.77-10.5-83.8-14.61" fill="none" stroke="#ccc" stroke-linecap="round" stroke-linejoin="round" stroke-width="2.62"/><path d="M312.86,100.89c.15-2.63,7.24-40.07,7.9-43.84" fill="none" stroke="#ccc" stroke-linecap="round" stroke-linejoin="round" stroke-width="2.62"/><path d="M303.91,291c56.09,8.83,114.41,20.67,170.42,30.42" fill="none" stroke="#ccc" stroke-linecap="round" stroke-linejoin="round" stroke-width="2.62"/><path d="M474.33,273.25c-52.95-9.8-110.14-19.23-162.82-29.52" fill="none" stroke="#ccc" stroke-linecap="round" stroke-linejoin="round" stroke-width="2.62"/><path d="M416.48,70.18c-23.67-1.9-47.41-9.31-70.82-12.97" fill="none" stroke="#ccc" stroke-linecap="round" stroke-linejoin="round" stroke-width="2.62"/><path d="M311.52,243.73c-6.36-1.05-17.76-3.03-24.15-4.03" fill="none" stroke="#ccc" stroke-linecap="round" stroke-linejoin="round" stroke-width="2.62"/><path d="M370.11,158.6c-13.09-2.65-28.09-5.92-41.15-8.8" fill="none" stroke="#ccc" stroke-linecap="round" stroke-linejoin="round" stroke-width="2.62"/><path d="M378.01,111.63c-12.96-1.77-28.5-4.84-41.3-7.16" fill="none" stroke="#ccc" stroke-linecap="round" stroke-linejoin="round" stroke-width="2.62"/><path d="M338.65,333.79c2.01-9.95,4.62-25.71,6.56-35.78" fill="none" stroke="#ccc" stroke-linecap="round" stroke-linejoin="round" stroke-width="2.62"/><path d="M322.55,422.8c6.52-34.42,13.01-73.84,19.68-108.1" fill="none" stroke="#ccc" stroke-linecap="round" stroke-linejoin="round" stroke-width="2.62"/><path d="M278.86,286.97c10.63-61.09,23.07-124.92,33.99-186.08" fill="none" stroke="#ccc" stroke-linecap="round" stroke-linejoin="round" stroke-width="2.62"/><path d="M312.86,100.89c-19.13-5.04-43.59-8.83-62.92-12.82" fill="none" stroke="#ccc" stroke-linecap="round" stroke-linejoin="round" stroke-width="2.62"/><path d="M345.21,298.01c14.26-76.21,26.41-156.74,42.2-232.6" fill="none" stroke="#ccc" stroke-linecap="round" stroke-linejoin="round" stroke-width="2.62"/><path d="M287.36,239.71c-25.73-4.41-55.73-10.81-81.56-14.31" fill="none" stroke="#ccc" stroke-linecap="round" stroke-linejoin="round" stroke-width="2.62"/><path d="M300.78,195.13c-29.83-9.38-66.03-12.03-96.92-18.19" fill="none" stroke="#ccc" stroke-linecap="round" stroke-linejoin="round" stroke-width="2.62"/><path d="M271.11,332.6c-19.75-4.22-42.53-6.62-62.03-11.78" fill="none" stroke="#ccc" stroke-linecap="round" stroke-linejoin="round" stroke-width="2.62"/><path d="M271.11,332.6c-19.75-4.22-42.53-6.62-62.03-11.78" fill="none" stroke="#ccc" stroke-linecap="round" stroke-linejoin="round" stroke-width="2.62"/><line x1="303.76" y1="149.5" x2="261.57" y2="142.49" fill="none" stroke="#ccc" stroke-linecap="round" stroke-linejoin="round" stroke-width="2.62"/><line x1="232.79" y1="181.71" x2="223.84" y2="228.23" fill="none" stroke="#ccc" stroke-linecap="round" stroke-linejoin="round" stroke-width="2.62"/><path d="M365.19,61.08c-15.66,88.8-32.77,183.8-47.86,272.71" fill="none" stroke="#ccc" stroke-linecap="round" stroke-linejoin="round" stroke-width="2.62"/><path d="M320.61,314.7c-2.73,17.26-9.91,54.9-12.97,72.46" fill="none" stroke="#ccc" stroke-linecap="round" stroke-linejoin="round" stroke-width="2.62"/><line x1="378.16" y1="324.4" x2="341.63" y2="317.69" fill="none" stroke="#ccc" stroke-linecap="round" stroke-linejoin="round" stroke-width="2.62"/><line x1="378.16" y1="324.4" x2="341.63" y2="317.69" fill="none" stroke="#ccc" stroke-linecap="round" stroke-linejoin="round" stroke-width="2.62"/><path d="M373.54,255.06c5.28-31.62,18.74-104.59,23.56-137.02-.91-5.81-15.16-5.37-19.09-6.41" fill="none" stroke="#ccc" stroke-linecap="round" stroke-linejoin="round" stroke-width="2.62"/><path d="M274.54,188.71c-6.44,47.06-16.52,98.27-24.9,145.08" fill="none" stroke="#ccc" stroke-linecap="round" stroke-linejoin="round" stroke-width="2.62"/><path d="M253.22,314.7c-3.64,19.38-7.47,41.83-10.74,61.28" fill="none" stroke="#ccc" stroke-linecap="round" stroke-linejoin="round" stroke-width="2.62"/><path d="M303.91,291c56.09,8.83,114.41,20.67,170.42,30.42" fill="none" stroke="#ccc" stroke-linecap="round" stroke-linejoin="round" stroke-width="2.62"/><path d="M474.33,273.25c-52.95-9.8-110.14-19.23-162.82-29.52" fill="none" stroke="#ccc" stroke-linecap="round" stroke-linejoin="round" stroke-width="2.62"/><path d="M268.57,380.31c-17.9-2.76-39.44-7-57.4-9.69" fill="none" stroke="#ccc" stroke-linecap="round" stroke-linejoin="round" stroke-width="2.62"/><path d="M376.37,333.79c1.08-6.03,4.53-22.84,5.82-29.07" fill="none" stroke="#ccc" stroke-linecap="round" stroke-linejoin="round" stroke-width="2.62"/><path d="M372.05,351.09c-24.54-4.79-51.85-8.91-76.34-13.57" fill="none" stroke="#ccc" stroke-linecap="round" stroke-linejoin="round" stroke-width="2.62"/><path d="M338.65,333.79c2.01-9.95,4.62-25.71,6.56-35.78" fill="none" stroke="#ccc" stroke-linecap="round" stroke-linejoin="round" stroke-width="2.62"/><path d="M322.55,422.8c6.52-34.42,13.01-73.84,19.68-108.1" fill="none" stroke="#ccc" stroke-linecap="round" stroke-linejoin="round" stroke-width="2.62"/><path d="M268.57,380.31c31,5.16,64.65,11.25,95.42,17.59" fill="none" stroke="#ccc" stroke-linecap="round" stroke-linejoin="round" stroke-width="2.62"/><path d="M271.11,332.6c-19.75-4.22-42.53-6.62-62.03-11.78" fill="none" stroke="#ccc" stroke-linecap="round" stroke-linejoin="round" stroke-width="2.62"/><path d="M271.11,332.6c-19.75-4.22-42.53-6.62-62.03-11.78" fill="none" stroke="#ccc" stroke-linecap="round" stroke-linejoin="round" stroke-width="2.62"/><path d="M227.72,333.79c1.02-5.09,8.58-47.92,9.69-54.12" fill="none" stroke="#ccc" stroke-linecap="round" stroke-linejoin="round" stroke-width="2.62"/><path d="M221.16,372.11c3.16-18.17,6.74-39.23,9.99-57.4" fill="none" stroke="#ccc" stroke-linecap="round" stroke-linejoin="round" stroke-width="2.62"/><path d="M270.96,333.79c1.56-9.16,6.36-37.23,7.9-46.82" fill="none" stroke="#ccc" stroke-linecap="round" stroke-linejoin="round" stroke-width="2.62"/><path d="M263.36,379.56c3.05-20.87,7.25-44.1,10.88-64.86" fill="none" stroke="#ccc" stroke-linecap="round" stroke-linejoin="round" stroke-width="2.62"/><line x1="378.16" y1="324.4" x2="341.63" y2="317.69" fill="none" stroke="#ccc" stroke-linecap="round" stroke-linejoin="round" stroke-width="2.62"/><line x1="378.16" y1="324.4" x2="341.63" y2="317.69" fill="none" stroke="#ccc" stroke-linecap="round" stroke-linejoin="round" stroke-width="2.62"/><path d="M274.54,188.71c-6.44,47.06-16.52,98.27-24.9,145.08" fill="none" stroke="#ccc" stroke-linecap="round" stroke-linejoin="round" stroke-width="2.62"/><path d="M253.22,314.7c-3.64,19.38-7.47,41.83-10.74,61.28" fill="none" stroke="#ccc" stroke-linecap="round" stroke-linejoin="round" stroke-width="2.62"/><path d="M365.19,61.08c-15.66,88.8-32.77,183.8-47.86,272.71" fill="none" stroke="#ccc" stroke-linecap="round" stroke-linejoin="round" stroke-width="2.62"/><path d="M320.61,314.7c-2.73,17.26-9.91,54.9-12.97,72.46" fill="none" stroke="#ccc" stroke-linecap="round" stroke-linejoin="round" stroke-width="2.62"/><path d="M303.91,291c56.09,8.83,114.41,20.67,170.42,30.42" fill="none" stroke="#ccc" stroke-linecap="round" stroke-linejoin="round" stroke-width="2.62"/><path d="M290.79,288.76c-3.35-.61-8.54-1.46-11.93-1.79" fill="none" stroke="#ccc" stroke-linecap="round" stroke-linejoin="round" stroke-width="4.54"/><path d="M278.86,286.97c-10.3-1.85-31.12-5.51-41.45-7.31" fill="none" stroke="#ccc" stroke-linecap="round" stroke-linejoin="round" stroke-width="4.54"/><line x1="296.31" y1="333.79" x2="303.91" y2="291" fill="none" stroke="#ccc" stroke-linecap="round" stroke-linejoin="round" stroke-width="4.54"/><path d="M254.86,568.33c14.63-79.63,30.69-174.01,44.88-253.62" fill="none" stroke="#ccc" stroke-linecap="round" stroke-linejoin="round" stroke-width="4.54"/><path d="M303.91,291c16.75-59.54,24.82-240.28,65.6-270.17" fill="none" stroke="#ccc" stroke-linecap="round" stroke-linejoin="round" stroke-width="4.54"/><path d="M303.91,291c-3.66-.51-9.51-1.55-13.12-2.24" fill="none" stroke="#ccc" stroke-linecap="round" stroke-linejoin="round" stroke-width="4.54"/><line x1="296.31" y1="333.79" x2="303.91" y2="291" fill="none" stroke="#ccc" stroke-linecap="round" stroke-linejoin="round" stroke-width="4.54"/><path d="M254.86,568.33c14.63-79.63,30.69-174.01,44.88-253.62" fill="none" stroke="#ccc" stroke-linecap="round" stroke-linejoin="round" stroke-width="4.54"/><path d="M290.79,288.76c-3.35-.61-8.54-1.46-11.93-1.79" fill="none" stroke="#ccc" stroke-linecap="round" stroke-linejoin="round" stroke-width="4.54"/><path d="M303.91,291c-3.66-.51-9.51-1.55-13.12-2.24" fill="none" stroke="#ccc" stroke-linecap="round" stroke-linejoin="round" stroke-width="4.54"/></g><g class="chestnut"><path d="M263.36,379.56c3.05-20.87,7.25-44.1,10.88-64.86l-3.28,19.09c15.2-91.66,33.48-185.19,49.8-276.73" fill="none" stroke-linecap="round" stroke-linejoin="round"/></g><g class="oak"><path d="M254.86,568.33c14.63-79.63,30.69-174.01,44.88-253.62l-3.43,19.09c12.32-73.62,27.89-155.72,40.41-229.32,6.68-28.85,5.45-64.59,32.8-83.65" fill="none" stroke-linecap="round" stroke-linejoin="round"/></g></svg>