<?xml version="1.0" encoding="UTF-8"?><svg xmlns="http://www.w3.org/2000/svg" viewBox="0 0 600 480"><g class="allpaths"><path d="M25.29,61.28c-4.08-14.23,1.72-47.17-2.97-61.76" fill="none" stroke="#e6e6e6" stroke-linecap="round" stroke-linejoin="round" stroke-width="2.62"/><path d="M-1.73,143.23c-2.84-15.82,35.49-5.93,44.39-8.46" fill="none" stroke="#e6e6e6" stroke-linecap="round" stroke-linejoin="round" stroke-width="2.62"/><path d="M23.65,134.76c41.39.14,85.12-.93,126.49.59,50.58,15.56,102.23,36.78,152.61,53.44" fill="none" stroke="#e6e6e6" stroke-linecap="round" stroke-linejoin="round" stroke-width="2.62"/><path d="M25.29,61.28c3.14,4.57,12.73,2.3,17.37,2.82" fill="none" stroke="#e6e6e6" stroke-linecap="round" stroke-linejoin="round" stroke-width="2.62"/><path d="M25.29,61.28c81.37,8.88,174.07-.36,257.13,2.82" fill="none" stroke="#e6e6e6" stroke-linecap="round" stroke-linejoin="round" stroke-width="2.62"/><path d="M2.87,223.99c-10.73.16-2.62-69.02-4.6-80.76" fill="none" stroke="#e6e6e6" stroke-linecap="round" stroke-linejoin="round" stroke-width="2.62"/><path d="M42.66,225.32c-12-.08-28.12,1.2-39.79-1.34" fill="none" stroke="#e6e6e6" stroke-linecap="round" stroke-linejoin="round" stroke-width="2.62"/><path d="M155.48,232.45c-1.42-9.83-27.89-4.2-34.74-5.49-31.41.3-65.74-2.7-97.09-1.33" fill="none" stroke="#e6e6e6" stroke-linecap="round" stroke-linejoin="round" stroke-width="2.62"/><path d="M30.33,170.25c2.05-5.78,6.04-12.79,12.32-14.55" fill="none" stroke="#e6e6e6" stroke-linecap="round" stroke-linejoin="round" stroke-width="2.62"/><path d="M30.33,170.25c10.63-28.16,23.61-.73,27.02-35.48" fill="none" stroke="#e6e6e6" stroke-linecap="round" stroke-linejoin="round" stroke-width="2.62"/><path d="M-1.88,170.69c9.6-.92,25.13,9.87,32.22-.45" fill="none" stroke="#e6e6e6" stroke-linecap="round" stroke-linejoin="round" stroke-width="2.62"/><path d="M23.95,225.62c-2.87-5.84-1.14-13.94-4.31-19.3-8.43-2.41-14.6,1.04-21.82,4.6" fill="none" stroke="#e6e6e6" stroke-linecap="round" stroke-linejoin="round" stroke-width="2.62"/><path d="M25.29,61.28c-1.96,3.8-4.65,16.76.3,18.71" fill="none" stroke="#e6e6e6" stroke-linecap="round" stroke-linejoin="round" stroke-width="2.62"/><line x1="67.6" y1="148.42" x2="67.15" y2="143.52" fill="none" stroke="#e6e6e6" stroke-linecap="round" stroke-linejoin="round" stroke-width="2.62"/><path d="M332.45,298.51c16.67-42.19,31.36-88.77,47.8-131.09" fill="none" stroke="#e6e6e6" stroke-linecap="round" stroke-linejoin="round" stroke-width="2.62"/><path d="M565.38,347.06c.44-10.23.59-32.63.59-42.9" fill="none" stroke="#e6e6e6" stroke-linecap="round" stroke-linejoin="round" stroke-width="2.62"/><path d="M67.15,143.52c-2.26-19.59-.9-59.69-1.48-79.28" fill="none" stroke="#e6e6e6" stroke-linecap="round" stroke-linejoin="round" stroke-width="2.62"/><path d="M194.23,249.37c-11.56-5.74-28.75-8.69-38.75-16.92" fill="none" stroke="#e6e6e6" stroke-linecap="round" stroke-linejoin="round" stroke-width="2.62"/><path d="M99.96,343.65c-12.34,1.94-19.47,14.03-28.65,21.08" fill="none" stroke="#e6e6e6" stroke-linecap="round" stroke-linejoin="round" stroke-width="2.62"/><path d="M89.42,347.95c-6.22,4.2-11.94,12.45-18.11,16.78" fill="none" stroke="#e6e6e6" stroke-linecap="round" stroke-linejoin="round" stroke-width="2.62"/><line x1="154.89" y1="332.81" x2="163.5" y2="335.93" fill="none" stroke="#e6e6e6" stroke-linecap="round" stroke-linejoin="round" stroke-width="2.62"/><path d="M194.53,366.95c11.38-32.44,26.77-72.08,37.56-104.96" fill="none" stroke="#e6e6e6" stroke-linecap="round" stroke-linejoin="round" stroke-width="2.62"/><path d="M187.25,385.06c4.54-8.78,10.49-27.91,14.1-37.11" fill="none" stroke="#e6e6e6" stroke-linecap="round" stroke-linejoin="round" stroke-width="2.62"/><path d="M241,359.98c-2.38,5-16.92-3.46-20.34-3.71-16.98-6.02-40.26-14.12-57.16-20.34" fill="none" stroke="#e6e6e6" stroke-linecap="round" stroke-linejoin="round" stroke-width="2.62"/><path d="M241,359.98c-2.77,5.92-37.47-11.14-43.94-12.02" fill="none" stroke="#e6e6e6" stroke-linecap="round" stroke-linejoin="round" stroke-width="2.62"/><path d="M154.74,366.95c22.08-79.78,55.85-159.68,83.58-237.98" fill="none" stroke="#e6e6e6" stroke-linecap="round" stroke-linejoin="round" stroke-width="2.62"/><path d="M156.37,388.03c-4.33-12.15-1.86-28.14,2.82-40.08" fill="none" stroke="#e6e6e6" stroke-linecap="round" stroke-linejoin="round" stroke-width="2.62"/><path d="M217.54,128.83c1.85-41.19-1.05-87.6.15-128.86" fill="none" stroke="#e6e6e6" stroke-linecap="round" stroke-linejoin="round" stroke-width="2.62"/><path d="M442.75,240.02c-38.4-13.68-79.87-29.39-118.32-42.61" fill="none" stroke="#e6e6e6" stroke-linecap="round" stroke-linejoin="round" stroke-width="2.62"/><line x1="375.05" y1="118.14" x2="394.35" y2="124.97" fill="none" stroke="#e6e6e6" stroke-linecap="round" stroke-linejoin="round" stroke-width="2.62"/><path d="M282.42,40.49c10.29.24,28.49.22,38.6.45" fill="none" stroke="#e6e6e6" stroke-linecap="round" stroke-linejoin="round" stroke-width="2.62"/><path d="M109.46,226.81c.44-40.48-1.62-84.49,1.49-124.56" fill="none" stroke="#e6e6e6" stroke-linecap="round" stroke-linejoin="round" stroke-width="2.62"/><path d="M70.12,260.06c.25-36.41,2.04-75.48-2.52-111.64" fill="none" stroke="#e6e6e6" stroke-linecap="round" stroke-linejoin="round" stroke-width="2.62"/><path d="M389.16,138.48c3.59-1.86,3.89-10.11,5.2-13.51,1.47-2.02,9.03-24.01,10.09-26.87.41-3.42,12.67-27.21,8.91-29.99" fill="none" stroke="#e6e6e6" stroke-linecap="round" stroke-linejoin="round" stroke-width="2.62"/><path d="M457.75,196.23c.41-4.09-4.56-5.16-7.57-5.94-36.71-9.62-74.27-23.9-109.56-37.71" fill="none" stroke="#e6e6e6" stroke-linecap="round" stroke-linejoin="round" stroke-width="2.62"/><path d="M155.19,282.78c1.4-92.5-7.23-190.25.15-281.77" fill="none" stroke="#e6e6e6" stroke-linecap="round" stroke-linejoin="round" stroke-width="2.62"/><path d="M42.66,225.32c-12-.08-28.12,1.2-39.79-1.34" fill="none" stroke="#e6e6e6" stroke-linecap="round" stroke-linejoin="round" stroke-width="2.62"/><path d="M155.48,232.45c-1.42-9.83-27.89-4.2-34.74-5.49-31.41.3-65.74-2.7-97.09-1.33" fill="none" stroke="#e6e6e6" stroke-linecap="round" stroke-linejoin="round" stroke-width="2.62"/><path d="M154.3,261.4c-35.26-3.46-77.78.1-113.27-1.63" fill="none" stroke="#e6e6e6" stroke-linecap="round" stroke-linejoin="round" stroke-width="2.62"/><path d="M286.13,233.04c45.62,17.15,95.29,33.59,140.44,51.51,5.9,4.83,10.76,12.78,17.81,16.33,49.82,5.25,106.69,2.03,156.77,3.12" fill="none" stroke="#e6e6e6" stroke-linecap="round" stroke-linejoin="round" stroke-width="2.62"/><path d="M426.57,284.56c9.83-28.42,22.27-59.75,31.18-88.33" fill="none" stroke="#e6e6e6" stroke-linecap="round" stroke-linejoin="round" stroke-width="2.62"/><path d="M480.01,281.14c5.44.42,14.09-.46,19.45.45" fill="none" stroke="#e6e6e6" stroke-linecap="round" stroke-linejoin="round" stroke-width="2.62"/><path d="M454.92,366.95c-.05-21.57-.02-48.98-.3-70.52" fill="none" stroke="#e6e6e6" stroke-linecap="round" stroke-linejoin="round" stroke-width="2.62"/><path d="M454.33,389.82c.45-11.58.72-30.21.59-41.86" fill="none" stroke="#e6e6e6" stroke-linecap="round" stroke-linejoin="round" stroke-width="2.62"/><path d="M155.48,232.45c16.53-30.68,25.91-70.49,38.6-103.03" fill="none" stroke="#e6e6e6" stroke-linecap="round" stroke-linejoin="round" stroke-width="2.62"/><path d="M636.79,303.56c-8.71,1.41-26.92.01-35.63.45" fill="none" stroke="#e6e6e6" stroke-linecap="round" stroke-linejoin="round" stroke-width="2.62"/><path d="M241,359.98c28.65-78.56,56.83-161.47,87.15-239.46" fill="none" stroke="#e6e6e6" stroke-linecap="round" stroke-linejoin="round" stroke-width="2.62"/><path d="M241,359.98c1.32-2.8,4.09-9.09,4.9-12.02" fill="none" stroke="#e6e6e6" stroke-linecap="round" stroke-linejoin="round" stroke-width="2.62"/><path d="M355.01,356.12c17.74-57.71,46.84-117.57,61.02-175.78" fill="none" stroke="#e6e6e6" stroke-linecap="round" stroke-linejoin="round" stroke-width="2.62"/><path d="M110.95,102.25c2.71-1.16,13.58-.48,16.63-.74" fill="none" stroke="#e6e6e6" stroke-linecap="round" stroke-linejoin="round" stroke-width="2.62"/><path d="M153.41,129.72c54.92,2.08,114.42-11.8,164.64,16.48" fill="none" stroke="#e6e6e6" stroke-linecap="round" stroke-linejoin="round" stroke-width="2.62"/><path d="M282.27,32.77c-34.93-.98-94.23-.24-129.46-.59" fill="none" stroke="#e6e6e6" stroke-linecap="round" stroke-linejoin="round" stroke-width="2.62"/><path d="M-1.73,143.23c-2.84-15.82,35.49-5.93,44.39-8.46" fill="none" stroke="#e6e6e6" stroke-linecap="round" stroke-linejoin="round" stroke-width="2.62"/><path d="M23.65,134.76c41.39.14,85.12-.93,126.49.59,50.58,15.56,102.23,36.78,152.61,53.44" fill="none" stroke="#e6e6e6" stroke-linecap="round" stroke-linejoin="round" stroke-width="2.62"/><path d="M25.29,61.28c3.14,4.57,12.73,2.3,17.37,2.82" fill="none" stroke="#e6e6e6" stroke-linecap="round" stroke-linejoin="round" stroke-width="2.62"/><path d="M25.29,61.28c81.37,8.88,174.07-.36,257.13,2.82" fill="none" stroke="#e6e6e6" stroke-linecap="round" stroke-linejoin="round" stroke-width="2.62"/><path d="M413.36,68.11c-13.19-2.3-28.52,1.68-41.72-1.49" fill="none" stroke="#e6e6e6" stroke-linecap="round" stroke-linejoin="round" stroke-width="2.62"/><path d="M286.13,233.04c-70.42-25.66-139.3-58.49-216.16-51.51" fill="none" stroke="#e6e6e6" stroke-linecap="round" stroke-linejoin="round" stroke-width="2.62"/><line x1="355.31" y1="111.01" x2="375.05" y2="118.14" fill="none" stroke="#e6e6e6" stroke-linecap="round" stroke-linejoin="round" stroke-width="2.62"/><path d="M499.02,366.95c-.19-36.4.47-79.34,1.04-115.5" fill="none" stroke="#e6e6e6" stroke-linecap="round" stroke-linejoin="round" stroke-width="2.62"/><path d="M498.72,389.82c.26-10.21.35-31.56.3-41.86" fill="none" stroke="#e6e6e6" stroke-linecap="round" stroke-linejoin="round" stroke-width="2.62"/><path d="M315.08,40.79c-.27-6.18-.52-18.39-.15-24.64" fill="none" stroke="#e6e6e6" stroke-linecap="round" stroke-linejoin="round" stroke-width="2.62"/><path d="M255.54,319.3c-30.51-12.23-70.54-23.09-100.36-36.52" fill="none" stroke="#e6e6e6" stroke-linecap="round" stroke-linejoin="round" stroke-width="2.62"/><path d="M154.89,332.81c-9.1-6-19.97,1.21-29.39-2.82-10.91,6.12-16.32-5.28-21.67-13.06" fill="none" stroke="#e6e6e6" stroke-linecap="round" stroke-linejoin="round" stroke-width="2.62"/><path d="M71.31,364.73c-2.8-4.37-7.28-10.8-10.54-14.85" fill="none" stroke="#e6e6e6" stroke-linecap="round" stroke-linejoin="round" stroke-width="2.62"/><path d="M71.31,364.73c-2.8-4.37-7.28-10.8-10.54-14.85" fill="none" stroke="#e6e6e6" stroke-linecap="round" stroke-linejoin="round" stroke-width="2.62"/><path d="M109.61,325.24c-3.44,4.39-16.99,10.31-10.84,17.07,5.58,5.9,12.14,18.51,19.15,22.86,3.81,1.1,11.97-3.39,15.44-4.6,20.88-6.2,16.54-12.42,14.4-30.73" fill="none" stroke="#e6e6e6" stroke-linecap="round" stroke-linejoin="round" stroke-width="2.62"/><path d="M103.08,347.95c4.96,4.8,11.4,20.66,20.19,16.78,6.91-4.14,27.21-7.17,26.57-16.78" fill="none" stroke="#e6e6e6" stroke-linecap="round" stroke-linejoin="round" stroke-width="2.62"/><path d="M499.46,281.59c11.34-1.27,28.5.24,39.94.44" fill="none" stroke="#e6e6e6" stroke-linecap="round" stroke-linejoin="round" stroke-width="2.62"/><line x1="69.97" y1="181.53" x2="65.52" y2="181.53" fill="none" stroke="#e6e6e6" stroke-linecap="round" stroke-linejoin="round" stroke-width="2.62"/><path d="M143.31,356.41c-4.37-9.02-20.18-1.88-17.52,7.27" fill="none" stroke="#e6e6e6" stroke-linecap="round" stroke-linejoin="round" stroke-width="2.62"/><path d="M143.31,356.41c-4.37-9.02-20.18-1.88-17.52,7.27" fill="none" stroke="#e6e6e6" stroke-linecap="round" stroke-linejoin="round" stroke-width="2.62"/><path d="M68.19,150.95c-4.42,3.8-2.5,25.48-2.67,30.58,0,0,.45,43.79.45,43.79" fill="none" stroke="#e6e6e6" stroke-linecap="round" stroke-linejoin="round" stroke-width="2.62"/><path d="M181.91,342.61c25.81-70.97,52-143.24,77.49-214.22" fill="none" stroke="#e6e6e6" stroke-linecap="round" stroke-linejoin="round" stroke-width="2.62"/><path d="M169.14,129.57c-.11,2.93-.15,8.32-1.48,10.99" fill="none" stroke="#e6e6e6" stroke-linecap="round" stroke-linejoin="round" stroke-width="2.62"/><path d="M541.77,303.71c.29-2.88,1.98-8.25,3.27-10.84,1.8-4.61,2.17-18.58,7.27-20.93,26.77-6.18,23.92,12.91,22.86,32.22" fill="none" stroke="#e6e6e6" stroke-linecap="round" stroke-linejoin="round" stroke-width="2.62"/><path d="M359.91,160.3c-23.45,68.73-49.98,138.31-74.53,206.65" fill="none" stroke="#e6e6e6" stroke-linecap="round" stroke-linejoin="round" stroke-width="2.62"/><path d="M292.21,347.95c-1.61,4.81-9.22,25.25-10.24,29.84" fill="none" stroke="#e6e6e6" stroke-linecap="round" stroke-linejoin="round" stroke-width="2.62"/><path d="M419.89,308.02c-5.48,4.98-13.21,10.38-14.85,18.11" fill="none" stroke="#e6e6e6" stroke-linecap="round" stroke-linejoin="round" stroke-width="2.62"/><line x1="282.42" y1="48.51" x2="266.23" y2="49.1" fill="none" stroke="#e6e6e6" stroke-linecap="round" stroke-linejoin="round" stroke-width="2.62"/><path d="M220.66,356.26c28.39-78.91,58.76-160.12,86.7-239.17" fill="none" stroke="#e6e6e6" stroke-linecap="round" stroke-linejoin="round" stroke-width="2.62"/><path d="M382.63,339.34c-15.81-5.98-41.16-15.06-57.3-20.93" fill="none" stroke="#e6e6e6" stroke-linecap="round" stroke-linejoin="round" stroke-width="2.62"/><path d="M109.31,157.92c11.45.17,33.79-.1,44.98.59" fill="none" stroke="#e6e6e6" stroke-linecap="round" stroke-linejoin="round" stroke-width="2.62"/><path d="M133.36,117.1c6.03,1.87,14.72-.8,19.89,3.12" fill="none" stroke="#e6e6e6" stroke-linecap="round" stroke-linejoin="round" stroke-width="2.62"/><path d="M70.27,203.05c25.99,1.32,57.88.61,83.88,1.93" fill="none" stroke="#e6e6e6" stroke-linecap="round" stroke-linejoin="round" stroke-width="2.62"/><line x1="279.74" y1="193.26" x2="298.6" y2="200.98" fill="none" stroke="#e6e6e6" stroke-linecap="round" stroke-linejoin="round" stroke-width="2.62"/><line x1="532.42" y1="281.74" x2="532.42" y2="272.98" fill="none" stroke="#e6e6e6" stroke-linecap="round" stroke-linejoin="round" stroke-width="2.62"/><path d="M539.25,325.38c-33.46-3.21-76.52,5.41-107.78-7.57" fill="none" stroke="#e6e6e6" stroke-linecap="round" stroke-linejoin="round" stroke-width="2.62"/><path d="M70.71,231.41c2.36,6.04,15.9,3.1,20.93,4.01,6.21-.11,19.78,1.48,17.81-8.61" fill="none" stroke="#e6e6e6" stroke-linecap="round" stroke-linejoin="round" stroke-width="2.62"/><path d="M382.92,218.35c-8.2,25.76-22.88,61.87-30.73,87.59" fill="none" stroke="#e6e6e6" stroke-linecap="round" stroke-linejoin="round" stroke-width="2.62"/><path d="M375.05,118.14c4.45-13.33,13.55-37.23,17.37-50.48" fill="none" stroke="#e6e6e6" stroke-linecap="round" stroke-linejoin="round" stroke-width="2.62"/><path d="M30.33,170.25c2.05-5.78,6.04-12.79,12.32-14.55" fill="none" stroke="#e6e6e6" stroke-linecap="round" stroke-linejoin="round" stroke-width="2.62"/><path d="M30.33,170.25c10.63-28.16,23.61-.73,27.02-35.48" fill="none" stroke="#e6e6e6" stroke-linecap="round" stroke-linejoin="round" stroke-width="2.62"/><path d="M216.2,128.83c-12.12,36.45-27.8,77.07-40.68,113.27" fill="none" stroke="#e6e6e6" stroke-linecap="round" stroke-linejoin="round" stroke-width="2.62"/><path d="M429.69,287.68c-3.99,5.85-4.39,23.14-14.4,19.3-10.28-4.24-27.02-10.84-37.71-14.25" fill="none" stroke="#e6e6e6" stroke-linecap="round" stroke-linejoin="round" stroke-width="2.62"/><path d="M99.96,343.65c-12.34,1.94-19.47,14.03-28.65,21.08" fill="none" stroke="#e6e6e6" stroke-linecap="round" stroke-linejoin="round" stroke-width="2.62"/><path d="M89.42,347.95c-6.22,4.2-11.94,12.45-18.11,16.78" fill="none" stroke="#e6e6e6" stroke-linecap="round" stroke-linejoin="round" stroke-width="2.62"/><path d="M187.25,385.06c-4.75,6.61-23.38,3.72-30.88,2.97" fill="none" stroke="#e6e6e6" stroke-linecap="round" stroke-linejoin="round" stroke-width="2.62"/><path d="M194.53,366.95c11.38-32.44,26.77-72.08,37.56-104.96" fill="none" stroke="#e6e6e6" stroke-linecap="round" stroke-linejoin="round" stroke-width="2.62"/><path d="M187.25,385.06c4.54-8.78,10.49-27.91,14.1-37.11" fill="none" stroke="#e6e6e6" stroke-linecap="round" stroke-linejoin="round" stroke-width="2.62"/><path d="M241,359.98c-2.38,5-16.92-3.46-20.34-3.71-16.98-6.02-40.26-14.12-57.16-20.34" fill="none" stroke="#e6e6e6" stroke-linecap="round" stroke-linejoin="round" stroke-width="2.62"/><path d="M241,359.98c-2.77,5.92-37.47-11.14-43.94-12.02" fill="none" stroke="#e6e6e6" stroke-linecap="round" stroke-linejoin="round" stroke-width="2.62"/><path d="M154.74,366.95c22.08-79.78,55.85-159.68,83.58-237.98" fill="none" stroke="#e6e6e6" stroke-linecap="round" stroke-linejoin="round" stroke-width="2.62"/><path d="M156.37,388.03c-4.33-12.15-1.86-28.14,2.82-40.08" fill="none" stroke="#e6e6e6" stroke-linecap="round" stroke-linejoin="round" stroke-width="2.62"/><path d="M454.92,366.95c-.05-21.57-.02-48.98-.3-70.52" fill="none" stroke="#e6e6e6" stroke-linecap="round" stroke-linejoin="round" stroke-width="2.62"/><path d="M454.33,389.82c.45-11.58.72-30.21.59-41.86" fill="none" stroke="#e6e6e6" stroke-linecap="round" stroke-linejoin="round" stroke-width="2.62"/><path d="M241,359.98c28.65-78.56,56.83-161.47,87.15-239.46" fill="none" stroke="#e6e6e6" stroke-linecap="round" stroke-linejoin="round" stroke-width="2.62"/><path d="M241,359.98c1.32-2.8,4.09-9.09,4.9-12.02" fill="none" stroke="#e6e6e6" stroke-linecap="round" stroke-linejoin="round" stroke-width="2.62"/><path d="M261.93,370.81c11.19,3.25,27.78,10.03,38.75,14.25" fill="none" stroke="#e6e6e6" stroke-linecap="round" stroke-linejoin="round" stroke-width="2.62"/><path d="M499.02,366.95c-.19-36.4.47-79.34,1.04-115.5" fill="none" stroke="#e6e6e6" stroke-linecap="round" stroke-linejoin="round" stroke-width="2.62"/><path d="M498.72,389.82c.26-10.21.35-31.56.3-41.86" fill="none" stroke="#e6e6e6" stroke-linecap="round" stroke-linejoin="round" stroke-width="2.62"/><path d="M109.61,325.24c-3.44,4.39-16.99,10.31-10.84,17.07,5.58,5.9,12.14,18.51,19.15,22.86,3.81,1.1,11.97-3.39,15.44-4.6,20.88-6.2,16.54-12.42,14.4-30.73" fill="none" stroke="#e6e6e6" stroke-linecap="round" stroke-linejoin="round" stroke-width="2.62"/><path d="M103.08,347.95c4.96,4.8,11.4,20.66,20.19,16.78,6.91-4.14,27.21-7.17,26.57-16.78" fill="none" stroke="#e6e6e6" stroke-linecap="round" stroke-linejoin="round" stroke-width="2.62"/><path d="M71.31,364.73c-2.8-4.37-7.28-10.8-10.54-14.85" fill="none" stroke="#e6e6e6" stroke-linecap="round" stroke-linejoin="round" stroke-width="2.62"/><path d="M71.31,364.73c-2.8-4.37-7.28-10.8-10.54-14.85" fill="none" stroke="#e6e6e6" stroke-linecap="round" stroke-linejoin="round" stroke-width="2.62"/><path d="M525.89,369.18c-29.61-2.3-72.36,4.25-99.76-9.5" fill="none" stroke="#e6e6e6" stroke-linecap="round" stroke-linejoin="round" stroke-width="2.62"/><path d="M359.91,160.3c-23.45,68.73-49.98,138.31-74.53,206.65" fill="none" stroke="#e6e6e6" stroke-linecap="round" stroke-linejoin="round" stroke-width="2.62"/><path d="M292.21,347.95c-1.61,4.81-9.22,25.25-10.24,29.84" fill="none" stroke="#e6e6e6" stroke-linecap="round" stroke-linejoin="round" stroke-width="2.62"/><path d="M143.31,356.41c-4.37-9.02-20.18-1.88-17.52,7.27" fill="none" stroke="#e6e6e6" stroke-linecap="round" stroke-linejoin="round" stroke-width="2.62"/><path d="M143.31,356.41c-4.37-9.02-20.18-1.88-17.52,7.27" fill="none" stroke="#e6e6e6" stroke-linecap="round" stroke-linejoin="round" stroke-width="2.62"/><path d="M332.45,298.51c-13.93-5.13-34.85-12.02-48.7-17.22" fill="none" stroke="#e6e6e6" stroke-linecap="round" stroke-linejoin="round" stroke-width="3.16"/><path d="M232.09,261.99C271.92,163.9,290.83,107.7,282.27-.04" fill="none" stroke="#e6e6e6" stroke-linecap="round" stroke-linejoin="round" stroke-width="3.16"/><path d="M283.75,281.29c-28.92-8.84-60.34-27.44-90.56-28.95" fill="none" stroke="#e6e6e6" stroke-linecap="round" stroke-linejoin="round" stroke-width="3.16"/><path d="M565.23,366.95c.37-4.29.23-15.46.15-19.89" fill="none" stroke="#e6e6e6" stroke-linecap="round" stroke-linejoin="round" stroke-width="3.16"/><path d="M565.53,389.96c-.4-11.75.05-30.42-.15-42.01" fill="none" stroke="#e6e6e6" stroke-linecap="round" stroke-linejoin="round" stroke-width="3.16"/><path d="M382.77,366.95c-32.02-14.03-73.12-25.34-105.11-39.64" fill="none" stroke="#e6e6e6" stroke-linecap="round" stroke-linejoin="round" stroke-width="3.16"/><path d="M565.53,389.96c-105.3,4.72-136.93-1.57-233.53-42.01" fill="none" stroke="#e6e6e6" stroke-linecap="round" stroke-linejoin="round" stroke-width="3.16"/><path d="M565.38,347.06c-47.13-2.82-109,7.26-152.47-13.51-20.19-19.41-55.7-23.26-80.46-35.04" fill="none" stroke="#e6e6e6" stroke-linecap="round" stroke-linejoin="round" stroke-width="3.16"/><path d="M307.8,366.95c7.72-20.13,17.34-48.21,24.64-68.44" fill="none" stroke="#e6e6e6" stroke-linecap="round" stroke-linejoin="round" stroke-width="3.16"/><path d="M291.62,412.38c7.21-20.48,15.3-44.17,23.31-64.43" fill="none" stroke="#e6e6e6" stroke-linecap="round" stroke-linejoin="round" stroke-width="3.16"/><path d="M32.11,366.95c58.08-28.91,103.55-85.92,161.08-114.61" fill="none" stroke="#e6e6e6" stroke-linecap="round" stroke-linejoin="round" stroke-width="3.16"/><path d="M18.31,372.74c7.05-2.76,17.79-7.35,24.35-10.98" fill="none" stroke="#e6e6e6" stroke-linecap="round" stroke-linejoin="round" stroke-width="3.16"/><path d="M23.65,370.52c13.19-4.67,28.54-14.01,39.64-22.57" fill="none" stroke="#e6e6e6" stroke-linecap="round" stroke-linejoin="round" stroke-width="3.16"/><path d="M-220.12,383.58c73.98-4.5,166.72,10.86,238.42-10.84" fill="none" stroke="#e6e6e6" stroke-linecap="round" stroke-linejoin="round" stroke-width="3.16"/><path d="M32.11,366.95c58.08-28.91,103.55-85.92,161.08-114.61" fill="none" stroke="#e6e6e6" stroke-linecap="round" stroke-linejoin="round" stroke-width="3.16"/><path d="M18.31,372.74c7.05-2.76,17.79-7.35,24.35-10.98" fill="none" stroke="#e6e6e6" stroke-linecap="round" stroke-linejoin="round" stroke-width="3.16"/><path d="M23.65,370.52c13.19-4.67,28.54-14.01,39.64-22.57" fill="none" stroke="#e6e6e6" stroke-linecap="round" stroke-linejoin="round" stroke-width="3.16"/><path d="M307.8,366.95c7.72-20.13,17.34-48.21,24.64-68.44" fill="none" stroke="#e6e6e6" stroke-linecap="round" stroke-linejoin="round" stroke-width="3.16"/><path d="M291.62,412.38c7.21-20.48,15.3-44.17,23.31-64.43" fill="none" stroke="#e6e6e6" stroke-linecap="round" stroke-linejoin="round" stroke-width="3.16"/><path d="M282.56,975.04c15.7-183.13-14.12-381.26,9.06-562.66" fill="none" stroke="#e6e6e6" stroke-linecap="round" stroke-linejoin="round" stroke-width="3.16"/><path d="M32.11,366.95c58.08-28.91,103.55-85.92,161.08-114.61" fill="none" stroke="#e6e6e6" stroke-linecap="round" stroke-linejoin="round" stroke-width="3.16"/><path d="M18.31,372.74c7.05-2.76,17.79-7.35,24.35-10.98" fill="none" stroke="#e6e6e6" stroke-linecap="round" stroke-linejoin="round" stroke-width="3.16"/><path d="M23.65,370.52c13.19-4.67,28.54-14.01,39.64-22.57" fill="none" stroke="#e6e6e6" stroke-linecap="round" stroke-linejoin="round" stroke-width="3.16"/><path d="M565.53,389.96c24.84.45,60.31.43,85.22.59" fill="none" stroke="#e6e6e6" stroke-linecap="round" stroke-linejoin="round" stroke-width="3.16"/><path d="M382.77,366.95c-32.02-14.03-73.12-25.34-105.11-39.64" fill="none" stroke="#e6e6e6" stroke-linecap="round" stroke-linejoin="round" stroke-width="3.16"/><path d="M565.53,389.96c-105.3,4.72-136.93-1.57-233.53-42.01" fill="none" stroke="#e6e6e6" stroke-linecap="round" stroke-linejoin="round" stroke-width="3.16"/><path d="M565.23,366.95c.37-4.29.23-15.46.15-19.89" fill="none" stroke="#e6e6e6" stroke-linecap="round" stroke-linejoin="round" stroke-width="3.16"/><path d="M565.53,389.96c-.4-11.75.05-30.42-.15-42.01" fill="none" stroke="#e6e6e6" stroke-linecap="round" stroke-linejoin="round" stroke-width="3.16"/><path d="M263.26,366.95c76.42-172.33,92.51-427.31,306.42-484.42" fill="none" stroke="#e6e6e6" stroke-linecap="round" stroke-linejoin="round" stroke-width="4.53"/><path d="M210.26,514.52c15.68-42.83,44.71-124.66,59.98-166.57" fill="none" stroke="#e6e6e6" stroke-linecap="round" stroke-linejoin="round" stroke-width="4.53"/><path d="M263.26,366.95c76.42-172.33,92.51-427.31,306.42-484.42" fill="none" stroke="#e6e6e6" stroke-linecap="round" stroke-linejoin="round" stroke-width="4.53"/><path d="M210.26,514.52c15.68-42.83,44.71-124.66,59.98-166.57" fill="none" stroke="#e6e6e6" stroke-linecap="round" stroke-linejoin="round" stroke-width="4.53"/><path d="M647.49,128.35c-92.62,66.84-204.94,151.15-277.78,236.68" fill="none" stroke="#e6e6e6" stroke-dasharray="2.01 3.02" stroke-linecap="round" stroke-linejoin="round"/><path d="M368.72,366.19c-.22.25-.43.51-.65.76" fill="none" stroke="#e6e6e6" stroke-linecap="round" stroke-linejoin="round"/><path d="M387.08,347.95c-.22.25-.44.5-.66.75" fill="none" stroke="#e6e6e6" stroke-linecap="round" stroke-linejoin="round"/><path d="M384.46,350.91c-28.53,31.62-55.4,43.29-98.09,45.33" fill="none" stroke="#e6e6e6" stroke-dasharray="1.97 2.95" stroke-linecap="round" stroke-linejoin="round"/><path d="M284.9,396.31c-.33.01-.67.03-1,.04" fill="none" stroke="#e6e6e6" stroke-linecap="round" stroke-linejoin="round"/><path d="M502.13,237.05c.25-.21.51-.43.76-.64" fill="none" stroke="#e6e6e6" stroke-linecap="round" stroke-linejoin="round"/><path d="M505.21,234.47c37.61-31.31,105.62-79.38,143.54-108.7" fill="none" stroke="#e6e6e6" stroke-dasharray="2.02 3.03" stroke-linecap="round" stroke-linejoin="round"/><path d="M370.45,366.95c.23-.24.47-.47.71-.71" fill="none" stroke="#e6e6e6" stroke-linecap="round" stroke-linejoin="round"/><path d="M373.22,364.17c19.91-20.04,40.7-41.64,58.62-63.45" fill="none" stroke="#e6e6e6" stroke-dasharray="1.95 2.93" stroke-linecap="round" stroke-linejoin="round"/><path d="M432.77,299.59c.21-.26.42-.52.63-.77" fill="none" stroke="#e6e6e6" stroke-linecap="round" stroke-linejoin="round"/><path d="M283.9,396.35c.33.02.67.03,1,.04" fill="none" stroke="#e6e6e6" stroke-linecap="round" stroke-linejoin="round"/><path d="M287.91,396.48c40.63.77,73.45-15.49,99.5-46.59" fill="none" stroke="#e6e6e6" stroke-dasharray="2.01 3.01" stroke-linecap="round" stroke-linejoin="round"/><path d="M388.38,348.72c.21-.26.42-.52.63-.77" fill="none" stroke="#e6e6e6" stroke-linecap="round" stroke-linejoin="round"/><path d="M417.51,317.66c-.2.27-.39.54-.59.81" fill="none" stroke="#e6e6e6" stroke-linecap="round" stroke-linejoin="round"/><path d="M415.12,320.92c-11.41,15.47-24.6,31.99-39.17,44.41" fill="none" stroke="#e6e6e6" stroke-dasharray="2.03 3.04" stroke-linecap="round" stroke-linejoin="round"/><path d="M374.78,366.32c-.26.21-.51.43-.77.64" fill="none" stroke="#e6e6e6" stroke-linecap="round" stroke-linejoin="round"/><path d="M393.46,347.95c-.22.25-.43.51-.65.76" fill="none" stroke="#e6e6e6" stroke-linecap="round" stroke-linejoin="round"/><path d="M390.88,350.92c-22.34,24.94-53.85,43.3-87.44,46.42" fill="none" stroke="#e6e6e6" stroke-dasharray="1.96 2.94" stroke-linecap="round" stroke-linejoin="round"/><path d="M301.97,397.46c-.33.03-.66.05-1,.07" fill="none" stroke="#e6e6e6" stroke-linecap="round" stroke-linejoin="round"/><path d="M647.49,128.35c-92.62,66.84-204.94,151.15-277.78,236.68" fill="none" stroke="#e6e6e6" stroke-dasharray="2.01 3.02" stroke-linecap="round" stroke-linejoin="round"/><path d="M368.72,366.19c-.22.25-.43.51-.65.76" fill="none" stroke="#e6e6e6" stroke-linecap="round" stroke-linejoin="round"/><path d="M387.08,347.95c-.22.25-.44.5-.66.75" fill="none" stroke="#e6e6e6" stroke-linecap="round" stroke-linejoin="round"/><path d="M384.46,350.91c-28.53,31.62-55.4,43.29-98.09,45.33" fill="none" stroke="#e6e6e6" stroke-dasharray="1.97 2.95" stroke-linecap="round" stroke-linejoin="round"/><path d="M284.9,396.31c-.33.01-.67.03-1,.04" fill="none" stroke="#e6e6e6" stroke-linecap="round" stroke-linejoin="round"/><path d="M283.9,396.35c-.32-.09-.64-.18-.96-.25" fill="none" stroke="#e6e6e6" stroke-linecap="round" stroke-linejoin="round"/><path d="M279.96,395.7c-74.68-3.23-198.29,493.39-244.09,577.16" fill="none" stroke="#e6e6e6" stroke-dasharray="2.01 3.01" stroke-linecap="round" stroke-linejoin="round"/><path d="M417.51,317.66c-.2.27-.39.54-.59.81" fill="none" stroke="#e6e6e6" stroke-linecap="round" stroke-linejoin="round"/><path d="M415.12,320.92c-11.41,15.47-24.6,31.99-39.17,44.41" fill="none" stroke="#e6e6e6" stroke-dasharray="2.03 3.04" stroke-linecap="round" stroke-linejoin="round"/><path d="M374.78,366.32c-.26.21-.51.43-.77.64" fill="none" stroke="#e6e6e6" stroke-linecap="round" stroke-linejoin="round"/><path d="M393.46,347.95c-.22.25-.43.51-.65.76" fill="none" stroke="#e6e6e6" stroke-linecap="round" stroke-linejoin="round"/><path d="M390.88,350.92c-22.34,24.94-53.85,43.3-87.44,46.42" fill="none" stroke="#e6e6e6" stroke-dasharray="1.96 2.94" stroke-linecap="round" stroke-linejoin="round"/><path d="M301.97,397.46c-.33.03-.66.05-1,.07" fill="none" stroke="#e6e6e6" stroke-linecap="round" stroke-linejoin="round"/><path d="M370.45,366.95c.23-.24.47-.47.71-.71" fill="none" stroke="#e6e6e6" stroke-linecap="round" stroke-linejoin="round"/><path d="M373.22,364.17c19.91-20.04,40.7-41.64,58.62-63.45" fill="none" stroke="#e6e6e6" stroke-dasharray="1.95 2.93" stroke-linecap="round" stroke-linejoin="round"/><path d="M432.77,299.59c.21-.26.42-.52.63-.77" fill="none" stroke="#e6e6e6" stroke-linecap="round" stroke-linejoin="round"/><path d="M283.9,396.35c.33.02.67.03,1,.04" fill="none" stroke="#e6e6e6" stroke-linecap="round" stroke-linejoin="round"/><path d="M287.91,396.48c40.63.77,73.45-15.49,99.5-46.59" fill="none" stroke="#e6e6e6" stroke-dasharray="2.01 3.01" stroke-linecap="round" stroke-linejoin="round"/><path d="M388.38,348.72c.21-.26.42-.52.63-.77" fill="none" stroke="#e6e6e6" stroke-linecap="round" stroke-linejoin="round"/></g><g class="rail"><path d="M251.09,366.95c.11-.31.22-.62.33-.94" fill="none" stroke="#fff30d" stroke-linecap="round" stroke-linejoin="round"/><path d="M252.4,363.25c7.42-20.88,19.2-51.42,27.45-71.66" fill="none" stroke="#fff30d" stroke-dasharray="1.96 2.93" stroke-linecap="round" stroke-linejoin="round"/><path d="M280.4,290.23c.13-.31.25-.62.38-.92" fill="none" stroke="#fff30d" stroke-linecap="round" stroke-linejoin="round"/><path d="M32.73,971.27c65.02-179.81,159.69-442.77,224.48-620.97" fill="none" stroke="#fff30d" stroke-dasharray="2.01 3.01" stroke-linecap="round" stroke-linejoin="round"/><path d="M257.73,348.89c.11-.31.23-.62.34-.94" fill="none" stroke="#fff30d" stroke-linecap="round" stroke-linejoin="round"/><path d="M252.87,366.95c.11-.31.23-.63.34-.94" fill="none" stroke="#fff30d" stroke-linecap="round" stroke-linejoin="round"/><path d="M254.23,363.19c73.18-202.73,150.44-418.49,224.18-620.97" fill="none" stroke="#fff30d" stroke-dasharray="2.01 3.01" stroke-linecap="round" stroke-linejoin="round"/><path d="M34.37,971.28c70.82-194.79,154.2-426.74,224.48-620.97" fill="none" stroke="#fff30d" stroke-dasharray="2.01 3.01" stroke-linecap="round" stroke-linejoin="round"/><path d="M259.36,348.89c.11-.31.23-.62.34-.94" fill="none" stroke="#fff30d" stroke-linecap="round" stroke-linejoin="round"/><path d="M252.87,366.95c.11-.31.23-.63.34-.94" fill="none" stroke="#fff30d" stroke-linecap="round" stroke-linejoin="round"/><path d="M254.23,363.19c73.18-202.73,150.44-418.49,224.18-620.97" fill="none" stroke="#fff30d" stroke-dasharray="2.01 3.01" stroke-linecap="round" stroke-linejoin="round"/><path d="M34.37,971.28c70.82-194.79,154.2-426.74,224.48-620.97" fill="none" stroke="#fff30d" stroke-dasharray="2.01 3.01" stroke-linecap="round" stroke-linejoin="round"/><path d="M259.36,348.89c.11-.31.23-.62.34-.94" fill="none" stroke="#fff30d" stroke-linecap="round" stroke-linejoin="round"/><path d="M251.09,366.95c.11-.31.22-.62.33-.94" fill="none" stroke="#fff30d" stroke-linecap="round" stroke-linejoin="round"/><path d="M252.4,363.25c7.42-20.88,19.2-51.42,27.45-71.66" fill="none" stroke="#fff30d" stroke-dasharray="1.96 2.93" stroke-linecap="round" stroke-linejoin="round"/><path d="M280.4,290.23c.13-.31.25-.62.38-.92" fill="none" stroke="#fff30d" stroke-linecap="round" stroke-linejoin="round"/><path d="M32.73,971.27c65.02-179.81,159.69-442.77,224.48-620.97" fill="none" stroke="#fff30d" stroke-dasharray="2.01 3.01" stroke-linecap="round" stroke-linejoin="round"/><path d="M257.73,348.89c.11-.31.23-.62.34-.94" fill="none" stroke="#fff30d" stroke-linecap="round" stroke-linejoin="round"/></g><g class="grid"><path d="M153.85,135.8c48.86,17.42,99.86,36.01,148.9,53" fill="none" stroke="#ccc" stroke-linecap="round" stroke-linejoin="round" stroke-width="2.62"/><path d="M332.45,298.51c16.67-42.19,31.36-88.77,47.8-131.09" fill="none" stroke="#ccc" stroke-linecap="round" stroke-linejoin="round" stroke-width="2.62"/><path d="M194.23,249.37c-11.56-5.74-28.75-8.69-38.75-16.92" fill="none" stroke="#ccc" stroke-linecap="round" stroke-linejoin="round" stroke-width="2.62"/><line x1="154.89" y1="332.81" x2="163.5" y2="335.93" fill="none" stroke="#ccc" stroke-linecap="round" stroke-linejoin="round" stroke-width="2.62"/><path d="M194.53,366.95c11.38-32.44,26.77-72.08,37.56-104.96" fill="none" stroke="#ccc" stroke-linecap="round" stroke-linejoin="round" stroke-width="2.62"/><path d="M155.19,360.87c24.55-74.38,53.27-150.16,79.87-223.88" fill="none" stroke="#ccc" stroke-linecap="round" stroke-linejoin="round" stroke-width="2.62"/><path d="M442.75,240.02c-38.4-13.68-79.87-29.39-118.32-42.61" fill="none" stroke="#ccc" stroke-linecap="round" stroke-linejoin="round" stroke-width="2.62"/><line x1="375.05" y1="118.14" x2="394.35" y2="124.97" fill="none" stroke="#ccc" stroke-linecap="round" stroke-linejoin="round" stroke-width="2.62"/><path d="M389.16,138.48c3.59-1.86,3.89-10.11,5.2-13.51,1.47-2.02,9.03-24.01,10.09-26.87.41-3.42,12.67-27.21,8.91-29.99" fill="none" stroke="#ccc" stroke-linecap="round" stroke-linejoin="round" stroke-width="2.62"/><path d="M457.75,196.23c.41-4.09-4.56-5.16-7.57-5.94-36.71-9.62-74.27-23.9-109.56-37.71" fill="none" stroke="#ccc" stroke-linecap="round" stroke-linejoin="round" stroke-width="2.62"/><path d="M286.13,233.04c46.14,19.09,99.75,31.73,143.56,54.63" fill="none" stroke="#ccc" stroke-linecap="round" stroke-linejoin="round" stroke-width="2.62"/><path d="M426.57,284.56c9.83-28.42,22.27-59.75,31.18-88.33" fill="none" stroke="#ccc" stroke-linecap="round" stroke-linejoin="round" stroke-width="2.62"/><path d="M155.48,232.45c13.91-24.18,21.91-58.58,32.22-84.62" fill="none" stroke="#ccc" stroke-linecap="round" stroke-linejoin="round" stroke-width="2.62"/><path d="M241,359.98c28.65-78.56,56.83-161.47,87.15-239.46" fill="none" stroke="#ccc" stroke-linecap="round" stroke-linejoin="round" stroke-width="2.62"/><path d="M355.01,356.12c17.74-57.71,46.84-117.57,61.02-175.78" fill="none" stroke="#ccc" stroke-linecap="round" stroke-linejoin="round" stroke-width="2.62"/><path d="M277.67,130.76c12.23,3.85,28.92,9.8,40.38,15.44" fill="none" stroke="#ccc" stroke-linecap="round" stroke-linejoin="round" stroke-width="2.62"/><path d="M153.85,135.8c48.86,17.42,99.86,36.01,148.9,53" fill="none" stroke="#ccc" stroke-linecap="round" stroke-linejoin="round" stroke-width="2.62"/><path d="M286.13,233.04c-45.48-15.55-92.17-35.11-137.92-49.44" fill="none" stroke="#ccc" stroke-linecap="round" stroke-linejoin="round" stroke-width="2.62"/><line x1="355.31" y1="111.01" x2="375.05" y2="118.14" fill="none" stroke="#ccc" stroke-linecap="round" stroke-linejoin="round" stroke-width="2.62"/><path d="M255.54,319.3c-30.51-12.23-70.54-23.09-100.36-36.52" fill="none" stroke="#ccc" stroke-linecap="round" stroke-linejoin="round" stroke-width="2.62"/><line x1="154.89" y1="332.81" x2="151.77" y2="331.62" fill="none" stroke="#ccc" stroke-linecap="round" stroke-linejoin="round" stroke-width="2.62"/><path d="M181.91,342.61c25.65-69.43,50.34-140.68,76.31-209.92" fill="none" stroke="#ccc" stroke-linecap="round" stroke-linejoin="round" stroke-width="2.62"/><path d="M359.91,160.3c-23.45,68.73-49.98,138.31-74.53,206.65" fill="none" stroke="#ccc" stroke-linecap="round" stroke-linejoin="round" stroke-width="2.62"/><path d="M220.66,356.26c28.39-78.91,58.76-160.12,86.7-239.17" fill="none" stroke="#ccc" stroke-linecap="round" stroke-linejoin="round" stroke-width="2.62"/><path d="M382.63,339.34c-15.81-5.98-41.16-15.06-57.3-20.93" fill="none" stroke="#ccc" stroke-linecap="round" stroke-linejoin="round" stroke-width="2.62"/><line x1="279.74" y1="193.26" x2="298.6" y2="200.98" fill="none" stroke="#ccc" stroke-linecap="round" stroke-linejoin="round" stroke-width="2.62"/><path d="M382.92,218.35c-8.2,25.76-22.88,61.87-30.73,87.59" fill="none" stroke="#ccc" stroke-linecap="round" stroke-linejoin="round" stroke-width="2.62"/><path d="M375.05,118.14c4.45-13.33,13.55-37.23,17.37-50.48" fill="none" stroke="#ccc" stroke-linecap="round" stroke-linejoin="round" stroke-width="2.62"/><path d="M208.93,150.65c-10.71,28.26-22.97,63.07-33.4,91.45" fill="none" stroke="#ccc" stroke-linecap="round" stroke-linejoin="round" stroke-width="2.62"/><path d="M429.69,287.68c-3.99,5.85-4.39,23.14-14.4,19.3-10.28-4.24-27.02-10.84-37.71-14.25" fill="none" stroke="#ccc" stroke-linecap="round" stroke-linejoin="round" stroke-width="2.62"/><path d="M194.53,366.95c11.38-32.44,26.77-72.08,37.56-104.96" fill="none" stroke="#ccc" stroke-linecap="round" stroke-linejoin="round" stroke-width="2.62"/><path d="M188.59,382.69c3.14-7.91,9.89-26.79,12.77-34.74" fill="none" stroke="#ccc" stroke-linecap="round" stroke-linejoin="round" stroke-width="2.62"/><path d="M241,359.98c-2.38,5-16.92-3.46-20.34-3.71-16.98-6.02-40.26-14.12-57.16-20.34" fill="none" stroke="#ccc" stroke-linecap="round" stroke-linejoin="round" stroke-width="2.62"/><path d="M241,359.98c-2.77,5.92-37.47-11.14-43.94-12.02" fill="none" stroke="#ccc" stroke-linecap="round" stroke-linejoin="round" stroke-width="2.62"/><path d="M155.19,360.87c24.55-74.38,53.27-150.16,79.87-223.88" fill="none" stroke="#ccc" stroke-linecap="round" stroke-linejoin="round" stroke-width="2.62"/><path d="M241,359.98c28.65-78.56,56.83-161.47,87.15-239.46" fill="none" stroke="#ccc" stroke-linecap="round" stroke-linejoin="round" stroke-width="2.62"/><path d="M261.93,370.81c11.19,3.25,27.78,10.03,38.75,14.25" fill="none" stroke="#ccc" stroke-linecap="round" stroke-linejoin="round" stroke-width="2.62"/><path d="M359.91,160.3c-23.45,68.73-49.98,138.31-74.53,206.65" fill="none" stroke="#ccc" stroke-linecap="round" stroke-linejoin="round" stroke-width="2.62"/><path d="M292.21,347.95c-1.61,4.81-9.22,25.25-10.24,29.84" fill="none" stroke="#ccc" stroke-linecap="round" stroke-linejoin="round" stroke-width="2.62"/><path d="M332.45,298.51c-13.93-5.13-34.85-12.02-48.7-17.22" fill="none" stroke="#ccc" stroke-linecap="round" stroke-linejoin="round" stroke-width="3.16"/><path d="M232.09,261.99c14.93-43.1,35.56-93.7,49.29-137.17" fill="none" stroke="#ccc" stroke-linecap="round" stroke-linejoin="round" stroke-width="3.16"/><path d="M283.75,281.29c-28.92-8.84-60.34-27.44-90.56-28.95" fill="none" stroke="#ccc" stroke-linecap="round" stroke-linejoin="round" stroke-width="3.16"/><path d="M382.77,366.95c-32.02-14.03-73.12-25.34-105.11-39.64" fill="none" stroke="#ccc" stroke-linecap="round" stroke-linejoin="round" stroke-width="3.16"/><path d="M405.04,326.13c-21.45-10.65-50.45-18.61-72.6-27.61" fill="none" stroke="#ccc" stroke-linecap="round" stroke-linejoin="round" stroke-width="3.16"/><path d="M307.8,366.95c7.72-20.13,17.34-48.21,24.64-68.44" fill="none" stroke="#ccc" stroke-linecap="round" stroke-linejoin="round" stroke-width="3.16"/><path d="M307.8,366.95c7.72-20.13,17.34-48.21,24.64-68.44" fill="none" stroke="#ccc" stroke-linecap="round" stroke-linejoin="round" stroke-width="3.16"/><path d="M291.62,412.38c7.21-20.48,15.3-44.17,23.31-64.43" fill="none" stroke="#ccc" stroke-linecap="round" stroke-linejoin="round" stroke-width="3.16"/><path d="M382.77,366.95c-32.02-14.03-73.12-25.34-105.11-39.64" fill="none" stroke="#ccc" stroke-linecap="round" stroke-linejoin="round" stroke-width="3.16"/><path d="M263.26,366.95c76.42-172.33,92.51-427.31,306.42-484.42" fill="none" stroke="#ccc" stroke-linecap="round" stroke-linejoin="round" stroke-width="4.53"/><path d="M210.26,514.52c15.68-42.83,44.71-124.66,59.98-166.57" fill="none" stroke="#ccc" stroke-linecap="round" stroke-linejoin="round" stroke-width="4.53"/></g><g class="chestnut"><path d="M241,359.98c28.65-78.56,56.83-161.47,87.15-239.46" fill="none" stroke-linecap="round" stroke-linejoin="round"/></g><g class="oak"><path d="M210.26,514.52c15.68-42.83,44.71-124.66,59.98-166.57l-6.98,19c29.99-83.01,62.58-172.74,92.04-255.94,9.37-25.2,22.15-63.1,35.33-86.25,37.41-68.69,103.81-121.03,179.04-142.22" fill="none" stroke-linecap="round" stroke-linejoin="round"/></g></svg>