<?xml version="1.0" encoding="UTF-8"?><svg xmlns="http://www.w3.org/2000/svg" viewBox="0 0 600 480"><g class="allpaths"><path d="M144.42,280.8c19,5.27,41.8,14.77,59.44,22.6" fill="none" stroke="#e6e6e6" stroke-linecap="round" stroke-linejoin="round" stroke-width="2.91"/><path d="M181.08,293.26c24.43,12.69,52.99,18.93,79.19,26.87" fill="none" stroke="#e6e6e6" stroke-linecap="round" stroke-linejoin="round" stroke-width="2.91"/><path d="M170.05,289.17c-4.76,1.76-6.61,12.72-8.01,16.73" fill="none" stroke="#e6e6e6" stroke-linecap="round" stroke-linejoin="round" stroke-width="2.91"/><path d="M167.02,460.37c11.5-39.54,25.38-88.34,36.84-127.95" fill="none" stroke="#e6e6e6" stroke-linecap="round" stroke-linejoin="round" stroke-width="2.91"/><path d="M181.08,411.61c13.74-47.78,32.03-111.59,45.91-159.45" fill="none" stroke="#e6e6e6" stroke-linecap="round" stroke-linejoin="round" stroke-width="2.91"/><path d="M155.99,498.63c4.28-15.11,13.17-45.89,17.62-61.04" fill="none" stroke="#e6e6e6" stroke-linecap="round" stroke-linejoin="round" stroke-width="2.91"/><line x1="31.95" y1="268.35" x2="110.97" y2="266.74" fill="none" stroke="#e6e6e6" stroke-linecap="round" stroke-linejoin="round" stroke-width="2.91"/><path d="M9.35,336.68c2.51-21.95-.52-61.75-.71-83.82-1.03-11.07,16.86-6.83,22.96-7.83" fill="none" stroke="#e6e6e6" stroke-linecap="round" stroke-linejoin="round" stroke-width="2.91"/><path d="M162.04,305.9c-13.95-4.56-36.59-10.88-50.72-14.77" fill="none" stroke="#e6e6e6" stroke-linecap="round" stroke-linejoin="round" stroke-width="2.91"/><path d="M203.86,363.73c-1.06-.14-90.41-25.99-94.14-27.05" fill="none" stroke="#e6e6e6" stroke-linecap="round" stroke-linejoin="round" stroke-width="2.91"/><path d="M244.26,375.48c-20.24-6.11-42.83-12.34-63.18-18.15" fill="none" stroke="#e6e6e6" stroke-linecap="round" stroke-linejoin="round" stroke-width="2.91"/><path d="M174.14,435.81c-19.95-5.91-44.78-11.82-64.07-19.22" fill="none" stroke="#e6e6e6" stroke-linecap="round" stroke-linejoin="round" stroke-width="2.91"/><path d="M110.08,416.59c-28.1.37-58.61,3.68-86.85,4.45,0,0-60.15,1.25-60.15,1.25-25.67-21.91,49.75-12.4,58.55-14.95,2.19-48.18-12-34.84,54.99-37.55,11.68,2.1,4.22,37.96,6.76,47.87" fill="none" stroke="#e6e6e6" stroke-linecap="round" stroke-linejoin="round" stroke-width="2.91"/><path d="M111.32,218.87c-1.38,63.7-1.28,133.48-1.25,197.72" fill="none" stroke="#e6e6e6" stroke-linecap="round" stroke-linejoin="round" stroke-width="2.91"/><path d="M32.31,287.92c1.73-14.84-5.95-70.26,2.85-77.59" fill="none" stroke="#e6e6e6" stroke-linecap="round" stroke-linejoin="round" stroke-width="2.91"/><line x1="95.3" y1="59.24" x2="139.97" y2="57.46" fill="none" stroke="#e6e6e6" stroke-linecap="round" stroke-linejoin="round" stroke-width="2.91"/><path d="M81.78,104.62c4.58-.56,111.83-1.96,120.3-2.13" fill="none" stroke="#e6e6e6" stroke-linecap="round" stroke-linejoin="round" stroke-width="2.91"/><line x1="181.08" y1="102.84" x2="202.08" y2="102.49" fill="none" stroke="#e6e6e6" stroke-linecap="round" stroke-linejoin="round" stroke-width="2.91"/><path d="M36.58,102.13c11.16,1.06,34.1,2.52,45.2,2.49" fill="none" stroke="#e6e6e6" stroke-linecap="round" stroke-linejoin="round" stroke-width="2.91"/><line x1="100.82" y1="178.83" x2="96.55" y2="104.09" fill="none" stroke="#e6e6e6" stroke-linecap="round" stroke-linejoin="round" stroke-width="2.91"/><path d="M193.01,175.27c-.46-24.21,7.41-56.08,10.86-80.08" fill="none" stroke="#e6e6e6" stroke-linecap="round" stroke-linejoin="round" stroke-width="2.91"/><path d="M193.01,175.27c.96-32.27,8.3-70.55,16.55-101.97,0,0,11.74-11.03,11.74-11.03" fill="none" stroke="#e6e6e6" stroke-linecap="round" stroke-linejoin="round" stroke-width="2.91"/><path d="M96.55,104.09c-.52-19.43-1.67-59.82-2.31-79.02" fill="none" stroke="#e6e6e6" stroke-linecap="round" stroke-linejoin="round" stroke-width="2.91"/><line x1="162.04" y1="305.9" x2="176.46" y2="310.88" fill="none" stroke="#e6e6e6" stroke-linecap="round" stroke-linejoin="round" stroke-width="2.91"/><path d="M47.08,180.43c.3,10.02,6.13,17.85,10.32,26.16" fill="none" stroke="#e6e6e6" stroke-linecap="round" stroke-linejoin="round" stroke-width="2.91"/><path d="M35.15,210.33c6.81-1.76,15.18-4.14,22.24-3.74" fill="none" stroke="#e6e6e6" stroke-linecap="round" stroke-linejoin="round" stroke-width="2.91"/><path d="M57.4,206.59c11.82,2.49,42.72,9.04,53.92,12.28" fill="none" stroke="#e6e6e6" stroke-linecap="round" stroke-linejoin="round" stroke-width="2.91"/><line x1="111.32" y1="218.87" x2="203.86" y2="245.57" fill="none" stroke="#e6e6e6" stroke-linecap="round" stroke-linejoin="round" stroke-width="2.91"/><path d="M181.08,238.98c27.08,7.37,67.34,20.44,94.5,26.34" fill="none" stroke="#e6e6e6" stroke-linecap="round" stroke-linejoin="round" stroke-width="2.91"/><path d="M111.32,291.13c-2.23.34-5.09,1.49-6.76,3.03-1.28,6.23-.46,16.78-.36,23.13-4.5,6.66-6,20.64,5.52,19.4" fill="none" stroke="#e6e6e6" stroke-linecap="round" stroke-linejoin="round" stroke-width="2.91"/><path d="M106.52,336.68c-.35,6.84-6.57,15.44-3.74,21.71" fill="none" stroke="#e6e6e6" stroke-linecap="round" stroke-linejoin="round" stroke-width="2.91"/><path d="M109.9,358.04c-4.69.24-27.07,1.35-32.21,1.6" fill="none" stroke="#e6e6e6" stroke-linecap="round" stroke-linejoin="round" stroke-width="2.91"/><path d="M31.59,244.14c23.13-1.12,55.43-2.04,78.66-2.67" fill="none" stroke="#e6e6e6" stroke-linecap="round" stroke-linejoin="round" stroke-width="2.91"/><path d="M161.51,161.57c.36,3.8,1.9,11.26,3.38,14.77" fill="none" stroke="#e6e6e6" stroke-linecap="round" stroke-linejoin="round" stroke-width="2.91"/><line x1="163.82" y1="398.61" x2="183.04" y2="404.84" fill="none" stroke="#e6e6e6" stroke-linecap="round" stroke-linejoin="round" stroke-width="2.91"/><path d="M167.02,460.37c11.5-39.54,25.38-88.34,36.84-127.95" fill="none" stroke="#e6e6e6" stroke-linecap="round" stroke-linejoin="round" stroke-width="2.91"/><path d="M181.08,411.61c13.74-47.78,32.03-111.59,45.91-159.45" fill="none" stroke="#e6e6e6" stroke-linecap="round" stroke-linejoin="round" stroke-width="2.91"/><path d="M155.99,498.63c4.28-15.11,13.17-45.89,17.62-61.04" fill="none" stroke="#e6e6e6" stroke-linecap="round" stroke-linejoin="round" stroke-width="2.91"/><path d="M304.41,169.76c-7.57,30.18-18.22,66.23-28.83,95.57" fill="none" stroke="#e6e6e6" stroke-linecap="round" stroke-linejoin="round" stroke-width="2.91"/><path d="M227,252.15c4.17-16.96,20-62.23,21.18-79.01" fill="none" stroke="#e6e6e6" stroke-linecap="round" stroke-linejoin="round" stroke-width="2.91"/><path d="M436.81,460.37c-9.15-95.37,23.89-74.06,54.99-142.9" fill="none" stroke="#e6e6e6" stroke-linecap="round" stroke-linejoin="round" stroke-width="2.91"/><path d="M439.31,1189.3c.1-240.44-1.07-511.25-2.49-751.71" fill="none" stroke="#e6e6e6" stroke-linecap="round" stroke-linejoin="round" stroke-width="2.91"/><path d="M407.45,185.59l5.87-1.07c2.57-4.61,4.07-12.27-1.07-15.66" fill="none" stroke="#e6e6e6" stroke-linecap="round" stroke-linejoin="round" stroke-width="2.91"/><path d="M203.86,363.73c-1.06-.14-90.41-25.99-94.14-27.05" fill="none" stroke="#e6e6e6" stroke-linecap="round" stroke-linejoin="round" stroke-width="2.91"/><path d="M244.26,375.48c-20.24-6.11-42.83-12.34-63.18-18.15" fill="none" stroke="#e6e6e6" stroke-linecap="round" stroke-linejoin="round" stroke-width="2.91"/><path d="M491.8,317.46c1.92-6.71,5.56-15.06,3.2-22.07" fill="none" stroke="#e6e6e6" stroke-linecap="round" stroke-linejoin="round" stroke-width="2.91"/><path d="M495.01,295.4c-1.24-2.71-4.27-9.22-5.69-11.75" fill="none" stroke="#e6e6e6" stroke-linecap="round" stroke-linejoin="round" stroke-width="2.91"/><path d="M407.45,185.59c2.17,7.83-4.69,20.83-6.76,28.3-1.4,5.65-5.22,18.1-8.72,22.78" fill="none" stroke="#e6e6e6" stroke-linecap="round" stroke-linejoin="round" stroke-width="2.91"/><path d="M220.06,368.36c19.26-63.81,38.83-132.64,56.59-196.65" fill="none" stroke="#e6e6e6" stroke-linecap="round" stroke-linejoin="round" stroke-width="2.91"/><path d="M296.58,390.07c18.79-71.96,45.14-146.74,63-218.72" fill="none" stroke="#e6e6e6" stroke-linecap="round" stroke-linejoin="round" stroke-width="2.91"/><path d="M144.42,280.8c19,5.27,41.8,14.77,59.44,22.6" fill="none" stroke="#e6e6e6" stroke-linecap="round" stroke-linejoin="round" stroke-width="2.91"/><path d="M181.08,293.26c24.43,12.69,52.99,18.93,79.19,26.87" fill="none" stroke="#e6e6e6" stroke-linecap="round" stroke-linejoin="round" stroke-width="2.91"/><path d="M275.58,265.32c-17.31,63.29-38.03,132.1-55.7,195.05" fill="none" stroke="#e6e6e6" stroke-linecap="round" stroke-linejoin="round" stroke-width="2.91"/><path d="M226.46,437.59c-6.96,17.61-8.27,41.92-18.86,57.48" fill="none" stroke="#e6e6e6" stroke-linecap="round" stroke-linejoin="round" stroke-width="2.91"/><path d="M335.55,165.48c24.73,9.92,51.24,2.85,76.7,3.38" fill="none" stroke="#e6e6e6" stroke-linecap="round" stroke-linejoin="round" stroke-width="2.91"/><path d="M248.17,173.14c-1.16-51.44-2.54-106.09-4.63-157.5" fill="none" stroke="#e6e6e6" stroke-linecap="round" stroke-linejoin="round" stroke-width="2.91"/><line x1="409.41" y1="87.71" x2="406.92" y2="83.98" fill="none" stroke="#e6e6e6" stroke-linecap="round" stroke-linejoin="round" stroke-width="2.91"/><path d="M386.98,169.93c5.73-20.27,17.01-61.75,22.42-82.22" fill="none" stroke="#e6e6e6" stroke-linecap="round" stroke-linejoin="round" stroke-width="2.91"/><path d="M385.74-8.74c-15.25,56.91-31.46,120.99-51.25,176.54" fill="none" stroke="#e6e6e6" stroke-linecap="round" stroke-linejoin="round" stroke-width="2.91"/><path d="M81.78,104.62c4.58-.56,111.83-1.96,120.3-2.13" fill="none" stroke="#e6e6e6" stroke-linecap="round" stroke-linejoin="round" stroke-width="2.91"/><line x1="181.08" y1="102.84" x2="202.08" y2="102.49" fill="none" stroke="#e6e6e6" stroke-linecap="round" stroke-linejoin="round" stroke-width="2.91"/><path d="M207.24,81.13c35.46-1.44,84.3-2.72,119.77-3.74" fill="none" stroke="#e6e6e6" stroke-linecap="round" stroke-linejoin="round" stroke-width="2.91"/><path d="M350.32,117.43c11.6,4.03,35.4,11.03,47.34,14.06" fill="none" stroke="#e6e6e6" stroke-linecap="round" stroke-linejoin="round" stroke-width="2.91"/><path d="M193.01,175.27c-.46-24.21,7.41-56.08,10.86-80.08" fill="none" stroke="#e6e6e6" stroke-linecap="round" stroke-linejoin="round" stroke-width="2.91"/><path d="M193.01,175.27c.96-32.27,8.3-70.55,16.55-101.97,0,0,11.74-11.03,11.74-11.03" fill="none" stroke="#e6e6e6" stroke-linecap="round" stroke-linejoin="round" stroke-width="2.91"/><path d="M451.05,114.41c-1.61-130.55-6.96-281.19,38.62-405.75" fill="none" stroke="#e6e6e6" stroke-linecap="round" stroke-linejoin="round" stroke-width="2.91"/><path d="M451.23,167.26c81.33-2.05,194.9-5.92,276.2-8.72" fill="none" stroke="#e6e6e6" stroke-linecap="round" stroke-linejoin="round" stroke-width="2.91"/><path d="M243.55,15.64c25.77-.9,75.49-2.6,101.79-3.56" fill="none" stroke="#e6e6e6" stroke-linecap="round" stroke-linejoin="round" stroke-width="2.91"/><path d="M406.92,83.98c-10.41-3.33-31.61-10.46-42-14.06" fill="none" stroke="#e6e6e6" stroke-linecap="round" stroke-linejoin="round" stroke-width="2.91"/><path d="M198.52,129c27.89-.38,88.63-1.87,116.92-2.67" fill="none" stroke="#e6e6e6" stroke-linecap="round" stroke-linejoin="round" stroke-width="2.91"/><line x1="221.3" y1="62.27" x2="221.84" y2="45.89" fill="none" stroke="#e6e6e6" stroke-linecap="round" stroke-linejoin="round" stroke-width="2.91"/><path d="M368.48,232.58c5.98,1.22,17.54,7.28,23.49,4.09" fill="none" stroke="#e6e6e6" stroke-linecap="round" stroke-linejoin="round" stroke-width="2.91"/><path d="M243.01,197.16c12.46,3.35,37.37,10.78,49.65,14.77" fill="none" stroke="#e6e6e6" stroke-linecap="round" stroke-linejoin="round" stroke-width="2.91"/><path d="M337.16,342.38c-14.99-4.45-34.62-9.36-49.3-14.77" fill="none" stroke="#e6e6e6" stroke-linecap="round" stroke-linejoin="round" stroke-width="2.91"/><path d="M318.82,218.52c13.75,4.03,35.84,10.94,49.65,14.06" fill="none" stroke="#e6e6e6" stroke-linecap="round" stroke-linejoin="round" stroke-width="2.91"/><path d="M275.58,265.32c6.55,2.06,20.36,6.31,26.87,8.19" fill="none" stroke="#e6e6e6" stroke-linecap="round" stroke-linejoin="round" stroke-width="2.91"/><path d="M384.14,179.19c5.92,1.17,17.6,4.42,23.31,6.41" fill="none" stroke="#e6e6e6" stroke-linecap="round" stroke-linejoin="round" stroke-width="2.91"/><path d="M321.49,392.39c24.04-71.9,42.93-149.87,65.49-222.45" fill="none" stroke="#e6e6e6" stroke-linecap="round" stroke-linejoin="round" stroke-width="2.91"/><line x1="364.92" y1="171.71" x2="384.14" y2="179.19" fill="none" stroke="#e6e6e6" stroke-linecap="round" stroke-linejoin="round" stroke-width="2.91"/><line x1="111.32" y1="218.87" x2="203.86" y2="245.57" fill="none" stroke="#e6e6e6" stroke-linecap="round" stroke-linejoin="round" stroke-width="2.91"/><path d="M181.08,238.98c27.08,7.37,67.34,20.44,94.5,26.34" fill="none" stroke="#e6e6e6" stroke-linecap="round" stroke-linejoin="round" stroke-width="2.91"/><path d="M489.31,283.65c-11.56-17.23-29.62-34.18-36.13-54.46-6.63-32.77.15-80.85-2.14-114.79" fill="none" stroke="#e6e6e6" stroke-linecap="round" stroke-linejoin="round" stroke-width="2.91"/><path d="M348.19,401.46l-26.69-9.08c-9.83,6.08-37.69-6.81-49.3-9.43" fill="none" stroke="#e6e6e6" stroke-linecap="round" stroke-linejoin="round" stroke-width="2.91"/><path d="M450.87,97.15c14.27-.07,40.18-.78,54.46-1.6,3.24,1.84,10.43,2.27,14.06,1.96" fill="none" stroke="#e6e6e6" stroke-linecap="round" stroke-linejoin="round" stroke-width="2.91"/><line x1="501.95" y1="82.38" x2="502.3" y2="95.72" fill="none" stroke="#e6e6e6" stroke-linecap="round" stroke-linejoin="round" stroke-width="2.91"/><path d="M194.43,153.92c13.24,2.42,39.81-1.11,53.21,0" fill="none" stroke="#e6e6e6" stroke-linecap="round" stroke-linejoin="round" stroke-width="2.91"/><path d="M196.03,33.79c-.51,4.21-1.4,12.89-1.6,17.08,11.31,8.38,13.35,7.91,15.13,22.42" fill="none" stroke="#e6e6e6" stroke-linecap="round" stroke-linejoin="round" stroke-width="2.91"/><path d="M246.57,103.38c23.28-.88,52.44-3.6,75.63-2.49" fill="none" stroke="#e6e6e6" stroke-linecap="round" stroke-linejoin="round" stroke-width="2.91"/><path d="M202.08,102.49c1.58,1.43,41.38.76,44.49.89" fill="none" stroke="#e6e6e6" stroke-linecap="round" stroke-linejoin="round" stroke-width="2.91"/><path d="M359.58,171.36c8.1-30.3,19.53-63.52,27.76-93.79" fill="none" stroke="#e6e6e6" stroke-linecap="round" stroke-linejoin="round" stroke-width="2.91"/><path d="M244.97,56.39c42.85,1.11,43.63-12.83,44.49,22.07" fill="none" stroke="#e6e6e6" stroke-linecap="round" stroke-linejoin="round" stroke-width="2.91"/><path d="M244.44,40.2c24.94,1.08,23.92-7.99,26.34,15.31" fill="none" stroke="#e6e6e6" stroke-linecap="round" stroke-linejoin="round" stroke-width="2.91"/><path d="M263.66,14.93c-1.53,6.04,1.92,9.39,6.41,12.81,9.19.35,12.63-5.67,15.13-13.52" fill="none" stroke="#e6e6e6" stroke-linecap="round" stroke-linejoin="round" stroke-width="2.91"/><path d="M497.5,217.09c21.49,11.41,7.71-42.95,10.14-51.43" fill="none" stroke="#e6e6e6" stroke-linecap="round" stroke-linejoin="round" stroke-width="2.91"/><path d="M380.22,12.61c1.47.64,5.42,2.03,6.23,3.56,0,0-7.12,25.09-7.12,25.09-.61,3.41-5.01,1.21-7.12,1.07" fill="none" stroke="#e6e6e6" stroke-linecap="round" stroke-linejoin="round" stroke-width="2.91"/><line x1="247.64" y1="153.92" x2="308.33" y2="153.03" fill="none" stroke="#e6e6e6" stroke-linecap="round" stroke-linejoin="round" stroke-width="2.91"/><path d="M382.18,4.07c5.28.48,27.27,7.5,32.74,9.08,4.91,1.63,2.44,7.94,2.49,11.57-6.32,32.26-3.14,19.38-39.33,18.69" fill="none" stroke="#e6e6e6" stroke-linecap="round" stroke-linejoin="round" stroke-width="2.91"/><path d="M167.02,460.37c11.5-39.54,25.38-88.34,36.84-127.95" fill="none" stroke="#e6e6e6" stroke-linecap="round" stroke-linejoin="round" stroke-width="2.91"/><path d="M181.08,411.61c13.74-47.78,32.03-111.59,45.91-159.45" fill="none" stroke="#e6e6e6" stroke-linecap="round" stroke-linejoin="round" stroke-width="2.91"/><path d="M155.99,498.63c4.28-15.11,13.17-45.89,17.62-61.04" fill="none" stroke="#e6e6e6" stroke-linecap="round" stroke-linejoin="round" stroke-width="2.91"/><path d="M436.81,460.37c-9.15-95.37,23.89-74.06,54.99-142.9" fill="none" stroke="#e6e6e6" stroke-linecap="round" stroke-linejoin="round" stroke-width="2.91"/><path d="M439.31,1189.3c.1-240.44-1.07-511.25-2.49-751.71" fill="none" stroke="#e6e6e6" stroke-linecap="round" stroke-linejoin="round" stroke-width="2.91"/><path d="M275.58,265.32c-17.31,63.29-38.03,132.1-55.7,195.05" fill="none" stroke="#e6e6e6" stroke-linecap="round" stroke-linejoin="round" stroke-width="2.91"/><path d="M226.46,437.59c-6.96,17.61-8.27,41.92-18.86,57.48" fill="none" stroke="#e6e6e6" stroke-linecap="round" stroke-linejoin="round" stroke-width="2.91"/><path d="M-134.8,185.77c111.47-4.25,227.22-6.24,338.66-10.86" fill="none" stroke="#e6e6e6" stroke-linecap="round" stroke-linejoin="round" stroke-width="3.43"/><path d="M181.08,175.81c36.87-2,86.82-2.42,123.33-6.05" fill="none" stroke="#e6e6e6" stroke-linecap="round" stroke-linejoin="round" stroke-width="3.43"/><path d="M417.95,300.2c5.76.35,17.36.7,23.13.71" fill="none" stroke="#e6e6e6" stroke-linecap="round" stroke-linejoin="round" stroke-width="3.43"/><path d="M495.01,295.4c98.1-9.74,131.66-132.58,232.42-136.85" fill="none" stroke="#e6e6e6" stroke-linecap="round" stroke-linejoin="round" stroke-width="3.43"/><path d="M375.24,293.62c12.58,3.31,29.71,5.25,42.71,6.59" fill="none" stroke="#e6e6e6" stroke-linecap="round" stroke-linejoin="round" stroke-width="3.43"/><path d="M250.13,460.37c6.69-23.01,14.97-54.72,22.07-77.41" fill="none" stroke="#e6e6e6" stroke-linecap="round" stroke-linejoin="round" stroke-width="3.43"/><path d="M244.61,479.41c2.95-10.02,9.28-31.91,11.92-41.82" fill="none" stroke="#e6e6e6" stroke-linecap="round" stroke-linejoin="round" stroke-width="3.43"/><path d="M334.49,167.8c-10,32.65-22.68,72.93-32.03,105.71" fill="none" stroke="#e6e6e6" stroke-linecap="round" stroke-linejoin="round" stroke-width="3.43"/><path d="M302.45,273.51c22.87,6.5,49.96,14,72.79,20.11" fill="none" stroke="#e6e6e6" stroke-linecap="round" stroke-linejoin="round" stroke-width="3.43"/><path d="M340.36,29.34c2.84-10.28,9.94-33.57,13.17-43.96" fill="none" stroke="#e6e6e6" stroke-linecap="round" stroke-linejoin="round" stroke-width="3.43"/><path d="M340.36,29.34c-12.55,44.01-24.57,96.31-35.95,140.41" fill="none" stroke="#e6e6e6" stroke-linecap="round" stroke-linejoin="round" stroke-width="3.43"/><path d="M441.08,300.91c9.89-.24,23.76-1.49,33.64-2.49" fill="none" stroke="#e6e6e6" stroke-linecap="round" stroke-linejoin="round" stroke-width="3.43"/><path d="M304.41,169.76c7.49-1.82,22.44-2.95,30.07-1.96" fill="none" stroke="#e6e6e6" stroke-linecap="round" stroke-linejoin="round" stroke-width="3.43"/><path d="M474.72,298.42c5.76-.7,14.51-2.49,20.29-3.03" fill="none" stroke="#e6e6e6" stroke-linecap="round" stroke-linejoin="round" stroke-width="3.43"/><path d="M302.45,273.51c-8.1,35.41-20.93,74.42-30.25,109.45" fill="none" stroke="#e6e6e6" stroke-linecap="round" stroke-linejoin="round" stroke-width="3.43"/><path d="M-134.8,185.77c111.47-4.25,227.22-6.24,338.66-10.86" fill="none" stroke="#e6e6e6" stroke-linecap="round" stroke-linejoin="round" stroke-width="3.43"/><path d="M181.08,175.81c36.87-2,86.82-2.42,123.33-6.05" fill="none" stroke="#e6e6e6" stroke-linecap="round" stroke-linejoin="round" stroke-width="3.43"/><path d="M250.13,460.37c6.69-23.01,14.97-54.72,22.07-77.41" fill="none" stroke="#e6e6e6" stroke-linecap="round" stroke-linejoin="round" stroke-width="3.43"/><path d="M244.61,479.41c2.95-10.02,9.28-31.91,11.92-41.82" fill="none" stroke="#e6e6e6" stroke-linecap="round" stroke-linejoin="round" stroke-width="3.43"/><path d="M387.87,286.85c-2.37,3.21-8.84,6.03-12.64,6.76" fill="none" stroke="#e6e6e6" stroke-linecap="round" stroke-linejoin="round" stroke-width="6.19"/><path d="M408.7,418.9c8.86-14.29,15.56-34.88,26.34-47.87,26.58-24.54,36.38-35.41,39.69-72.61" fill="none" stroke="#e6e6e6" stroke-linecap="round" stroke-linejoin="round" stroke-width="6.19"/><path d="M382,295.22c2.57,30.36,16.71,106.98,11.57,136.32" fill="none" stroke="#e6e6e6" stroke-linecap="round" stroke-linejoin="round" stroke-width="6.19"/><path d="M430.23,175.27c.82,94.36-46.37,93-41.46,121.19" fill="none" stroke="#e6e6e6" stroke-linecap="round" stroke-linejoin="round" stroke-width="6.19"/><path d="M474.72,298.42c-14.86-27.31-32.52-56.43-35.41-88.27" fill="none" stroke="#e6e6e6" stroke-linecap="round" stroke-linejoin="round" stroke-width="6.19"/><path d="M430.23,175.27c4.88,96.12-10.42,196.02-47.34,285.1" fill="none" stroke="#e6e6e6" stroke-linecap="round" stroke-linejoin="round" stroke-width="6.19"/><path d="M391.43,437.59c-74.02,182.09-161.06,364.51-210.35,555.78" fill="none" stroke="#e6e6e6" stroke-linecap="round" stroke-linejoin="round" stroke-width="6.19"/><path d="M440.37,160.5c2.31-133.43-7.06-326.22,42-451.85" fill="none" stroke="#e6e6e6" stroke-linecap="round" stroke-linejoin="round" stroke-width="6.19"/><path d="M469.56-291.34c-51.52,141.23-36.1,318.47-39.33,466.62" fill="none" stroke="#e6e6e6" stroke-linecap="round" stroke-linejoin="round" stroke-width="6.19"/><path d="M394.1,460.37c37.61-94.22,46.86-199.19,46.27-299.87" fill="none" stroke="#e6e6e6" stroke-linecap="round" stroke-linejoin="round" stroke-width="6.19"/><path d="M181.08,1019.35c52.29-200.11,138.24-393.44,221.56-581.76" fill="none" stroke="#e6e6e6" stroke-linecap="round" stroke-linejoin="round" stroke-width="6.19"/><path d="M430.23,175.27c4.88,96.12-10.42,196.02-47.34,285.1" fill="none" stroke="#e6e6e6" stroke-linecap="round" stroke-linejoin="round" stroke-width="6.19"/><path d="M391.43,437.59c-74.02,182.09-161.06,364.51-210.35,555.78" fill="none" stroke="#e6e6e6" stroke-linecap="round" stroke-linejoin="round" stroke-width="6.19"/><path d="M394.1,460.37c37.61-94.22,46.86-199.19,46.27-299.87" fill="none" stroke="#e6e6e6" stroke-linecap="round" stroke-linejoin="round" stroke-width="6.19"/><path d="M181.08,1019.35c52.29-200.11,138.24-393.44,221.56-581.76" fill="none" stroke="#e6e6e6" stroke-linecap="round" stroke-linejoin="round" stroke-width="6.19"/></g><g class="rail"><path d="M236.96,460.37c.09-.32.18-.64.26-.96" fill="none" stroke="#fff30d" stroke-linecap="round" stroke-linejoin="round"/><path d="M238.02,456.5c62.42-228.39,150.31-515.91,214.85-745.43" fill="none" stroke="#fff30d" stroke-dasharray="2.01 3.01" stroke-linecap="round" stroke-linejoin="round"/><path d="M182.26,650.17c16.57-54.04,46.05-156.51,60.29-210.16" fill="none" stroke="#fff30d" stroke-dasharray="2 3" stroke-linecap="round" stroke-linejoin="round"/><path d="M242.94,438.55c.09-.32.17-.64.25-.96" fill="none" stroke="#fff30d" stroke-linecap="round" stroke-linejoin="round"/><path d="M236.96,460.37c.09-.32.18-.64.26-.96" fill="none" stroke="#fff30d" stroke-linecap="round" stroke-linejoin="round"/><path d="M238.02,456.5c62.42-228.39,150.31-515.91,214.85-745.43" fill="none" stroke="#fff30d" stroke-dasharray="2.01 3.01" stroke-linecap="round" stroke-linejoin="round"/></g><g class="grid"><path d="M181.08,293.26c24.43,12.69,52.99,18.93,79.19,26.87" fill="none" stroke="#ccc" stroke-linecap="round" stroke-linejoin="round" stroke-width="2.91"/><path d="M181.08,238.98c27.08,7.37,67.34,20.44,94.5,26.34" fill="none" stroke="#ccc" stroke-linecap="round" stroke-linejoin="round" stroke-width="2.91"/><path d="M304.41,169.76c-7.57,30.18-18.22,66.23-28.83,95.57" fill="none" stroke="#ccc" stroke-linecap="round" stroke-linejoin="round" stroke-width="2.91"/><path d="M227,252.15c4.17-16.96,20-62.23,21.18-79.01" fill="none" stroke="#ccc" stroke-linecap="round" stroke-linejoin="round" stroke-width="2.91"/><path d="M244.26,375.48c-20.24-6.11-42.83-12.34-63.18-18.15" fill="none" stroke="#ccc" stroke-linecap="round" stroke-linejoin="round" stroke-width="2.91"/><path d="M220.06,368.36c19.26-63.81,38.83-132.64,56.59-196.65" fill="none" stroke="#ccc" stroke-linecap="round" stroke-linejoin="round" stroke-width="2.91"/><path d="M296.58,390.07c18.79-71.96,45.14-146.74,63-218.72" fill="none" stroke="#ccc" stroke-linecap="round" stroke-linejoin="round" stroke-width="2.91"/><path d="M181.08,293.26c24.43,12.69,52.99,18.93,79.19,26.87" fill="none" stroke="#ccc" stroke-linecap="round" stroke-linejoin="round" stroke-width="2.91"/><path d="M275.58,265.32c-17.31,63.29-38.03,132.1-55.7,195.05" fill="none" stroke="#ccc" stroke-linecap="round" stroke-linejoin="round" stroke-width="2.91"/><path d="M386.98,169.93c5.73-20.27,17.01-61.75,22.42-82.22" fill="none" stroke="#ccc" stroke-linecap="round" stroke-linejoin="round" stroke-width="2.91"/><path d="M385.74-8.74c-15.25,56.91-31.46,120.99-51.25,176.54" fill="none" stroke="#ccc" stroke-linecap="round" stroke-linejoin="round" stroke-width="2.91"/><path d="M350.32,117.43c11.6,4.03,35.4,11.03,47.34,14.06" fill="none" stroke="#ccc" stroke-linecap="round" stroke-linejoin="round" stroke-width="2.91"/><path d="M406.92,83.98c-10.41-3.33-31.61-10.46-42-14.06" fill="none" stroke="#ccc" stroke-linecap="round" stroke-linejoin="round" stroke-width="2.91"/><path d="M243.01,197.16c12.46,3.35,37.37,10.78,49.65,14.77" fill="none" stroke="#ccc" stroke-linecap="round" stroke-linejoin="round" stroke-width="2.91"/><path d="M337.16,342.38c-14.99-4.45-34.62-9.36-49.3-14.77" fill="none" stroke="#ccc" stroke-linecap="round" stroke-linejoin="round" stroke-width="2.91"/><path d="M318.82,218.52c13.75,4.03,35.84,10.94,49.65,14.06" fill="none" stroke="#ccc" stroke-linecap="round" stroke-linejoin="round" stroke-width="2.91"/><path d="M275.58,265.32c6.55,2.06,20.36,6.31,26.87,8.19" fill="none" stroke="#ccc" stroke-linecap="round" stroke-linejoin="round" stroke-width="2.91"/><path d="M321.49,392.39c24.04-71.9,42.93-149.87,65.49-222.45" fill="none" stroke="#ccc" stroke-linecap="round" stroke-linejoin="round" stroke-width="2.91"/><path d="M181.08,238.98c27.08,7.37,67.34,20.44,94.5,26.34" fill="none" stroke="#ccc" stroke-linecap="round" stroke-linejoin="round" stroke-width="2.91"/><path d="M348.19,401.46l-26.69-9.08c-9.83,6.08-37.69-6.81-49.3-9.43" fill="none" stroke="#ccc" stroke-linecap="round" stroke-linejoin="round" stroke-width="2.91"/><path d="M359.58,171.36c8.1-30.3,19.53-63.52,27.76-93.79" fill="none" stroke="#ccc" stroke-linecap="round" stroke-linejoin="round" stroke-width="2.91"/><path d="M181.08,411.61c13.74-47.78,32.03-111.59,45.91-159.45" fill="none" stroke="#ccc" stroke-linecap="round" stroke-linejoin="round" stroke-width="2.91"/><path d="M275.58,265.32c-17.31,63.29-38.03,132.1-55.7,195.05" fill="none" stroke="#ccc" stroke-linecap="round" stroke-linejoin="round" stroke-width="2.91"/><path d="M226.46,437.59c-6.96,17.61-8.27,41.92-18.86,57.48" fill="none" stroke="#ccc" stroke-linecap="round" stroke-linejoin="round" stroke-width="2.91"/><path d="M334.49,167.8c-10,32.65-22.68,72.93-32.03,105.71" fill="none" stroke="#ccc" stroke-linecap="round" stroke-linejoin="round" stroke-width="3.43"/><path d="M302.45,273.51c22.87,6.5,49.96,14,72.79,20.11" fill="none" stroke="#ccc" stroke-linecap="round" stroke-linejoin="round" stroke-width="3.43"/><path d="M340.36,29.34c2.84-10.28,9.94-33.57,13.17-43.96" fill="none" stroke="#ccc" stroke-linecap="round" stroke-linejoin="round" stroke-width="3.43"/><path d="M340.36,29.34c-12.55,44.01-24.57,96.31-35.95,140.41" fill="none" stroke="#ccc" stroke-linecap="round" stroke-linejoin="round" stroke-width="3.43"/><path d="M302.45,273.51c-8.1,35.41-20.93,74.42-30.25,109.45" fill="none" stroke="#ccc" stroke-linecap="round" stroke-linejoin="round" stroke-width="3.43"/><path d="M250.13,460.37c6.69-23.01,14.97-54.72,22.07-77.41" fill="none" stroke="#ccc" stroke-linecap="round" stroke-linejoin="round" stroke-width="3.43"/><path d="M244.61,479.41c2.95-10.02,9.28-31.91,11.92-41.82" fill="none" stroke="#ccc" stroke-linecap="round" stroke-linejoin="round" stroke-width="3.43"/></g><g class="chestnut"><path d="M353.53-14.61c-20.39,63.87-36.19,133.93-52.68,198.78-27.52,90.46-55.34,185.19-80.97,276.2l6.58-22.78c-4.31,13.6-8.9,32.07-12.99,45.74-1.35,3.52-2.47,9.6-5.87,11.74" fill="none" stroke-linecap="round" stroke-linejoin="round"/></g><g class="oak"><path d="M256.54,437.59c-2.63,9.85-8.99,31.86-11.92,41.82,23.53-82.59,47.91-167.21,70.47-250.04,25.54-77.13,50.79-159.29,70.65-238.11" fill="none" stroke-linecap="round" stroke-linejoin="round"/></g></svg>