<?xml version="1.0" encoding="UTF-8"?><svg xmlns="http://www.w3.org/2000/svg" viewBox="0 0 600 480"><g class="allpaths"><path d="M-462.75,69.37c153.8,1.53,356.59,2.24,510.63,4" fill="none" stroke="#e6e6e6" stroke-linecap="round" stroke-linejoin="round" stroke-width="2.8"/><path d="M240.97,188.32c-55-9.63-121.26-19.93-176.76-28.16" fill="none" stroke="#e6e6e6" stroke-linecap="round" stroke-linejoin="round" stroke-width="2.8"/><path d="M315.78,199.48c-29.88-4.86-66.17-9.44-96.13-14.83" fill="none" stroke="#e6e6e6" stroke-linecap="round" stroke-linejoin="round" stroke-width="2.8"/><line x1="124.19" y1="169.16" x2="132.35" y2="118.18" fill="none" stroke="#e6e6e6" stroke-linecap="round" stroke-linejoin="round" stroke-width="2.8"/><path d="M211.49,183.32c9.36-57.58,20.05-123.76,29.49-181.1" fill="none" stroke="#e6e6e6" stroke-linecap="round" stroke-linejoin="round" stroke-width="2.8"/><path d="M219.65,133.51c9.41-59.18,19.91-125.05,30.65-183.93" fill="none" stroke="#e6e6e6" stroke-linecap="round" stroke-linejoin="round" stroke-width="2.8"/><path d="M196.83,280.79c.89-27.28,10.63-69.61,14.66-97.46" fill="none" stroke="#e6e6e6" stroke-linecap="round" stroke-linejoin="round" stroke-width="2.8"/><line x1="192.49" y1="232.31" x2="194.16" y2="180.16" fill="none" stroke="#e6e6e6" stroke-linecap="round" stroke-linejoin="round" stroke-width="2.8"/><line x1="194.49" y1="128.68" x2="196.99" y2="77.2" fill="none" stroke="#e6e6e6" stroke-linecap="round" stroke-linejoin="round" stroke-width="2.8"/><path d="M240.97,239.97c-58.66-8.32-129.2-24.26-188.43-31.82" fill="none" stroke="#e6e6e6" stroke-linecap="round" stroke-linejoin="round" stroke-width="2.8"/><path d="M307.61,249.96c-28.08-3.73-59.88-9.18-87.96-13.16" fill="none" stroke="#e6e6e6" stroke-linecap="round" stroke-linejoin="round" stroke-width="2.8"/><path d="M240.97,291.62c-9-2.17-39.42-3.83-44.15-10.83" fill="none" stroke="#e6e6e6" stroke-linecap="round" stroke-linejoin="round" stroke-width="2.8"/><path d="M279.29,297.28c-17.68-2.64-42.05-6.02-59.64-9" fill="none" stroke="#e6e6e6" stroke-linecap="round" stroke-linejoin="round" stroke-width="2.8"/><path d="M240.97,135.84c-53.77-8.17-127.26-20.96-181.43-28.82" fill="none" stroke="#e6e6e6" stroke-linecap="round" stroke-linejoin="round" stroke-width="2.8"/><path d="M302.62,145.84c-13.57-2.25-68.36-11.07-82.97-13.33" fill="none" stroke="#e6e6e6" stroke-linecap="round" stroke-linejoin="round" stroke-width="2.8"/><path d="M240.97,84.03c-44.54-11.71-143.97-11.57-193.09-10.66" fill="none" stroke="#e6e6e6" stroke-linecap="round" stroke-linejoin="round" stroke-width="2.8"/><path d="M269.8,88.53c-6.01-.94-45.18-6.96-50.15-7.83" fill="none" stroke="#e6e6e6" stroke-linecap="round" stroke-linejoin="round" stroke-width="2.8"/><line x1="161.34" y1="226.31" x2="169.5" y2="176.49" fill="none" stroke="#e6e6e6" stroke-linecap="round" stroke-linejoin="round" stroke-width="2.8"/><line x1="52.55" y1="208.15" x2="22.06" y2="203.65" fill="none" stroke="#e6e6e6" stroke-linecap="round" stroke-linejoin="round" stroke-width="2.8"/><path d="M240.64,135.84c-7.53,46.64-17.04,104.88-24.49,151.77" fill="none" stroke="#e6e6e6" stroke-linecap="round" stroke-linejoin="round" stroke-width="2.8"/><path d="M240.64,135.84c-6.44,39.91-14.56,89.72-20.99,129.78" fill="none" stroke="#e6e6e6" stroke-linecap="round" stroke-linejoin="round" stroke-width="2.8"/><line x1="311.28" y1="94.86" x2="269.8" y2="88.53" fill="none" stroke="#e6e6e6" stroke-linecap="round" stroke-linejoin="round" stroke-width="2.8"/><path d="M294.79,196.15c3.77-25.29,12.05-76.1,16.49-101.29" fill="none" stroke="#e6e6e6" stroke-linecap="round" stroke-linejoin="round" stroke-width="2.8"/><path d="M473.38,331.93c-.11-68.85,4.42-142.56,3.83-211.25" fill="none" stroke="#e6e6e6" stroke-linecap="round" stroke-linejoin="round" stroke-width="2.8"/><path d="M472.88,365.25c.16-11.75.59-43.34.67-54.65" fill="none" stroke="#e6e6e6" stroke-linecap="round" stroke-linejoin="round" stroke-width="2.8"/><path d="M361.59,207.15c3.66-25.22,11.77-75.86,16.16-100.96" fill="none" stroke="#e6e6e6" stroke-linecap="round" stroke-linejoin="round" stroke-width="2.8"/><path d="M298.62,331.93c7.8-40.3,15.29-90.74,21.33-131.62" fill="none" stroke="#e6e6e6" stroke-linecap="round" stroke-linejoin="round" stroke-width="2.8"/><path d="M281.46,440.56c6.57-33.41,15.02-97.24,21.16-129.95" fill="none" stroke="#e6e6e6" stroke-linecap="round" stroke-linejoin="round" stroke-width="2.8"/><path d="M240.97,239.97c-58.66-8.32-129.2-24.26-188.43-31.82" fill="none" stroke="#e6e6e6" stroke-linecap="round" stroke-linejoin="round" stroke-width="2.8"/><path d="M307.61,249.96c-28.08-3.73-59.88-9.18-87.96-13.16" fill="none" stroke="#e6e6e6" stroke-linecap="round" stroke-linejoin="round" stroke-width="2.8"/><path d="M475.22,224.97c-50.83-7.43-108.88-16.85-159.44-25.49" fill="none" stroke="#e6e6e6" stroke-linecap="round" stroke-linejoin="round" stroke-width="2.8"/><path d="M240.97,291.62c-9-2.17-39.42-3.83-44.15-10.83" fill="none" stroke="#e6e6e6" stroke-linecap="round" stroke-linejoin="round" stroke-width="2.8"/><path d="M279.29,297.28c-17.68-2.64-42.05-6.02-59.64-9" fill="none" stroke="#e6e6e6" stroke-linecap="round" stroke-linejoin="round" stroke-width="2.8"/><line x1="420.07" y1="112.69" x2="424.57" y2="82.7" fill="none" stroke="#e6e6e6" stroke-linecap="round" stroke-linejoin="round" stroke-width="2.8"/><path d="M444.89,220.48c3.82-25.48,11.84-76.71,15.99-102.13" fill="none" stroke="#e6e6e6" stroke-linecap="round" stroke-linejoin="round" stroke-width="2.8"/><path d="M240.97,135.84c-53.77-8.17-127.26-20.96-181.43-28.82" fill="none" stroke="#e6e6e6" stroke-linecap="round" stroke-linejoin="round" stroke-width="2.8"/><path d="M302.62,145.84c-13.57-2.25-68.36-11.07-82.97-13.33" fill="none" stroke="#e6e6e6" stroke-linecap="round" stroke-linejoin="round" stroke-width="2.8"/><path d="M240.97,84.03c-44.54-11.71-143.97-11.57-193.09-10.66" fill="none" stroke="#e6e6e6" stroke-linecap="round" stroke-linejoin="round" stroke-width="2.8"/><path d="M269.8,88.53c-6.01-.94-45.18-6.96-50.15-7.83" fill="none" stroke="#e6e6e6" stroke-linecap="round" stroke-linejoin="round" stroke-width="2.8"/><path d="M426.9,331.93c4.93-30.09,13.32-81.27,17.99-111.46" fill="none" stroke="#e6e6e6" stroke-linecap="round" stroke-linejoin="round" stroke-width="2.8"/><path d="M421.9,363.92c1.3-8.21,7.19-45.95,8.5-53.31" fill="none" stroke="#e6e6e6" stroke-linecap="round" stroke-linejoin="round" stroke-width="2.8"/><line x1="319.94" y1="200.32" x2="327.11" y2="150.34" fill="none" stroke="#e6e6e6" stroke-linecap="round" stroke-linejoin="round" stroke-width="2.8"/><path d="M477.21,120.68c.24-24.24,1.01-70.29,1.5-94.96" fill="none" stroke="#e6e6e6" stroke-linecap="round" stroke-linejoin="round" stroke-width="2.8"/><path d="M273.79,331.93c6.52-41.54,15.06-93.96,20.99-135.78" fill="none" stroke="#e6e6e6" stroke-linecap="round" stroke-linejoin="round" stroke-width="2.8"/><path d="M268.46,361.75c1.5.09,8.06-49.36,8.66-51.15" fill="none" stroke="#e6e6e6" stroke-linecap="round" stroke-linejoin="round" stroke-width="2.8"/><path d="M923.37,90.36c-107.64-.97-340.66-7.62-445.66-9.66" fill="none" stroke="#e6e6e6" stroke-linecap="round" stroke-linejoin="round" stroke-width="2.8"/><path d="M240.97,188.32c-55-9.63-121.26-19.93-176.76-28.16" fill="none" stroke="#e6e6e6" stroke-linecap="round" stroke-linejoin="round" stroke-width="2.8"/><path d="M315.78,199.48c-29.88-4.86-66.17-9.44-96.13-14.83" fill="none" stroke="#e6e6e6" stroke-linecap="round" stroke-linejoin="round" stroke-width="2.8"/><path d="M211.49,183.32c9.36-57.58,20.05-123.76,29.49-181.1" fill="none" stroke="#e6e6e6" stroke-linecap="round" stroke-linejoin="round" stroke-width="2.8"/><path d="M219.65,133.51c9.41-59.18,19.91-125.05,30.65-183.93" fill="none" stroke="#e6e6e6" stroke-linecap="round" stroke-linejoin="round" stroke-width="2.8"/><path d="M473.88,276.62c-53.03-8.1-113.37-18.35-166.27-26.66" fill="none" stroke="#e6e6e6" stroke-linecap="round" stroke-linejoin="round" stroke-width="2.8"/><path d="M473.38,327.93c-54.38-7.6-115.1-17.13-168.93-26.99" fill="none" stroke="#e6e6e6" stroke-linecap="round" stroke-linejoin="round" stroke-width="2.8"/><path d="M473.38,327.93c-33.97-4.42-80.76-12.37-114.46-17.33" fill="none" stroke="#e6e6e6" stroke-linecap="round" stroke-linejoin="round" stroke-width="2.8"/><path d="M477.21,172.16c-48.52-5.77-101.82-14.85-150.11-21.83" fill="none" stroke="#e6e6e6" stroke-linecap="round" stroke-linejoin="round" stroke-width="2.8"/><path d="M477.21,120.68c-44.11-5.18-94.87-15.03-138.61-20.32" fill="none" stroke="#e6e6e6" stroke-linecap="round" stroke-linejoin="round" stroke-width="2.8"/><path d="M383.75,331.93c4.75-33.06,14.48-84.81,19.49-117.95" fill="none" stroke="#e6e6e6" stroke-linecap="round" stroke-linejoin="round" stroke-width="2.8"/><path d="M379.42,363.42c.48-3.05,7-50.87,7.5-52.81" fill="none" stroke="#e6e6e6" stroke-linecap="round" stroke-linejoin="round" stroke-width="2.8"/><path d="M403.24,213.98c4.37-25.23,12.82-76.03,16.83-101.29" fill="none" stroke="#e6e6e6" stroke-linecap="round" stroke-linejoin="round" stroke-width="2.8"/><path d="M327.11,150.34c2.02-6.26,5.49-46.37,11.49-49.98" fill="none" stroke="#e6e6e6" stroke-linecap="round" stroke-linejoin="round" stroke-width="2.8"/><path d="M342.1,331.93c5.54-35.63,13.41-89.1,19.49-124.78" fill="none" stroke="#e6e6e6" stroke-linecap="round" stroke-linejoin="round" stroke-width="2.8"/><path d="M327.27,658.8c.42-112.24-5.79-238.14,18.16-348.2" fill="none" stroke="#e6e6e6" stroke-linecap="round" stroke-linejoin="round" stroke-width="2.8"/><path d="M240.64,135.84c-7.53,46.64-17.04,104.88-24.49,151.77" fill="none" stroke="#e6e6e6" stroke-linecap="round" stroke-linejoin="round" stroke-width="2.8"/><path d="M240.64,135.84c-6.44,39.91-14.56,89.72-20.99,129.78" fill="none" stroke="#e6e6e6" stroke-linecap="round" stroke-linejoin="round" stroke-width="2.8"/><path d="M257.8,294.11c9.93-46.11,16.41-104.93,24.49-151.61" fill="none" stroke="#e6e6e6" stroke-linecap="round" stroke-linejoin="round" stroke-width="2.8"/><path d="M398.08,109.35c.5-2.56,2.57-17.26,3-20.16" fill="none" stroke="#e6e6e6" stroke-linecap="round" stroke-linejoin="round" stroke-width="2.8"/><path d="M390.58,159.67c2.27-15.61,5.81-34.6,7.5-50.31" fill="none" stroke="#e6e6e6" stroke-linecap="round" stroke-linejoin="round" stroke-width="2.8"/><path d="M476.05,201.32c4.51.41,13.92.57,18.33-.33" fill="none" stroke="#e6e6e6" stroke-linecap="round" stroke-linejoin="round" stroke-width="2.8"/><line x1="365.93" y1="311.77" x2="362.93" y2="331.93" fill="none" stroke="#e6e6e6" stroke-linecap="round" stroke-linejoin="round" stroke-width="2.8"/><line x1="365.93" y1="311.77" x2="361.93" y2="339.26" fill="none" stroke="#e6e6e6" stroke-linecap="round" stroke-linejoin="round" stroke-width="2.8"/><line x1="475.22" y1="221.14" x2="494.88" y2="220.98" fill="none" stroke="#e6e6e6" stroke-linecap="round" stroke-linejoin="round" stroke-width="2.8"/><path d="M474.88,261.46c9.41-2.03,23.53-1.74,32.99,0" fill="none" stroke="#e6e6e6" stroke-linecap="round" stroke-linejoin="round" stroke-width="2.8"/><path d="M591.5,83.7c-1.39,11.92,9.28,19.89-3,30.49" fill="none" stroke="#e6e6e6" stroke-linecap="round" stroke-linejoin="round" stroke-width="2.8"/><path d="M324.44,304.44c7.02-44.81,16.99-106.02,24.32-150.77" fill="none" stroke="#e6e6e6" stroke-linecap="round" stroke-linejoin="round" stroke-width="2.8"/><path d="M40.55,365.92c-138.06-1.31-367.68-4.08-503.3-3.83" fill="none" stroke="#e6e6e6" stroke-linecap="round" stroke-linejoin="round" stroke-width="2.8"/><path d="M226.81,484.37c4.17-23.71,8.62-54.51,12.99-78.3" fill="none" stroke="#e6e6e6" stroke-linecap="round" stroke-linejoin="round" stroke-width="2.8"/><path d="M226.81,484.37c4.17-23.71,8.62-54.51,12.99-78.3" fill="none" stroke="#e6e6e6" stroke-linecap="round" stroke-linejoin="round" stroke-width="2.8"/><line x1="230.81" y1="459.72" x2="204.32" y2="455.05" fill="none" stroke="#e6e6e6" stroke-linecap="round" stroke-linejoin="round" stroke-width="2.8"/><line x1="230.81" y1="459.72" x2="219.65" y2="457.72" fill="none" stroke="#e6e6e6" stroke-linecap="round" stroke-linejoin="round" stroke-width="2.8"/><path d="M240.97,434.06c-3.59-.39-28.66-4.65-32.82-5.33" fill="none" stroke="#e6e6e6" stroke-linecap="round" stroke-linejoin="round" stroke-width="2.8"/><path d="M256.3,436.23c-9-1.2-27.85-3.99-36.65-5.67" fill="none" stroke="#e6e6e6" stroke-linecap="round" stroke-linejoin="round" stroke-width="2.8"/><path d="M40.55,365.92c10.82-.73,149.95,2.06,155.61-3.67,11.82-.81,32.89.21,44.82.17" fill="none" stroke="#e6e6e6" stroke-linecap="round" stroke-linejoin="round" stroke-width="2.8"/><path d="M219.65,362.09c2.13-.33,48.15,1.7,48.81-.33" fill="none" stroke="#e6e6e6" stroke-linecap="round" stroke-linejoin="round" stroke-width="2.8"/><path d="M240.97,406.24c-1.05-.11-27.86-4.5-28.99-4.66" fill="none" stroke="#e6e6e6" stroke-linecap="round" stroke-linejoin="round" stroke-width="2.8"/><path d="M259.13,409.07c-9.84-1.48-29.66-4.66-39.48-6.33" fill="none" stroke="#e6e6e6" stroke-linecap="round" stroke-linejoin="round" stroke-width="2.8"/><path d="M240.97,434.06c-3.59-.39-28.66-4.65-32.82-5.33" fill="none" stroke="#e6e6e6" stroke-linecap="round" stroke-linejoin="round" stroke-width="2.8"/><path d="M256.3,436.23c-9-1.2-27.85-3.99-36.65-5.67" fill="none" stroke="#e6e6e6" stroke-linecap="round" stroke-linejoin="round" stroke-width="2.8"/><path d="M426.9,331.93c4.93-30.09,13.32-81.27,17.99-111.46" fill="none" stroke="#e6e6e6" stroke-linecap="round" stroke-linejoin="round" stroke-width="2.8"/><path d="M421.9,363.92c1.3-8.21,7.19-45.95,8.5-53.31" fill="none" stroke="#e6e6e6" stroke-linecap="round" stroke-linejoin="round" stroke-width="2.8"/><path d="M273.79,331.93c6.52-41.54,15.06-93.96,20.99-135.78" fill="none" stroke="#e6e6e6" stroke-linecap="round" stroke-linejoin="round" stroke-width="2.8"/><path d="M268.46,361.75c1.5.09,8.06-49.36,8.66-51.15" fill="none" stroke="#e6e6e6" stroke-linecap="round" stroke-linejoin="round" stroke-width="2.8"/><path d="M40.55,365.92c10.82-.73,149.95,2.06,155.61-3.67,11.82-.81,32.89.21,44.82.17" fill="none" stroke="#e6e6e6" stroke-linecap="round" stroke-linejoin="round" stroke-width="2.8"/><path d="M219.65,362.09c2.13-.33,48.15,1.7,48.81-.33" fill="none" stroke="#e6e6e6" stroke-linecap="round" stroke-linejoin="round" stroke-width="2.8"/><path d="M240.97,406.24c-1.05-.11-27.86-4.5-28.99-4.66" fill="none" stroke="#e6e6e6" stroke-linecap="round" stroke-linejoin="round" stroke-width="2.8"/><path d="M259.13,409.07c-9.84-1.48-29.66-4.66-39.48-6.33" fill="none" stroke="#e6e6e6" stroke-linecap="round" stroke-linejoin="round" stroke-width="2.8"/><path d="M473.38,327.93c-54.38-7.6-115.1-17.13-168.93-26.99" fill="none" stroke="#e6e6e6" stroke-linecap="round" stroke-linejoin="round" stroke-width="2.8"/><path d="M473.38,327.93c-33.97-4.42-80.76-12.37-114.46-17.33" fill="none" stroke="#e6e6e6" stroke-linecap="round" stroke-linejoin="round" stroke-width="2.8"/><path d="M226.81,484.37c4.17-23.71,8.62-54.51,12.99-78.3" fill="none" stroke="#e6e6e6" stroke-linecap="round" stroke-linejoin="round" stroke-width="2.8"/><path d="M226.81,484.37c4.17-23.71,8.62-54.51,12.99-78.3" fill="none" stroke="#e6e6e6" stroke-linecap="round" stroke-linejoin="round" stroke-width="2.8"/><path d="M383.75,331.93c4.75-33.06,14.48-84.81,19.49-117.95" fill="none" stroke="#e6e6e6" stroke-linecap="round" stroke-linejoin="round" stroke-width="2.8"/><path d="M379.42,363.42c.48-3.05,7-50.87,7.5-52.81" fill="none" stroke="#e6e6e6" stroke-linecap="round" stroke-linejoin="round" stroke-width="2.8"/><path d="M379.42,363.42c-21.13-.16-63.67-.16-84.8,0" fill="none" stroke="#e6e6e6" stroke-linecap="round" stroke-linejoin="round" stroke-width="2.8"/><path d="M342.1,331.93c5.54-35.63,13.41-89.1,19.49-124.78" fill="none" stroke="#e6e6e6" stroke-linecap="round" stroke-linejoin="round" stroke-width="2.8"/><path d="M327.27,658.8c.42-112.24-5.79-238.14,18.16-348.2" fill="none" stroke="#e6e6e6" stroke-linecap="round" stroke-linejoin="round" stroke-width="2.8"/><line x1="230.81" y1="459.72" x2="204.32" y2="455.05" fill="none" stroke="#e6e6e6" stroke-linecap="round" stroke-linejoin="round" stroke-width="2.8"/><line x1="230.81" y1="459.72" x2="219.65" y2="457.72" fill="none" stroke="#e6e6e6" stroke-linecap="round" stroke-linejoin="round" stroke-width="2.8"/><path d="M473.38,331.93c-.11-68.85,4.42-142.56,3.83-211.25" fill="none" stroke="#e6e6e6" stroke-linecap="round" stroke-linejoin="round" stroke-width="2.8"/><path d="M472.88,365.25c.16-11.75.59-43.34.67-54.65" fill="none" stroke="#e6e6e6" stroke-linecap="round" stroke-linejoin="round" stroke-width="2.8"/><path d="M298.62,331.93c7.8-40.3,15.29-90.74,21.33-131.62" fill="none" stroke="#e6e6e6" stroke-linecap="round" stroke-linejoin="round" stroke-width="2.8"/><path d="M281.46,440.56c6.57-33.41,15.02-97.24,21.16-129.95" fill="none" stroke="#e6e6e6" stroke-linecap="round" stroke-linejoin="round" stroke-width="2.8"/><path d="M672.47,388.58s-8.16-14.49-8.16-14.49c-91.09-8.52-193.43-8.26-284.89-10.66" fill="none" stroke="#e6e6e6" stroke-linecap="round" stroke-linejoin="round" stroke-width="2.8"/><path d="M327.44,447.39c-14.36-1.7-40.92-5.72-55.14-8.66" fill="none" stroke="#e6e6e6" stroke-linecap="round" stroke-linejoin="round" stroke-width="2.8"/><line x1="365.93" y1="311.77" x2="362.93" y2="331.93" fill="none" stroke="#e6e6e6" stroke-linecap="round" stroke-linejoin="round" stroke-width="2.8"/><line x1="365.93" y1="311.77" x2="361.93" y2="339.26" fill="none" stroke="#e6e6e6" stroke-linecap="round" stroke-linejoin="round" stroke-width="2.8"/><path d="M545.02,367.92c2.72-3.44.9-12.31,3.33-15.99" fill="none" stroke="#e6e6e6" stroke-linecap="round" stroke-linejoin="round" stroke-width="2.8"/><path d="M228.15,331.93c7.17-19.31,9.03-43.74,12.83-63.98" fill="none" stroke="#e6e6e6" stroke-linecap="round" stroke-linejoin="round" stroke-width="4.78"/><path d="M228.15,331.93c12.25-41.69,17.24-98.71,25.32-141.61" fill="none" stroke="#e6e6e6" stroke-linecap="round" stroke-linejoin="round" stroke-width="4.78"/><path d="M188.49,566.34c14.17-84.91,18.07-173.89,45.48-255.73" fill="none" stroke="#e6e6e6" stroke-linecap="round" stroke-linejoin="round" stroke-width="4.78"/><path d="M219.65,356.42c4.49-15.08,11.67-30.23,14.33-45.82" fill="none" stroke="#e6e6e6" stroke-linecap="round" stroke-linejoin="round" stroke-width="4.78"/><path d="M228.15,331.93c7.17-19.31,9.03-43.74,12.83-63.98" fill="none" stroke="#e6e6e6" stroke-linecap="round" stroke-linejoin="round" stroke-width="4.78"/><path d="M228.15,331.93c12.25-41.69,17.24-98.71,25.32-141.61" fill="none" stroke="#e6e6e6" stroke-linecap="round" stroke-linejoin="round" stroke-width="4.78"/><path d="M188.49,566.34c14.17-84.91,18.07-173.89,45.48-255.73" fill="none" stroke="#e6e6e6" stroke-linecap="round" stroke-linejoin="round" stroke-width="4.78"/><path d="M219.65,356.42c4.49-15.08,11.67-30.23,14.33-45.82" fill="none" stroke="#e6e6e6" stroke-linecap="round" stroke-linejoin="round" stroke-width="4.78"/><path d="M253.47,190.32c14.49-72.42,17.14-160.83,47.48-228.91" fill="none" stroke="#e6e6e6" stroke-linecap="round" stroke-linejoin="round" stroke-width="4.78"/><path d="M228.15,331.93c7.17-19.31,9.03-43.74,12.83-63.98" fill="none" stroke="#e6e6e6" stroke-linecap="round" stroke-linejoin="round" stroke-width="4.78"/><path d="M228.15,331.93c12.25-41.69,17.24-98.71,25.32-141.61" fill="none" stroke="#e6e6e6" stroke-linecap="round" stroke-linejoin="round" stroke-width="4.78"/><path d="M188.49,566.34c14.17-84.91,18.07-173.89,45.48-255.73" fill="none" stroke="#e6e6e6" stroke-linecap="round" stroke-linejoin="round" stroke-width="4.78"/><path d="M219.65,356.42c4.49-15.08,11.67-30.23,14.33-45.82" fill="none" stroke="#e6e6e6" stroke-linecap="round" stroke-linejoin="round" stroke-width="4.78"/><path d="M228.15,331.93c7.17-19.31,9.03-43.74,12.83-63.98" fill="none" stroke="#e6e6e6" stroke-linecap="round" stroke-linejoin="round" stroke-width="4.78"/><path d="M228.15,331.93c12.25-41.69,17.24-98.71,25.32-141.61" fill="none" stroke="#e6e6e6" stroke-linecap="round" stroke-linejoin="round" stroke-width="4.78"/><path d="M188.49,566.34c14.17-84.91,18.07-173.89,45.48-255.73" fill="none" stroke="#e6e6e6" stroke-linecap="round" stroke-linejoin="round" stroke-width="4.78"/><path d="M219.65,356.42c4.49-15.08,11.67-30.23,14.33-45.82" fill="none" stroke="#e6e6e6" stroke-linecap="round" stroke-linejoin="round" stroke-width="4.78"/><path d="M287.46,331.93c.13-.31.26-.61.39-.92" fill="none" stroke="#e6e6e6" stroke-linecap="round" stroke-linejoin="round"/><path d="M288.98,328.23c31.32-77.97,18.44-179.5,56.94-253.87,61.65-100.46,467.41-23.48,574.98-40.24" fill="none" stroke="#e6e6e6" stroke-dasharray="2 3.01" stroke-linecap="round" stroke-linejoin="round"/><path d="M221.45,640.58c34.9-71.27,32.44-186.3,55.44-261.45" fill="none" stroke="#e6e6e6" stroke-dasharray="2 3" stroke-linecap="round" stroke-linejoin="round"/><path d="M277.33,377.7c.1-.32.2-.64.3-.95" fill="none" stroke="#e6e6e6" stroke-linecap="round" stroke-linejoin="round"/><path d="M287.46,331.93c.13-.31.26-.61.39-.92" fill="none" stroke="#e6e6e6" stroke-linecap="round" stroke-linejoin="round"/><path d="M288.98,328.23c31.32-77.97,18.44-179.5,56.94-253.87,61.65-100.46,467.41-23.48,574.98-40.24" fill="none" stroke="#e6e6e6" stroke-dasharray="2 3.01" stroke-linecap="round" stroke-linejoin="round"/><path d="M279.96,361.42c.08-.32.15-.64.23-.97" fill="none" stroke="#e6e6e6" stroke-linecap="round" stroke-linejoin="round"/><path d="M280.86,357.65c3.3-13.54,8.33-31.99,12.91-44.75" fill="none" stroke="#e6e6e6" stroke-dasharray="1.92 2.88" stroke-linecap="round" stroke-linejoin="round"/><path d="M294.27,311.54c.12-.32.23-.63.35-.93" fill="none" stroke="#e6e6e6" stroke-linecap="round" stroke-linejoin="round"/><path d="M279.96,361.42c.08-.32.15-.64.23-.97" fill="none" stroke="#e6e6e6" stroke-linecap="round" stroke-linejoin="round"/><path d="M280.86,357.65c3.3-13.54,8.33-31.99,12.91-44.75" fill="none" stroke="#e6e6e6" stroke-dasharray="1.92 2.88" stroke-linecap="round" stroke-linejoin="round"/><path d="M294.27,311.54c.12-.32.23-.63.35-.93" fill="none" stroke="#e6e6e6" stroke-linecap="round" stroke-linejoin="round"/></g><g class="rail"><path d="M284.62,331.93c.05-.33.1-.66.16-.99" fill="none" stroke="#fff30d" stroke-linecap="round" stroke-linejoin="round"/><path d="M285.25,327.99c36.06-228.08,73.59-469.26,111.26-697.32" fill="none" stroke="#fff30d" stroke-dasharray="1.99 2.99" stroke-linecap="round" stroke-linejoin="round"/><line x1="279.96" y1="361.42" x2="280.12" y2="360.43" fill="none" stroke="#fff30d" stroke-linecap="round" stroke-linejoin="round"/><line x1="280.6" y1="357.38" x2="287.56" y2="313.12" fill="none" stroke="#fff30d" stroke-dasharray="2.06 3.09" stroke-linecap="round" stroke-linejoin="round"/><line x1="287.8" y1="311.6" x2="287.96" y2="310.61" fill="none" stroke="#fff30d" stroke-linecap="round" stroke-linejoin="round"/><path d="M317.95,121.68c.1-.27.21-.59.32-.94" fill="none" stroke="#fff30d" stroke-linecap="round" stroke-linejoin="round"/><path d="M319.08,117.81c5.38-21.47,17.18-103.47,20.59-123.59" fill="none" stroke="#fff30d" stroke-dasharray="2.03 3.04" stroke-linecap="round" stroke-linejoin="round"/><path d="M284.62,331.93c.05-.33.1-.66.16-.99" fill="none" stroke="#fff30d" stroke-linecap="round" stroke-linejoin="round"/><path d="M285.25,327.99c36.06-228.08,73.59-469.26,111.26-697.32" fill="none" stroke="#fff30d" stroke-dasharray="1.99 2.99" stroke-linecap="round" stroke-linejoin="round"/><line x1="279.96" y1="361.42" x2="280.12" y2="360.43" fill="none" stroke="#fff30d" stroke-linecap="round" stroke-linejoin="round"/><line x1="280.6" y1="357.38" x2="287.56" y2="313.12" fill="none" stroke="#fff30d" stroke-dasharray="2.06 3.09" stroke-linecap="round" stroke-linejoin="round"/><line x1="287.8" y1="311.6" x2="287.96" y2="310.61" fill="none" stroke="#fff30d" stroke-linecap="round" stroke-linejoin="round"/><path d="M220.26,736.18c9.97-63.72,46.96-292.03,56.98-356.96" fill="none" stroke="#fff30d" stroke-dasharray="1.99 2.98" stroke-linecap="round" stroke-linejoin="round"/><path d="M277.48,377.73c.05-.33.1-.66.15-.99" fill="none" stroke="#fff30d" stroke-linecap="round" stroke-linejoin="round"/><line x1="277.63" y1="376.75" x2="277.78" y2="375.76" fill="none" stroke="#fff30d" stroke-linecap="round" stroke-linejoin="round"/><line x1="278.25" y1="372.68" x2="279.57" y2="363.95" fill="none" stroke="#fff30d" stroke-dasharray="2.08 3.12" stroke-linecap="round" stroke-linejoin="round"/><line x1="279.81" y1="362.41" x2="279.96" y2="361.42" fill="none" stroke="#fff30d" stroke-linecap="round" stroke-linejoin="round"/></g><g class="grid"><path d="M240.97,188.32c-55-9.63-121.26-19.93-176.76-28.16" fill="none" stroke="#ccc" stroke-linecap="round" stroke-linejoin="round" stroke-width="2.8"/><path d="M315.78,199.48c-29.88-4.86-66.17-9.44-96.13-14.83" fill="none" stroke="#ccc" stroke-linecap="round" stroke-linejoin="round" stroke-width="2.8"/><line x1="124.19" y1="169.16" x2="132.35" y2="118.18" fill="none" stroke="#ccc" stroke-linecap="round" stroke-linejoin="round" stroke-width="2.8"/><path d="M211.49,183.32c9.36-57.58,20.05-123.76,29.49-181.1" fill="none" stroke="#ccc" stroke-linecap="round" stroke-linejoin="round" stroke-width="2.8"/><path d="M219.65,133.51c9.41-59.18,19.91-125.05,30.65-183.93" fill="none" stroke="#ccc" stroke-linecap="round" stroke-linejoin="round" stroke-width="2.8"/><path d="M196.83,280.79c.89-27.28,10.63-69.61,14.66-97.46" fill="none" stroke="#ccc" stroke-linecap="round" stroke-linejoin="round" stroke-width="2.8"/><path d="M240.97,239.97c-58.66-8.32-129.2-24.26-188.43-31.82" fill="none" stroke="#ccc" stroke-linecap="round" stroke-linejoin="round" stroke-width="2.8"/><path d="M307.61,249.96c-28.08-3.73-59.88-9.18-87.96-13.16" fill="none" stroke="#ccc" stroke-linecap="round" stroke-linejoin="round" stroke-width="2.8"/><path d="M240.97,291.62c-9-2.17-39.42-3.83-44.15-10.83" fill="none" stroke="#ccc" stroke-linecap="round" stroke-linejoin="round" stroke-width="2.8"/><path d="M279.29,297.28c-17.68-2.64-42.05-6.02-59.64-9" fill="none" stroke="#ccc" stroke-linecap="round" stroke-linejoin="round" stroke-width="2.8"/><path d="M240.97,135.84c-53.77-8.17-127.26-20.96-181.43-28.82" fill="none" stroke="#ccc" stroke-linecap="round" stroke-linejoin="round" stroke-width="2.8"/><path d="M302.62,145.84c-13.57-2.25-68.36-11.07-82.97-13.33" fill="none" stroke="#ccc" stroke-linecap="round" stroke-linejoin="round" stroke-width="2.8"/><line x1="161.34" y1="226.31" x2="169.5" y2="176.49" fill="none" stroke="#ccc" stroke-linecap="round" stroke-linejoin="round" stroke-width="2.8"/><path d="M240.64,135.84c-7.53,46.64-17.04,104.88-24.49,151.77" fill="none" stroke="#ccc" stroke-linecap="round" stroke-linejoin="round" stroke-width="2.8"/><path d="M240.64,135.84c-6.44,39.91-14.56,89.72-20.99,129.78" fill="none" stroke="#ccc" stroke-linecap="round" stroke-linejoin="round" stroke-width="2.8"/><line x1="311.28" y1="94.86" x2="269.8" y2="88.53" fill="none" stroke="#ccc" stroke-linecap="round" stroke-linejoin="round" stroke-width="2.8"/><path d="M294.79,196.15c3.77-25.29,12.05-76.1,16.49-101.29" fill="none" stroke="#ccc" stroke-linecap="round" stroke-linejoin="round" stroke-width="2.8"/><path d="M361.59,207.15c3.66-25.22,11.77-75.86,16.16-100.96" fill="none" stroke="#ccc" stroke-linecap="round" stroke-linejoin="round" stroke-width="2.8"/><path d="M298.62,331.93c7.8-40.3,15.29-90.74,21.33-131.62" fill="none" stroke="#ccc" stroke-linecap="round" stroke-linejoin="round" stroke-width="2.8"/><path d="M281.46,440.56c6.57-33.41,15.02-97.24,21.16-129.95" fill="none" stroke="#ccc" stroke-linecap="round" stroke-linejoin="round" stroke-width="2.8"/><path d="M240.97,239.97c-58.66-8.32-129.2-24.26-188.43-31.82" fill="none" stroke="#ccc" stroke-linecap="round" stroke-linejoin="round" stroke-width="2.8"/><path d="M307.61,249.96c-28.08-3.73-59.88-9.18-87.96-13.16" fill="none" stroke="#ccc" stroke-linecap="round" stroke-linejoin="round" stroke-width="2.8"/><path d="M475.22,224.97c-50.83-7.43-108.88-16.85-159.44-25.49" fill="none" stroke="#ccc" stroke-linecap="round" stroke-linejoin="round" stroke-width="2.8"/><path d="M240.97,291.62c-9-2.17-39.42-3.83-44.15-10.83" fill="none" stroke="#ccc" stroke-linecap="round" stroke-linejoin="round" stroke-width="2.8"/><path d="M279.29,297.28c-17.68-2.64-42.05-6.02-59.64-9" fill="none" stroke="#ccc" stroke-linecap="round" stroke-linejoin="round" stroke-width="2.8"/><line x1="420.07" y1="112.69" x2="424.57" y2="82.7" fill="none" stroke="#ccc" stroke-linecap="round" stroke-linejoin="round" stroke-width="2.8"/><path d="M444.89,220.48c3.82-25.48,11.84-76.71,15.99-102.13" fill="none" stroke="#ccc" stroke-linecap="round" stroke-linejoin="round" stroke-width="2.8"/><path d="M240.97,135.84c-53.77-8.17-127.26-20.96-181.43-28.82" fill="none" stroke="#ccc" stroke-linecap="round" stroke-linejoin="round" stroke-width="2.8"/><path d="M302.62,145.84c-13.57-2.25-68.36-11.07-82.97-13.33" fill="none" stroke="#ccc" stroke-linecap="round" stroke-linejoin="round" stroke-width="2.8"/><path d="M240.97,84.03c-14.27-2.28-40.33-5.84-54.48-9" fill="none" stroke="#ccc" stroke-linecap="round" stroke-linejoin="round" stroke-width="2.8"/><path d="M269.8,88.53c-6.01-.94-45.18-6.96-50.15-7.83" fill="none" stroke="#ccc" stroke-linecap="round" stroke-linejoin="round" stroke-width="2.8"/><path d="M426.9,331.93c4.93-30.09,13.32-81.27,17.99-111.46" fill="none" stroke="#ccc" stroke-linecap="round" stroke-linejoin="round" stroke-width="2.8"/><path d="M421.9,363.92c1.3-8.21,7.19-45.95,8.5-53.31" fill="none" stroke="#ccc" stroke-linecap="round" stroke-linejoin="round" stroke-width="2.8"/><line x1="319.94" y1="200.32" x2="327.11" y2="150.34" fill="none" stroke="#ccc" stroke-linecap="round" stroke-linejoin="round" stroke-width="2.8"/><path d="M273.79,331.93c6.52-41.54,15.06-93.96,20.99-135.78" fill="none" stroke="#ccc" stroke-linecap="round" stroke-linejoin="round" stroke-width="2.8"/><path d="M268.46,361.75c1.5.09,8.06-49.36,8.66-51.15" fill="none" stroke="#ccc" stroke-linecap="round" stroke-linejoin="round" stroke-width="2.8"/><path d="M240.97,188.32c-55-9.63-121.26-19.93-176.76-28.16" fill="none" stroke="#ccc" stroke-linecap="round" stroke-linejoin="round" stroke-width="2.8"/><path d="M315.78,199.48c-29.88-4.86-66.17-9.44-96.13-14.83" fill="none" stroke="#ccc" stroke-linecap="round" stroke-linejoin="round" stroke-width="2.8"/><path d="M211.49,183.32c9.36-57.58,20.05-123.76,29.49-181.1" fill="none" stroke="#ccc" stroke-linecap="round" stroke-linejoin="round" stroke-width="2.8"/><path d="M219.65,133.51c9.41-59.18,19.91-125.05,30.65-183.93" fill="none" stroke="#ccc" stroke-linecap="round" stroke-linejoin="round" stroke-width="2.8"/><path d="M473.88,276.62c-53.03-8.1-113.37-18.35-166.27-26.66" fill="none" stroke="#ccc" stroke-linecap="round" stroke-linejoin="round" stroke-width="2.8"/><path d="M473.38,327.93c-54.38-7.6-115.1-17.13-168.93-26.99" fill="none" stroke="#ccc" stroke-linecap="round" stroke-linejoin="round" stroke-width="2.8"/><path d="M473.38,327.93c-33.97-4.42-80.76-12.37-114.46-17.33" fill="none" stroke="#ccc" stroke-linecap="round" stroke-linejoin="round" stroke-width="2.8"/><path d="M477.21,172.16c-48.52-5.77-101.82-14.85-150.11-21.83" fill="none" stroke="#ccc" stroke-linecap="round" stroke-linejoin="round" stroke-width="2.8"/><path d="M477.21,120.68c-44.11-5.18-94.87-15.03-138.61-20.32" fill="none" stroke="#ccc" stroke-linecap="round" stroke-linejoin="round" stroke-width="2.8"/><path d="M383.75,331.93c4.75-33.06,14.48-84.81,19.49-117.95" fill="none" stroke="#ccc" stroke-linecap="round" stroke-linejoin="round" stroke-width="2.8"/><path d="M379.42,363.42c.48-3.05,7-50.87,7.5-52.81" fill="none" stroke="#ccc" stroke-linecap="round" stroke-linejoin="round" stroke-width="2.8"/><path d="M403.24,213.98c4.37-25.23,12.82-76.03,16.83-101.29" fill="none" stroke="#ccc" stroke-linecap="round" stroke-linejoin="round" stroke-width="2.8"/><path d="M327.11,150.34c2.02-6.26,5.49-46.37,11.49-49.98" fill="none" stroke="#ccc" stroke-linecap="round" stroke-linejoin="round" stroke-width="2.8"/><path d="M342.1,331.93c5.54-35.63,13.41-89.1,19.49-124.78" fill="none" stroke="#ccc" stroke-linecap="round" stroke-linejoin="round" stroke-width="2.8"/><path d="M327.44,447.39c-.37-40.53,12.83-96.62,17.99-136.78" fill="none" stroke="#ccc" stroke-linecap="round" stroke-linejoin="round" stroke-width="2.8"/><path d="M240.64,135.84c-7.53,46.64-17.04,104.88-24.49,151.77" fill="none" stroke="#ccc" stroke-linecap="round" stroke-linejoin="round" stroke-width="2.8"/><path d="M240.64,135.84c-6.44,39.91-14.56,89.72-20.99,129.78" fill="none" stroke="#ccc" stroke-linecap="round" stroke-linejoin="round" stroke-width="2.8"/><path d="M257.8,294.11c9.93-46.11,16.41-104.93,24.49-151.61" fill="none" stroke="#ccc" stroke-linecap="round" stroke-linejoin="round" stroke-width="2.8"/><path d="M398.08,109.35c.5-2.56,2.57-17.26,3-20.16" fill="none" stroke="#ccc" stroke-linecap="round" stroke-linejoin="round" stroke-width="2.8"/><path d="M390.58,159.67c2.27-15.61,5.81-34.6,7.5-50.31" fill="none" stroke="#ccc" stroke-linecap="round" stroke-linejoin="round" stroke-width="2.8"/><line x1="365.93" y1="311.77" x2="362.93" y2="331.93" fill="none" stroke="#ccc" stroke-linecap="round" stroke-linejoin="round" stroke-width="2.8"/><line x1="365.93" y1="311.77" x2="361.93" y2="339.26" fill="none" stroke="#ccc" stroke-linecap="round" stroke-linejoin="round" stroke-width="2.8"/><path d="M324.44,304.44c7.02-44.81,16.99-106.02,24.32-150.77" fill="none" stroke="#ccc" stroke-linecap="round" stroke-linejoin="round" stroke-width="2.8"/><path d="M226.81,484.37c4.17-23.71,8.62-54.51,12.99-78.3" fill="none" stroke="#ccc" stroke-linecap="round" stroke-linejoin="round" stroke-width="2.8"/><path d="M226.81,484.37c4.17-23.71,8.62-54.51,12.99-78.3" fill="none" stroke="#ccc" stroke-linecap="round" stroke-linejoin="round" stroke-width="2.8"/><line x1="230.81" y1="459.72" x2="204.32" y2="455.05" fill="none" stroke="#ccc" stroke-linecap="round" stroke-linejoin="round" stroke-width="2.8"/><line x1="230.81" y1="459.72" x2="219.65" y2="457.72" fill="none" stroke="#ccc" stroke-linecap="round" stroke-linejoin="round" stroke-width="2.8"/><path d="M240.97,434.06c-3.59-.39-28.66-4.65-32.82-5.33" fill="none" stroke="#ccc" stroke-linecap="round" stroke-linejoin="round" stroke-width="2.8"/><path d="M256.3,436.23c-9-1.2-27.85-3.99-36.65-5.67" fill="none" stroke="#ccc" stroke-linecap="round" stroke-linejoin="round" stroke-width="2.8"/><path d="M240.97,406.24c-1.05-.11-27.86-4.5-28.99-4.66" fill="none" stroke="#ccc" stroke-linecap="round" stroke-linejoin="round" stroke-width="2.8"/><path d="M259.13,409.07c-9.84-1.48-29.66-4.66-39.48-6.33" fill="none" stroke="#ccc" stroke-linecap="round" stroke-linejoin="round" stroke-width="2.8"/><path d="M240.97,434.06c-3.59-.39-28.66-4.65-32.82-5.33" fill="none" stroke="#ccc" stroke-linecap="round" stroke-linejoin="round" stroke-width="2.8"/><path d="M256.3,436.23c-9-1.2-27.85-3.99-36.65-5.67" fill="none" stroke="#ccc" stroke-linecap="round" stroke-linejoin="round" stroke-width="2.8"/><path d="M426.9,331.93c4.93-30.09,13.32-81.27,17.99-111.46" fill="none" stroke="#ccc" stroke-linecap="round" stroke-linejoin="round" stroke-width="2.8"/><path d="M421.9,363.92c1.3-8.21,7.19-45.95,8.5-53.31" fill="none" stroke="#ccc" stroke-linecap="round" stroke-linejoin="round" stroke-width="2.8"/><path d="M273.79,331.93c6.52-41.54,15.06-93.96,20.99-135.78" fill="none" stroke="#ccc" stroke-linecap="round" stroke-linejoin="round" stroke-width="2.8"/><path d="M268.46,361.75c1.5.09,8.06-49.36,8.66-51.15" fill="none" stroke="#ccc" stroke-linecap="round" stroke-linejoin="round" stroke-width="2.8"/><path d="M240.97,406.24c-1.05-.11-27.86-4.5-28.99-4.66" fill="none" stroke="#ccc" stroke-linecap="round" stroke-linejoin="round" stroke-width="2.8"/><path d="M259.13,409.07c-9.84-1.48-29.66-4.66-39.48-6.33" fill="none" stroke="#ccc" stroke-linecap="round" stroke-linejoin="round" stroke-width="2.8"/><path d="M473.38,327.93c-54.38-7.6-115.1-17.13-168.93-26.99" fill="none" stroke="#ccc" stroke-linecap="round" stroke-linejoin="round" stroke-width="2.8"/><path d="M473.38,327.93c-33.97-4.42-80.76-12.37-114.46-17.33" fill="none" stroke="#ccc" stroke-linecap="round" stroke-linejoin="round" stroke-width="2.8"/><path d="M226.81,484.37c4.17-23.71,8.62-54.51,12.99-78.3" fill="none" stroke="#ccc" stroke-linecap="round" stroke-linejoin="round" stroke-width="2.8"/><path d="M226.81,484.37c4.17-23.71,8.62-54.51,12.99-78.3" fill="none" stroke="#ccc" stroke-linecap="round" stroke-linejoin="round" stroke-width="2.8"/><path d="M383.75,331.93c4.75-33.06,14.48-84.81,19.49-117.95" fill="none" stroke="#ccc" stroke-linecap="round" stroke-linejoin="round" stroke-width="2.8"/><path d="M379.42,363.42c.48-3.05,7-50.87,7.5-52.81" fill="none" stroke="#ccc" stroke-linecap="round" stroke-linejoin="round" stroke-width="2.8"/><path d="M342.1,331.93c5.54-35.63,13.41-89.1,19.49-124.78" fill="none" stroke="#ccc" stroke-linecap="round" stroke-linejoin="round" stroke-width="2.8"/><path d="M328.77,413.4c4.5-25.51,12.84-77.12,16.66-102.79" fill="none" stroke="#ccc" stroke-linecap="round" stroke-linejoin="round" stroke-width="2.8"/><line x1="230.81" y1="459.72" x2="204.32" y2="455.05" fill="none" stroke="#ccc" stroke-linecap="round" stroke-linejoin="round" stroke-width="2.8"/><line x1="230.81" y1="459.72" x2="219.65" y2="457.72" fill="none" stroke="#ccc" stroke-linecap="round" stroke-linejoin="round" stroke-width="2.8"/><path d="M298.62,331.93c7.8-40.3,15.29-90.74,21.33-131.62" fill="none" stroke="#ccc" stroke-linecap="round" stroke-linejoin="round" stroke-width="2.8"/><path d="M281.46,440.56c6.57-33.41,15.02-97.24,21.16-129.95" fill="none" stroke="#ccc" stroke-linecap="round" stroke-linejoin="round" stroke-width="2.8"/><path d="M327.44,447.39c-14.36-1.7-40.92-5.72-55.14-8.66" fill="none" stroke="#ccc" stroke-linecap="round" stroke-linejoin="round" stroke-width="2.8"/><line x1="365.93" y1="311.77" x2="362.93" y2="331.93" fill="none" stroke="#ccc" stroke-linecap="round" stroke-linejoin="round" stroke-width="2.8"/><line x1="365.93" y1="311.77" x2="361.93" y2="339.26" fill="none" stroke="#ccc" stroke-linecap="round" stroke-linejoin="round" stroke-width="2.8"/><path d="M228.15,331.93c7.17-19.31,9.03-43.74,12.83-63.98" fill="none" stroke="#ccc" stroke-linecap="round" stroke-linejoin="round" stroke-width="4.78"/><path d="M228.15,331.93c12.25-41.69,17.24-98.71,25.32-141.61" fill="none" stroke="#ccc" stroke-linecap="round" stroke-linejoin="round" stroke-width="4.78"/><path d="M188.49,566.34c14.17-84.91,18.07-173.89,45.48-255.73" fill="none" stroke="#ccc" stroke-linecap="round" stroke-linejoin="round" stroke-width="4.78"/><path d="M219.65,356.42c4.49-15.08,11.67-30.23,14.33-45.82" fill="none" stroke="#ccc" stroke-linecap="round" stroke-linejoin="round" stroke-width="4.78"/><path d="M228.15,331.93c7.17-19.31,9.03-43.74,12.83-63.98" fill="none" stroke="#ccc" stroke-linecap="round" stroke-linejoin="round" stroke-width="4.78"/><path d="M228.15,331.93c12.25-41.69,17.24-98.71,25.32-141.61" fill="none" stroke="#ccc" stroke-linecap="round" stroke-linejoin="round" stroke-width="4.78"/><path d="M188.49,566.34c14.17-84.91,18.07-173.89,45.48-255.73" fill="none" stroke="#ccc" stroke-linecap="round" stroke-linejoin="round" stroke-width="4.78"/><path d="M219.65,356.42c4.49-15.08,11.67-30.23,14.33-45.82" fill="none" stroke="#ccc" stroke-linecap="round" stroke-linejoin="round" stroke-width="4.78"/><path d="M253.47,190.32c14.49-72.42,17.14-160.83,47.48-228.91" fill="none" stroke="#ccc" stroke-linecap="round" stroke-linejoin="round" stroke-width="4.78"/><path d="M228.15,331.93c7.17-19.31,9.03-43.74,12.83-63.98" fill="none" stroke="#ccc" stroke-linecap="round" stroke-linejoin="round" stroke-width="4.78"/><path d="M228.15,331.93c12.25-41.69,17.24-98.71,25.32-141.61" fill="none" stroke="#ccc" stroke-linecap="round" stroke-linejoin="round" stroke-width="4.78"/><path d="M188.49,566.34c14.17-84.91,18.07-173.89,45.48-255.73" fill="none" stroke="#ccc" stroke-linecap="round" stroke-linejoin="round" stroke-width="4.78"/><path d="M219.65,356.42c4.49-15.08,11.67-30.23,14.33-45.82" fill="none" stroke="#ccc" stroke-linecap="round" stroke-linejoin="round" stroke-width="4.78"/><path d="M228.15,331.93c7.17-19.31,9.03-43.74,12.83-63.98" fill="none" stroke="#ccc" stroke-linecap="round" stroke-linejoin="round" stroke-width="4.78"/><path d="M228.15,331.93c12.25-41.69,17.24-98.71,25.32-141.61" fill="none" stroke="#ccc" stroke-linecap="round" stroke-linejoin="round" stroke-width="4.78"/><path d="M188.49,566.34c14.17-84.91,18.07-173.89,45.48-255.73" fill="none" stroke="#ccc" stroke-linecap="round" stroke-linejoin="round" stroke-width="4.78"/><path d="M219.65,356.42c4.49-15.08,11.67-30.23,14.33-45.82" fill="none" stroke="#ccc" stroke-linecap="round" stroke-linejoin="round" stroke-width="4.78"/></g><g class="chestnut"><path d="M268.46,361.75c1.5.09,8.06-49.36,8.66-51.15l-3.33,21.33c12.48-76.23,24.12-160.87,37.49-237.07" fill="none" stroke-linecap="round" stroke-linejoin="round"/></g><g class="oak"><path d="M281.46,440.56c6.57-33.41,17.16-108.62,17.16-108.62,10.92-57.16,20.16-123.8,28.49-181.59,1.94-5.75,5.55-46.73,11.49-49.98" fill="none" stroke-linecap="round" stroke-linejoin="round"/></g></svg>