<svg xmlns="http://www.w3.org/2000/svg" width="800" height="600"><rect width="800" height="600" x="0" y="0" fill="#FFFFFF" id="background"/><g id="viz"><clipPath id="serieClipPath"><rect x="-50" y="-10" width="800" height="600"/></clipPath><g transform="translate(0,0)"><g transform="translate(50,10)" clip-path="url(#serieClipPath)"><g id="axis"><g transform="translate(0,362.72727272727275)" fill="none" font-size="10" font-family="sans-serif" text-anchor="middle"><path class="domain" stroke="currentColor" d="M0,6V0H735V6"/><g class="tick" opacity="1" transform="translate(0,0)"><line stroke="currentColor" y2="6"/><text fill="currentColor" y="9" dy="0.71em">1860</text></g><g class="tick" opacity="1" transform="translate(45.94457084472363,0)"><line stroke="currentColor" y2="6"/><text fill="currentColor" y="9" dy="0.71em">1870</text></g><g class="tick" opacity="1" transform="translate(91.87656447322917,0)"><line stroke="currentColor" y2="6"/><text fill="currentColor" y="9" dy="0.71em">1880</text></g><g class="tick" opacity="1" transform="translate(137.82119674833757,0)"><line stroke="currentColor" y2="6"/><text fill="currentColor" y="9" dy="0.71em">1890</text></g><g class="tick" opacity="1" transform="translate(183.75319037684312,0)"><line stroke="currentColor" y2="6"/><text fill="currentColor" y="9" dy="0.71em">1900</text></g><g class="tick" opacity="1" transform="translate(229.68518400534865,0)"><line stroke="currentColor" y2="6"/><text fill="currentColor" y="9" dy="0.71em">1910</text></g><g class="tick" opacity="1" transform="translate(275.61717763385417,0)"><line stroke="currentColor" y2="6"/><text fill="currentColor" y="9" dy="0.71em">1920</text></g><g class="tick" opacity="1" transform="translate(321.5617484785778,0)"><line stroke="currentColor" y2="6"/><text fill="currentColor" y="9" dy="0.71em">1930</text></g><g class="tick" opacity="1" transform="translate(367.49374210708334,0)"><line stroke="currentColor" y2="6"/><text fill="currentColor" y="9" dy="0.71em">1940</text></g><g class="tick" opacity="1" transform="translate(413.43831295180695,0)"><line stroke="currentColor" y2="6"/><text fill="currentColor" y="9" dy="0.71em">1950</text></g><g class="tick" opacity="1" transform="translate(459.3703065803125,0)"><line stroke="currentColor" y2="6"/><text fill="currentColor" y="9" dy="0.71em">1960</text></g><g class="tick" opacity="1" transform="translate(505.3148774250361,0)"><line stroke="currentColor" y2="6"/><text fill="currentColor" y="9" dy="0.71em">1970</text></g><g class="tick" opacity="1" transform="translate(551.2468710535417,0)"><line stroke="currentColor" y2="6"/><text fill="currentColor" y="9" dy="0.71em">1980</text></g><g class="tick" opacity="1" transform="translate(597.1914418982653,0)"><line stroke="currentColor" y2="6"/><text fill="currentColor" y="9" dy="0.71em">1990</text></g><g class="tick" opacity="1" transform="translate(643.1234355267708,0)"><line stroke="currentColor" y2="6"/><text fill="currentColor" y="9" dy="0.71em">2000</text></g><g class="tick" opacity="1" transform="translate(689.0680063714944,0)"><line stroke="currentColor" y2="6"/><text fill="currentColor" y="9" dy="0.71em">2010</text></g><g class="tick" opacity="1" transform="translate(735,0)"><line stroke="currentColor" y2="6"/><text fill="currentColor" y="9" dy="0.71em">2020</text></g><text x="735" dy="-5" text-anchor="end" style="font-family: Arial, sans-serif; font-size: 12px; fill: rgb(123, 123, 123); font-weight: bold;">Year</text></g><g transform="translate(0,0)" fill="none" font-size="10" font-family="sans-serif" text-anchor="end"><path class="domain" stroke="currentColor" d="M0,570V0"/><g class="tick" opacity="1" transform="translate(0,570)"><line stroke="currentColor" x2="-6"/><text fill="currentColor" x="-9" dy="0.32em">−20</text></g><g class="tick" opacity="1" transform="translate(0,518.1818181818181)"><line stroke="currentColor" x2="-6"/><text fill="currentColor" x="-9" dy="0.32em">−15</text></g><g class="tick" opacity="1" transform="translate(0,466.3636363636363)"><line stroke="currentColor" x2="-6"/><text fill="currentColor" x="-9" dy="0.32em">−10</text></g><g class="tick" opacity="1" transform="translate(0,414.54545454545456)"><line stroke="currentColor" x2="-6"/><text fill="currentColor" x="-9" dy="0.32em">−5</text></g><g class="tick" opacity="1" transform="translate(0,362.72727272727275)"><line stroke="currentColor" x2="-6"/><text fill="currentColor" x="-9" dy="0.32em">0</text></g><g class="tick" opacity="1" transform="translate(0,310.9090909090909)"><line stroke="currentColor" x2="-6"/><text fill="currentColor" x="-9" dy="0.32em">5</text></g><g class="tick" opacity="1" transform="translate(0,259.0909090909091)"><line stroke="currentColor" x2="-6"/><text fill="currentColor" x="-9" dy="0.32em">10</text></g><g class="tick" opacity="1" transform="translate(0,207.27272727272728)"><line stroke="currentColor" x2="-6"/><text fill="currentColor" x="-9" dy="0.32em">15</text></g><g class="tick" opacity="1" transform="translate(0,155.45454545454544)"><line stroke="currentColor" x2="-6"/><text fill="currentColor" x="-9" dy="0.32em">20</text></g><g class="tick" opacity="1" transform="translate(0,103.63636363636361)"><line stroke="currentColor" x2="-6"/><text fill="currentColor" x="-9" dy="0.32em">25</text></g><g class="tick" opacity="1" transform="translate(0,51.818181818181834)"><line stroke="currentColor" x2="-6"/><text fill="currentColor" x="-9" dy="0.32em">30</text></g><g class="tick" opacity="1" transform="translate(0,0)"><line stroke="currentColor" x2="-6"/><text fill="currentColor" x="-9" dy="0.32em">35</text></g><text x="4" text-anchor="start" dominant-baseline="hanging" style="font-family: Arial, sans-serif; font-size: 12px; fill: rgb(123, 123, 123); font-weight: bold;">Percent change</text></g></g><g id="viz"><g id="Kansas"><path d="M0,362.72727272727275C22.972285422361814,362.72727272727275,22.972285422361814,362.72727272727275,45.94457084472363,362.72727272727275C68.91056765897639,362.72727272727275,68.91056765897639,362.72727272727275,91.87656447322917,362.72727272727275C114.84888061078337,362.72727272727275,114.84888061078337,72.54545454545458,137.82119674833757,72.54545454545458C160.78719356259035,72.54545454545458,160.78719356259035,342.51818181818186,183.75319037684312,342.51818181818186C206.7191871910959,342.51818181818186,206.7191871910959,329.5636363636363,229.68518400534865,329.5636363636363C252.6511808196014,329.5636363636363,252.6511808196014,362.72727272727275,275.61717763385417,362.72727272727275C298.589463056216,362.72727272727275,298.589463056216,383.97272727272724,321.5617484785778,383.97272727272724C344.52774529283056,383.97272727272724,344.52774529283056,406.2545454545454,367.49374210708334,406.2545454545454C390.4660275294451,406.2545454545454,390.4660275294451,447.7090909090909,413.43831295180695,447.7090909090909C436.4043097660597,447.7090909090909,436.4043097660597,443.04545454545456,459.3703065803125,443.04545454545456C482.34259200267434,443.04545454545456,482.34259200267434,421.8,505.3148774250361,421.8C528.2808742392889,421.8,528.2808742392889,338.8909090909091,551.2468710535417,338.8909090909091C574.2191564759034,338.8909090909091,574.2191564759034,486.05454545454546,597.1914418982653,486.05454545454546C620.1574387125181,486.05454545454546,620.1574387125181,351.3272727272727,643.1234355267708,351.3272727272727C666.0957209491326,351.3272727272727,666.0957209491326,444.6,689.0680063714944,444.6C712.0340031857472,444.6,712.0340031857472,458.07272727272726,735,458.07272727272726" stroke="#1f77b4" fill="none"/><text font-family="sans-serif" font-size="10" class="labels" x="137.82119674833757" y="72.54545454545458" dx="0" dy="-4" text-anchor="middle">Kansas</text></g><g id="South Dakota"><path d="M91.87656447322917,362.72727272727275C114.84888061078337,362.72727272727275,114.84888061078337,362.72727272727275,137.82119674833757,362.72727272727275C160.78719356259035,362.72727272727275,160.78719356259035,295.3636363636364,183.75319037684312,295.3636363636364C206.7191871910959,295.3636363636364,206.7191871910959,292.25454545454545,229.68518400534865,292.25454545454545C252.6511808196014,292.25454545454545,252.6511808196014,241.4727272727273,275.61717763385417,241.4727272727273C298.589463056216,241.4727272727273,298.589463056216,395.3727272727273,321.5617484785778,395.3727272727273C344.52774529283056,395.3727272727273,344.52774529283056,379.82727272727266,367.49374210708334,379.82727272727266C390.4660275294451,379.82727272727266,390.4660275294451,406.2545454545454,413.43831295180695,406.2545454545454C436.4043097660597,406.2545454545454,436.4043097660597,432.1636363636364,459.3703065803125,432.1636363636364C482.34259200267434,432.1636363636364,482.34259200267434,461.70000000000005,505.3148774250361,461.70000000000005C528.2808742392889,461.70000000000005,528.2808742392889,383.45454545454544,551.2468710535417,383.45454545454544C574.2191564759034,383.45454545454544,574.2191564759034,451.33636363636367,597.1914418982653,451.33636363636367C620.1574387125181,451.33636363636367,620.1574387125181,371.0181818181818,643.1234355267708,371.0181818181818C666.0957209491326,371.0181818181818,666.0957209491326,448.22727272727275,689.0680063714944,448.22727272727275C712.0340031857472,448.22727272727275,712.0340031857472,403.6636363636364,735,403.6636363636364" stroke="#8c564b" fill="none"/><text font-family="sans-serif" font-size="10" class="labels" x="275.61717763385417" y="241.4727272727273" dx="0" dy="-4" text-anchor="middle">South Dakota</text></g><g id="Nebraska"><path d="M0,362.72727272727275C22.972285422361814,362.72727272727275,22.972285422361814,362.72727272727275,45.94457084472363,362.72727272727275C68.91056765897639,362.72727272727275,68.91056765897639,362.72727272727275,91.87656447322917,362.72727272727275C114.84888061078337,362.72727272727275,114.84888061078337,362.72727272727275,137.82119674833757,362.72727272727275C160.78719356259035,362.72727272727275,160.78719356259035,362.72727272727275,183.75319037684312,362.72727272727275C206.7191871910959,362.72727272727275,206.7191871910959,80.83636363636359,229.68518400534865,80.83636363636359C252.6511808196014,80.83636363636359,252.6511808196014,216.6,275.61717763385417,216.6C298.589463056216,216.6,298.589463056216,362.72727272727275,321.5617484785778,362.72727272727275C344.52774529283056,362.72727272727275,344.52774529283056,395.89090909090913,367.49374210708334,395.89090909090913C390.4660275294451,395.89090909090913,390.4660275294451,437.3454545454546,413.43831295180695,437.3454545454546C436.4043097660597,437.3454545454546,436.4043097660597,431.6454545454546,459.3703065803125,431.6454545454546C482.34259200267434,431.6454545454546,482.34259200267434,369.98181818181814,505.3148774250361,369.98181818181814C528.2808742392889,369.98181818181814,528.2808742392889,332.1545454545455,551.2468710535417,332.1545454545455C574.2191564759034,332.1545454545455,574.2191564759034,459.6272727272727,597.1914418982653,459.6272727272727C620.1574387125181,459.6272727272727,620.1574387125181,355.9909090909091,643.1234355267708,355.9909090909091C666.0957209491326,355.9909090909091,666.0957209491326,444.6,689.0680063714944,444.6C712.0340031857472,444.6,712.0340031857472,404.1818181818182,735,404.1818181818182" stroke="#2ca02c" fill="none"/><text font-family="sans-serif" font-size="10" class="labels" x="229.68518400534865" y="80.83636363636359" dx="0" dy="-4" text-anchor="middle">Nebraska</text></g><g id="Texas"><path d="M91.87656447322917,362.72727272727275C114.84888061078337,362.72727272727275,114.84888061078337,362.72727272727275,137.82119674833757,362.72727272727275C183.75319037684312,362.72727272727275,183.75319037684312,362.72727272727275,229.68518400534865,362.72727272727275C252.6511808196014,362.72727272727275,252.6511808196014,362.72727272727275,275.61717763385417,362.72727272727275C298.589463056216,362.72727272727275,298.589463056216,35.23636363636361,321.5617484785778,35.23636363636361C344.52774529283056,35.23636363636361,344.52774529283056,377.75454545454545,367.49374210708334,377.75454545454545C390.4660275294451,377.75454545454545,390.4660275294451,193.80000000000004,413.43831295180695,193.80000000000004C436.4043097660597,193.80000000000004,436.4043097660597,361.6909090909091,459.3703065803125,361.6909090909091C482.34259200267434,361.6909090909091,482.34259200267434,454.9636363636364,505.3148774250361,454.9636363636364C528.2808742392889,454.9636363636364,528.2808742392889,345.1090909090909,551.2468710535417,345.1090909090909C574.2191564759034,345.1090909090909,574.2191564759034,508.8545454545454,597.1914418982653,508.8545454545454C620.1574387125181,508.8545454545454,620.1574387125181,433.2,643.1234355267708,433.2C666.0957209491326,433.2,666.0957209491326,436.30909090909086,689.0680063714944,436.30909090909086C712.0340031857472,436.30909090909086,712.0340031857472,486.05454545454546,735,486.05454545454546" stroke="#e377c2" fill="none"/><text font-family="sans-serif" font-size="10" class="labels" x="321.5617484785778" y="35.23636363636361" dx="0" dy="-4" text-anchor="middle">Texas</text></g><g id="North Dakota"><path d="M91.87656447322917,362.72727272727275C114.84888061078337,362.72727272727275,114.84888061078337,362.72727272727275,137.82119674833757,362.72727272727275C160.78719356259035,362.72727272727275,160.78719356259035,136.28181818181815,183.75319037684312,136.28181818181815C206.7191871910959,136.28181818181815,206.7191871910959,362.72727272727275,229.68518400534865,362.72727272727275C252.6511808196014,362.72727272727275,252.6511808196014,325.4181818181818,275.61717763385417,325.4181818181818C298.589463056216,325.4181818181818,298.589463056216,258.05454545454546,321.5617484785778,258.05454545454546C344.52774529283056,258.05454545454546,344.52774529283056,275.6727272727273,367.49374210708334,275.6727272727273C390.4660275294451,275.6727272727273,390.4660275294451,349.2545454545455,413.43831295180695,349.2545454545455C436.4043097660597,349.2545454545455,436.4043097660597,441.4909090909091,459.3703065803125,441.4909090909091C482.34259200267434,441.4909090909091,482.34259200267434,525.4363636363636,505.3148774250361,525.4363636363636C528.2808742392889,525.4363636363636,528.2808742392889,409.36363636363643,551.2468710535417,409.36363636363643C574.2191564759034,409.36363636363643,574.2191564759034,496.4181818181818,597.1914418982653,496.4181818181818C620.1574387125181,496.4181818181818,620.1574387125181,492.27272727272725,643.1234355267708,492.27272727272725C666.0957209491326,492.27272727272725,666.0957209491326,519.2181818181818,689.0680063714944,519.2181818181818C712.0340031857472,519.2181818181818,712.0340031857472,424.90909090909093,735,424.90909090909093" stroke="#d62728" fill="none"/><text font-family="sans-serif" font-size="10" class="labels" x="183.75319037684312" y="136.28181818181815" dx="0" dy="-4" text-anchor="middle">North Dakota</text></g><g id="Oklahoma"><path d="M183.75319037684312,362.72727272727275C206.7191871910959,362.72727272727275,206.7191871910959,362.72727272727275,229.68518400534865,362.72727272727275C252.6511808196014,362.72727272727275,252.6511808196014,362.72727272727275,275.61717763385417,362.72727272727275C298.589463056216,362.72727272727275,298.589463056216,249.76363636363638,321.5617484785778,249.76363636363638C344.52774529283056,249.76363636363638,344.52774529283056,461.1818181818182,367.49374210708334,461.1818181818182C390.4660275294451,461.1818181818182,390.4660275294451,447.7090909090909,413.43831295180695,447.7090909090909C436.4043097660597,447.7090909090909,436.4043097660597,486.57272727272726,459.3703065803125,486.57272727272726C482.34259200267434,486.57272727272726,482.34259200267434,330.59999999999997,505.3148774250361,330.59999999999997C528.2808742392889,330.59999999999997,528.2808742392889,288.1090909090909,551.2468710535417,288.1090909090909C574.2191564759034,288.1090909090909,574.2191564759034,519.2181818181818,597.1914418982653,519.2181818181818C620.1574387125181,519.2181818181818,620.1574387125181,453.92727272727274,643.1234355267708,453.92727272727274C666.0957209491326,453.92727272727274,666.0957209491326,392.78181818181815,689.0680063714944,392.78181818181815C712.0340031857472,392.78181818181815,712.0340031857472,495.38181818181823,735,495.38181818181823" stroke="#9467bd" fill="none"/><text font-family="sans-serif" font-size="10" class="labels" x="321.5617484785778" y="249.76363636363638" dx="0" dy="-4" text-anchor="middle">Oklahoma</text></g><g id="Montana"><path d="M137.82119674833757,362.72727272727275C183.75319037684312,362.72727272727275,183.75319037684312,362.72727272727275,229.68518400534865,362.72727272727275C252.6511808196014,362.72727272727275,252.6511808196014,362.72727272727275,275.61717763385417,362.72727272727275C298.589463056216,362.72727272727275,298.589463056216,534.2454545454545,321.5617484785778,534.2454545454545C344.52774529283056,534.2454545454545,344.52774529283056,323.3454545454545,367.49374210708334,323.3454545454545C390.4660275294451,323.3454545454545,390.4660275294451,331.6363636363636,413.43831295180695,331.6363636363636C436.4043097660597,331.6363636363636,436.4043097660597,364.8,459.3703065803125,364.8C482.34259200267434,364.8,482.34259200267434,526.4727272727273,505.3148774250361,526.4727272727273C528.2808742392889,526.4727272727273,528.2808742392889,315.05454545454546,551.2468710535417,315.05454545454546C574.2191564759034,315.05454545454546,574.2191564759034,461.70000000000005,597.1914418982653,461.70000000000005C620.1574387125181,461.70000000000005,620.1574387125181,340.44545454545454,643.1234355267708,340.44545454545454C666.0957209491326,340.44545454545454,666.0957209491326,445.6363636363637,689.0680063714944,445.6363636363637C712.0340031857472,445.6363636363637,712.0340031857472,397.9636363636364,735,397.9636363636364" stroke="#ff7f0e" fill="none"/><text font-family="sans-serif" font-size="10" class="labels" x="551.2468710535417" y="315.05454545454546" dx="0" dy="-4" text-anchor="middle">Montana</text></g></g></g><text y="4" x="4" style="font-family: Arial, sans-serif; font-size: 12px; fill: black; font-weight: bold; dominant-baseline: hanging;"/></g><g id="grid"><rect x="0" y="0" width="800" height="600" fill="none" stroke="#ccc"/></g></g></svg>