<svg xmlns="http://www.w3.org/2000/svg" xmlns:xlink="http://www.w3.org/1999/xlink" id="exportSvg" width="600" height="480"><defs/><g><g id="__svelte-dw-svg" clip-path="url(#rect-mask-PPINyVTsJvKQkRPDgtLo-)"><clipPath id="rect-mask-PPINyVTsJvKQkRPDgtLo-"><rect x="0" y="0" width="600" height="480"/></clipPath><g id="container-svg container-body-svg datawrapper-jqguh-1gvfeww-svg"><g id="container-svg container-bodyTop-svg datawrapper-jqguh-lmtz6e-svg"><g id="container-svg container-bodyCenter-svg datawrapper-jqguh-1fgvipr-svg"><g id="chart-svg"><g id="container-inner-svg export-group-svg maplibregl-map-svg" clip-path="url(#rect-mask-WUaDSJk80y6hU1sOiZRqm)"><clipPath id="rect-mask-WUaDSJk80y6hU1sOiZRqm"><rect x="0" y="0" width="600" height="447"/></clipPath><g id="basemap-svg" clip-path="url(#rect-mask-y9loRFJ97lwqHwSXlMRj-)"><clipPath id="rect-mask-y9loRFJ97lwqHwSXlMRj-"><rect x="0" y="0" width="600" height="447"/></clipPath><rect width="600" height="447" transform="translate(0, 0)" fill="rgb(255,255,255)" id="background" style="fill: rgb(255, 255, 255);"/><path d="M219.464,279.332L219.18,281.316M206.99,243.045L223.433,245.171L219.464,279.332M230.095,239.785L224.141,238.935L223.716,241.911L223.433,245.171L225.275,244.746L226.409,244.888M234.489,201.514L251.64,203.64L269.216,205.908L264.397,243.612L230.095,239.785M228.535,200.947L231.654,201.231L234.489,201.514L234.772,198.679L235.056,195.703L232.362,195.419L229.244,195.136L228.961,197.971L228.535,200.947M210.676,237.375L224.141,238.935L228.535,200.947L213.085,199.105M204.864,236.808L206.849,236.95L210.676,237.375M124.495,236.525L119.392,237.517L116.558,237.801L113.014,238.226L111.313,238.651L107.769,239.785L105.218,240.069L102.667,240.21L99.69,240.069L95.579,239.076L91.327,238.226L87.217,237.942L85.232,238.084L82.822,238.368L78.145,239.218L78.145,242.762M129.315,227.737L204.864,236.808M128.322,233.832L126.905,233.69L124.92,233.407L125.204,230.43L125.629,227.312L127.897,227.595L129.315,227.737M75.452,227.453L108.478,231.847L123.645,231.989L124.92,233.407L124.495,236.525M51.922,268.559L51.922,266.008M48.237,228.587L51.781,228.729L53.34,228.587L54.899,227.879L56.033,227.028L57.45,224.902L71.058,226.745M71.058,226.745L75.452,227.453M49.229,254.668L41.008,254.668M44.268,262.322L47.103,262.322M76.302,263.598L76.302,260.621L77.72,260.621L77.861,257.787M59.576,272.103L59.576,267.85M44.41,247.581L44.268,254.668L44.268,262.322L44.126,265.016L47.528,268.559L51.922,268.559L59.576,268.701L69.64,268.843M74.46,264.59L75.168,263.598L76.302,263.598L81.263,262.464L82.822,262.606L83.815,262.322L84.665,262.039L85.516,261.33L86.224,260.763L86.933,259.629L87.217,258.212L87.358,255.944L85.232,238.084M39.307,248.29L40.016,247.581L50.647,247.581M276.02,162.109L286.225,163.385L287.643,163.527L296.998,164.519M286.367,163.385L287.643,163.527L296.998,164.519M286.934,231.706L288.21,231.847L291.895,232.273M286.792,232.981L288.068,233.123L288.351,230.572L287.076,230.43L286.792,232.981M288.068,246.731L278.146,245.313L276.728,245.171L268.224,244.037M288.068,246.731L290.336,246.872L291.611,247.014L291.186,249.991L291.045,251.55M304.51,210.728L296.006,210.019L291.611,247.014L304.51,248.573M325.772,250.983L330.308,213.279L313.157,211.578L296.006,210.019L291.611,247.014L308.763,248.998L325.772,250.983M278.429,359.417L278.146,361.402M278.146,361.402L278.004,363.244M297.706,332.911L281.548,332.911L278.429,359.417M297.706,332.911L286.367,332.911M84.665,178.126L130.59,183.371L132.858,163.81L134.984,145.384L39.165,134.328L34.204,133.194L-9.595,128.091M139.095,145.809L183.603,151.053M276.02,162.109L256.742,159.7L239.591,157.715L235.056,195.703L252.207,197.829L269.216,199.672M151.852,141.273L150.86,141.131L149.726,140.989M293.454,202.648L292.887,205.625L292.037,209.594L294.446,209.735L296.006,210.019L296.573,206.05L296.856,203.073L295.155,202.932L293.454,202.648M293.454,202.648L292.887,205.625L292.037,209.594L294.446,209.735L296.006,210.019L296.573,206.05L296.856,203.073L295.155,202.932L293.454,202.648M274.744,200.38L281.831,201.231L283.107,201.372L293.454,202.648M273.752,206.192L270.917,205.908L269.216,205.908L269.216,199.672L271.626,199.955L274.744,200.38M125.629,227.312L129.881,189.324L47.812,179.827M20.172,215.83L20.597,195.561L21.164,176.567L-4.775,173.591M78.145,239.218L76.869,237.517M25.133,221.075L20.03,220.791L20.03,217.815L20.172,215.83M46.252,229.013L46.252,227.595L46.111,223.626M35.338,222.351L25.133,221.075L24.991,228.02M40.583,222.918L38.173,222.634L35.338,222.351M54.474,224.619L46.111,223.626L40.583,222.918M57.45,224.902L55.749,224.76L54.474,224.619M132.575,361.543L135.693,361.543L135.835,354.314L135.551,353.606L134.843,353.322L133.142,353.322L125.204,353.18M20.03,220.791L-6.051,217.673M185.729,151.337L214.786,154.88M183.603,151.053L184.453,151.195L185.729,151.337M81.972,177.843L83.389,177.985L84.665,178.126M-8.035,167.496L81.972,177.843M136.969,139.572L111.313,136.595M151.852,141.273L234.489,150.912L239.024,112.924L176.232,105.695M139.237,139.714L138.386,139.714L136.969,139.572M139.095,145.809L137.677,145.667L134.984,145.384L135.41,142.265M233.78,157.007L229.244,195.136L214.644,193.435M149.726,140.989L139.237,139.714M234.489,150.912L234.063,154.172L233.78,157.007L236.615,157.29L239.591,157.715L239.875,154.88L240.158,152.896M209.683,192.726L212.093,193.01L214.644,193.435M180.909,189.466L209.683,192.726M179.067,189.182L180.059,189.324L180.909,189.466M134.417,183.938L179.067,189.182M133.85,189.749L132.575,189.608L129.881,189.324L130.307,186.206L130.59,183.371L133.283,183.796L134.417,183.938M210.392,198.821L133.85,189.749M213.085,199.105L211.384,198.963L210.392,198.821M205.148,242.903L128.322,233.832M206.99,243.045L206.282,243.045L205.148,242.903M322.228,423.627L322.228,425.47M316.7,423.627L316.7,425.328M316.7,423.627L316.7,391.451M322.37,391.451L322.228,423.627M297.706,332.911L281.548,332.911L278.429,359.417M297.706,332.911L286.367,332.911M322.512,359.701L322.512,363.386L316.417,363.386L316.558,360.693L316.558,359.701M300.4,332.911L297.706,332.911M316.558,359.701L316.417,332.769L300.4,332.911M316.417,363.386L316.417,372.032M347.459,391.451L347.742,360.693M362.484,332.911L362.767,329.934L363.05,327.099L360.641,327.099L357.664,327.241L357.239,329.934L356.956,332.911L362.484,332.911M356.956,332.911L339.804,332.911L322.37,332.769L322.512,359.701M388.706,332.769L362.484,332.911L362.625,339.006M393.1,332.627L391.116,332.627L388.706,332.769M419.606,332.486L393.1,332.627M424,332.344L422.158,332.486L419.606,332.486M457.594,332.202L452.774,332.202L452.774,326.532L459.011,326.532M452.774,332.202L424,332.344M519.819,308.106L519.819,325.54L520.103,325.966L568.012,325.54L572.123,325.54L573.257,325.399M577.793,324.832L582.329,324.265L583.463,324.265M573.257,325.399L575.1,325.115L577.793,324.832M459.011,326.532L515.709,326.107M510.748,332.486L473.044,332.769L467.941,332.202L457.594,332.202M520.103,325.966L517.693,325.966L515.709,326.107L515.425,329.084L515.142,332.344L513.157,332.344L510.748,332.486M450.507,426.179L450.223,432.557M451.215,392.585L450.507,423.911M450.507,423.911L450.507,426.179M455.042,455.661L455.468,432.557M485.659,444.464L489.486,443.33L493.03,442.621L497.282,442.621L501.393,442.904L504.653,443.33L510.181,443.188L574.249,442.763M505.503,354.314L508.622,354.314M505.503,357.716L507.346,357.716M505.503,361.543L507.629,361.543M505.503,364.945L507.488,364.945M485.659,366.93L485.517,359.984L486.084,359.984M496.715,391.735L499.55,391.877M476.304,365.229L478.714,365.37M514.717,363.953L514.717,361.827M515.284,374.3L514.717,372.458L514.717,363.953M515.709,376.143L515.425,375.151L515.284,374.3M516.134,378.269L515.709,376.143M532.718,385.923L528.466,386.065M532.718,382.947L528.466,382.947M476.162,367.071L478.005,367.071L485.659,366.93L505.645,366.788M528.324,376.852L528.324,377.986L528.466,382.947L528.466,389.609M514.858,378.553L516.134,378.269L516.843,377.986L528.324,377.986L536.12,377.844M512.874,379.12L514.008,378.836L514.858,378.553M477.296,403.925L477.438,397.121L477.438,394.144L478.005,367.071M477.438,397.121L480.698,397.121L481.549,396.979L482.116,396.696L482.541,396.412L482.682,395.845L482.682,395.42L482.541,394.995L482.257,394.57L481.69,394.286L481.123,394.286L477.438,394.144M505.787,382.805L505.787,381.104L505.645,366.788L505.503,364.945L505.503,353.322M496.715,396.554L482.541,396.412M512.874,379.12L505.787,381.104L498.133,380.962L497.14,382.663L497.14,390.317L496.715,391.735L496.715,403.641M490.337,403.641L496.715,403.641L508.48,403.5L511.882,404.633M397.636,412.004L397.636,412.288L397.92,412.288L397.92,412.004L397.636,412.004M449.373,387.766L451.357,387.766M429.67,385.923L429.67,387.766M450.365,368.489L451.924,367.922M452.066,360.409L451.924,367.922L451.782,374.584L451.357,387.766L451.357,391.735M429.528,371.749L430.237,371.182L431.371,370.615L432.505,370.331L433.356,369.764L433.781,369.339L433.923,368.205M431.796,374.867L422.158,374.867M429.528,381.387L429.528,371.749L429.245,370.473L428.395,368.205M422.583,48.147L425.843,48.431L428.678,48.856L431.796,49.281M430.237,35.674L428.678,48.856L424.993,79.189L422.158,78.764L419.039,78.339L422.583,48.147L424.142,34.965M293.454,202.648L292.887,205.625L292.037,209.594L294.446,209.735L296.006,210.019L296.573,206.05L296.856,203.073L295.155,202.932L293.454,202.648M293.454,202.648L292.887,205.625L292.037,209.594L294.446,209.735L296.006,210.019L296.573,206.05L296.856,203.073L295.155,202.932L293.454,202.648M575.95,254.668L575.808,256.936L575.808,258.637M454.617,266.858L411.81,261.614L414.078,242.62L416.346,223.485L455.042,228.02M575.808,258.637L627.828,258.354L630.805,258.354L632.364,258.212L633.498,257.503L634.349,256.653L634.916,255.802L635.199,254.952L635.341,253.818L634.916,252.4L634.207,251.125L633.215,250.274L632.364,249.849L631.372,249.565L630.096,249.565L628.962,249.991L628.112,250.558L627.403,251.408L626.553,252.542L625.702,253.393L624.852,253.96L623.576,254.243L622.017,254.385L575.95,254.668M458.019,266.575L456.602,266.716L454.617,266.858M461.846,228.162L514.575,227.453L514.575,265.724L458.019,266.575M455.042,228.02L456.035,228.02L461.846,228.162M276.02,162.109L286.225,163.385L287.643,163.527L296.998,164.519M286.367,163.385L287.643,163.527L296.998,164.519M514.717,361.827L515.142,332.344L560.5,331.919L573.399,331.777L577.793,331.777L585.73,332.202L586.864,332.202L603.732,333.194M330.875,257.787L348.167,259.771L365.177,261.755L357.664,327.241L340.23,327.241L322.795,327.099L330.875,257.787M411.385,216.823L417.055,217.39L416.63,220.366L416.346,223.485L413.511,223.059L410.535,222.776L411.385,216.823M335.977,163.385L340.797,123.413M381.477,174.583L381.902,171.464L382.186,168.771L379.209,168.346L376.374,167.921L376.091,170.756L375.666,173.874L378.501,174.299L381.477,174.583M400.613,176.851L415.638,178.835L411.385,216.823L395.368,214.98M397.636,176.567L399.195,176.709L400.613,176.851M391.966,214.555L377.083,212.712L381.477,174.583L397.636,176.567M420.457,179.26L418.898,179.119L415.638,178.835L416.063,175.575L416.488,172.882L419.606,173.165L421.307,173.449M400.471,170.756L401.747,171.181L416.488,172.882L418.756,153.321L419.748,144.675M381.477,124.689L384.737,125.114L387.289,125.539L387.005,127.949L386.722,129.65M386.722,129.65L382.186,168.771L398.203,170.472M398.203,170.472L399.904,170.756L400.471,170.756M382.044,118.877L383.887,102.86M381.477,124.689L365.602,122.846M381.052,128.091L381.194,127.24L381.477,124.689M346.892,124.547L342.072,163.952L359.507,165.936L376.374,167.921L381.052,128.091M341.364,169.905L358.798,171.89L375.666,173.874L371.13,212.145L353.837,210.019L336.686,207.893L341.364,169.905M341.364,169.905L341.647,166.787L342.072,163.952L338.954,163.669L335.977,163.385L335.694,166.078L335.41,169.197L338.245,169.48L341.364,169.905M319.535,167.354L318.401,167.212L317.125,167.07M316.417,205.767L331.016,207.184L335.41,169.197L319.535,167.354M311.597,205.2L313.865,205.483L316.417,205.767M336.119,213.846L333.284,213.562L330.308,213.279L330.591,210.444L331.016,207.184L333.993,207.609L336.686,207.893L336.403,211.153L336.119,213.846M311.597,205.2L296.856,203.073L301.392,165.086L317.125,167.07M296.998,164.519L299.407,164.803L301.392,165.086M331.725,251.833L348.876,253.96L366.027,255.944L370.421,217.957L353.128,215.83L336.119,213.846L331.725,251.833M325.063,257.22L328.04,257.503L330.875,257.787L331.3,255.093L331.725,251.833L325.772,250.983L325.347,254.385L325.063,257.22M304.51,210.728L296.006,210.019L291.611,247.014L304.51,248.573M325.772,250.983L330.308,213.279L313.157,211.578L296.006,210.019L291.611,247.014L308.763,248.998L325.772,250.983M316.7,327.241L325.063,257.22M322.37,332.769L316.417,332.769L316.558,330.076L316.7,327.241L319.677,327.241L322.795,327.099L322.512,330.076L322.37,332.769M362.2,392.585L362.2,423.06M316.7,425.328L316.7,437.518M357.097,413.563L356.956,400.948M395.368,214.98L394.092,214.838L391.966,214.555" stroke="rgb(231,231,231)" id="road_path" transform="translate(0.5, 0)" style="fill: none; stroke-width: 1.00315; stroke-linejoin: bevel; stroke-linecap: square; stroke-dasharray: 0.75595, 1.88988; stroke: rgb(231, 231, 231);"/><path d="M207.274,14.837L208.833,-169.147M208.124,106.546L206.99,85.142L206.849,59.912L207.416,-3.306M258.443,14.837L265.814,5.624L270.633,-6.283L277.862,-11.385L296.006,-10.677M257.876,15.546L265.814,5.624L269.358,-3.306M454.617,14.837L454.617,5.907L454.475,-15.212L454.05,-169.288L452.774,-190.55L451.782,-479.85L454.05,-583.89M454.617,14.979L454.617,5.907L454.617,-3.306M374.107,7.467L383.178,-15.212L383.178,-28.536L386.297,-40.301L386.297,-61.563M374.107,7.467L378.359,-3.306M357.239,14.837L358.373,5.34L371.413,-63.831L378.359,-168.721M333.568,210.728L333.993,207.609L338.245,169.48L338.529,166.362L338.954,163.669L343.915,122.705L343.915,122.421L348.167,86.135L358.373,5.34L360.074,-3.306M435.482,12.286L436.332,-27.686L435.623,-52.775L431.655,-57.169L386.297,-61.563L371.413,-63.831M435.482,12.286L435.765,-3.306M453.625,14.837L435.482,12.286L414.22,11.861L374.107,7.467L358.373,5.34M454.617,14.979L435.482,12.286L414.22,11.861L374.107,7.467L358.373,5.34M414.22,11.861L412.944,-1.747L404.298,-10.393L383.178,-15.212M414.22,11.861L412.944,-1.747L411.385,-3.306M454.617,5.907L470.634,5.624L482.824,5.34L482.966,14.837M454.617,5.907L470.634,5.624L482.824,5.34L483.391,38.083L476.021,45.879L476.304,83.3L476.446,87.552L483.249,90.245L483.391,92.088M582.329,14.837L582.47,14.696L583.037,12.995L583.463,11.152L583.746,8.459L584.171,-7.7L583.888,-11.385L583.037,-20.74L582.47,-28.395L582.612,-30.521L582.612,-33.923L582.47,-34.773L582.329,-35.198L582.045,-35.765L581.762,-36.191L581.336,-36.474L580.769,-36.616L580.202,-36.616L579.777,-36.474L579.352,-36.049L579.068,-35.624L579.068,-35.198L578.927,-34.773L579.068,-34.206L580.202,-32.222L581.336,-30.096L582.47,-28.395M575.1,81.882L572.973,75.362L572.548,64.022L573.682,44.604L578.501,21.924L582.47,14.696L583.037,12.995L583.463,11.152L583.746,8.459L584.03,-3.306M147.316,99.742L157.238,100.592L208.124,106.546L242.143,110.515L262.837,112.782L281.122,114.767M116.558,330.643L123.503,268.701L125.629,241.77L126.905,233.69L127.472,230.713L127.897,227.595L130.307,208.743L132.575,189.608L133,186.489M133,186.489L133.283,183.796L135.693,163.952L137.677,145.667L137.961,142.549L138.386,139.714L141.788,107.538L143.205,103.002L147.316,99.742M232.079,198.396L232.362,195.419L236.615,157.29L236.898,154.455L242.143,110.515L245.828,75.079M217.621,330.501L221.448,281.741L226.409,244.888L226.834,242.195L227.118,239.36L231.654,201.231L232.079,198.396M216.912,152.046L214.219,175.15L212.093,193.01L211.668,195.703M282.823,204.349L281.406,204.066L271.2,202.932M224.992,285.71L221.448,281.741L219.18,281.316L202.454,278.906L123.503,268.701M271.2,202.932L269.216,202.648L251.923,200.664L234.772,198.679L232.079,198.396L228.961,197.971L211.668,195.703L179.775,192.017L133,186.489L130.307,186.206L83.106,181.103L22.723,173.874L-39.219,166.503M206.99,85.142L141.788,78.197M304.51,424.478L272.901,425.045L267.798,423.485M453.058,425.045L450.507,425.045L422.441,424.052L391.541,423.769L360.783,423.769L322.228,424.194L316.7,424.194L286.367,424.761M304.51,251.692L291.186,249.991L290.052,249.849L277.721,248.573L276.445,248.432L265.956,247.439M574.674,267.85L517.552,268.984L456.602,269.551L408.834,264.165L388.99,261.755L368.72,259.204L348.593,256.936L331.3,255.093L328.465,254.668L325.347,254.385L308.337,252.117L291.186,249.991L290.052,249.849L286.367,249.424M304.51,391.168L299.549,391.026L272.193,390.459M453.908,391.735L442.711,391.735L428.82,391.593L422.016,391.593L391.258,391.451L316.7,391.451L299.549,391.026L286.367,390.743M267.798,423.485L269.216,407.043L272.193,390.459L275.594,360.409L279.421,330.218L290.052,249.849L290.336,246.872L291.895,232.273L294.446,209.735L294.872,205.908M304.51,162.535L299.691,161.968L287.926,160.692L286.509,160.55L283.107,160.125L276.445,159.274M640.16,198.679L635.483,195.419L630.805,190.458L625.561,184.93L621.308,181.67L616.772,179.26L611.386,177.276L606.709,176.284L601.464,175.859L595.369,176.709L588.565,178.977L582.329,180.253L575.525,180.394L517.552,179.969L456.176,180.536L419.323,176L416.063,175.575L399.479,173.874L381.902,171.464L378.926,171.039L359.082,169.055L341.647,166.787L338.529,166.362L335.694,166.078L318.685,164.236L299.691,161.968L287.926,160.692L286.509,160.55L286.367,160.55M294.872,205.908L295.155,202.932L296.289,192.584L299.407,164.803L299.691,161.968L304.51,119.303M294.872,205.908L295.155,202.932L296.289,192.584L299.407,164.803L299.691,161.968L304.652,118.027L308.054,85.568M115.707,367.78L115.14,385.64L115.707,386.207L116.699,386.774L119.818,386.915L130.165,386.915L176.232,386.774L178.358,387.199L179.917,388.475L180.768,390.034L181.193,391.877L181.193,400.806L180.909,404.917L180.626,405.626L180.059,406.618L179.067,407.327L177.366,408.177L175.665,408.602L150.009,408.319L135.41,408.461L134.276,408.319L133.142,407.894L131.866,407.043L131.157,406.193L130.732,405.342L130.448,404.208L130.165,402.507L130.023,399.814L130.023,396.554L130.165,386.915M208.833,218.24L130.307,208.743M115.707,367.78L115.849,361.26L116.274,340.565L116.558,330.643M20.03,324.265L22.014,247.156L22.581,220.933L22.723,218.098L22.723,173.874M304.51,360.551L299.407,360.551L278.288,360.409L275.594,360.409M454.475,360.409L452.066,360.409L434.206,360.551L422.441,360.551L391.116,360.976L374.674,360.835L359.932,360.835L347.742,360.693L316.558,360.693L299.407,360.551L286.367,360.409M265.956,247.439L226.834,242.195L223.716,241.911L206.565,240.069L127.472,230.713L125.204,230.43L57.167,222.209L37.323,219.799L22.723,218.098L20.03,217.815L-7.469,214.555L-24.62,212.712L-39.928,211.72M207.274,14.837L208.833,-169.147M208.124,106.546L206.99,85.142L206.849,59.912L207.416,-3.306M276.445,159.274L257.026,156.865L239.875,154.88L236.898,154.455L234.063,154.172L216.912,152.046L184.878,148.077L150.151,144.108L137.961,142.549L135.41,142.265L-39.077,122.138M196.359,331.21L202.454,278.906L206.282,243.045L206.565,240.069L206.849,236.95L208.833,218.24L211.384,198.963L211.668,195.703M179.775,192.017L180.059,189.324L181.902,171.464L184.453,151.195L184.878,148.077M157.238,100.592L153.411,126.673L153.411,129.792L152.277,135.745L150.86,141.131L150.151,144.108M55.182,330.785L55.324,272.103M304.51,207.184L298.557,206.334L296.573,206.05L294.872,205.908L292.887,205.625L282.823,204.349M639.026,221.5L636.9,222.351L575.1,223.201L517.693,224.193L456.035,225.185L429.103,221.925L427.402,221.642L416.63,220.366L410.96,219.799L393.667,217.957L374.248,215.547L353.412,213.137L336.403,211.153L333.568,210.728L330.591,210.444L313.582,208.318L298.557,206.334L296.573,206.05L294.872,205.908L292.887,205.625L286.367,204.774M40.866,266.716L41.008,254.668L41.008,250.416L40.583,249.424L39.307,248.29L37.039,247.723L25.558,247.298L22.014,247.156M106.494,361.543L115.849,361.26L132.575,361.543M22.723,195.986L20.597,195.561L17.478,194.994L-20.509,191.025L-39.503,188.616M214.219,175.15L181.902,171.464L159.223,168.346L148.308,165.228L135.693,163.952L132.858,163.81L119.818,162.818L113.864,162.393L100.257,160.408L89.768,159.274L87.925,159.558L86.508,160.125L85.374,161.117L84.665,162.251L84.24,163.81L83.389,177.985L83.106,181.103M265.672,88.544L262.837,112.782L257.026,156.865L256.742,159.7L252.207,197.829L251.923,200.664L251.64,203.64L247.387,240.21M258.443,14.837L265.814,5.624L270.633,-6.283L277.862,-11.385L296.006,-10.677M257.876,15.546L265.814,5.624L269.358,-3.306M116.274,340.565L121.377,340.565L124.495,338.156L126.621,336.455L137.536,336.313L140.087,336.313M137.536,336.313L136.969,363.102M124.495,338.156L125.913,340.423L125.913,351.621M100.54,330.785L100.54,335.179L98.698,338.439L97.564,340.423L98.131,353.747M98.698,338.439L116.274,340.565M282.682,165.795L282.823,162.96L283.107,160.125M74.46,264.59L69.64,264.59L69.64,268.843L69.499,270.685L68.081,271.961L66.097,272.245L59.576,272.103L55.324,272.103L45.969,271.961L40.866,266.716L38.598,264.307M57.167,222.209L55.749,224.76L54.757,226.603L52.347,227.737L49.938,227.879L46.252,227.595L44.126,227.312L42,226.461L39.165,224.193L38.173,222.634L37.464,221.5L37.323,219.799M475.737,454.102L485.801,466.292L486.51,469.127L486.651,471.537L486.226,474.372L485.943,476.781L485.234,479.474L485.659,482.167L486.51,484.152L487.785,485.995L489.486,487.412L491.329,488.262L494.022,488.688L550.72,487.412L553.413,485.711L556.815,482.309L556.815,478.907L557.382,445.314M453.625,14.837L435.482,12.286L414.22,11.861L374.107,7.467L358.373,5.34M454.617,14.979L435.482,12.286L414.22,11.861L374.107,7.467L358.373,5.34M457.027,329.226L457.027,326.532L456.885,309.665L456.743,298.609L456.885,290.246L456.602,269.551L456.602,266.716L456.318,247.014L456.035,228.02L456.035,225.185M517.977,135.036L456.035,136.312L424.142,132.485L404.44,130.075L387.005,127.949L384.454,127.666L381.194,127.24L364.043,125.256L343.915,122.705L323.22,120.295L304.652,118.027M575.95,134.044L593.526,134.753L615.497,110.798M299.549,391.026L299.407,360.551L299.407,330.36L308.337,252.117M509.189,428.021L510.606,425.612L510.748,411.295L511.457,406.618L511.74,405.484L511.882,404.633L512.59,402.082L514.575,397.263L515.851,393.294L516.276,390.317L516.276,387.199L515.567,383.372L514.008,378.836L513.016,376.001L512.874,375.434L512.307,372.174L511.882,369.056L512.165,362.252L513.157,332.344L513.157,329.084M414.22,11.861L412.944,-1.747L404.298,-10.393L383.178,-15.212M414.22,11.861L412.944,-1.747L411.385,-3.306M456.035,225.185L456.035,203.073L456.176,180.536L456.176,157.857L456.035,136.312L455.893,113.775L455.751,92.655L454.617,14.979M413.795,220.083L414.22,217.106L415.921,205.058L418.898,179.119L419.323,176L419.606,173.165L424.142,132.627L424.142,132.485L429.528,89.536M304.51,360.551L299.407,360.551L278.288,360.409L275.594,360.409M454.475,360.409L452.066,360.409L434.206,360.551L422.441,360.551L391.116,360.976L374.674,360.835L359.932,360.835L347.742,360.693L316.558,360.693L299.407,360.551L286.367,360.409M328.89,82.024L323.22,120.295L318.685,164.236L318.401,167.212L313.865,205.483L313.582,208.318M393.667,217.957L394.092,214.838L399.195,176.709L399.479,173.874L399.904,170.756L404.44,130.075L409.826,86.985M360.783,456.228L360.499,446.873M517.693,329.084L517.693,325.966L517.552,308.389L517.552,268.984L517.693,246.731L517.693,224.193M574.816,289.537L517.552,290.529L456.885,290.246M454.617,14.837L454.617,5.907L454.475,-15.212L454.05,-169.288L452.774,-190.55L451.782,-479.85L454.05,-583.89M454.617,14.979L454.617,5.907L454.617,-3.306M453.058,430.147L453.908,430.147L503.802,429.58L506.921,429.297L509.189,428.021M421.874,457.221L422.441,424.052L422.016,391.593L422.158,374.867L422.441,360.551L422.158,332.486L422.016,329.509M517.693,224.193L517.693,201.939L517.552,179.969L517.977,157.715L517.977,135.036L517.835,112.782L517.41,97.191L516.985,95.348L515.992,94.072L514.575,92.938M360.499,446.873L360.783,423.769L360.216,391.451L359.932,360.835L360.216,332.911L360.216,329.934L360.641,327.099L368.72,259.204L374.248,215.547M630.947,253.96L629.813,255.235L626.836,255.944L575.808,256.936L574.816,256.936M575.95,134.044L575.1,81.882M304.51,207.184L298.557,206.334L296.573,206.05L294.872,205.908L292.887,205.625L282.823,204.349M639.026,221.5L636.9,222.351L575.1,223.201L517.693,224.193L456.035,225.185L429.103,221.925L427.402,221.642L416.63,220.366L410.96,219.799L393.667,217.957L374.248,215.547L353.412,213.137L336.403,211.153L333.568,210.728L330.591,210.444L313.582,208.318L298.557,206.334L296.573,206.05L294.872,205.908L292.887,205.625L286.367,204.774M374.248,215.547L378.501,174.299L378.926,171.039L379.209,168.346L384.454,127.666L384.737,125.114L389.131,85.284M304.51,424.478L272.901,425.045L267.798,423.485M453.058,425.045L450.507,425.045L422.441,424.052L391.541,423.769L360.783,423.769L322.228,424.194L316.7,424.194L286.367,424.761M304.51,251.692L291.186,249.991L290.052,249.849L277.721,248.573L276.445,248.432L265.956,247.439M574.674,267.85L517.552,268.984L456.602,269.551L408.834,264.165L388.99,261.755L368.72,259.204L348.593,256.936L331.3,255.093L328.465,254.668L325.347,254.385L308.337,252.117L291.186,249.991L290.052,249.849L286.367,249.424M514.575,92.938L513.016,92.088L511.598,91.804L509.614,91.521L483.391,92.088L455.751,92.655L429.528,89.536L421.024,88.261L409.826,86.985L394.659,85.709L389.131,85.284L382.611,84.15L376.941,84.008L372.122,84.717L366.736,85.993L361.491,86.56L356.672,86.56L348.167,86.135M575.1,81.882L575.241,80.607L575.525,79.614L576.375,77.913L577.226,77.205L578.501,76.496L579.777,76.071L581.903,75.504L584.313,75.362L595.086,75.362L602.74,75.787L608.268,75.787L695.015,75.504M390.549,456.795L390.691,450.133L391.541,423.769L391.258,391.451L391.116,360.976L391.116,329.651M401.321,329.509L405.432,293.79L406.708,282.875L408.834,264.165L411.669,242.337L413.511,223.059L413.795,220.083M374.107,7.467L383.178,-15.212L383.178,-28.536L386.297,-40.301L386.297,-61.563M374.107,7.467L378.359,-3.306M357.239,14.837L358.373,5.34L371.413,-63.831L378.359,-168.721M333.568,210.728L333.993,207.609L338.245,169.48L338.529,166.362L338.954,163.669L343.915,122.705L343.915,122.421L348.167,86.135L358.373,5.34L360.074,-3.306M320.527,456.087L320.102,424.194L320.386,391.451L319.393,363.386L319.252,360.693L319.393,332.769L319.393,330.076L319.677,327.241L328.04,257.503L328.465,254.668L328.748,251.408L333.284,213.562L333.568,210.728M304.51,391.168L299.549,391.026L272.193,390.459M453.908,391.735L442.711,391.735L428.82,391.593L422.016,391.593L391.258,391.451L316.7,391.451L299.549,391.026L286.367,390.743M451.357,488.971L451.924,457.504L452.491,450.559L453.058,430.147L453.058,425.045L453.908,391.735L454.192,374.584L454.334,371.465L454.475,360.409L454.475,359.842L454.759,350.912L455.326,332.202L455.468,329.226M304.51,162.535L299.691,161.968L287.926,160.692L286.509,160.55L283.107,160.125L276.445,159.274M640.16,198.679L635.483,195.419L630.805,190.458L625.561,184.93L621.308,181.67L616.772,179.26L611.386,177.276L606.709,176.284L601.464,175.859L595.369,176.709L588.565,178.977L582.329,180.253L575.525,180.394L517.552,179.969L456.176,180.536L419.323,176L416.063,175.575L399.479,173.874L381.902,171.464L378.926,171.039L359.082,169.055L341.647,166.787L338.529,166.362L335.694,166.078L318.685,164.236L299.691,161.968L287.926,160.692L286.509,160.55L286.367,160.55M435.482,12.286L436.332,-27.686L435.623,-52.775L431.655,-57.169L386.297,-61.563L371.413,-63.831M435.482,12.286L435.765,-3.306M294.872,205.908L295.155,202.932L296.289,192.584L299.407,164.803L299.691,161.968L304.51,119.303M294.872,205.908L295.155,202.932L296.289,192.584L299.407,164.803L299.691,161.968L304.652,118.027L308.054,85.568M575.1,328.517L575.1,303.57L574.816,289.537L574.674,267.85L574.816,256.936L574.958,246.731L575.1,223.201M575.1,223.201L575.383,201.231L575.525,180.394L575.95,134.044M451.924,457.504L468.083,457.504L472.193,456.37L475.737,454.102L480.698,449.425L484.525,447.44L488.069,446.164L494.872,444.889L498.983,445.031L504.795,446.023L557.382,445.314L573.824,445.172M456.743,298.609L428.253,295.632L405.432,293.79M611.953,271.111L612.095,277.631L611.811,298.042L610.536,300.31L608.268,301.16L605.716,301.727L575.1,303.57M511.74,405.484L518.969,407.043M518.544,409.028L530.45,411.721L531.442,407.61L519.394,404.917L518.969,407.043L518.544,409.028M513.016,376.001L515.425,375.151L517.268,374.725L518.685,372.316L519.536,369.764L519.536,368.205L519.111,366.788L518.119,364.378L515.709,362.961L514.717,362.819L512.165,362.252M519.536,368.914L534.419,369.056M517.268,374.725L534.419,374.725L534.419,363.102L515.709,362.961M313.582,208.318L313.157,211.578L308.763,248.998L308.337,252.117M456.176,157.857L510.039,157.715L517.977,157.715M455.893,113.775L504.511,113.349L517.835,112.782M374.674,360.835L374.957,391.451M339.663,360.693L339.804,332.911L339.946,330.076L340.23,327.241L348.167,259.771L348.593,256.936L348.876,253.96L353.128,215.83L353.412,213.137L353.837,210.019L358.798,171.89L359.082,169.055L359.507,165.936L363.901,125.681L364.043,125.256L367.445,92.23L367.303,88.686L366.736,85.993M454.334,371.465L460.429,371.465L476.021,371.607L476.162,367.071L476.304,366.221L476.304,365.229L476.446,360.409L460.712,360.126L454.475,359.842M421.024,88.261L422.158,78.764L425.843,48.431L427.544,34.256M442.852,389.183L442.711,391.735M428.82,391.593L428.82,388.9M454.192,374.584L448.947,374.584M434.206,360.551L433.923,368.205M428.253,360.551L428.395,368.205M393.667,217.957L388.99,261.755L380.627,329.793M460.57,365.654L476.304,366.221M460.429,371.465L460.57,365.654L460.712,360.126M456.035,203.073L517.693,201.939L575.383,201.231M574.958,246.731L514.575,246.731L458.728,247.298L456.318,247.014L414.078,242.62L411.669,242.337M456.885,309.665L517.552,308.389M394.659,85.709L395.793,70.543L396.36,66.574L398.345,62.18L400.329,59.345L401.321,57.786L402.172,55.376L402.597,51.549L403.022,44.604L403.731,41.769L405.574,39.359M586.864,327.808L586.864,337.447L587.573,339.006L588.424,340.423L590.125,341.416M590.125,341.416L594.235,341.416M586.864,335.037L596.928,335.179L598.629,335.604L599.905,337.163L600.188,339.856M594.235,341.416L597.353,340.423L600.188,339.856L605.291,339.856M582.329,14.837L582.47,14.696L583.037,12.995L583.463,11.152L583.746,8.459L584.171,-7.7L583.888,-11.385L583.037,-20.74L582.47,-28.395L582.612,-30.521L582.612,-33.923L582.47,-34.773L582.329,-35.198L582.045,-35.765L581.762,-36.191L581.336,-36.474L580.769,-36.616L580.202,-36.616L579.777,-36.474L579.352,-36.049L579.068,-35.624L579.068,-35.198L578.927,-34.773L579.068,-34.206L580.202,-32.222L581.336,-30.096L582.47,-28.395M575.1,81.882L572.973,75.362L572.548,64.022L573.682,44.604L578.501,21.924L582.47,14.696L583.037,12.995L583.463,11.152L583.746,8.459L584.03,-3.306M454.617,5.907L470.634,5.624L482.824,5.34L482.966,14.837M454.617,5.907L470.634,5.624L482.824,5.34L483.391,38.083L476.021,45.879L476.304,83.3L476.446,87.552L483.249,90.245L483.391,92.088M560.358,341.416L560.5,346.518L573.399,346.66L573.399,331.777L572.832,328.517M560.358,328.659L560.5,331.919L560.358,341.416" stroke="rgb(231,231,231)" id="road_minor" transform="translate(0.5, 0)" style="fill: none; stroke-width: 2.54809; stroke-linejoin: round; stroke-linecap: round; stroke: rgb(231, 231, 231);"/><path d="M20.03,324.265L8.549,318.737L0.186,313.492L-7.043,307.964L-14.697,300.452L-21.218,292.939L-26.887,284.718L-30.573,277.489L-35.676,265.724L-37.943,258.495M20.03,324.265L37.606,329.793L55.182,330.785L100.54,330.785L116.558,330.643L196.359,331.21L217.621,330.501L256.034,330.501L267.798,330.36M304.51,330.218L299.407,330.36L279.421,330.218L267.798,330.36M605.149,327.383L586.864,327.808L583.746,327.808L575.1,328.517L572.832,328.517L560.358,328.659L517.693,329.084L513.157,329.084L457.027,329.226L452.774,329.226L422.016,329.509L401.321,329.509L391.116,329.651L380.627,329.793L362.767,329.934L357.239,329.934L339.946,330.076L316.558,330.076L299.407,330.36L286.367,330.218M20.03,324.265L15.494,329.509L10.958,331.494L-40.211,331.919L-256.796,330.076L-294.217,329.934M304.51,330.218L299.407,330.36L279.421,330.218L267.798,330.36M605.149,327.383L586.864,327.808L583.746,327.808L575.1,328.517L572.832,328.517L560.358,328.659L517.693,329.084L513.157,329.084L457.027,329.226L452.774,329.226L422.016,329.509L401.321,329.509L391.116,329.651L380.627,329.793L362.767,329.934L357.239,329.934L339.946,330.076L316.558,330.076L299.407,330.36L286.367,330.218" stroke="rgb(231,231,231)" id="road_secondary_tertiary" transform="translate(0.5, 0)" style="fill: none; stroke-width: 3.10068; stroke-linejoin: round; stroke-linecap: round; stroke: rgb(231, 231, 231);"/><path d="M293.029,14.837L296.006,-10.677L304.51,-84.384M293.029,14.837L296.006,-10.677L314.291,-169.288M271.2,202.932L271.626,199.955L276.02,162.109L276.445,159.274L281.122,114.767L286.934,68.275L295.155,-3.306M293.029,14.837L296.006,-10.677L304.51,-84.384M293.029,14.837L296.006,-10.677L314.291,-169.288M271.2,202.932L271.626,199.955L276.02,162.109L276.445,159.274L281.122,114.767L286.934,68.275L295.155,-3.306M242.001,449.992L251.214,377.277L253.057,359.984L256.034,330.501L270.917,205.908L271.2,202.932M293.029,14.837L296.006,-10.677L304.51,-84.384M293.029,14.837L296.006,-10.677L314.291,-169.288M271.2,202.932L271.626,199.955L276.02,162.109L276.445,159.274L281.122,114.767L286.934,68.275L295.155,-3.306" stroke="rgb(231,231,231)" id="road_primary" transform="translate(0.5, 0)" style="fill: none; stroke-width: 4.43436; stroke-linejoin: round; stroke-linecap: round; stroke: rgb(231, 231, 231);"/><path d="M20.03,324.265L8.549,318.737L0.186,313.492L-7.043,307.964L-14.697,300.452L-21.218,292.939L-26.887,284.718L-30.573,277.489L-35.676,265.724L-37.943,258.495M20.03,324.265L37.606,329.793L55.182,330.785L100.54,330.785L116.558,330.643L196.359,331.21L217.621,330.501L256.034,330.501L267.798,330.36M304.51,330.218L299.407,330.36L279.421,330.218L267.798,330.36M605.149,327.383L586.864,327.808L583.746,327.808L575.1,328.517L572.832,328.517L560.358,328.659L517.693,329.084L513.157,329.084L457.027,329.226L452.774,329.226L422.016,329.509L401.321,329.509L391.116,329.651L380.627,329.793L362.767,329.934L357.239,329.934L339.946,330.076L316.558,330.076L299.407,330.36L286.367,330.218M304.51,330.218L299.407,330.36L279.421,330.218L267.798,330.36M605.149,327.383L586.864,327.808L583.746,327.808L575.1,328.517L572.832,328.517L560.358,328.659L517.693,329.084L513.157,329.084L457.027,329.226L452.774,329.226L422.016,329.509L401.321,329.509L391.116,329.651L380.627,329.793L362.767,329.934L357.239,329.934L339.946,330.076L316.558,330.076L299.407,330.36L286.367,330.218" stroke="rgb(231,231,231)" id="road_trunk" transform="translate(0.5, 0)" style="fill: none; stroke-width: 4.43436; stroke-linejoin: round; stroke-linecap: round; stroke: rgb(231, 231, 231);"/><path d="M302.242,14.837L302.668,11.294L305.928,-4.865M292.462,110.089L292.745,98.75L292.887,95.064L302.668,11.294L304.51,2.222M292.462,110.089L292.745,98.75L292.887,95.064L302.668,11.294L305.644,-3.306M300.825,14.837L301.25,10.868L306.211,-22.158M292.745,98.75L292.887,81.882L301.25,10.868L303.376,-3.306M292.745,98.75L292.887,81.882L301.25,10.868L303.376,-3.306M305.077,14.837L325.488,-159.933M238.174,595.421L256.034,445.598L267.798,330.36L277.721,248.573L278.146,245.313L282.823,204.349L283.107,201.372L287.643,163.527L287.926,160.692L291.045,134.753L304.51,19.515M286.367,174.158L287.643,163.527L287.926,160.692L291.045,134.753L307.203,-3.306M325.488,-159.933L322.228,-143.633L305.928,-4.865L303.66,14.837M304.51,7.183L292.462,110.089L291.895,115.05M305.786,-3.306L292.462,110.089L291.895,115.05M302.242,14.837L302.668,11.294L305.928,-4.865M292.462,110.089L292.745,98.75L292.887,95.064L302.668,11.294L304.51,2.222M292.462,110.089L292.745,98.75L292.887,95.064L302.668,11.294L305.644,-3.306M305.077,14.837L325.488,-159.933M238.174,595.421L256.034,445.598L267.798,330.36L277.721,248.573L278.146,245.313L282.823,204.349L283.107,201.372L287.643,163.527L287.926,160.692L291.045,134.753L304.51,19.515M286.367,174.158L287.643,163.527L287.926,160.692L291.045,134.753L307.203,-3.306M325.488,-159.933L322.228,-143.633L305.928,-4.865L303.66,14.837M304.51,7.183L292.462,110.089L291.895,115.05M305.786,-3.306L292.462,110.089L291.895,115.05M291.045,134.753L291.895,115.05M291.895,115.05L286.509,160.55L286.225,163.385L281.831,201.231L281.406,204.066L276.728,245.171L276.445,248.432L267.232,324.123M300.825,14.837L301.25,10.868L306.211,-22.158M292.745,98.75L292.887,81.882L301.25,10.868L303.376,-3.306M292.745,98.75L292.887,81.882L301.25,10.868L303.376,-3.306M305.077,14.837L325.488,-159.933M238.174,595.421L256.034,445.598L267.798,330.36L277.721,248.573L278.146,245.313L282.823,204.349L283.107,201.372L287.643,163.527L287.926,160.692L291.045,134.753L304.51,19.515M286.367,174.158L287.643,163.527L287.926,160.692L291.045,134.753L307.203,-3.306M300.825,14.837L301.25,10.868L306.211,-22.158M292.745,98.75L292.887,81.882L301.25,10.868L303.376,-3.306M292.745,98.75L292.887,81.882L301.25,10.868L303.376,-3.306M325.488,-159.933L322.228,-143.633L305.928,-4.865L303.66,14.837M304.51,7.183L292.462,110.089L291.895,115.05M305.786,-3.306L292.462,110.089L291.895,115.05M302.242,14.837L302.668,11.294L305.928,-4.865M292.462,110.089L292.745,98.75L292.887,95.064L302.668,11.294L304.51,2.222M292.462,110.089L292.745,98.75L292.887,95.064L302.668,11.294L305.644,-3.306" stroke="rgb(157,157,157)" id="railway" transform="translate(0.5, 0)" style="fill: none; stroke-width: 1; stroke-opacity: 0.636272; stroke-linejoin: miter; stroke-linecap: butt; stroke: rgb(157, 157, 157);"/><g id="S-svg CHESTNUT-svg ST.-svg"><text transform="rotate(-83.42686007705291, 256.5172119140625, 326.45574951171875) translate(256.5172119140625, 320.95574951171875)" style="text-anchor: middle;"><tspan x="0" y="10" style="font-family: Roboto; font-weight: 400; font-stretch: 100%; font-size: 10px; stroke: rgb(255, 255, 255); stroke-width: 2; stroke-linejoin: round; stroke-linecap: round;">S CHESTNUT ST.</tspan></text><text transform="rotate(-83.42686007705291, 256.51721, 326.45575) translate(256.5172119140625, 320.95574951171875)" style="text-anchor: middle;"><tspan fill="rgb(136, 136, 136)" x="0" y="10" style="font-family: Roboto; font-weight: 400; font-stretch: 100%; font-size: 10px;">S CHESTNUT ST.</tspan></text></g><g id="N-svg CHESTNUT-svg ST.-svg"><text transform="rotate(-82.87434289488856, 283.5598449707031, 95.26583862304688) translate(283.5598449707031, 89.76583862304688)" style="text-anchor: middle;"><tspan x="0" y="10" style="font-family: Roboto; font-weight: 400; font-stretch: 100%; font-size: 10px; stroke: rgb(255, 255, 255); stroke-width: 2; stroke-linejoin: round; stroke-linecap: round;">N CHESTNUT ST.</tspan></text><text transform="rotate(-82.87434289488856, 283.55984, 95.26584) translate(283.5598449707031, 89.76583862304688)" style="text-anchor: middle;"><tspan fill="rgb(136, 136, 136)" x="0" y="10" style="font-family: Roboto; font-weight: 400; font-stretch: 100%; font-size: 10px;">N CHESTNUT ST.</tspan></text></g><g id="W-svg SPRINGFIELD-svg RD.-svg"><text transform="rotate(0.40713779610083817, 143.48194885253906, 330.83428955078125) translate(143.48194885253906, 325.33428955078125)" style="text-anchor: middle;"><tspan x="0" y="10" style="font-family: Roboto; font-weight: 400; font-stretch: 100%; font-size: 10px; stroke: rgb(255, 255, 255); stroke-width: 2; stroke-linejoin: round; stroke-linecap: round;">W SPRINGFIELD RD.</tspan></text><text transform="rotate(0.40713779610083817, 143.48195, 330.83429) translate(143.48194885253906, 325.33428955078125)" style="text-anchor: middle;"><tspan fill="rgb(136, 136, 136)" x="0" y="10" style="font-family: Roboto; font-weight: 400; font-stretch: 100%; font-size: 10px;">W SPRINGFIELD RD.</tspan></text></g><g id="W-svg WASHINGTON-svg ST.-svg"><text transform="rotate(6.889729588583605, 113.07857513427734, 228.96485900878906) translate(113.07857513427734, 223.46485900878906)" style="text-anchor: middle;"><tspan x="0" y="10" style="font-family: Roboto; font-weight: 400; font-stretch: 100%; font-size: 10px; stroke: rgb(255, 255, 255); stroke-width: 2; stroke-linejoin: round; stroke-linecap: round;">W WASHINGTON ST.</tspan></text><text transform="rotate(6.889729588583605, 113.07858, 228.96486) translate(113.07857513427734, 223.46485900878906)" style="text-anchor: middle;"><tspan fill="rgb(136, 136, 136)" x="0" y="10" style="font-family: Roboto; font-weight: 400; font-stretch: 100%; font-size: 10px;">W WASHINGTON ST.</tspan></text></g><g id="W-svg MADISON-svg ST.-svg"><text transform="rotate(6.656037300512639, 214.2169189453125, 107.2568588256836) translate(214.2169189453125, 101.7568588256836)" style="text-anchor: middle;"><tspan x="0" y="10" style="font-family: Roboto; font-weight: 400; font-stretch: 100%; font-size: 10px; stroke: rgb(255, 255, 255); stroke-width: 2; stroke-linejoin: round; stroke-linecap: round;">W MADISON ST.</tspan></text><text transform="rotate(6.656037300512639, 214.21692, 107.25686) translate(214.2169189453125, 101.7568588256836)" style="text-anchor: middle;"><tspan fill="rgb(136, 136, 136)" x="0" y="10" style="font-family: Roboto; font-weight: 400; font-stretch: 100%; font-size: 10px;">W MADISON ST.</tspan></text></g><g id="S-svg DIAMOND-svg ST.-svg"><text transform="rotate(-88.61122398857233, 21.96457862854004, 249.0767822265625) translate(21.96457862854004, 243.5767822265625)" style="text-anchor: middle;"><tspan x="0" y="10" style="font-family: Roboto; font-weight: 400; font-stretch: 100%; font-size: 10px; stroke: rgb(255, 255, 255); stroke-width: 2; stroke-linejoin: round; stroke-linecap: round;">S DIAMOND ST.</tspan></text><text transform="rotate(-88.61122398857233, 21.96458, 249.07678) translate(21.96457862854004, 243.5767822265625)" style="text-anchor: middle;"><tspan fill="rgb(136, 136, 136)" x="0" y="10" style="font-family: Roboto; font-weight: 400; font-stretch: 100%; font-size: 10px;">S DIAMOND ST.</tspan></text></g><g id="W-svg MAIN-svg ST.-svg"><text transform="rotate(6.170398893620698, 115.99851989746094, 184.65907287597656) translate(115.99851989746094, 179.15907287597656)" style="text-anchor: middle;"><tspan x="0" y="10" style="font-family: Roboto; font-weight: 400; font-stretch: 100%; font-size: 10px; stroke: rgb(255, 255, 255); stroke-width: 2; stroke-linejoin: round; stroke-linecap: round;">W MAIN ST.</tspan></text><text transform="rotate(6.170398893620698, 115.99852, 184.65907) translate(115.99851989746094, 179.15907287597656)" style="text-anchor: middle;"><tspan fill="rgb(136, 136, 136)" x="0" y="10" style="font-family: Roboto; font-weight: 400; font-stretch: 100%; font-size: 10px;">W MAIN ST.</tspan></text></g><g id="W-svg JEFFERSON-svg ST.-svg"><text transform="rotate(6.579973149691764, 118.72862243652344, 140.34080505371094) translate(118.72862243652344, 134.84080505371094)" style="text-anchor: middle;"><tspan x="0" y="10" style="font-family: Roboto; font-weight: 400; font-stretch: 100%; font-size: 10px; stroke: rgb(255, 255, 255); stroke-width: 2; stroke-linejoin: round; stroke-linecap: round;">W JEFFERSON ST.</tspan></text><text transform="rotate(6.579973149691764, 118.72862, 140.34081) translate(118.72862243652344, 134.84080505371094)" style="text-anchor: middle;"><tspan fill="rgb(136, 136, 136)" x="0" y="10" style="font-family: Roboto; font-weight: 400; font-stretch: 100%; font-size: 10px;">W JEFFERSON ST.</tspan></text></g><g id="S-svg OAK-svg ST.-svg"><text transform="rotate(-82.46496864311104, 281.4698181152344, 314.7291259765625) translate(281.4698181152344, 309.2291259765625)" style="text-anchor: middle;"><tspan x="0" y="10" style="font-family: Roboto; font-weight: 400; font-stretch: 100%; font-size: 10px; stroke: rgb(255, 255, 255); stroke-width: 2; stroke-linejoin: round; stroke-linecap: round;">S OAK ST.</tspan></text><text transform="rotate(-82.46496864311104, 281.46982, 314.72913) translate(281.4698181152344, 309.2291259765625)" style="text-anchor: middle;"><tspan fill="rgb(136, 136, 136)" x="0" y="10" style="font-family: Roboto; font-weight: 400; font-stretch: 100%; font-size: 10px;">S OAK ST.</tspan></text></g><g id="LINCOLN-svg AVENUE-svg"><text transform="rotate(7.365010506178197, 175.1409149169922, 275.3755798339844) translate(175.1409149169922, 269.8755798339844)" style="text-anchor: middle;"><tspan x="0" y="10" style="font-family: Roboto; font-weight: 400; font-stretch: 100%; font-size: 10px; stroke: rgb(255, 255, 255); stroke-width: 2; stroke-linejoin: round; stroke-linecap: round;">LINCOLN AVENUE</tspan></text><text transform="rotate(7.365010506178197, 175.14091, 275.37558) translate(175.1409149169922, 269.8755798339844)" style="text-anchor: middle;"><tspan fill="rgb(136, 136, 136)" x="0" y="10" style="font-family: Roboto; font-weight: 400; font-stretch: 100%; font-size: 10px;">LINCOLN AVENUE</tspan></text></g><g id="N-svg PINE-svg ST.-svg"><text transform="rotate(-82.65324529462559, 381.5231628417969, 150.39761352539062) translate(381.5231628417969, 144.89761352539062)" style="text-anchor: middle;"><tspan x="0" y="10" style="font-family: Roboto; font-weight: 400; font-stretch: 100%; font-size: 10px; stroke: rgb(255, 255, 255); stroke-width: 2; stroke-linejoin: round; stroke-linecap: round;">N PINE ST.</tspan></text><text transform="rotate(-82.65324529462559, 381.52316, 150.39761) translate(381.5231628417969, 144.89761352539062)" style="text-anchor: middle;"><tspan fill="rgb(136, 136, 136)" x="0" y="10" style="font-family: Roboto; font-weight: 400; font-stretch: 100%; font-size: 10px;">N PINE ST.</tspan></text></g><g id="N-svg CHURCH-svg ST.-svg"><text transform="rotate(-83.63768048222238, 401.9399719238281, 152.49635314941406) translate(401.9399719238281, 146.99635314941406)" style="text-anchor: middle;"><tspan x="0" y="10" style="font-family: Roboto; font-weight: 400; font-stretch: 100%; font-size: 10px; stroke: rgb(255, 255, 255); stroke-width: 2; stroke-linejoin: round; stroke-linecap: round;">N CHURCH ST.</tspan></text><text transform="rotate(-83.63768048222238, 401.93997, 152.49635) translate(401.9399719238281, 146.99635314941406)" style="text-anchor: middle;"><tspan fill="rgb(136, 136, 136)" x="0" y="10" style="font-family: Roboto; font-weight: 400; font-stretch: 100%; font-size: 10px;">N CHURCH ST.</tspan></text></g><g id="MADISON-svg STREET-svg"><text transform="rotate(-0.18692065652814177, 633.2869873046875, 75.70538330078125) translate(633.2869873046875, 70.20538330078125)" style="text-anchor: middle;"><tspan x="0" y="10" style="font-family: Roboto; font-weight: 400; font-stretch: 100%; font-size: 10px; stroke: rgb(255, 255, 255); stroke-width: 2; stroke-linejoin: round; stroke-linecap: round;">MADISON STREET</tspan></text><text transform="rotate(-0.18692065652814177, 633.28699, 75.70538) translate(633.2869873046875, 70.20538330078125)" style="text-anchor: middle;"><tspan fill="rgb(136, 136, 136)" x="0" y="10" style="font-family: Roboto; font-weight: 400; font-stretch: 100%; font-size: 10px;">MADISON STREET</tspan></text></g><g id="KELLY-svg MOORE-svg ST.-svg"><text transform="rotate(-104.53523430590751, 514.1182250976562, 379.15679931640625) translate(514.1182250976562, 373.65679931640625)" style="text-anchor: middle;"><tspan x="0" y="10" style="font-family: Roboto; font-weight: 400; font-stretch: 100%; font-size: 10px; stroke: rgb(255, 255, 255); stroke-width: 2; stroke-linejoin: round; stroke-linecap: round;">KELLY MOORE ST.</tspan></text><text transform="rotate(-104.53523430590751, 514.11823, 379.1568) translate(514.1182250976562, 373.65679931640625)" style="text-anchor: middle;"><tspan fill="rgb(136, 136, 136)" x="0" y="10" style="font-family: Roboto; font-weight: 400; font-stretch: 100%; font-size: 10px;">KELLY MOORE ST.</tspan></text></g><g id="E-svg 4TH-svg SOUTH-svg ST.-svg"><text transform="rotate(0.2197609007142813, 511.0830993652344, 445.938232421875) translate(511.0830993652344, 440.438232421875)" style="text-anchor: middle;"><tspan x="0" y="10" style="font-family: Roboto; font-weight: 400; font-stretch: 100%; font-size: 10px; stroke: rgb(255, 255, 255); stroke-width: 2; stroke-linejoin: round; stroke-linecap: round;">E 4TH SOUTH ST.</tspan></text><text transform="rotate(0.2197609007142813, 511.0831, 445.93823) translate(511.0830993652344, 440.438232421875)" style="text-anchor: middle;"><tspan fill="rgb(136, 136, 136)" x="0" y="10" style="font-family: Roboto; font-weight: 400; font-stretch: 100%; font-size: 10px;">E 4TH SOUTH ST.</tspan></text></g><g id="ASH-svg STREET-svg"><text transform="rotate(-90.32220118702195, 422.0391845703125, 393.36456298828125) translate(422.0391845703125, 387.86456298828125)" style="text-anchor: middle;"><tspan x="0" y="10" style="font-family: Roboto; font-weight: 400; font-stretch: 100%; font-size: 10px; stroke: rgb(255, 255, 255); stroke-width: 2; stroke-linejoin: round; stroke-linecap: round;">ASH STREET</tspan></text><text transform="rotate(-90.32220118702195, 422.03918, 393.36456) translate(422.0391845703125, 387.86456298828125)" style="text-anchor: middle;"><tspan fill="rgb(136, 136, 136)" x="0" y="10" style="font-family: Roboto; font-weight: 400; font-stretch: 100%; font-size: 10px;">ASH STREET</tspan></text></g><g id="S-svg ELM-svg ST.-svg"><text transform="rotate(-88.5382536572801, 453.4647521972656, 409.1048278808594) translate(453.4647521972656, 403.6048278808594)" style="text-anchor: middle;"><tspan x="0" y="10" style="font-family: Roboto; font-weight: 400; font-stretch: 100%; font-size: 10px; stroke: rgb(255, 255, 255); stroke-width: 2; stroke-linejoin: round; stroke-linecap: round;">S ELM ST.</tspan></text><text transform="rotate(-88.5382536572801, 453.46475, 409.10483) translate(453.4647521972656, 403.6048278808594)" style="text-anchor: middle;"><tspan fill="rgb(136, 136, 136)" x="0" y="10" style="font-family: Roboto; font-weight: 400; font-stretch: 100%; font-size: 10px;">S ELM ST.</tspan></text></g><g id="N-svg SHELDON-svg ST.-svg"><text transform="rotate(90.57163853067826, 517.9710083007812, 158.02952575683594) translate(517.9710083007812, 152.52952575683594)" style="text-anchor: middle;"><tspan x="0" y="10" style="font-family: Roboto; font-weight: 400; font-stretch: 100%; font-size: 10px; stroke: rgb(255, 255, 255); stroke-width: 2; stroke-linejoin: round; stroke-linecap: round;">N SHELDON ST.</tspan></text><text transform="rotate(90.57163853067826, 517.97101, 158.02953) translate(517.9710083007812, 152.52952575683594)" style="text-anchor: middle;"><tspan fill="rgb(136, 136, 136)" x="0" y="10" style="font-family: Roboto; font-weight: 400; font-stretch: 100%; font-size: 10px;">N SHELDON ST.</tspan></text></g><g id="N-svg JACQUES-svg ST.-svg"><text transform="rotate(-89.52481937790975, 575.541259765625, 178.6227569580078) translate(575.541259765625, 173.1227569580078)" style="text-anchor: middle;"><tspan x="0" y="10" style="font-family: Roboto; font-weight: 400; font-stretch: 100%; font-size: 10px; stroke: rgb(255, 255, 255); stroke-width: 2; stroke-linejoin: round; stroke-linecap: round;">N JACQUES ST.</tspan></text><text transform="rotate(-89.52481937790975, 575.54126, 178.62276) translate(575.541259765625, 173.1227569580078)" style="text-anchor: middle;"><tspan fill="rgb(136, 136, 136)" x="0" y="10" style="font-family: Roboto; font-weight: 400; font-stretch: 100%; font-size: 10px;">N JACQUES ST.</tspan></text></g><g id="N-svg OAK-svg ST.-svg"><text transform="rotate(-83.5586405500199, 301.52264404296875, 145.7445831298828) translate(301.52264404296875, 140.2445831298828)" style="text-anchor: middle;"><tspan x="0" y="10" style="font-family: Roboto; font-weight: 400; font-stretch: 100%; font-size: 10px; stroke: rgb(255, 255, 255); stroke-width: 2; stroke-linejoin: round; stroke-linecap: round;">N OAK ST.</tspan></text><text transform="rotate(-83.5586405500199, 301.52264, 145.74458) translate(301.52264404296875, 140.2445831298828)" style="text-anchor: middle;"><tspan fill="rgb(136, 136, 136)" x="0" y="10" style="font-family: Roboto; font-weight: 400; font-stretch: 100%; font-size: 10px;">N OAK ST.</tspan></text></g><g id="E-svg 3RD-svg ST.-svg SOUTH-svg"><text transform="rotate(-0.13606656028670364, 365.18157958984375, 423.7690124511719) translate(365.18157958984375, 418.2690124511719)" style="text-anchor: middle;"><tspan x="0" y="10" style="font-family: Roboto; font-weight: 400; font-stretch: 100%; font-size: 10px; stroke: rgb(255, 255, 255); stroke-width: 2; stroke-linejoin: round; stroke-linecap: round;">E 3RD ST. SOUTH</tspan></text><text transform="rotate(-0.13606656028670364, 365.18158, 423.76901) translate(365.18157958984375, 418.2690124511719)" style="text-anchor: middle;"><tspan fill="rgb(136, 136, 136)" x="0" y="10" style="font-family: Roboto; font-weight: 400; font-stretch: 100%; font-size: 10px;">E 3RD ST. SOUTH</tspan></text></g><g id="N-svg WATER-svg ST.-svg"><text transform="rotate(-84.1075420950392, 320.6604919433594, 145.0948486328125) translate(320.6604919433594, 139.5948486328125)" style="text-anchor: middle;"><tspan x="0" y="10" style="font-family: Roboto; font-weight: 400; font-stretch: 100%; font-size: 10px; stroke: rgb(255, 255, 255); stroke-width: 2; stroke-linejoin: round; stroke-linecap: round;">N WATER ST.</tspan></text><text transform="rotate(-84.1075420950392, 320.66049, 145.09485) translate(320.6604919433594, 139.5948486328125)" style="text-anchor: middle;"><tspan fill="rgb(136, 136, 136)" x="0" y="10" style="font-family: Roboto; font-weight: 400; font-stretch: 100%; font-size: 10px;">N WATER ST.</tspan></text></g><g id="S-svg SHELDON-svg ST.-svg"><text transform="rotate(90, 517.552001953125, 276.6385498046875) translate(517.552001953125, 271.1385498046875)" style="text-anchor: middle;"><tspan x="0" y="10" style="font-family: Roboto; font-weight: 400; font-stretch: 100%; font-size: 10px; stroke: rgb(255, 255, 255); stroke-width: 2; stroke-linejoin: round; stroke-linecap: round;">S SHELDON ST.</tspan></text><text transform="rotate(90, 517.552, 276.63855) translate(517.552001953125, 271.1385498046875)" style="text-anchor: middle;"><tspan fill="rgb(136, 136, 136)" x="0" y="10" style="font-family: Roboto; font-weight: 400; font-stretch: 100%; font-size: 10px;">S SHELDON ST.</tspan></text></g><g id="S-svg WATER-svg ST.-svg"><text transform="rotate(-83.48897556269986, 300.432373046875, 321.3760070800781) translate(300.432373046875, 315.8760070800781)" style="text-anchor: middle;"><tspan x="0" y="10" style="font-family: Roboto; font-weight: 400; font-stretch: 100%; font-size: 10px; stroke: rgb(255, 255, 255); stroke-width: 2; stroke-linejoin: round; stroke-linecap: round;">S WATER ST.</tspan></text><text transform="rotate(-83.48897556269986, 300.43237, 321.37601) translate(300.432373046875, 315.8760070800781)" style="text-anchor: middle;"><tspan fill="rgb(136, 136, 136)" x="0" y="10" style="font-family: Roboto; font-weight: 400; font-stretch: 100%; font-size: 10px;">S WATER ST.</tspan></text></g><g id="S-svg RIDGE-svg ST.-svg"><text transform="rotate(-83.51730015412492, 407.6255187988281, 274.8005065917969) translate(407.6255187988281, 269.3005065917969)" style="text-anchor: middle;"><tspan x="0" y="10" style="font-family: Roboto; font-weight: 400; font-stretch: 100%; font-size: 10px; stroke: rgb(255, 255, 255); stroke-width: 2; stroke-linejoin: round; stroke-linecap: round;">S RIDGE ST.</tspan></text><text transform="rotate(-83.51730015412492, 407.62552, 274.80051) translate(407.6255187988281, 269.3005065917969)" style="text-anchor: middle;"><tspan fill="rgb(136, 136, 136)" x="0" y="10" style="font-family: Roboto; font-weight: 400; font-stretch: 100%; font-size: 10px;">S RIDGE ST.</tspan></text></g><g id="S-svg PINE-svg ST.-svg"><text transform="rotate(-86.53624536577998, 360.21600341796875, 330.78509521484375) translate(360.21600341796875, 325.28509521484375)" style="text-anchor: middle;"><tspan x="0" y="10" style="font-family: Roboto; font-weight: 400; font-stretch: 100%; font-size: 10px; stroke: rgb(255, 255, 255); stroke-width: 2; stroke-linejoin: round; stroke-linecap: round;">S PINE ST.</tspan></text><text transform="rotate(-86.53624536577998, 360.216, 330.7851) translate(360.21600341796875, 325.28509521484375)" style="text-anchor: middle;"><tspan fill="rgb(136, 136, 136)" x="0" y="10" style="font-family: Roboto; font-weight: 400; font-stretch: 100%; font-size: 10px;">S PINE ST.</tspan></text></g><g id="S-svg LOCUST-svg ST.-svg"><text transform="rotate(-88.33108061671511, 319.391845703125, 332.9989013671875) translate(319.391845703125, 327.4989013671875)" style="text-anchor: middle;"><tspan x="0" y="10" style="font-family: Roboto; font-weight: 400; font-stretch: 100%; font-size: 10px; stroke: rgb(255, 255, 255); stroke-width: 2; stroke-linejoin: round; stroke-linecap: round;">S LOCUST ST.</tspan></text><text transform="rotate(-88.33108061671511, 319.39185, 332.9989) translate(319.391845703125, 327.4989013671875)" style="text-anchor: middle;"><tspan fill="rgb(136, 136, 136)" x="0" y="10" style="font-family: Roboto; font-weight: 400; font-stretch: 100%; font-size: 10px;">S LOCUST ST.</tspan></text></g><g id="S-svg JACQUES-svg ST.-svg"><text transform="rotate(89.62508434370521, 574.7264404296875, 275.85931396484375) translate(574.7264404296875, 270.35931396484375)" style="text-anchor: middle;"><tspan x="0" y="10" style="font-family: Roboto; font-weight: 400; font-stretch: 100%; font-size: 10px; stroke: rgb(255, 255, 255); stroke-width: 2; stroke-linejoin: round; stroke-linecap: round;">S JACQUES ST.</tspan></text><text transform="rotate(89.62508434370521, 574.72644, 275.85931) translate(574.7264404296875, 270.35931396484375)" style="text-anchor: middle;"><tspan fill="rgb(136, 136, 136)" x="0" y="10" style="font-family: Roboto; font-weight: 400; font-stretch: 100%; font-size: 10px;">S JACQUES ST.</tspan></text></g><g id="S-svg ELM-svg ST.-svg"><text transform="rotate(89.21631714302855, 456.7066650390625, 277.2050476074219) translate(456.7066650390625, 271.7050476074219)" style="text-anchor: middle;"><tspan x="0" y="10" style="font-family: Roboto; font-weight: 400; font-stretch: 100%; font-size: 10px; stroke: rgb(255, 255, 255); stroke-width: 2; stroke-linejoin: round; stroke-linecap: round;">S ELM ST.</tspan></text><text transform="rotate(89.21631714302855, 456.70667, 277.20505) translate(456.7066650390625, 271.7050476074219)" style="text-anchor: middle;"><tspan fill="rgb(136, 136, 136)" x="0" y="10" style="font-family: Roboto; font-weight: 400; font-stretch: 100%; font-size: 10px;">S ELM ST.</tspan></text></g><g id="POLK-svg DRIVE-svg"><text transform="rotate(6.251288214157012, 406.4463806152344, 11.00947380065918) translate(406.4463806152344, 5.50947380065918)" style="text-anchor: middle;"><tspan x="0" y="10" style="font-family: Roboto; font-weight: 400; font-stretch: 100%; font-size: 10px; stroke: rgb(255, 255, 255); stroke-width: 2; stroke-linejoin: round; stroke-linecap: round;">POLK DRIVE</tspan></text><text transform="rotate(6.251288214157012, 406.44638, 11.00947) translate(406.4463806152344, 5.50947380065918)" style="text-anchor: middle;"><tspan fill="rgb(136, 136, 136)" x="0" y="10" style="font-family: Roboto; font-weight: 400; font-stretch: 100%; font-size: 10px;">POLK DRIVE</tspan></text></g><g id="N-svg LOCUST-svg ST.-svg"><text transform="rotate(-83.316473785026, 346.6555480957031, 99.03338623046875) translate(346.6555480957031, 93.53338623046875)" style="text-anchor: middle;"><tspan x="0" y="10" style="font-family: Roboto; font-weight: 400; font-stretch: 100%; font-size: 10px; stroke: rgb(255, 255, 255); stroke-width: 2; stroke-linejoin: round; stroke-linecap: round;">N LOCUST ST.</tspan></text><text transform="rotate(-83.316473785026, 346.65555, 99.03339) translate(346.6555480957031, 93.53338623046875)" style="text-anchor: middle;"><tspan fill="rgb(136, 136, 136)" x="0" y="10" style="font-family: Roboto; font-weight: 400; font-stretch: 100%; font-size: 10px;">N LOCUST ST.</tspan></text></g><g id="N-svg ELM-svg ST.-svg"><text transform="rotate(89.63906097268774, 455.9327087402344, 120.07817077636719) translate(455.9327087402344, 114.57817077636719)" style="text-anchor: middle;"><tspan x="0" y="10" style="font-family: Roboto; font-weight: 400; font-stretch: 100%; font-size: 10px; stroke: rgb(255, 255, 255); stroke-width: 2; stroke-linejoin: round; stroke-linecap: round;">N ELM ST.</tspan></text><text transform="rotate(89.63906097268774, 455.93271, 120.07817) translate(455.9327087402344, 114.57817077636719)" style="text-anchor: middle;"><tspan fill="rgb(136, 136, 136)" x="0" y="10" style="font-family: Roboto; font-weight: 400; font-stretch: 100%; font-size: 10px;">N ELM ST.</tspan></text></g><g id="E-svg MAIN-svg ST.-svg"><text transform="rotate(-0.46533521021304075, 460.387451171875, 225.11497497558594) translate(460.387451171875, 219.61497497558594)" style="text-anchor: middle;"><tspan x="0" y="10" style="font-family: Roboto; font-weight: 400; font-stretch: 100%; font-size: 10px; stroke: rgb(255, 255, 255); stroke-width: 2; stroke-linejoin: round; stroke-linecap: round;">E MAIN ST.</tspan></text><text transform="rotate(-0.46533521021304075, 460.38745, 225.11497) translate(460.387451171875, 219.61497497558594)" style="text-anchor: middle;"><tspan fill="rgb(136, 136, 136)" x="0" y="10" style="font-family: Roboto; font-weight: 400; font-stretch: 100%; font-size: 10px;">E MAIN ST.</tspan></text></g><g id="E-svg JEFFERSON-svg ST.-svg"><text transform="rotate(0.31348967785336784, 462.2408447265625, 180.47996520996094) translate(462.2408447265625, 174.97996520996094)" style="text-anchor: middle;"><tspan x="0" y="10" style="font-family: Roboto; font-weight: 400; font-stretch: 100%; font-size: 10px; stroke: rgb(255, 255, 255); stroke-width: 2; stroke-linejoin: round; stroke-linecap: round;">E JEFFERSON ST.</tspan></text><text transform="rotate(0.31348967785336784, 462.24084, 180.47997) translate(462.2408447265625, 174.97996520996094)" style="text-anchor: middle;"><tspan fill="rgb(136, 136, 136)" x="0" y="10" style="font-family: Roboto; font-weight: 400; font-stretch: 100%; font-size: 10px;">E JEFFERSON ST.</tspan></text></g><g id="E-svg 2ND-svg ST.-svg SOUTH-svg"><text transform="rotate(0, 365.59735107421875, 391.45098876953125) translate(365.59735107421875, 385.95098876953125)" style="text-anchor: middle;"><tspan x="0" y="10" style="font-family: Roboto; font-weight: 400; font-stretch: 100%; font-size: 10px; stroke: rgb(255, 255, 255); stroke-width: 2; stroke-linejoin: round; stroke-linecap: round;">E 2ND ST. SOUTH</tspan></text><text transform="translate(365.59735107421875, 385.95098876953125)" style="text-anchor: middle;"><tspan fill="rgb(136, 136, 136)" x="0" y="10" style="font-family: Roboto; font-weight: 400; font-stretch: 100%; font-size: 10px;">E 2ND ST. SOUTH</tspan></text></g></g><g id="Arcola-svg"><text transform="translate(343.0078125, 186.609375)" style="text-anchor: middle;"><tspan x="0" y="14" style="font-family: Roboto; font-weight: 400; font-stretch: 100%; font-size: 14px; stroke: rgb(242, 243, 240); stroke-width: 2; stroke-linejoin: round; stroke-linecap: round;">Arcola</tspan></text><text transform="translate(343.0078125, 186.609375)" style="text-anchor: middle;"><tspan fill="rgb(51,51,51)" x="0" y="14" style="font-family: Roboto; font-weight: 400; font-stretch: 100%; font-size: 14px;">Arcola</tspan></text></g><g id="svg-marker-svg" transform="translate(343, 195)"><g id="svg-id-nrV5Bn75BO-svg" transform="translate(-14, -14)"/></g><rect width="156.96875" height="14" transform="translate(443.03125, 433)" fill="rgba(255,255,255,0.73)" style="fill: rgb(255, 255, 255); fill-opacity: 0.73;"/><text transform="translate(447, 434)"><tspan fill="rgba(119,119,119,0.87)" x="0" y="11" style="font-family: Roboto; font-weight: 400; font-stretch: 100%; font-size: 11px;"></tspan><tspan fill="rgba(119,119,119,0.87)" dx="2.734375" style="font-family: Roboto; font-weight: 400; font-stretch: 100%; font-size: 11px;">OpenStreetMap</tspan><tspan fill="rgba(119,119,119,0.87)" dx="2.734375" style="font-family: Roboto; font-weight: 400; font-stretch: 100%; font-size: 11px;">contributors</tspan></text></g></g></g></g><g id="container-svg container-footer-svg datawrapper-jqguh-1la8dcw-svg"><text transform="translate(0, 467)"><tspan fill="rgb(136,136,136)" x="0" y="11" style="font-family: Roboto; font-weight: 400; font-stretch: 100%; font-size: 11px;">Created with</tspan><tspan fill="rgb(136,136,136)" dx="2.734375" style="font-family: Roboto; font-weight: 400; font-stretch: 100%; font-size: 11px;">Datawrapper</tspan></text></g></g></g></g></svg>