<svg xmlns="http://www.w3.org/2000/svg" xmlns:xlink="http://www.w3.org/1999/xlink" id="exportSvg" width="600" height="483"><defs/><g><g id="__svelte-dw-svg" clip-path="url(#rect-mask-QQpe0SSKmkkemQYGmJIR7)"><clipPath id="rect-mask-QQpe0SSKmkkemQYGmJIR7"><rect x="0" y="0" width="600" height="483"/></clipPath><g id="container-svg container-body-svg datawrapper-kFC5L-1gvfeww-svg"><g id="container-svg container-bodyTop-svg datawrapper-kFC5L-lmtz6e-svg"><g id="container-svg container-bodyCenter-svg datawrapper-kFC5L-1fgvipr-svg"><g id="chart-svg"><g id="container-inner-svg export-group-svg maplibregl-map-svg" clip-path="url(#rect-mask-vvVY5rUPzBbu145wlmeDc)"><clipPath id="rect-mask-vvVY5rUPzBbu145wlmeDc"><rect x="0" y="0" width="600" height="450"/></clipPath><g id="basemap-svg" clip-path="url(#rect-mask-cXkCIf8xG2kIyuqUC38vO)"><clipPath id="rect-mask-cXkCIf8xG2kIyuqUC38vO"><rect x="0" y="0" width="600" height="450"/></clipPath><rect width="600" height="450" transform="translate(0, 0)" fill="rgb(255,255,255)" id="background" style="fill: rgb(255, 255, 255);"/><path d="M150.336,280.953L175.962,289.317L188.953,294.122L191.623,295.368L199.987,299.639L205.504,302.13L209.775,303.554M186.996,293.41L188.953,294.122L191.623,295.368L199.987,299.639L205.504,302.13L217.427,305.868L234.512,311.206L242.342,313.342L249.461,315.3L258.893,318.325L262.096,319.037L266.189,320.282M175.962,289.317L173.649,291.097L171.691,293.588L167.954,306.046M172.937,460.517L180.055,435.958L188.953,404.992L201.411,361.57L209.775,332.562M186.996,411.755L188.953,404.992L201.411,361.57L217.427,305.868L232.91,252.301M161.903,498.778L170.089,470.127L179.521,437.737M37.864,268.496L116.879,266.894M15.262,336.833L16.152,333.452L16.33,330.426L16.152,324.02L15.44,277.572L14.551,253.013L14.907,249.987L16.508,247.14L19.534,245.538L37.508,245.183M167.954,306.046L159.056,303.198L133.963,295.902L117.235,291.275M209.775,363.883L201.411,361.57L115.633,336.833M250.172,375.629L238.249,372.069L229.529,369.578L225.97,368.51L212.088,364.595L201.411,361.57L186.996,357.477M180.055,435.958L157.454,429.729L139.836,424.212L128.09,421.187L122.218,419.407L115.989,416.738M115.989,416.738L105.845,417.272L89.295,417.806L76.125,417.628L72.922,417.984L66.871,419.407L63.846,419.763L54.592,420.297L29.144,421.187L-31.008,422.433L-33.855,421.365L-35.635,418.695L-35.991,415.67L-35.457,412.467L-33.677,409.975L-30.83,408.908L-27.804,408.552L-21.754,408.374L-18.728,408.374L27.542,407.484L28.788,405.348L28.254,399.654L27.542,381.323L27.898,375.095L28.432,372.069L30.567,370.112L33.415,369.934L39.643,370.468L51.923,370.646L70.431,370.468L82.532,369.934L85.38,371.002L87.337,373.137L88.583,375.985L88.761,379.01L88.761,397.34L89.295,417.806M117.235,219.022L115.811,232.903L116.167,241.623L116.345,244.649L116.879,266.894L117.057,271.165L117.235,291.275L116.701,302.486L116.345,308.537L116.167,311.74L115.989,314.766L115.633,336.833L115.811,358.188L115.989,416.738M38.22,288.071L37.864,268.496L37.508,245.183L37.508,244.293L37.152,219.2L37.508,215.285L38.753,212.615L41.067,210.48M101.218,59.39L145.887,57.611M87.693,104.77L102.464,104.237L207.995,102.635M186.996,102.991L207.995,102.635M42.491,102.279L67.583,104.237L87.693,104.77M106.735,178.981L102.464,104.237M198.919,175.421L198.029,167.769L200.343,154.066L204.436,129.151L207.995,102.635L209.775,95.338M198.919,175.421L198.029,167.769L200.343,154.066L204.436,129.151L207.995,102.635L213.156,81.279L215.47,73.449L227.215,62.415M102.464,104.237L101.218,59.39L100.15,25.221M167.954,306.046L182.369,311.028M52.99,180.582L54.058,186.989L55.304,190.726L56.372,195.175L57.795,197.845L59.753,200.158L61.889,202.65L63.312,206.743M41.067,210.48L44.448,209.412L51.211,208.166L57.084,206.921L59.219,206.565L63.312,206.743M63.312,206.743L99.794,214.573L117.235,219.022M117.235,219.022L209.775,245.716M186.996,239.132L232.91,252.301L257.647,259.775L281.494,265.47M117.235,291.275L114.209,291.987L111.896,293.232L110.472,294.3L109.938,297.147L109.76,306.401L110.116,317.435L108.337,321.35L107.091,323.13L106.913,326.689L106.913,331.85L107.625,334.164L110.294,335.765L112.43,336.833L115.633,336.833M112.43,336.833L111.54,341.104L110.828,343.951L108.515,351.248L107.803,353.739L107.625,355.341L108.693,358.544M115.811,358.188L108.693,358.544L83.6,359.79M37.508,244.293L62.422,243.225L84.846,242.513L116.167,241.623M167.42,161.718L168.666,169.905L170.801,176.489M169.734,398.764L188.953,404.992M172.937,460.517L180.055,435.958L188.953,404.992L201.411,361.57L209.775,332.562M186.996,411.755L188.953,404.992L201.411,361.57L217.427,305.868L232.91,252.301M161.903,498.778L170.089,470.127L179.521,437.737M310.324,169.905L306.764,184.319L298.578,212.082L293.951,229.166L291.993,235.039L281.494,265.47M232.91,252.301L248.927,197.311L253.732,179.337L254.088,173.286M442.727,460.517L442.727,449.483L442.549,421.365L442.727,411.933L442.905,408.73L443.617,402.679L444.863,396.45L446.82,390.755L449.668,385.239L453.049,380.078L456.964,375.273L477.43,352.494L483.303,345.375L488.819,337.901L491.845,332.384L494.336,326.689L497.718,317.613M445.219,1189.449L445.219,1120.4L445.041,1091.57L445.041,1013.979L444.685,810.39L444.863,805.763L444.507,768.925L443.439,573.7L443.083,527.074L442.905,472.084L442.727,449.483L442.727,437.737M413.364,185.743L419.236,184.675L420.838,181.294L421.55,177.379L421.55,174.176L420.482,171.15L418.169,169.015M209.775,363.883L201.411,361.57L115.633,336.833M250.172,375.629L238.249,372.069L229.529,369.578L225.97,368.51L212.088,364.595L201.411,361.57L186.996,357.477M497.718,317.613L500.387,308.715L501.277,305.512L501.811,302.664L501.633,299.461L500.921,295.546M500.921,295.546L497.362,287.893L495.226,283.8M413.364,185.743L414.075,190.548L411.94,198.734L406.601,214.039L402.33,228.632L397.881,236.818M225.97,368.51L242.342,313.342L248.927,291.097L251.596,282.199L254.265,273.123L256.045,267.428L257.647,259.775L258.893,255.504L261.562,246.606L265.655,231.479L273.485,204.251L277.401,190.904L282.561,171.862M302.493,390.222L318.154,335.409L320.823,326.155L321.535,323.13L325.094,311.206L327.408,302.308L330.077,293.054L333.281,280.775L343.958,249.632L350.543,226.319L359.085,198.912L365.492,171.506M150.336,280.953L175.962,289.317L188.953,294.122L191.623,295.368L199.987,299.639L205.504,302.13L209.775,303.554M186.996,293.41L188.953,294.122L191.623,295.368L199.987,299.639L205.504,302.13L217.427,305.868L234.512,311.206L242.342,313.342L249.461,315.3L258.893,318.325L262.096,319.037L266.189,320.282M281.494,265.47L266.189,320.282L263.52,329.181L252.664,367.976L250.172,375.629L247.859,382.569L244.478,394.493L242.876,400.365L240.562,408.552L232.02,438.983L227.571,453.754L225.792,460.517M232.376,437.737L232.02,438.983L227.571,453.754L223.656,468.703L219.385,483.474L217.427,489.346L216.182,492.194L214.402,494.685L213.512,495.219M341.467,165.633L351.433,167.947L365.492,171.506L370.831,171.862L381.152,171.15L387.025,170.794L392.898,170.083L407.669,168.481L418.169,169.015M254.088,173.286L253.554,154.066L253.02,128.261L252.486,103.525L251.774,79.856L250.884,56.543L250.35,40.348L249.461,15.789M415.321,87.864L412.83,84.127M392.898,170.083L403.576,131.643L415.321,87.864M391.652,-8.591L388.093,4.222L386.135,12.764L384,20.95L378.127,42.484L370.831,70.068L356.238,117.584L345.382,156.201L341.467,165.633L340.399,167.947M87.693,104.77L102.464,104.237L207.995,102.635M186.996,102.991L207.995,102.635M213.156,81.279L251.774,79.856L295.375,78.61L332.925,77.542M356.238,117.584L378.839,124.88L403.576,131.643M198.919,175.421L198.029,167.769L200.343,154.066L204.436,129.151L207.995,102.635L209.775,95.338M198.919,175.421L198.029,167.769L200.343,154.066L204.436,129.151L207.995,102.635L213.156,81.279L215.47,73.449L227.215,62.415M456.964,114.558L456.786,97.296L456.252,20.594L457.854,-106.471L463.727,-160.215L472.981,-208.443L489.175,-270.907L495.582,-291.195M457.142,167.413L513.556,165.811L630.299,162.43L646.138,161.54L733.339,158.693M249.461,15.789L269.57,15.078L291.104,14.366L351.255,12.23M412.83,84.127L393.254,77.72L370.831,70.068M204.436,129.151L253.02,128.261L321.357,126.482M227.215,62.415L227.749,46.043M374.39,232.725L388.449,236.996L391.652,237.708L394.856,237.886L397.881,236.818M248.927,197.311L273.485,204.251L298.578,212.082M343.069,342.528L327.408,338.079L318.154,335.409L300.002,330.07L293.773,327.757M324.738,218.666L350.543,226.319L359.441,228.988L374.39,232.725M281.494,265.47L296.976,270.275L308.366,273.656M390.051,179.337L401.44,182.006L413.364,185.743M327.408,392.535L328.476,391.289L329.543,388.442L343.069,342.528L344.848,335.409L352.679,308.715L353.924,304.622L355.348,300.173L359.085,287.537L365.314,264.402L368.873,252.479L374.39,232.725L380.263,213.327L390.051,179.337L392.898,170.083M370.831,171.862L390.051,179.337M117.235,219.022L209.775,245.716M186.996,239.132L232.91,252.301L257.647,259.775L281.494,265.47M495.226,283.8L494.692,282.91L493.091,280.419L483.659,268.318L473.871,256.216L465.151,243.403L459.1,229.344L455.896,214.217L456.43,196.955L457.142,167.413L456.964,114.558M354.102,401.611L327.408,392.535L326.34,393.603L323.315,394.671L320.111,394.671L316.908,394.137L309.434,392.001L302.493,390.222L284.163,385.417L282.917,385.061L278.112,383.103M456.786,97.296L481.167,96.94L508.217,95.872L511.243,95.694L516.937,97.652L525.302,97.652M507.861,82.525L508.217,95.872M200.343,154.066L204.08,155.134L234.334,154.066L253.554,154.066M201.945,33.942L200.877,43.552L200.343,51.026L206.038,55.653L212.622,59.746L215.47,73.449M252.486,103.525L257.825,102.813L285.053,102.279L306.408,100.855L319.578,100.321L328.12,101.033M207.995,102.635L213.334,103.525L252.486,103.525M365.492,171.506L368.339,161.718L372.788,146.414L378.839,124.88L386.135,102.635L388.271,96.406L393.254,77.72M250.884,56.543L273.841,55.831L276.689,55.653L287.011,54.941L292.171,55.475L293.239,57.255L294.485,62.238L295.375,78.61M250.35,40.348L271.35,39.814L274.553,40.17L276.689,55.653M269.57,15.078L269.214,20.95L272.418,24.865L275.977,27.891L281.672,27.179L285.587,25.399L288.968,19.883L291.104,14.366M503.412,217.242L508.395,218.844L512.488,218.31L514.446,215.463L515.336,207.988L513.556,165.811M386.135,12.764L390.762,14.722L392.364,16.323L385.246,41.416L384,43.552L378.127,42.484M253.554,154.066L314.239,153.176M388.093,4.222L395.923,5.824L420.838,13.298L424.041,15.611L423.329,24.865L420.126,39.102L418.169,46.577L384,43.552M172.937,460.517L180.055,435.958L188.953,404.992L201.411,361.57L209.775,332.562M186.996,411.755L188.953,404.992L201.411,361.57L217.427,305.868L232.91,252.301M161.903,498.778L170.089,470.127L179.521,437.737M442.727,460.517L442.727,449.483L442.549,421.365L442.727,411.933L442.905,408.73L443.617,402.679L444.863,396.45L446.82,390.755L449.668,385.239L453.049,380.078L456.964,375.273L477.43,352.494L483.303,345.375L488.819,337.901L491.845,332.384L494.336,326.689L497.718,317.613M445.219,1189.449L445.219,1120.4L445.041,1091.57L445.041,1013.979L444.685,810.39L444.863,805.763L444.507,768.925L443.439,573.7L443.083,527.074L442.905,472.084L442.727,449.483L442.727,437.737M281.494,265.47L266.189,320.282L263.52,329.181L252.664,367.976L250.172,375.629L247.859,382.569L244.478,394.493L242.876,400.365L240.562,408.552L232.02,438.983L227.571,453.754L225.792,460.517M232.376,437.737L232.02,438.983L227.571,453.754L223.656,468.703L219.385,483.474L217.427,489.346L216.182,492.194L214.402,494.685L213.512,495.219" stroke="rgb(231,231,231)" id="road_minor" transform="translate(0.5, 0)" style="fill: none; stroke-width: 2.90783; stroke-linejoin: round; stroke-linecap: round; stroke: rgb(231, 231, 231);"/><path d="M-128.887,185.921L-120.167,185.565L-82.973,184.319L-58.592,183.43L-52.541,183.252L-27.982,182.54L-10.898,182.006L52.99,180.582L76.481,178.981L106.735,178.981L127.201,178.269L170.801,176.489L198.919,175.421L209.775,175.065M186.996,175.955L198.919,175.421L254.088,173.286L282.561,171.862L295.553,171.506L310.324,169.905M423.863,300.351L435.431,300.885L446.998,301.063M500.921,295.546L509.641,294.3L521.564,291.097L524.412,290.029L527.437,289.139L538.827,284.868L550.038,279.707L560.716,273.834L568.546,269.029L578.512,262.089L588.122,254.259L597.198,245.894L603.427,239.132L613.393,227.386L621.401,217.954L627.808,211.014L636.528,202.472L641.333,198.378L643.824,196.599L648.629,192.684L651.121,190.726L653.79,189.124L656.46,187.345L664.468,182.184L675.324,176.311L686.535,171.15L695.077,167.769L703.976,164.744L712.874,162.43L721.95,160.295L733.339,158.693M381.152,293.766L387.915,295.368L394.678,296.614L406.067,298.393L423.863,300.351M256.045,460.517L257.825,454.466L267.791,418.518L271.172,406.594L274.909,393.603L278.112,383.103M250.528,479.559L257.825,454.466L262.452,437.737M340.399,167.947L336.84,179.87L324.738,218.666L321.001,229.522L317.086,244.471L308.366,273.656M308.366,273.656L333.281,280.775L351.611,285.58L359.085,287.537L369.585,290.919L372.61,291.631L381.152,293.766M346.272,29.493L351.255,12.23L359.441,-14.464M346.272,29.493L332.925,77.542L328.12,101.033L321.357,126.482L314.239,153.176L310.324,169.905M446.998,301.063L455.719,300.707L467.642,299.817L480.633,298.571M310.324,169.905L325.806,167.413L340.399,167.947M480.633,298.571L489.353,297.325L492.379,296.614L500.921,295.546M308.366,273.656L303.027,296.08L293.773,327.757L291.993,334.341L287.544,349.112L283.451,364.239L278.112,383.103M-128.887,185.921L-120.167,185.565L-82.973,184.319L-58.592,183.43L-52.541,183.252L-27.982,182.54L-10.898,182.006L52.99,180.582L76.481,178.981L106.735,178.981L127.201,178.269L170.801,176.489L198.919,175.421L209.775,175.065M186.996,175.955L198.919,175.421L254.088,173.286L282.561,171.862L295.553,171.506L310.324,169.905M256.045,460.517L257.825,454.466L267.791,418.518L271.172,406.594L274.909,393.603L278.112,383.103M250.528,479.559L257.825,454.466L262.452,437.737" stroke="rgb(231,231,231)" id="road_secondary_tertiary" transform="translate(0.5, 0)" style="fill: none; stroke-width: 3.42509; stroke-linejoin: round; stroke-linecap: round; stroke: rgb(231, 231, 231);"/><path d="M393.788,287.004L388.983,291.275L381.152,293.766M414.609,419.051L422.084,405.348L430.626,387.374L435.431,378.476L440.948,371.18L446.642,365.663L453.049,359.612L457.854,354.629L469.066,341.46L473.515,332.918L476.54,323.486L478.676,312.096L480.633,298.571M387.915,295.368L399.305,389.154L401.262,400.187L400.728,412.645L399.483,431.687M436.143,175.421L433.473,208.522L432.939,214.929L431.516,224.183L428.312,234.861L422.618,247.318L418.169,255.326L400.55,278.283L393.788,287.004L393.076,292.342L394.678,296.614M480.633,298.571L474.583,286.47L469.066,277.572L460.346,260.665L452.515,244.293L449.49,232.013L445.219,210.302" stroke="rgb(231,231,231)" id="road_major_motorway_ramp" transform="translate(0.5, 0)" style="fill: none; stroke-width: 6.19281; stroke-linejoin: round; stroke-linecap: round; stroke: rgb(231, 231, 231);"/><path d="M436.143,175.421L436.855,208.7L435.965,244.115L434.185,278.283L432.406,293.588L427.601,326.511L422.618,353.383L415.321,382.035L414.609,385.239L399.483,431.687L396.279,440.941L388.805,460.517M397.347,437.737L396.279,440.941L380.974,481.338L372.966,501.092L364.424,521.024L355.17,540.6L328.476,599.861L302.849,660.19L278.112,720.697L255.155,782.272L244.834,811.992L238.427,830.144L230.241,853.101L218.673,886.024L212.8,906.312L194.648,967.175L186.996,993.513M446.287,160.651L448.956,-66.429L451.447,-115.013L455.185,-158.079L461.947,-192.07L466.04,-212.892L488.286,-291.195M475.472,-291.195L472.981,-282.297L459.1,-233.179L450.38,-195.274L444.329,-161.817L438.99,-117.682L437.21,-60.734L437.388,-0.583L436.143,175.421M400.016,460.517L404.643,448.593L408.915,436.848L414.609,419.051L417.279,409.797L424.041,382.747L428.846,361.748L433.295,340.214L437.033,318.859L440.414,295.012L442.549,275.614L444.151,254.081L445.219,210.302L446.287,160.651M186.996,1019.495L196.962,985.327L215.47,922.862L235.757,860.397L237.003,856.66L252.13,813.415L257.291,798.467L280.07,737.426L286.655,720.341L303.917,676.207L329.365,616.233L356.416,556.438L384,496.999L387.737,488.457L392.008,480.27L395.745,471.906L404.643,448.593L408.559,437.737M436.143,175.421L436.855,208.7L435.965,244.115L434.185,278.283L432.406,293.588L427.601,326.511L422.618,353.383L415.321,382.035L414.609,385.239L399.483,431.687L396.279,440.941L388.805,460.517M397.347,437.737L396.279,440.941L380.974,481.338L372.966,501.092L364.424,521.024L355.17,540.6L328.476,599.861L302.849,660.19L278.112,720.697L255.155,782.272L244.834,811.992L238.427,830.144L230.241,853.101L218.673,886.024L212.8,906.312L194.648,967.175L186.996,993.513M400.016,460.517L404.643,448.593L408.915,436.848L414.609,419.051L417.279,409.797L424.041,382.747L428.846,361.748L433.295,340.214L437.033,318.859L440.414,295.012L442.549,275.614L444.151,254.081L445.219,210.302L446.287,160.651M186.996,1019.495L196.962,985.327L215.47,922.862L235.757,860.397L237.003,856.66L252.13,813.415L257.291,798.467L280.07,737.426L286.655,720.341L303.917,676.207L329.365,616.233L356.416,556.438L384,496.999L387.737,488.457L392.008,480.27L395.745,471.906L404.643,448.593L408.559,437.737" stroke="rgb(231,231,231)" id="road_major_motorway" transform="translate(0.5, 0)" style="fill: none; stroke-width: 6.19281; stroke-linejoin: round; stroke-linecap: round; stroke: rgb(231, 231, 231);"/><path d="M242.876,460.517L275.443,341.638L296.976,270.275L325.806,167.413L370.475,18.459L459.456,-291.195M186.996,654.139L219.919,543.803L249.105,437.737M242.876,460.517L275.443,341.638L296.976,270.275L325.806,167.413L370.475,18.459L459.456,-291.195M186.996,654.139L219.919,543.803L249.105,437.737" stroke="rgb(157,157,157)" id="railway" transform="translate(0.5, 0)" style="fill: none; stroke-width: 1; stroke-opacity: 0.701928; stroke-linejoin: miter; stroke-linecap: butt; stroke: rgb(157, 157, 157);"/><path d="M423.863,300.351L435.431,300.885L446.998,301.063" stroke="rgb(231,231,231)" id="bridge_major" transform="translate(0.5, 0)" style="fill: none; stroke-width: 4.92513; stroke-linejoin: round; stroke-linecap: round; stroke: rgb(231, 231, 231);"/><g id="W-svg CHEBANSE-svg AVE.-svg"><text transform="rotate(-1.540903427063055, 46.1705436706543, 180.73399353027344) translate(46.1705436706543, 175.23399353027344)" style="text-anchor: middle;"><tspan x="0" y="10" style="font-family: Roboto; font-weight: 400; font-stretch: 100%; font-size: 10px; stroke: rgb(255, 255, 255); stroke-width: 2; stroke-linejoin: round; stroke-linecap: round;">W CHEBANSE AVE.</tspan></text><text transform="rotate(-1.540903427063055, 46.17054, 180.73399) translate(46.1705436706543, 175.23399353027344)" style="text-anchor: middle;"><tspan fill="rgb(136, 136, 136)" x="0" y="10" style="font-family: Roboto; font-weight: 400; font-stretch: 100%; font-size: 10px;">W CHEBANSE AVE.</tspan></text></g><g id="SCHOOL-svg STREET-svg"><text transform="rotate(-88.35968094124398, 115.93978118896484, 317.8167419433594) translate(115.93978118896484, 312.3167419433594)" style="text-anchor: middle;"><tspan x="0" y="10" style="font-family: Roboto; font-weight: 400; font-stretch: 100%; font-size: 10px; stroke: rgb(255, 255, 255); stroke-width: 2; stroke-linejoin: round; stroke-linecap: round;">SCHOOL STREET</tspan></text><text transform="rotate(-88.35968094124398, 115.93978, 317.81674) translate(115.93978118896484, 312.3167419433594)" style="text-anchor: middle;"><tspan fill="rgb(136, 136, 136)" x="0" y="10" style="font-family: Roboto; font-weight: 400; font-stretch: 100%; font-size: 10px;">SCHOOL STREET</tspan></text></g><g id="S-svg WALNUT-svg ST.-svg"><text transform="rotate(-73.99154606725914, 195.4314422607422, 382.4115905761719) translate(195.4314422607422, 376.9115905761719)" style="text-anchor: middle;"><tspan x="0" y="10" style="font-family: Roboto; font-weight: 400; font-stretch: 100%; font-size: 10px; stroke: rgb(255, 255, 255); stroke-width: 2; stroke-linejoin: round; stroke-linecap: round;">S WALNUT ST.</tspan></text><text transform="rotate(-73.99154606725914, 195.43144, 382.41159) translate(195.4314422607422, 376.9115905761719)" style="text-anchor: middle;"><tspan fill="rgb(136, 136, 136)" x="0" y="10" style="font-family: Roboto; font-weight: 400; font-stretch: 100%; font-size: 10px;">S WALNUT ST.</tspan></text></g><g id="S-svg 2ND-svg ST.-svg"><text transform="rotate(-1.1615943226316772, 77.37149810791016, 267.69500732421875) translate(77.37149810791016, 262.19500732421875)" style="text-anchor: middle;"><tspan x="0" y="10" style="font-family: Roboto; font-weight: 400; font-stretch: 100%; font-size: 10px; stroke: rgb(255, 255, 255); stroke-width: 2; stroke-linejoin: round; stroke-linecap: round;">S 2ND ST.</tspan></text><text transform="rotate(-1.1615943226316772, 77.3715, 267.69501) translate(77.37149810791016, 262.19500732421875)" style="text-anchor: middle;"><tspan fill="rgb(136, 136, 136)" x="0" y="10" style="font-family: Roboto; font-weight: 400; font-stretch: 100%; font-size: 10px;">S 2ND ST.</tspan></text></g><g id="ORCHARD-svg STREET-svg"><text transform="rotate(-0.8697111407147909, 125.19998168945312, 103.89186096191406) translate(125.19998168945312, 98.39186096191406)" style="text-anchor: middle;"><tspan x="0" y="10" style="font-family: Roboto; font-weight: 400; font-stretch: 100%; font-size: 10px; stroke: rgb(255, 255, 255); stroke-width: 2; stroke-linejoin: round; stroke-linecap: round;">ORCHARD STREET</tspan></text><text transform="rotate(-0.8697111407147909, 125.19998, 103.89186) translate(125.19998168945312, 98.39186096191406)" style="text-anchor: middle;"><tspan fill="rgb(136, 136, 136)" x="0" y="10" style="font-family: Roboto; font-weight: 400; font-stretch: 100%; font-size: 10px;">ORCHARD STREET</tspan></text></g><g id="OAK-svg STREET-svg"><text transform="rotate(-74.50494562633988, 265.31280517578125, 427.45697021484375) translate(265.31280517578125, 421.95697021484375)" style="text-anchor: middle;"><tspan x="0" y="10" style="font-family: Roboto; font-weight: 400; font-stretch: 100%; font-size: 10px; stroke: rgb(255, 255, 255); stroke-width: 2; stroke-linejoin: round; stroke-linecap: round;">OAK STREET</tspan></text><text transform="rotate(-74.50494562633988, 265.31281, 427.45697) translate(265.31280517578125, 421.95697021484375)" style="text-anchor: middle;"><tspan fill="rgb(136, 136, 136)" x="0" y="10" style="font-family: Roboto; font-weight: 400; font-stretch: 100%; font-size: 10px;">OAK STREET</tspan></text></g><g id="N-svg CHESTNUT-svg ST.-svg"><text transform="rotate(-76.3744496139237, 333.0105895996094, 77.23382568359375) translate(333.0105895996094, 71.73382568359375)" style="text-anchor: middle;"><tspan x="0" y="10" style="font-family: Roboto; font-weight: 400; font-stretch: 100%; font-size: 10px; stroke: rgb(255, 255, 255); stroke-width: 2; stroke-linejoin: round; stroke-linecap: round;">N CHESTNUT ST.</tspan></text><text transform="rotate(-76.3744496139237, 333.01059, 77.23383) translate(333.0105895996094, 71.73382568359375)" style="text-anchor: middle;"><tspan fill="rgb(136, 136, 136)" x="0" y="10" style="font-family: Roboto; font-weight: 400; font-stretch: 100%; font-size: 10px;">N CHESTNUT ST.</tspan></text></g><g id="S-svg OAK-svg ST.-svg"><text transform="rotate(-75.5581350273499, 308.0072326660156, 275.1628112792969) translate(308.0072326660156, 269.6628112792969)" style="text-anchor: middle;"><tspan x="0" y="10" style="font-family: Roboto; font-weight: 400; font-stretch: 100%; font-size: 10px; stroke: rgb(255, 255, 255); stroke-width: 2; stroke-linejoin: round; stroke-linecap: round;">S OAK ST.</tspan></text><text transform="rotate(-75.5581350273499, 308.00723, 275.16281) translate(308.0072326660156, 269.6628112792969)" style="text-anchor: middle;"><tspan fill="rgb(136, 136, 136)" x="0" y="10" style="font-family: Roboto; font-weight: 400; font-stretch: 100%; font-size: 10px;">S OAK ST.</tspan></text></g><g id="CHEBANSE-svg ROAD-svg"><text transform="rotate(-45.321982715990686, 597.9191284179688, 245.1111297607422) translate(597.9191284179688, 239.6111297607422)" style="text-anchor: middle;"><tspan x="0" y="10" style="font-family: Roboto; font-weight: 400; font-stretch: 100%; font-size: 10px; stroke: rgb(255, 255, 255); stroke-width: 2; stroke-linejoin: round; stroke-linecap: round;">CHEBANSE ROAD</tspan></text><text transform="rotate(-45.321982715990686, 597.91913, 245.11113) translate(597.9191284179688, 239.6111297607422)" style="text-anchor: middle;"><tspan fill="rgb(136, 136, 136)" x="0" y="10" style="font-family: Roboto; font-weight: 400; font-stretch: 100%; font-size: 10px;">CHEBANSE ROAD</tspan></text></g><g id="W-svg CHEBANSE-svg AVE.-svg"><text transform="rotate(-2.216204143518465, 243.0076446533203, 173.7147979736328) translate(243.0076446533203, 168.2147979736328)" style="text-anchor: middle;"><tspan x="0" y="10" style="font-family: Roboto; font-weight: 400; font-stretch: 100%; font-size: 10px; stroke: rgb(255, 255, 255); stroke-width: 2; stroke-linejoin: round; stroke-linecap: round;">W CHEBANSE AVE.</tspan></text><text transform="rotate(-2.216204143518465, 243.00764, 173.7148) translate(243.0076446533203, 168.2147979736328)" style="text-anchor: middle;"><tspan fill="rgb(136, 136, 136)" x="0" y="10" style="font-family: Roboto; font-weight: 400; font-stretch: 100%; font-size: 10px;">W CHEBANSE AVE.</tspan></text></g><g id="S-svg LOCUST-svg ST.-svg"><text transform="rotate(-74.93068147591742, 360.697265625, 281.5488586425781) translate(360.697265625, 276.0488586425781)" style="text-anchor: middle;"><tspan x="0" y="10" style="font-family: Roboto; font-weight: 400; font-stretch: 100%; font-size: 10px; stroke: rgb(255, 255, 255); stroke-width: 2; stroke-linejoin: round; stroke-linecap: round;">S LOCUST ST.</tspan></text><text transform="rotate(-74.93068147591742, 360.69727, 281.54886) translate(360.697265625, 276.0488586425781)" style="text-anchor: middle;"><tspan fill="rgb(136, 136, 136)" x="0" y="10" style="font-family: Roboto; font-weight: 400; font-stretch: 100%; font-size: 10px;">S LOCUST ST.</tspan></text></g><g id="FRONTAGE-svg ROAD-svg"><text transform="rotate(91.77186576593397, 456.1820373535156, 204.97021484375) translate(456.1820373535156, 199.47021484375)" style="text-anchor: middle;"><tspan x="0" y="10" style="font-family: Roboto; font-weight: 400; font-stretch: 100%; font-size: 10px; stroke: rgb(255, 255, 255); stroke-width: 2; stroke-linejoin: round; stroke-linecap: round;">FRONTAGE ROAD</tspan></text><text transform="rotate(91.77186576593397, 456.18204, 204.97021) translate(456.1820373535156, 199.47021484375)" style="text-anchor: middle;"><tspan fill="rgb(136, 136, 136)" x="0" y="10" style="font-family: Roboto; font-weight: 400; font-stretch: 100%; font-size: 10px;">FRONTAGE ROAD</tspan></text></g><g id="E-svg PARK-svg ST.-svg"><text transform="rotate(-82.35545972346894, 206.1756591796875, 116.18983459472656) translate(206.1756591796875, 110.68983459472656)" style="text-anchor: middle;"><tspan x="0" y="10" style="font-family: Roboto; font-weight: 400; font-stretch: 100%; font-size: 10px; stroke: rgb(255, 255, 255); stroke-width: 2; stroke-linejoin: round; stroke-linecap: round;">E PARK ST.</tspan></text><text transform="rotate(-82.35545972346894, 206.17566, 116.18983) translate(206.1756591796875, 110.68983459472656)" style="text-anchor: middle;"><tspan fill="rgb(136, 136, 136)" x="0" y="10" style="font-family: Roboto; font-weight: 400; font-stretch: 100%; font-size: 10px;">E PARK ST.</tspan></text></g><g id="N-svg OAK-svg ST.-svg"><text transform="rotate(-72.92734064944946, 367.7180480957031, 80.20401763916016) translate(367.7180480957031, 74.70401763916016)" style="text-anchor: middle;"><tspan x="0" y="10" style="font-family: Roboto; font-weight: 400; font-stretch: 100%; font-size: 10px; stroke: rgb(255, 255, 255); stroke-width: 2; stroke-linejoin: round; stroke-linecap: round;">N OAK ST.</tspan></text><text transform="rotate(-72.92734064944946, 367.71805, 80.20402) translate(367.7180480957031, 74.70401763916016)" style="text-anchor: middle;"><tspan fill="rgb(136, 136, 136)" x="0" y="10" style="font-family: Roboto; font-weight: 400; font-stretch: 100%; font-size: 10px;">N OAK ST.</tspan></text></g><g id="N-svg 1200-svg EAST-svg RD.-svg"><text transform="rotate(-62.43781340943569, 448.7145690917969, 387.0856018066406) translate(448.7145690917969, 381.5856018066406)" style="text-anchor: middle;"><tspan x="0" y="10" style="font-family: Roboto; font-weight: 400; font-stretch: 100%; font-size: 10px; stroke: rgb(255, 255, 255); stroke-width: 2; stroke-linejoin: round; stroke-linecap: round;">N 1200 EAST RD.</tspan></text><text transform="rotate(-62.43781340943569, 448.71457, 387.0856) translate(448.7145690917969, 381.5856018066406)" style="text-anchor: middle;"><tspan fill="rgb(136, 136, 136)" x="0" y="10" style="font-family: Roboto; font-weight: 400; font-stretch: 100%; font-size: 10px;">N 1200 EAST RD.</tspan></text></g><g id="S-svg CHESTNUT-svg ST.-svg"><text transform="rotate(-73.81692472538953, 266.0514831542969, 320.740478515625) translate(266.0514831542969, 315.240478515625)" style="text-anchor: middle;"><tspan x="0" y="10" style="font-family: Roboto; font-weight: 400; font-stretch: 100%; font-size: 10px; stroke: rgb(255, 255, 255); stroke-width: 2; stroke-linejoin: round; stroke-linecap: round;">S CHESTNUT ST.</tspan></text><text transform="rotate(-73.81692472538953, 266.05148, 320.74048) translate(266.0514831542969, 315.240478515625)" style="text-anchor: middle;"><tspan fill="rgb(136, 136, 136)" x="0" y="10" style="font-family: Roboto; font-weight: 400; font-stretch: 100%; font-size: 10px;">S CHESTNUT ST.</tspan></text></g><g id="ORCHARD-svg STREET-svg"><text transform="rotate(-1.636895122289936, 273.03521728515625, 79.2484130859375) translate(273.03521728515625, 73.7484130859375)" style="text-anchor: middle;"><tspan x="0" y="10" style="font-family: Roboto; font-weight: 400; font-stretch: 100%; font-size: 10px; stroke: rgb(255, 255, 255); stroke-width: 2; stroke-linejoin: round; stroke-linecap: round;">ORCHARD STREET</tspan></text><text transform="rotate(-1.636895122289936, 273.03522, 79.24841) translate(273.03521728515625, 73.7484130859375)" style="text-anchor: middle;"><tspan fill="rgb(136, 136, 136)" x="0" y="10" style="font-family: Roboto; font-weight: 400; font-stretch: 100%; font-size: 10px;">ORCHARD STREET</tspan></text></g><g id="E-svg 8000-svg SOUTH-svg RD.-svg"><text transform="rotate(-1.658920454924223, 595.2550659179688, 163.4449005126953) translate(595.2550659179688, 157.9449005126953)" style="text-anchor: middle;"><tspan x="0" y="10" style="font-family: Roboto; font-weight: 400; font-stretch: 100%; font-size: 10px; stroke: rgb(255, 255, 255); stroke-width: 2; stroke-linejoin: round; stroke-linecap: round;">E 8000 SOUTH RD.</tspan></text><text transform="rotate(-1.658920454924223, 595.25507, 163.4449) translate(595.2550659179688, 157.9449005126953)" style="text-anchor: middle;"><tspan fill="rgb(136, 136, 136)" x="0" y="10" style="font-family: Roboto; font-weight: 400; font-stretch: 100%; font-size: 10px;">E 8000 SOUTH RD.</tspan></text></g></g><g id="Chebanse-svg"><rect width="83.078125" height="37.796875" transform="translate(4.46875, 5.109375)" fill="rgb(255,255,255)" rx="10" style="fill: rgb(255, 255, 255);"/><path d="M 14.46875 5.109375 H 77.546875 a 10 10 0 0 1 10 10 V 32.90625 a 10,10 0 0 1 -10,10 H 14.46875 a 10,10 0 0 1 -10,-10 V 15.109375 a 10,10 0 0 1 10,-10 z" style="fill: none; stroke-width: 1; stroke: rgb(242, 243, 240);"/><text transform="translate(46.0078125, 4.609375)" style="text-anchor: middle;"><tspan fill="rgb(51,51,51)" x="0" y="25" style="font-family: Roboto; font-weight: 400; font-stretch: 100%; font-size: 14px;">Chebanse</tspan></text></g><g id="svg-marker-svg" transform="translate(307, 176)"><g id="svg-id-gMXhMiKyjF-svg" transform="translate(-14, -14)"/></g><rect width="156.96875" height="14" transform="translate(443.03125, 436)" fill="rgba(255,255,255,0.73)" style="fill: rgb(255, 255, 255); fill-opacity: 0.73;"/><text transform="translate(447, 437)"><tspan fill="rgba(119,119,119,0.87)" x="0" y="11" style="font-family: Roboto; font-weight: 400; font-stretch: 100%; font-size: 11px;">©</tspan><tspan fill="rgba(119,119,119,0.87)" dx="2.734375" style="font-family: Roboto; font-weight: 400; font-stretch: 100%; font-size: 11px;">OpenStreetMap</tspan><tspan fill="rgba(119,119,119,0.87)" dx="2.734375" style="font-family: Roboto; font-weight: 400; font-stretch: 100%; font-size: 11px;">contributors</tspan></text></g></g></g></g><g id="container-svg container-footer-svg datawrapper-kFC5L-1la8dcw-svg"><text transform="translate(0, 470)"><tspan fill="rgb(136,136,136)" x="0" y="11" style="font-family: Roboto; font-weight: 400; font-stretch: 100%; font-size: 11px;">Created with</tspan><tspan fill="rgb(136,136,136)" dx="2.734375" style="font-family: Roboto; font-weight: 400; font-stretch: 100%; font-size: 11px;">Datawrapper</tspan></text></g></g></g></g></svg>