<svg xmlns="http://www.w3.org/2000/svg" xmlns:xlink="http://www.w3.org/1999/xlink" id="exportSvg" width="600" height="600"><defs/><g><g id="__svelte-dw-svg" clip-path="url(#rect-mask-qun0mOn-23PwBJgGtypcP)"><clipPath id="rect-mask-qun0mOn-23PwBJgGtypcP"><rect x="0" y="0" width="600" height="600"/></clipPath><g id="container-svg container-body-svg datawrapper-zia5N-1gvfeww-svg"><g id="container-svg container-bodyTop-svg datawrapper-zia5N-lmtz6e-svg"><g id="container-svg container-bodyCenter-svg datawrapper-zia5N-1fgvipr-svg"><g id="chart-svg"><g id="container-inner-svg export-group-svg maplibregl-map-svg" clip-path="url(#rect-mask--M8yV793o3IcEVSOYGVAp)"><clipPath id="rect-mask--M8yV793o3IcEVSOYGVAp"><rect x="0" y="0" width="600" height="567"/></clipPath><g id="basemap-svg" clip-path="url(#rect-mask-akhFzRcEhUBUcS5HvEHl6)"><clipPath id="rect-mask-akhFzRcEhUBUcS5HvEHl6"><rect x="0" y="0" width="600" height="567"/></clipPath><rect width="600" height="567" transform="translate(0, 0)" fill="rgb(255,255,255)" id="background" style="fill: rgb(255, 255, 255);"/><path d="M457.921,96.274L456.593,97.336L455.2,100.257L454.005,103.243L453.54,105.5L453.607,109.483L453.208,112.138L451.748,116.784L451.482,119.041" stroke="rgb(231,231,231)" id="road_path" transform="translate(0.5, 0)" style="fill: none; stroke-width: 0.712832; stroke-linejoin: bevel; stroke-linecap: square; stroke-dasharray: 0.556182, 1.39045; stroke: rgb(231, 231, 231);"/><path d="M76.392,36.602L63.648,35.208L50.041,31.956L25.349,34.08L22.163,36.602L19.243,41.979L20.172,46.758M21.234,38.261L19.243,41.979L21.433,53.13L21.035,70.056L19.973,70.719L19.243,75.034L17.119,79.348L11.012,81.87L2.45,81.539L-32,72.843M376.677,30.761L379.133,30.827M279.768,37.199L274.325,37.465L270.077,37.73L267.356,37.863L262.975,37.93L258.329,37.93M206.688,46.758L206.688,30.827M206.887,102.513L206.755,91.229L206.755,72.777L206.688,59.635L206.688,38.261M280.963,46.758L280.764,39.854L279.768,37.199M288.397,318.633L287.8,299.517L287.534,292.282L287.136,283.056L286.007,250.532L285.875,241.77L285.675,233.407L285.476,224.91L284.813,201.214L284.082,176.987L283.485,156.344L282.489,116.519L281.958,92.623L281.627,68.794L280.764,39.854L280.166,38.261M288.994,347.175L288.596,326.001L288.131,310.137M235.694,46.758L235.163,38.129M237.951,102.779L237.619,97.402L237.088,73.441L237.022,68.131L236.425,58.639L236.026,52.731L235.163,38.261M279.768,37.199L282.29,37.133L307.447,36.602L317.934,36.602L320.921,36.536L344.352,41.182L349.463,40.85L350.989,39.987L362.937,30.628L376.677,30.761M379.133,30.827L381.39,30.761L385.638,30.695M379.133,30.827L381.39,30.761L395.328,30.628L398.448,30.495L400.572,30.23L401.833,29.633L403.094,28.371L403.825,26.911L405.152,18.083L405.019,14.167L404.356,11.114L403.028,5.472L403.294,3.613L404.09,1.755L406.546,-1.166L406.812,-1.365L407.542,-2.029L410.529,-3.29L412.387,-3.754L417.033,-4.684L422.078,-5.945L424.866,-6.542L427.919,-6.41L431.636,-6.21L438.805,-3.688L448.097,2.418L448.164,13.902L445.973,19.278L440.995,22.929L432.764,24.721L424.136,22.53L420.219,22.53L418.162,24.721M577.066,46.758L577.331,36.536L577.331,32.951L577.132,-24.065L577.464,-39.066L577.464,-40.527L578.659,-83.605M576.269,318.633L575.937,297.127L575.805,289.959L575.672,281.728L575.539,273.099L575.672,266.13L575.871,262.015L575.871,261.218L576.336,232.876L576.004,220.862L575.605,187.474L575.738,175.46L576.136,112.005L576.667,71.184L576.933,52.2L577.265,38.261M576.269,320.226L576.136,310.137M258.329,37.93L249.235,37.996L243.195,38.062L235.163,38.129M249.235,37.996L247.177,36.27L244.058,33.549L242.531,32.42L240.54,31.624L238.084,31.026L235.23,30.827L229.853,30.562L226.402,30.562L206.688,30.827L205.626,30.429L202.573,29.832L157.57,29.566M243.195,38.062L243.129,46.758M243.195,38.261L243.129,48.948L243.129,58.572M410.529,-3.29L411.723,1.224L412.586,4.874M267.754,46.758L267.356,37.863L265.232,8.857L265.165,8.326L264.701,-21.012L264.701,-23.667L265.033,-25.725L265.298,-27.119L265.895,-28.645L266.692,-30.238L267.953,-32.163L271.206,-36.942L271.67,-39.929L271.737,-50.749L271.006,-84.932L271.471,-86.923M269.546,87.38L269.082,86.45L268.882,69.392L267.356,38.261M422.078,-5.945L423.074,2.153L422.808,4.742L422.543,7.529M282.29,37.133L281.029,26.845L280.631,26.38L279.834,26.247L276.449,26.646L275.254,26.778L274.524,27.243L273.661,27.973L270.608,31.425L270.276,31.956L270.21,32.553L270.077,37.73M276.449,26.646L274.325,37.465M562.397,33.084L563.99,34.943L566.379,36.337L569.366,37.266L570.229,37.067L570.826,36.27L571.291,35.275L571.291,32.951M577.331,32.951L566.313,32.951L562.397,33.084L558.149,32.819L554.1,32.42L551.179,31.425L547.728,30.628L540.161,30.695L528.545,30.628L527.284,30.761M317.934,36.602L321.518,41.647L323.576,45.762L323.974,46.758M319.129,38.261L321.518,41.647L323.576,45.762L325.302,50.342M97.765,145.127L98.695,148.445L98.031,169.354L98.429,172.075L101.549,176.854L107.39,188.47L113.762,198.891M105.266,184.222L107.39,188.47L114.758,200.551L120.599,201.944L141.175,201.745L143.963,204.732L144.228,222.786L144.295,279.936L144.295,287.702L144.096,302.57L144.096,310.004L144.228,317.173L144.228,318.633M144.096,310.137L144.228,317.173L144.228,351.157M113.762,331.112L108.85,331.046L108.518,329.453L108.253,323.213M116.55,331.112L108.85,331.046L108.518,329.453L108.253,323.213M60.595,590.509L60.396,562.034L60.329,554.865L60.396,525.859L60.396,442.823L60.329,436.716L60.993,434.725L62.321,434.326M97.765,145.127L92.123,144.728L63.051,144.529L38.027,144.861M97.765,145.127L100.553,143.799L105.266,143.467L113.762,143.866M105.266,143.467L118.873,144.131M62.321,434.326L72.808,434.393L79.91,434.127L87.145,434.194L113.762,434.194M105.266,434.194L144.693,434.194L173.301,434.061M60.396,562.034L48.183,562.034L36.301,557.188L30.128,547.63L29.531,544.245M76.392,36.602L63.648,35.208L50.041,31.956L25.349,34.08L22.163,36.602L19.243,41.979L20.172,46.758M21.234,38.261L19.243,41.979L21.433,53.13L21.035,70.056L19.973,70.719L19.243,75.034L17.119,79.348L11.012,81.87L2.45,81.539L-32,72.843M66.237,484.175L67.498,483.71L68.294,483.245L69.356,482.183L69.622,481.321L69.887,479.064M60.396,484.839L62.188,484.839L65.308,485.038L65.971,484.905L66.237,484.706L66.303,484.44L66.303,484.175L66.237,484.175L66.17,483.909L65.971,483.71L65.573,483.511L64.312,483.378L60.396,483.245M87.145,434.194L87.145,438.641L87.477,439.902L88.34,440.566L89.734,440.765L91.128,440.499L91.858,439.371L91.791,437.38L91.791,434.194M87.477,439.902L86.88,441.23L86.548,442.623L86.415,444.548L86.415,447.203M70.817,353.281L70.75,356.866L70.75,359.587L69.688,361.711L68.825,362.906L67.963,363.835L67.1,364.034L63.648,364.034M76.326,353.082L76.459,351.025L76.658,350.295L77.454,349.83L78.45,349.631L84.357,349.631L84.955,349.299L85.353,348.635L85.088,340.936M61.391,353.746L61.059,356.335L60.86,359.587L60.927,360.649L61.059,362.441L60.927,362.84L60.528,363.171L60.13,363.371L59.599,363.039L59.4,362.574L59.466,361.844L59.798,360.848L60.86,359.587M174.164,318.633L174.164,316.841L173.965,308.677L173.235,286.574M174.297,329.253L174.164,316.841L174.031,310.137M577.066,46.758L577.331,36.536L577.331,32.951L577.132,-24.065L577.464,-39.066L577.464,-40.527L578.659,-83.605M576.269,318.633L575.937,297.127L575.805,289.959L575.672,281.728L575.539,273.099L575.672,266.13L575.871,262.015L575.871,261.218L576.336,232.876L576.004,220.862L575.605,187.474L575.738,175.46L576.136,112.005L576.667,71.184L576.933,52.2L577.265,38.261M576.269,320.226L576.136,310.137M519.252,362.574L556.688,362.64M291.45,444.747L291.384,437.512L291.384,436.517L291.517,434.459L291.583,432.8L291.251,428.087L290.72,408.772L290.056,388.328L289.592,368.083L288.994,347.175M420.95,302.106L429.18,301.774L437.212,301.442M388.625,210.042L403.028,210.573M518.987,342.197L518.788,331.245L518.655,320.625M334.13,511.721L334.329,523.668L334.196,550.75L334.064,559.711L334.13,561.436L334.263,562.631L334.661,564.29L335.325,566.414L336.254,568.671L336.918,570.198L337.05,571.127L337.05,572.455L336.785,573.583L336.188,575.043L335.192,576.238L333.931,577.234L332.603,578.097L328.753,580.486M281.958,92.623L281.427,91.362L280.83,90.234L279.768,89.105L278.308,88.442L276.648,88.243L274.591,88.243L272.334,88.309L270.542,88.11L269.546,87.38M144.295,287.702L158.765,287.105L165.535,286.839L173.235,286.574L173.633,286.574L194.077,285.644L202.772,285.445L211.865,285.18L220.03,284.914L229.256,284.715L238.15,284.582L246.846,284.45L255.474,284.251L264.369,284.051M496.419,494.861L469.869,495.26L451.881,495.193L439.137,495.127L429.645,494.994L413.449,494.729L405.683,493.866M333.931,493.136L333.267,469.041L332.537,444.548M259.855,186.612L245.983,185.749M228.459,188.005L218.769,187.939L210.472,187.939L172.836,187.873M243.195,38.062L243.129,46.758M243.195,38.261L243.129,48.948L243.129,58.572M421.149,318.633L421.016,305.756L420.95,302.106L421.016,289.693L420.95,279.339L420.419,262.546M421.215,322.284L421.082,310.137M243.129,48.948L258.661,47.886M175.691,590.509L174.828,554.201L174.894,525.195L173.699,500.238L173.5,496.322M344.883,202.144L344.75,193.116L344.485,179.642L343.423,177.784M265.298,326.466L256.47,326.798L247.974,327.063L239.08,327.329L230.517,327.528L221.424,327.793L212.795,328.059L204.1,328.391L195.139,328.722L174.297,329.253L144.228,330.249M144.228,330.249L133.94,330.515L116.55,331.112L116.351,330.183M252.222,468.709L243.593,468.842M447.367,425.034L446.77,404.789L446.836,393.572L446.836,384.677L446.703,351.29M144.228,351.157L143.897,367.088M385.638,250.001L367.65,249.801M388.625,250.001L377.141,249.868M196.997,405.785L196.865,404.258L196.798,398.483L196.599,391.049L196.533,383.748L196.466,376.181L195.803,350.958L195.736,349.697M159.429,316.974L159.362,309.938L159.163,302.172L158.765,287.105M159.429,316.974L159.362,310.137M267.754,46.758L267.356,37.863L265.232,8.857L265.165,8.326L264.701,-21.012L264.701,-23.667L265.033,-25.725L265.298,-27.119L265.895,-28.645L266.692,-30.238L267.953,-32.163L271.206,-36.942L271.67,-39.929L271.737,-50.749L271.006,-84.932L271.471,-86.923M269.546,87.38L269.082,86.45L268.882,69.392L267.356,38.261M275.918,318.633L275.122,283.189L275.122,279.604L274.126,250.93L273.595,234.137L272.467,207.055M276.781,347.507L276.117,326.266L275.719,310.137M431.902,384.744L431.902,372.862L431.835,368.681L431.902,351.556M385.704,202.343L385.239,186.412M389.487,280.334L389.156,267.258L389.089,260.687L388.625,250.001L388.757,232.411L388.691,224.844L388.625,217.211L388.625,210.042L388.293,202.542M345.148,304.827L358.158,304.96L385.638,304.097M377.141,304.362L404.024,303.5M405.351,460.611L410.462,458.952L411.723,458.155L414.71,456.894L417.631,456.098L421.016,456.164L423.538,457.492L427.123,461.341L429.91,462.536L435.021,463.665L448.894,465.457M300.477,492.073L299.681,469.838L299.083,445.478M158.831,373.194L158.964,352.087L158.964,350.759M538.169,296.862L537.439,297.858L536.576,298.322L535.249,298.853L534.452,299.252L533.656,299.783L532.793,300.513L531.864,301.508L531.266,302.238L530.735,303.433L530.403,305.358M314.217,318.633L313.753,298.787L313.686,293.61L313.62,291.618L313.155,282.392L312.093,249.801L312.027,240.973L311.761,232.676L311.496,224.18L310.766,201.546L310.035,177.053L309.504,156.477L309.04,142.405M315.279,346.511L314.35,325.404L314.018,310.137M315.611,367.154L358.822,365.827M657.513,319.695L634.083,319.828L620.144,319.894L614.502,319.961L598.306,320.027L576.269,320.226L555.494,320.359M268.882,69.392L281.627,68.794M174.031,350.361L174.031,349.166L174.297,329.253M194.873,318.633L194.608,308.212L194.077,285.644L193.878,278.476L193.081,252.788L193.081,244.093L193.015,220.729M195.736,349.697L195.139,328.722L194.674,310.137M114.492,351.954L114.625,357.065M385.638,493.799L382.651,493.799L368.114,493.733L348.002,493.335L340.701,493.268L333.931,493.136L326.563,493.136L319.328,493.069L309.04,492.936L302.402,492.87L300.477,492.073M405.683,493.866L382.651,493.799L377.141,493.799M564.056,494.264L545.67,494.397L537.97,494.463L518.721,494.861L496.419,494.861M265.165,318.633L264.966,306.42L264.369,284.051L263.572,264.271L263.174,250.863L262.311,219.999L261.714,188.205L260.917,187.342L259.855,186.612M266.36,347.905L265.298,326.466L265.033,310.137M300.676,346.777L299.88,325.868M347.339,468.709L339.971,468.908L339.838,468.908L333.267,469.041L326.231,469.24L318.532,469.373L308.31,469.638L299.681,469.838M385.638,232.411L367.65,232.477L353.512,232.345L346.343,232.212L332.736,232.278L311.761,232.676L285.675,233.407L279.503,233.805L273.595,234.137M534.519,233.274L520.513,233.207L517.792,233.207L512.88,233.141L470.068,233.34L461.439,233.407L440.265,233.075L425.795,233.141L403.559,232.809L388.757,232.411L377.141,232.477M290.72,408.772L302.269,408.307L316.806,408.108L348.865,407.112L355.304,407.311L362.738,407.511L365.061,407.577L373.69,407.71L376.743,407.776L383.713,407.975L385.638,407.975M377.141,407.776L383.713,407.975L397.984,407.975L404.82,408.042M519.916,403.196L556.622,402.997L571.822,402.931M172.77,159.331L210.339,159.265L228.26,158.8L231.115,159.796M206.688,46.758L206.688,30.827M206.887,102.513L206.755,91.229L206.755,72.777L206.688,59.635L206.688,38.261M345.082,281.662L345.082,295.667M385.638,202.343L358.623,202.343L352.383,202.21L346.011,202.144L344.883,202.144L331.74,202.011L321.319,201.812L310.766,201.546M403.161,202.475L388.293,202.542L385.704,202.343L377.141,202.343M212.596,318.633L212.397,307.681L211.865,285.18L211.666,278.078L210.87,252.324L210.803,244.093L210.538,220.53L210.538,211.967L210.472,187.939L210.405,173.801L210.339,159.265M213.392,349.233L213.392,347.971L212.795,328.059L212.463,310.137M583.836,494.397L583.902,484.042L584.102,481.984L584.633,480.723L585.894,479.329L586.557,478.135L586.757,476.276L586.757,457.89L586.292,456.961L585.23,456.496L575.539,456.43L564.122,456.363M446.703,351.29L446.571,321.421M362.738,407.511L362.672,398.284L362.539,387.2L362.074,365.827M358.822,365.827L358.954,344.785M278.042,417.401L275.852,410.298L275.653,388.726L275.454,380.296L275.653,378.637L276.25,376.712L277.047,374.455L277.312,372.862L277.445,368.349L276.781,347.507M346.409,444.017L340.834,444.283L339.108,444.349L332.537,444.548L325.567,444.814L317.868,445.212L307.779,445.345L299.083,445.478L292.844,445.61L291.45,444.747L281.029,444.283M343.423,177.784L341.962,177.319L330.612,177.319L320.39,177.186L310.035,177.053L296.827,177.053L284.082,176.987M490.18,341.998L490.18,320.824M348.002,521.412L367.451,513.845L367.915,504.353L368.114,493.733M657.513,494.131L583.836,494.397L564.056,494.264M264.966,306.42L256.138,306.619L247.642,306.885L239.212,307.084L238.549,307.084L229.986,307.283L221.092,307.482L212.397,307.681L203.369,307.947L194.608,308.212L173.965,308.677M231.845,376.181L222.95,376.314L214.122,376.248L196.466,376.181L185.581,376.181L173.965,376.248M404.223,318.633L404.156,312.726L404.024,303.5L404.024,287.304L404.09,280.268L404.09,261.019L403.957,254.514L404.024,248.54L403.891,241.173L403.559,232.809L403.028,210.573L403.161,202.475L403.227,190.528L404.289,189.134L407.475,188.271M404.356,343.325L404.356,341.666L404.289,332.771L404.223,322.948L404.156,312.726L404.09,310.137M348.069,564.556L349.994,564.954L351.653,565.352L353.313,566.083L354.574,567.277L356.034,569.335L368.513,590.509M257.665,102.845L237.951,102.779L227.995,102.779M227.995,102.779L219.698,102.646L214.72,102.58L206.887,102.513M461.904,351.622L459.912,351.556L446.703,351.29L438.805,351.423L431.902,351.556L404.422,351.688M385.638,343.79L376.013,344.321L366.853,344.52L358.954,344.785L327.559,346.047L325.899,346.113L315.279,346.511L306.982,346.644L300.676,346.777L288.994,347.175L282.423,347.374L276.781,347.507M404.356,343.325L385.969,343.79L377.141,344.254M555.626,341.599L518.987,342.197L490.18,341.998L461.904,342.13M413.316,506.145L411.192,506.012L407.94,505.813L404.09,505.614L401.435,505.481L399.842,505.548L399.112,505.614M399.112,505.614L398.183,506.61L397.187,507.871L396.125,509.663L395.262,511.389L394.864,512.65L394.731,513.712L394.864,514.907M431.171,486.896L430.176,484.839L427.322,481.188M461.904,351.622L463.098,352.352L464.691,352.618L490.379,352.485L514.009,352.286L519.186,352.485M500.8,303.964L500.601,279.737L500.601,278.343L501.065,277.215L501.53,276.418L501.795,275.887L501.862,275.356L501.729,275.091L501.397,274.825L500.866,274.56L500.402,274.56L499.937,274.759L499.605,275.024L499.539,275.555L499.738,276.219L500.601,278.343M358.423,318.633L358.357,314.053L358.158,304.96L357.959,295.999L357.826,288.631L357.693,281.197M358.954,344.785L358.755,333.701L358.556,323.943L358.357,314.053L358.291,310.137M490.644,401.006L490.379,352.485L490.18,341.998M537.97,494.463L537.638,503.092L537.107,504.818L533.921,509.066L532.395,511.654L532.328,514.309L532.461,527.054L532.461,532.231M431.902,384.744L419.29,384.943L404.621,384.943M519.518,382.819L556.556,382.885M432.167,424.967L431.702,404.789L431.902,384.744M236.358,492.804L242.332,492.936L244.323,492.538L245.85,491.874L247.708,491.011L249.368,489.883L251.226,487.825L252.222,486.432L252.222,468.709L250.43,410.033L249.899,389.655L249.7,371.601M564.056,494.264L564.122,456.363L564.056,449.46L564.322,442.358L557.75,440.964L557.352,438.707L558.812,421.848M173.168,253.386L193.081,252.788L201.909,252.523L210.87,252.324L219.499,252.058L228.725,251.793L239.146,251.527L245.983,251.328L263.174,250.863M367.583,267.723L367.583,260.488L367.65,249.801L367.65,232.477L367.517,224.645L367.451,217.078L367.185,202.343L367.185,191.988L366.72,189.068L366.256,187.275L365.725,185.483L365.194,183.824L365.061,181.766L364.796,181.434L364.331,181.235L363.933,181.302L363.534,181.766L363.601,182.297L363.999,182.895L365.194,183.824M252.222,486.432L253.749,486.631L255.342,486.1L257.598,484.042L262.245,479.13L266.36,473.555L269.148,468.576L270.343,465.125L271.073,461.076M429.91,462.536L433.893,453.111L437.61,447.867M496.419,494.861L496.153,489.618L496.087,488.356L495.622,487.693L494.826,487.361L492.702,487.162L478.232,486.896L470.532,486.896M429.645,494.994L429.645,492.206L429.91,490.082L431.171,486.896L432.831,484.839M302.269,408.307L301.805,388.062L301.207,367.685L300.676,346.777M267.09,389.191L266.36,347.905M258.926,58.307L247.377,58.506L243.129,58.572L236.425,58.639M262.311,219.999L254.612,220.131L245.916,220.331L237.022,220.264L228.459,220.198L219.3,220.397L210.538,220.53L193.015,220.729L192.484,220.729L182.527,220.662L173.102,220.596M247.841,73.374L247.908,84.725M97.765,145.127L100.553,143.799L105.266,143.467L113.762,143.866M105.266,143.467L118.873,144.131M228.194,143.6L212.662,143.6M376.743,407.776L376.677,398.218L376.61,387.266L376.212,365.495L376.079,352.817L376.013,344.321M461.837,424.967L462.036,405.918L461.771,384.611L461.97,370.871L461.904,351.622L461.904,342.13M247.841,318.633L247.642,306.885L246.846,284.45L245.983,251.328L245.983,245.819L245.916,220.331L245.983,185.749L245.916,165.239M248.837,348.303L247.974,327.063L247.708,310.137M247.841,73.374L247.377,58.506M265.298,326.466L269.944,326.399L270.741,326.466L276.117,326.266M390.815,407.975L390.616,387.664L390.284,365.03M283.485,156.344L296.229,156.411L309.504,156.477M173.633,286.574L173.5,279.073L173.168,253.386L172.969,235.464L173.102,220.596L172.836,187.873L172.836,173.602L172.77,159.331L172.969,144.662M346.343,232.212L346.21,224.379L346.144,216.945L346.011,202.144M275.122,283.189L280.896,283.122L287.136,283.056L313.155,282.392L333.864,281.927L345.082,281.662L354.242,281.264L357.693,281.197L385.638,280.467M377.141,280.666L389.487,280.334L404.09,280.268L412.453,279.803L420.95,279.339L429.313,279.14L436.415,279.206L441.061,279.471L443.119,280.069M405.683,493.866L405.418,470.501L405.418,466.452L405.351,462.005L405.351,460.611L405.285,454.903L405.152,441.03L405.086,436.782L405.019,425.963L405.019,425.565L404.82,408.042L404.82,405.121L404.621,387.93L404.621,384.943L404.488,372.929M519.85,428.817L522.173,429.149L524.961,429.016L528.611,428.817L541.09,429.282M530.47,318.633L530.669,314.717L531.465,310.934L531.532,309.872L531.598,307.947L531.067,306.486L530.403,305.358L529.541,304.96L528.877,305.026L526.952,305.358L524.629,305.889L520.182,307.15L518.721,307.482L517.062,307.548L515.071,307.349L513.411,307.017L510.159,305.624L506.906,304.628L503.986,304.163L500.8,303.964L491.706,304.097L483.741,304.031L481.219,303.898L478.896,303.765L475.444,303.632L472.125,303.632L469.47,303.699L467.147,303.898L464.227,304.23L461.771,304.562M530.403,320.492L530.669,314.717L531.465,310.934L531.532,310.137M315.611,367.154L315.279,346.511M280.963,46.758L280.764,39.854L279.768,37.199M288.397,318.633L287.8,299.517L287.534,292.282L287.136,283.056L286.007,250.532L285.875,241.77L285.675,233.407L285.476,224.91L284.813,201.214L284.082,176.987L283.485,156.344L282.489,116.519L281.958,92.623L281.627,68.794L280.764,39.854L280.166,38.261M288.994,347.175L288.596,326.001L288.131,310.137M404.488,372.929L404.422,364.831L404.422,351.688L404.356,343.325M173.5,496.322L173.5,492.936L173.301,434.061L172.969,420.653L173.235,403.329L173.832,391.78L173.965,376.248L174.031,351.556L174.031,350.361M310.766,201.546L297.49,201.413L284.813,201.214M358.822,365.827L362.074,365.827L367.716,365.694L369.376,365.627L376.212,365.495L383.58,365.229L385.638,365.163M377.141,365.428L383.58,365.229L390.284,365.03L404.422,364.831M431.902,372.862L418.626,372.929L404.488,372.929M276.781,347.507L271.405,347.706L270.675,347.772L266.36,347.905L248.837,348.303L240.009,348.436L232.708,348.635L231.115,348.702M228.26,158.8L228.194,143.6L228.194,121.497L227.995,110.147L227.995,102.779M474.249,424.702L474.249,405.785L474.449,400.939M62.321,434.326L72.808,434.393L79.91,434.127L87.145,434.194L113.762,434.194M105.266,434.194L144.693,434.194L173.301,434.061M348.135,504.088L367.915,504.353M235.694,46.758L235.163,38.129M237.951,102.779L237.619,97.402L237.088,73.441L237.022,68.131L236.425,58.639L236.026,52.731L235.163,38.261M174.164,316.841L166.531,316.907L159.429,316.974L144.228,317.173M332.271,216.879L346.144,216.945L367.451,217.078L385.638,217.211M377.141,217.145L388.625,217.211M215.583,419.193L215.383,412.091L215.184,405.187L214.852,398.019L214.521,390.518L214.321,383.217L214.122,376.248L213.459,350.427L213.392,349.233M233.106,410.232L232.774,409.037L232.575,404.723L232.442,397.621L232.309,390.054L232.11,382.752L231.845,376.181L231.845,369.809M357.959,295.999L385.638,294.937M377.141,295.269L395.196,294.605L404.024,294.539M477.568,371.203L461.97,370.871M477.568,367.818L477.568,371.203L477.635,376.579M197.064,411.958L197.064,409.104L196.997,405.785M412.918,517.296L413.316,509.929L413.316,506.145L413.449,494.729M576.336,232.876L570.362,232.942L565.782,233.141L536.776,233.274L534.519,233.274M489.981,318.633L489.25,311.929M490.18,320.824L489.25,311.929M382.651,493.799L382.252,469.838M116.351,330.183L116.284,320.16M576.667,71.184L583.371,70.653L589.212,68.595L591.735,65.011L592.863,61.36M446.903,590.509L442.323,583.672L420.95,557.055L416.502,556.259L413.715,556.458L409.798,557.387L409.002,558.317L407.143,559.18L407.011,581.88L407.21,590.31L407.21,590.509M407.143,559.18L407.011,555.462L407.21,548.759L408.604,537.01L408.936,535.218L409.135,533.227L410.661,524.465L411.723,520.615L412.918,517.296L420.02,518.093L423.074,518.889L424.866,520.881L425.861,524.664L426.193,535.55L426.724,540.063L428.782,544.577L443.252,561.104L444.646,563.693L445.177,565.883L445.243,568.14L444.181,574.645L444.181,582.544L442.323,583.672M483.144,590.509L483.343,581.216L479.692,555.861L477.966,543.847L474.05,538.138L468.674,539.2L464.028,542.055L455.797,536.678L455.067,532.563L458.651,525.195M407.011,555.462L401.236,548.825L395.859,544.643L393.204,543.249L389.819,541.988M385.638,579.69L385.239,578.827L381.456,569.8L379.465,564.954L378.137,562.697L375.084,559.047L372.097,555.197L370.57,552.94L369.044,549.754L367.782,546.435L367.451,543.714L367.451,541.723L368.048,540.196L368.911,538.935L370.172,537.806L372.031,537.275L373.889,537.275L377.009,538.337L385.438,541.125L385.638,541.192M392.873,590.509L391.08,588.65L388.956,585.929L386.965,582.544L385.239,578.827L381.456,569.8L379.465,564.954L378.137,562.697L377.141,561.503M377.141,538.404L385.438,541.125L389.819,541.988L391.877,541.524L393.669,540.462L395.395,539.267L397.585,537.74L399.444,536.545L401.634,535.616L403.294,535.284L405.949,535.218L408.936,535.218L410.064,535.815L411.922,540.063L414.644,548.559L419.489,555.064L420.95,557.055M113.762,331.112L108.85,331.046L108.518,329.453L108.253,323.213M116.55,331.112L108.85,331.046L108.518,329.453L108.253,323.213M464.028,542.055L471.329,555.794L472.258,557.52L473.652,590.509M333.864,281.927L333.267,249.27L332.736,232.278L332.471,223.716L332.271,216.879M332.271,216.879L332.205,214.357L331.74,202.011L331.342,193.316L330.612,177.319L330.413,148.246M419.025,425.167L418.958,404.988L419.29,384.943M309.239,549.29L309.637,546.701L309.504,522.938L309.04,492.936M391.147,505.282L391.479,505.946L391.943,506.676L392.607,507.274L393.669,507.738L394.598,507.672L395.66,507.274L396.922,506.477L398.116,505.946L399.112,505.614M421.149,88.176L420.618,87.38L420.352,86.384L420.883,85.853L421.613,85.853L422.144,85.986L422.343,86.782L422.078,87.446L421.149,88.176L420.95,91.163L421.547,111.275L422.012,123.886L422.277,125.811L422.675,127.205L430.707,137.493L432.831,140.879L435.619,145.127L437.278,146.919L438.539,148.18L438.871,149.375L439.535,155.415L439.535,157.141L439.468,158.734L437.809,167.363L437.212,170.681L437.079,174.133L438.141,185.948L438.606,192.254L438.871,196.103L439.269,198.36L442.455,206.856L442.654,207.918L442.721,208.383L442.721,209.976L441.128,215.352L440.53,217.676L440.265,218.937L440.398,231.747L440.265,233.075M438.539,148.18L439.137,146.72L439.601,145.724L441.194,144.065L443.385,142.339L444.845,140.613L445.509,139.02L446.239,136.498L451.482,119.041L453.076,118.908L478.896,118.576M347.339,468.709L351.454,468.576L353.047,469.174L353.445,470.037L353.379,475.48L353.844,476.807L354.972,477.604L356.432,478.068L369.575,478.4L371.234,477.736L372.23,476.409L372.362,474.019L372.031,471.63L371.101,470.435L369.641,469.97L353.445,470.037M333.466,260.156L346.542,260.289L353.777,260.355L367.583,260.488L385.638,260.687M377.141,260.554L389.089,260.687L404.09,261.019M319.594,550.352L315.08,550.352L311.097,550.02L309.239,549.29L308.442,548.958L305.655,547.232L303.597,546.502L300.676,545.572L299.216,545.572M556.356,421.848L556.622,402.997L556.556,382.885L556.688,362.64L556.423,345.449L555.626,341.599L555.56,330.913L555.494,320.359M385.638,387.531L383.912,387.465L376.61,387.266L369.84,387.266L362.539,387.2L355.437,387.067L354.972,387.067L348.467,387L332.006,387.133L316.275,387.598L308.31,387.863L301.805,388.062L290.056,388.328L275.653,388.726L272.533,388.992L271.869,388.992M404.621,387.93L397.984,387.797L390.616,387.664L383.912,387.465L377.141,387.266M404.82,405.121L412.254,405.055L418.958,404.988L426.127,404.856L431.702,404.789L439.867,404.922L446.77,404.789M249.368,366.889L248.837,348.303M97.765,145.127L98.695,148.445L98.031,169.354L98.429,172.075L101.549,176.854L107.39,188.47L113.762,198.891M105.266,184.222L107.39,188.47L114.758,200.551L120.599,201.944L141.175,201.745L143.963,204.732L144.228,222.786L144.295,279.936L144.295,287.702L144.096,302.57L144.096,310.004L144.228,317.173L144.228,318.633M144.096,310.137L144.228,317.173L144.228,351.157M228.526,174L219.499,173.668L210.405,173.801L172.836,173.602M259.258,73.308L247.841,73.374L237.088,73.441M271.869,388.992L267.09,389.191L258.329,389.456L249.899,389.655L240.606,389.855L232.309,390.054L214.521,390.518L196.599,391.049L173.832,391.78M159.163,302.172L144.096,302.57M348.002,523.536L334.329,523.668L326.43,523.403L319.594,523.204L309.504,522.938M333.267,249.27L312.093,249.801L286.007,250.532L279.901,250.731L274.126,250.93M461.771,318.633L461.771,304.562L462.302,287.038L462.501,276.684L462.435,273.299L462.036,269.781L461.704,267.59L461.041,261.749L461.173,260.355L461.107,258.497L461.505,239.181L461.439,233.407M461.904,342.13L461.837,331.046L461.771,320.89L461.771,310.137M347.803,590.509L347.737,588.252L348.069,564.556L348.002,550.949L348.002,521.412L348.135,504.088L348.002,493.335L347.339,468.709L347.14,462.536L346.409,444.017L346.409,440.699L347.206,439.106M349.264,426.76L348.865,407.112L348.467,387M352.383,202.21L352.184,187.674M354.242,281.264L353.844,268.055L353.777,260.355L353.512,232.345M348.002,550.949L334.196,550.75L319.594,550.352M461.771,384.611L446.836,384.677L438.805,384.677L431.902,384.744M385.638,323.346L358.556,323.943L349.795,324.142L314.35,325.404L306.252,325.669L299.88,325.868L293.906,325.935L288.596,326.001L281.958,326.134L276.117,326.266M555.494,320.359L549.121,320.425L530.403,320.492L518.655,320.625L490.18,320.824L461.771,320.89L446.571,321.421L431.503,321.886L429.512,321.952L421.215,322.284L412.52,322.616L404.223,322.948L377.141,323.545M144.096,310.004L159.362,309.938M474.249,405.785L462.036,405.918M431.902,351.556L431.636,332.24L431.503,321.886M519.85,428.817L519.85,422.113L519.916,403.196L519.651,388.859L519.518,382.819L519.385,373.128L519.252,362.574L519.186,352.485L518.987,342.197M291.251,428.087L317.403,427.423L349.264,426.76M405.019,425.565L412.387,425.366L419.025,425.167L426.061,425.034L432.167,424.967L439.668,424.967L447.367,425.034L461.837,424.967L474.249,424.702L478.431,424.304L482.347,423.905L490.711,422.843L497.016,421.848L507.172,421.848L519.85,422.113L556.356,421.848L558.812,421.848L575.008,421.715M565.782,233.141L565.848,235.863L565.915,238.783L565.981,241.504M510.159,305.624L510.225,297.592L510.225,296.198L511.154,294.804L511.752,294.008L512.416,293.41L515.734,290.025L516,289.494L516.199,288.963L516.398,284.649L516.199,275.489L516.199,270.975L516.332,270.511L516.73,270.046L517.195,269.316L517.327,268.851L517.261,268.32L516.929,267.922L516.531,267.657L516.199,267.59L515.867,267.657L515.535,267.856L515.402,268.254L515.402,268.785L515.602,269.382L515.933,270.312L516.199,270.975M429.313,279.14L429.313,278.078L428.915,265.665L428.915,263.674L428.384,262.745L427.587,262.347L420.419,262.546L418.56,262.214L404.09,262.081M353.844,268.055L367.583,267.723L385.638,267.325M377.141,267.524L389.156,267.258M264.236,409.435L258.992,409.635L250.43,410.033L241.071,410.365L234.101,410.63L233.106,410.232M196.997,405.785L215.184,405.187L232.575,404.723M280.365,472.891L279.901,446.009L281.029,444.283L287.269,439.305L291.384,437.512M230.451,353.348L227.066,353.348L222.287,353.481M226.999,349.697L226.999,350.095L227.066,353.348M231.247,353.348L230.451,353.348M227.995,348.768L227.928,347.839M225.141,342.728L227.796,342.728L230.119,342.661M227.928,347.839L227.928,347.44L227.796,342.728M230.119,342.661L230.915,342.595M532.461,532.231L532.859,548.692L533.457,558.781M315.744,538.868L319.594,538.868M309.637,546.701L311.96,546.767M313.952,538.802L312.823,539.001L312.226,539.4L311.96,540.262L311.96,546.767L314.284,546.767L315.213,546.303L315.677,545.506L315.744,538.868L313.952,538.802M401.767,470.568L405.418,470.501M402.165,441.03L405.152,441.03M401.9,466.519L405.418,466.452M401.9,454.969L405.285,454.903M401.767,462.005L405.351,462.005M382.252,469.838L382.252,468.311L382.12,464.262L381.257,453.907L381.124,452.912L380.062,446.805L379.597,445.079L378.867,444.15L377.805,443.553L374.221,443.42L363.07,442.889M382.252,469.838L382.252,468.311L382.12,464.262L381.257,453.907L381.124,452.912L380.062,446.805L379.597,445.079L378.867,444.15L377.805,443.553L377.141,443.553M381.257,453.907L378.27,453.974L377.938,468.311L382.252,468.311M381.257,453.907L378.27,453.974L377.938,468.311L382.252,468.311M347.14,462.536L363.07,462.072L364.729,459.948L363.07,442.889L362.672,439.106L347.206,439.106M451.283,517.097L451.35,519.487M447.434,514.177L447.367,519.553L451.35,519.487L458.983,519.354M438.141,185.948L436.349,186.412L434.822,187.143L433.03,187.541L431.171,187.607L429.578,187.408M114.758,340.936L127.767,340.67L144.228,340.205M182.594,59.502L206.688,59.635M376.279,202.343L376.411,200.219L376.411,194.709L376.279,189.532M333.201,133.046L333.068,132.781L332.802,132.582L332.537,132.515L332.205,132.449L331.674,132.714L331.541,132.98L331.408,133.312L331.475,133.644L331.608,133.909L331.807,134.108L332.072,134.307L332.67,134.307L332.935,134.108L333.134,133.909L333.267,133.644L333.267,133.312L333.201,133.046M331.939,132.582L331.873,128.798L331.74,126.741L331.873,125.811L332.603,125.214L334.661,124.882L338.776,124.882L339.838,125.413L340.17,126.01L340.236,126.674L340.369,129.86M332.338,134.307L332.338,137.56M321.718,132.25L331.939,132.582M462.036,269.781L465.156,269.913L475.842,270.112L485.865,270.444M462.302,287.038L467.214,287.105L468.076,287.171L469.006,287.105L469.736,287.038L470.931,286.972M317.934,36.602L321.518,41.647L323.576,45.762L323.974,46.758M319.129,38.261L321.518,41.647L323.576,45.762L325.302,50.342M230.318,162.584L232.973,162.915L233.637,163.247L234.964,164.243L236.358,164.708L238.88,164.973L241.867,164.641L242.797,164.575L244.39,164.575L245.319,164.708L245.916,165.239M346.343,232.212L346.476,233.207L346.609,234.269L346.409,242.832L346.409,248.474L346.542,257.236L346.542,260.289M576.336,232.876L580.185,233.606L583.703,234.004L586.226,234.269L591.868,234.801L593.792,235.265L596.978,236.128M198.723,109.748L200.515,109.616L201.312,109.416L202.042,108.62L202.374,107.425L202.374,102.845M189.829,107.359L189.895,104.704L191.554,102.447L202.374,102.845L203.237,102.845L206.887,102.513M206.755,72.777L214.587,72.578L217.043,73.175L217.308,77.689M206.755,91.229L210.803,91.362L215.981,91.495L219.565,90.898L219.698,102.646M210.803,91.362L212.065,92.358L212.861,93.951L213.193,97.071L213.724,100.057L214.189,101.319L214.72,102.58M490.18,331.112L518.788,331.245M519.186,352.485L532.328,352.817M365.061,407.577L365.061,405.387L364.995,398.284L364.928,390.784L365.327,390.186L373.093,390.186L373.557,390.585L373.756,398.284L373.69,405.453L373.69,407.71M365.061,405.387L373.69,405.453M367.451,352.95L376.079,352.817M354.972,387.067L355.304,407.311M366.853,344.52L367.384,350.693L367.451,352.95L367.583,358.326L367.716,365.694M376.677,398.218L373.756,398.284L362.672,398.284M461.439,233.407L462.235,214.556L461.572,203.073L461.505,200.219L461.904,199.024L462.833,197.763L464.227,196.103M197.064,411.958L197.13,412.422L197.595,412.754L198.856,412.754L207.286,412.356L213.591,412.29L214.521,412.157L215.383,412.091M172.969,420.653L168.588,420.321L163.876,420.587M575.871,261.218L598.771,261.284L631.428,261.019M575.539,273.099L552.307,273.564M461.837,331.046L479.427,331.178L490.18,331.112M438.805,384.677L438.805,368.813L438.871,353.68L438.805,351.423M280.896,283.122L280.432,266.86L279.901,250.731L279.503,233.805L279.171,228.229L279.104,226.636L279.171,225.906L279.503,225.442L280.365,225.11L283.352,224.91L285.476,224.91L291.517,224.844L298.154,224.579L302.668,224.379L311.496,224.18M298.154,224.579L297.49,201.413M285.875,241.77L291.384,241.77L301.207,241.637L309.903,241.173L312.027,240.973M305.987,291.685L305.92,293.676L306.119,298.92M287.534,292.282L296.561,291.884L305.987,291.685L310.301,291.618L313.62,291.618M256.404,318.633L256.404,318.102L256.138,308.81L256.138,306.619L256.005,304.031L256.005,294.672L255.607,287.636L255.474,284.251M256.47,326.798L256.404,318.102L256.205,310.137M240.009,348.436L240.009,369.411M233.106,410.232L230.584,410.697L226.004,411.692L223.415,411.891L215.383,412.091M222.95,376.314L222.486,365.03L222.353,359.454L222.287,353.481L222.287,350.228L222.22,348.967M258.992,409.635L258.793,402.931L258.329,389.456M241.071,410.365L240.606,389.855M196.798,398.483L214.852,398.019L232.442,397.621M196.533,383.748L214.321,383.217L232.11,382.752M385.638,288.1L378.137,288.233L369.376,288.233L364.132,288.499L357.826,288.631M404.024,287.304L397.784,287.768L387.164,288.034L378.137,288.233L377.141,288.233M358.357,314.053L366.521,313.854L374.619,313.456L383.845,313.19L385.638,313.19M377.141,313.39L383.845,313.19L392.74,313.124L404.156,312.726M296.827,177.053L297.49,201.413M219.366,211.901L219.3,204.334L218.769,187.939M210.538,211.967L219.366,211.901L228.459,211.768M219.499,252.058L219.897,266.263M219.3,220.397L219.499,252.058M254.479,203.737L254.612,220.131L254.811,238.65M228.459,207.188L234.964,207.055L235.761,207.188L236.358,207.719L236.756,208.184L236.889,208.781L237.022,220.264L237.022,244.226L237.818,245.62L239.146,245.952L239.478,246.018L245.983,245.819M239.146,245.952L239.146,251.527M326.43,523.403L326.629,515.836L326.629,509.597L326.696,504.751L326.563,502.893L326.629,499.972L326.563,496.521L326.563,493.136M340.701,493.268L340.502,490.812L340.436,485.237L340.369,479.396L340.17,474.683L339.971,468.908M309.04,492.936L308.841,485.17L308.774,480.723L308.708,478.466L308.442,473.886L308.31,469.638M307.779,445.345L307.978,457.492L308.111,461.872L308.31,469.638M339.838,468.908L339.705,460.877L339.44,451.518L339.241,446.473L339.108,444.349M325.567,444.814L326.231,469.24L326.563,493.136M281.759,318.633L281.56,309.473L281.096,292.614L280.896,283.122M281.958,326.134L281.56,310.137M282.423,347.374L281.958,326.134M294.835,346.976L293.906,325.935M306.982,346.644L306.252,325.669M325.966,336.157L326.364,343.657M327.559,346.047L327.293,344.785L326.961,344.188L326.364,343.657L325.767,344.387L325.767,344.918L325.899,346.113M308.31,387.863L307.911,375.584L307.779,367.486M295.499,367.884L294.835,346.976M321.319,201.812L321.319,198.825L321.12,193.382L321.12,191.656L320.921,187.541L320.656,181.899L320.39,177.186M331.342,193.316L332.205,193.116L334.926,192.984L337.449,193.316L339.772,193.382L343.091,193.249L344.75,193.116M321.12,193.382L324.174,193.249L328.355,193.316L330.678,193.448L331.342,193.316M296.827,177.053L296.229,156.411M311.496,224.18L316.872,224.048L318.797,223.915L332.471,223.716M221.424,327.793L221.623,336.157L221.623,341.998L222.087,347.706L222.22,348.967M144.295,279.936L154.185,279.737L173.5,279.073M182.527,220.662L182.594,243.23L183.523,244.226L193.081,244.093L210.803,244.093M239.08,327.329L239.478,338.214L240.009,348.436M201.909,252.523L202.506,272.303L202.706,278.277M220.03,284.914L220.494,291.286L220.826,299.318L221.092,307.482L221.291,318.633M221.158,310.137L221.424,327.793M193.878,278.476L202.706,278.277L211.666,278.078M173.5,279.073L179.009,278.94L193.878,278.476M165.535,286.839L165.801,293.211L166,302.969L166.531,316.907M166.265,310.137L166.531,316.907M202.772,285.445L203.237,297.393L203.369,307.947L203.768,318.633M203.436,310.137L204.1,328.391M239.212,307.084L238.549,303.632L238.482,299.252L238.084,290.689L238.15,284.582M238.549,307.084L238.88,312.527L239.08,316.045L238.88,318.633M238.748,310.137L238.88,312.527L239.08,316.045L238.814,319.762L238.947,324.806L239.08,327.329M383.713,407.975L383.845,401.603L383.978,391.514L383.912,387.465L383.978,377.442L383.646,368.681L383.58,365.229M376.743,407.776L376.212,420.188L376.411,425.764L376.876,426.428L377.54,426.693L383.115,426.627L384.509,426.029L385.638,425.1M377.141,426.56L377.54,426.693L383.115,426.627L384.509,426.029L387.164,423.839L388.16,423.507L395.461,423.574L396.855,424.105L399.046,425.631L400.24,425.963L405.019,425.963M429.18,301.774L429.247,312.46L429.512,317.97L429.512,318.633M429.247,310.137L429.247,312.46L429.512,317.97L429.512,321.952M412.52,318.633L412.52,301.641L412.453,288.1L412.453,279.803M412.52,322.616L412.52,310.137M412.52,322.616L412.52,330.315L412.785,331.842L413.515,332.639L414.909,333.037L426.326,332.373L431.636,332.24M358.755,333.701L381.721,333.17L385.638,333.103M377.141,333.302L381.721,333.17L404.289,332.771M404.356,341.666L410.064,341.533L410.794,341.732L411.259,342.13L411.391,346.644M439.468,393.572L446.836,393.572M439.203,384.677L439.402,387.598L439.468,393.572L439.468,393.97L439.867,400.076L439.867,404.922M439.668,424.967L439.668,414.878L439.867,404.922M426.061,425.034L426.061,409.635L426.127,404.856M412.254,405.055L412.387,425.366M397.984,387.797L397.984,407.975M369.84,387.266L369.774,377.841L369.442,368.614L369.376,365.627M313.62,135.834L314.35,135.768L314.284,133.577L309.571,133.644L308.708,134.374L309.04,142.405M313.819,141.874L313.62,135.834L310.965,135.9L311.097,142.472M308.708,134.374L303.663,131.188L303.597,129.86L303.464,124.882L305.256,124.816L305.124,121.364L306.65,121.364L306.584,117.647M303.597,129.86L301.008,129.927L300.743,129.993L300.477,130.126L300.278,130.325L300.145,130.59L300.079,130.922L300.079,131.188L300.345,131.719L306.584,136.1M129.559,396.426L138.188,392.576L173.832,391.78M299.216,545.572L298.42,545.572L287.468,545.772L286.472,546.103L285.675,546.701L285.211,547.431L284.813,548.427L285.277,569.269M304.991,298.986L306.119,298.92L313.753,298.787M173.699,500.238L188.899,500.37M403.957,254.514L405.55,254.448L416.569,254.514L422.277,254.713L424.335,254.912L425.264,254.647L425.994,253.85L425.994,252.722L425.729,250.067L425.729,247.08L425.795,245.022L425.795,233.141M403.891,241.173L424.999,241.438L425.795,241.637L426.26,242.102L426.326,242.965L426.193,243.629L425.795,245.022M312.027,240.973L312.558,240.973L313.62,240.907L316.872,240.907L333.002,240.774M299.216,545.572L299.017,549.754L299.083,552.21L299.216,554.666L299.216,556.923L299.283,559.445L299.283,561.901L299.349,564.556L299.415,567.277L299.482,569.667L299.482,571.99L299.548,574.247L299.614,577.234L299.946,580.553L300.676,582.411L302.601,584.668L304.46,586.062L306.849,587.057M185.581,376.181L184.917,351.224L184.917,350.029M346.21,224.379L367.517,224.645L385.638,224.844M377.141,224.711L388.691,224.844M425.729,247.08L432.233,247.146L439.004,247.213L439.468,247.08L439.8,246.682L439.999,245.885L440.199,239.049L440.265,233.075M287.8,299.517L299.15,299.119M421.016,456.164L421.281,452.314L421.016,448.398M576.933,52.2L571.291,50.873M173.235,403.329L150.269,403.329M321.12,118.377L321.386,120.435L321.718,132.25L321.85,137.693L321.386,138.622L320.656,139.086L317.602,140.48L313.819,141.874L311.164,142.472L311.097,142.472L309.04,142.405M282.489,116.519L305.854,117.116L306.584,117.647L306.783,117.846L321.12,118.377M575.605,187.474L579.853,188.271L582.575,189.864L583.504,191.723L586.69,190.793L589.611,190.395L591.337,191.988L592.531,193.382M226.933,348.834L226.999,349.697M179.474,355.472L179.54,351.423L179.54,350.228" stroke="rgb(231,231,231)" id="road_minor" transform="translate(0.5, 0)" style="fill: none; stroke-width: 1.66223; stroke-linejoin: round; stroke-linecap: round; stroke: rgb(231, 231, 231);"/><path d="M-166.61,498.246L-152.936,497.981L-147.294,497.782L-143.511,497.583L-141.122,497.317L-139.197,497.052L-136.342,496.587L-133.621,496.122L-130.833,495.525L-127.846,494.662L-123.665,493.335L-120.346,492.14L-116.629,490.547L-113.576,489.153L-110.987,487.759L-107.137,485.502L-103.686,483.179L-100.964,481.188L-97.778,478.666L-94.327,475.546L-87.689,469.439L-72.489,455.168L-68.838,451.717L-60.408,443.885L-54.368,438.176L-50.054,434.127L-45.275,429.614L-38.504,423.308L-33.924,418.994L-26.889,412.489L-18.326,404.325L-6.511,393.306L-1.599,388.527L5.503,382.089L6.83,380.761L8.556,379.102L10.348,377.509L12.871,375.119L15.127,373.194L17.185,371.535L19.176,370.008L21.499,368.349L24.486,366.358L27.407,364.565L29.929,363.171L31.456,362.375L33.513,361.379L36.368,360.118L39.023,359.056L43.204,357.596L47.784,356.202L51.037,355.406L54.024,354.742L57.21,354.277L59.865,353.879L61.391,353.746L67.033,353.348L70.817,353.281L76.326,353.082L83.096,352.883L97.964,352.419L98.827,352.419L113.762,351.954M105.266,352.219L114.492,351.954L133.741,351.423L144.228,351.157M191.488,349.83L195.736,349.697L203.9,349.498M213.392,349.233L219.1,349.033M149.472,351.025L158.964,350.759L161.752,350.693M226.933,348.834L227.995,348.768L229.588,348.768L231.115,348.702M161.752,350.693L174.031,350.361M144.228,351.157L149.472,351.025M203.9,349.498L213.392,349.233M174.031,350.361L179.54,350.228L184.917,350.029L191.488,349.83M-166.61,498.246L-152.936,497.981L-147.294,497.782L-143.511,497.583L-141.122,497.317L-139.197,497.052L-136.342,496.587L-133.621,496.122L-130.833,495.525L-127.846,494.662L-123.665,493.335L-120.346,492.14L-116.629,490.547L-113.576,489.153L-110.987,487.759L-107.137,485.502L-103.686,483.179L-100.964,481.188L-97.778,478.666L-94.327,475.546L-87.689,469.439L-72.489,455.168L-68.838,451.717L-60.408,443.885L-54.368,438.176L-50.054,434.127L-45.275,429.614L-38.504,423.308L-33.924,418.994L-26.889,412.489L-18.326,404.325L-6.511,393.306L-1.599,388.527L5.503,382.089L6.83,380.761L8.556,379.102L10.348,377.509L12.871,375.119L15.127,373.194L17.185,371.535L19.176,370.008L21.499,368.349L24.486,366.358L27.407,364.565L29.929,363.171L31.456,362.375L33.513,361.379L36.368,360.118L39.023,359.056L43.204,357.596L47.784,356.202L51.037,355.406L54.024,354.742L57.21,354.277L59.865,353.879L61.391,353.746L67.033,353.348L70.817,353.281L76.326,353.082L83.096,352.883L97.964,352.419L98.827,352.419L113.762,351.954M105.266,352.219L114.492,351.954L133.741,351.423L144.228,351.157M219.1,349.033L222.22,348.967L226.933,348.834" stroke="rgb(231,231,231)" id="road_secondary_tertiary" transform="translate(0.5, 0)" style="fill: none; stroke-width: 2.2449; stroke-linejoin: round; stroke-linecap: round; stroke: rgb(231, 231, 231);"/><path d="M258.594,46.758L258.329,37.93L257.997,21.601L257.798,11.446L257.399,-1.365L257.2,-10.06L256.935,-17.893L256.536,-31.234L256.205,-39.465L255.873,-49.952L255.541,-61.435L255.209,-73.449L254.811,-85.994L254.28,-101.526L253.948,-110.221L253.682,-120.576L253.35,-131.462L253.085,-141.086L252.554,-156.353L252.089,-171.885L251.757,-182.969L251.426,-190.935L251.094,-203.081L250.828,-210.25L250.695,-219.343L250.297,-233.614M257.665,102.845L258.727,96.473L259.258,91.628L259.457,87.38L259.523,82.932L259.258,73.308L258.926,58.307L258.661,47.886L258.329,38.261M285.941,368.15L241.005,369.344M231.115,159.796L231.778,157.672L232.442,155.88L233.57,153.092L234.5,151.1L235.495,148.777L236.69,146.72L239.212,142.405L241.801,138.091L244.39,133.909L245.385,132.117L246.978,129.13L249.169,125.081L251.757,119.837L254.213,113.93L255.143,111.474L256.271,107.757L257.665,102.845M258.594,46.758L258.329,37.93L257.997,21.601L257.798,11.446L257.399,-1.365L257.2,-10.06L256.935,-17.893L256.536,-31.234L256.205,-39.465L255.873,-49.952L255.541,-61.435L255.209,-73.449L254.811,-85.994L254.28,-101.526L253.948,-110.221L253.682,-120.576L253.35,-131.462L253.085,-141.086L252.554,-156.353L252.089,-171.885L251.757,-182.969L251.426,-190.935L251.094,-203.081L250.828,-210.25L250.695,-219.343L250.297,-233.614M257.665,102.845L258.727,96.473L259.258,91.628L259.457,87.38L259.523,82.932L259.258,73.308L258.926,58.307L258.661,47.886L258.329,38.261M231.845,369.809L231.712,367.353L231.247,353.348L231.181,350.56L231.115,348.702M334.794,590.509L334.661,590.31L332.603,587.124L330.479,583.539L328.753,580.486L326.165,575.84L324.041,570.928L322.647,566.481L321.452,561.835L320.324,556.392L319.992,553.272L319.594,550.352L319.594,523.204L319.328,493.069L318.532,469.373L317.868,445.212L317.602,435.72L317.403,427.423L316.806,408.108L316.275,387.598L315.81,378.903L315.611,367.154M241.005,369.344L240.009,369.411L231.845,369.809M315.611,367.154L307.779,367.486L301.207,367.685L295.499,367.884L289.592,368.083L285.941,368.15M230.252,318.633L229.986,307.283L229.256,284.715L228.725,251.793L228.459,220.198L228.459,188.005L228.526,174.598L228.526,174L229.19,167.96L229.787,164.641L230.318,162.584L230.318,162.451L231.115,159.796M231.115,348.702L231.048,346.843L230.915,342.595L230.517,327.528L230.052,310.137" stroke="rgb(231,231,231)" id="road_primary" transform="translate(0.5, 0)" style="fill: none; stroke-width: 3.13972; stroke-linejoin: round; stroke-linecap: round; stroke: rgb(231, 231, 231);"/><path d="M-166.61,498.246L-152.936,497.981L-147.294,497.782L-143.511,497.583L-141.122,497.317L-139.197,497.052L-136.342,496.587L-133.621,496.122L-130.833,495.525L-127.846,494.662L-123.665,493.335L-120.346,492.14L-116.629,490.547L-113.576,489.153L-110.987,487.759L-107.137,485.502L-103.686,483.179L-100.964,481.188L-97.778,478.666L-94.327,475.546L-87.689,469.439L-72.489,455.168L-68.838,451.717L-60.408,443.885L-54.368,438.176L-50.054,434.127L-45.275,429.614L-38.504,423.308L-33.924,418.994L-26.889,412.489L-18.326,404.325L-6.511,393.306L-1.599,388.527L5.503,382.089L6.83,380.761L8.556,379.102L10.348,377.509L12.871,375.119L15.127,373.194L17.185,371.535L19.176,370.008L21.499,368.349L24.486,366.358L27.407,364.565L29.929,363.171L31.456,362.375L33.513,361.379L36.368,360.118L39.023,359.056L43.204,357.596L47.784,356.202L51.037,355.406L54.024,354.742L57.21,354.277L59.865,353.879L61.391,353.746L67.033,353.348L70.817,353.281L76.326,353.082L83.096,352.883L97.964,352.419L98.827,352.419L113.762,351.954M105.266,352.219L114.492,351.954L133.741,351.423L144.228,351.157M191.488,349.83L195.736,349.697L203.9,349.498M213.392,349.233L219.1,349.033M149.472,351.025L158.964,350.759L161.752,350.693M226.933,348.834L227.995,348.768L229.588,348.768L231.115,348.702M161.752,350.693L174.031,350.361M144.228,351.157L149.472,351.025M203.9,349.498L213.392,349.233M174.031,350.361L179.54,350.228L184.917,350.029L191.488,349.83M-166.61,498.246L-152.936,497.981L-147.294,497.782L-143.511,497.583L-141.122,497.317L-139.197,497.052L-136.342,496.587L-133.621,496.122L-130.833,495.525L-127.846,494.662L-123.665,493.335L-120.346,492.14L-116.629,490.547L-113.576,489.153L-110.987,487.759L-107.137,485.502L-103.686,483.179L-100.964,481.188L-97.778,478.666L-94.327,475.546L-87.689,469.439L-72.489,455.168L-68.838,451.717L-60.408,443.885L-54.368,438.176L-50.054,434.127L-45.275,429.614L-38.504,423.308L-33.924,418.994L-26.889,412.489L-18.326,404.325L-6.511,393.306L-1.599,388.527L5.503,382.089L6.83,380.761L8.556,379.102L10.348,377.509L12.871,375.119L15.127,373.194L17.185,371.535L19.176,370.008L21.499,368.349L24.486,366.358L27.407,364.565L29.929,363.171L31.456,362.375L33.513,361.379L36.368,360.118L39.023,359.056L43.204,357.596L47.784,356.202L51.037,355.406L54.024,354.742L57.21,354.277L59.865,353.879L61.391,353.746L67.033,353.348L70.817,353.281L76.326,353.082L83.096,352.883L97.964,352.419L98.827,352.419L113.762,351.954M105.266,352.219L114.492,351.954L133.741,351.423L144.228,351.157M219.1,349.033L222.22,348.967L226.933,348.834" stroke="rgb(231,231,231)" id="road_trunk" transform="translate(0.5, 0)" style="fill: none; stroke-width: 3.13972; stroke-linejoin: round; stroke-linecap: round; stroke: rgb(231, 231, 231);"/><path d="M262.046,46.758L261.847,37.93L261.116,16.888L258.262,-86.724L256.669,-140.887L255.342,-186.487L254.081,-233.614M262.046,46.758L261.847,38.261M262.643,46.758L262.378,37.93L262.245,27.641L260.851,-19.087L255.939,-186.487L254.678,-233.614M262.643,46.758L262.378,38.261M113.762,104.903L83.627,99.858L67.83,97.203L38.226,92.225L-1.201,85.256L-40.828,78.817M219.499,122.625L216.976,122.161L201.378,119.638L143.631,109.881L105.266,103.443M312.624,435.654L317.602,435.72L324.107,435.853L345.547,436.119L364.596,436.517L385.638,436.716M377.141,436.65L401.037,436.849L405.086,436.782L423.273,437.181L438.672,437.313L462.302,437.579L472.922,437.645L491.905,437.778L520.978,438.243L541.82,438.508L557.352,438.707L617.688,439.504L657.513,439.968M269.679,318.633L268.617,284.516L267.82,252.921L265.763,180.704L265.696,177.385L263.639,102.181L263.108,84.459L263.041,82.269L262.046,46.758M271.936,392.178L271.869,388.992L271.073,365.495L270.675,347.772L270.276,333.435L269.944,326.399L269.413,310.137M278.573,590.509L276.781,531.302L274.591,461.408L273.993,435.123L272.599,392.178M312.624,435.654L304.925,435.256L300.942,434.725L295.034,433.928L291.583,432.8L288.463,431.273L285.277,429.083L281.759,425.631L278.839,420.985L276.848,416.405L275.122,410.431L273.861,403.329L273.13,398.218L272.599,392.178M265.696,177.385L263.971,160.459L261.05,151.3L257.267,143.401L249.501,135.17L245.916,132.515L245.385,132.117L243.129,130.391L238.615,127.869L233.703,125.811L228.194,124.218L219.499,122.625M113.762,104.903L83.627,99.858L67.83,97.203L38.226,92.225L-1.201,85.256L-40.828,78.817M219.499,122.625L216.976,122.161L201.378,119.638L143.631,109.881L105.266,103.443M274.591,461.408L274.923,456.43L275.985,451.385L278.042,447.071L279.967,444.349L282.091,442.159L285.742,439.305L288.264,437.977L291.384,436.517L296.03,435.521L299.946,435.388L304.725,435.853L312.624,435.654M262.046,46.758L261.847,37.93L261.116,16.888L258.262,-86.724L256.669,-140.887L255.342,-186.487L254.081,-233.614M262.046,46.758L261.847,38.261M219.499,122.625L228.194,123.488L231.048,123.488L234.898,123.09L239.411,121.961L244.456,119.837L247.841,117.913L251.16,115.324L255.143,111.474L257.997,107.691L259.855,104.173L261.581,99.659L262.311,95.61L262.709,93.486L263.108,84.459M262.643,46.758L262.378,37.93L262.245,27.641L260.851,-19.087L255.939,-186.487L254.678,-233.614M262.643,46.758L262.378,38.261M277.91,590.509L276.98,557.387L276.715,549.953L276.25,531.235L275.985,523.801L275.254,503.424L274.657,478.732L274.06,464.262L273.927,460.412L273.263,435.057L272.068,397.09L272.002,395.297L271.936,392.178M270.475,318.633L269.679,296.53L268.418,252.788L266.957,194.378L263.771,87.114L263.24,68.662L262.643,46.758M272.599,392.178L272.533,388.992L271.803,365.428L271.405,347.706L270.741,326.466L270.144,310.137" stroke="rgb(157,157,157)" id="railway" transform="translate(0.5, 0)" style="fill: none; stroke-width: 1; stroke-opacity: 0.417361; stroke-linejoin: miter; stroke-linecap: butt; stroke: rgb(157, 157, 157);"/><path d="M285.941,368.15L241.005,369.344" stroke="rgb(231,231,231)" id="bridge_major" transform="translate(0.5, 0)" style="fill: none; stroke-width: 3.13972; stroke-linejoin: round; stroke-linecap: round; stroke: rgb(231, 231, 231);"/><g id="N-svg OAK-svg ST.-svg"><text transform="rotate(-91.03231798779076, 264.8180236816406, -14.583969116210938) translate(264.8180236816406, -20.083969116210938)" style="text-anchor: middle;"><tspan x="0" y="10" style="font-family: Roboto; font-weight: 400; font-stretch: 100%; font-size: 10px; stroke: rgb(255, 255, 255); stroke-width: 2; stroke-linejoin: round; stroke-linecap: round;">N OAK ST.</tspan></text><text transform="rotate(-91.03231798779076, 264.81802, -14.58397) translate(264.8180236816406, -20.083969116210938)" style="text-anchor: middle;"><tspan fill="rgb(136, 136, 136)" x="0" y="10" style="font-family: Roboto; font-weight: 400; font-stretch: 100%; font-size: 10px;">N OAK ST.</tspan></text></g><g id="DAVISVILLE-svg ROAD-svg"><text transform="rotate(-90.13372135308711, 577.2258911132812, -12.05778694152832) translate(577.2258911132812, -17.55778694152832)" style="text-anchor: middle;"><tspan x="0" y="10" style="font-family: Roboto; font-weight: 400; font-stretch: 100%; font-size: 10px; stroke: rgb(255, 255, 255); stroke-width: 2; stroke-linejoin: round; stroke-linecap: round;">DAVISVILLE ROAD</tspan></text><text transform="rotate(-90.13372135308711, 577.22589, -12.05779) translate(577.2258911132812, -17.55778694152832)" style="text-anchor: middle;"><tspan fill="rgb(136, 136, 136)" x="0" y="10" style="font-family: Roboto; font-weight: 400; font-stretch: 100%; font-size: 10px;">DAVISVILLE ROAD</tspan></text></g><g id="ROD-svg GUN-svg CLUB-svg RD.-svg"><text transform="rotate(-89.9843846207248, 60.39600372314453, 518.2264404296875) translate(60.39600372314453, 512.7264404296875)" style="text-anchor: middle;"><tspan x="0" y="10" style="font-family: Roboto; font-weight: 400; font-stretch: 100%; font-size: 10px; stroke: rgb(255, 255, 255); stroke-width: 2; stroke-linejoin: round; stroke-linecap: round;">ROD GUN CLUB RD.</tspan></text><text transform="rotate(-89.9843846207248, 60.396, 518.22644) translate(60.39600372314453, 512.7264404296875)" style="text-anchor: middle;"><tspan fill="rgb(136, 136, 136)" x="0" y="10" style="font-family: Roboto; font-weight: 400; font-stretch: 100%; font-size: 10px;">ROD GUN CLUB RD.</tspan></text></g><g id="S-svg WASHINGTON-svg ST.-svg"><text transform="rotate(88.10710294515721, 319.187744140625, 487.8227844238281) translate(319.187744140625, 482.3227844238281)" style="text-anchor: middle;"><tspan x="0" y="10" style="font-family: Roboto; font-weight: 400; font-stretch: 100%; font-size: 10px; stroke: rgb(255, 255, 255); stroke-width: 2; stroke-linejoin: round; stroke-linecap: round;">S WASHINGTON ST.</tspan></text><text transform="rotate(88.10710294515721, 319.18774, 487.82278) translate(319.187744140625, 482.3227844238281)" style="text-anchor: middle;"><tspan fill="rgb(136, 136, 136)" x="0" y="10" style="font-family: Roboto; font-weight: 400; font-stretch: 100%; font-size: 10px;">S WASHINGTON ST.</tspan></text></g><g id="N-svg HICKORY-svg ST.-svg"><text transform="rotate(89.2171913283604, 228.76280212402344, 254.19264221191406) translate(228.76280212402344, 248.69264221191406)" style="text-anchor: middle;"><tspan x="0" y="10" style="font-family: Roboto; font-weight: 400; font-stretch: 100%; font-size: 10px; stroke: rgb(255, 255, 255); stroke-width: 2; stroke-linejoin: round; stroke-linecap: round;">N HICKORY ST.</tspan></text><text transform="rotate(89.2171913283604, 228.7628, 254.19264) translate(228.76280212402344, 248.69264221191406)" style="text-anchor: middle;"><tspan fill="rgb(136, 136, 136)" x="0" y="10" style="font-family: Roboto; font-weight: 400; font-stretch: 100%; font-size: 10px;">N HICKORY ST.</tspan></text></g><g id="W-svg MAIN-svg ST.-svg"><text transform="rotate(-1.7210946152096676, 161.81605529785156, 350.6260986328125) translate(161.81605529785156, 345.1260986328125)" style="text-anchor: middle;"><tspan x="0" y="10" style="font-family: Roboto; font-weight: 400; font-stretch: 100%; font-size: 10px; stroke: rgb(255, 255, 255); stroke-width: 2; stroke-linejoin: round; stroke-linecap: round;">W MAIN ST.</tspan></text><text transform="rotate(-1.7210946152096676, 161.81606, 350.6261) translate(161.81605529785156, 345.1260986328125)" style="text-anchor: middle;"><tspan fill="rgb(136, 136, 136)" x="0" y="10" style="font-family: Roboto; font-weight: 400; font-stretch: 100%; font-size: 10px;">W MAIN ST.</tspan></text></g><g id="N-svg MAPLE-svg ST.-svg"><text transform="rotate(88.60894255650514, 210.87557983398438, 254.26727294921875) translate(210.87557983398438, 248.76727294921875)" style="text-anchor: middle;"><tspan x="0" y="10" style="font-family: Roboto; font-weight: 400; font-stretch: 100%; font-size: 10px; stroke: rgb(255, 255, 255); stroke-width: 2; stroke-linejoin: round; stroke-linecap: round;">N MAPLE ST.</tspan></text><text transform="rotate(88.60894255650514, 210.87558, 254.26727) translate(210.87557983398438, 248.76727294921875)" style="text-anchor: middle;"><tspan fill="rgb(136, 136, 136)" x="0" y="10" style="font-family: Roboto; font-weight: 400; font-stretch: 100%; font-size: 10px;">N MAPLE ST.</tspan></text></g><g id="N-svg WALNUT-svg ST.-svg"><text transform="rotate(88.52923025742852, 246.1359405517578, 256.7919006347656) translate(246.1359405517578, 251.29190063476562)" style="text-anchor: middle;"><tspan x="0" y="10" style="font-family: Roboto; font-weight: 400; font-stretch: 100%; font-size: 10px; stroke: rgb(255, 255, 255); stroke-width: 2; stroke-linejoin: round; stroke-linecap: round;">N WALNUT ST.</tspan></text><text transform="rotate(88.52923025742852, 246.13594, 256.7919) translate(246.1359405517578, 251.29190063476562)" style="text-anchor: middle;"><tspan fill="rgb(136, 136, 136)" x="0" y="10" style="font-family: Roboto; font-weight: 400; font-stretch: 100%; font-size: 10px;">N WALNUT ST.</tspan></text></g><g id="WELLS-svg ST.-svg ROAD-svg"><text transform="rotate(89.90689256308072, 174.8477325439453, 549.8087768554688) translate(174.8477325439453, 544.3087768554688)" style="text-anchor: middle;"><tspan x="0" y="10" style="font-family: Roboto; font-weight: 400; font-stretch: 100%; font-size: 10px; stroke: rgb(255, 255, 255); stroke-width: 2; stroke-linejoin: round; stroke-linecap: round;">WELLS ST. ROAD</tspan></text><text transform="rotate(89.90689256308072, 174.84773, 549.80878) translate(174.8477325439453, 544.3087768554688)" style="text-anchor: middle;"><tspan fill="rgb(136, 136, 136)" x="0" y="10" style="font-family: Roboto; font-weight: 400; font-stretch: 100%; font-size: 10px;">WELLS ST. ROAD</tspan></text></g><g id="N-svg OAK-svg ST.-svg"><text transform="rotate(88.39016301083188, 275.1014709472656, 277.26837158203125) translate(275.1014709472656, 271.76837158203125)" style="text-anchor: middle;"><tspan x="0" y="10" style="font-family: Roboto; font-weight: 400; font-stretch: 100%; font-size: 10px; stroke: rgb(255, 255, 255); stroke-width: 2; stroke-linejoin: round; stroke-linecap: round;">N OAK ST.</tspan></text><text transform="rotate(88.39016301083188, 275.10147, 277.26837) translate(275.1014709472656, 271.76837158203125)" style="text-anchor: middle;"><tspan fill="rgb(136, 136, 136)" x="0" y="10" style="font-family: Roboto; font-weight: 400; font-stretch: 100%; font-size: 10px;">N OAK ST.</tspan></text></g><g id="N-svg DIVISION-svg ST.-svg"><text transform="rotate(88.1209066514625, 284.57757568359375, 192.09317016601562) translate(284.57757568359375, 186.59317016601562)" style="text-anchor: middle;"><tspan x="0" y="10" style="font-family: Roboto; font-weight: 400; font-stretch: 100%; font-size: 10px; stroke: rgb(255, 255, 255); stroke-width: 2; stroke-linejoin: round; stroke-linecap: round;">N DIVISION ST.</tspan></text><text transform="rotate(88.1209066514625, 284.57758, 192.09317) translate(284.57757568359375, 186.59317016601562)" style="text-anchor: middle;"><tspan fill="rgb(136, 136, 136)" x="0" y="10" style="font-family: Roboto; font-weight: 400; font-stretch: 100%; font-size: 10px;">N DIVISION ST.</tspan></text></g><g id="N-svg WEST-svg ST.-svg"><text transform="rotate(90, 144.2949981689453, 232.6424102783203) translate(144.2949981689453, 227.1424102783203)" style="text-anchor: middle;"><tspan x="0" y="10" style="font-family: Roboto; font-weight: 400; font-stretch: 100%; font-size: 10px; stroke: rgb(255, 255, 255); stroke-width: 2; stroke-linejoin: round; stroke-linecap: round;">N WEST ST.</tspan></text><text transform="rotate(90, 144.295, 232.64241) translate(144.2949981689453, 227.1424102783203)" style="text-anchor: middle;"><tspan fill="rgb(136, 136, 136)" x="0" y="10" style="font-family: Roboto; font-weight: 400; font-stretch: 100%; font-size: 10px;">N WEST ST.</tspan></text></g><g id="S-svg LINE-svg ST.-svg"><text transform="rotate(89.5683255206855, 404.9670104980469, 418.5963439941406) translate(404.9670104980469, 413.0963439941406)" style="text-anchor: middle;"><tspan x="0" y="10" style="font-family: Roboto; font-weight: 400; font-stretch: 100%; font-size: 10px; stroke: rgb(255, 255, 255); stroke-width: 2; stroke-linejoin: round; stroke-linecap: round;">S LINE ST.</tspan></text><text transform="rotate(89.5683255206855, 404.96701, 418.59634) translate(404.9670104980469, 413.0963439941406)" style="text-anchor: middle;"><tspan fill="rgb(136, 136, 136)" x="0" y="10" style="font-family: Roboto; font-weight: 400; font-stretch: 100%; font-size: 10px;">S LINE ST.</tspan></text></g><g id="E-svg PARK-svg ST.-svg"><text transform="rotate(-2.626550457636305, 415.82403564453125, 322.4628601074219) translate(415.82403564453125, 316.9628601074219)" style="text-anchor: middle;"><tspan x="0" y="10" style="font-family: Roboto; font-weight: 400; font-stretch: 100%; font-size: 10px; stroke: rgb(255, 255, 255); stroke-width: 2; stroke-linejoin: round; stroke-linecap: round;">E PARK ST.</tspan></text><text transform="rotate(-2.626550457636305, 415.82404, 322.46286) translate(415.82403564453125, 316.9628601074219)" style="text-anchor: middle;"><tspan fill="rgb(136, 136, 136)" x="0" y="10" style="font-family: Roboto; font-weight: 400; font-stretch: 100%; font-size: 10px;">E PARK ST.</tspan></text></g><g id="E-svg PARK-svg ST.-svg ROAD-svg"><text transform="rotate(-0.2987962663767791, 612.9083251953125, 319.9740905761719) translate(612.9083251953125, 314.4740905761719)" style="text-anchor: middle;"><tspan x="0" y="10" style="font-family: Roboto; font-weight: 400; font-stretch: 100%; font-size: 10px; stroke: rgb(255, 255, 255); stroke-width: 2; stroke-linejoin: round; stroke-linecap: round;">E PARK ST. ROAD</tspan></text><text transform="rotate(-0.2987962663767791, 612.90833, 319.97409) translate(612.9083251953125, 314.4740905761719)" style="text-anchor: middle;"><tspan fill="rgb(136, 136, 136)" x="0" y="10" style="font-family: Roboto; font-weight: 400; font-stretch: 100%; font-size: 10px;">E PARK ST. ROAD</tspan></text></g><g id="E-svg OLIVE-svg ST.-svg"><text transform="rotate(-8.217736511952191, 490.0422668457031, 422.9194030761719) translate(490.0422668457031, 417.4194030761719)" style="text-anchor: middle;"><tspan x="0" y="10" style="font-family: Roboto; font-weight: 400; font-stretch: 100%; font-size: 10px; stroke: rgb(255, 255, 255); stroke-width: 2; stroke-linejoin: round; stroke-linecap: round;">E OLIVE ST.</tspan></text><text transform="rotate(-8.217736511952191, 490.04227, 422.9194) translate(490.0422668457031, 417.4194030761719)" style="text-anchor: middle;"><tspan fill="rgb(136, 136, 136)" x="0" y="10" style="font-family: Roboto; font-weight: 400; font-stretch: 100%; font-size: 10px;">E OLIVE ST.</tspan></text></g><g id="E-svg NORTH-svg ST.-svg"><text transform="rotate(-1.8337610527810277, 359.21405029296875, 281.1507263183594) translate(359.21405029296875, 275.6507263183594)" style="text-anchor: middle;"><tspan x="0" y="10" style="font-family: Roboto; font-weight: 400; font-stretch: 100%; font-size: 10px; stroke: rgb(255, 255, 255); stroke-width: 2; stroke-linejoin: round; stroke-linecap: round;">E NORTH ST.</tspan></text><text transform="rotate(-1.8337610527810277, 359.21405, 281.15073) translate(359.21405029296875, 275.6507263183594)" style="text-anchor: middle;"><tspan fill="rgb(136, 136, 136)" x="0" y="10" style="font-family: Roboto; font-weight: 400; font-stretch: 100%; font-size: 10px;">E NORTH ST.</tspan></text></g><g id="E-svg COLE-svg ST.-svg"><text transform="rotate(1.3030735514174556, 404.00177001953125, 232.8813018798828) translate(404.00177001953125, 227.3813018798828)" style="text-anchor: middle;"><tspan x="0" y="10" style="font-family: Roboto; font-weight: 400; font-stretch: 100%; font-size: 10px; stroke: rgb(255, 255, 255); stroke-width: 2; stroke-linejoin: round; stroke-linecap: round;">E COLE ST.</tspan></text><text transform="rotate(1.3030735514174556, 404.00177, 232.8813) translate(404.00177001953125, 227.3813018798828)" style="text-anchor: middle;"><tspan fill="rgb(136, 136, 136)" x="0" y="10" style="font-family: Roboto; font-weight: 400; font-stretch: 100%; font-size: 10px;">E COLE ST.</tspan></text></g><g id="DAVISVILLE-svg ROAD-svg"><text transform="rotate(-89.54654222107773, 575.7545776367188, 172.8775634765625) translate(575.7545776367188, 167.3775634765625)" style="text-anchor: middle;"><tspan x="0" y="10" style="font-family: Roboto; font-weight: 400; font-stretch: 100%; font-size: 10px; stroke: rgb(255, 255, 255); stroke-width: 2; stroke-linejoin: round; stroke-linecap: round;">DAVISVILLE ROAD</tspan></text><text transform="rotate(-89.54654222107773, 575.75458, 172.87756) translate(575.7545776367188, 167.3775634765625)" style="text-anchor: middle;"><tspan fill="rgb(136, 136, 136)" x="0" y="10" style="font-family: Roboto; font-weight: 400; font-stretch: 100%; font-size: 10px;">DAVISVILLE ROAD</tspan></text></g><g id="W-svg PARK-svg ST.-svg"><text transform="rotate(-1.47027381271864, 190.41046142578125, 328.84246826171875) translate(190.41046142578125, 323.34246826171875)" style="text-anchor: middle;"><tspan x="0" y="10" style="font-family: Roboto; font-weight: 400; font-stretch: 100%; font-size: 10px; stroke: rgb(255, 255, 255); stroke-width: 2; stroke-linejoin: round; stroke-linecap: round;">W PARK ST.</tspan></text><text transform="rotate(-1.47027381271864, 190.41046, 328.84247) translate(190.41046142578125, 323.34246826171875)" style="text-anchor: middle;"><tspan fill="rgb(136, 136, 136)" x="0" y="10" style="font-family: Roboto; font-weight: 400; font-stretch: 100%; font-size: 10px;">W PARK ST.</tspan></text></g><g id="SAINT-svg JOHNS-svg"><text transform="translate(263.19587473593214, 40.91650686657522) translate(-31.5302734375, 0) translate(31.5302734375, 0)" style="text-anchor: middle;"><tspan x="0" y="3" style="font-family: Roboto; font-weight: 400; font-stretch: 100%; font-size: 10px; stroke: rgb(255, 255, 255); stroke-width: 1; stroke-linejoin: round; stroke-linecap: round;">SAINT JOHNS</tspan></text><text transform="translate(263.19587, 40.91651) translate(-31.53027, 0) translate(31.5302734375, 0)" style="text-anchor: middle;"><tspan fill="rgb(136, 136, 136)" style="font-family: Roboto; font-weight: 400; font-stretch: 100%; font-size: 10px;" x="0" y="3">SAINT JOHNS</tspan></text></g><g id="DU-svg QUOIN-svg"><text transform="translate(322.60666526287815, 348.37839096272364) translate(-27.3671875, 0) translate(27.3671875, 0)" style="text-anchor: middle;"><tspan x="0" y="3.6000000000000014" style="font-family: Roboto; font-weight: 400; font-stretch: 100%; font-size: 12px; stroke: rgb(255, 255, 255); stroke-width: 1; stroke-linejoin: round; stroke-linecap: round;">DU QUOIN</tspan></text><text transform="translate(322.60667, 348.37839) translate(-27.36719, 0) translate(27.3671875, 0)" style="text-anchor: middle;"><tspan fill="rgb(136, 136, 136)" style="font-family: Roboto; font-weight: 400; font-stretch: 100%; font-size: 12px;" x="0" y="3.6000000000000014">DU QUOIN</tspan></text></g></g><g id="svg-marker-svg" transform="translate(317, 346)"><g id="svg-id-ffMZzlg2G1-svg" transform="translate(-14, -14)"/></g><rect width="156.96875" height="14" transform="translate(443.03125, 553)" fill="rgba(255,255,255,0.73)" style="fill: rgb(255, 255, 255); fill-opacity: 0.73;"/><text transform="translate(447, 554)"><tspan fill="rgba(119,119,119,0.87)" x="0" y="11" style="font-family: Roboto; font-weight: 400; font-stretch: 100%; font-size: 11px;"></tspan><tspan fill="rgba(119,119,119,0.87)" dx="2.734375" style="font-family: Roboto; font-weight: 400; font-stretch: 100%; font-size: 11px;">OpenStreetMap</tspan><tspan fill="rgba(119,119,119,0.87)" dx="2.734375" style="font-family: Roboto; font-weight: 400; font-stretch: 100%; font-size: 11px;">contributors</tspan></text></g></g></g></g><g id="container-svg container-footer-svg datawrapper-zia5N-1la8dcw-svg"><text transform="translate(0, 587)"><tspan fill="rgb(136,136,136)" x="0" y="11" style="font-family: Roboto; font-weight: 400; font-stretch: 100%; font-size: 11px;">Created with</tspan><tspan fill="rgb(136,136,136)" dx="2.734375" style="font-family: Roboto; font-weight: 400; font-stretch: 100%; font-size: 11px;">Datawrapper</tspan></text></g></g></g></g></svg>