<svg xmlns="http://www.w3.org/2000/svg" xmlns:xlink="http://www.w3.org/1999/xlink" id="exportSvg" width="600" height="480"><defs/><g><g id="__svelte-dw-svg" clip-path="url(#rect-mask-MuG3ugvGRfq54h1egsxDu)"><clipPath id="rect-mask-MuG3ugvGRfq54h1egsxDu"><rect x="0" y="0" width="600" height="480"/></clipPath><g id="container-svg container-body-svg datawrapper-Tz1MV-1gvfeww-svg"><g id="container-svg container-bodyTop-svg datawrapper-Tz1MV-lmtz6e-svg"><g id="container-svg container-bodyCenter-svg datawrapper-Tz1MV-1fgvipr-svg"><g id="chart-svg"><g id="container-inner-svg export-group-svg maplibregl-map-svg" clip-path="url(#rect-mask-exfwlEt9buNZtTfjKwUIV)"><clipPath id="rect-mask-exfwlEt9buNZtTfjKwUIV"><rect x="0" y="0" width="600" height="447"/></clipPath><g id="basemap-svg" clip-path="url(#rect-mask-tNchF21_9jIrrlpCdCT4l)"><clipPath id="rect-mask-tNchF21_9jIrrlpCdCT4l"><rect x="0" y="0" width="600" height="447"/></clipPath><rect width="600" height="447" transform="translate(0, 0)" fill="rgb(255,255,255)" id="background" style="fill: rgb(255, 255, 255);"/><path d="M229.432,192.496L213.114,193.993L199.79,195.19L193.651,195.789L177.183,197.436L175.536,197.586L160.416,198.933L157.272,199.232M272.249,188.154L269.255,188.453L250.242,190.4L246.349,190.849L234.822,191.897L231.828,192.196L213.114,193.993L210.269,194.292M29.419,305.676L44.241,305.676L46.187,306.575L50.079,314.509L51.277,318.252L51.726,321.695L51.876,325.139L50.978,326.336L49.331,326.486L46.337,325.887L44.39,325.588L41.845,325.588L37.055,324.69L35.108,325.438L31.964,327.085L30.617,328.283L29.868,329.63L29.868,331.277L31.066,332.924L31.665,335.02L31.216,339.81L31.216,343.104L31.665,345.948L31.815,348.494L31.366,349.991L30.168,350.739L28.521,350.739L27.174,349.542L25.826,347.595L25.078,345.35L24.928,341.158L25.227,332.475L25.527,321.995L26.126,309.12L26.425,308.072L27.473,307.772L28.371,307.323L28.97,306.575L29.419,305.676M190.657,313.012L182.872,313.611M192.903,315.108L194.101,327.384M195.298,312.563L204.58,311.665M191.555,298.191L192.603,310.767L190.657,313.012L192.903,315.108L195.298,312.563L192.603,310.767M229.432,192.496L213.114,193.993L199.79,195.19L193.651,195.789L177.183,197.436L175.536,197.586L160.416,198.933L157.272,199.232M272.249,188.154L269.255,188.453L250.242,190.4L246.349,190.849L234.822,191.897L231.828,192.196L213.114,193.993L210.269,194.292M272.249,188.154L272.549,191.448L272.848,194.292" stroke="rgb(231,231,231)" id="road_path" transform="translate(0.5, 0)" style="fill: none; stroke-width: 1.02996; stroke-linejoin: bevel; stroke-linecap: square; stroke-dasharray: 0.75595, 1.88988; stroke: rgb(231, 231, 231);"/><path d="M134.067,13.891L132.57,12.544L130.623,11.496L127.18,11.346L122.389,10.448L119.844,9.1L118.946,7.753L118.497,6.855L118.048,6.106L117.299,3.711L117.149,-6.769L117.149,-29.375L117.299,-82.672L117.299,-115.458L117.449,-121.297L117.449,-125.04M134.067,13.891L132.57,12.544L130.623,11.496L127.18,11.346L122.389,10.448L119.844,9.1L118.946,7.753L118.497,6.855L118.048,6.106L117.299,3.711L117.149,-3.026M212.665,13.442L208.323,12.244L203.981,10.298L201.137,8.053L198.592,5.657L194.999,3.861M212.665,13.442L208.323,12.244L203.981,10.298L201.137,8.053L198.592,5.657L194.999,3.861M132.57,12.544L134.067,10.148L135.414,8.352L139.756,5.807L144.996,5.358L155.176,5.507M132.57,12.544L134.067,10.148L135.414,8.352L139.756,5.807L144.996,5.358L155.176,5.507M215.509,9.55L216.707,2.364M215.509,9.55L216.707,2.364M313.42,16.137L313.27,13.741L312.222,-1.379L311.473,-7.218L311.174,-8.565L311.174,-13.206L309.976,-21.141L310.126,-25.333L309.677,-28.327L308.779,-33.268L307.431,-45.394L307.132,-48.837L305.036,-63.958L302.191,-92.702L300.994,-105.578L299.347,-120.698L298.898,-124.291L297.101,-146.448L295.904,-155.132L294.107,-171.001L291.712,-191.96L291.562,-192.26L287.969,-223.849L287.22,-232.382L282.28,-282.834L281.831,-286.877L279.286,-310.082L275.693,-353.348L272.848,-381.344L269.405,-417.574L268.057,-430.898L267.908,-436.886L263.416,-484.344L262.219,-507.999L264.764,-510.693L267.159,-511.891L269.105,-512.041L295.454,-510.394L314.767,-509.945L347.554,-509.346L367.764,-509.496L392.766,-508.747L414.773,-508.448L419.265,-508.298L454.147,-508.448L562.088,-508.597L603.558,-508.597L607.151,-509.047L613.738,-510.544L618.978,-511.143L624.368,-511.442L644.279,-511.442L689.492,-513.388L695.63,-513.538L842.645,-514.286M319.408,77.069L319.109,72.578L318.959,70.781L316.564,49.373L316.264,44.732L315.815,39.641L314.767,33.503L314.018,22.425L313.569,18.532L313.27,13.741L312.222,-1.379L312.072,-3.026M313.27,13.741L353.093,12.694L379.292,12.244L382.885,9.849L383.933,6.705L388.125,-9.763L390.371,-12.458L394.862,-13.506L400.102,-13.206L405.791,-12.308L410.582,-10.062L412.677,-6.32M313.27,13.741L353.093,12.694L379.292,12.244L382.885,9.849L383.933,6.705L386.478,-3.026M226.139,9.55L226.139,3.711M226.139,9.55L226.139,3.711M80.92,39.791L80.62,37.845L78.375,29.012L77.327,26.467L75.979,24.071L74.183,21.826L72.087,19.58L67.296,15.388L64.751,13.741L59.511,11.496L56.667,10.598L53.972,9.999L51.127,9.55L47.983,9.25L42.294,9.1L39.6,9.25L34.36,8.951L33.461,8.801L31.815,8.651L26.275,8.352L19.988,7.603L1.873,7.304L-5.912,7.154L-9.206,7.154L-12.35,7.005L-16.392,7.454L-18.338,8.352L-20.284,9.55L-21.931,10.897L-23.279,12.394L-24.476,14.191L-25.674,16.137L-27.021,19.58L-28.369,24.521L-28.668,26.916L-28.668,29.311L-29.117,31.108L-29.866,32.605M215.509,9.55L229.432,9.55M215.509,9.55L234.522,9.55M198.143,244.445L193.951,198.933L193.651,195.789L189.909,154.469M107.867,253.128L108.466,265.404L108.766,267.949L111.461,273.489L112.209,277.531L112.808,279.926L113.107,282.92L115.503,302.383M111.91,42.037L100.382,41.737L84.812,41.138L80.92,39.791M133.917,42.785L134.216,17.784L134.067,13.891M206.976,336.367L206.526,331.277L206.227,326.486L205.029,316.456L204.58,311.665L203.981,306.575L202.933,297.442L202.634,289.358L198.143,244.445M134.067,13.891L132.57,12.544L130.623,11.496L127.18,11.346L122.389,10.448L119.844,9.1L118.946,7.753L118.497,6.855L118.048,6.106L117.299,3.711L117.149,-6.769L117.149,-29.375L117.299,-82.672L117.299,-115.458L117.449,-121.297L117.449,-125.04M134.067,13.891L132.57,12.544L130.623,11.496L127.18,11.346L122.389,10.448L119.844,9.1L118.946,7.753L118.497,6.855L118.048,6.106L117.299,3.711L117.149,-3.026M213.114,45.33L172.991,43.833L142.301,42.785L133.917,42.785L126.881,42.336L111.91,42.037M-77.174,264.955L-52.322,268.249L-50.376,268.249L-39.747,268.548L-36.753,268.698L-24.476,269.147L-14.146,269.596L-5.014,269.896L7.562,270.345L18.94,270.644L19.688,270.794L22.982,271.243L25.078,271.243L35.557,271.543L44.39,271.842L45.887,271.543L50.528,269.147L55.169,266.901L58.014,265.105L61.008,263.308L65.499,260.763L69.542,259.715L77.925,257.47L87.357,256.422L88.405,256.122L107.867,253.128L117.149,251.781L125.234,251.032L141.702,249.685L160.865,248.188L180.177,246.541L191.855,245.044L198.143,244.445L217.156,243.098L229.432,241.451M210.269,243.547L217.156,243.098L236.319,240.552L254.883,238.756L273.447,237.109L291.861,235.163L311.473,233.067M206.976,336.367L225.689,334.421L229.432,334.121M210.269,336.068L225.689,334.421L230.33,333.972L245.002,332.475L263.866,330.379L282.729,328.432L301.742,326.486L319.408,324.69M119.545,163.452L121.042,161.955L123.138,160.907L127.03,160.458L128.078,160.308L129.875,160.158L131.372,160.008L133.019,159.859L136.163,159.559L149.786,158.062L153.679,157.763L171.943,156.266L189.909,154.469L209.67,152.523L227.187,150.277L229.432,149.978M210.269,152.373L227.187,150.277L245.451,147.882L265.063,146.834L284.076,146.085L284.226,145.786L302.042,143.989M61.008,263.308L65.35,273.04L68.194,279.926L68.793,281.124L69.392,282.172L71.638,283.519L76.428,285.166L86.908,285.166L113.107,282.92M126.731,118.09L144.397,108.209L151.283,104.316L165.506,96.98L169.548,94.884L174.039,92.19L179.878,89.495L189.909,84.405L193.801,83.057L199.041,81.71L202.484,81.86L206.526,82.309L209.82,82.908L213.114,84.704M99.484,110.454L102.178,111.203M125.234,251.032L121.491,205.67L118.796,174.381L118.647,171.835L118.197,166.895L118.497,165.248L119.096,164.2L119.545,163.452M144.397,108.209L140.953,103.867L139.007,100.573L137.36,97.43L135.115,92.788L134.516,90.842L134.216,85.602L134.067,52.217L134.067,50.121L133.917,42.785M202.634,289.358L221.797,287.711L229.432,286.963M210.269,288.759L221.797,287.711L240.511,285.915L259.524,284.118L278.387,282.471L296.951,280.825L315.665,279.028M144.846,276.932L144.097,270.944L141.702,249.685M7.562,270.345L7.262,283.22L7.262,286.663L6.963,301.185L7.562,308.671L13.4,316.156L20.137,323.342L20.886,324.241L22.083,326.486L22.533,331.277M100.083,46.827L93.495,46.827M12.053,222.887L13.7,227.378M174.039,92.19L171.644,87.249L169.997,83.806M212.964,28.862L229.432,29.461M212.964,28.862L232.127,29.611L234.223,28.713L236.319,28.563M169.548,94.884L164.907,90.243M213.563,62.697L228.983,63.894L229.432,63.894M213.563,62.697L228.983,63.894L238.564,64.044L242.008,63.445L244.703,61.349L245.751,57.157L246.05,49.223M12.053,222.887L10.706,223.336L3.969,226.031L4.268,230.372M213.563,65.841L220.599,65.99L220.899,72.428M213.563,65.841L220.599,65.99L220.899,72.428M64.451,214.802L64.152,212.557L63.104,210.311L62.056,207.766L61.008,205.82L59.81,203.574L58.313,202.826L57.265,202.826L56.068,203.873L55.169,205.221L54.72,206.119L53.972,207.916L53.523,209.263L53.523,213.305L53.972,215.251L54.271,216.749M1.873,7.304L0.675,17.335L1.423,30.359M46.037,218.545L49.331,226.18L53.074,229.923L56.517,230.672M34.06,221.39L30.318,211.509M22.533,331.277L22.682,335.918L22.533,339.661L22.383,345.05L22.083,348.943L21.934,351.338L22.682,353.284L22.982,354.183L24.778,354.332L25.976,353.883L27.024,353.434L27.174,352.236L26.575,350.889L25.527,349.542L24.629,348.793L23.281,347.895L22.383,345.05M23.73,271.243L23.431,277.082M20.137,323.342L22.533,321.097M170.297,80.063L169.997,83.806L167.153,82.159L166.254,80.812L166.254,79.764L167.003,78.267L167.901,77.817L169.398,77.967L170.147,78.865L170.297,80.063M111.91,42.037L112.209,36.797M160.865,248.188L157.422,202.376L157.272,199.232L154.876,172.734L153.679,157.763M229.432,170.788L227.187,150.277L225.54,134.258L225.839,131.863L223.893,116.742L223.593,115.994L223.144,114.946L218.054,109.706L214.761,103.867L213.563,101.621L212.964,97.729L212.814,94.585L212.964,87.848L213.114,84.704L213.413,73.326L213.563,65.841L213.563,62.697L213.114,45.33L212.964,28.862L212.665,13.442L215.509,9.55M236.319,240.552L234.073,215.401L233.325,208.215L232.127,195.041L231.828,192.196L230.78,181.866L230.181,177.375L229.881,174.83L227.187,150.277L225.54,134.258L225.839,131.863L223.893,116.742L223.593,115.994L223.144,114.946L218.054,109.706L214.761,103.867L213.563,101.621L212.964,97.729L212.814,94.585L212.964,87.848L213.114,84.704L213.413,73.326L213.563,65.841L213.563,62.697L213.114,45.33L212.964,28.862L212.665,13.442L215.509,9.55M100.382,41.737L100.083,46.827L99.484,110.454M53.074,22.874L55.768,21.077M57.565,24.521L55.768,21.077L53.822,17.784L50.978,13.292L50.828,10.897L51.127,9.55M74.632,98.927L76.428,96.831L78.524,84.405L79.123,76.021M212.665,13.442L208.323,12.244L203.981,10.298L201.137,8.053L198.592,5.657L194.999,3.861M212.665,13.442L208.323,12.244L203.981,10.298L201.137,8.053L198.592,5.657L194.999,3.861M132.57,12.544L134.067,10.148L135.414,8.352L139.756,5.807L144.996,5.358L155.176,5.507M132.57,12.544L134.067,10.148L135.414,8.352L139.756,5.807L144.996,5.358L155.176,5.507M104.125,207.766L107.867,253.128M209.67,152.523L213.114,193.993L213.413,197.137L215.06,217.946L217.156,243.098L217.306,244.744L219.851,269.596L221.797,287.711L225.689,334.421M210.269,159.709L213.114,193.993L213.413,197.137L215.06,217.946L217.156,243.098L217.306,244.744L219.851,269.596L221.797,287.711L225.689,334.421M136.163,159.559L136.612,165.398L136.911,170.039L139.456,204.023M172.991,43.833L169.398,38.144L168.949,33.952L169.997,30.06L168.051,24.97L167.153,21.976L159.667,21.377M139.456,204.023L141.702,249.685M202.933,297.442L198.742,297.592L191.555,298.191L187.513,298.64L183.771,299.239L182.423,300.586L181.824,302.682L182.872,313.611L184.22,327.983L185.717,342.355L185.717,342.954L187.663,359.422L187.364,363.165M184.22,327.983L194.101,327.384L206.227,326.486M187.364,363.165L186.615,367.656L187.214,371.998L187.962,377.388L188.262,381.729L188.861,386.67L189.01,389.664L188.711,392.209L186.914,393.556L184.519,394.305L182.124,394.005L180.627,390.562L180.327,384.873L180.327,380.082L180.177,376.639L179.279,372.148L179.279,368.704L178.83,365.71L179.13,364.363L182.124,363.465L187.364,363.165L193.352,362.566L203.981,361.518L208.173,360.47L209.521,360.021L209.072,356.877L208.922,355.231L207.874,342.206L207.425,340.559L206.976,336.367M185.717,342.355L207.425,340.559M154.876,172.734L149.936,173.033L147.69,173.482M104.125,207.766L101.13,176.477L100.382,168.242L99.633,165.997L98.885,164.35L98.436,163.302L96.04,158.362L93.346,153.421L88.255,150.427L78.524,149.379L62.056,148.481L56.517,148.481L49.63,148.63L46.486,147.582M80.92,39.791L76.279,42.336L72.835,46.079L69.542,49.971L65.649,54.463L62.206,58.205L57.265,60.9L52.774,62.996L44.091,65.242M215.509,9.55L216.707,2.364M215.509,9.55L216.707,2.364M142.301,42.785L142.75,38.144M80.92,39.791L80.47,47.875L80.021,55.81L79.722,65.541L79.423,74.224L79.123,76.021L75.53,79.165L64.751,83.506L54.571,85.602M171.943,156.266L175.536,197.586L175.836,200.73L179.279,236.211L180.177,246.541M356.536,251.93L353.841,228.725L352.045,206.718L349.35,184.261L348.152,172.285L347.104,162.104L344.709,138.3L344.559,128.27L344.26,122.132L343.661,120.036L342.913,119.137M347.554,412.12L380.789,412.869M482.592,389.065L480.197,392.958L479.897,396.101L468.519,396.101L462.082,396.401L456.842,396.7L450.255,395.353L447.261,392.808M417.917,246.99L416.42,226.33L414.175,200.43L409.833,156.116M511.187,395.353L540.081,394.305M270.902,407.33L233.474,407.779M534.691,309.269L514.93,309.868L479.299,310.467M362.075,331.127L338.87,331.427M534.841,276.483L534.691,309.269M359.83,108.658L361.477,108.957L362.674,107.909L363.423,106.262L363.423,105.065L362.974,104.017L362.075,103.268L361.027,103.119L359.53,103.717L358.632,105.065L358.782,107.31L359.83,108.658M334.978,236.061L334.229,230.372L334.08,225.881L328.69,181.267L327.043,165.697L324.498,134.707L322.702,117.341L321.205,104.166L320.456,96.232L319.558,81.86L319.558,80.812L319.408,77.069M249.344,373.944L245.002,332.475L240.511,285.915L238.714,267.351L236.319,240.552M340.817,298.49L360.728,297.742L381.987,295.496L420.762,291.304L421.061,291.304L432.739,290.556L435.284,290.406L442.17,289.957L450.554,287.861L454.596,286.364M455.644,279.028L465.076,277.98L487.233,277.231L534.841,276.483L566.13,275.435L571.071,275.285L578.556,275.285L581.101,275.435L588.587,275.734L592.629,276.034L596.821,277.082L600.115,277.98L604.007,279.627M515.229,340.559L540.53,340.11M342.913,119.137L342.463,118.539L341.266,117.64L339.769,117.341L335.128,117.042L322.702,117.341M349.35,184.261L331.834,184.86L330.636,184.411L329.888,183.363L328.69,181.267M352.045,206.718L373.004,204.772L375.849,204.622L393.065,202.676L414.175,200.43L431.541,198.783L446.662,197.885L450.105,197.137L458.788,196.238L461.782,195.939L467.771,195.49L476.155,195.49L477.801,195.639L479.748,196.687L480.945,197.735M340.817,298.49L340.218,292.951L338.87,281.423L337.523,264.955L335.577,240.552L334.978,236.061M347.554,412.12L343.96,379.783L343.661,377.837L342.613,367.956L341.266,356.428L340.817,350.889L338.87,331.427L336.475,314.06L336.026,306.874L336.176,304.179L336.774,302.832L338.122,300.886L340.817,298.49M347.554,412.12L348.302,414.965L350.548,419.905L352.644,436.224L353.991,449.698L355.638,451.494L357.434,452.093L361.327,452.392L406.39,451.494L456.243,450.596L462.681,450.596L469.268,450.147L473.61,449.398L478.101,449.698L480.796,450.895L483.041,454.189L484.838,458.98L487.533,465.268L488.73,472.903L489.629,497.455L490.078,506.288L490.826,574.107L491.874,622.314L491.874,628.601L491.874,629.35M347.104,162.104L352.344,161.056L357.584,160.907L362.824,161.056L368.363,160.607L389.173,158.511L409.833,156.116L426.301,152.972L431.092,152.074L434.984,151.325L439.476,151.924M613.589,315.108L611.193,314.958L606.103,314.958L604.157,315.108L603.259,315.408L602.211,316.306L601.762,317.504L601.612,319.749L601.163,356.428L601.163,397.599M-77.174,264.955L-52.322,268.249L-50.376,268.249L-39.747,268.548L-36.753,268.698L-24.476,269.147L-14.146,269.596L-5.014,269.896L7.562,270.345L18.94,270.644L19.688,270.794L22.982,271.243L25.078,271.243L35.557,271.543L44.39,271.842L45.887,271.543L50.528,269.147L55.169,266.901L58.014,265.105L61.008,263.308L65.499,260.763L69.542,259.715L77.925,257.47L87.357,256.422L88.405,256.122L107.867,253.128L117.149,251.781L125.234,251.032L141.702,249.685L160.865,248.188L180.177,246.541L191.855,245.044L198.143,244.445L217.156,243.098L229.432,241.451M210.269,243.547L217.156,243.098L236.319,240.552L254.883,238.756L273.447,237.109L291.861,235.163L311.473,233.067M206.976,336.367L225.689,334.421L229.432,334.121M210.269,336.068L225.689,334.421L230.33,333.972L245.002,332.475L263.866,330.379L282.729,328.432L301.742,326.486L319.408,324.69M270.902,407.33L268.656,380.681L268.956,378.585M470.615,352.985L468.819,352.835L465.825,352.087L464.777,351.488L459.686,346.996L456.243,344.451L451.303,341.906L446.213,341.008L439.326,340.559M360.728,297.742L360.129,291.454L358.782,278.878L356.536,251.93M540.231,367.806L513.283,367.956M340.817,350.889L335.427,351.188L322.253,351.488M520.619,424.995L526.906,426.493L541.428,425.145L545.47,426.642M375.998,147.882L369.561,141.444L366.716,138.151L364.77,134.857L363.423,128.42L362.375,121.533L361.477,108.957M451.602,243.547L446.662,197.885L443.668,158.661L442.769,154.918L441.572,152.972L439.476,151.924M313.42,16.137L313.27,13.741L312.222,-1.379L311.473,-7.218L311.174,-8.565L311.174,-13.206L309.976,-21.141L310.126,-25.333L309.677,-28.327L308.779,-33.268L307.431,-45.394L307.132,-48.837L305.036,-63.958L302.191,-92.702L300.994,-105.578L299.347,-120.698L298.898,-124.291L297.101,-146.448L295.904,-155.132L294.107,-171.001L291.712,-191.96L291.562,-192.26L287.969,-223.849L287.22,-232.382L282.28,-282.834L281.831,-286.877L279.286,-310.082L275.693,-353.348L272.848,-381.344L269.405,-417.574L268.057,-430.898L267.908,-436.886L263.416,-484.344L262.219,-507.999L264.764,-510.693L267.159,-511.891L269.105,-512.041L295.454,-510.394L314.767,-509.945L347.554,-509.346L367.764,-509.496L392.766,-508.747L414.773,-508.448L419.265,-508.298L454.147,-508.448L562.088,-508.597L603.558,-508.597L607.151,-509.047L613.738,-510.544L618.978,-511.143L624.368,-511.442L644.279,-511.442L689.492,-513.388L695.63,-513.538L842.645,-514.286M319.408,77.069L319.109,72.578L318.959,70.781L316.564,49.373L316.264,44.732L315.815,39.641L314.767,33.503L314.018,22.425L313.569,18.532L313.27,13.741L312.222,-1.379L312.072,-3.026M606.702,235.462L596.821,235.762L587.539,235.762L582.748,235.911L582.299,235.911L572.418,235.762L566.28,235.911M119.545,163.452L121.042,161.955L123.138,160.907L127.03,160.458L128.078,160.308L129.875,160.158L131.372,160.008L133.019,159.859L136.163,159.559L149.786,158.062L153.679,157.763L171.943,156.266L189.909,154.469L209.67,152.523L227.187,150.277L229.432,149.978M210.269,152.373L227.187,150.277L245.451,147.882L265.063,146.834L284.076,146.085L284.226,145.786L302.042,143.989M356.536,251.93L377.196,249.835L397.108,248.637L417.917,246.99L419.115,246.84L434.984,245.343L440.973,244.744L441.721,244.595L451.602,243.547L456.093,242.349L466.723,241.451L483.64,240.852L490.826,240.552L531.398,240.103L533.194,240.852L534.092,242.199M480.945,197.735L481.544,199.232L482.143,204.173L483.64,240.852M202.634,289.358L221.797,287.711L229.432,286.963M210.269,288.759L221.797,287.711L240.511,285.915L259.524,284.118L278.387,282.471L296.951,280.825L315.665,279.028M290.514,410.923L289.765,400.144L287.071,374.244L285.574,364.363L284.975,357.177L282.729,328.432L278.387,282.471L273.447,237.109M381.987,295.496L377.196,249.835M534.092,242.199L534.542,243.996L534.841,276.483M534.691,309.269L540.68,309.12M244.553,132.162L225.54,134.258M316.264,44.732L323.899,43.384L328.989,44.881M263.866,330.379L266.261,354.033M358.782,278.878L353.392,279.777L348.901,280.226L344.859,280.974L338.87,281.423M236.469,106.113L238.864,104.616L241.858,104.166L242.158,106.712L242.906,112.401L243.804,120.036L244.553,127.671L244.553,132.162L245.451,147.882L248.296,172.883L248.595,176.027L248.894,179.022L249.344,182.315L250.541,193.094L251.889,207.467L254.883,238.756L257.129,265.105L259.524,284.118L263.866,330.379M319.109,72.578L325.846,71.829L344.559,69.284L348.003,68.086L351.895,67.338L356.386,66.439L360.279,66.14L364.471,65.541L365.668,64.344L367.615,60.152L367.465,56.708L366.417,54.612L363.722,54.014L357.884,53.864L355.189,54.762L352.793,57.157L349.799,61.05L348.152,64.793L348.003,68.086M397.108,248.637L393.065,202.676L390.221,170.189L389.173,158.511M212.964,28.862L229.432,29.461M212.964,28.862L232.127,29.611L234.223,28.713L236.319,28.563M232.127,29.611L231.977,32.306L233.474,34.402L236.319,35.3M514.93,309.868L515.079,324.69L515.229,340.559L515.678,346.547L515.678,351.338L515.229,358.075L513.283,367.956L512.384,375.292L511.187,395.353L511.786,405.533L512.983,411.971L513.582,413.618L515.379,417.51L516.427,419.157L517.026,420.654L518.822,422.9L520.619,424.995M446.512,321.396L442.17,319.599L438.278,318.402L436.631,318.701L435.733,319.899L435.284,321.246L435.284,322.145L436.182,323.492L437.829,324.39L441.122,325.738L443.069,326.486M286.172,216L285.723,210.311M281.531,216.449L281.082,211.06M276.89,216.898L276.291,211.658M271.8,217.347L276.89,216.898L286.172,216L290.364,215.551M441.572,152.972L441.721,149.828L444.117,147.433L446.811,145.636L449.955,145.636L452.051,146.235L454.447,146.235L456.393,144.888L456.992,142.642L456.992,136.953M213.563,62.697L228.983,63.894L229.432,63.894M213.563,62.697L228.983,63.894L238.564,64.044L242.008,63.445L244.703,61.349L245.751,57.157L246.05,49.223M232.576,66.439L232.426,70.482M220.599,65.99L232.576,66.439M213.563,65.841L220.599,65.99L220.899,72.428M213.563,65.841L220.599,65.99L220.899,72.428M426.301,152.972L428.098,159.559L431.541,198.783L433.337,224.384L434.984,245.343M268.956,378.585L270.602,377.088L287.071,374.244L306.234,371.848L323.6,370.351M420.762,291.304L419.414,270.195L417.917,246.99M229.432,170.788L227.187,150.277L225.54,134.258L225.839,131.863L223.893,116.742L223.593,115.994L223.144,114.946L218.054,109.706L214.761,103.867L213.563,101.621L212.964,97.729L212.814,94.585L212.964,87.848L213.114,84.704L213.413,73.326L213.563,65.841L213.563,62.697L213.114,45.33L212.964,28.862L212.665,13.442L215.509,9.55M236.319,240.552L234.073,215.401L233.325,208.215L232.127,195.041L231.828,192.196L230.78,181.866L230.181,177.375L229.881,174.83L227.187,150.277L225.54,134.258L225.839,131.863L223.893,116.742L223.593,115.994L223.144,114.946L218.054,109.706L214.761,103.867L213.563,101.621L212.964,97.729L212.814,94.585L212.964,87.848L213.114,84.704L213.413,73.326L213.563,65.841L213.563,62.697L213.114,45.33L212.964,28.862L212.665,13.442L215.509,9.55M273.447,237.109L272.249,223.785L271.8,217.347L269.704,191.747L269.255,188.453L265.063,146.834L263.866,128.42L263.566,123.329L261.32,98.627M377.196,249.835L373.004,204.772L369.411,171.237L368.363,160.607M215.509,9.55L229.432,9.55M215.509,9.55L234.522,9.55M489.629,70.631L489.778,136.803M447.261,392.808L444.715,389.065L443.668,382.478L441.272,365.111L440.074,351.637L439.625,347.146L439.476,344.152L439.326,340.559L439.326,339.212L439.775,336.367L440.524,332.475L443.069,326.486L444.566,324.241L446.512,321.396L450.404,315.557L452.201,312.114L453.399,310.168L454.596,306.575L455.195,302.982L455.794,296.993L455.944,294.598L456.093,294.149L455.644,290.256L454.596,286.364L455.644,282.172L455.644,279.028L454.297,274.537L453.249,267.65L451.752,248.936L451.602,243.547M209.67,152.523L213.114,193.993L213.413,197.137L215.06,217.946L217.156,243.098L217.306,244.744L219.851,269.596L221.797,287.711L225.689,334.421M210.269,159.709L213.114,193.993L213.413,197.137L215.06,217.946L217.156,243.098L217.306,244.744L219.851,269.596L221.797,287.711L225.689,334.421M560.891,222.887L563.885,230.672L564.783,233.067L566.28,235.911M440.074,351.637L445.314,351.937M582.149,248.337L582.299,242.499L582.299,235.911M582.748,235.911L582.748,226.629M566.28,235.911L567.777,233.965L568.526,232.468L571.52,225.132M592.03,226.18L592.18,235.762M596.372,246.391L596.821,235.762M586.94,248.188L587.24,240.852L587.539,235.762M567.927,246.84L567.777,242.199L567.628,238.906L566.28,235.911M556.399,238.307L560.292,238.307L562.537,238.007L566.28,235.911M430.044,321.995L432.439,322.145L435.284,322.145M432.739,290.556L432.888,293.849L432.888,296.394M421.061,291.304L421.361,294.897L421.211,297.592M435.284,290.406L435.733,295.945M455.794,296.993L459.836,297.143M451.602,294.897L453.998,294.598L455.944,294.598M452.201,312.114L453.698,313.162L456.393,315.408M447.111,310.168L450.854,311.815L452.201,312.114M444.566,324.241L447.261,325.139L449.506,326.786M434.984,335.768L439.775,336.367M434.835,344.152L439.476,344.152M462.83,355.68L464.028,353.135L464.777,351.488M468.07,364.662L468.819,352.835M230.181,177.375L248.595,176.027M360.129,291.454L340.218,292.951M572.119,291.155L571.67,289.358L571.819,286.663L572.718,275.285M271.95,368.106L270.902,364.213L271.052,362.267L271.8,361.069L273.297,360.321L278.687,358.524L284.975,357.177M406.39,451.494L405.791,448.201L405.342,443.26L405.192,433.379L404.893,429.936L403.994,427.541L401.898,424.846L400.401,422.151L398.305,420.205L396.359,419.007L392.916,418.558L389.173,419.007L387.227,418.708L385.73,417.809L384.532,416.462L382.286,414.216L380.789,412.869M417.618,104.466L418.067,105.664L419.414,107.909L422.858,110.454L439.176,110.454L439.326,127.372L439.476,151.924M278.986,94.435L279.136,95.932L282.13,125.725L284.076,146.085L286.621,173.183L287.52,182.615L288.268,190.25L290.364,215.551L290.963,222.737L291.861,235.163L294.406,257.47L296.951,280.825L298.449,295.646L301.742,326.486L306.234,371.848L310.276,411.072M266.111,30.509L279.885,30.958M279.885,30.958L285.873,31.108L290.514,30.808M279.885,30.958L279.735,42.186M367.764,365.261L342.613,367.956M348.302,357.776L341.266,356.428M226.139,9.55L226.139,3.711M226.139,9.55L226.139,3.711M433.337,224.384L416.42,226.33M313.27,13.741L353.093,12.694L379.292,12.244L382.885,9.849L383.933,6.705L388.125,-9.763L390.371,-12.458L394.862,-13.506L400.102,-13.206L405.791,-12.308L410.582,-10.062L412.677,-6.32M313.27,13.741L353.093,12.694L379.292,12.244L382.885,9.849L383.933,6.705L386.478,-3.026" stroke="rgb(231,231,231)" id="road_minor" transform="translate(0.5, 0)" style="fill: none; stroke-width: 2.62987; stroke-linejoin: round; stroke-linecap: round; stroke: rgb(231, 231, 231);"/><path d="M229.432,195.34L213.413,197.137L193.951,198.933L175.836,200.73L157.422,202.376L121.491,205.67L104.125,207.766L93.346,209.562L84.213,211.06L73.135,213.156L64.451,214.802L55.169,216.599L54.271,216.749L46.786,218.395L46.037,218.545L34.06,221.39L33.012,221.539L29.12,222.887L20.437,225.581L13.7,227.378L4.268,230.372L-9.056,235.313L-14.296,237.409L-29.866,243.397L-37.052,246.241L-59.808,256.272L-77.174,264.955L-86.756,270.195L-91.696,272.74L-114.602,285.765L-169.246,315.258L-183.918,323.492L-191.104,326.935L-208.171,335.02L-221.944,342.954L-230.029,347.146L-266.708,367.058L-315.663,395.952L-345.605,413.318L-360.576,422.151L-372.104,429.936L-402.944,450.297M756.262,-3.026L745.334,-0.032L737.698,1.914L607.151,38.444L601.762,40.09L539.033,57.157L489.629,70.631L483.191,72.428L471.214,76.47L466.873,77.817L456.393,81.56L440.224,89.645L428.996,96.382L421.81,101.172L417.618,104.466L413.875,107.46L403.096,116.742L390.82,129.917L376.747,146.834L375.998,147.882L374.052,150.726L368.214,156.864L362.824,161.056L356.087,166.895L348.152,172.285L343.062,175.279L328.69,181.267L319.707,183.962L317.911,184.411L307.132,188.304L288.268,190.25L280.932,190.849L272.549,191.448L269.704,191.747L250.541,193.094L232.127,195.041L213.413,197.137L210.269,197.436M229.432,195.34L213.413,197.137L193.951,198.933L175.836,200.73L157.422,202.376L121.491,205.67L104.125,207.766L93.346,209.562L84.213,211.06L73.135,213.156L64.451,214.802L55.169,216.599L54.271,216.749L46.786,218.395L46.037,218.545L34.06,221.39L33.012,221.539L29.12,222.887L20.437,225.581L13.7,227.378L4.268,230.372L-9.056,235.313L-14.296,237.409L-29.866,243.397L-37.052,246.241L-59.808,256.272L-77.174,264.955L-86.756,270.195L-91.696,272.74L-114.602,285.765L-169.246,315.258L-183.918,323.492L-191.104,326.935L-208.171,335.02L-221.944,342.954L-230.029,347.146L-266.708,367.058L-315.663,395.952L-345.605,413.318L-360.576,422.151L-372.104,429.936L-402.944,450.297M756.262,-3.026L745.334,-0.032L737.698,1.914L607.151,38.444L601.762,40.09L539.033,57.157L489.629,70.631L483.191,72.428L471.214,76.47L466.873,77.817L456.393,81.56L440.224,89.645L428.996,96.382L421.81,101.172L417.618,104.466L413.875,107.46L403.096,116.742L390.82,129.917L376.747,146.834L375.998,147.882L374.052,150.726L368.214,156.864L362.824,161.056L356.087,166.895L348.152,172.285L343.062,175.279L328.69,181.267L319.707,183.962L317.911,184.411L307.132,188.304L288.268,190.25L280.932,190.849L272.549,191.448L269.704,191.747L250.541,193.094L232.127,195.041L213.413,197.137L210.269,197.436" stroke="rgb(231,231,231)" id="road_secondary_tertiary" transform="translate(0.5, 0)" style="fill: none; stroke-width: 3.17539; stroke-linejoin: round; stroke-linecap: round; stroke: rgb(231, 231, 231);"/><path d="M289.167,16.137L285.574,-20.392L284.825,-28.177L283.777,-37.759L280.932,-54.826L278.238,-65.156L275.992,-70.994L274.944,-74.288L267.758,-88.96L261.62,-101.985L259.524,-107.224L257.877,-109.62L255.332,-113.662L253.835,-115.458L253.386,-116.207L251.589,-118.453L228.534,-143.305L210.269,-159.024M311.473,233.067L307.132,188.304L305.186,171.386L302.042,143.989L296.353,91.441L295.604,83.506L295.305,79.913L294.556,71.38L293.658,58.205L293.209,54.762L292.161,46.229L291.562,40.989L290.514,30.808L289.765,21.826L287.37,-3.026M348.901,629.35L345.308,591.473L344.709,586.233L337.822,519.014L327.941,412.42M327.941,412.42L323.6,370.351L322.253,351.488L319.558,326.187L319.408,324.69L316.863,294.748L315.665,279.028L311.473,233.067M289.167,16.137L285.574,-20.392L284.825,-28.177L283.777,-37.759L280.932,-54.826L278.238,-65.156L275.992,-70.994L274.944,-74.288L267.758,-88.96L261.62,-101.985L259.524,-107.224L257.877,-109.62L255.332,-113.662L253.835,-115.458L253.386,-116.207L251.589,-118.453L228.534,-143.305L210.269,-159.024M311.473,233.067L307.132,188.304L305.186,171.386L302.042,143.989L296.353,91.441L295.604,83.506L295.305,79.913L294.556,71.38L293.658,58.205L293.209,54.762L292.161,46.229L291.562,40.989L290.514,30.808L289.765,21.826L287.37,-3.026" stroke="rgb(231,231,231)" id="road_primary" transform="translate(0.5, 0)" style="fill: none; stroke-width: 4.54739; stroke-linejoin: round; stroke-linecap: round; stroke: rgb(231, 231, 231);"/><path d="M229.432,195.34L213.413,197.137L193.951,198.933L175.836,200.73L157.422,202.376L121.491,205.67L104.125,207.766L93.346,209.562L84.213,211.06L73.135,213.156L64.451,214.802L55.169,216.599L54.271,216.749L46.786,218.395L46.037,218.545L34.06,221.39L33.012,221.539L29.12,222.887L20.437,225.581L13.7,227.378L4.268,230.372L-9.056,235.313L-14.296,237.409L-29.866,243.397L-37.052,246.241L-59.808,256.272L-77.174,264.955L-86.756,270.195L-91.696,272.74L-114.602,285.765L-169.246,315.258L-183.918,323.492L-191.104,326.935L-208.171,335.02L-221.944,342.954L-230.029,347.146L-266.708,367.058L-315.663,395.952L-345.605,413.318L-360.576,422.151L-372.104,429.936L-402.944,450.297M756.262,-3.026L745.334,-0.032L737.698,1.914L607.151,38.444L601.762,40.09L539.033,57.157L489.629,70.631L483.191,72.428L471.214,76.47L466.873,77.817L456.393,81.56L440.224,89.645L428.996,96.382L421.81,101.172L417.618,104.466L413.875,107.46L403.096,116.742L390.82,129.917L376.747,146.834L375.998,147.882L374.052,150.726L368.214,156.864L362.824,161.056L356.087,166.895L348.152,172.285L343.062,175.279L328.69,181.267L319.707,183.962L317.911,184.411L307.132,188.304L288.268,190.25L280.932,190.849L272.549,191.448L269.704,191.747L250.541,193.094L232.127,195.041L213.413,197.137L210.269,197.436M229.432,195.34L213.413,197.137L193.951,198.933L175.836,200.73L157.422,202.376L121.491,205.67L104.125,207.766L93.346,209.562L84.213,211.06L73.135,213.156L64.451,214.802L55.169,216.599L54.271,216.749L46.786,218.395L46.037,218.545L34.06,221.39L33.012,221.539L29.12,222.887L20.437,225.581L13.7,227.378L4.268,230.372L-9.056,235.313L-14.296,237.409L-29.866,243.397L-37.052,246.241L-59.808,256.272L-77.174,264.955L-86.756,270.195L-91.696,272.74L-114.602,285.765L-169.246,315.258L-183.918,323.492L-191.104,326.935L-208.171,335.02L-221.944,342.954L-230.029,347.146L-266.708,367.058L-315.663,395.952L-345.605,413.318L-360.576,422.151L-372.104,429.936L-402.944,450.297M756.262,-3.026L745.334,-0.032L737.698,1.914L607.151,38.444L601.762,40.09L539.033,57.157L489.629,70.631L483.191,72.428L471.214,76.47L466.873,77.817L456.393,81.56L440.224,89.645L428.996,96.382L421.81,101.172L417.618,104.466L413.875,107.46L403.096,116.742L390.82,129.917L376.747,146.834L375.998,147.882L374.052,150.726L368.214,156.864L362.824,161.056L356.087,166.895L348.152,172.285L343.062,175.279L328.69,181.267L319.707,183.962L317.911,184.411L307.132,188.304L288.268,190.25L280.932,190.849L272.549,191.448L269.704,191.747L250.541,193.094L232.127,195.041L213.413,197.137L210.269,197.436" stroke="rgb(231,231,231)" id="road_trunk" transform="translate(0.5, 0)" style="fill: none; stroke-width: 4.54739; stroke-linejoin: round; stroke-linecap: round; stroke: rgb(231, 231, 231);"/><path d="M301.592,16.137L300.844,7.753L287.969,-124.591L272.698,-282.236L264.614,-363.678L262.967,-381.344L253.835,-477.308L240.511,-616.239M362.824,629.35L335.427,351.188L330.936,310.467L327.492,278.13L318.36,189.651L317.911,184.411L308.479,86.201L307.281,74.524L300.844,7.753L299.796,-3.026M229.432,97.43L213.563,101.621L192.005,108.957L168.5,119.886L96.04,158.362L53.972,181.267L-31.064,228.725L-65.347,246.99L-98.882,266.003L-149.035,293.7L-186.014,313.461L-272.546,360.171L-303.387,377.388L-328.538,391.311L-382.883,420.654L-402.944,432.481M290.364,87.848L271.501,90.393L259.973,91.591L240.062,94.735L213.563,101.621L210.269,102.669M325.696,84.405L290.364,87.848M708.954,-3.026L616.882,21.976L450.105,68.086L424.355,73.176L411.18,75.422L394.563,77.668L325.696,84.405M229.432,97.43L213.563,101.621L192.005,108.957L168.5,119.886L96.04,158.362L53.972,181.267L-31.064,228.725L-65.347,246.99L-98.882,266.003L-149.035,293.7L-186.014,313.461L-272.546,360.171L-303.387,377.388L-328.538,391.311L-382.883,420.654L-402.944,432.481M290.364,87.848L271.501,90.393L259.973,91.591L240.062,94.735L213.563,101.621L210.269,102.669M301.592,16.137L300.844,7.753L287.969,-124.591L272.698,-282.236L264.614,-363.678L262.967,-381.344L253.835,-477.308L240.511,-616.239M362.824,629.35L335.427,351.188L330.936,310.467L327.492,278.13L318.36,189.651L317.911,184.411L308.479,86.201L307.281,74.524L300.844,7.753L299.796,-3.026" stroke="rgb(157,157,157)" id="railway" transform="translate(0.5, 0)" style="fill: none; stroke-width: 1; stroke-opacity: 0.652049; stroke-linejoin: miter; stroke-linecap: butt; stroke: rgb(157, 157, 157);"/><g id="S-svg ASH-svg ST.-svg"><text transform="rotate(86.51390521505432, 202.67269897460938, 290.4043273925781) translate(202.67269897460938, 284.9043273925781)" style="text-anchor: middle;"><tspan x="0" y="10" style="font-family: Roboto; font-weight: 400; font-stretch: 100%; font-size: 10px; stroke: rgb(255, 255, 255); stroke-width: 2; stroke-linejoin: round; stroke-linecap: round;">S ASH ST.</tspan></text><text transform="rotate(86.51390521505432, 202.6727, 290.40433) translate(202.67269897460938, 284.9043273925781)" style="text-anchor: middle;"><tspan fill="rgb(136, 136, 136)" x="0" y="10" style="font-family: Roboto; font-weight: 400; font-stretch: 100%; font-size: 10px;">S ASH ST.</tspan></text></g><g id="W-svg MAIN-svg ST.-svg"><text transform="rotate(-9.249210993352808, 79.63068389892578, 257.2804870605469) translate(79.63068389892578, 251.78048706054688)" style="text-anchor: middle;"><tspan x="0" y="10" style="font-family: Roboto; font-weight: 400; font-stretch: 100%; font-size: 10px; stroke: rgb(255, 255, 255); stroke-width: 2; stroke-linejoin: round; stroke-linecap: round;">W MAIN ST.</tspan></text><text transform="rotate(-9.249210993352808, 79.63068, 257.28049) translate(79.63068389892578, 251.78048706054688)" style="text-anchor: middle;"><tspan fill="rgb(136, 136, 136)" x="0" y="10" style="font-family: Roboto; font-weight: 400; font-stretch: 100%; font-size: 10px;">W MAIN ST.</tspan></text></g><g id="W-svg HERITAGE-svg DR.-svg"><text transform="rotate(-28.35602807322862, 168.81570434570312, 95.26374053955078) translate(168.81570434570312, 89.76374053955078)" style="text-anchor: middle;"><tspan x="0" y="10" style="font-family: Roboto; font-weight: 400; font-stretch: 100%; font-size: 10px; stroke: rgb(255, 255, 255); stroke-width: 2; stroke-linejoin: round; stroke-linecap: round;">W HERITAGE DR.</tspan></text><text transform="rotate(-28.35602807322862, 168.8157, 95.26374) translate(168.81570434570312, 89.76374053955078)" style="text-anchor: middle;"><tspan fill="rgb(136, 136, 136)" x="0" y="10" style="font-family: Roboto; font-weight: 400; font-stretch: 100%; font-size: 10px;">W HERITAGE DR.</tspan></text></g><g id="W-svg WASHINGTON-svg ST.-svg"><text transform="rotate(-5.589140550975981, 178.90951538085938, 155.56919860839844) translate(178.90951538085938, 150.06919860839844)" style="text-anchor: middle;"><tspan x="0" y="10" style="font-family: Roboto; font-weight: 400; font-stretch: 100%; font-size: 10px; stroke: rgb(255, 255, 255); stroke-width: 2; stroke-linejoin: round; stroke-linecap: round;">W WASHINGTON ST.</tspan></text><text transform="rotate(-5.589140550975981, 178.90952, 155.5692) translate(178.90951538085938, 150.06919860839844)" style="text-anchor: middle;"><tspan fill="rgb(136, 136, 136)" x="0" y="10" style="font-family: Roboto; font-weight: 400; font-stretch: 100%; font-size: 10px;">W WASHINGTON ST.</tspan></text></g><g id="N-svg PLUM-svg ST.-svg"><text transform="rotate(85.20813064227232, 121.6080551147461, 207.088623046875) translate(121.6080551147461, 201.588623046875)" style="text-anchor: middle;"><tspan x="0" y="10" style="font-family: Roboto; font-weight: 400; font-stretch: 100%; font-size: 10px; stroke: rgb(255, 255, 255); stroke-width: 2; stroke-linejoin: round; stroke-linecap: round;">N PLUM ST.</tspan></text><text transform="rotate(85.20813064227232, 121.60806, 207.08862) translate(121.6080551147461, 201.588623046875)" style="text-anchor: middle;"><tspan fill="rgb(136, 136, 136)" x="0" y="10" style="font-family: Roboto; font-weight: 400; font-stretch: 100%; font-size: 10px;">N PLUM ST.</tspan></text></g><g id="N-svg CHERRY-svg ST.-svg"><text transform="rotate(85.91660421846917, 157.46578979492188, 202.958740234375) translate(157.46578979492188, 197.458740234375)" style="text-anchor: middle;"><tspan x="0" y="10" style="font-family: Roboto; font-weight: 400; font-stretch: 100%; font-size: 10px; stroke: rgb(255, 255, 255); stroke-width: 2; stroke-linejoin: round; stroke-linecap: round;">N CHERRY ST.</tspan></text><text transform="rotate(85.91660421846917, 157.46579, 202.95874) translate(157.46578979492188, 197.458740234375)" style="text-anchor: middle;"><tspan fill="rgb(136, 136, 136)" x="0" y="10" style="font-family: Roboto; font-weight: 400; font-stretch: 100%; font-size: 10px;">N CHERRY ST.</tspan></text></g><g id="N-svg ASH-svg ST.-svg"><text transform="rotate(84.67972508287214, 193.99949645996094, 199.45941162109375) translate(193.99949645996094, 193.95941162109375)" style="text-anchor: middle;"><tspan x="0" y="10" style="font-family: Roboto; font-weight: 400; font-stretch: 100%; font-size: 10px; stroke: rgb(255, 255, 255); stroke-width: 2; stroke-linejoin: round; stroke-linecap: round;">N ASH ST.</tspan></text><text transform="rotate(84.67972508287214, 193.9995, 199.45941) translate(193.99949645996094, 193.95941162109375)" style="text-anchor: middle;"><tspan fill="rgb(136, 136, 136)" x="0" y="10" style="font-family: Roboto; font-weight: 400; font-stretch: 100%; font-size: 10px;">N ASH ST.</tspan></text></g><g id="S-svg CHESTNUT-svg ST.-svg"><text transform="rotate(84.72212707192998, 319.2464294433594, 322.7892150878906) translate(319.2464294433594, 317.2892150878906)" style="text-anchor: middle;"><tspan x="0" y="10" style="font-family: Roboto; font-weight: 400; font-stretch: 100%; font-size: 10px; stroke: rgb(255, 255, 255); stroke-width: 2; stroke-linejoin: round; stroke-linecap: round;">S CHESTNUT ST.</tspan></text><text transform="rotate(84.72212707192998, 319.24643, 322.78922) translate(319.2464294433594, 317.2892150878906)" style="text-anchor: middle;"><tspan fill="rgb(136, 136, 136)" x="0" y="10" style="font-family: Roboto; font-weight: 400; font-stretch: 100%; font-size: 10px;">S CHESTNUT ST.</tspan></text></g><g id="UNITED-svg STATES-svg HIGHWAY-svg 51-svg"><text transform="rotate(83.82107689955971, 298.39215087890625, 110.27608489990234) translate(298.39215087890625, 104.77608489990234)" style="text-anchor: middle;"><tspan x="0" y="10" style="font-family: Roboto; font-weight: 400; font-stretch: 100%; font-size: 10px; stroke: rgb(255, 255, 255); stroke-width: 2; stroke-linejoin: round; stroke-linecap: round;">UNITED STATES HIGHWAY 51</tspan></text><text transform="rotate(83.82107689955971, 298.39215, 110.27608) translate(298.39215087890625, 104.77608489990234)" style="text-anchor: middle;"><tspan fill="rgb(136, 136, 136)" x="0" y="10" style="font-family: Roboto; font-weight: 400; font-stretch: 100%; font-size: 10px;">UNITED STATES HIGHWAY 51</tspan></text></g><g id="W-svg MAIN-svg ST.-svg"><text transform="rotate(-5.2462629582794165, 256.0701599121094, 238.65066528320312) translate(256.0701599121094, 233.15066528320312)" style="text-anchor: middle;"><tspan x="0" y="10" style="font-family: Roboto; font-weight: 400; font-stretch: 100%; font-size: 10px; stroke: rgb(255, 255, 255); stroke-width: 2; stroke-linejoin: round; stroke-linecap: round;">W MAIN ST.</tspan></text><text transform="rotate(-5.2462629582794165, 256.07016, 238.65067) translate(256.0701599121094, 233.15066528320312)" style="text-anchor: middle;"><tspan fill="rgb(136, 136, 136)" x="0" y="10" style="font-family: Roboto; font-weight: 400; font-stretch: 100%; font-size: 10px;">W MAIN ST.</tspan></text></g><g id="S-svg WALNUT-svg ST.-svg"><text transform="rotate(84.74566976753962, 282.309814453125, 323.9948425292969) translate(282.309814453125, 318.4948425292969)" style="text-anchor: middle;"><tspan x="0" y="10" style="font-family: Roboto; font-weight: 400; font-stretch: 100%; font-size: 10px; stroke: rgb(255, 255, 255); stroke-width: 2; stroke-linejoin: round; stroke-linecap: round;">S WALNUT ST.</tspan></text><text transform="rotate(84.74566976753962, 282.30981, 323.99484) translate(282.309814453125, 318.4948425292969)" style="text-anchor: middle;"><tspan fill="rgb(136, 136, 136)" x="0" y="10" style="font-family: Roboto; font-weight: 400; font-stretch: 100%; font-size: 10px;">S WALNUT ST.</tspan></text></g><g id="S-svg LAKE-svg ST.-svg"><text transform="rotate(98.8140890210025, 513.2123413085938, 368.5328369140625) translate(513.2123413085938, 363.0328369140625)" style="text-anchor: middle;"><tspan x="0" y="10" style="font-family: Roboto; font-weight: 400; font-stretch: 100%; font-size: 10px; stroke: rgb(255, 255, 255); stroke-width: 2; stroke-linejoin: round; stroke-linecap: round;">S LAKE ST.</tspan></text><text transform="rotate(98.8140890210025, 513.21234, 368.53284) translate(513.2123413085938, 363.0328369140625)" style="text-anchor: middle;"><tspan fill="rgb(136, 136, 136)" x="0" y="10" style="font-family: Roboto; font-weight: 400; font-stretch: 100%; font-size: 10px;">S LAKE ST.</tspan></text></g><g id="N-svg PINE-svg ST.-svg"><text transform="rotate(83.58261347062874, 349.4893493652344, 185.42202758789062) translate(349.4893493652344, 179.92202758789062)" style="text-anchor: middle;"><tspan x="0" y="10" style="font-family: Roboto; font-weight: 400; font-stretch: 100%; font-size: 10px; stroke: rgb(255, 255, 255); stroke-width: 2; stroke-linejoin: round; stroke-linecap: round;">N PINE ST.</tspan></text><text transform="rotate(83.58261347062874, 349.48935, 185.42203) translate(349.4893493652344, 179.92202758789062)" style="text-anchor: middle;"><tspan fill="rgb(136, 136, 136)" x="0" y="10" style="font-family: Roboto; font-weight: 400; font-stretch: 100%; font-size: 10px;">N PINE ST.</tspan></text></g><g id="N-svg LOCUST-svg ST.-svg"><text transform="rotate(84.31228603159242, 373.0433349609375, 205.19473266601562) translate(373.0433349609375, 199.69473266601562)" style="text-anchor: middle;"><tspan x="0" y="10" style="font-family: Roboto; font-weight: 400; font-stretch: 100%; font-size: 10px; stroke: rgb(255, 255, 255); stroke-width: 2; stroke-linejoin: round; stroke-linecap: round;">N LOCUST ST.</tspan></text><text transform="rotate(84.31228603159242, 373.04333, 205.19473) translate(373.0433349609375, 199.69473266601562)" style="text-anchor: middle;"><tspan fill="rgb(136, 136, 136)" x="0" y="10" style="font-family: Roboto; font-weight: 400; font-stretch: 100%; font-size: 10px;">N LOCUST ST.</tspan></text></g><g id="E-svg MAIN-svg ST.-svg"><text transform="rotate(-6.451093603371431, 445.69622802734375, 244.17337036132812) translate(445.69622802734375, 238.67337036132812)" style="text-anchor: middle;"><tspan x="0" y="10" style="font-family: Roboto; font-weight: 400; font-stretch: 100%; font-size: 10px; stroke: rgb(255, 255, 255); stroke-width: 2; stroke-linejoin: round; stroke-linecap: round;">E MAIN ST.</tspan></text><text transform="rotate(-6.451093603371431, 445.69623, 244.17337) translate(445.69622802734375, 238.67337036132812)" style="text-anchor: middle;"><tspan fill="rgb(136, 136, 136)" x="0" y="10" style="font-family: Roboto; font-weight: 400; font-stretch: 100%; font-size: 10px;">E MAIN ST.</tspan></text></g><g id="E-svg LINCOLN-svg ST.-svg"><text transform="rotate(-5.613723587724912, 416.7857666015625, 200.18238830566406) translate(416.7857666015625, 194.68238830566406)" style="text-anchor: middle;"><tspan x="0" y="10" style="font-family: Roboto; font-weight: 400; font-stretch: 100%; font-size: 10px; stroke: rgb(255, 255, 255); stroke-width: 2; stroke-linejoin: round; stroke-linecap: round;">E LINCOLN ST.</tspan></text><text transform="rotate(-5.613723587724912, 416.78577, 200.18239) translate(416.7857666015625, 194.68238830566406)" style="text-anchor: middle;"><tspan fill="rgb(136, 136, 136)" x="0" y="10" style="font-family: Roboto; font-weight: 400; font-stretch: 100%; font-size: 10px;">E LINCOLN ST.</tspan></text></g><g id="E-svg DOUGLAS-svg ST.-svg"><text transform="rotate(-6.170294662794016, 397.9449462890625, 293.770751953125) translate(397.9449462890625, 288.270751953125)" style="text-anchor: middle;"><tspan x="0" y="10" style="font-family: Roboto; font-weight: 400; font-stretch: 100%; font-size: 10px; stroke: rgb(255, 255, 255); stroke-width: 2; stroke-linejoin: round; stroke-linecap: round;">E DOUGLAS ST.</tspan></text><text transform="rotate(-6.170294662794016, 397.94495, 293.77075) translate(397.9449462890625, 288.270751953125)" style="text-anchor: middle;"><tspan fill="rgb(136, 136, 136)" x="0" y="10" style="font-family: Roboto; font-weight: 400; font-stretch: 100%; font-size: 10px;">E DOUGLAS ST.</tspan></text></g><g id="E-svg DOUGLAS-svg ST.-svg"><text transform="rotate(-1.0582422184676723, 530.1001586914062, 276.5574951171875) translate(530.1001586914062, 271.0574951171875)" style="text-anchor: middle;"><tspan x="0" y="10" style="font-family: Roboto; font-weight: 400; font-stretch: 100%; font-size: 10px; stroke: rgb(255, 255, 255); stroke-width: 2; stroke-linejoin: round; stroke-linecap: round;">E DOUGLAS ST.</tspan></text><text transform="rotate(-1.0582422184676723, 530.10016, 276.5575) translate(530.1001586914062, 271.0574951171875)" style="text-anchor: middle;"><tspan fill="rgb(136, 136, 136)" x="0" y="10" style="font-family: Roboto; font-weight: 400; font-stretch: 100%; font-size: 10px;">E DOUGLAS ST.</tspan></text></g><g id="S-svg HICKORY-svg ST.-svg"><text transform="rotate(84.490519331385, 242.57115173339844, 307.2734680175781) translate(242.57115173339844, 301.7734680175781)" style="text-anchor: middle;"><tspan x="0" y="10" style="font-family: Roboto; font-weight: 400; font-stretch: 100%; font-size: 10px; stroke: rgb(255, 255, 255); stroke-width: 2; stroke-linejoin: round; stroke-linecap: round;">S HICKORY ST.</tspan></text><text transform="rotate(84.490519331385, 242.57115, 307.27347) translate(242.57115173339844, 301.7734680175781)" style="text-anchor: middle;"><tspan fill="rgb(136, 136, 136)" x="0" y="10" style="font-family: Roboto; font-weight: 400; font-stretch: 100%; font-size: 10px;">S HICKORY ST.</tspan></text></g><g id="OAK-svg STREET-svg"><text transform="rotate(83.84247151280594, 314.6842041015625, 32.27864456176758) translate(314.6842041015625, 26.778644561767578)" style="text-anchor: middle;"><tspan x="0" y="10" style="font-family: Roboto; font-weight: 400; font-stretch: 100%; font-size: 10px; stroke: rgb(255, 255, 255); stroke-width: 2; stroke-linejoin: round; stroke-linecap: round;">OAK STREET</tspan></text><text transform="rotate(83.84247151280594, 314.6842, 32.27864) translate(314.6842041015625, 26.778644561767578)" style="text-anchor: middle;"><tspan fill="rgb(136, 136, 136)" x="0" y="10" style="font-family: Roboto; font-weight: 400; font-stretch: 100%; font-size: 10px;">OAK STREET</tspan></text></g><g id="N-svg WALNUT-svg ST.-svg"><text transform="rotate(84.24836096503842, 267.18328857421875, 167.8847198486328) translate(267.18328857421875, 162.3847198486328)" style="text-anchor: middle;"><tspan x="0" y="10" style="font-family: Roboto; font-weight: 400; font-stretch: 100%; font-size: 10px; stroke: rgb(255, 255, 255); stroke-width: 2; stroke-linejoin: round; stroke-linecap: round;">N WALNUT ST.</tspan></text><text transform="rotate(84.24836096503842, 267.18329, 167.88472) translate(267.18328857421875, 162.3847198486328)" style="text-anchor: middle;"><tspan fill="rgb(136, 136, 136)" x="0" y="10" style="font-family: Roboto; font-weight: 400; font-stretch: 100%; font-size: 10px;">N WALNUT ST.</tspan></text></g><g id="N-svg OAK-svg ST.-svg"><text transform="rotate(85.3051971923086, 326.3002624511719, 156.65284729003906) translate(326.3002624511719, 151.15284729003906)" style="text-anchor: middle;"><tspan x="0" y="10" style="font-family: Roboto; font-weight: 400; font-stretch: 100%; font-size: 10px; stroke: rgb(255, 255, 255); stroke-width: 2; stroke-linejoin: round; stroke-linecap: round;">N OAK ST.</tspan></text><text transform="rotate(85.3051971923086, 326.30026, 156.65285) translate(326.3002624511719, 151.15284729003906)" style="text-anchor: middle;"><tspan fill="rgb(136, 136, 136)" x="0" y="10" style="font-family: Roboto; font-weight: 400; font-stretch: 100%; font-size: 10px;">N OAK ST.</tspan></text></g></g><g id="De-svg Soto-svg"><text transform="translate(106, 363.609375)" style="text-anchor: middle;"><tspan x="0" y="14" style="font-family: Roboto; font-weight: 400; font-stretch: 100%; font-size: 14px; stroke: rgb(242, 243, 240); stroke-width: 2; stroke-linejoin: round; stroke-linecap: round;">De Soto</tspan></text><text transform="translate(106, 363.609375)" style="text-anchor: middle;"><tspan fill="rgb(51,51,51)" x="0" y="14" style="font-family: Roboto; font-weight: 400; font-stretch: 100%; font-size: 14px;">De Soto</tspan></text></g><g id="svg-marker-svg" transform="translate(106, 372)"><g id="svg-id-4io5CclOU2-svg" transform="translate(-14, -14)"/></g><rect width="156.96875" height="14" transform="translate(443.03125, 433)" fill="rgba(255,255,255,0.73)" style="fill: rgb(255, 255, 255); fill-opacity: 0.73;"/><text transform="translate(447, 434)"><tspan fill="rgba(119,119,119,0.87)" x="0" y="11" style="font-family: Roboto; font-weight: 400; font-stretch: 100%; font-size: 11px;"></tspan><tspan fill="rgba(119,119,119,0.87)" dx="2.734375" style="font-family: Roboto; font-weight: 400; font-stretch: 100%; font-size: 11px;">OpenStreetMap</tspan><tspan fill="rgba(119,119,119,0.87)" dx="2.734375" style="font-family: Roboto; font-weight: 400; font-stretch: 100%; font-size: 11px;">contributors</tspan></text></g></g></g></g><g id="container-svg container-footer-svg datawrapper-Tz1MV-1la8dcw-svg"><text transform="translate(0, 467)"><tspan fill="rgb(136,136,136)" x="0" y="11" style="font-family: Roboto; font-weight: 400; font-stretch: 100%; font-size: 11px;">Created with</tspan><tspan fill="rgb(136,136,136)" dx="2.734375" style="font-family: Roboto; font-weight: 400; font-stretch: 100%; font-size: 11px;">Datawrapper</tspan></text></g></g></g></g></svg>