<svg xmlns="http://www.w3.org/2000/svg" xmlns:xlink="http://www.w3.org/1999/xlink" id="exportSvg" width="600" height="480"><defs/><g><g id="__svelte-dw-svg" clip-path="url(#rect-mask-QRy_3vWdCTjQ-SL9Izk_p)"><clipPath id="rect-mask-QRy_3vWdCTjQ-SL9Izk_p"><rect x="0" y="0" width="600" height="480"/></clipPath><g id="container-svg container-body-svg datawrapper-VZblJ-1gvfeww-svg"><g id="container-svg container-bodyTop-svg datawrapper-VZblJ-lmtz6e-svg"><g id="container-svg container-bodyCenter-svg datawrapper-VZblJ-1fgvipr-svg"><g id="chart-svg"><g id="container-inner-svg export-group-svg maplibregl-map-svg" clip-path="url(#rect-mask-rT6RX9RvdXtXCFEi90it1)"><clipPath id="rect-mask-rT6RX9RvdXtXCFEi90it1"><rect x="0" y="0" width="600" height="447"/></clipPath><g id="basemap-svg" clip-path="url(#rect-mask-hd8HPCjZ64IhyGEKfT0FQ)"><clipPath id="rect-mask-hd8HPCjZ64IhyGEKfT0FQ"><rect x="0" y="0" width="600" height="447"/></clipPath><rect width="600" height="447" transform="translate(0, 0)" fill="rgb(255,255,255)" id="background" style="fill: rgb(255, 255, 255);"/><path d="M507.754,2.629L505.901,0.775L504.974,-2.932L505.592,-26.409" stroke="rgb(231,231,231)" id="road_path" transform="translate(0.5, 0)" style="fill: none; stroke-width: 1.04567; stroke-linejoin: bevel; stroke-linecap: square; stroke-dasharray: 0.75595, 1.88988; stroke: rgb(231, 231, 231);"/><path d="M183.86,342.74L177.219,335.635L169.342,328.376L162.7,322.352L154.514,314.784L146.482,307.061L141.54,302.118L135.979,297.176L118.371,280.494L109.258,271.381L107.096,269.528L103.235,265.667M103.543,424.293L97.983,419.196L94.74,416.415L91.341,414.562L85.781,414.099L51.337,414.253L39.599,415.025L32.803,416.879L27.551,420.74L24.617,427.073L22.763,436.804L10.407,437.421L-20.793,438.194L-28.516,439.12L-45.815,445.608L-53.229,448.542L-75.471,457.964L-80.722,460.59L-85.819,464.606L-90.144,469.394L-112.077,498.277L-115.32,502.756L-117.637,505.227L-119.954,506.154L-122.425,506.772L-125.514,506L-130.148,503.837L-132.465,503.683L-134.473,504.301L-136.481,506L-138.952,508.471L-141.423,509.861L-144.358,510.633L-148.065,511.097L-153.162,509.552L-156.714,508.008L-163.974,504.919L-167.835,502.756L-172.314,501.366L-186.524,498.586L-192.857,497.041L-198.881,494.879L-204.132,492.717L-209.538,489.627L-212.473,486.229L-214.172,480.669L-209.384,454.875M102.308,71.825L89.951,71.825L68.173,72.134L1.757,73.215L-9.518,73.678L-20.948,74.45L-28.207,74.605L-59.407,74.296L-62.805,73.987L-64.041,72.597L-66.512,69.199M248.268,245.742L278.387,214.696L287.191,204.966L302.637,189.057L306.189,184.732L334.455,154.459L350.827,136.696L358.086,129.591L360.558,129.128L362.411,129.746L364.883,131.754L367.508,134.843M388.978,379.5L368.589,360.194L365.037,356.641L329.512,322.043L325.342,318.182L311.75,304.898L297.076,291.306L282.558,274.934M404.423,395.409L402.106,392.011L369.207,360.811M103.235,265.667L104.316,265.203L106.633,264.431L115.282,265.049L119.761,264.74L124.241,263.35L127.947,260.57L136.288,251.457L138.914,248.831L148.336,238.946L164.09,221.647L170.886,214.387L190.193,194.617L193.282,191.682L211.199,172.684L222.165,161.563L250.894,131.29L276.225,105.187L279.777,101.171L286.882,94.221L297.54,82.791L299.857,80.783M246.261,400.97L249.968,397.263L254.756,391.857L261.397,384.134L268.193,377.184L270.047,375.33L280.55,365.136L296.304,348.455L311.132,332.855L321.789,322.043L325.342,318.182M321.017,199.868L306.189,184.732L292.597,171.603L291.362,170.367L281.785,161.409L278.542,158.011L275.762,155.231L265.104,144.882L250.894,131.29L248.423,128.819L223.401,104.724M382.49,258.716L373.378,249.449L367.972,244.197L354.688,231.223L342.332,219.175L339.552,216.086M382.49,258.716L373.378,249.449L369.207,245.433M325.342,318.182L339.861,302.89L346.657,295.94L353.607,288.526L368.898,273.235L377.548,263.813L382.49,258.716L388.978,251.92M369.207,272.926L377.548,263.813L382.49,258.716L408.902,231.223L411.992,227.671M367.508,134.843L370.134,137.932L374.768,143.956M294.914,398.807L270.047,375.33L256.146,362.201L242.399,348.455L226.181,334.554M345.884,396.954L340.787,391.702L304.49,356.641L298.003,349.845L296.304,348.455L281.631,334.399L273.136,326.368L268.193,321.271L252.902,306.906M136.597,194.617L162.7,168.514L165.789,165.27M165.017,164.498L175.829,153.686L188.031,141.175L194.518,134.688L196.68,132.371L223.401,104.724L249.659,77.076L252.284,75.377L267.884,58.387M353.607,288.526L350.055,284.51L339.397,274.78L335.536,270.455L328.585,263.968L325.96,261.342L311.132,245.278M207.647,204.966L198.534,197.088L193.282,191.682M217.841,374.558L226.49,365.136L235.294,356.178L242.399,348.455L248.577,342.431L257.072,333.318L268.193,321.271L289.354,299.492L297.076,291.306L300.166,287.908L325.96,261.342L328.894,258.253L354.688,231.223L358.241,227.671L381.409,202.803L383.417,200.332M369.207,215.932L381.409,202.803L383.417,200.332M262.633,85.417L275.144,72.443M246.261,400.97L253.52,400.506L294.914,398.807L315.148,398.19L336.926,398.035L345.884,396.954L352.217,397.263L363.801,396.954L369.207,397.108L378.475,397.108L388.978,396.491M369.207,397.108L378.475,397.108L396.546,396.027L399.326,395.718L404.423,395.409M141.54,302.118L146.173,296.867L166.253,275.243L169.651,272.154L178.146,263.35L186.795,254.546L191.892,248.985L211.508,228.443L220.621,218.249L250.122,187.821L266.031,170.831L278.542,158.011L283.639,152.914L301.401,134.843L307.734,128.201L315.92,119.088M169.342,328.376L171.967,325.287L175.983,321.116L194.209,302.582L201.16,295.477L220.312,275.397L228.035,266.902L234.522,260.57L248.268,245.742M368.589,360.194L369.053,345.675L369.207,311.386L369.053,278.795L368.898,273.235M130.882,131.136L147.1,114.146L150.498,110.13M369.207,525.307L369.207,518.047L369.053,493.334L369.207,421.667L369.207,389.849L368.898,380.736L368.589,360.194M193.282,191.682L184.787,183.651L180.154,179.171L165.789,165.27L165.017,164.498L155.595,154.767L145.401,144.573L130.882,131.136L101.69,103.488M99.373,530.095L99.064,524.689L99.064,511.869L98.755,486.847L98.755,474.027L98.91,470.32L99.373,467.849L100.609,465.069L102.462,462.907L108.795,456.419L177.373,385.061L202.241,359.73M282.558,274.934L289.663,267.211L311.132,245.278M252.902,306.906L250.276,304.281L248.886,303.045L245.643,299.338L243.171,297.33L242.245,296.403L234.831,289.607L227.263,282.657L220.312,275.397L206.411,261.805L191.892,248.985L178.146,235.857L164.09,221.647L160.383,217.476L153.433,210.68L151.27,208.672L144.474,202.185L140.613,198.324L136.597,194.617L131.809,190.447L117.753,176.546L108.949,168.205L106.169,165.27M208.728,317.564L194.209,302.582L179.999,288.681L166.253,275.243L158.066,267.366L143.548,253.31L138.914,248.831M-263.443,328.53L-257.574,321.888L-247.38,309.069L-232.089,287.908L-222.976,275.088L-217.415,268.292L-214.944,266.284L-212.627,265.512L-209.847,265.203L-190.077,265.203L-145.285,264.277L-57.399,263.195L-41.49,262.886L19.829,261.651L32.648,261.496L66.783,261.033L83.773,260.415L92.423,260.724L97.211,261.651L103.235,265.667M246.261,400.97L244.098,399.58L240.391,396.645L231.896,388.613L221.084,378.11L217.841,374.558L210.89,368.225L202.241,359.73M292.906,229.061L278.387,214.696L264.177,201.104L260.47,197.397L250.122,187.821L244.253,182.415L236.53,175.001L222.165,161.563L209.809,149.67L198.225,138.55L196.989,137.159L194.518,134.688M248.268,245.742L238.692,235.857L235.758,232.922L234.985,231.995L222.629,219.948L220.621,218.249L218.459,216.086L207.647,204.966M263.405,259.952L248.268,245.742M202.241,359.73L226.181,334.554L252.902,306.906L256.609,302.582L264.332,294.395L272.672,285.128L282.558,274.934M106.169,165.27L105.551,164.807L102.617,160.946L101.844,158.011L101.69,153.068L101.999,140.403L102.153,132.371L102.153,121.251L101.69,103.488L102.308,71.825L102.617,61.167L102.308,47.266L102.771,25.025L102.771,21.163L102.926,16.066L103.235,-12.508L103.235,-20.231L103.235,-26.409M311.132,245.278L319.164,237.247L331.057,225.045L339.552,216.086L367.045,185.041L388.978,161.872M369.207,182.724L445.045,102.561L447.98,100.399M147.872,378.419L140.922,371.469L135.207,366.372L128.72,359.73L124.241,354.633L122.85,351.853L123.159,349.382L124.704,347.065L125.167,346.292L133.045,337.643L142.93,333.318M234.522,260.57L225.718,250.221L222.165,246.051M240.237,228.597L241.009,225.508L243.789,222.728L246.415,221.647M238.692,235.857L229.734,246.051L225.718,250.221M101.999,140.403L59.369,143.338M235.758,232.922L240.237,228.597L243.171,226.589L245.179,224.118L246.415,221.647L264.177,201.104L292.597,171.603M50.411,-10.5L50.411,-5.558L51.029,-0.461L53.654,1.238L77.749,-1.233L81.147,-1.542L84.391,-2.468L85.781,-4.322L86.399,-12.199M293.37,113.991L290.744,117.08L274.372,135.306L267.267,142.72L265.104,144.882L249.504,161.718L236.53,175.001L228.962,182.878L218.767,193.845L207.647,204.966L193.9,219.33L178.146,235.857M102.771,21.163L131.346,20.237L131.809,19.773L131.191,-4.94L128.256,-8.492L128.102,-13.28M231.896,388.613L256.146,362.201L281.631,334.399L311.75,304.898L339.397,274.78L367.972,244.197L388.978,222.573M369.207,242.962L397.627,213.615M169.342,328.376L163.009,335.172L159.611,338.415L158.066,340.114L155.286,340.114L148.799,337.952L144.165,336.253L142.93,333.318L143.239,329.148L147.1,322.352L148.645,320.653L152.197,316.946L154.514,314.784L159.148,309.841L179.999,288.681L187.258,281.112L206.411,261.805L218.613,249.449L222.165,246.051L232.668,234.775L234.985,231.995M77.749,-1.233L78.213,14.985L80.993,21.781L84.237,24.87L89.951,26.26L97.056,25.797L102.771,25.025M311.132,245.278L319.164,237.247L331.057,225.045L339.552,216.086L367.045,185.041L388.978,161.872M369.207,182.724L445.045,102.561L447.98,100.399M325.342,318.182L339.861,302.89L346.657,295.94L353.607,288.526L368.898,273.235L377.548,263.813L382.49,258.716L388.978,251.92M369.207,272.926L377.548,263.813L382.49,258.716L408.902,231.223L411.992,227.671M382.49,258.716L373.378,249.449L367.972,244.197L354.688,231.223L342.332,219.175L339.552,216.086M382.49,258.716L373.378,249.449L369.207,245.433M700.206,516.039L694.954,510.479L677.501,492.871L660.356,475.109L651.552,466.305L634.253,448.542L625.604,439.893L616.954,430.934L591.006,404.522L584.21,397.263L580.657,393.865L577.105,390.776L575.251,389.849L570.926,388.459L568.764,388.15L562.122,388.15L551.156,388.922L540.035,389.231L529.069,389.695L521.192,390.158L498.023,391.239L404.423,395.409M217.841,374.558L226.49,365.136L235.294,356.178L242.399,348.455L248.577,342.431L257.072,333.318L268.193,321.271L289.354,299.492L297.076,291.306L300.166,287.908L325.96,261.342L328.894,258.253L354.688,231.223L358.241,227.671L381.409,202.803L383.417,200.332M369.207,215.932L381.409,202.803L383.417,200.332M246.261,400.97L253.52,400.506L294.914,398.807L315.148,398.19L336.926,398.035L345.884,396.954L352.217,397.263L363.801,396.954L369.207,397.108L378.475,397.108L388.978,396.491M369.207,397.108L378.475,397.108L396.546,396.027L399.326,395.718L404.423,395.409M388.978,379.5L368.589,360.194L365.037,356.641L329.512,322.043L325.342,318.182L311.75,304.898L297.076,291.306L282.558,274.934M404.423,395.409L402.106,392.011L369.207,360.811M231.896,388.613L256.146,362.201L281.631,334.399L311.75,304.898L339.397,274.78L367.972,244.197L388.978,222.573M369.207,242.962L397.627,213.615" stroke="rgb(231,231,231)" id="road_minor" transform="translate(0.5, 0)" style="fill: none; stroke-width: 2.67782; stroke-linejoin: round; stroke-linecap: round; stroke: rgb(231, 231, 231);"/><path d="M350.209,169.441L347.584,166.815L334.455,154.459L325.033,145.191L314.53,135.152L307.734,128.201L305.108,125.421L296.304,116.926L293.37,113.991L279.777,101.171L273.445,95.765L266.494,89.278L262.633,85.417L253.983,76.922L252.284,75.377L244.098,67.5L232.205,55.916L222.165,46.34L212.744,37.381L181.08,6.799L176.601,2.783L175.674,2.011L170.114,-2.468L162.082,-7.257L155.75,-9.728L149.262,-11.736L140.767,-12.971L134.28,-13.435L128.102,-13.28L125.476,-13.28L103.235,-12.508M-1.95,533.029L53.345,475.726L103.543,424.293L133.817,392.784L147.872,378.419L170.732,355.405L177.219,349.227L183.86,342.74L189.73,337.18L206.72,319.572L208.728,317.564L231.278,293.778L234.831,289.607L238.538,285.591L263.405,259.952L292.906,229.061L295.841,226.126L321.017,199.868L336.926,183.496L350.209,169.441L354.38,164.961L374.768,143.956L388.978,128.819M369.207,149.67L374.768,143.956L395.774,121.559L430.063,84.336L481.342,29.658L502.039,8.498M388.978,205.429L387.433,203.884L383.417,200.332L380.637,197.706L367.045,185.041L360.249,179.017L358.55,177.163L350.209,169.441M517.948,253.001L507.445,253.465L500.031,254.082L487.675,255.164L473.156,255.473L459.409,255.318L448.906,252.538L444.273,250.993L438.867,248.213L430.835,243.116L421.413,235.702L411.992,227.671L408.285,223.809L397.627,213.615L387.433,203.884L383.417,200.332L380.637,197.706L369.207,187.049M502.039,8.498L507.754,2.629L535.556,-26.409M-1.95,533.029L53.345,475.726L103.543,424.293L133.817,392.784L147.872,378.419L170.732,355.405L177.219,349.227L183.86,342.74L189.73,337.18L206.72,319.572L208.728,317.564L231.278,293.778L234.831,289.607L238.538,285.591L263.405,259.952L292.906,229.061L295.841,226.126L321.017,199.868L336.926,183.496L350.209,169.441L354.38,164.961L374.768,143.956L388.978,128.819M369.207,149.67L374.768,143.956L395.774,121.559L430.063,84.336L481.342,29.658L502.039,8.498M388.978,205.429L387.433,203.884L383.417,200.332L380.637,197.706L367.045,185.041L360.249,179.017L358.55,177.163L350.209,169.441M517.948,253.001L507.445,253.465L500.031,254.082L487.675,255.164L473.156,255.473L459.409,255.318L448.906,252.538L444.273,250.993L438.867,248.213L430.835,243.116L421.413,235.702L411.992,227.671L408.285,223.809L397.627,213.615L387.433,203.884L383.417,200.332L380.637,197.706L369.207,187.049M1021.628,237.71L1013.288,238.173L924.167,240.181L888.178,241.726L845.394,242.498L761.061,245.124L714.57,246.051L669.778,247.595L633.172,248.213L591.624,249.758L547.913,251.457L517.948,253.001" stroke="rgb(231,231,231)" id="road_secondary_tertiary" transform="translate(0.5, 0)" style="fill: none; stroke-width: 3.21893; stroke-linejoin: round; stroke-linecap: round; stroke: rgb(231, 231, 231);"/><path d="M350.209,169.441L347.584,166.815L334.455,154.459L325.033,145.191L314.53,135.152L307.734,128.201L305.108,125.421L296.304,116.926L293.37,113.991L279.777,101.171L273.445,95.765L266.494,89.278L262.633,85.417L253.983,76.922L252.284,75.377L244.098,67.5L232.205,55.916L222.165,46.34L212.744,37.381L181.08,6.799L176.601,2.783L175.674,2.011L170.114,-2.468L162.082,-7.257L155.75,-9.728L149.262,-11.736L140.767,-12.971L134.28,-13.435L128.102,-13.28L125.476,-13.28L103.235,-12.508M-1.95,533.029L53.345,475.726L103.543,424.293L133.817,392.784L147.872,378.419L170.732,355.405L177.219,349.227L183.86,342.74L189.73,337.18L206.72,319.572L208.728,317.564L231.278,293.778L234.831,289.607L238.538,285.591L263.405,259.952L292.906,229.061L295.841,226.126L321.017,199.868L336.926,183.496L350.209,169.441L354.38,164.961L374.768,143.956L388.978,128.819M369.207,149.67L374.768,143.956L395.774,121.559L430.063,84.336L481.342,29.658L502.039,8.498M502.039,8.498L507.754,2.629L535.556,-26.409M-1.95,533.029L53.345,475.726L103.543,424.293L133.817,392.784L147.872,378.419L170.732,355.405L177.219,349.227L183.86,342.74L189.73,337.18L206.72,319.572L208.728,317.564L231.278,293.778L234.831,289.607L238.538,285.591L263.405,259.952L292.906,229.061L295.841,226.126L321.017,199.868L336.926,183.496L350.209,169.441L354.38,164.961L374.768,143.956L388.978,128.819M369.207,149.67L374.768,143.956L395.774,121.559L430.063,84.336L481.342,29.658L502.039,8.498" stroke="rgb(231,231,231)" id="road_trunk" transform="translate(0.5, 0)" style="fill: none; stroke-width: 4.61326; stroke-linejoin: round; stroke-linecap: round; stroke: rgb(231, 231, 231);"/><path d="M-37.475,594.503L-27.28,582.301L-21.72,575.814L-7.356,560.986L103.08,445.762L128.874,418.732L137.215,409.465L179.999,365.291L188.031,356.95L195.908,346.601L213.979,327.449L231.896,308.914L243.171,297.33L270.973,268.601L354.534,181.488M-67.593,626.012L-37.475,594.503L-4.267,560.059L23.381,531.485L108.795,441.746L139.223,410.083L153.896,394.483L167.797,380.582L184.942,362.201L194.363,352.471L218.15,327.603L245.643,299.338L264.332,279.568L276.071,267.366L352.526,187.203L360.249,179.017L368.898,170.367L388.978,149.361M369.207,170.059L499.722,33.365L546.677,-15.288L553.01,-21.621L557.643,-26.409M137.215,409.465L147.563,397.263L151.579,392.784L186.795,356.023L194.827,345.829L216.296,323.433L242.245,296.403L270.819,267.057L307.116,228.134L333.065,201.722L344.649,189.829L354.534,181.488L358.55,177.163L382.027,152.296L388.978,145.809M369.207,165.888L382.027,152.296L396.392,139.013L530.614,-0.769L546.677,-15.288M-67.593,626.012L-37.475,594.503L-4.267,560.059L23.381,531.485L108.795,441.746L139.223,410.083L153.896,394.483L167.797,380.582L184.942,362.201L194.363,352.471L218.15,327.603L245.643,299.338L264.332,279.568L276.071,267.366L352.526,187.203L360.249,179.017L368.898,170.367L388.978,149.361M369.207,170.059L499.722,33.365L546.677,-15.288L553.01,-21.621L557.643,-26.409M137.215,409.465L147.563,397.263L151.579,392.784L186.795,356.023L194.827,345.829L216.296,323.433L242.245,296.403L270.819,267.057L307.116,228.134L333.065,201.722L344.649,189.829L354.534,181.488L358.55,177.163L382.027,152.296L388.978,145.809M369.207,165.888L382.027,152.296L396.392,139.013L530.614,-0.769L546.677,-15.288" stroke="rgb(157,157,157)" id="railway" transform="translate(0.5, 0)" style="fill: none; stroke-width: 1; stroke-opacity: 0.661053; stroke-linejoin: miter; stroke-linecap: butt; stroke: rgb(157, 157, 157);"/><g id="S-svg CHESTNUT-svg ST.-svg"><text transform="rotate(-46.02335040906744, 199.72525024414062, 326.8211669921875) translate(199.72525024414062, 321.3211669921875)" style="text-anchor: middle;"><tspan x="0" y="10" style="font-family: Roboto; font-weight: 400; font-stretch: 100%; font-size: 10px; stroke: rgb(255, 255, 255); stroke-width: 2; stroke-linejoin: round; stroke-linecap: round;">S CHESTNUT ST.</tspan></text><text transform="rotate(-46.02335040906744, 199.72525, 326.82117) translate(199.72525024414062, 321.3211669921875)" style="text-anchor: middle;"><tspan fill="rgb(136, 136, 136)" x="0" y="10" style="font-family: Roboto; font-weight: 400; font-stretch: 100%; font-size: 10px;">S CHESTNUT ST.</tspan></text></g><g id="W-svg WASHINGTON-svg ST.-svg"><text transform="rotate(44.09942028269619, 235.58326721191406, 59.20648956298828) translate(235.58326721191406, 53.70648956298828)" style="text-anchor: middle;"><tspan x="0" y="10" style="font-family: Roboto; font-weight: 400; font-stretch: 100%; font-size: 10px; stroke: rgb(255, 255, 255); stroke-width: 2; stroke-linejoin: round; stroke-linecap: round;">W WASHINGTON ST.</tspan></text><text transform="rotate(44.09942028269619, 235.58327, 59.20649) translate(235.58326721191406, 53.70648956298828)" style="text-anchor: middle;"><tspan fill="rgb(136, 136, 136)" x="0" y="10" style="font-family: Roboto; font-weight: 400; font-stretch: 100%; font-size: 10px;">W WASHINGTON ST.</tspan></text></g><g id="OAK-svg STREET-svg"><text transform="rotate(-46.1381226090296, 128.61520385742188, 435.79534912109375) translate(128.61520385742188, 430.29534912109375)" style="text-anchor: middle;"><tspan x="0" y="10" style="font-family: Roboto; font-weight: 400; font-stretch: 100%; font-size: 10px; stroke: rgb(255, 255, 255); stroke-width: 2; stroke-linejoin: round; stroke-linecap: round;">OAK STREET</tspan></text><text transform="rotate(-46.1381226090296, 128.6152, 435.79535) translate(128.61520385742188, 430.29534912109375)" style="text-anchor: middle;"><tspan fill="rgb(136, 136, 136)" x="0" y="10" style="font-family: Roboto; font-weight: 400; font-stretch: 100%; font-size: 10px;">OAK STREET</tspan></text></g><g id="N-svg OAK-svg ST.-svg"><text transform="rotate(-48.47218452929531, 355.14935302734375, 198.47354125976562) translate(355.14935302734375, 192.97354125976562)" style="text-anchor: middle;"><tspan x="0" y="10" style="font-family: Roboto; font-weight: 400; font-stretch: 100%; font-size: 10px; stroke: rgb(255, 255, 255); stroke-width: 2; stroke-linejoin: round; stroke-linecap: round;">N OAK ST.</tspan></text><text transform="rotate(-48.47218452929531, 355.14935, 198.47354) translate(355.14935302734375, 192.97354125976562)" style="text-anchor: middle;"><tspan fill="rgb(136, 136, 136)" x="0" y="10" style="font-family: Roboto; font-weight: 400; font-stretch: 100%; font-size: 10px;">N OAK ST.</tspan></text></g><g id="E-svg MADISON-svg AVE.-svg"><text transform="rotate(44.24253720599906, 340.1775817871094, 332.4302673339844) translate(340.1775817871094, 326.9302673339844)" style="text-anchor: middle;"><tspan x="0" y="10" style="font-family: Roboto; font-weight: 400; font-stretch: 100%; font-size: 10px; stroke: rgb(255, 255, 255); stroke-width: 2; stroke-linejoin: round; stroke-linecap: round;">E MADISON AVE.</tspan></text><text transform="rotate(44.24253720599906, 340.17758, 332.43027) translate(340.1775817871094, 326.9302673339844)" style="text-anchor: middle;"><tspan fill="rgb(136, 136, 136)" x="0" y="10" style="font-family: Roboto; font-weight: 400; font-stretch: 100%; font-size: 10px;">E MADISON AVE.</tspan></text></g><g id="ADAMS-svg STREET-svg"><text transform="rotate(44.31077346560678, 272.4705810546875, 152.0350341796875) translate(272.4705810546875, 146.5350341796875)" style="text-anchor: middle;"><tspan x="0" y="10" style="font-family: Roboto; font-weight: 400; font-stretch: 100%; font-size: 10px; stroke: rgb(255, 255, 255); stroke-width: 2; stroke-linejoin: round; stroke-linecap: round;">ADAMS STREET</tspan></text><text transform="rotate(44.31077346560678, 272.47058, 152.03503) translate(272.4705810546875, 146.5350341796875)" style="text-anchor: middle;"><tspan fill="rgb(136, 136, 136)" x="0" y="10" style="font-family: Roboto; font-weight: 400; font-stretch: 100%; font-size: 10px;">ADAMS STREET</tspan></text></g><g id="S-svg POPLAR-svg ST.-svg"><text transform="rotate(-46.6370497554348, 285.79119873046875, 359.5863952636719) translate(285.79119873046875, 354.0863952636719)" style="text-anchor: middle;"><tspan x="0" y="10" style="font-family: Roboto; font-weight: 400; font-stretch: 100%; font-size: 10px; stroke: rgb(255, 255, 255); stroke-width: 2; stroke-linejoin: round; stroke-linecap: round;">S POPLAR ST.</tspan></text><text transform="rotate(-46.6370497554348, 285.7912, 359.5864) translate(285.79119873046875, 354.0863952636719)" style="text-anchor: middle;"><tspan fill="rgb(136, 136, 136)" x="0" y="10" style="font-family: Roboto; font-weight: 400; font-stretch: 100%; font-size: 10px;">S POPLAR ST.</tspan></text></g><g id="S-svg OAK-svg ST.-svg"><text transform="rotate(-45.97670834995112, 242.62594604492188, 317.5385437011719) translate(242.62594604492188, 312.0385437011719)" style="text-anchor: middle;"><tspan x="0" y="10" style="font-family: Roboto; font-weight: 400; font-stretch: 100%; font-size: 10px; stroke: rgb(255, 255, 255); stroke-width: 2; stroke-linejoin: round; stroke-linecap: round;">S OAK ST.</tspan></text><text transform="rotate(-45.97670834995112, 242.62595, 317.53854) translate(242.62594604492188, 312.0385437011719)" style="text-anchor: middle;"><tspan fill="rgb(136, 136, 136)" x="0" y="10" style="font-family: Roboto; font-weight: 400; font-stretch: 100%; font-size: 10px;">S OAK ST.</tspan></text></g><g id="N-svg POPLAR-svg ST.-svg"><text transform="rotate(-45, 362.1419982910156, 279.9909973144531) translate(362.1419982910156, 274.4909973144531)" style="text-anchor: middle;"><tspan x="0" y="10" style="font-family: Roboto; font-weight: 400; font-stretch: 100%; font-size: 10px; stroke: rgb(255, 255, 255); stroke-width: 2; stroke-linejoin: round; stroke-linecap: round;">N POPLAR ST.</tspan></text><text transform="rotate(-45, 362.142, 279.991) translate(362.1419982910156, 274.4909973144531)" style="text-anchor: middle;"><tspan fill="rgb(136, 136, 136)" x="0" y="10" style="font-family: Roboto; font-weight: 400; font-stretch: 100%; font-size: 10px;">N POPLAR ST.</tspan></text></g><g id="LOCUST-svg STREET-svg"><text transform="rotate(-46.54375755391906, 300.62139892578125, 287.4389343261719) translate(300.62139892578125, 281.9389343261719)" style="text-anchor: middle;"><tspan x="0" y="10" style="font-family: Roboto; font-weight: 400; font-stretch: 100%; font-size: 10px; stroke: rgb(255, 255, 255); stroke-width: 2; stroke-linejoin: round; stroke-linecap: round;">LOCUST STREET</tspan></text><text transform="rotate(-46.54375755391906, 300.6214, 287.43893) translate(300.62139892578125, 281.9389343261719)" style="text-anchor: middle;"><tspan fill="rgb(136, 136, 136)" x="0" y="10" style="font-family: Roboto; font-weight: 400; font-stretch: 100%; font-size: 10px;">LOCUST STREET</tspan></text></g><g id="JENNIE-svg HALEY-svg DR.-svg"><text transform="rotate(-0.49030842461598206, 322.598388671875, 398.136962890625) translate(322.598388671875, 392.636962890625)" style="text-anchor: middle;"><tspan x="0" y="10" style="font-family: Roboto; font-weight: 400; font-stretch: 100%; font-size: 10px; stroke: rgb(255, 255, 255); stroke-width: 2; stroke-linejoin: round; stroke-linecap: round;">JENNIE HALEY DR.</tspan></text><text transform="rotate(-0.49030842461598206, 322.59839, 398.13696) translate(322.598388671875, 392.636962890625)" style="text-anchor: middle;"><tspan fill="rgb(136, 136, 136)" x="0" y="10" style="font-family: Roboto; font-weight: 400; font-stretch: 100%; font-size: 10px;">JENNIE HALEY DR.</tspan></text></g><g id="JEFFERSON-svg ST.-svg"><text transform="rotate(43.304139200308626, 243.70118713378906, 181.88525390625) translate(243.70118713378906, 176.38525390625)" style="text-anchor: middle;"><tspan x="0" y="10" style="font-family: Roboto; font-weight: 400; font-stretch: 100%; font-size: 10px; stroke: rgb(255, 255, 255); stroke-width: 2; stroke-linejoin: round; stroke-linecap: round;">JEFFERSON ST.</tspan></text><text transform="rotate(43.304139200308626, 243.70119, 181.88525) translate(243.70118713378906, 176.38525390625)" style="text-anchor: middle;"><tspan fill="rgb(136, 136, 136)" x="0" y="10" style="font-family: Roboto; font-weight: 400; font-stretch: 100%; font-size: 10px;">JEFFERSON ST.</tspan></text></g><g id="W-svg MADISON-svg AVE.-svg"><text transform="rotate(44.39506551065495, 147.9425506591797, 147.1145477294922) translate(147.9425506591797, 141.6145477294922)" style="text-anchor: middle;"><tspan x="0" y="10" style="font-family: Roboto; font-weight: 400; font-stretch: 100%; font-size: 10px; stroke: rgb(255, 255, 255); stroke-width: 2; stroke-linejoin: round; stroke-linecap: round;">W MADISON AVE.</tspan></text><text transform="rotate(44.39506551065495, 147.94255, 147.11455) translate(147.9425506591797, 141.6145477294922)" style="text-anchor: middle;"><tspan fill="rgb(136, 136, 136)" x="0" y="10" style="font-family: Roboto; font-weight: 400; font-stretch: 100%; font-size: 10px;">W MADISON AVE.</tspan></text></g><g id="WALNUT-svg STREET-svg"><text transform="rotate(-48.23095463711401, 307.31219482421875, 183.52902221679688) translate(307.31219482421875, 178.02902221679688)" style="text-anchor: middle;"><tspan x="0" y="10" style="font-family: Roboto; font-weight: 400; font-stretch: 100%; font-size: 10px; stroke: rgb(255, 255, 255); stroke-width: 2; stroke-linejoin: round; stroke-linecap: round;">WALNUT STREET</tspan></text><text transform="rotate(-48.23095463711401, 307.31219, 183.52902) translate(307.31219482421875, 178.02902221679688)" style="text-anchor: middle;"><tspan fill="rgb(136, 136, 136)" x="0" y="10" style="font-family: Roboto; font-weight: 400; font-stretch: 100%; font-size: 10px;">WALNUT STREET</tspan></text></g><g id="W-svg MONROE-svg AVE.-svg"><text transform="rotate(44.371750074238456, 178.9945526123047, 236.6674041748047) translate(178.9945526123047, 231.1674041748047)" style="text-anchor: middle;"><tspan x="0" y="10" style="font-family: Roboto; font-weight: 400; font-stretch: 100%; font-size: 10px; stroke: rgb(255, 255, 255); stroke-width: 2; stroke-linejoin: round; stroke-linecap: round;">W MONROE AVE.</tspan></text><text transform="rotate(44.371750074238456, 178.99455, 236.6674) translate(178.9945526123047, 231.1674041748047)" style="text-anchor: middle;"><tspan fill="rgb(136, 136, 136)" x="0" y="10" style="font-family: Roboto; font-weight: 400; font-stretch: 100%; font-size: 10px;">W MONROE AVE.</tspan></text></g><g id="VINE-svg STREET-svg"><text transform="rotate(-45.97578159324712, 216.71658325195312, 111.64006805419922) translate(216.71658325195312, 106.14006805419922)" style="text-anchor: middle;"><tspan x="0" y="10" style="font-family: Roboto; font-weight: 400; font-stretch: 100%; font-size: 10px; stroke: rgb(255, 255, 255); stroke-width: 2; stroke-linejoin: round; stroke-linecap: round;">VINE STREET</tspan></text><text transform="rotate(-45.97578159324712, 216.71658, 111.64007) translate(216.71658325195312, 106.14006805419922)" style="text-anchor: middle;"><tspan fill="rgb(136, 136, 136)" x="0" y="10" style="font-family: Roboto; font-weight: 400; font-stretch: 100%; font-size: 10px;">VINE STREET</tspan></text></g><g id="CARLTON-svg AVENUE-svg"><text transform="rotate(90.8476060573283, 102.5003433227539, 65.19068145751953) translate(102.5003433227539, 59.69068145751953)" style="text-anchor: middle;"><tspan x="0" y="10" style="font-family: Roboto; font-weight: 400; font-stretch: 100%; font-size: 10px; stroke: rgb(255, 255, 255); stroke-width: 2; stroke-linejoin: round; stroke-linecap: round;">CARLTON AVENUE</tspan></text><text transform="rotate(90.8476060573283, 102.50034, 65.19068) translate(102.5003433227539, 59.69068145751953)" style="text-anchor: middle;"><tspan fill="rgb(136, 136, 136)" x="0" y="10" style="font-family: Roboto; font-weight: 400; font-stretch: 100%; font-size: 10px;">CARLTON AVENUE</tspan></text></g><g id="S-svg WALNUT-svg ST.-svg"><text transform="rotate(-46.35504201371112, 209.00624084472656, 287.2505798339844) translate(209.00624084472656, 281.7505798339844)" style="text-anchor: middle;"><tspan x="0" y="10" style="font-family: Roboto; font-weight: 400; font-stretch: 100%; font-size: 10px; stroke: rgb(255, 255, 255); stroke-width: 2; stroke-linejoin: round; stroke-linecap: round;">S WALNUT ST.</tspan></text><text transform="rotate(-46.35504201371112, 209.00624, 287.25058) translate(209.00624084472656, 281.7505798339844)" style="text-anchor: middle;"><tspan fill="rgb(136, 136, 136)" x="0" y="10" style="font-family: Roboto; font-weight: 400; font-stretch: 100%; font-size: 10px;">S WALNUT ST.</tspan></text></g><g id="S-svg LINCOLN-svg ST.-svg"><text transform="rotate(90.1230939433247, 369.1617126464844, 442.74700927734375) translate(369.1617126464844, 437.24700927734375)" style="text-anchor: middle;"><tspan x="0" y="10" style="font-family: Roboto; font-weight: 400; font-stretch: 100%; font-size: 10px; stroke: rgb(255, 255, 255); stroke-width: 2; stroke-linejoin: round; stroke-linecap: round;">S LINCOLN ST.</tspan></text><text transform="rotate(90.1230939433247, 369.16171, 442.74701) translate(369.1617126464844, 437.24700927734375)" style="text-anchor: middle;"><tspan fill="rgb(136, 136, 136)" x="0" y="10" style="font-family: Roboto; font-weight: 400; font-stretch: 100%; font-size: 10px;">S LINCOLN ST.</tspan></text></g><g id="VAN-svg BUREN-svg ST.-svg"><text transform="rotate(43.784879667330465, 143.58828735351562, 304.1667175292969) translate(143.58828735351562, 298.6667175292969)" style="text-anchor: middle;"><tspan x="0" y="10" style="font-family: Roboto; font-weight: 400; font-stretch: 100%; font-size: 10px; stroke: rgb(255, 255, 255); stroke-width: 2; stroke-linejoin: round; stroke-linecap: round;">VAN BUREN ST.</tspan></text><text transform="rotate(43.784879667330465, 143.58829, 304.16672) translate(143.58828735351562, 298.6667175292969)" style="text-anchor: middle;"><tspan fill="rgb(136, 136, 136)" x="0" y="10" style="font-family: Roboto; font-weight: 400; font-stretch: 100%; font-size: 10px;">VAN BUREN ST.</tspan></text></g><g id="S-svg CHESTNUT-svg ST.-svg"><text transform="rotate(-47.07510817191324, 430.4296875, 83.94499206542969) translate(430.4296875, 78.44499206542969)" style="text-anchor: middle;"><tspan x="0" y="10" style="font-family: Roboto; font-weight: 400; font-stretch: 100%; font-size: 10px; stroke: rgb(255, 255, 255); stroke-width: 2; stroke-linejoin: round; stroke-linecap: round;">S CHESTNUT ST.</tspan></text><text transform="rotate(-47.07510817191324, 430.42969, 83.94499) translate(430.4296875, 78.44499206542969)" style="text-anchor: middle;"><tspan fill="rgb(136, 136, 136)" x="0" y="10" style="font-family: Roboto; font-weight: 400; font-stretch: 100%; font-size: 10px;">S CHESTNUT ST.</tspan></text></g><g id="E-svg WASHINGTON-svg AVE.-svg"><text transform="rotate(36.45847938565183, 428.13714599609375, 240.9931182861328) translate(428.13714599609375, 235.4931182861328)" style="text-anchor: middle;"><tspan x="0" y="10" style="font-family: Roboto; font-weight: 400; font-stretch: 100%; font-size: 10px; stroke: rgb(255, 255, 255); stroke-width: 2; stroke-linejoin: round; stroke-linecap: round;">E WASHINGTON AVE.</tspan></text><text transform="rotate(36.45847938565183, 428.13715, 240.99312) translate(428.13714599609375, 235.4931182861328)" style="text-anchor: middle;"><tspan fill="rgb(136, 136, 136)" x="0" y="10" style="font-family: Roboto; font-weight: 400; font-stretch: 100%; font-size: 10px;">E WASHINGTON AVE.</tspan></text></g><g id="N-svg OAK-svg ST.-svg"><text transform="rotate(-46.59902785964412, 403.3138122558594, 146.68905639648438) translate(403.3138122558594, 141.18905639648438)" style="text-anchor: middle;"><tspan x="0" y="10" style="font-family: Roboto; font-weight: 400; font-stretch: 100%; font-size: 10px; stroke: rgb(255, 255, 255); stroke-width: 2; stroke-linejoin: round; stroke-linecap: round;">N OAK ST.</tspan></text><text transform="rotate(-46.59902785964412, 403.31381, 146.68906) translate(403.3138122558594, 141.18905639648438)" style="text-anchor: middle;"><tspan fill="rgb(136, 136, 136)" x="0" y="10" style="font-family: Roboto; font-weight: 400; font-stretch: 100%; font-size: 10px;">N OAK ST.</tspan></text></g></g><g id="Farina-svg"><text transform="translate(300.0078125, 178.609375)" style="text-anchor: middle;"><tspan x="0" y="14" style="font-family: Roboto; font-weight: 400; font-stretch: 100%; font-size: 14px; stroke: rgb(242, 243, 240); stroke-width: 2; stroke-linejoin: round; stroke-linecap: round;">Farina</tspan></text><text transform="translate(300.0078125, 178.609375)" style="text-anchor: middle;"><tspan fill="rgb(51,51,51)" x="0" y="14" style="font-family: Roboto; font-weight: 400; font-stretch: 100%; font-size: 14px;">Farina</tspan></text></g><g id="svg-marker-svg" transform="translate(300, 187)"><g id="svg-id-yz9pFkSOJz-svg" transform="translate(-14, -14)"/></g><rect width="156.96875" height="14" transform="translate(443.03125, 433)" fill="rgba(255,255,255,0.73)" style="fill: rgb(255, 255, 255); fill-opacity: 0.73;"/><text transform="translate(447, 434)"><tspan fill="rgba(119,119,119,0.87)" x="0" y="11" style="font-family: Roboto; font-weight: 400; font-stretch: 100%; font-size: 11px;">©</tspan><tspan fill="rgba(119,119,119,0.87)" dx="2.734375" style="font-family: Roboto; font-weight: 400; font-stretch: 100%; font-size: 11px;">OpenStreetMap</tspan><tspan fill="rgba(119,119,119,0.87)" dx="2.734375" style="font-family: Roboto; font-weight: 400; font-stretch: 100%; font-size: 11px;">contributors</tspan></text></g></g></g></g><g id="container-svg container-footer-svg datawrapper-VZblJ-1la8dcw-svg"><text transform="translate(0, 467)"><tspan fill="rgb(136,136,136)" x="0" y="11" style="font-family: Roboto; font-weight: 400; font-stretch: 100%; font-size: 11px;">Created with</tspan><tspan fill="rgb(136,136,136)" dx="2.734375" style="font-family: Roboto; font-weight: 400; font-stretch: 100%; font-size: 11px;">Datawrapper</tspan></text></g></g></g></g></svg>