<svg xmlns="http://www.w3.org/2000/svg" xmlns:xlink="http://www.w3.org/1999/xlink" id="exportSvg" width="600" height="483"><defs/><g><g id="__svelte-dw-svg" clip-path="url(#rect-mask-_h3FyPbLg_GnvKpsgkZzm)"><clipPath id="rect-mask-_h3FyPbLg_GnvKpsgkZzm"><rect x="0" y="0" width="600" height="483"/></clipPath><g id="container-svg container-body-svg datawrapper-iTcGa-1gvfeww-svg"><g id="container-svg container-bodyTop-svg datawrapper-iTcGa-lmtz6e-svg"><g id="container-svg container-bodyCenter-svg datawrapper-iTcGa-1fgvipr-svg"><g id="chart-svg"><g id="container-inner-svg export-group-svg maplibregl-map-svg" clip-path="url(#rect-mask-D3wzP6YXULK-BFDVHYV8Y)"><clipPath id="rect-mask-D3wzP6YXULK-BFDVHYV8Y"><rect x="0" y="0" width="600" height="450"/></clipPath><g id="basemap-svg" clip-path="url(#rect-mask-YIkGlQ26oTGGdqR-v7pKJ)"><clipPath id="rect-mask-YIkGlQ26oTGGdqR-v7pKJ"><rect x="0" y="0" width="600" height="450"/></clipPath><rect width="600" height="450" transform="translate(0, 0)" fill="rgb(255,255,255)" id="background" style="fill: rgb(255, 255, 255);"/><path d="M206.973,39.075L204.737,38.18M193.554,79.034L194.15,77.245L194.896,75.158M180.731,119.292L216.218,130.773L228.593,91.261L193.554,79.034M273.174,248.414L271.683,248.115L269.149,247.37M175.513,117.652L178.197,118.546L180.731,119.292M164.181,153.436L174.767,120.335M190.125,227.987L188.336,227.539L186.099,226.794M190.125,227.987L225.909,239.915L215.919,271.077M231.128,241.406L228.444,240.66L225.909,239.915M266.017,252.589L231.128,241.406M269.149,247.37L258.861,244.09M290.917,254.08L283.015,251.545L273.174,248.414M296.882,255.869L294.496,255.123L290.917,254.08M296.882,255.869L314.326,261.684L332.07,267.499L344.743,228.434L326.255,222.321M337.884,269.586L334.902,268.542L332.07,267.499M290.321,277.787L295.241,262.131L329.833,273.165M356.075,332.06L321.483,320.43M364.126,328.183L363.232,331.165L362.486,333.849L359.504,332.954L356.075,332.06M462.832,283.303L457.017,281.067L456.122,279.576L447.176,276.743L448.071,273.463M462.832,283.303L457.017,281.067L456.122,279.576L447.176,276.743L448.071,273.463M454.035,310.44L462.832,283.303L463.428,281.663L462.384,281.216M454.035,310.44L462.832,283.303L463.428,281.663L462.384,281.216M403.34,346.97L404.235,344.286L405.129,341.304M405.129,341.304L417.654,302.388L435.397,307.756M397.525,365.757L403.34,346.97M397.525,365.757L401.7,352.039M350.111,371.124L362.486,333.849L379.931,339.515L397.376,345.33L389.026,371.124M349.663,372.466L356.373,352.039M395.14,352.039L387.983,374.405M400.209,346.224L397.376,345.33L398.271,342.348M318.65,319.684L315.37,318.641L316.414,315.36M305.977,364.415L301.056,362.775L301.951,359.793L303.144,356.065M305.977,364.415L301.056,362.775L301.951,359.793L303.144,356.065M264.228,351.145L266.465,351.741L301.056,362.775M267.359,352.039L301.056,362.775M291.216,352.188L303.144,356.065L313.134,325.499L315.37,318.641L301.205,314.018L299.565,313.422M313.134,325.499L299.118,320.728L301.205,314.018M357.119,329.078L370.836,286.584L354.137,281.216L335.797,275.103L322.378,317.299M405.726,198.614L393.052,237.977M405.278,198.316L405.726,198.614L406.322,198.763L423.469,204.28L435.993,208.305M194.896,75.158L206.973,39.075L240.223,-60.078L205.482,-71.409L203.097,-72.155L204.588,-76.031M406.322,198.763L407.217,196.079M243.354,336.831L240.521,335.787L239.03,339.664L237.986,342.795L241.118,343.69M439.423,354.723L452.991,313.273M186.099,226.794L151.209,215.313L149.718,215.164M405.278,198.316L403.34,197.719L400.06,196.825L400.805,193.842M359.504,183.554L361.144,184.151L365.021,185.493M218.156,339.962L229.786,339.962L237.986,342.795L230.531,366.95L204.737,366.8M235.153,352.039L230.531,366.95L204.737,366.8M250.362,304.625L240.521,335.787M377.098,288.671L377.993,286.136M370.836,286.584L373.967,287.777M337.884,269.586L356.075,275.401M348.918,223.514L327.895,216.655L311.493,211.287M358.311,205.92L365.021,185.493L382.019,191.01L400.06,196.825L387.684,236.187L369.941,230.372M309.406,160.742L311.941,161.637L323.273,165.364M346.234,179.231L359.504,183.554M403.34,326.394L411.69,300.301L377.098,288.671L364.126,328.183M499.063,329.078L500.107,325.499M462.832,283.303L457.017,281.067L456.122,279.576L447.176,276.743L448.071,273.463M462.832,283.303L457.017,281.067L456.122,279.576L447.176,276.743L448.071,273.463M500.853,329.674L458.806,315.659M454.035,310.44L462.832,283.303L463.428,281.663L462.384,281.216M454.035,310.44L462.832,283.303L463.428,281.663L462.384,281.216M224.12,382.456L218.305,400.497M196.238,366.8L176.556,366.651L163.137,366.651L161.199,367.397M176.556,366.651L176.407,369.782M204.737,366.8L196.238,366.8M218.156,339.962L229.786,339.962L237.986,342.795L230.531,366.95L204.737,366.8M235.153,352.039L230.531,366.95L204.737,366.8M397.525,365.757L403.34,346.97M397.525,365.757L401.7,352.039M350.111,371.124L362.486,333.849L379.931,339.515L397.376,345.33L389.026,371.124M349.663,372.466L356.373,352.039M395.14,352.039L387.983,374.405M305.38,366.651L305.977,364.415L332.517,372.764M305.977,364.415L301.056,362.775L301.951,359.793L303.144,356.065M305.977,364.415L301.056,362.775L301.951,359.793L303.144,356.065M264.228,351.145L266.465,351.741L301.056,362.775M267.359,352.039L301.056,362.775" stroke="rgb(231,231,231)" id="road_path" transform="translate(0.5, 0)" style="fill: none; stroke-width: 1.02793; stroke-linejoin: bevel; stroke-linecap: square; stroke-dasharray: 0.75595, 1.88988; stroke: rgb(231, 231, 231);"/><path d="M302.547,371.124L302.696,370.826L304.635,363.967L305.529,360.985L318.65,319.684L319.694,316.255L334.008,271.375M297.627,387.078L302.696,370.826L304.635,363.967L305.529,360.985L308.362,352.039M456.868,311.484L455.227,310.738L454.035,310.44L436.441,304.774L433.16,303.73L416.312,297.766L411.093,296.723L395.289,291.504L389.175,289.566L377.993,286.136L374.862,285.093L355.031,278.532L345.19,275.252L334.008,271.375L313.283,264.815L308.959,263.324L294.645,258.702L293.601,258.254M456.868,311.484L455.227,310.738L454.035,310.44L445.536,307.756M334.008,271.375L334.902,268.542L348.172,225.75L348.918,223.514L361.144,184.151L362.188,180.871M464.621,264.517L461.788,263.473L451.053,259.895L430.327,253.036L409.901,246.475L393.201,241.108L389.325,240.213L369.196,233.205L348.172,225.75L332.517,221.277L327,219.935L307.319,215.015M471.33,266.902L461.788,263.473L451.053,259.895L445.536,258.105M336.393,371.124L305.529,360.985L301.951,359.793L284.655,354.425L265.123,348.312M382.764,384.991L366.81,380.369L347.427,374.852L346.383,374.405L305.529,360.985L301.951,359.793L284.655,354.425L277.051,352.039M242.161,340.708L239.03,339.664L235.153,338.471L231.426,337.576L227.549,337.278L219.498,337.129L207.421,336.98L201.606,337.278M177.302,121.23L178.197,118.546L192.063,76.5L193.107,72.623L197.282,60.695L204.737,38.18L209.359,24.463L220.989,-12.365L234.408,-51.131L234.855,-53.815L234.408,-56.052L233.066,-58.437M416.312,297.766L430.327,253.036L432.862,246.028L444.641,208.753M421.381,350.399L419.89,357.258L418.399,362.476L416.312,366.95L414.97,371.124M421.083,352.039L419.89,357.258L418.399,362.476L416.312,366.95L414.821,371.721L413.777,376.79L411.541,387.078L410.05,391.551L408.26,393.191L406.322,393.34L402.147,392.893L390.666,388.569L387.237,387.078L386.939,389.464L384.255,399.454L383.808,401.392L382.913,405.716M444.641,208.753L462.086,153.883M445.536,205.92L462.086,153.883M313.73,117.95L287.935,108.705L276.455,104.68L256.624,97.821L242.161,92.901L232.47,89.919L220.243,85.595L210.552,82.464L194.15,77.245L192.063,76.5M392.307,371.124L400.209,346.224L401.253,343.242L416.312,297.766M387.237,387.078L389.623,379.474L398.42,352.039M162.541,371.124L162.541,370.081L161.497,368.291L161.199,367.397L159.41,361.135L158.963,355.916L158.963,348.163L159.857,325.052L160.454,317.448L161.497,312.527L162.839,307.607L164.628,302.836L171.487,280.769L175.065,268.99L179.986,253.93L184.757,239.318L188.336,227.539L189.23,224.557M162.243,403.33L162.541,370.081L161.497,368.291L161.199,367.397L159.41,361.135L158.963,355.916L158.963,352.039M218.454,134.798L227.4,107.513L232.47,89.919M229.488,237.231L234.408,223.066L243.652,195.035L246.336,186.537L258.861,148.068M464.621,215.015L453.438,211.436L444.641,208.753L424.214,201.745L410.497,197.123L407.217,196.079L404.235,195.035L400.805,193.842L390.666,190.413L383.062,187.878L362.188,180.871L360.846,180.572L322.229,168.644M541.557,234.696L533.059,234.547L520.385,232.46L510.246,229.627L485.793,221.874L453.438,211.436L445.536,209.051M256.922,294.933L242.012,290.162L215.621,281.812M322.229,168.644L310.897,164.917L300.013,161.04L280.779,154.927L278.691,154.331L258.861,148.068L221.138,135.544L218.454,134.798L177.302,121.23L174.767,120.335L144.351,110.196L136.746,107.96L129.44,106.171L121.836,104.531L114.232,103.785L106.777,103.189L94.998,103.04M347.427,371.124L357.864,337.726L359.504,332.954L360.399,330.27L373.967,287.777L374.862,285.093M346.383,374.405L353.391,352.039M95.893,371.124L95.296,321.324L95.147,282.856L95.296,247.221L95.296,232.013L94.849,221.725L94.849,194.141L94.551,182.063L94.551,132.264L94.7,126.001L94.849,110.495L94.998,103.04L93.656,65.913L93.507,38.479L93.358,32.216L92.463,-49.79L92.165,-95.415L92.016,-97.949L92.165,-100.335L93.507,-103.019M102.453,540.504L100.515,538.565L99.322,536.478L98.725,531.409L98.129,502.93L97.831,492.791L96.936,454.621L96.34,403.032L96.191,398.41L95.594,352.039M374.862,285.093L381.422,264.815L389.325,240.213L403.34,197.719L404.235,195.035M441.212,353.978L439.423,354.723L438.677,355.021L435.993,354.872L433.31,354.127L421.381,350.399L404.235,344.286L401.253,343.242L398.271,342.348L392.307,340.708L380.826,336.831L368.152,332.507L363.232,331.165L360.399,330.27L357.119,329.078L351.155,326.841L340.27,323.114L322.378,317.299L322.229,317.15L319.694,316.255L316.414,315.36L314.625,314.764L298.969,309.396L290.619,306.414L279.437,303.581M232.321,371.124L232.768,369.633L241.118,343.69L242.161,340.708L243.354,336.831L256.922,294.933L270.789,250.948L271.683,248.115L277.946,228.434L285.252,205.92L285.997,203.683L291.365,185.344L300.013,161.04L301.355,155.523L304.187,142.402L313.73,117.95L343.401,23.419L358.311,-23.249L363.232,-38.607L370.24,-60.525M157.77,593.435L172.829,549.599L184.906,513.964L198.325,473.259L215.919,419.582L221.585,402.585L232.768,369.633L238.434,352.039M148.227,211.436L160.901,171.626L165.225,157.909L172.083,136.289L177.302,121.23M215.621,281.812L210.253,280.321L175.065,268.99M441.212,353.978L443.15,352.188L444.492,349.803L445.387,347.417L448.518,337.875L455.526,316.106L456.868,311.484M445.536,346.97L448.518,337.875L455.526,316.106L456.868,311.484M93.507,38.479L54.591,38.329L28.2,38.031L18.509,37.733M201.158,369.335L201.158,366.8L201.307,346.075L201.606,337.278L201.606,330.569L201.755,325.499L202.202,322.815L203.395,317.895L215.621,281.812L218.305,273.91L228.444,240.66L229.488,237.231M201.158,369.335L201.158,366.8L201.307,352.039M311.195,203.534L320.738,206.814L325.211,208.753L327.746,212.331L328.044,216.208L327.895,216.655L327,219.935L326.255,222.321L314.326,261.684L313.283,264.815L298.969,309.396L298.373,311.036L284.655,354.425M424.214,201.745L423.469,204.28L409.901,246.475L395.289,291.504L394.394,294.486L380.826,336.831L379.931,339.515L369.792,371.124M375.905,352.039L366.81,380.369M340.27,323.114L354.137,281.216L355.031,278.532M369.196,233.205L369.941,230.372L382.019,191.01L383.062,187.878M451.053,259.895L436.441,304.774L435.397,307.756L421.381,350.399M84.71,202.789L82.175,199.359L81.728,196.974L82.772,195.035L90.078,193.992L94.849,194.141M90.078,193.992L89.481,184.3L90.674,182.809L92.761,182.063L94.551,182.063M86.648,213.822L85.306,211.436L84.71,202.789L94.849,201.596M94.849,221.725L93.06,219.935L88.139,216.506L86.648,213.822L94.849,212.778M381.422,264.815L369.345,261.833M242.012,290.162L239.328,295.232L238.881,296.126L238.434,296.574L237.837,296.574L233.364,294.784M160.901,171.626L165.225,173.416L169.4,174.31L172.978,175.205L175.065,176.099L178.346,175.503L181.775,174.608L184.906,174.608L189.081,174.161L190.125,171.626L190.423,166.557M165.225,157.909L190.423,166.557L205.78,171.179L207.868,171.179L209.359,169.837L218.305,142.552L221.138,135.544M264.377,129.58L272.578,131.667L276.007,133.158L281.673,136.14L293.303,142.402L294.794,143.595L295.241,144.341L295.092,145.384L293.303,153.138M278.691,154.331L279.884,149.708M301.355,155.523L289.277,151.945L279.884,149.708L276.305,148.814L260.501,142.552M13.588,28.041L14.483,28.638L14.781,29.383L15.378,31.024L15.974,33.558L18.509,37.733M28.2,32.515L28.2,38.031M15.974,33.558L13.738,34.006L12.396,34.006L11.054,33.707L10.159,33.111L9.563,32.216L9.264,30.576M94.7,126.001L90.376,125.852L89.332,124.212L88.288,119.292L88.288,114.67L88.587,110.793L89.928,110.495L92.165,110.346L94.849,110.495M280.779,154.927L277.946,161.189L273.771,172.67L272.429,177.143L273.473,178.336L276.753,178.634L280.779,179.827L284.357,181.169L286.743,182.958L288.383,184.3L291.365,185.344M360.846,180.572L362.934,171.328L365.468,162.084M258.861,148.068L260.501,142.552L264.377,129.58L270.341,109.451L272.28,106.916L276.455,104.68M413.777,191.904L414.523,189.071L414.075,187.729L413.181,186.835L396.183,181.616L393.947,182.809L392.456,185.493L390.666,190.413M410.497,197.123L413.777,191.904L420.785,180.572L422.276,177.59L422.872,174.907L422.574,172.223L420.785,169.39L417.803,167.004M270.341,109.451L256.326,105.425L254.089,104.232L253.642,102.294L253.791,100.505L254.984,99.014L256.624,97.821M464.621,215.015L453.438,211.436L444.641,208.753L424.214,201.745L410.497,197.123L407.217,196.079L404.235,195.035L400.805,193.842L390.666,190.413L383.062,187.878L362.188,180.871L360.846,180.572L322.229,168.644M541.557,234.696L533.059,234.547L520.385,232.46L510.246,229.627L485.793,221.874L453.438,211.436L445.536,209.051M541.557,234.696L622.221,235.74L637.579,234.845L733.898,234.249L752.387,234.1L859.74,232.907L905.216,232.46L937.72,232.162L1075.341,230.223M456.868,311.484L455.227,310.738L454.035,310.44L436.441,304.774L433.16,303.73L416.312,297.766L411.093,296.723L395.289,291.504L389.175,289.566L377.993,286.136L374.862,285.093L355.031,278.532L345.19,275.252L334.008,271.375L313.283,264.815L308.959,263.324L294.645,258.702L293.601,258.254M456.868,311.484L455.227,310.738L454.035,310.44L445.536,307.756M456.868,311.484L464.621,287.478L471.33,266.902L479.233,243.046L485.793,221.874M464.621,264.517L461.788,263.473L451.053,259.895L430.327,253.036L409.901,246.475L393.201,241.108L389.325,240.213L369.196,233.205L348.172,225.75L332.517,221.277L327,219.935L307.319,215.015M471.33,266.902L461.788,263.473L451.053,259.895L445.536,258.105M622.221,331.016L617.301,331.314L614.617,331.016L606.566,330.867L567.352,330.718L551.994,331.016L544.241,331.165L529.033,331.612L521.279,331.016L513.675,329.674L509.202,328.183L500.703,325.648L500.107,325.499L499.063,325.201L477.145,317.895L456.868,311.484M444.641,208.753L462.086,153.883M445.536,205.92L462.086,153.883M441.212,353.978L443.15,352.188L444.492,349.803L445.387,347.417L448.518,337.875L455.526,316.106L456.868,311.484M445.536,346.97L448.518,337.875L455.526,316.106L456.868,311.484M464.621,287.478L467.901,288.224L471.48,287.18L493.994,293.144M502.791,346.224L499.063,345.628M502.344,349.952L502.791,346.224L509.202,328.183M622.818,156.865L615.363,153.585L610.89,152.69L607.46,152.69L575.254,151.05L543.347,149.41L520.087,148.217L508.755,147.174L501.002,147.621L495.634,147.621L489.372,147.323L484.899,148.217L480.127,148.068L476.4,146.726L473.269,144.49L470.436,143.595L469.243,143.595L467.454,144.49L464.024,147.77L462.086,153.883M221.585,402.585L180.433,403.479L162.243,403.33L126.607,403.032L96.34,403.032M162.541,370.081L176.407,369.782L201.158,369.335L208.017,369.335L232.768,369.633M347.427,371.124L357.864,337.726L359.504,332.954L360.399,330.27L373.967,287.777L374.862,285.093M346.383,374.405L353.391,352.039M95.893,371.124L95.296,321.324L95.147,282.856L95.296,247.221L95.296,232.013L94.849,221.725L94.849,194.141L94.551,182.063L94.551,132.264L94.7,126.001L94.849,110.495L94.998,103.04L93.656,65.913L93.507,38.479L93.358,32.216L92.463,-49.79L92.165,-95.415L92.016,-97.949L92.165,-100.335L93.507,-103.019M102.453,540.504L100.515,538.565L99.322,536.478L98.725,531.409L98.129,502.93L97.831,492.791L96.936,454.621L96.34,403.032L96.191,398.41L95.594,352.039M302.547,371.124L302.696,370.826L304.635,363.967L305.529,360.985L318.65,319.684L319.694,316.255L334.008,271.375M297.627,387.078L302.696,370.826L304.635,363.967L305.529,360.985L308.362,352.039M336.393,371.124L305.529,360.985L301.951,359.793L284.655,354.425L265.123,348.312M382.764,384.991L366.81,380.369L347.427,374.852L346.383,374.405L305.529,360.985L301.951,359.793L284.655,354.425L277.051,352.039M421.381,350.399L419.89,357.258L418.399,362.476L416.312,366.95L414.97,371.124M421.083,352.039L419.89,357.258L418.399,362.476L416.312,366.95L414.821,371.721L413.777,376.79L411.541,387.078L410.05,391.551L408.26,393.191L406.322,393.34L402.147,392.893L390.666,388.569L387.237,387.078L386.939,389.464L384.255,399.454L383.808,401.392L382.913,405.716M411.541,387.078L414.374,388.122L430.327,390.06L432.415,390.209L433.757,389.762L435.099,387.526L435.248,384.394L434.353,381.711L431.52,379.772L420.785,378.729L416.759,378.132L413.777,376.79M392.307,371.124L400.209,346.224L401.253,343.242L416.312,297.766M387.237,387.078L389.623,379.474L398.42,352.039M382.764,384.991L387.237,387.078M201.158,369.335L201.158,366.8L201.307,346.075L201.606,337.278L201.606,330.569L201.755,325.499L202.202,322.815L203.395,317.895L215.621,281.812L218.305,273.91L228.444,240.66L229.488,237.231M201.158,369.335L201.158,366.8L201.307,352.039M162.541,371.124L162.541,370.081L161.497,368.291L161.199,367.397L159.41,361.135L158.963,355.916L158.963,348.163L159.857,325.052L160.454,317.448L161.497,312.527L162.839,307.607L164.628,302.836L171.487,280.769L175.065,268.99L179.986,253.93L184.757,239.318L188.336,227.539L189.23,224.557M162.243,403.33L162.541,370.081L161.497,368.291L161.199,367.397L159.41,361.135L158.963,355.916L158.963,352.039M232.321,371.124L232.768,369.633L241.118,343.69L242.161,340.708L243.354,336.831L256.922,294.933L270.789,250.948L271.683,248.115L277.946,228.434L285.252,205.92L285.997,203.683L291.365,185.344L300.013,161.04L301.355,155.523L304.187,142.402L313.73,117.95L343.401,23.419L358.311,-23.249L363.232,-38.607L370.24,-60.525M157.77,593.435L172.829,549.599L184.906,513.964L198.325,473.259L215.919,419.582L221.585,402.585L232.768,369.633L238.434,352.039M424.214,201.745L423.469,204.28L409.901,246.475L395.289,291.504L394.394,294.486L380.826,336.831L379.931,339.515L369.792,371.124M375.905,352.039L366.81,380.369M215.919,419.582L212.341,418.986L206.675,418.837L204.588,419.284L202.5,421.073L199.965,427.037L199.518,431.66L199.369,437.176L198.773,441.948L197.282,445.973L193.256,452.832L190.423,455.367L185.204,461.629L184.161,469.681L183.862,473.408L182.222,488.02L178.346,506.956L176.407,514.56L174.767,520.226L169.847,525.743L162.094,527.681L156.726,524.55L157.919,517.095L163.883,513.666L165.97,513.367L178.346,506.956" stroke="rgb(231,231,231)" id="road_minor" transform="translate(0.5, 0)" style="fill: none; stroke-width: 2.62368; stroke-linejoin: round; stroke-linecap: round; stroke: rgb(231, 231, 231);"/><path d="M-40.088,236.187L66.669,236.038L74.422,236.038L82.175,235.442L89.779,234.1L95.296,232.013L96.936,231.267L103.795,227.689L117.065,219.786L123.924,216.357L131.379,213.822L138.983,212.331L148.227,211.436L161.945,215.462L189.23,224.557L213.235,232.46L229.488,237.231L235.303,239.468L267.21,249.756L270.789,250.948L282.12,254.378L293.601,258.254" stroke="rgb(231,231,231)" id="road_secondary_tertiary" transform="translate(0.5, 0)" style="fill: none; stroke-width: 3.16976; stroke-linejoin: round; stroke-linecap: round; stroke: rgb(231, 231, 231);"/><path d="M257.817,371.124L264.228,351.145L265.123,348.312L279.437,303.581L288.085,276.594L293.601,258.254L294.496,255.123L302.846,228.732L307.319,215.015L311.195,203.534L314.923,192.202L322.229,168.644M130.186,767.437L134.659,754.912L156.726,685.58L162.094,669.328L174.767,630.412L178.346,619.677L205.93,533.496L239.626,428.379L263.93,352.039M322.229,168.644L323.273,165.364L342.358,108.556L374.265,10.597L383.211,-16.987L429.582,-161.169L460.893,-258.681M257.817,371.124L264.228,351.145L265.123,348.312L279.437,303.581L288.085,276.594L293.601,258.254L294.496,255.123L302.846,228.732L307.319,215.015L311.195,203.534L314.923,192.202L322.229,168.644M130.186,767.437L134.659,754.912L156.726,685.58L162.094,669.328L174.767,630.412L178.346,619.677L205.93,533.496L239.626,428.379L263.93,352.039" stroke="rgb(231,231,231)" id="road_primary" transform="translate(0.5, 0)" style="fill: none; stroke-width: 4.53887; stroke-linejoin: round; stroke-linecap: round; stroke: rgb(231, 231, 231);"/><path d="M244.398,371.124L282.12,254.378L283.015,251.545L310.897,164.917L311.941,161.637L371.283,-20.267L447.176,-258.681M47.882,981.845L58.766,947.849L101.111,816.491L116.767,767.884L119.152,761.025L139.728,697.806L165.523,616.098L208.017,483.845L250.511,352.039M244.398,371.124L282.12,254.378L283.015,251.545L310.897,164.917L311.941,161.637L371.283,-20.267L447.176,-258.681M47.882,981.845L58.766,947.849L101.111,816.491L116.767,767.884L119.152,761.025L139.728,697.806L165.523,616.098L208.017,483.845L250.511,352.039" stroke="rgb(157,157,157)" id="railway" transform="translate(0.5, 0)" style="fill: none; stroke-width: 1; stroke-opacity: 0.650874; stroke-linejoin: miter; stroke-linecap: butt; stroke: rgb(157, 157, 157);"/><g id="S-svg OAK-svg ST.-svg"><text transform="rotate(-72.97886064702126, 288.6571044921875, 274.6917724609375) translate(288.6571044921875, 269.1917724609375)" style="text-anchor: middle;"><tspan x="0" y="10" style="font-family: Roboto; font-weight: 400; font-stretch: 100%; font-size: 10px; stroke: rgb(255, 255, 255); stroke-width: 2; stroke-linejoin: round; stroke-linecap: round;">S OAK ST.</tspan></text><text transform="rotate(-72.97886064702126, 288.6571, 274.69177) translate(288.6571044921875, 269.1917724609375)" style="text-anchor: middle;"><tspan fill="rgb(136, 136, 136)" x="0" y="10" style="font-family: Roboto; font-weight: 400; font-stretch: 100%; font-size: 10px;">S OAK ST.</tspan></text></g><g id="WASHINGTON-svg ST.-svg"><text transform="rotate(-18.21341544952246, 128.23431396484375, 214.89132690429688) translate(128.23431396484375, 209.39132690429688)" style="text-anchor: middle;"><tspan x="0" y="10" style="font-family: Roboto; font-weight: 400; font-stretch: 100%; font-size: 10px; stroke: rgb(255, 255, 255); stroke-width: 2; stroke-linejoin: round; stroke-linecap: round;">WASHINGTON ST.</tspan></text><text transform="rotate(-18.21341544952246, 128.23431, 214.89133) translate(128.23431396484375, 209.39132690429688)" style="text-anchor: middle;"><tspan fill="rgb(136, 136, 136)" x="0" y="10" style="font-family: Roboto; font-weight: 400; font-stretch: 100%; font-size: 10px;">WASHINGTON ST.</tspan></text></g><g id="HICKORY-svg STREET-svg"><text transform="rotate(-71.84746856069795, 165.06893920898438, 301.41741943359375) translate(165.06893920898438, 295.91741943359375)" style="text-anchor: middle;"><tspan x="0" y="10" style="font-family: Roboto; font-weight: 400; font-stretch: 100%; font-size: 10px; stroke: rgb(255, 255, 255); stroke-width: 2; stroke-linejoin: round; stroke-linecap: round;">HICKORY STREET</tspan></text><text transform="rotate(-71.84746856069795, 165.06894, 301.41742) translate(165.06893920898438, 295.91741943359375)" style="text-anchor: middle;"><tspan fill="rgb(136, 136, 136)" x="0" y="10" style="font-family: Roboto; font-weight: 400; font-stretch: 100%; font-size: 10px;">HICKORY STREET</tspan></text></g><g id="E-svg JEFFERSON-svg ST.-svg"><text transform="rotate(18.860886852517524, 398.3209533691406, 193.00189208984375) translate(398.3209533691406, 187.50189208984375)" style="text-anchor: middle;"><tspan x="0" y="10" style="font-family: Roboto; font-weight: 400; font-stretch: 100%; font-size: 10px; stroke: rgb(255, 255, 255); stroke-width: 2; stroke-linejoin: round; stroke-linecap: round;">E JEFFERSON ST.</tspan></text><text transform="rotate(18.860886852517524, 398.32095, 193.00189) translate(398.3209533691406, 187.50189208984375)" style="text-anchor: middle;"><tspan fill="rgb(136, 136, 136)" x="0" y="10" style="font-family: Roboto; font-weight: 400; font-stretch: 100%; font-size: 10px;">E JEFFERSON ST.</tspan></text></g><g id="WALNUT-svg STREET-svg"><text transform="rotate(-71.28205101736673, 208.7159881591797, 302.19097900390625) translate(208.7159881591797, 296.69097900390625)" style="text-anchor: middle;"><tspan x="0" y="10" style="font-family: Roboto; font-weight: 400; font-stretch: 100%; font-size: 10px; stroke: rgb(255, 255, 255); stroke-width: 2; stroke-linejoin: round; stroke-linecap: round;">WALNUT STREET</tspan></text><text transform="rotate(-71.28205101736673, 208.71599, 302.19098) translate(208.7159881591797, 296.69097900390625)" style="text-anchor: middle;"><tspan fill="rgb(136, 136, 136)" x="0" y="10" style="font-family: Roboto; font-weight: 400; font-stretch: 100%; font-size: 10px;">WALNUT STREET</tspan></text></g><g id="W-svg MULBERRY-svg ST.-svg"><text transform="rotate(-71.4257287741414, 207.0336151123047, 31.36419677734375) translate(207.0336151123047, 25.86419677734375)" style="text-anchor: middle;"><tspan x="0" y="10" style="font-family: Roboto; font-weight: 400; font-stretch: 100%; font-size: 10px; stroke: rgb(255, 255, 255); stroke-width: 2; stroke-linejoin: round; stroke-linecap: round;">W MULBERRY ST.</tspan></text><text transform="rotate(-71.4257287741414, 207.03362, 31.3642) translate(207.0336151123047, 25.86419677734375)" style="text-anchor: middle;"><tspan fill="rgb(136, 136, 136)" x="0" y="10" style="font-family: Roboto; font-weight: 400; font-stretch: 100%; font-size: 10px;">W MULBERRY ST.</tspan></text></g><g id="N-svg WALNUT-svg ST.-svg"><text transform="rotate(-72.2416621725791, 244.38345336914062, 192.7190704345703) translate(244.38345336914062, 187.2190704345703)" style="text-anchor: middle;"><tspan x="0" y="10" style="font-family: Roboto; font-weight: 400; font-stretch: 100%; font-size: 10px; stroke: rgb(255, 255, 255); stroke-width: 2; stroke-linejoin: round; stroke-linecap: round;">N WALNUT ST.</tspan></text><text transform="rotate(-72.2416621725791, 244.38345, 192.71907) translate(244.38345336914062, 187.2190704345703)" style="text-anchor: middle;"><tspan fill="rgb(136, 136, 136)" x="0" y="10" style="font-family: Roboto; font-weight: 400; font-stretch: 100%; font-size: 10px;">N WALNUT ST.</tspan></text></g><g id="FRANKLIN-svg STREET-svg"><text transform="rotate(90.16827174578904, 94.5510025024414, 138.65228271484375) translate(94.5510025024414, 133.15228271484375)" style="text-anchor: middle;"><tspan x="0" y="10" style="font-family: Roboto; font-weight: 400; font-stretch: 100%; font-size: 10px; stroke: rgb(255, 255, 255); stroke-width: 2; stroke-linejoin: round; stroke-linecap: round;">FRANKLIN STREET</tspan></text><text transform="rotate(90.16827174578904, 94.551, 138.65228) translate(94.5510025024414, 133.15228271484375)" style="text-anchor: middle;"><tspan fill="rgb(136, 136, 136)" x="0" y="10" style="font-family: Roboto; font-weight: 400; font-stretch: 100%; font-size: 10px;">FRANKLIN STREET</tspan></text></g><g id="CHESTNUT-svg STREET-svg"><text transform="rotate(-73.99941690227435, 300.2168884277344, 160.20176696777344) translate(300.2168884277344, 154.70176696777344)" style="text-anchor: middle;"><tspan x="0" y="10" style="font-family: Roboto; font-weight: 400; font-stretch: 100%; font-size: 10px; stroke: rgb(255, 255, 255); stroke-width: 2; stroke-linejoin: round; stroke-linecap: round;">CHESTNUT STREET</tspan></text><text transform="rotate(-73.99941690227435, 300.21689, 160.20177) translate(300.2168884277344, 154.70176696777344)" style="text-anchor: middle;"><tspan fill="rgb(136, 136, 136)" x="0" y="10" style="font-family: Roboto; font-weight: 400; font-stretch: 100%; font-size: 10px;">CHESTNUT STREET</tspan></text></g><g id="E-svg WASHINGTON-svg ST.-svg"><text transform="rotate(17.912591675663393, 375.1561584472656, 285.19097900390625) translate(375.1561584472656, 279.69097900390625)" style="text-anchor: middle;"><tspan x="0" y="10" style="font-family: Roboto; font-weight: 400; font-stretch: 100%; font-size: 10px; stroke: rgb(255, 255, 255); stroke-width: 2; stroke-linejoin: round; stroke-linecap: round;">E WASHINGTON ST.</tspan></text><text transform="rotate(17.912591675663393, 375.15616, 285.19098) translate(375.1561584472656, 279.69097900390625)" style="text-anchor: middle;"><tspan fill="rgb(136, 136, 136)" x="0" y="10" style="font-family: Roboto; font-weight: 400; font-stretch: 100%; font-size: 10px;">E WASHINGTON ST.</tspan></text></g><g id="S-svg LOCUST-svg ST.-svg"><text transform="rotate(-72.37539670579821, 316.6499328613281, 325.9795837402344) translate(316.6499328613281, 320.4795837402344)" style="text-anchor: middle;"><tspan x="0" y="10" style="font-family: Roboto; font-weight: 400; font-stretch: 100%; font-size: 10px; stroke: rgb(255, 255, 255); stroke-width: 2; stroke-linejoin: round; stroke-linecap: round;">S LOCUST ST.</tspan></text><text transform="rotate(-72.37539670579821, 316.64993, 325.97958) translate(316.6499328613281, 320.4795837402344)" style="text-anchor: middle;"><tspan fill="rgb(136, 136, 136)" x="0" y="10" style="font-family: Roboto; font-weight: 400; font-stretch: 100%; font-size: 10px;">S LOCUST ST.</tspan></text></g><g id="S-svg ELM-svg ST.-svg"><text transform="rotate(-71.66410181480946, 402.6009826660156, 339.1712951660156) translate(402.6009826660156, 333.6712951660156)" style="text-anchor: middle;"><tspan x="0" y="10" style="font-family: Roboto; font-weight: 400; font-stretch: 100%; font-size: 10px; stroke: rgb(255, 255, 255); stroke-width: 2; stroke-linejoin: round; stroke-linecap: round;">S ELM ST.</tspan></text><text transform="rotate(-71.66410181480946, 402.60098, 339.1713) translate(402.6009826660156, 333.6712951660156)" style="text-anchor: middle;"><tspan fill="rgb(136, 136, 136)" x="0" y="10" style="font-family: Roboto; font-weight: 400; font-stretch: 100%; font-size: 10px;">S ELM ST.</tspan></text></g><g id="N-svg POPLAR-svg ST.-svg"><text transform="rotate(-71.96164919715031, 389.3910827636719, 240.01266479492188) translate(389.3910827636719, 234.51266479492188)" style="text-anchor: middle;"><tspan x="0" y="10" style="font-family: Roboto; font-weight: 400; font-stretch: 100%; font-size: 10px; stroke: rgb(255, 255, 255); stroke-width: 2; stroke-linejoin: round; stroke-linecap: round;">N POPLAR ST.</tspan></text><text transform="rotate(-71.96164919715031, 389.39108, 240.01266) translate(389.3910827636719, 234.51266479492188)" style="text-anchor: middle;"><tspan fill="rgb(136, 136, 136)" x="0" y="10" style="font-family: Roboto; font-weight: 400; font-stretch: 100%; font-size: 10px;">N POPLAR ST.</tspan></text></g><g id="N-svg LOCUST-svg ST.-svg"><text transform="rotate(-72.5324461217397, 348.06005859375, 226.11093139648438) translate(348.06005859375, 220.61093139648438)" style="text-anchor: middle;"><tspan x="0" y="10" style="font-family: Roboto; font-weight: 400; font-stretch: 100%; font-size: 10px; stroke: rgb(255, 255, 255); stroke-width: 2; stroke-linejoin: round; stroke-linecap: round;">N LOCUST ST.</tspan></text><text transform="rotate(-72.5324461217397, 348.06006, 226.11093) translate(348.06005859375, 220.61093139648438)" style="text-anchor: middle;"><tspan fill="rgb(136, 136, 136)" x="0" y="10" style="font-family: Roboto; font-weight: 400; font-stretch: 100%; font-size: 10px;">N LOCUST ST.</tspan></text></g><g id="N-svg ELM-svg ST.-svg"><text transform="rotate(-71.40368287192913, 430.27764892578125, 253.19345092773438) translate(430.27764892578125, 247.69345092773438)" style="text-anchor: middle;"><tspan x="0" y="10" style="font-family: Roboto; font-weight: 400; font-stretch: 100%; font-size: 10px; stroke: rgb(255, 255, 255); stroke-width: 2; stroke-linejoin: round; stroke-linecap: round;">N ELM ST.</tspan></text><text transform="rotate(-71.40368287192913, 430.27765, 253.19345) translate(430.27764892578125, 247.69345092773438)" style="text-anchor: middle;"><tspan fill="rgb(136, 136, 136)" x="0" y="10" style="font-family: Roboto; font-weight: 400; font-stretch: 100%; font-size: 10px;">N ELM ST.</tspan></text></g><g id="MADISON-svg STREET-svg"><text transform="rotate(18.867305986370773, 253.0986785888672, 96.62176513671875) translate(253.0986785888672, 91.12176513671875)" style="text-anchor: middle;"><tspan x="0" y="10" style="font-family: Roboto; font-weight: 400; font-stretch: 100%; font-size: 10px; stroke: rgb(255, 255, 255); stroke-width: 2; stroke-linejoin: round; stroke-linecap: round;">MADISON STREET</tspan></text><text transform="rotate(18.867305986370773, 253.09868, 96.62177) translate(253.0986785888672, 91.12176513671875)" style="text-anchor: middle;"><tspan fill="rgb(136, 136, 136)" x="0" y="10" style="font-family: Roboto; font-weight: 400; font-stretch: 100%; font-size: 10px;">MADISON STREET</tspan></text></g><g id="JEFFERSON-svg ST.-svg"><text transform="rotate(18.24758070246124, 209.41172790527344, 131.8167266845703) translate(209.41172790527344, 126.31672668457031)" style="text-anchor: middle;"><tspan x="0" y="10" style="font-family: Roboto; font-weight: 400; font-stretch: 100%; font-size: 10px; stroke: rgb(255, 255, 255); stroke-width: 2; stroke-linejoin: round; stroke-linecap: round;">JEFFERSON ST.</tspan></text><text transform="rotate(18.24758070246124, 209.41173, 131.81673) translate(209.41172790527344, 126.31672668457031)" style="text-anchor: middle;"><tspan fill="rgb(136, 136, 136)" x="0" y="10" style="font-family: Roboto; font-weight: 400; font-stretch: 100%; font-size: 10px;">JEFFERSON ST.</tspan></text></g><g id="S-svg POPLAR-svg ST.-svg"><text transform="rotate(-71.83970236094127, 360.5703430175781, 329.7333068847656) translate(360.5703430175781, 324.2333068847656)" style="text-anchor: middle;"><tspan x="0" y="10" style="font-family: Roboto; font-weight: 400; font-stretch: 100%; font-size: 10px; stroke: rgb(255, 255, 255); stroke-width: 2; stroke-linejoin: round; stroke-linecap: round;">S POPLAR ST.</tspan></text><text transform="rotate(-71.83970236094127, 360.57034, 329.73331) translate(360.5703430175781, 324.2333068847656)" style="text-anchor: middle;"><tspan fill="rgb(136, 136, 136)" x="0" y="10" style="font-family: Roboto; font-weight: 400; font-stretch: 100%; font-size: 10px;">S POPLAR ST.</tspan></text></g><g id="WASHINGTON-svg"><text transform="rotate(-1.670179773084462, 538.0659790039062, 331.34649658203125) translate(538.0659790039062, 325.84649658203125)" style="text-anchor: middle;"><tspan x="0" y="10" style="font-family: Roboto; font-weight: 400; font-stretch: 100%; font-size: 10px; stroke: rgb(255, 255, 255); stroke-width: 2; stroke-linejoin: round; stroke-linecap: round;">WASHINGTON</tspan></text><text transform="rotate(-1.670179773084462, 538.06598, 331.3465) translate(538.0659790039062, 325.84649658203125)" style="text-anchor: middle;"><tspan fill="rgb(136, 136, 136)" x="0" y="10" style="font-family: Roboto; font-weight: 400; font-stretch: 100%; font-size: 10px;">WASHINGTON</tspan></text></g><g id="E-svg JEFFERSON-svg ST.-svg"><text transform="rotate(17.688021721282837, 488.262939453125, 222.6571044921875) translate(488.262939453125, 217.1571044921875)" style="text-anchor: middle;"><tspan x="0" y="10" style="font-family: Roboto; font-weight: 400; font-stretch: 100%; font-size: 10px; stroke: rgb(255, 255, 255); stroke-width: 2; stroke-linejoin: round; stroke-linecap: round;">E JEFFERSON ST.</tspan></text><text transform="rotate(17.688021721282837, 488.26294, 222.6571) translate(488.262939453125, 217.1571044921875)" style="text-anchor: middle;"><tspan fill="rgb(136, 136, 136)" x="0" y="10" style="font-family: Roboto; font-weight: 400; font-stretch: 100%; font-size: 10px;">E JEFFERSON ST.</tspan></text></g><g id="N-svg MAPLE-svg ST.-svg"><text transform="rotate(-71.80106535792098, 471.3971252441406, 266.6993713378906) translate(471.3971252441406, 261.1993713378906)" style="text-anchor: middle;"><tspan x="0" y="10" style="font-family: Roboto; font-weight: 400; font-stretch: 100%; font-size: 10px; stroke: rgb(255, 255, 255); stroke-width: 2; stroke-linejoin: round; stroke-linecap: round;">N MAPLE ST.</tspan></text><text transform="rotate(-71.80106535792098, 471.39713, 266.69937) translate(471.3971252441406, 261.1993713378906)" style="text-anchor: middle;"><tspan fill="rgb(136, 136, 136)" x="0" y="10" style="font-family: Roboto; font-weight: 400; font-stretch: 100%; font-size: 10px;">N MAPLE ST.</tspan></text></g><g id="LINCOLN-svg STREET-svg"><text transform="rotate(0.47614303568910926, 158.9671630859375, 403.3025817871094) translate(158.9671630859375, 397.8025817871094)" style="text-anchor: middle;"><tspan x="0" y="10" style="font-family: Roboto; font-weight: 400; font-stretch: 100%; font-size: 10px; stroke: rgb(255, 255, 255); stroke-width: 2; stroke-linejoin: round; stroke-linecap: round;">LINCOLN STREET</tspan></text><text transform="rotate(0.47614303568910926, 158.96716, 403.30258) translate(158.9671630859375, 397.8025817871094)" style="text-anchor: middle;"><tspan fill="rgb(136, 136, 136)" x="0" y="10" style="font-family: Roboto; font-weight: 400; font-stretch: 100%; font-size: 10px;">LINCOLN STREET</tspan></text></g><g id="FRANKLIN-svg STREET-svg"><text transform="rotate(89.33807481602133, 96.79116821289062, 442.0845947265625) translate(96.79116821289062, 436.5845947265625)" style="text-anchor: middle;"><tspan x="0" y="10" style="font-family: Roboto; font-weight: 400; font-stretch: 100%; font-size: 10px; stroke: rgb(255, 255, 255); stroke-width: 2; stroke-linejoin: round; stroke-linecap: round;">FRANKLIN STREET</tspan></text><text transform="rotate(89.33807481602133, 96.79117, 442.08459) translate(96.79116821289062, 436.5845947265625)" style="text-anchor: middle;"><tspan fill="rgb(136, 136, 136)" x="0" y="10" style="font-family: Roboto; font-weight: 400; font-stretch: 100%; font-size: 10px;">FRANKLIN STREET</tspan></text></g><g id="CHESTNUT-svg STREET-svg"><text transform="rotate(-71.83331980393191, 200.02137756347656, 468.08355712890625) translate(200.02137756347656, 462.58355712890625)" style="text-anchor: middle;"><tspan x="0" y="10" style="font-family: Roboto; font-weight: 400; font-stretch: 100%; font-size: 10px; stroke: rgb(255, 255, 255); stroke-width: 2; stroke-linejoin: round; stroke-linecap: round;">CHESTNUT STREET</tspan></text><text transform="rotate(-71.83331980393191, 200.02138, 468.08356) translate(200.02137756347656, 462.58355712890625)" style="text-anchor: middle;"><tspan fill="rgb(136, 136, 136)" x="0" y="10" style="font-family: Roboto; font-weight: 400; font-stretch: 100%; font-size: 10px;">CHESTNUT STREET</tspan></text></g></g><g id="Loda-svg"><rect width="52.03125" height="37.796875" transform="translate(405.984375, 14.109375)" fill="rgb(255,255,255)" rx="10" style="fill: rgb(255, 255, 255);"/><path d="M 415.984375 14.109375 H 448.015625 a 10 10 0 0 1 10 10 V 41.90625 a 10,10 0 0 1 -10,10 H 415.984375 a 10,10 0 0 1 -10,-10 V 24.109375 a 10,10 0 0 1 10,-10 z" style="fill: none; stroke-width: 1; stroke: rgb(242, 243, 240);"/><text transform="translate(432, 13.609375)" style="text-anchor: middle;"><tspan fill="rgb(51,51,51)" x="0" y="25" style="font-family: Roboto; font-weight: 400; font-stretch: 100%; font-size: 14px;">Loda</tspan></text></g><g id="svg-marker-svg" transform="translate(432, 33)"><g id="svg-id-q53PP2oDdG-svg" transform="translate(-14, -14)"/></g><rect width="156.96875" height="14" transform="translate(443.03125, 436)" fill="rgba(255,255,255,0.73)" style="fill: rgb(255, 255, 255); fill-opacity: 0.73;"/><text transform="translate(447, 437)"><tspan fill="rgba(119,119,119,0.87)" x="0" y="11" style="font-family: Roboto; font-weight: 400; font-stretch: 100%; font-size: 11px;">©</tspan><tspan fill="rgba(119,119,119,0.87)" dx="2.734375" style="font-family: Roboto; font-weight: 400; font-stretch: 100%; font-size: 11px;">OpenStreetMap</tspan><tspan fill="rgba(119,119,119,0.87)" dx="2.734375" style="font-family: Roboto; font-weight: 400; font-stretch: 100%; font-size: 11px;">contributors</tspan></text></g></g></g></g><g id="container-svg container-footer-svg datawrapper-iTcGa-1la8dcw-svg"><text transform="translate(0, 470)"><tspan fill="rgb(136,136,136)" x="0" y="11" style="font-family: Roboto; font-weight: 400; font-stretch: 100%; font-size: 11px;">Created with</tspan><tspan fill="rgb(136,136,136)" dx="2.734375" style="font-family: Roboto; font-weight: 400; font-stretch: 100%; font-size: 11px;">Datawrapper</tspan></text></g></g></g></g></svg>