<svg xmlns="http://www.w3.org/2000/svg" xmlns:xlink="http://www.w3.org/1999/xlink" id="exportSvg" width="600" height="483"><defs/><g><g id="__svelte-dw-svg" clip-path="url(#rect-mask-WUoQOk9K7Hqyny6NEiedF)"><clipPath id="rect-mask-WUoQOk9K7Hqyny6NEiedF"><rect x="0" y="0" width="600" height="483"/></clipPath><g id="container-svg container-body-svg datawrapper-uBPEb-1gvfeww-svg"><g id="container-svg container-bodyTop-svg datawrapper-uBPEb-lmtz6e-svg"><g id="container-svg container-bodyCenter-svg datawrapper-uBPEb-1fgvipr-svg"><g id="chart-svg"><g id="container-inner-svg export-group-svg maplibregl-map-svg" clip-path="url(#rect-mask-hnbjgiKfpI27ElazuygYB)"><clipPath id="rect-mask-hnbjgiKfpI27ElazuygYB"><rect x="0" y="0" width="600" height="450"/></clipPath><g id="basemap-svg" clip-path="url(#rect-mask-lxvgqTo7A8uNcYkicPbOm)"><clipPath id="rect-mask-lxvgqTo7A8uNcYkicPbOm"><rect x="0" y="0" width="600" height="450"/></clipPath><rect width="600" height="450" transform="translate(0, 0)" fill="rgb(255,255,255)" id="background" style="fill: rgb(255, 255, 255);"/><path d="M197.467,93.847L199.837,94.736L202.799,95.625M197.467,93.847L119.267,68.669M286.035,85.257L275.667,119.025L202.799,95.625M408.666,171.455L410.147,167.308L412.221,162.569L406.593,161.087L399.78,159.014L398.299,163.457L396.818,168.197M330.17,137.983L363.05,148.054L365.419,148.35L367.197,148.647L399.78,159.014L417.849,102.141M436.214,87.035L412.221,162.569M299.66,405.462L299.957,408.424L299.957,411.979M300.253,571.044L300.253,512.098L299.957,411.979M288.997,411.09L289.293,592.371M289.589,311.859L295.513,312.155L300.549,312.452M273.594,312.155L275.371,307.416L276.852,302.677M288.997,404.87L288.997,411.09M273.594,312.155L289.589,311.859L288.997,404.87M648.301,300.603L639.415,302.084L632.602,302.38L599.426,303.269L565.658,304.454L565.955,394.798M400.668,369.324L476.499,366.954L476.202,306.824L386.45,310.082L300.549,312.452L300.253,392.132L300.253,394.502L299.66,405.462M484.793,306.824L476.202,306.824M565.658,304.454L557.661,304.454M558.253,372.879L557.068,367.547L556.476,364.585M558.549,399.538L558.253,372.879L536.037,373.471L481.238,375.248L399.187,377.618M487.755,366.658L481.83,366.658L476.499,366.954M556.476,364.585L487.755,366.658M557.661,304.454L484.793,306.824M166.661,181.526L162.514,193.967L168.735,195.744L171.993,196.929M291.07,235.733L270.928,228.92L267.966,228.031L249.304,222.107M291.07,235.733L294.625,236.621L297.883,237.51L299.66,231.29L301.438,225.958M242.491,220.034L244.861,213.517L246.935,207.889M242.491,220.034L246.638,221.218L249.304,222.107M92.608,170.862L93.497,163.457L94.09,157.829M162.514,193.967L127.265,182.118L92.608,170.862L59.433,275.425M242.491,220.034L221.164,212.924L201.318,206.408L171.993,196.929M177.917,185.081L171.401,183.007L166.661,181.526M182.361,126.727L166.661,181.526L94.09,157.829L116.602,84.072M301.438,225.958L298.179,224.773L294.032,223.292M444.804,298.826L448.359,287.274L374.009,262.688L333.132,249.062L297.883,237.51L276.852,302.677M396.818,168.197L371.047,248.47L336.983,237.51L301.438,225.958L310.324,198.706L327.208,146.869M253.748,210.259L250.785,209.37L246.935,207.889M272.705,126.431L246.935,207.889L211.685,196.337L177.917,185.081L197.467,121.395M294.032,223.292L274.779,217.071L271.816,216.183L253.748,210.259M478.276,194.856L452.505,275.425L382.6,252.321L395.633,211.74L408.666,171.455M462.577,278.683L458.726,277.499L452.505,275.425L450.432,280.461L448.359,287.274M462.577,278.683L479.757,284.015L498.418,287.274" stroke="rgb(231,231,231)" id="road_path" transform="translate(0.5, 0)" style="fill: none; stroke-width: 1.45547; stroke-linejoin: bevel; stroke-linecap: square; stroke-dasharray: 1.06559, 2.66398; stroke: rgb(231, 231, 231);"/><path d="M21.221,315.117L16.482,315.117L12.335,314.525L10.558,313.636L7.892,314.229L-2.772,315.414L-30.319,316.302L-43.945,316.895L-95.19,319.264L-188.2,323.115M38.994,314.821L34.551,315.117L16.482,315.117L12.335,314.525L10.558,313.636L7.892,314.229L-2.772,315.414L-16.694,316.006M21.221,315.117L16.482,315.117L12.335,314.525L10.558,313.636L7.892,314.229L-2.772,315.414L-30.319,316.302L-43.945,316.895L-95.19,319.264L-188.2,323.115M38.994,314.821L34.551,315.117L16.482,315.117L12.335,314.525L10.558,313.636L7.892,314.229L-2.772,315.414L-16.694,316.006M375.49,256.171L384.673,228.624L405.112,165.827L406.593,161.087L431.771,83.776L434.14,78.444M457.245,282.534L450.432,280.461L415.479,269.501L375.49,256.171L335.206,243.138L299.66,231.29L296.402,230.401L272.705,222.699L270.039,221.811L249.008,214.998M562.104,398.353L558.549,399.538L548.478,402.5L539.295,402.204L536.926,397.464L536.037,373.471L535.741,368.436M249.008,214.998L250.785,209.37L278.333,124.95M296.402,230.401L298.179,224.773L307.658,196.633L326.023,140.353L354.163,52.674L364.827,20.387L469.39,-295.671L476.202,-313.443L499.011,-380.98L537.814,-499.168L538.999,-503.611L543.739,-517.237M10.558,313.636L18.259,311.267L24.48,308.305L29.219,305.342L34.847,301.196L39.883,296.16L46.103,288.162L49.658,282.238L53.509,272.463L89.646,161.976M482.719,290.532L457.245,282.534M561.808,298.53L584.023,297.641L600.019,297.049L609.794,296.752L632.602,296.16L648.598,295.864L666.666,295.271L669.332,295.271L745.162,294.975L774.191,295.864L804.109,296.456L818.327,296.752L863.055,297.937L987.167,301.492L1096.766,302.38L1110.391,302.677L1234.504,303.861M198.652,555.049L220.572,482.477L228.866,454.633L230.643,448.413L232.42,442.785L242.195,408.72L272.705,306.527L294.625,236.621L296.402,230.401M89.646,161.976L93.201,147.462L113.047,85.554L114.232,83.48L116.602,79.925L120.452,77.26M278.333,124.95L289.589,89.108M485.681,192.486L499.899,147.462L510.859,114.582L511.155,111.028L510.859,108.954L509.674,106.881M296.402,733.961L296.106,693.38L296.402,611.329L296.106,595.037L295.81,573.71L295.513,561.269L295.81,445.747L295.81,394.502L295.513,321.042L295.513,312.155L295.217,308.008M482.127,370.213L481.83,366.658L480.646,306.824L480.646,301.196L482.719,290.532M501.38,294.383L501.677,290.532L507.601,270.093L527.447,207.889M249.008,214.998L246.638,221.218L238.048,248.174L224.126,289.939L222.053,296.752L219.091,305.342L217.314,307.12M249.008,214.998L244.861,213.517L222.942,206.408L209.908,202.261L203.095,200.187L170.216,189.82L164.588,187.747L130.227,176.194L93.497,163.457L89.646,161.976L71.874,154.867L57.359,150.128M562.104,367.547L561.808,304.454L561.808,298.53M510.267,430.344L551.144,429.751L555.291,429.159L557.957,428.27L559.438,427.085L560.623,425.308L561.511,422.642L562.104,412.867L562.104,367.547M562.104,367.547L557.068,367.547L535.741,368.436L482.127,370.213L395.337,373.175M540.184,297.641L539.888,281.349L507.601,270.093M214.944,11.204L214.944,32.828L213.759,46.454L212.574,52.082L207.242,73.113L199.837,94.736L197.467,99.179L171.401,183.007L170.216,189.82L169.623,193.078L168.735,195.744L160.441,222.699L158.367,230.401M527.447,207.889L485.681,192.486M242.195,408.72L251.674,409.313L288.997,408.72L295.81,408.424M509.674,106.881L508.786,105.103L507.008,103.326L505.231,102.141L499.307,99.475L434.14,78.444L392.375,64.522L354.163,52.674M120.452,77.26L123.414,76.075L127.858,75.779L129.931,76.075L135.855,77.556L156.59,84.961L197.467,99.179L240.122,112.213L270.335,121.691L278.333,124.95M485.681,192.486L445.1,178.268L410.147,167.308L405.112,165.827L398.299,163.457L388.82,160.199L363.938,153.09L350.016,148.054L326.023,140.353M314.767,306.824L295.217,308.008L283.369,308.305L276.26,307.416L275.371,307.416L272.705,306.527M29.219,305.342L29.812,307.416L33.07,310.971L38.994,314.821L140.299,311.267L151.851,311.267L209.02,310.082L214.351,309.193L217.314,307.12M314.767,306.824L480.646,301.196M561.808,298.53L540.184,297.641L524.781,297.641L501.38,294.383L482.719,290.532M457.245,282.534L458.726,277.499L485.681,192.486M222.942,206.408L221.164,212.924L216.721,228.624L213.167,240.768L238.048,248.174M203.095,200.187L201.318,206.408L196.579,222.699L216.721,228.624M600.019,297.049L599.426,303.269L599.426,305.342L600.611,314.821L606.239,324.892L611.867,336.445L617.199,338.814L623.123,337.926L627.27,332.298L632.01,310.378L632.602,302.38L632.602,296.16M151.851,311.267L154.813,291.421L158.071,280.165M363.938,153.09L365.419,148.35L392.375,64.522M314.767,306.824L333.132,249.062L335.206,243.138L336.983,237.51L342.019,221.218L363.938,153.09M209.908,202.261L211.685,196.337L221.757,166.123L238.048,117.841L240.122,112.213M510.267,430.344L509.971,433.898L510.267,452.263L510.563,461.446L509.971,464.112L508.193,470.925L506.12,475.96L483.608,517.43L480.349,521.873L476.202,526.316L471.167,530.463L465.539,534.018L459.022,537.276L452.802,539.35L445.693,540.831L435.918,541.719L402.742,543.2L392.375,543.497L386.45,542.608L383.488,542.016L378.453,539.35L375.49,536.98L371.344,532.537L367.493,526.909L365.715,522.762L364.827,518.911L364.234,515.356L364.531,448.413L364.531,442.192L364.827,434.787M295.81,408.424L299.957,408.424L324.838,408.128L335.502,408.424L339.649,409.609L342.315,411.386L343.203,413.163L344.388,417.014L344.684,422.346L345.277,424.716L346.758,427.974L347.943,429.751L349.424,431.232L352.682,433.01L355.348,433.898L364.827,434.787L441.842,432.713L510.267,430.344M307.658,196.633L310.324,198.706L327.8,212.924L342.019,221.218M213.167,240.768L164.292,229.216L160.441,222.699M395.337,373.175L392.967,374.36L360.68,374.952L337.575,374.952L337.575,393.91L323.653,394.798L300.253,394.502L295.81,394.502M337.575,374.952L328.393,374.36M504.935,132.355L517.376,135.613L529.817,140.056M116.602,216.775L127.265,182.118L130.227,176.194M415.479,269.501L445.1,178.268M375.49,256.171L374.009,262.688L371.64,271.574L387.635,276.61" stroke="rgb(231,231,231)" id="road_minor" transform="translate(0.5, 0)" style="fill: none; stroke-width: 3.92822; stroke-linejoin: round; stroke-linecap: round; stroke: rgb(231, 231, 231);"/><path d="M269.151,224.773L267.966,228.031L248.416,288.755L181.176,497.584L178.806,506.47L171.993,536.684M269.151,224.773L270.039,221.811L271.816,216.183L334.021,21.868L369.566,-88.915L374.306,-102.837M109.789,733.961L113.936,720.927L120.749,696.638L171.993,536.684L202.207,442.785L251.97,288.162L270.928,228.92L272.705,222.699L274.779,217.071L337.279,21.572L380.23,-111.723L384.081,-124.46L419.034,-233.17L420.218,-236.132L437.695,-291.524L452.209,-334.474L464.65,-372.39L475.61,-407.935L485.977,-439.63L495.456,-469.843L510.859,-517.237" stroke="rgb(157,157,157)" id="railway" transform="translate(0.5, 0)" style="fill: none; stroke-width: 1; stroke-opacity: 0.84894; stroke-linejoin: miter; stroke-linecap: butt; stroke: rgb(157, 157, 157);"/><g id="WALNUT-svg STREET-svg"><text transform="rotate(-72.72711575005079, 190.5840606689453, 121.31446838378906) translate(190.5840606689453, 115.81446838378906)" style="text-anchor: middle;"><tspan x="0" y="10" style="font-family: Roboto; font-weight: 400; font-stretch: 100%; font-size: 10px; stroke: rgb(255, 255, 255); stroke-width: 2; stroke-linejoin: round; stroke-linecap: round;">WALNUT STREET</tspan></text><text transform="rotate(-72.72711575005079, 190.58406, 121.31447) translate(190.5840606689453, 115.81446838378906)" style="text-anchor: middle;"><tspan fill="rgb(136, 136, 136)" x="0" y="10" style="font-family: Roboto; font-weight: 400; font-stretch: 100%; font-size: 10px;">WALNUT STREET</tspan></text></g><g id="W-svg THOMAS-svg ST.-svg"><text transform="rotate(18.583874501089014, 152.76597595214844, 183.7721405029297) translate(152.76597595214844, 178.2721405029297)" style="text-anchor: middle;"><tspan x="0" y="10" style="font-family: Roboto; font-weight: 400; font-stretch: 100%; font-size: 10px; stroke: rgb(255, 255, 255); stroke-width: 2; stroke-linejoin: round; stroke-linecap: round;">W THOMAS ST.</tspan></text><text transform="rotate(18.583874501089014, 152.76598, 183.77214) translate(152.76597595214844, 178.2721405029297)" style="text-anchor: middle;"><tspan fill="rgb(136, 136, 136)" x="0" y="10" style="font-family: Roboto; font-weight: 400; font-stretch: 100%; font-size: 10px;">W THOMAS ST.</tspan></text></g><g id="W-svg PERA-svg ST.-svg"><text transform="rotate(-1.9430765211172691, 397.70648193359375, 304.010009765625) translate(397.70648193359375, 298.510009765625)" style="text-anchor: middle;"><tspan x="0" y="10" style="font-family: Roboto; font-weight: 400; font-stretch: 100%; font-size: 10px; stroke: rgb(255, 255, 255); stroke-width: 2; stroke-linejoin: round; stroke-linecap: round;">W PERA ST.</tspan></text><text transform="rotate(-1.9430765211172691, 397.70648, 304.01001) translate(397.70648193359375, 298.510009765625)" style="text-anchor: middle;"><tspan fill="rgb(136, 136, 136)" x="0" y="10" style="font-family: Roboto; font-weight: 400; font-stretch: 100%; font-size: 10px;">W PERA ST.</tspan></text></g><g id="W-svg PERA-svg ST.-svg"><text transform="rotate(-2.0092308355658792, 128.4996337890625, 311.6809387207031) translate(128.4996337890625, 306.1809387207031)" style="text-anchor: middle;"><tspan x="0" y="10" style="font-family: Roboto; font-weight: 400; font-stretch: 100%; font-size: 10px; stroke: rgb(255, 255, 255); stroke-width: 2; stroke-linejoin: round; stroke-linecap: round;">W PERA ST.</tspan></text><text transform="rotate(-2.0092308355658792, 128.49963, 311.68094) translate(128.4996337890625, 306.1809387207031)" style="text-anchor: middle;"><tspan fill="rgb(136, 136, 136)" x="0" y="10" style="font-family: Roboto; font-weight: 400; font-stretch: 100%; font-size: 10px;">W PERA ST.</tspan></text></g><g id="S-svg HICKORY-svg ST.-svg"><text transform="rotate(-71.88859493945989, 61.910282135009766, 246.77651977539062) translate(61.910282135009766, 241.27651977539062)" style="text-anchor: middle;"><tspan x="0" y="10" style="font-family: Roboto; font-weight: 400; font-stretch: 100%; font-size: 10px; stroke: rgb(255, 255, 255); stroke-width: 2; stroke-linejoin: round; stroke-linecap: round;">S HICKORY ST.</tspan></text><text transform="rotate(-71.88859493945989, 61.91028, 246.77652) translate(61.910282135009766, 241.27651977539062)" style="text-anchor: middle;"><tspan fill="rgb(136, 136, 136)" x="0" y="10" style="font-family: Roboto; font-weight: 400; font-stretch: 100%; font-size: 10px;">S HICKORY ST.</tspan></text></g><g id="KATIE-svg AVENUE-svg"><text transform="rotate(-1.940818742030784, 478.72119140625, 370.3292541503906) translate(478.72119140625, 364.8292541503906)" style="text-anchor: middle;"><tspan x="0" y="10" style="font-family: Roboto; font-weight: 400; font-stretch: 100%; font-size: 10px; stroke: rgb(255, 255, 255); stroke-width: 2; stroke-linejoin: round; stroke-linecap: round;">KATIE AVENUE</tspan></text><text transform="rotate(-1.940818742030784, 478.72119, 370.32925) translate(478.72119140625, 364.8292541503906)" style="text-anchor: middle;"><tspan fill="rgb(136, 136, 136)" x="0" y="10" style="font-family: Roboto; font-weight: 400; font-stretch: 100%; font-size: 10px;">KATIE AVENUE</tspan></text></g><g id="CATHERINE-svg ST.-svg"><text transform="rotate(18.20905285277622, 432.9916076660156, 78.06118774414062) translate(432.9916076660156, 72.56118774414062)" style="text-anchor: middle;"><tspan x="0" y="10" style="font-family: Roboto; font-weight: 400; font-stretch: 100%; font-size: 10px; stroke: rgb(255, 255, 255); stroke-width: 2; stroke-linejoin: round; stroke-linecap: round;">CATHERINE ST.</tspan></text><text transform="rotate(18.20905285277622, 432.99161, 78.06119) translate(432.9916076660156, 72.56118774414062)" style="text-anchor: middle;"><tspan fill="rgb(136, 136, 136)" x="0" y="10" style="font-family: Roboto; font-weight: 400; font-stretch: 100%; font-size: 10px;">CATHERINE ST.</tspan></text></g><g id="N-svg POPLAR-svg ST.-svg"><text transform="rotate(-72.40769443043848, 471.4103698730469, 237.49391174316406) translate(471.4103698730469, 231.99391174316406)" style="text-anchor: middle;"><tspan x="0" y="10" style="font-family: Roboto; font-weight: 400; font-stretch: 100%; font-size: 10px; stroke: rgb(255, 255, 255); stroke-width: 2; stroke-linejoin: round; stroke-linecap: round;">N POPLAR ST.</tspan></text><text transform="rotate(-72.40769443043848, 471.41037, 237.49391) translate(471.4103698730469, 231.99391174316406)" style="text-anchor: middle;"><tspan fill="rgb(136, 136, 136)" x="0" y="10" style="font-family: Roboto; font-weight: 400; font-stretch: 100%; font-size: 10px;">N POPLAR ST.</tspan></text></g><g id="N-svg CHESTNUT-svg ST.-svg"><text transform="rotate(-71.92738950415485, 263.6435546875, 169.96534729003906) translate(263.6435546875, 164.46534729003906)" style="text-anchor: middle;"><tspan x="0" y="10" style="font-family: Roboto; font-weight: 400; font-stretch: 100%; font-size: 10px; stroke: rgb(255, 255, 255); stroke-width: 2; stroke-linejoin: round; stroke-linecap: round;">N CHESTNUT ST.</tspan></text><text transform="rotate(-71.92738950415485, 263.64355, 169.96535) translate(263.6435546875, 164.46534729003906)" style="text-anchor: middle;"><tspan fill="rgb(136, 136, 136)" x="0" y="10" style="font-family: Roboto; font-weight: 400; font-stretch: 100%; font-size: 10px;">N CHESTNUT ST.</tspan></text></g><g id="LUDLOW-svg STREET-svg"><text transform="rotate(17.84658722235107, 405.9568176269531, 166.0754852294922) translate(405.9568176269531, 160.5754852294922)" style="text-anchor: middle;"><tspan x="0" y="10" style="font-family: Roboto; font-weight: 400; font-stretch: 100%; font-size: 10px; stroke: rgb(255, 255, 255); stroke-width: 2; stroke-linejoin: round; stroke-linecap: round;">LUDLOW STREET</tspan></text><text transform="rotate(17.84658722235107, 405.95682, 166.07549) translate(405.9568176269531, 160.5754852294922)" style="text-anchor: middle;"><tspan fill="rgb(136, 136, 136)" x="0" y="10" style="font-family: Roboto; font-weight: 400; font-stretch: 100%; font-size: 10px;">LUDLOW STREET</tspan></text></g><g id="S-svg OAK-svg ST.-svg"><text transform="rotate(-73.3768845359428, 247.01644897460938, 392.57061767578125) translate(247.01644897460938, 387.07061767578125)" style="text-anchor: middle;"><tspan x="0" y="10" style="font-family: Roboto; font-weight: 400; font-stretch: 100%; font-size: 10px; stroke: rgb(255, 255, 255); stroke-width: 2; stroke-linejoin: round; stroke-linecap: round;">S OAK ST.</tspan></text><text transform="rotate(-73.3768845359428, 247.01645, 392.57062) translate(247.01644897460938, 387.07061767578125)" style="text-anchor: middle;"><tspan fill="rgb(136, 136, 136)" x="0" y="10" style="font-family: Roboto; font-weight: 400; font-stretch: 100%; font-size: 10px;">S OAK ST.</tspan></text></g><g id="CHURCH-svg STREET-svg"><text transform="rotate(-72.30479650168257, 513.7029418945312, 250.967529296875) translate(513.7029418945312, 245.467529296875)" style="text-anchor: middle;"><tspan x="0" y="10" style="font-family: Roboto; font-weight: 400; font-stretch: 100%; font-size: 10px; stroke: rgb(255, 255, 255); stroke-width: 2; stroke-linejoin: round; stroke-linecap: round;">CHURCH STREET</tspan></text><text transform="rotate(-72.30479650168257, 513.70294, 250.96753) translate(513.7029418945312, 245.467529296875)" style="text-anchor: middle;"><tspan fill="rgb(136, 136, 136)" x="0" y="10" style="font-family: Roboto; font-weight: 400; font-stretch: 100%; font-size: 10px;">CHURCH STREET</tspan></text></g><g id="N-svg ORANGE-svg ALLEY-svg"><text transform="rotate(-72.82079627669165, 339.32049560546875, 229.94796752929688) translate(339.32049560546875, 224.44796752929688)" style="text-anchor: middle;"><tspan x="0" y="10" style="font-family: Roboto; font-weight: 400; font-stretch: 100%; font-size: 10px; stroke: rgb(255, 255, 255); stroke-width: 2; stroke-linejoin: round; stroke-linecap: round;">N ORANGE ALLEY</tspan></text><text transform="rotate(-72.82079627669165, 339.3205, 229.94797) translate(339.32049560546875, 224.44796752929688)" style="text-anchor: middle;"><tspan fill="rgb(136, 136, 136)" x="0" y="10" style="font-family: Roboto; font-weight: 400; font-stretch: 100%; font-size: 10px;">N ORANGE ALLEY</tspan></text></g><g id="ORANGE-svg ALLEY-svg"><text transform="rotate(-72.17411311563086, 378.13690185546875, 108.79978942871094) translate(378.13690185546875, 103.29978942871094)" style="text-anchor: middle;"><tspan x="0" y="10" style="font-family: Roboto; font-weight: 400; font-stretch: 100%; font-size: 10px; stroke: rgb(255, 255, 255); stroke-width: 2; stroke-linejoin: round; stroke-linecap: round;">ORANGE ALLEY</tspan></text><text transform="rotate(-72.17411311563086, 378.1369, 108.79979) translate(378.13690185546875, 103.29978942871094)" style="text-anchor: middle;"><tspan fill="rgb(136, 136, 136)" x="0" y="10" style="font-family: Roboto; font-weight: 400; font-stretch: 100%; font-size: 10px;">ORANGE ALLEY</tspan></text></g></g><g id="Ludlow-svg"><rect width="65.75" height="37.796875" transform="translate(85.125, 29.109375)" fill="rgb(255,255,255)" rx="10" style="fill: rgb(255, 255, 255);"/><path d="M 95.125 29.109375 H 140.875 a 10 10 0 0 1 10 10 V 56.90625 a 10,10 0 0 1 -10,10 H 95.125 a 10,10 0 0 1 -10,-10 V 39.109375 a 10,10 0 0 1 10,-10 z" style="fill: none; stroke-width: 1; stroke: rgb(242, 243, 240);"/><text transform="translate(118, 28.609375)" style="text-anchor: middle;"><tspan fill="rgb(51,51,51)" x="0" y="25" style="font-family: Roboto; font-weight: 400; font-stretch: 100%; font-size: 14px;">Ludlow</tspan></text></g><g id="svg-marker-svg" transform="translate(266, 211)"><g id="svg-id-xoPyq8v7M5-svg" transform="translate(-14, -14)"/></g><rect width="156.96875" height="14" transform="translate(443.03125, 436)" fill="rgba(255,255,255,0.73)" style="fill: rgb(255, 255, 255); fill-opacity: 0.73;"/><text transform="translate(447, 437)"><tspan fill="rgba(119,119,119,0.87)" x="0" y="11" style="font-family: Roboto; font-weight: 400; font-stretch: 100%; font-size: 11px;">©</tspan><tspan fill="rgba(119,119,119,0.87)" dx="2.734375" style="font-family: Roboto; font-weight: 400; font-stretch: 100%; font-size: 11px;">OpenStreetMap</tspan><tspan fill="rgba(119,119,119,0.87)" dx="2.734375" style="font-family: Roboto; font-weight: 400; font-stretch: 100%; font-size: 11px;">contributors</tspan></text></g></g></g></g><g id="container-svg container-footer-svg datawrapper-uBPEb-1la8dcw-svg"><text transform="translate(0, 470)"><tspan fill="rgb(136,136,136)" x="0" y="11" style="font-family: Roboto; font-weight: 400; font-stretch: 100%; font-size: 11px;">Created with</tspan><tspan fill="rgb(136,136,136)" dx="2.734375" style="font-family: Roboto; font-weight: 400; font-stretch: 100%; font-size: 11px;">Datawrapper</tspan></text></g></g></g></g></svg>