<?xml version="1.0" encoding="UTF-8"?>
<svg id="exportSvg" xmlns="http://www.w3.org/2000/svg" version="1.1" viewBox="0 0 600 483">
  <!-- Generator: Adobe Illustrator 29.6.1, SVG Export Plug-In . SVG Version: 2.1.1 Build 9)  -->
  <defs>
    <style>
      .st0, .st1, .st2, .st3, .st4, .st5, .st6, .st7, .st8, .st9 {
        fill: none;
      }

      .st1 {
        stroke-width: 3.12px;
      }

      .st1, .st2, .st3, .st4, .st7 {
        stroke: #e7e7e7;
      }

      .st1, .st2, .st3, .st5, .st6 {
        stroke-linecap: round;
        stroke-linejoin: round;
      }

      .st2 {
        stroke-width: 3.61px;
      }

      .st3 {
        stroke-width: 5.21px;
      }

      .st10, .st11 {
        font-size: 11px;
      }

      .st10, .st11, .st12, .st13, .st14, .st5, .st6 {
        font-family: ArialMT, Arial;
        isolation: isolate;
      }

      .st11, .st13 {
        fill: #888;
      }

      .st12, .st13, .st5, .st6 {
        font-size: 10px;
      }

      .st4 {
        stroke-dasharray: .76 1.89;
        stroke-linecap: square;
        stroke-linejoin: bevel;
        stroke-width: 1.19px;
      }

      .st14 {
        fill: #333;
        font-size: 14px;
      }

      .st15, .st16 {
        fill: #fff;
      }

      .st5 {
        stroke-width: 2px;
      }

      .st5, .st6 {
        stroke: #fff;
      }

      .st6 {
        stroke-width: 2px;
      }

      .st7 {
        stroke-width: 5.27px;
      }

      .st8 {
        stroke: #9d9d9d;
        stroke-opacity: .74;
      }

      .st16 {
        fill-opacity: .73;
      }

      .st9 {
        stroke: #f2f3f0;
      }
    </style>
  </defs>
  <rect class="st0" x="-2101.72" y="-2708.54" width="600" height="483"/>
  <rect class="st0" x="-2101.72" y="-2708.54" width="600" height="450"/>
  <rect class="st0" x="-2101.72" y="-2708.54" width="600" height="450"/>
  <rect id="background" class="st15" x="-2101.72" y="-2708.54" width="600" height="450"/>
  <line class="st4" x1="-1728.41" y1="-2537.27" x2="-1726" y2="-2537.27"/>
  <polyline class="st4" points="-1777.79 -2539.47 -1771.97 -2554.33 -1771.37 -2554.73 -1770.16 -2554.93 -1769.36 -2555.13 -1768.96 -2554.93 -1764.34 -2551.52 -1749.69 -2545.5"/>
  <polyline class="st4" points="-1745.47 -2543.29 -1741.26 -2541.28 -1729.81 -2537.07 -1728.41 -2537.27"/>
  <polyline class="st4" points="-1749.69 -2545.5 -1748.08 -2544.69 -1745.47 -2543.29"/>
  <line class="st1" x1="-1825.77" y1="-2511.57" x2="-1800.67" y2="-2501.34"/>
  <line class="st1" x1="-1607.57" y1="-2587.25" x2="-1604.15" y2="-2584.84"/>
  <line class="st1" x1="-1604.15" y1="-2584.84" x2="-1603.15" y2="-2581.23"/>
  <polyline class="st1" points="-1931.35 -2619.17 -1930.95 -2614.55 -1930.55 -2606.72 -1929.55 -2604.71"/>
  <polyline class="st1" points="-1943.2 -2623.38 -1940.39 -2622.58 -1937.17 -2621.98 -1934.57 -2621.17 -1933.76 -2620.77 -1931.75 -2619.97"/>
  <polyline class="st1" points="-1929.55 -2604.71 -1928.54 -2606.72 -1927.74 -2609.53 -1925.93 -2612.94 -1925.33 -2614.15 -1924.13 -2615.96"/>
  <polyline class="st1" points="-1930.75 -2626.39 -1934.97 -2625.39 -1940.59 -2624.39 -1943.2 -2623.38"/>
  <polyline class="st1" points="-1928.34 -2446.13 -1929.15 -2443.52 -1928.74 -2442.12 -1927.74 -2440.71 -1925.93 -2438.5 -1924.33 -2434.09 -1923.12 -2428.07"/>
  <line class="st1" x1="-1928.14" y1="-2415.02" x2="-1926.74" y2="-2353.99"/>
  <polyline class="st1" points="-1915.7 -2446.73 -1919.91 -2444.33 -1922.72 -2443.52 -1925.53 -2443.92 -1927.34 -2444.93 -1928.34 -2446.13"/>
  <polyline class="st1" points="-1750.29 -2539.68 -1748.08 -2544.69 -1746.27 -2548.51"/>
  <polyline class="st1" points="-1748.88 -2486.28 -1749.08 -2492.1 -1750.29 -2539.68"/>
  <polyline class="st1" points="-1750.29 -2539.68 -1767.55 -2497.12 -1770.36 -2492.1"/>
  <line class="st1" x1="-1772.97" y1="-2559.35" x2="-1761.93" y2="-2586.85"/>
  <polyline class="st1" points="-1511.81 -2661.92 -1513.62 -2662.33 -1517.03 -2662.33 -1543.53 -2661.52 -1546.34 -2662.53"/>
  <polyline class="st1" points="-1509.81 -2661.32 -1513.62 -2662.33 -1517.03 -2662.33 -1537.51 -2661.72"/>
  <polyline class="st1" points="-1546.34 -2662.53 -1548.55 -2664.73 -1549.75 -2828.74"/>
  <line class="st1" x1="-1990.17" y1="-2449.55" x2="-1989.17" y2="-2467.41"/>
  <polyline class="st1" points="-1995.79 -2497.92 -1976.52 -2498.32 -1973.51 -2497.32 -1972.91 -2469.62 -1975.11 -2467.61 -1989.17 -2467.41 -1995.59 -2468.82 -1996.39 -2471.63 -1995.79 -2497.92 -1994.99 -2527.23 -1992.58 -2530.84 -1929.15 -2530.84"/>
  <polyline class="st1" points="-2092.34 -2554.93 -2092.54 -2564.17 -2105.99 -2582.03 -2108.6 -2588.25 -2109 -2603.91"/>
  <line class="st1" x1="-1800.67" y1="-2501.34" x2="-1797.06" y2="-2499.93"/>
  <polyline class="st1" points="-1929.55 -2604.71 -1928.74 -2551.32 -1929.15 -2530.84 -1928.94 -2508.56 -1928.74 -2495.31 -1928.74 -2479.25 -1928.34 -2446.13"/>
  <polyline class="st1" points="-1748.88 -2486.28 -1726.8 -2486.08 -1700.71 -2486.48 -1676.02 -2486.68 -1651.53 -2487.08 -1626.43 -2487.28 -1602.95 -2487.68 -1567.62 -2488.09 -1566.41 -2488.09 -1511.81 -2488.69"/>
  <polyline class="st1" points="-1537.51 -2488.49 -1495.76 -2488.89 -1477.69 -2489.09 -1318.71 -2490.9 -1209.1 -2492.3"/>
  <polyline class="st1" points="-2036.94 -2604.51 -2084.72 -2603.91 -2109 -2603.91 -2128.48 -2604.11 -2169.63 -2604.71 -2211.78 -2605.32 -2253.94 -2605.12"/>
  <polyline class="st1" points="-1926.74 -2353.99 -1926.54 -2265.47 -1953.03 -2196.82 -1958.25 -2192 -1964.27 -2189.79"/>
  <polyline class="st1" points="-1855.27 -2355.4 -1825.57 -2355.8 -1791.44 -2356 -1749.29 -2356.2 -1700.91 -2356.8 -1681.24 -2356.8 -1678.63 -2357.61 -1676.42 -2359.62"/>
  <polyline class="st1" points="-1651.73 -2414.22 -1652.13 -2450.95 -1651.53 -2487.08 -1651.73 -2513.78 -1651.73 -2541.68 -1652.93 -2587.45 -1653.33 -2614.15 -1651.73 -2618.77 -1645.91 -2625.99 -1643.7 -2630.01 -1643.5 -2653.09 -1644.7 -2723.55 -1647.91 -2731.38 -1653.13 -2737 -1669.79 -2743.42"/>
  <line class="st1" x1="-1943.2" y1="-2623.38" x2="-2037.34" y2="-2621.78"/>
  <polyline class="st1" points="-1674.41 -2414.01 -1674.21 -2367.24 -1674.61 -2363.03 -1676.42 -2359.62"/>
  <polyline class="st1" points="-1900.44 -2404.18 -1918.71 -2359.41 -1918.91 -2353.99"/>
  <polyline class="st1" points="-1926.74 -2353.99 -1918.91 -2353.99 -1889.2 -2354.6"/>
  <polyline class="st1" points="-1928.14 -2415.02 -1900.44 -2404.18 -1873.34 -2394.34"/>
  <polyline class="st1" points="-1791.44 -2356 -1767.35 -2418.63 -1755.31 -2449.75 -1750.09 -2466.81"/>
  <polyline class="st1" points="-1795.45 -2192.2 -1791.64 -2217.69 -1784.62 -2232.55 -1778.99 -2246.6 -1779.4 -2258.64 -1781.2 -2272.09 -1786.62 -2294.98 -1790.24 -2309.03 -1791.44 -2328.9 -1791.44 -2356"/>
  <polyline class="st1" points="-1584.68 -2270.89 -1590.7 -2286.55 -1593.71 -2292.37 -1598.33 -2296.38 -1602.75 -2298.39 -1608.77 -2299.6 -1615.8 -2299.6 -1697.5 -2298.39 -1738.04 -2297.79 -1776.59 -2297.39 -1786.62 -2294.98"/>
  <polyline class="st1" points="-1839.22 -2191.8 -1838.01 -2203.24 -1833.39 -2219.5 -1824.96 -2241.58 -1818.94 -2258.04 -1817.94 -2268.48"/>
  <polyline class="st1" points="-1917.1 -2200.43 -1903.85 -2193.61 -1893.41 -2191.4 -1882.17 -2191.8 -1839.22 -2191.8 -1795.45 -2192.2 -1751.09 -2193.2 -1704.52 -2194.01 -1645.1 -2194.81 -1633.46 -2199.03 -1622.62 -2207.86 -1606.36 -2225.72 -1601.94 -2236.16 -1601.74 -2246.2 -1606.56 -2259.25"/>
  <polyline class="st1" points="-1929.55 -2693.24 -1914.89 -2687.22 -1861.9 -2664.33 -1831.59 -2653.09 -1808.7 -2643.66 -1806.29 -2642.65 -1787.83 -2635.23 -1785.22 -2633.42 -1782.81 -2631.21"/>
  <line class="st1" x1="-2038.15" y1="-2675.57" x2="-1929.75" y2="-2677.98"/>
  <polyline class="st1" points="-1738.04 -2297.79 -1737.64 -2248.21 -1739.25 -2236.76 -1748.68 -2213.28 -1750.89 -2205.25 -1751.09 -2193.2"/>
  <line class="st1" x1="-1511.81" y1="-2364.63" x2="-1543.73" y2="-2364.43"/>
  <line class="st1" x1="-1478.09" y1="-2365.04" x2="-1537.51" y2="-2364.43"/>
  <polyline class="st1" points="-1726.6 -2542.49 -1727.2 -2537.27 -1726.8 -2486.08 -1726.6 -2448.94"/>
  <polyline class="st1" points="-1755.31 -2449.75 -1748.88 -2448.94 -1726.6 -2448.94 -1700.91 -2449.55 -1676.62 -2450.35 -1652.13 -2450.95 -1626.23 -2451.35"/>
  <polyline class="st1" points="-1602.15 -2451.75 -1566.21 -2451.55 -1534.5 -2451.15"/>
  <line class="st1" x1="-1626.23" y1="-2451.35" x2="-1602.15" y2="-2451.75"/>
  <polyline class="st1" points="-1909.67 -2544.49 -1884.98 -2604.91 -1876.35 -2627 -1861.9 -2664.33"/>
  <polyline class="st1" points="-2038.35 -2730.38 -2038.15 -2675.57 -2037.34 -2621.78 -2036.94 -2604.51"/>
  <polyline class="st1" points="-1748.88 -2486.28 -1750.09 -2466.81 -1748.88 -2448.94"/>
  <polyline class="st1" points="-1596.12 -2836.36 -1616 -2836.16 -1632.46 -2835.56 -1669.79 -2743.42 -1690.27 -2690.83 -1693.48 -2680.79 -1693.08 -2643.05 -1694.28 -2635.63 -1702.11 -2625.99 -1703.32 -2620.97 -1702.71 -2587.05 -1702.31 -2541.08 -1700.71 -2486.48 -1700.91 -2449.55 -1701.31 -2423.65 -1701.31 -2413.61"/>
  <polyline class="st1" points="-1748.88 -2448.94 -1748.88 -2413.21 -1749.29 -2356.2"/>
  <line class="st1" x1="-1700.91" y1="-2356.8" x2="-1701.31" y2="-2413.61"/>
  <polyline class="st1" points="-1900.44 -2404.18 -1877.36 -2462.59 -1867.12 -2488.49 -1864.31 -2495.71 -1853.67 -2522.81 -1845.24 -2544.09 -1829.98 -2582.83 -1806.29 -2642.65"/>
  <polyline class="st1" points="-1701.31 -2413.61 -1677.22 -2413.81 -1674.41 -2414.01 -1651.73 -2414.22 -1627.04 -2414.42 -1601.74 -2414.82"/>
  <polyline class="st1" points="-1928.74 -2483.47 -1923.32 -2481.06 -1915.29 -2477.85 -1905.06 -2473.63 -1877.36 -2462.59 -1851.26 -2451.95"/>
  <polyline class="st1" points="-1601.74 -2414.82 -1567.42 -2413.01 -1540.12 -2411.61 -1511.81 -2411.61"/>
  <line class="st1" x1="-1537.51" y1="-2411.61" x2="-1477.69" y2="-2411.81"/>
  <polyline class="st1" points="-1821.15 -2440.31 -1794.85 -2429.67 -1767.35 -2418.63 -1756.51 -2414.62 -1748.88 -2413.21 -1701.31 -2413.61"/>
  <polyline class="st1" points="-1817.94 -2268.48 -1809.71 -2268.88 -1799.27 -2269.69 -1781.2 -2272.09"/>
  <polyline class="st1" points="-1882.17 -2191.8 -1881.57 -2200.23 -1869.33 -2235.56 -1860.09 -2260.45 -1852.46 -2265.67 -1844.84 -2268.08 -1817.94 -2268.48"/>
  <polyline class="st1" points="-1511.81 -2273.3 -1572.44 -2272.7 -1577.86 -2272.29 -1584.68 -2270.89 -1606.56 -2259.25 -1619.41 -2254.43 -1630.25 -2252.02 -1644.7 -2252.82 -1653.53 -2254.83 -1664.37 -2255.83 -1696.89 -2255.43"/>
  <line class="st1" x1="-1477.29" y1="-2273.5" x2="-1537.51" y2="-2272.9"/>
  <polyline class="st1" points="-1697.5 -2298.39 -1696.89 -2255.43 -1697.09 -2236.16 -1704.12 -2206.65 -1704.52 -2194.01"/>
  <line class="st1" x1="-2085.92" y1="-2731.78" x2="-2084.72" y2="-2603.91"/>
  <polyline class="st1" points="-1928.74 -2551.32 -1909.67 -2544.49 -1881.37 -2533.65 -1853.67 -2522.81 -1827.97 -2512.58 -1825.77 -2511.57"/>
  <polyline class="st1" points="-1797.06 -2499.93 -1770.36 -2492.1 -1748.88 -2486.28"/>
  <polyline class="st1" points="-1603.15 -2581.23 -1603.15 -2542.29 -1602.95 -2487.68 -1602.15 -2451.75 -1601.74 -2414.82"/>
  <polyline class="st1" points="-1825.57 -2355.8 -1816.73 -2376.88 -1794.85 -2429.67 -1770.36 -2492.1"/>
  <polyline class="st1" points="-1761.93 -2586.85 -1702.71 -2587.05 -1677.42 -2587.05 -1652.93 -2587.45 -1628.44 -2587.45 -1607.57 -2587.25"/>
  <polyline class="st1" points="-1772.97 -2559.35 -1781.4 -2538.47 -1797.06 -2499.93"/>
  <polyline class="st1" points="-1889.2 -2354.6 -1873.34 -2394.34 -1851.26 -2451.95 -1827.97 -2512.58 -1803.89 -2572.4 -1782.61 -2625.59 -1782.21 -2628.6 -1782.81 -2631.21"/>
  <polyline class="st1" points="-1596.12 -2836.36 -1593.51 -2706.69 -1593.71 -2652.49"/>
  <polyline class="st1" points="-1628.44 -2587.45 -1627.84 -2542.08 -1626.43 -2487.28 -1626.23 -2451.35"/>
  <line class="st1" x1="-1626.23" y1="-2451.35" x2="-1627.04" y2="-2414.42"/>
  <polyline class="st1" points="-1797.06 -2499.93 -1821.15 -2440.31 -1855.27 -2355.4 -1871.33 -2315.25 -1873.74 -2309.03 -1917.1 -2200.43 -1923.32 -2185.98 -1927.54 -2170.72 -1928.14 -2150.85 -1923.73 -2122.34 -1919.31 -2102.47 -1917.1 -2087.82 -1916.5 -2064.93 -1919.11 -2046.67 -1923.73 -2028.8 -1924.13 -2022.58"/>
  <polyline class="st1" points="-1761.93 -2586.85 -1746.48 -2627.2 -1728.41 -2670.76"/>
  <line class="st1" x1="-1643.5" y1="-2653.09" x2="-1593.71" y2="-2652.49"/>
  <line class="st1" x1="-1511.81" y1="-2318.87" x2="-1543.13" y2="-2318.66"/>
  <polyline class="st1" points="-1477.69 -2316.06 -1483.91 -2315.85 -1496.96 -2318.87 -1537.51 -2318.66"/>
  <polyline class="st1" points="-1677.42 -2587.05 -1676.82 -2541.28 -1676.42 -2513.58 -1676.02 -2486.68"/>
  <line class="st1" x1="-1701.31" y1="-2423.65" x2="-1677.22" y2="-2423.45"/>
  <line class="st1" x1="-1864.31" y1="-2495.71" x2="-1891.61" y2="-2507.76"/>
  <line class="st1" x1="-1791.44" y1="-2328.9" x2="-1799.47" y2="-2328.1"/>
  <line class="st1" x1="-1894.62" y1="-2500.13" x2="-1867.12" y2="-2488.49"/>
  <line class="st1" x1="-1915.29" y1="-2477.85" x2="-1909.07" y2="-2494.11"/>
  <line class="st1" x1="-1923.32" y1="-2481.06" x2="-1920.11" y2="-2496.52"/>
  <polyline class="st1" points="-2102.38 -2468.41 -2110.01 -2468.01 -2112.02 -2466.21 -2111.82 -2450.15"/>
  <polyline class="st1" points="-2107.6 -2491.5 -2095.56 -2491.9 -2093.75 -2489.89 -2093.35 -2453.56 -2094.35 -2451.35 -2104.79 -2450.95"/>
  <polyline class="st1" points="-1846.24 -2621.58 -1854.07 -2621.98 -1856.48 -2620.97"/>
  <polyline class="st1" points="-1856.48 -2620.97 -1855.68 -2618.97 -1853.87 -2616.96 -1849.85 -2612.94"/>
  <polyline class="st1" points="-1868.52 -2598.29 -1860.09 -2617.76 -1858.49 -2619.37 -1856.48 -2620.97"/>
  <line class="st1" x1="-1872.74" y1="-2556.14" x2="-1845.24" y2="-2544.09"/>
  <line class="st1" x1="-1856.48" y1="-2620.97" x2="-1876.35" y2="-2627"/>
  <polyline class="st1" points="-1571.43 -2542.69 -1571.63 -2550.52 -1572.04 -2551.32 -1573.04 -2552.12 -1588.29 -2551.72 -1590.7 -2550.92 -1592.11 -2549.71 -1592.91 -2548.31 -1593.11 -2542.29"/>
  <polyline class="st1" points="-1971.7 -2348.98 -1967.29 -2350.38 -1965.88 -2352.19 -1963.87 -2356.8 -1961.06 -2363.43 -1959.46 -2366.84 -1958.45 -2371.26 -1954.64 -2381.09 -1954.24 -2385.71 -1954.64 -2392.74"/>
  <polyline class="st1" points="-1566.41 -2488.09 -1566.21 -2451.55 -1567.42 -2413.01"/>
  <polyline class="st1" points="-1914.89 -2687.22 -1914.89 -2703.08 -1917.1 -2705.28 -1919.51 -2708.9 -1920.11 -2711.71 -1914.09 -2727.56 -1914.69 -2729.57 -1916.1 -2730.78 -1924.73 -2733.79 -1929.75 -2732.58"/>
  <polyline class="st1" points="-1676.02 -2486.68 -1676.62 -2483.07 -1676.42 -2458.98 -1676.62 -2450.35"/>
  <polyline class="st1" points="-1677.22 -2413.81 -1677.22 -2426.26 -1676.42 -2431.08 -1676.62 -2450.35"/>
  <polyline class="st1" points="-1889.8 -2512.38 -1899.24 -2516.19 -1908.07 -2519.4 -1912.08 -2520.81 -1914.09 -2522.21 -1914.69 -2525.02 -1914.49 -2528.03 -1913.49 -2532.45 -1911.08 -2539.47 -1909.67 -2544.49"/>
  <polyline class="st1" points="-2106.6 -2346.37 -2108.8 -2351.18 -2115.63 -2363.03 -2117.64 -2369.45 -2118.64 -2377.48 -2118.44 -2395.35 -2118.44 -2421.84 -2119.04 -2437.3 -2117.44 -2441.31 -2114.83 -2443.52 -2110.21 -2443.92 -2068.86 -2443.52 -1990.17 -2445.13 -1928.34 -2446.13"/>
  <polyline class="st1" points="-1810.51 -2684.61 -1805.49 -2682.2 -1793.45 -2676.58"/>
  <polyline class="st1" points="-1928.74 -2495.31 -1920.11 -2496.52 -1916.1 -2496.92 -1909.07 -2494.11 -1898.63 -2489.89"/>
  <line class="st1" x1="-1676.42" y1="-2513.58" x2="-1651.73" y2="-2513.78"/>
  <polyline class="st1" points="-1928.74 -2479.25 -1958.45 -2479.45 -1958.65 -2508.16 -1928.94 -2508.56"/>
  <polyline class="st1" points="-1537.51 -2543.09 -1538.31 -2560.55 -1539.92 -2598.09 -1547.34 -2609.53 -1547.55 -2617.56 -1527.07 -2618.36 -1524.86 -2617.36 -1523.86 -2600.3 -1529.88 -2559.35 -1516.43 -2557.14 -1516.23 -2543.29"/>
  <polyline class="st1" points="-1537.51 -2617.96 -1527.07 -2618.36 -1524.86 -2617.36 -1523.86 -2600.3 -1529.88 -2559.35 -1516.43 -2557.14 -1516.23 -2543.29"/>
  <line class="st1" x1="-1529.88" y1="-2559.35" x2="-1538.31" y2="-2560.55"/>
  <polyline class="st1" points="-2166.21 -2448.54 -2141.52 -2448.94 -2114.83 -2449.75 -2111.82 -2450.15 -2104.79 -2450.95 -2102.18 -2454.16 -2101.98 -2461.19 -2102.38 -2468.41 -2103.38 -2484.07 -2104.79 -2489.89 -2107.6 -2491.5 -2112.82 -2492.1 -2120.05 -2492.1 -2127.87 -2493.31 -2133.49 -2496.32 -2142.13 -2500.53 -2146.14 -2502.14 -2147.35 -2502.34 -2160.19 -2502.34 -2164.01 -2501.34 -2166.01 -2499.33 -2167.22 -2497.12 -2167.02 -2489.89 -2166.21 -2448.54"/>
  <polyline class="st1" points="-1816.13 -2710.1 -1811.92 -2720.34 -1804.29 -2741.01"/>
  <polyline class="st1" points="-1795.86 -2701.47 -1810.31 -2707.49 -1816.13 -2710.1 -1833.59 -2717.33"/>
  <line class="st1" x1="-1567.02" y1="-2542.69" x2="-1567.02" y2="-2488.09"/>
  <line class="st1" x1="-1781.4" y1="-2538.47" x2="-1765.75" y2="-2532.45"/>
  <polyline class="st1" points="-1948.82 -2364.63 -1957.65 -2366.84 -1959.46 -2366.84 -1991.77 -2365.24"/>
  <line class="st1" x1="-1808.7" y1="-2643.66" x2="-1801.68" y2="-2662.33"/>
  <polyline class="st1" points="-1800.47 -2665.74 -1799.07 -2669.75 -1797.66 -2670.36 -1780.4 -2663.53"/>
  <line class="st1" x1="-1801.68" y1="-2662.33" x2="-1800.47" y2="-2665.74"/>
  <polyline class="st1" points="-1873.74 -2309.03 -1867.92 -2307.02 -1861.9 -2306.02 -1844.84 -2305.01"/>
  <line class="st1" x1="-1511.81" y1="-2364.63" x2="-1543.73" y2="-2364.43"/>
  <line class="st1" x1="-1478.09" y1="-2365.04" x2="-1537.51" y2="-2364.43"/>
  <polyline class="st1" points="-1601.74 -2414.82 -1567.42 -2413.01 -1540.12 -2411.61 -1511.81 -2411.61"/>
  <line class="st1" x1="-1537.51" y1="-2411.61" x2="-1477.69" y2="-2411.81"/>
  <polyline class="st1" points="-1511.81 -2273.3 -1572.44 -2272.7 -1577.86 -2272.29 -1584.68 -2270.89 -1606.56 -2259.25 -1619.41 -2254.43 -1630.25 -2252.02 -1644.7 -2252.82 -1653.53 -2254.83 -1664.37 -2255.83 -1696.89 -2255.43"/>
  <line class="st1" x1="-1477.29" y1="-2273.5" x2="-1537.51" y2="-2272.9"/>
  <polyline class="st1" points="-1511.81 -2661.92 -1513.62 -2662.33 -1517.03 -2662.33 -1543.53 -2661.52 -1546.34 -2662.53"/>
  <polyline class="st1" points="-1509.81 -2661.32 -1513.62 -2662.33 -1517.03 -2662.33 -1537.51 -2661.72"/>
  <polyline class="st1" points="-1517.03 -2662.33 -1517.03 -2708.29 -1518.24 -2825.93 -1518.24 -2831.55"/>
  <line class="st1" x1="-1511.81" y1="-2318.87" x2="-1543.13" y2="-2318.66"/>
  <polyline class="st1" points="-1477.69 -2316.06 -1483.91 -2315.85 -1496.96 -2318.87 -1537.51 -2318.66"/>
  <polyline class="st1" points="-1748.88 -2486.28 -1726.8 -2486.08 -1700.71 -2486.48 -1676.02 -2486.68 -1651.53 -2487.08 -1626.43 -2487.28 -1602.95 -2487.68 -1567.62 -2488.09 -1566.41 -2488.09 -1511.81 -2488.69"/>
  <polyline class="st1" points="-1537.51 -2488.49 -1495.76 -2488.89 -1477.69 -2489.09 -1318.71 -2490.9 -1209.1 -2492.3"/>
  <polyline class="st1" points="-1492.74 -2599.5 -1493.55 -2602.31 -1494.35 -2608.93 -1494.95 -2610.74 -1497.76 -2611.54 -1503.58 -2611.14 -1505.99 -2612.34 -1507.2 -2614.95 -1507.6 -2658.51 -1509.81 -2661.32"/>
  <line class="st1" x1="-1441.96" y1="-2710.5" x2="-1517.03" y2="-2708.29"/>
  <polyline class="st1" points="-1537.51 -2543.09 -1538.31 -2560.55 -1539.92 -2598.09 -1547.34 -2609.53 -1547.55 -2617.56 -1527.07 -2618.36 -1524.86 -2617.36 -1523.86 -2600.3 -1529.88 -2559.35 -1516.43 -2557.14 -1516.23 -2543.29"/>
  <polyline class="st1" points="-1537.51 -2617.96 -1527.07 -2618.36 -1524.86 -2617.36 -1523.86 -2600.3 -1529.88 -2559.35 -1516.43 -2557.14 -1516.23 -2543.29"/>
  <line class="st2" x1="-1776.99" y1="-2560.95" x2="-1801.08" y2="-2570.99"/>
  <polyline class="st2" points="-1726.6 -2542.49 -1736.44 -2545.1 -1746.27 -2548.51 -1760.53 -2554.33"/>
  <polyline class="st2" points="-1801.08 -2570.99 -1803.89 -2572.4 -1816.93 -2577.61"/>
  <polyline class="st2" points="-1511.81 -2543.29 -1516.23 -2543.29 -1537.51 -2543.09 -1567.02 -2542.69 -1571.43 -2542.69 -1593.11 -2542.29 -1603.15 -2542.29 -1627.84 -2542.08 -1651.73 -2541.68 -1676.82 -2541.28 -1702.31 -2541.08 -1714.36 -2541.28 -1726.6 -2542.49"/>
  <polyline class="st2" points="-1208.9 -2544.29 -1267.12 -2545.3 -1376.12 -2544.89 -1380.73 -2545.1 -1496.56 -2543.49 -1516.23 -2543.29 -1537.51 -2543.09"/>
  <polyline class="st2" points="-1760.53 -2554.33 -1772.97 -2559.35 -1776.99 -2560.95"/>
  <line class="st2" x1="-1816.93" y1="-2577.61" x2="-1829.98" y2="-2582.83"/>
  <line class="st2" x1="-1829.98" y1="-2582.83" x2="-1857.68" y2="-2594.08"/>
  <polyline class="st2" points="-1903.45 -2612.74 -1907.87 -2616.36 -1912.08 -2617.56 -1914.69 -2618.97 -1917.3 -2621.17 -1917.7 -2621.58 -1918.91 -2623.38"/>
  <polyline class="st2" points="-1920.91 -2627 -1923.12 -2632.42 -1924.93 -2637.23 -1926.13 -2640.85 -1928.14 -2643.05"/>
  <polyline class="st2" points="-1928.14 -2643.05 -1928.94 -2639.64 -1928.54 -2635.43 -1928.54 -2632.42 -1929.15 -2629.81 -1929.55 -2627.4"/>
  <polyline class="st2" points="-1922.52 -2616.36 -1920.91 -2617.56 -1919.71 -2619.17 -1918.91 -2621.17 -1918.91 -2623.38 -1919.71 -2625.39 -1920.91 -2627 -1922.52 -2628.4 -1924.73 -2629 -1926.94 -2628.8 -1928.94 -2628 -1929.55 -2627.4 -1930.75 -2626.39 -1931.75 -2624.39 -1932.16 -2622.18 -1931.75 -2619.97 -1931.35 -2619.17 -1930.55 -2617.96 -1928.94 -2616.56 -1926.74 -2615.75 -1924.73 -2615.75 -1924.13 -2615.96 -1922.52 -2616.36"/>
  <polyline class="st2" points="-1930.55 -2850.42 -1930.35 -2825.12 -1930.15 -2783.57 -1929.75 -2732.58 -1929.55 -2693.24 -1929.75 -2677.98 -1929.75 -2656.1 -1929.15 -2649.28 -1928.14 -2643.05"/>
  <polyline class="st2" points="-1857.68 -2594.08 -1868.52 -2598.29 -1884.98 -2604.91 -1903.45 -2612.74"/>
  <polyline class="st2" points="-1922.52 -2616.36 -1918.71 -2615.96 -1914.29 -2614.95 -1909.07 -2613.35 -1903.45 -2612.74"/>
  <polyline class="st2" points="-1511.81 -2543.29 -1516.23 -2543.29 -1537.51 -2543.09 -1567.02 -2542.69 -1571.43 -2542.69 -1593.11 -2542.29 -1603.15 -2542.29 -1627.84 -2542.08 -1651.73 -2541.68 -1676.82 -2541.28 -1702.31 -2541.08 -1714.36 -2541.28 -1726.6 -2542.49"/>
  <polyline class="st2" points="-1208.9 -2544.29 -1267.12 -2545.3 -1376.12 -2544.89 -1380.73 -2545.1 -1496.56 -2543.49 -1516.23 -2543.29 -1537.51 -2543.09"/>
  <polyline class="st3" points="-1915.7 -2446.73 -1905.06 -2473.63 -1898.63 -2489.89 -1894.62 -2500.13 -1891.61 -2507.76 -1889.8 -2512.38 -1886.99 -2519.4"/>
  <polyline class="st3" points="-1846.24 -2621.58 -1840.62 -2634.82 -1831.59 -2653.09 -1815.73 -2678.99 -1810.51 -2684.61 -1804.89 -2691.03 -1795.86 -2701.47 -1783.61 -2715.72 -1764.14 -2735.8 -1757.92 -2742.02 -1747.28 -2753.06 -1734.43 -2766.11 -1727.41 -2778.15 -1722.39 -2786.38 -1718.97 -2794.81"/>
  <polyline class="st3" points="-1958.85 -2177.15 -1964.27 -2189.79 -1971.5 -2206.85 -1978.33 -2238.37 -1977.92 -2279.92 -1970.9 -2309.03 -1948.82 -2364.63 -1945.61 -2373.06 -1937.38 -2392.74"/>
  <line class="st3" x1="-1849.85" y1="-2612.94" x2="-1848.05" y2="-2617.36"/>
  <line class="st3" x1="-1857.68" y1="-2594.08" x2="-1849.85" y2="-2612.94"/>
  <polyline class="st3" points="-1937.38 -2392.74 -1928.14 -2415.02 -1923.12 -2428.07"/>
  <polyline class="st3" points="-1886.99 -2519.4 -1881.37 -2533.65 -1872.74 -2556.14 -1857.68 -2594.08"/>
  <line class="st3" x1="-1848.05" y1="-2617.36" x2="-1846.24" y2="-2621.58"/>
  <line class="st3" x1="-1923.12" y1="-2428.07" x2="-1915.7" y2="-2446.73"/>
  <polyline class="st3" points="-1915.7 -2446.73 -1905.06 -2473.63 -1898.63 -2489.89 -1894.62 -2500.13 -1891.61 -2507.76 -1889.8 -2512.38 -1886.99 -2519.4"/>
  <polyline class="st3" points="-1846.24 -2621.58 -1840.62 -2634.82 -1831.59 -2653.09 -1815.73 -2678.99 -1810.51 -2684.61 -1804.89 -2691.03 -1795.86 -2701.47 -1783.61 -2715.72 -1764.14 -2735.8 -1757.92 -2742.02 -1747.28 -2753.06 -1734.43 -2766.11 -1727.41 -2778.15 -1722.39 -2786.38 -1718.97 -2794.81"/>
  <polyline class="st3" points="-1958.85 -2177.15 -1964.27 -2189.79 -1971.5 -2206.85 -1978.33 -2238.37 -1977.92 -2279.92 -1970.9 -2309.03 -1948.82 -2364.63 -1945.61 -2373.06 -1937.38 -2392.74"/>
  <line class="st3" x1="-1849.85" y1="-2612.94" x2="-1848.05" y2="-2617.36"/>
  <line class="st3" x1="-1857.68" y1="-2594.08" x2="-1849.85" y2="-2612.94"/>
  <polyline class="st3" points="-1937.38 -2392.74 -1928.14 -2415.02 -1923.12 -2428.07"/>
  <polyline class="st3" points="-1886.99 -2519.4 -1881.37 -2533.65 -1872.74 -2556.14 -1857.68 -2594.08"/>
  <line class="st3" x1="-1848.05" y1="-2617.36" x2="-1846.24" y2="-2621.58"/>
  <line class="st3" x1="-1923.12" y1="-2428.07" x2="-1915.7" y2="-2446.73"/>
  <path id="railway" class="st8" d="M-2005.83-2022.58l1.61-4.22,131.48-333.82,55.6-139.51,50.18-125.86,97.56-244.5"/>
  <path id="bridge_x5F_minor_case" class="st7" d="M-1825.77-2511.57l25.09,10.24"/>
  <path id="bridge_minor" class="st1" d="M-1825.77-2511.57l25.09,10.24"/>
  <path id="bridge_major" class="st3" d="M-1776.99-2560.95l-24.09-10.04"/>
  <text class="st12" transform="translate(-1894.72 -2487.77) rotate(-68.95)"><tspan x="0" y="0">S GOVERNORS HIGHWAY</tspan></text>
  <text class="st6" transform="translate(-1894.72 -2487.77) rotate(-68.95)"><tspan x="0" y="0">S GOVERNORS HIGHWAY</tspan></text>
  <text class="st13" transform="translate(-1894.72 -2487.77) rotate(-68.95)"><tspan x="0" y="0">S GOVERNORS HIGHWAY</tspan></text>
  <text class="st12" transform="translate(-1554.45 -2787) rotate(89.58)"><tspan x="0" y="0">SHINECOCK AVE.</tspan></text>
  <text class="st6" transform="translate(-1554.45 -2787) rotate(89.58)"><tspan x="0" y="0">SHINECOCK AVE.</tspan></text>
  <text class="st13" transform="translate(-1554.45 -2787) rotate(89.58)"><tspan x="0" y="0">SHINECOCK AVE.</tspan></text>
  <text class="st12" transform="translate(-2090.68 -2706.61) rotate(89.46)"><tspan x="0" y="0">S MCKINLEY ST.</tspan></text>
  <text class="st6" transform="translate(-2090.68 -2706.61) rotate(89.46)"><tspan x="0" y="0">S MCKINLEY ST.</tspan></text>
  <text class="st13" transform="translate(-2090.68 -2706.61) rotate(89.46)"><tspan x="0" y="0">S MCKINLEY ST.</tspan></text>
  <text class="st12" transform="translate(-1600.18 -2789.53) rotate(88.85)"><tspan x="0" y="0">S MCCORKLE AVE.</tspan></text>
  <text class="st6" transform="translate(-1600.18 -2789.53) rotate(88.85)"><tspan x="0" y="0">S MCCORKLE AVE.</tspan></text>
  <text class="st13" transform="translate(-1600.18 -2789.53) rotate(88.85)"><tspan x="0" y="0">S MCCORKLE AVE.</tspan></text>
  <text class="st12" transform="translate(-1846.8 -2452.32) rotate(-68.99)"><tspan x="0" y="0">S CHESTNUT RD.</tspan></text>
  <text class="st6" transform="translate(-1846.8 -2452.32) rotate(-68.99)"><tspan x="0" y="0">S CHESTNUT RD.</tspan></text>
  <text class="st13" transform="translate(-1846.8 -2452.32) rotate(-68.99)"><tspan x="0" y="0">S CHESTNUT RD.</tspan></text>
  <text class="st12" transform="translate(-1890.41 -2669.95) rotate(20.39)"><tspan x="0" y="0">W WILSON ST.</tspan></text>
  <text class="st6" transform="translate(-1890.41 -2669.95) rotate(20.39)"><tspan x="0" y="0">W WILSON ST.</tspan></text>
  <text class="st13" transform="translate(-1890.41 -2669.95) rotate(20.39)"><tspan x="0" y="0">W WILSON ST.</tspan></text>
  <text class="st12" transform="translate(-1705.97 -2409.24) rotate(-.51)"><tspan x="0" y="0">W MARGARET ST.</tspan></text>
  <text class="st6" transform="translate(-1705.97 -2409.24) rotate(-.51)"><tspan x="0" y="0">W MARGARET ST.</tspan></text>
  <text class="st13" transform="translate(-1705.97 -2409.24) rotate(-.51)"><tspan x="0" y="0">W MARGARET ST.</tspan></text>
  <text class="st12" transform="translate(-1634.96 -2239.31) rotate(-28.02)"><tspan x="0" y="0">WEST PARK LANE</tspan></text>
  <text class="st6" transform="translate(-1634.96 -2239.31) rotate(-28.02)"><tspan x="0" y="0">WEST PARK LANE</tspan></text>
  <text class="st13" transform="translate(-1634.96 -2239.31) rotate(-28.02)"><tspan x="0" y="0">WEST PARK LANE</tspan></text>
  <text class="st12" transform="translate(-1720.93 -2293.55) rotate(-.85)"><tspan x="0" y="0">W MULBERRY LN.</tspan></text>
  <text class="st6" transform="translate(-1720.93 -2293.55) rotate(-.85)"><tspan x="0" y="0">W MULBERRY LN.</tspan></text>
  <text class="st13" transform="translate(-1720.93 -2293.55) rotate(-.85)"><tspan x="0" y="0">W MULBERRY LN.</tspan></text>
  <text class="st12" transform="translate(-2018.78 -2671.51) rotate(-1.27)"><tspan x="0" y="0">W WILSON ST.</tspan></text>
  <text class="st6" transform="translate(-2018.78 -2671.51) rotate(-1.27)"><tspan x="0" y="0">W WILSON ST.</tspan></text>
  <text class="st13" transform="translate(-2018.78 -2671.51) rotate(-1.27)"><tspan x="0" y="0">W WILSON ST.</tspan></text>
  <text class="st12" transform="translate(-1898.5 -2236.15) rotate(-68.24)"><tspan x="0" y="0">S OAK ST.</tspan></text>
  <text class="st6" transform="translate(-1898.5 -2236.15) rotate(-68.24)"><tspan x="0" y="0">S OAK ST.</tspan></text>
  <text class="st13" transform="translate(-1898.5 -2236.15) rotate(-68.24)"><tspan x="0" y="0">S OAK ST.</tspan></text>
  <text class="st12" transform="translate(-1751.04 -2605.19) rotate(-67.9)"><tspan x="0" y="0">S OAK ST.</tspan></text>
  <text class="st6" transform="translate(-1751.04 -2605.19) rotate(-67.9)"><tspan x="0" y="0">S OAK ST.</tspan></text>
  <text class="st13" transform="translate(-1751.04 -2605.19) rotate(-67.9)"><tspan x="0" y="0">S OAK ST.</tspan></text>
  <text class="st12" transform="translate(-1786.79 -2297.44) rotate(-91.1)"><tspan x="0" y="0">S LOCUST PL.</tspan></text>
  <text class="st6" transform="translate(-1786.79 -2297.44) rotate(-91.1)"><tspan x="0" y="0">S LOCUST PL.</tspan></text>
  <text class="st13" transform="translate(-1786.79 -2297.44) rotate(-91.1)"><tspan x="0" y="0">S LOCUST PL.</tspan></text>
  <text class="st12" transform="translate(-1892.97 -2574.16) rotate(-68.15)"><tspan x="0" y="0">S ELDER LN.</tspan></text>
  <text class="st6" transform="translate(-1892.97 -2574.16) rotate(-68.15)"><tspan x="0" y="0">S ELDER LN.</tspan></text>
  <text class="st13" transform="translate(-1892.97 -2574.16) rotate(-68.15)"><tspan x="0" y="0">S ELDER LN.</tspan></text>
  <text class="st12" transform="translate(-1922.5 -2251.23) rotate(-90.13)"><tspan x="0" y="0">S EGYPTIAN TRAIL</tspan></text>
  <text class="st6" transform="translate(-1922.5 -2251.23) rotate(-90.13)"><tspan x="0" y="0">S EGYPTIAN TRAIL</tspan></text>
  <text class="st13" transform="translate(-1922.5 -2251.23) rotate(-90.13)"><tspan x="0" y="0">S EGYPTIAN TRAIL</tspan></text>
  <text class="st12" transform="translate(-1608.15 -2543.04) rotate(89.79)"><tspan x="0" y="0">S EASTGATE AVE.</tspan></text>
  <text class="st6" transform="translate(-1608.15 -2543.04) rotate(89.79)"><tspan x="0" y="0">S EASTGATE AVE.</tspan></text>
  <text class="st13" transform="translate(-1608.15 -2543.04) rotate(89.79)"><tspan x="0" y="0">S EASTGATE AVE.</tspan></text>
  <text class="st12" transform="translate(-1715.01 -2582.52) rotate(-.06)"><tspan x="0" y="0">W ASTOR PL.</tspan></text>
  <text class="st5" transform="translate(-1715.01 -2582.52) rotate(-.06)"><tspan x="0" y="0">W ASTOR PL.</tspan></text>
  <text class="st13" transform="translate(-1715.01 -2582.52) rotate(-.06)"><tspan x="0" y="0">W ASTOR PL.</tspan></text>
  <text class="st12" transform="translate(-1793.14 -2422.98) rotate(-68.58)"><tspan x="0" y="0">S LYNNE ST.</tspan></text>
  <text class="st6" transform="translate(-1793.14 -2422.98) rotate(-68.58)"><tspan x="0" y="0">S LYNNE ST.</tspan></text>
  <text class="st13" transform="translate(-1793.14 -2422.98) rotate(-68.58)"><tspan x="0" y="0">S LYNNE ST.</tspan></text>
  <text class="st12" transform="translate(-1755.01 -2486.37) rotate(88.33)"><tspan x="0" y="0">S COMPASS LN.</tspan></text>
  <text class="st6" transform="translate(-1755.01 -2486.37) rotate(88.33)"><tspan x="0" y="0">S COMPASS LN.</tspan></text>
  <text class="st13" transform="translate(-1755.01 -2486.37) rotate(88.33)"><tspan x="0" y="0">S COMPASS LN.</tspan></text>
  <text class="st12" transform="translate(-1860.45 -2494.65) rotate(-68.46)"><tspan x="0" y="0">S BRIAR LN.</tspan></text>
  <text class="st6" transform="translate(-1860.45 -2494.65) rotate(-68.46)"><tspan x="0" y="0">S BRIAR LN.</tspan></text>
  <text class="st13" transform="translate(-1860.45 -2494.65) rotate(-68.46)"><tspan x="0" y="0">S BRIAR LN.</tspan></text>
  <text class="st12" transform="translate(-1678.57 -2482.27) rotate(-.67)"><tspan x="0" y="0">W MAIN ST.</tspan></text>
  <text class="st6" transform="translate(-1678.57 -2482.27) rotate(-.67)"><tspan x="0" y="0">W MAIN ST.</tspan></text>
  <text class="st13" transform="translate(-1678.57 -2482.27) rotate(-.67)"><tspan x="0" y="0">W MAIN ST.</tspan></text>
  <text class="st12" transform="translate(-1684.08 -2445.96) rotate(-.89)"><tspan x="0" y="0">W HERBERT PL.</tspan></text>
  <text class="st6" transform="translate(-1684.08 -2445.96) rotate(-.89)"><tspan x="0" y="0">W HERBERT PL.</tspan></text>
  <text class="st13" transform="translate(-1684.08 -2445.96) rotate(-.89)"><tspan x="0" y="0">W HERBERT PL.</tspan></text>
  <text class="st12" transform="translate(-2043.42 -2694.05) rotate(89.14)"><tspan x="0" y="0">S POLK ST.</tspan></text>
  <text class="st6" transform="translate(-2043.42 -2694.05) rotate(89.14)"><tspan x="0" y="0">S POLK ST.</tspan></text>
  <text class="st13" transform="translate(-2043.42 -2694.05) rotate(89.14)"><tspan x="0" y="0">S POLK ST.</tspan></text>
  <text class="st12" transform="translate(-1934.27 -2570.88) rotate(89.78)"><tspan x="0" y="0">S EGYPTIAN TRAIL</tspan></text>
  <text class="st6" transform="translate(-1934.27 -2570.88) rotate(89.78)"><tspan x="0" y="0">S EGYPTIAN TRAIL</tspan></text>
  <text class="st13" transform="translate(-1934.27 -2570.88) rotate(89.78)"><tspan x="0" y="0">S EGYPTIAN TRAIL</tspan></text>
  <text class="st12" transform="translate(-1522.9 -2792.73) rotate(89.41)"><tspan x="0" y="0">BALTUSROL DRIVE</tspan></text>
  <text class="st6" transform="translate(-1522.9 -2792.73) rotate(89.41)"><tspan x="0" y="0">BALTUSROL DRIVE</tspan></text>
  <text class="st13" transform="translate(-1522.9 -2792.73) rotate(89.41)"><tspan x="0" y="0">BALTUSROL DRIVE</tspan></text>
  <rect class="st15" x="-2009.49" y="-2605.43" width="63.77" height="37.8" rx="-1264.92" ry="-1264.92"/>
  <path class="st9" d="M-1999.49-2605.43h43.77c5.52,0,10,4.48,10,10v17.8c0,5.52-4.48,10-10,10h-43.77c-5.52,0-10-4.48-10-10v-17.8c0-5.52,4.48-10,10-10Z"/>
  <text class="st14" transform="translate(-1998.03 -2580.93)"><tspan x="0" y="0">Monee</tspan></text>
  <rect class="st16" x="-1658.69" y="-2272.54" width="156.97" height="14"/>
  <text class="st10" transform="translate(-1654.72 -2260.54)"><tspan x="0" y="0">©</tspan></text>
  <text class="st10" transform="translate(-1643.88 -2260.54)"><tspan x="0" y="0">OpenStreetMap</tspan></text>
  <text class="st10" transform="translate(-1563.49 -2260.54)"><tspan x="0" y="0">contributors</tspan></text>
  <text class="st11" transform="translate(-2101.72 -2227.54)"><tspan x="0" y="0">Created with</tspan></text>
  <text class="st11" transform="translate(-2037.24 -2227.54)"><tspan x="0" y="0">Datawrapper</tspan></text>
</svg>