<svg xmlns="http://www.w3.org/2000/svg" xmlns:xlink="http://www.w3.org/1999/xlink" id="exportSvg" width="600" height="480"><defs/><g><g id="__svelte-dw-svg" clip-path="url(#rect-mask-4SfHMLeKlzm2TMPwYYqoC)"><clipPath id="rect-mask-4SfHMLeKlzm2TMPwYYqoC"><rect x="0" y="0" width="600" height="480"/></clipPath><g id="container-svg container-body-svg datawrapper-ipaD4-1gvfeww-svg"><g id="container-svg container-bodyTop-svg datawrapper-ipaD4-lmtz6e-svg"><g id="container-svg container-bodyCenter-svg datawrapper-ipaD4-1fgvipr-svg"><g id="chart-svg"><g id="container-inner-svg export-group-svg maplibregl-map-svg" clip-path="url(#rect-mask-N9IHSqYPaLq5Uw3eNIeaN)"><clipPath id="rect-mask-N9IHSqYPaLq5Uw3eNIeaN"><rect x="0" y="0" width="600" height="447"/></clipPath><g id="basemap-svg" clip-path="url(#rect-mask-3ReBbSKmZA4Ltrv3p6bwD)"><clipPath id="rect-mask-3ReBbSKmZA4Ltrv3p6bwD"><rect x="0" y="0" width="600" height="447"/></clipPath><rect width="600" height="447" transform="translate(0, 0)" fill="rgb(255,255,255)" id="background" style="fill: rgb(255, 255, 255);"/><path d="M31.896,184.36L34.42,185.102M31.896,184.36L34.42,185.102M24.324,180.055L24.176,182.875L19.277,184.212M28.036,156.301L26.106,167.733L24.918,172.632L24.324,180.055M31.153,153.926L28.036,156.301L24.77,151.848M24.176,182.875L29.224,183.618L31.896,184.36M33.529,151.996L30.708,149.769L29.669,148.73M33.529,151.996L30.708,149.769L29.669,148.73M42.288,157.192L39.764,156.598L37.24,155.262L33.529,151.996L31.153,153.926M43.772,157.637L39.764,156.598L37.24,155.262L33.529,151.996L31.153,153.926M46.593,158.38L43.772,157.637M31.896,184.36L34.42,185.102M31.896,184.36L34.42,185.102M33.529,151.996L30.708,149.769L29.669,148.73M33.529,151.996L30.708,149.769L29.669,148.73M55.352,160.31L46.593,158.38M63.963,162.388L60.697,161.497L55.352,160.31L54.758,169.514M42.288,157.192L39.764,156.598L37.24,155.262L33.529,151.996L31.153,153.926M43.772,157.637L39.764,156.598L37.24,155.262L33.529,151.996L31.153,153.926M34.42,185.102L36.943,185.696L38.873,186.142L41.546,186.29L43.476,185.548L47.632,182.875L54.016,178.719" stroke="rgb(231,231,231)" id="road_path" transform="translate(0.5, 0)" style="fill: none; stroke-width: 1.02578; stroke-linejoin: bevel; stroke-linecap: square; stroke-dasharray: 0.75595, 1.88988; stroke: rgb(231, 231, 231);"/><path d="M24.918,39.168L23.879,37.535L23.731,35.456L23.731,19.274L23.434,-18.583L21.949,-22.591M-2.101,121.117L-1.953,117.108L-1.062,114.881L0.868,113.1L6.212,112.506L33.38,112.655L42.288,112.655M23.285,112.655L33.38,112.655L56.985,112.655L62.033,112.506L66.041,112.655L67.377,112.655L76.285,112.506L80.59,112.358L105.086,112.358L109.243,112.506L123.792,112.506L142.2,113.1L149.772,113.248L153.483,113.694L157.64,114.881L167.29,118.444L187.332,125.719L206.78,132.845L225.486,139.822L244.34,146.503L263.046,152.887L283.83,159.864L302.387,166.693M24.918,39.168L25.957,40.355L27.442,41.246L29.372,41.84L32.044,41.988L42.288,41.988M24.918,39.168L25.957,40.355L27.442,41.246L29.372,41.84L32.044,41.988L65.299,42.137L95.436,42.434L113.399,42.285L152.444,42.285L214.351,41.691L217.617,41.691L246.27,41.988L273.289,41.84L282.048,41.988M2.501,201.878L0.274,200.987L-1.062,200.097L-2.101,198.315L-2.547,196.237L-2.844,192.971L-2.547,188.814L-2.398,159.716L-2.25,148.582L-2.25,144.87L-2.398,129.133L-2.101,121.117M42.288,203.214L40.952,203.214L23.582,203.511L18.089,203.363L9.627,202.917L4.134,202.472L2.501,201.878M155.116,210.34L153.483,206.777L151.256,205.59L148.287,204.847L145.021,204.699L120.377,204.847L109.094,204.699L80.739,204.55L77.324,204.253L73.316,203.808L70.347,203.363L65.596,203.214L56.688,203.214L47.632,203.066L40.952,203.214L23.582,203.511L23.285,203.511M29.966,148.136L31.45,144.425L32.935,141.604L34.42,139.377L38.279,135.517L40.358,134.181L42.288,133.587M29.966,148.136L31.45,144.425L32.935,141.604L34.42,139.377L38.279,135.517L40.358,134.181L42.585,133.439L45.257,132.845L48.523,132.4L50.898,131.36L52.235,130.321L52.977,128.837L53.719,126.907L54.758,124.383L55.501,122.007L56.54,116.663L56.985,112.655M-2.25,148.582L3.392,148.878L16.901,152.441L19.871,152.738L22.691,152.441L24.77,151.848L26.551,151.254L28.184,150.511L29.372,149.324L29.966,148.136M23.582,203.511L21.801,197.127L21.207,194.01L21.058,188.814L20.464,185.993L19.277,184.212L17.198,183.766L13.784,183.469L9.924,183.618L7.846,184.212L5.47,184.805L2.056,186.587L0.126,187.775L-2.547,188.814M24.918,39.168L23.582,42.285L22.691,46.888L22.543,49.857L22.691,53.271L22.84,55.943L24.027,57.131L25.215,57.873M67.229,126.313L66.783,121.414M332.079,276.404L337.572,262.895L342.174,250.276L347.815,233.5L358.207,204.402L362.216,194.158L363.7,189.408L372.014,166.248L379.882,145.315M565.01,324.95L565.307,316.34L565.604,289.32L565.604,282.046M66.783,121.414L66.041,112.655L65.596,108.795L65.447,60.397L65.299,42.137M193.864,227.264L186.886,224.444L175.158,219.99L161.352,214.646L157.343,212.567L155.116,210.34M99.593,321.536L98.108,321.833L95.288,322.872L90.537,324.95L88.31,326.286L86.083,328.068L84.005,329.998L76.73,337.718L74.652,339.499L70.94,342.617M89.052,325.841L88.31,326.286L86.083,328.068L84.005,329.998L76.73,337.718L74.652,339.499L70.94,342.617M154.522,310.698L163.133,313.816M194.161,344.844L198.466,332.818L200.545,327.177L206.186,311.292L214.648,288.281L216.727,283.382L230.83,242.704L231.721,239.883M186.886,362.955L188.222,360.58L190.152,355.681L198.466,332.818L200.545,327.177L200.99,325.841M240.628,337.866L238.698,339.648L236.026,339.499L220.29,334.155L200.545,327.177L181.542,320.496L163.133,313.816M240.628,337.866L238.698,339.648L236.026,339.499L220.29,334.155L200.545,327.177L196.685,325.841M154.374,344.844L154.374,343.656L154.819,338.757L156.007,333.412L157.492,329.552L160.015,322.872L163.133,313.816L164.915,308.323L178.424,270.169L181.69,260.816L189.113,240.626L192.825,230.234L193.864,227.264L201.881,206.035L209.304,183.469L214.351,170.702L225.486,139.822L229.939,127.649L234.69,114.881L237.956,106.865M156.007,365.925L154.819,363.995L154.374,361.916L154.077,358.205L154.226,349.743L154.374,343.656L154.819,338.757L156.007,333.412L157.492,329.552L158.828,325.841M217.172,106.716L217.469,103.153L217.617,95.136L217.766,67.672L217.617,41.691L217.469,35.753L216.875,10.218L217.32,-22.146M442.383,217.912L438.672,216.427L433.327,214.646L401.706,203.214L382.555,196.237L363.7,189.408L349.894,184.36L343.955,182.133L334.899,178.867L329.852,177.382L324.062,175.304M374.686,96.027L393.986,102.856M282.048,18.383L303.872,18.68L314.709,18.68L320.647,18.829M109.094,204.699L108.946,181.985L108.946,160.755L109.094,150.363L108.946,135.814L109.243,112.506L109.54,96.176L109.688,82.072L110.579,80.142M69.753,237.953L70.05,223.108L70.495,212.27L70.347,209.301L70.347,203.363L70.198,194.752L69.901,180.945L69.901,175.898L69.604,159.419L68.862,135.369L68.565,132.548L67.823,128.837L67.229,126.313M388.79,116.366L391.017,114.436L391.759,111.615L393.986,102.856L395.916,98.848L404.081,75.985L413.582,50.896L414.176,48.224L412.989,45.997M457.378,174.116L456.932,171.444L454.854,169.663L449.806,168.178L436.742,164.912L423.826,161.052L415.661,158.231L401.112,152.738L379.882,145.315L365.63,140.416L359.544,138.189L355.832,137.002L345.44,132.845L340.244,130.47M154.819,260.668L154.522,254.878L154.226,244.486L153.929,239.29L154.374,212.716L155.116,210.34L153.929,202.769L154.077,194.604L153.78,187.775L153.78,182.875L154.077,162.834L153.929,136.408L153.483,113.694L153.038,107.607L152.889,98.106L152.147,69.156L152.444,42.285L152.592,26.4L152.444,10.07L152.444,-13.684L153.186,-19.028L154.968,-21.106M42.288,203.214L40.952,203.214L23.582,203.511L18.089,203.363L9.627,202.917L4.134,202.472L2.501,201.878M155.116,210.34L153.483,206.777L151.256,205.59L148.287,204.847L145.021,204.699L120.377,204.847L109.094,204.699L80.739,204.55L77.324,204.253L73.316,203.808L70.347,203.363L65.596,203.214L56.688,203.214L47.632,203.066L40.952,203.214L23.582,203.511L23.285,203.511M153.929,239.29L146.803,238.25L141.607,237.805L136.262,237.805L132.254,237.953L109.54,238.102L69.753,237.953L50.156,237.953L40.655,237.657M285.76,210.934L298.972,215.536L308.325,219.099L328.367,226.522L347.815,233.5L366.67,240.477L385.821,247.306L395.174,250.721L420.857,259.628L426.201,262.449L427.537,263.191L429.319,265.567L434.07,270.466L436.742,272.99L437.93,274.326L439.563,275.959L441.493,277.295L444.016,278.78L447.728,279.967L454.408,280.71L489.742,281.155L498.946,281.303L541.405,281.6L554.172,281.897L565.604,282.046L580.598,282.046L600.788,281.897M426.201,262.449L428.428,255.917L437.781,230.382L442.383,217.912L446.837,205.144L451.142,192.228L456.932,176.937L457.378,174.116M479.646,259.035L487.515,259.183L496.274,259.035L499.094,259.48M454.557,344.844L454.557,324.059L454.408,302.236L454.408,280.71L454.26,274.326M453.963,367.706L454.408,351.97L454.557,346.031L454.557,325.841M155.116,210.34L157.64,206.629L158.531,205.293L159.718,202.917L160.758,200.394L166.399,185.251L172.041,169.366L183.472,136.853L187.332,125.719L193.715,107.31M636.418,281.452L633.598,282.046L612.22,281.897L600.788,281.897M240.628,337.866L243.894,330.592L250.13,312.48L255.177,297.188L260.819,281.897L270.172,254.135L285.76,210.934L298.23,178.867L302.387,166.693L304.465,161.497L317.678,124.086L319.014,120.82L323.765,108.201L325.992,103.153L327.773,98.403M240.628,337.866L243.894,330.592L245.527,325.841M354.644,334.006L357.317,325.841L362.958,310.104L365.482,303.127L369.936,290.062L377.21,270.614L382.258,257.253L385.821,247.306L401.706,203.214L406.902,188.665L411.652,175.898L416.106,163.279L416.106,160.31L415.661,158.231M110.579,80.142L112.509,79.548L114.736,79.548L127.206,79.4M153.038,107.607L158.382,107.459L168.774,107.459L193.715,107.31L215.836,106.716L231.572,106.716L237.956,106.865L242.41,106.568L250.278,106.419L259.037,106.271L266.312,106.419L268.984,106.716L271.805,107.162L277.298,108.646L281.751,109.834L299.418,116.515L309.81,120.226L317.678,124.086M281.9,10.664L267.648,10.218L216.875,10.218L152.444,10.07M-2.101,121.117L-1.953,117.108L-1.062,114.881L0.868,113.1L6.212,112.506L33.38,112.655L42.288,112.655M23.285,112.655L33.38,112.655L56.985,112.655L62.033,112.506L66.041,112.655L67.377,112.655L76.285,112.506L80.59,112.358L105.086,112.358L109.243,112.506L123.792,112.506L142.2,113.1L149.772,113.248L153.483,113.694L157.64,114.881L167.29,118.444L187.332,125.719L206.78,132.845L225.486,139.822L244.34,146.503L263.046,152.887L283.83,159.864L302.387,166.693M24.918,39.168L25.957,40.355L27.442,41.246L29.372,41.84L32.044,41.988L42.288,41.988M24.918,39.168L25.957,40.355L27.442,41.246L29.372,41.84L32.044,41.988L65.299,42.137L95.436,42.434L113.399,42.285L152.444,42.285L214.351,41.691L217.617,41.691L246.27,41.988L273.289,41.84L282.048,41.988M412.989,45.997L410.465,45.254L407.644,45.403L402.151,45.403L392.056,45.551L383.445,45.7L377.952,45.551L374.983,45.403L371.272,44.512M285.76,210.934L267.202,204.253L247.606,196.979L228.455,190.15L209.304,183.469L190.746,176.343L180.057,172.335L172.041,169.366L154.077,162.834L150.811,161.943L147.842,161.497L144.13,161.052L129.73,160.904L114.884,160.755L108.946,160.755L69.604,159.419M354.941,88.901L374.686,96.027M498.649,344.844L498.649,302.681L498.798,300.009L498.946,281.303L499.094,259.48L499.391,253.987L499.54,243.001L499.688,229.343M498.352,367.706L498.649,349.149L498.649,325.841M314.709,18.68L314.412,10.367L314.412,-3.885L314.561,-5.964M255.177,297.188L235.878,290.062L197.575,276.701L178.424,270.169L158.085,262.598L156.304,261.707L154.819,260.668M154.522,310.698L151.405,309.51L147.396,307.729L145.466,307.877L138.044,308.768L132.551,309.51L129.73,309.362L127.206,308.174L125.128,307.877L122.604,308.323L119.932,309.362L116.814,309.956L113.845,308.768L109.243,303.127L103.453,294.813M70.94,342.617L68.417,338.757L63.517,331.779L60.4,327.771M70.94,342.617L68.417,338.757L63.517,331.779L60.4,327.771M109.243,303.127L106.57,305.502L98.257,312.777L96.772,315.003L96.921,317.973L98.405,320.199L99.593,321.536L101.671,324.208L103.453,326.88L113.399,339.648L115.181,341.726L117.556,343.062L120.229,343.211L122.901,342.617L132.996,338.46L142.943,334.303L145.318,333.115L147.396,331.779L148.733,329.552L149.475,326.88L149.475,324.208L149.029,321.684L147.99,313.667L147.396,307.729M102.71,325.841L103.453,326.88L113.399,339.648L115.181,341.726L117.556,343.062L120.229,343.211L122.901,342.617L132.996,338.46L142.943,334.303L145.318,333.115L147.396,331.779L148.733,329.552L149.475,326.88L149.475,325.841M499.094,259.48L501.767,259.035L513.05,259.035L532.052,259.628L539.03,259.925M69.604,159.419L65.15,159.419M142.943,334.303L142.052,332.967L140.122,330.888L137.45,329.849L134.777,330.295L132.254,331.185L129.73,332.373L127.355,333.709L125.573,335.491L125.425,338.163L125.425,341.577M142.943,334.303L142.052,332.967L140.122,330.888L137.45,329.849L134.777,330.295L132.254,331.185L129.73,332.373L127.355,333.709L125.573,335.491L125.425,338.163L125.425,341.577M67.823,128.837L64.854,135.072L65.15,159.419L65.596,203.214M608.508,281.897L608.954,256.362L608.805,233.648L607.172,232.906L605.094,232.906L603.609,233.5L602.421,234.836L600.937,237.36L599.898,240.774L599.452,243.446L599.601,246.119L600.343,249.979L601.234,252.651L601.976,253.987L603.312,255.472L605.094,256.214L608.954,256.362M181.542,320.496L183.175,315.746L189.856,298.079L193.419,287.836L197.575,276.701L202.771,262.895L211.827,236.914L212.867,233.648L218.063,219.545L223.259,204.253L225.337,199.354L226.228,196.831L226.822,194.307L227.861,191.486L228.455,190.15L234.69,174.413L243.894,148.433L244.34,146.503L245.379,144.128L251.02,128.54L254.138,120.968L256.662,113.248L257.849,110.576L259.037,106.271M168.774,107.459L168.478,113.991L168.181,115.772L167.29,118.444M541.405,281.6L542.444,276.256L544.671,270.763L548.086,255.769L549.273,251.909L551.946,249.83L554.766,249.236L557.29,249.088L562.932,249.236L568.425,249.83L570.8,250.721L572.581,252.502L573.472,255.175L574.511,257.55L575.402,260.074L575.402,261.261L574.808,282.046M359.544,138.189L355.09,152.59L343.955,182.133L339.205,195.346L334.899,208.113L330.297,220.881L328.367,226.522L323.617,238.399L313.521,266.458L312.482,269.427L307.435,283.827L302.535,296.446L296.746,313.222L291.55,326.732L285.017,344.844M291.846,325.841L291.55,326.732L283.236,350.04L281.603,355.681M419.521,285.906L417.442,287.836L411.652,292.735L408.535,296.149L405.566,301.048L404.675,304.017M282.048,26.4L265.866,26.994M220.29,334.155L225.189,321.239L230.533,306.096L235.878,290.062L241.519,275.662L252.06,247.455L267.202,204.253L272.844,190.001L279.376,171.147L281.9,164.17L283.83,159.864L293.48,133.884L299.418,116.515L305.802,97.809L306.989,94.988M382.258,317.23L380.328,316.488L373.053,313.816L368.006,311.886L362.958,310.104L355.684,307.432L324.953,296.298M108.946,135.814L135.965,135.963L148.881,136.111L153.929,136.408M132.996,94.988L140.567,96.027L145.912,95.879L150.069,96.324L152.889,98.106M69.901,180.945L86.825,181.539L108.946,181.985L136.262,182.133L153.78,182.875M279.376,171.147L298.23,178.867M532.052,259.628L532.052,250.869M538.881,303.275L498.649,302.681L481.428,302.236L454.408,302.236L452.182,302.088L449.361,302.236L443.719,300.603L431.1,295.704M70.347,209.301L72.276,212.122L77.621,213.012L91.279,213.309L102.117,213.161L104.937,212.567L107.164,211.231L108.649,209.004L109.54,206.183L109.094,204.699M382.555,196.237L381.961,199.354L366.67,240.477L361.473,255.323L353.457,278.928L351.824,283.827M374.686,96.027L384.93,66.781L389.532,54.014L392.056,45.551M29.966,148.136L31.45,144.425L32.935,141.604L34.42,139.377L38.279,135.517L40.358,134.181L42.288,133.587M29.966,148.136L31.45,144.425L32.935,141.604L34.42,139.377L38.279,135.517L40.358,134.181L42.585,133.439L45.257,132.845L48.523,132.4L50.898,131.36L52.235,130.321L52.977,128.837L53.719,126.907L54.758,124.383L55.501,122.007L56.54,116.663L56.985,112.655M215.836,106.716L208.561,128.54L206.78,132.845L197.575,158.825L190.746,176.343L180.057,206.926L175.158,219.99M429.319,265.567L427.686,269.427L425.608,274.771L424.865,277.592L423.678,279.967L422.193,282.343L419.521,285.906L417.442,285.609L414.918,284.866L411.504,283.679L401.854,279.373L381.961,272.247L377.21,270.614M99.593,321.536L98.108,321.833L95.288,322.872L90.537,324.95L88.31,326.286L86.083,328.068L84.005,329.998L76.73,337.718L74.652,339.499L70.94,342.617M89.052,325.841L88.31,326.286L86.083,328.068L84.005,329.998L76.73,337.718L74.652,339.499L70.94,342.617M186.886,362.955L185.402,365.034L183.323,365.925L180.057,366.815L174.267,366.667L164.915,366.815L159.273,366.815L156.007,365.925M194.161,344.844L198.466,332.818L200.545,327.177L206.186,311.292L214.648,288.281L216.727,283.382L230.83,242.704L231.721,239.883M186.886,362.955L188.222,360.58L190.152,355.681L198.466,332.818L200.545,327.177L200.99,325.841M240.628,337.866L238.698,339.648L236.026,339.499L220.29,334.155L200.545,327.177L181.542,320.496L163.133,313.816M240.628,337.866L238.698,339.648L236.026,339.499L220.29,334.155L200.545,327.177L196.685,325.841M154.374,344.844L154.374,343.656L154.819,338.757L156.007,333.412L157.492,329.552L160.015,322.872L163.133,313.816L164.915,308.323L178.424,270.169L181.69,260.816L189.113,240.626L192.825,230.234L193.864,227.264L201.881,206.035L209.304,183.469L214.351,170.702L225.486,139.822L229.939,127.649L234.69,114.881L237.956,106.865M156.007,365.925L154.819,363.995L154.374,361.916L154.077,358.205L154.226,349.743L154.374,343.656L154.819,338.757L156.007,333.412L157.492,329.552L158.828,325.841M454.557,344.844L454.557,324.059L454.408,302.236L454.408,280.71L454.26,274.326M453.963,367.706L454.408,351.97L454.557,346.031L454.557,325.841M240.628,337.866L243.894,330.592L250.13,312.48L255.177,297.188L260.819,281.897L270.172,254.135L285.76,210.934L298.23,178.867L302.387,166.693L304.465,161.497L317.678,124.086L319.014,120.82L323.765,108.201L325.992,103.153L327.773,98.403M240.628,337.866L243.894,330.592L245.527,325.841M261.561,348.703L270.914,351.673L281.603,355.681L300.309,362.955M498.649,344.844L498.649,302.681L498.798,300.009L498.946,281.303L499.094,259.48L499.391,253.987L499.54,243.001L499.688,229.343M498.352,367.706L498.649,349.149L498.649,325.841M109.243,303.127L106.57,305.502L98.257,312.777L96.772,315.003L96.921,317.973L98.405,320.199L99.593,321.536L101.671,324.208L103.453,326.88L113.399,339.648L115.181,341.726L117.556,343.062L120.229,343.211L122.901,342.617L132.996,338.46L142.943,334.303L145.318,333.115L147.396,331.779L148.733,329.552L149.475,326.88L149.475,324.208L149.029,321.684L147.99,313.667L147.396,307.729M102.71,325.841L103.453,326.88L113.399,339.648L115.181,341.726L117.556,343.062L120.229,343.211L122.901,342.617L132.996,338.46L142.943,334.303L145.318,333.115L147.396,331.779L148.733,329.552L149.475,326.88L149.475,325.841M70.94,342.617L68.417,338.757L63.517,331.779L60.4,327.771M70.94,342.617L68.417,338.757L63.517,331.779L60.4,327.771M525.52,347.07L498.649,346.477L454.557,346.031L451.439,345.883L449.064,345.437L444.016,343.656L430.952,339.648L428.131,339.202L425.756,337.569M359.544,138.189L355.09,152.59L343.955,182.133L339.205,195.346L334.899,208.113L330.297,220.881L328.367,226.522L323.617,238.399L313.521,266.458L312.482,269.427L307.435,283.827L302.535,296.446L296.746,313.222L291.55,326.732L285.017,344.844M291.846,325.841L291.55,326.732L283.236,350.04L281.603,355.681M142.943,334.303L142.052,332.967L140.122,330.888L137.45,329.849L134.777,330.295L132.254,331.185L129.73,332.373L127.355,333.709L125.573,335.491L125.425,338.163L125.425,341.577M142.943,334.303L142.052,332.967L140.122,330.888L137.45,329.849L134.777,330.295L132.254,331.185L129.73,332.373L127.355,333.709L125.573,335.491L125.425,338.163L125.425,341.577" stroke="rgb(231,231,231)" id="road_minor" transform="translate(0.5, 0)" style="fill: none; stroke-width: 2.61712; stroke-linejoin: round; stroke-linecap: round; stroke: rgb(231, 231, 231);"/><path d="M332.079,276.404L312.482,269.427L292.589,262.598L283.384,259.183M231.721,239.883L233.651,234.836L240.034,216.724L247.606,196.979L263.046,152.887L277.446,115.624L279.524,109.24L280.564,105.38L281.009,102.708L281.9,95.582L282.197,87.862L282.345,51.935L282.048,41.988L282.048,18.383L281.9,10.664L281.9,-22.146M283.384,259.183L270.172,254.135L252.06,247.455L231.721,239.883L212.867,233.648L203.662,230.382L200.248,229.788L196.536,229.788L192.825,230.234M564.862,344.844L565.158,338.014L565.01,324.95M565.158,367.855L564.862,346.18L565.158,338.014L565.01,325.841M382.406,344.844L381.218,344.398L376.765,342.32L374.241,341.132L372.459,340.241L354.644,334.006L316.491,320.496L296.746,313.222L277.298,305.205M565.158,367.855L542.89,367.855L498.352,367.706L459.308,367.855L453.963,367.706L448.47,367.855L443.423,367.409L439.711,366.37L403.042,352.563L381.218,344.398L376.765,342.32L374.241,341.132L372.459,340.241L354.644,334.006L331.633,325.841M565.01,324.95L498.649,324.356L466.582,324.208L454.557,324.059L451.588,323.911L448.025,323.02L437.781,319.903L416.997,313.519L412.543,311.44L410.019,308.917L408.535,307.284L407.199,306.244L406.159,305.354L404.675,304.017L394.877,299.267L369.936,290.062L351.824,283.827L332.079,276.404M307.435,344.844L316.491,320.496L324.953,296.298L332.079,276.404M291.253,390.272L297.191,374.09L297.488,373.051L299.715,365.479L300.309,362.955L302.387,357.908L307.286,345.289L314.561,325.841M31.747,344.844L37.389,342.171L44.663,338.46L60.4,327.771L77.324,315.003L98.702,298.228L103.453,294.813L128.988,274.92L145.466,261.855L151.85,256.956L154.522,254.878L179.612,235.727L183.026,233.648L186.738,231.718L190.301,230.679L192.825,230.234M17.941,350.633L30.263,345.586L37.389,342.171L42.288,339.648M23.285,348.407L30.263,345.586L37.389,342.171L44.663,338.46L60.4,327.771L62.924,325.841M-220.484,361.471L-191.237,361.322L-129.775,361.471L-45.748,361.322L-42.037,361.174L-32.238,361.026L-21.549,359.986L-16.056,359.392L-8.188,357.908L-0.171,356.126L7.549,354.048L15.268,351.673L17.941,350.633M31.747,344.844L37.389,342.171L44.663,338.46L60.4,327.771L77.324,315.003L98.702,298.228L103.453,294.813L128.988,274.92L145.466,261.855L151.85,256.956L154.522,254.878L179.612,235.727L183.026,233.648L186.738,231.718L190.301,230.679L192.825,230.234M17.941,350.633L30.263,345.586L37.389,342.171L42.288,339.648M23.285,348.407L30.263,345.586L37.389,342.171L44.663,338.46L60.4,327.771L62.924,325.841M307.435,344.844L316.491,320.496L324.953,296.298L332.079,276.404M291.253,390.272L297.191,374.09L297.488,373.051L299.715,365.479L300.309,362.955L302.387,357.908L307.286,345.289L314.561,325.841M282.197,952.929L285.017,937.638L285.908,897.703L285.463,784.132L284.869,708.418L284.424,689.564L284.127,659.872L283.978,603.013L283.978,522.103L284.424,493.747L284.424,489.591L283.978,422.042L284.72,411.204L285.908,406.008L291.253,390.272M31.747,344.844L37.389,342.171L44.663,338.46L60.4,327.771L77.324,315.003L98.702,298.228L103.453,294.813L128.988,274.92L145.466,261.855L151.85,256.956L154.522,254.878L179.612,235.727L183.026,233.648L186.738,231.718L190.301,230.679L192.825,230.234M17.941,350.633L30.263,345.586L37.389,342.171L42.288,339.648M23.285,348.407L30.263,345.586L37.389,342.171L44.663,338.46L60.4,327.771L62.924,325.841M565.158,367.855L585.794,368.152L619.346,368.3L650.374,368.448M382.406,344.844L381.218,344.398L376.765,342.32L374.241,341.132L372.459,340.241L354.644,334.006L316.491,320.496L296.746,313.222L277.298,305.205M565.158,367.855L542.89,367.855L498.352,367.706L459.308,367.855L453.963,367.706L448.47,367.855L443.423,367.409L439.711,366.37L403.042,352.563L381.218,344.398L376.765,342.32L374.241,341.132L372.459,340.241L354.644,334.006L331.633,325.841M564.862,344.844L565.158,338.014L565.01,324.95M565.158,367.855L564.862,346.18L565.158,338.014L565.01,325.841" stroke="rgb(231,231,231)" id="road_secondary_tertiary" transform="translate(0.5, 0)" style="fill: none; stroke-width: 3.16379; stroke-linejoin: round; stroke-linecap: round; stroke: rgb(231, 231, 231);"/><path d="M262.897,344.844L277.298,305.205L292.589,262.598L308.325,219.099L324.062,175.304L340.244,130.47L354.941,88.901L371.272,44.512L374.092,36.941L381.664,19.571L390.274,2.647L401.409,-15.91L408.238,-26.451L410.613,-29.272L420.56,-42.039L423.678,-45.751L427.537,-50.353L434.812,-58.37L437.187,-60.893L440.453,-64.159L454.408,-77.224L469.106,-89.249L484.397,-100.235L500.431,-110.33L517.058,-119.237L524.332,-122.8L536.654,-128.145L551.797,-133.935L562.041,-137.349L569.315,-139.576M209.897,492.411L211.679,487.661L248.2,386.115L251.763,376.317L257.553,359.689L259.334,355.087L261.561,348.703L269.875,325.841M262.897,344.844L277.298,305.205L292.589,262.598L308.325,219.099L324.062,175.304L340.244,130.47L354.941,88.901L371.272,44.512L374.092,36.941L381.664,19.571L390.274,2.647L401.409,-15.91L408.238,-26.451L410.613,-29.272L420.56,-42.039L423.678,-45.751L427.537,-50.353L434.812,-58.37L437.187,-60.893L440.453,-64.159L454.408,-77.224L469.106,-89.249L484.397,-100.235L500.431,-110.33L517.058,-119.237L524.332,-122.8L536.654,-128.145L551.797,-133.935L562.041,-137.349L569.315,-139.576M209.897,492.411L211.679,487.661L248.2,386.115L251.763,376.317L257.553,359.689L259.334,355.087L261.561,348.703L269.875,325.841" stroke="rgb(231,231,231)" id="road_primary" transform="translate(0.5, 0)" style="fill: none; stroke-width: 4.52984; stroke-linejoin: round; stroke-linecap: round; stroke: rgb(231, 231, 231);"/><path d="M650.374,103.896L517.8,203.363L501.767,214.942L486.772,226.374L472.372,237.953L460.941,247.9L455.002,253.69L436.742,272.99L433.03,276.701L406.159,305.354L382.703,329.998L375.429,337.718L372.459,340.241L368.006,344.547L367.709,344.844M386.711,325.841L382.703,329.998L375.429,337.718L372.459,340.241L368.006,344.547L361.325,350.04L353.16,356.126L346.776,359.541L340.095,362.807L332.821,365.925L326.883,368.003L320.796,369.636L313.373,370.972L305.653,372.16L297.488,373.051L283.533,374.238M250.723,344.844L260.225,318.715L264.827,306.244L280.415,267.2M31.005,952.929L55.649,884.787L164.618,582.822L227.416,409.275L257.701,325.841M252.505,344.844L280.415,267.2L283.384,259.183L298.972,215.536L341.728,96.77L369.936,20.462L385.821,-24.818L431.249,-150.859L449.955,-203.71L478.904,-282.245M32.638,952.929L46.742,914.033L57.282,884.935L138.934,659.872L166.102,583.268L166.696,581.635L205.147,475.784L211.085,459.602L259.334,325.841M501.767,214.942L518.394,200.839L600.788,139.377L650.374,102.114M370.084,344.844L374.241,341.132L380.328,334.897L391.314,322.872L400.37,313.222L407.199,306.244L417.145,295.555L421.599,290.805L433.03,276.701M283.533,374.238L297.191,374.09L302.832,373.941L311.295,372.605L318.717,371.269L323.617,370.23L328.664,368.597L333.415,367.112L338.314,365.182L343.955,362.659L349.597,359.986L357.02,355.384L363.403,350.782L368.154,346.625L374.241,341.132L380.328,334.897L388.641,325.841M417.145,295.555L408.535,307.284L403.784,313.222L393.986,324.802L384.781,334.897L376.765,342.32L373.647,344.844M393.095,325.841L384.781,334.897L376.765,342.32L367.857,349.594L352.863,359.392L342.025,365.034L333.118,368.597L321.687,371.863L310.404,374.238L300.606,375.426M650.374,103.896L517.8,203.363L501.767,214.942L486.772,226.374L472.372,237.953L460.941,247.9L455.002,253.69L436.742,272.99L433.03,276.701L406.159,305.354L382.703,329.998L375.429,337.718L372.459,340.241L368.006,344.547L367.709,344.844M386.711,325.841L382.703,329.998L375.429,337.718L372.459,340.241L368.006,344.547L361.325,350.04L353.16,356.126L346.776,359.541L340.095,362.807L332.821,365.925L326.883,368.003L320.796,369.636L313.373,370.972L305.653,372.16L297.488,373.051L283.533,374.238M283.533,374.238L270.32,376.02L266.757,376.614L262.6,377.95L257.256,380.325L252.802,382.997L248.2,386.115L243.597,390.272L234.987,401.852L230.088,411.204L206.928,475.19L167.735,583.862L58.767,885.381L34.271,952.929M417.145,295.555L408.535,307.284L403.784,313.222L393.986,324.802L384.781,334.897L376.765,342.32L373.647,344.844M393.095,325.841L384.781,334.897L376.765,342.32L367.857,349.594L352.863,359.392L342.025,365.034L333.118,368.597L321.687,371.863L310.404,374.238L300.606,375.426M252.505,344.844L280.415,267.2L283.384,259.183L298.972,215.536L341.728,96.77L369.936,20.462L385.821,-24.818L431.249,-150.859L449.955,-203.71L478.904,-282.245M32.638,952.929L46.742,914.033L57.282,884.935L138.934,659.872L166.102,583.268L166.696,581.635L205.147,475.784L211.085,459.602L259.334,325.841M250.723,344.844L260.225,318.715L264.827,306.244L280.415,267.2M31.005,952.929L55.649,884.787L164.618,582.822L227.416,409.275L257.701,325.841M370.084,344.844L374.241,341.132L380.328,334.897L391.314,322.872L400.37,313.222L407.199,306.244L417.145,295.555L421.599,290.805L433.03,276.701M283.533,374.238L297.191,374.09L302.832,373.941L311.295,372.605L318.717,371.269L323.617,370.23L328.664,368.597L333.415,367.112L338.314,365.182L343.955,362.659L349.597,359.986L357.02,355.384L363.403,350.782L368.154,346.625L374.241,341.132L380.328,334.897L388.641,325.841" stroke="rgb(157,157,157)" id="railway" transform="translate(0.5, 0)" style="fill: none; stroke-width: 1; stroke-opacity: 0.649626; stroke-linejoin: miter; stroke-linecap: butt; stroke: rgb(157, 157, 157);"/><path d="M67.229,126.313L66.783,121.414" stroke="rgb(231,231,231)" id="bridge_minor case" transform="translate(0.5, 0)" style="fill: none; stroke-width: 4.46711; stroke-linejoin: miter; stroke-linecap: butt; stroke: rgb(231, 231, 231);"/><path d="M67.229,126.313L66.783,121.414" stroke="rgb(231,231,231)" id="bridge_minor" transform="translate(0.5, 0)" style="fill: none; stroke-width: 2.61712; stroke-linejoin: round; stroke-linecap: round; stroke: rgb(231, 231, 231);"/><g id="OAK-svg AVENUE-svg"><text transform="rotate(-66.32862871392231, 379.43951416015625, 24.673904418945312) translate(379.43951416015625, 19.173904418945312)" style="text-anchor: middle;"><tspan x="0" y="10" style="font-family: Roboto; font-weight: 400; font-stretch: 100%; font-size: 10px; stroke: rgb(255, 255, 255); stroke-width: 2; stroke-linejoin: round; stroke-linecap: round;">OAK AVENUE</tspan></text><text transform="rotate(-66.32862871392231, 379.43951, 24.6739) translate(379.43951416015625, 19.173904418945312)" style="text-anchor: middle;"><tspan fill="rgb(136, 136, 136)" x="0" y="10" style="font-family: Roboto; font-weight: 400; font-stretch: 100%; font-size: 10px;">OAK AVENUE</tspan></text></g><g id="EAST-svg 5TH-svg STREET-svg"><text transform="rotate(19.499090966912412, 342.5747985839844, 329.7322998046875) translate(342.5747985839844, 324.2322998046875)" style="text-anchor: middle;"><tspan x="0" y="10" style="font-family: Roboto; font-weight: 400; font-stretch: 100%; font-size: 10px; stroke: rgb(255, 255, 255); stroke-width: 2; stroke-linejoin: round; stroke-linecap: round;">EAST 5TH STREET</tspan></text><text transform="rotate(19.499090966912412, 342.5748, 329.7323) translate(342.5747985839844, 324.2322998046875)" style="text-anchor: middle;"><tspan fill="rgb(136, 136, 136)" x="0" y="10" style="font-family: Roboto; font-weight: 400; font-stretch: 100%; font-size: 10px;">EAST 5TH STREET</tspan></text></g><g id="TROWBRIDGE-svg ROAD-svg"><text transform="rotate(-37.219854633635656, 104.95161437988281, 293.6455078125) translate(104.95161437988281, 288.1455078125)" style="text-anchor: middle;"><tspan x="0" y="10" style="font-family: Roboto; font-weight: 400; font-stretch: 100%; font-size: 10px; stroke: rgb(255, 255, 255); stroke-width: 2; stroke-linejoin: round; stroke-linecap: round;">TROWBRIDGE ROAD</tspan></text><text transform="rotate(-37.219854633635656, 104.95161, 293.64551) translate(104.95161437988281, 288.1455078125)" style="text-anchor: middle;"><tspan fill="rgb(136, 136, 136)" x="0" y="10" style="font-family: Roboto; font-weight: 400; font-stretch: 100%; font-size: 10px;">TROWBRIDGE ROAD</tspan></text></g><g id="FRANKLIN-svg AVENUE-svg"><text transform="rotate(-90.36362602577559, 109.01219177246094, 142.3207550048828) translate(109.01219177246094, 136.8207550048828)" style="text-anchor: middle;"><tspan x="0" y="10" style="font-family: Roboto; font-weight: 400; font-stretch: 100%; font-size: 10px; stroke: rgb(255, 255, 255); stroke-width: 2; stroke-linejoin: round; stroke-linecap: round;">FRANKLIN AVENUE</tspan></text><text transform="rotate(-90.36362602577559, 109.01219, 142.32076) translate(109.01219177246094, 136.8207550048828)" style="text-anchor: middle;"><tspan fill="rgb(136, 136, 136)" x="0" y="10" style="font-family: Roboto; font-weight: 400; font-stretch: 100%; font-size: 10px;">FRANKLIN AVENUE</tspan></text></g><g id="ELM-svg AVENUE-svg"><text transform="rotate(-70.16416975204076, 192.94801330566406, 229.8823699951172) translate(192.94801330566406, 224.3823699951172)" style="text-anchor: middle;"><tspan x="0" y="10" style="font-family: Roboto; font-weight: 400; font-stretch: 100%; font-size: 10px; stroke: rgb(255, 255, 255); stroke-width: 2; stroke-linejoin: round; stroke-linecap: round;">ELM AVENUE</tspan></text><text transform="rotate(-70.16416975204076, 192.94801, 229.88237) translate(192.94801330566406, 224.3823699951172)" style="text-anchor: middle;"><tspan fill="rgb(136, 136, 136)" x="0" y="10" style="font-family: Roboto; font-weight: 400; font-stretch: 100%; font-size: 10px;">ELM AVENUE</tspan></text></g><g id="CHESTNUT-svg AVENUE-svg"><text transform="rotate(-70.02125980994383, 283.2809143066406, 217.8046112060547) translate(283.2809143066406, 212.3046112060547)" style="text-anchor: middle;"><tspan x="0" y="10" style="font-family: Roboto; font-weight: 400; font-stretch: 100%; font-size: 10px; stroke: rgb(255, 255, 255); stroke-width: 2; stroke-linejoin: round; stroke-linecap: round;">CHESTNUT AVENUE</tspan></text><text transform="rotate(-70.02125980994383, 283.28091, 217.80461) translate(283.2809143066406, 212.3046112060547)" style="text-anchor: middle;"><tspan fill="rgb(136, 136, 136)" x="0" y="10" style="font-family: Roboto; font-weight: 400; font-stretch: 100%; font-size: 10px;">CHESTNUT AVENUE</tspan></text></g><g id="8TH-svg STREET-svg"><text transform="rotate(19.97064620471849, 383.2604675292969, 196.4940185546875) translate(383.2604675292969, 190.9940185546875)" style="text-anchor: middle;"><tspan x="0" y="10" style="font-family: Roboto; font-weight: 400; font-stretch: 100%; font-size: 10px; stroke: rgb(255, 255, 255); stroke-width: 2; stroke-linejoin: round; stroke-linecap: round;">8TH STREET</tspan></text><text transform="rotate(19.97064620471849, 383.26047, 196.49402) translate(383.2604675292969, 190.9940185546875)" style="text-anchor: middle;"><tspan fill="rgb(136, 136, 136)" x="0" y="10" style="font-family: Roboto; font-weight: 400; font-stretch: 100%; font-size: 10px;">8TH STREET</tspan></text></g><g id="6TH-svg STREET-svg"><text transform="rotate(0.5747045588412842, 85.74446868896484, 204.57630920410156) translate(85.74446868896484, 199.07630920410156)" style="text-anchor: middle;"><tspan x="0" y="10" style="font-family: Roboto; font-weight: 400; font-stretch: 100%; font-size: 10px; stroke: rgb(255, 255, 255); stroke-width: 2; stroke-linejoin: round; stroke-linecap: round;">6TH STREET</tspan></text><text transform="rotate(0.5747045588412842, 85.74447, 204.57631) translate(85.74446868896484, 199.07630920410156)" style="text-anchor: middle;"><tspan fill="rgb(136, 136, 136)" x="0" y="10" style="font-family: Roboto; font-weight: 400; font-stretch: 100%; font-size: 10px;">6TH STREET</tspan></text></g><g id="5TH-svg STREET-svg"><text transform="rotate(0.21452742649845935, 97.33850860595703, 238.05630493164062) translate(97.33850860595703, 232.55630493164062)" style="text-anchor: middle;"><tspan x="0" y="10" style="font-family: Roboto; font-weight: 400; font-stretch: 100%; font-size: 10px; stroke: rgb(255, 255, 255); stroke-width: 2; stroke-linejoin: round; stroke-linecap: round;">5TH STREET</tspan></text><text transform="rotate(0.21452742649845935, 97.33851, 238.0563) translate(97.33850860595703, 232.55630493164062)" style="text-anchor: middle;"><tspan fill="rgb(136, 136, 136)" x="0" y="10" style="font-family: Roboto; font-weight: 400; font-stretch: 100%; font-size: 10px;">5TH STREET</tspan></text></g><g id="W-svg 10TH-svg ST.-svg"><text transform="rotate(-0.30688687667105086, 153.04542541503906, 42.27922821044922) translate(153.04542541503906, 36.77922821044922)" style="text-anchor: middle;"><tspan x="0" y="10" style="font-family: Roboto; font-weight: 400; font-stretch: 100%; font-size: 10px; stroke: rgb(255, 255, 255); stroke-width: 2; stroke-linejoin: round; stroke-linecap: round;">W 10TH ST.</tspan></text><text transform="rotate(-0.30688687667105086, 153.04543, 42.27923) translate(153.04542541503906, 36.77922821044922)" style="text-anchor: middle;"><tspan fill="rgb(136, 136, 136)" x="0" y="10" style="font-family: Roboto; font-weight: 400; font-stretch: 100%; font-size: 10px;">W 10TH ST.</tspan></text></g><g id="PARK-svg AVENUE-svg"><text transform="rotate(89.82361143515713, 65.51290130615234, 81.80368041992188) translate(65.51290130615234, 76.30368041992188)" style="text-anchor: middle;"><tspan x="0" y="10" style="font-family: Roboto; font-weight: 400; font-stretch: 100%; font-size: 10px; stroke: rgb(255, 255, 255); stroke-width: 2; stroke-linejoin: round; stroke-linecap: round;">PARK AVENUE</tspan></text><text transform="rotate(89.82361143515713, 65.5129, 81.80368) translate(65.51290130615234, 76.30368041992188)" style="text-anchor: middle;"><tspan fill="rgb(136, 136, 136)" x="0" y="10" style="font-family: Roboto; font-weight: 400; font-stretch: 100%; font-size: 10px;">PARK AVENUE</tspan></text></g><g id="GROVE-svg AVENUE-svg"><text transform="rotate(-70.21932924812909, 442.20233154296875, 218.40155029296875) translate(442.20233154296875, 212.90155029296875)" style="text-anchor: middle;"><tspan x="0" y="10" style="font-family: Roboto; font-weight: 400; font-stretch: 100%; font-size: 10px; stroke: rgb(255, 255, 255); stroke-width: 2; stroke-linejoin: round; stroke-linecap: round;">GROVE AVENUE</tspan></text><text transform="rotate(-70.21932924812909, 442.20233, 218.40155) translate(442.20233154296875, 212.90155029296875)" style="text-anchor: middle;"><tspan fill="rgb(136, 136, 136)" x="0" y="10" style="font-family: Roboto; font-weight: 400; font-stretch: 100%; font-size: 10px;">GROVE AVENUE</tspan></text></g><g id="EAST-svg 9TH-svg STREET-svg"><text transform="rotate(19.850590467256062, 399.6960144042969, 152.24290466308594) translate(399.6960144042969, 146.74290466308594)" style="text-anchor: middle;"><tspan x="0" y="10" style="font-family: Roboto; font-weight: 400; font-stretch: 100%; font-size: 10px; stroke: rgb(255, 255, 255); stroke-width: 2; stroke-linejoin: round; stroke-linecap: round;">EAST 9TH STREET</tspan></text><text transform="rotate(19.850590467256062, 399.69601, 152.2429) translate(399.6960144042969, 146.74290466308594)" style="text-anchor: middle;"><tspan fill="rgb(136, 136, 136)" x="0" y="10" style="font-family: Roboto; font-weight: 400; font-stretch: 100%; font-size: 10px;">EAST 9TH STREET</tspan></text></g><g id="WEST-svg 9TH-svg STREET-svg"><text transform="rotate(-0.6912787852334968, 236.94110107421875, 106.84130859375) translate(236.94110107421875, 101.34130859375)" style="text-anchor: middle;"><tspan x="0" y="10" style="font-family: Roboto; font-weight: 400; font-stretch: 100%; font-size: 10px; stroke: rgb(255, 255, 255); stroke-width: 2; stroke-linejoin: round; stroke-linecap: round;">WEST 9TH STREET</tspan></text><text transform="rotate(-0.6912787852334968, 236.9411, 106.84131) translate(236.94110107421875, 101.34130859375)" style="text-anchor: middle;"><tspan fill="rgb(136, 136, 136)" x="0" y="10" style="font-family: Roboto; font-weight: 400; font-stretch: 100%; font-size: 10px;">WEST 9TH STREET</tspan></text></g><g id="WEST-svg 8TH-svg STREET-svg"><text transform="rotate(19.270076898883918, 162.18002319335938, 116.55728149414062) translate(162.18002319335938, 111.05728149414062)" style="text-anchor: middle;"><tspan x="0" y="10" style="font-family: Roboto; font-weight: 400; font-stretch: 100%; font-size: 10px; stroke: rgb(255, 255, 255); stroke-width: 2; stroke-linejoin: round; stroke-linecap: round;">WEST 8TH STREET</tspan></text><text transform="rotate(19.270076898883918, 162.18002, 116.55728) translate(162.18002319335938, 111.05728149414062)" style="text-anchor: middle;"><tspan fill="rgb(136, 136, 136)" x="0" y="10" style="font-family: Roboto; font-weight: 400; font-stretch: 100%; font-size: 10px;">WEST 8TH STREET</tspan></text></g><g id="WEST-svg 7TH-svg STREET-svg"><text transform="rotate(20.440395000523345, 180.1492462158203, 172.36959838867188) translate(180.1492462158203, 166.86959838867188)" style="text-anchor: middle;"><tspan x="0" y="10" style="font-family: Roboto; font-weight: 400; font-stretch: 100%; font-size: 10px; stroke: rgb(255, 255, 255); stroke-width: 2; stroke-linejoin: round; stroke-linecap: round;">WEST 7TH STREET</tspan></text><text transform="rotate(20.440395000523345, 180.14925, 172.3696) translate(180.1492462158203, 166.86959838867188)" style="text-anchor: middle;"><tspan fill="rgb(136, 136, 136)" x="0" y="10" style="font-family: Roboto; font-weight: 400; font-stretch: 100%; font-size: 10px;">WEST 7TH STREET</tspan></text></g><g id="WEST-svg 5TH-svg STREET-svg"><text transform="rotate(19.21046707518899, 204.84463500976562, 279.23681640625) translate(204.84463500976562, 273.73681640625)" style="text-anchor: middle;"><tspan x="0" y="10" style="font-family: Roboto; font-weight: 400; font-stretch: 100%; font-size: 10px; stroke: rgb(255, 255, 255); stroke-width: 2; stroke-linejoin: round; stroke-linecap: round;">WEST 5TH STREET</tspan></text><text transform="rotate(19.21046707518899, 204.84464, 279.23682) translate(204.84463500976562, 273.73681640625)" style="text-anchor: middle;"><tspan fill="rgb(136, 136, 136)" x="0" y="10" style="font-family: Roboto; font-weight: 400; font-stretch: 100%; font-size: 10px;">WEST 5TH STREET</tspan></text></g><g id="W-svg 11TH-svg ST.-svg"><text transform="rotate(0.061976527671398725, 217.17539978027344, 10.218000411987305) translate(217.17539978027344, 4.718000411987305)" style="text-anchor: middle;"><tspan x="0" y="10" style="font-family: Roboto; font-weight: 400; font-stretch: 100%; font-size: 10px; stroke: rgb(255, 255, 255); stroke-width: 2; stroke-linejoin: round; stroke-linecap: round;">W 11TH ST.</tspan></text><text transform="rotate(0.061976527671398725, 217.1754, 10.218) translate(217.17539978027344, 4.718000411987305)" style="text-anchor: middle;"><tspan fill="rgb(136, 136, 136)" x="0" y="10" style="font-family: Roboto; font-weight: 400; font-stretch: 100%; font-size: 10px;">W 11TH ST.</tspan></text></g><g id="SHAFFER-svg AVENUE-svg"><text transform="rotate(-89.52802506800377, 498.8626403808594, 291.8419189453125) translate(498.8626403808594, 286.3419189453125)" style="text-anchor: middle;"><tspan x="0" y="10" style="font-family: Roboto; font-weight: 400; font-stretch: 100%; font-size: 10px; stroke: rgb(255, 255, 255); stroke-width: 2; stroke-linejoin: round; stroke-linecap: round;">SHAFFER AVENUE</tspan></text><text transform="rotate(-89.52802506800377, 498.86264, 291.84192) translate(498.8626403808594, 286.3419189453125)" style="text-anchor: middle;"><tspan fill="rgb(136, 136, 136)" x="0" y="10" style="font-family: Roboto; font-weight: 400; font-stretch: 100%; font-size: 10px;">SHAFFER AVENUE</tspan></text></g><g id="OAK-svg AVENUE-svg"><text transform="rotate(-70.21897599166569, 241.62847900390625, 404.38702392578125) translate(241.62847900390625, 398.88702392578125)" style="text-anchor: middle;"><tspan x="0" y="10" style="font-family: Roboto; font-weight: 400; font-stretch: 100%; font-size: 10px; stroke: rgb(255, 255, 255); stroke-width: 2; stroke-linejoin: round; stroke-linecap: round;">OAK AVENUE</tspan></text><text transform="rotate(-70.21897599166569, 241.62848, 404.38702) translate(241.62847900390625, 398.88702392578125)" style="text-anchor: middle;"><tspan fill="rgb(136, 136, 136)" x="0" y="10" style="font-family: Roboto; font-weight: 400; font-stretch: 100%; font-size: 10px;">OAK AVENUE</tspan></text></g><g id="EAST-svg 5TH-svg STREET-svg"><text transform="rotate(20.632923135563765, 431.3170166015625, 363.20941162109375) translate(431.3170166015625, 357.70941162109375)" style="text-anchor: middle;"><tspan x="0" y="10" style="font-family: Roboto; font-weight: 400; font-stretch: 100%; font-size: 10px; stroke: rgb(255, 255, 255); stroke-width: 2; stroke-linejoin: round; stroke-linecap: round;">EAST 5TH STREET</tspan></text><text transform="rotate(20.632923135563765, 431.31702, 363.20941) translate(431.3170166015625, 357.70941162109375)" style="text-anchor: middle;"><tspan fill="rgb(136, 136, 136)" x="0" y="10" style="font-family: Roboto; font-weight: 400; font-stretch: 100%; font-size: 10px;">EAST 5TH STREET</tspan></text></g></g><g id="Neoga-svg"><text transform="translate(284.0078125, 248.609375)" style="text-anchor: middle;"><tspan x="0" y="14" style="font-family: Roboto; font-weight: 400; font-stretch: 100%; font-size: 14px; stroke: rgb(242, 243, 240); stroke-width: 2; stroke-linejoin: round; stroke-linecap: round;">Neoga</tspan></text><text transform="translate(284.0078125, 248.609375)" style="text-anchor: middle;"><tspan fill="rgb(51,51,51)" x="0" y="14" style="font-family: Roboto; font-weight: 400; font-stretch: 100%; font-size: 14px;">Neoga</tspan></text></g><g id="svg-marker-svg" transform="translate(284, 257)"><g id="svg-id-2gGtvSfb2r-svg" transform="translate(-14, -14)"/></g><rect width="156.96875" height="14" transform="translate(443.03125, 433)" fill="rgba(255,255,255,0.73)" style="fill: rgb(255, 255, 255); fill-opacity: 0.73;"/><text transform="translate(447, 434)"><tspan fill="rgba(119,119,119,0.87)" x="0" y="11" style="font-family: Roboto; font-weight: 400; font-stretch: 100%; font-size: 11px;">©</tspan><tspan fill="rgba(119,119,119,0.87)" dx="2.734375" style="font-family: Roboto; font-weight: 400; font-stretch: 100%; font-size: 11px;">OpenStreetMap</tspan><tspan fill="rgba(119,119,119,0.87)" dx="2.734375" style="font-family: Roboto; font-weight: 400; font-stretch: 100%; font-size: 11px;">contributors</tspan></text></g></g></g></g><g id="container-svg container-footer-svg datawrapper-ipaD4-1la8dcw-svg"><text transform="translate(0, 467)"><tspan fill="rgb(136,136,136)" x="0" y="11" style="font-family: Roboto; font-weight: 400; font-stretch: 100%; font-size: 11px;">Created with</tspan><tspan fill="rgb(136,136,136)" dx="2.734375" style="font-family: Roboto; font-weight: 400; font-stretch: 100%; font-size: 11px;">Datawrapper</tspan></text></g></g></g></g></svg>