<svg xmlns="http://www.w3.org/2000/svg" xmlns:xlink="http://www.w3.org/1999/xlink" id="exportSvg" width="600" height="483"><defs/><g><g id="__svelte-dw-svg" clip-path="url(#rect-mask-zTauinTaFxlxVD7CGKbGP)"><clipPath id="rect-mask-zTauinTaFxlxVD7CGKbGP"><rect x="0" y="0" width="600" height="483"/></clipPath><g id="container-svg container-body-svg datawrapper-CndaE-1gvfeww-svg"><g id="container-svg container-bodyTop-svg datawrapper-CndaE-lmtz6e-svg"><g id="container-svg container-bodyCenter-svg datawrapper-CndaE-1fgvipr-svg"><g id="chart-svg"><g id="container-inner-svg export-group-svg maplibregl-map-svg" clip-path="url(#rect-mask-NtyoXZ3NvDlmeizZSc7x4)"><clipPath id="rect-mask-NtyoXZ3NvDlmeizZSc7x4"><rect x="0" y="0" width="600" height="450"/></clipPath><g id="basemap-svg" clip-path="url(#rect-mask-4F2IFN2hQ89khJmZzq9Km)"><clipPath id="rect-mask-4F2IFN2hQ89khJmZzq9Km"><rect x="0" y="0" width="600" height="450"/></clipPath><rect width="600" height="450" transform="translate(0, 0)" fill="rgb(255,255,255)" id="background" style="fill: rgb(255, 255, 255);"/><path d="M321.789,201.743L314.185,243.789L332.822,247.368L350.416,250.201L358.021,207.558" stroke="rgb(231,231,231)" id="road_path" transform="translate(0.5, 0)" style="fill: none; stroke-width: 1.02793; stroke-linejoin: bevel; stroke-linecap: square; stroke-dasharray: 0.75595, 1.88988; stroke: rgb(231, 231, 231);"/><path d="M235.608,184.745L233.819,182.956L233.819,180.421L235.608,167.748L239.932,142.549L240.379,140.015L244.703,114.369M416.468,72.77L416.468,65.613L416.021,50.405L414.679,11.489M102.013,278.977L100.522,232.607L100.522,230.519L100.224,227.388L99.18,201.743L98.733,181.614L98.435,150.452M69.807,209.645L59.966,206.514L52.362,204.874L43.863,204.725L40.732,203.532L38.347,202.339L34.172,199.357L28.655,197.121L23.138,197.568L20.007,200.252L18.814,204.427L18.218,212.627L18.665,230.967M244.703,114.369L246.194,109.449L248.878,96.924L249.922,90.662L257.973,39.371L257.377,34.451L257.377,31.916L257.675,29.232L257.675,19.69M227.706,336.381L229.346,327.584L237.397,282.258M221.145,374.701L222.189,368.289L224.127,358.15L226.513,343.091L229.346,327.584L231.135,317.296M137.35,277.934L136.605,257.209L136.455,244.535L135.561,229.625L135.263,208.601L134.666,195.779L134.517,180.421M103.355,322.962L102.162,281.214L102.013,278.977M270.945,336.381L271.094,335.189L273.331,322.664L278.848,289.564M263.341,382.156L263.937,378.428L264.236,375.744L267.218,358.15L268.709,348.011L271.094,335.189L273.331,322.664L274.225,317.296M320.745,59.649L320.149,57.114L318.061,55.623L312.992,54.43L300.467,52.492L278.997,48.466L272.734,47.422L267.814,46.528L262.894,45.037L260.806,43.546L259.017,41.757L257.973,39.371M70.851,231.265L69.807,212.329L69.807,209.645L69.36,182.359L69.211,177.737L68.465,172.668L67.72,170.282L66.527,168.046L64.738,166.107L62.65,164.765L60.414,163.573L58.028,162.976L55.493,162.827L52.959,162.976L42.969,164.765L27.76,166.257L17.621,167.897L12.999,169.984L11.21,171.624L9.868,173.712L9.421,176.246L9.272,181.316L10.017,212.18L10.017,217.249L10.316,230.668M237.397,282.258L245.747,234.545L250.816,204.277L253.948,188.025L256.184,174.01L261.552,145.084L265.578,123.613L269.603,100.95L270.945,94.837L273.182,80.821L276.611,60.543L277.655,55.474L278.997,48.466M404.242,214.715L398.278,213.522L381.728,210.689L380.833,210.54L362.195,206.961L348.18,204.427L340.576,203.383L320.447,200.103M172.389,277.039L170.451,229.028M312.843,103.485L313.737,97.521L320.745,59.649M339.383,17.453L341.023,17.304L353.547,17.453L356.082,17.602L359.661,17.751L364.432,19.093L369.501,23.417M139.438,336.381L139.438,333.996L138.99,322.813L138.692,318.638L137.947,292.993L137.35,277.934M144.358,384.243L139.885,350.993L139.438,333.996L138.99,322.813L138.692,318.638L138.692,317.296M76.069,336.381L75.622,323.857L74.877,311.78L74.28,293.888L73.982,286.283L73.833,280.767M77.56,379.472L77.709,376.937L77.56,369.184L77.113,356.361L76.218,341.004L75.622,323.857L75.175,317.296M173.731,336.381L173.731,335.934L173.731,322.068L173.134,295.08L172.389,282.407L172.389,277.039M174.476,350.695L173.731,335.934L173.731,322.068L173.582,317.296M257.675,19.69L261.403,-22.506L278.848,-26.83M209.664,336.381L209.068,323.41L209.068,321.77L206.981,276.741M217.865,551.386L215.927,494.429L214.137,453.426L213.094,422.711L212.348,409.889L211.901,392.742L211.603,379.025L211.155,373.21L210.41,355.019L209.068,323.41L209.068,321.77L208.919,317.296M320.149,57.114L323.876,55.027L326.56,52.343L329.393,47.273L330.586,42.204L331.331,33.556L332.822,17.453M303.897,293.589L305.686,293.738L324.025,296.571L333.27,298.659L345.198,300.597L357.871,302.834L382.175,307.307L387.692,308.201L406.479,311.631L414.977,313.122L421.24,314.314L456.428,320.875L466.567,322.664L474.32,324.006M455.235,320.726L456.428,320.875L466.567,322.664L476.407,324.453L489.081,326.839L493.107,326.988L496.685,327.137L563.184,324.901L606.126,323.857L608.959,323.41L614.028,322.813L616.563,322.366L618.948,321.77L621.334,320.875L623.272,319.384L625.956,314.911M455.235,320.726L456.428,320.875L466.567,322.664L476.407,324.453L489.081,326.839L493.107,326.988L496.685,327.137L563.184,324.901L606.126,323.857L608.959,323.41L614.028,322.813L616.563,322.366L618.948,321.77L621.334,320.875L623.272,319.384L624.465,317.296M116.476,336.381L116.178,327.435L116.327,322.962M118.861,349.95L117.37,347.862L116.774,345.328L116.178,327.435L116.327,322.962M474.32,275.846L460.006,273.461L414.53,264.962L409.759,264.067L397.234,261.831L395.892,261.682L392.314,261.085L377.106,258.401L373.527,257.656L357.126,254.823L353.249,254.226L349.522,253.481L332.226,250.35L319.254,248.262L311.501,246.324M624.018,268.54L617.756,269.584L611.344,270.18L589.724,272.566L571.832,274.355L531.128,275.697L510.701,276.294L491.616,277.039L485.204,277.039L480.135,276.741L460.006,273.461L455.235,272.566M416.468,72.77L410.504,72.322L397.831,70.533L392.761,69.639L387.394,67.999L378.895,66.209L368.905,64.122L365.177,63.675L360.257,62.482L352.653,61.289L345.645,59.798M198.184,21.926L194.307,-84.234L194.307,-87.067L191.921,-164.451L189.834,-215.593L189.685,-221.855L187.597,-281.048L187.299,-293.424M311.501,246.324L300.765,244.535L299.274,244.237L287.346,242.298M370.098,161.187L364.581,160.143L362.046,159.547L352.056,157.31L348.627,156.714L336.997,154.179L328.946,152.39M378,114.22L372.632,113.624L356.828,110.642L352.504,109.747L347.583,109.001L342.514,108.405L336.699,107.063M376.36,336.381L378.149,326.988L382.175,307.307M373.676,769.969L373.229,754.761L371.738,722.704L369.501,658.59L368.905,647.557L367.116,584.188L366.072,549.597L365.028,519.926L364.432,506.656L363.686,478.624L363.09,465.354L362.195,436.578L362.195,411.081L362.792,406.31L363.985,400.495L371.141,357.703L372.036,353.677L372.632,351.739L375.615,339.811L378.149,326.988L380.088,317.296M387.692,308.201L388.885,300.746L395.892,261.682L404.242,214.715L410.653,177.141L414.381,156.714L415.276,151.943L417.512,126.446L417.661,100.801L417.214,91.258L416.468,72.77M244.703,114.369L240.827,114.369L225.618,115.264L201.613,116.158M-64.384,25.654L-61.85,24.014L-58.719,23.864L98.733,23.417L162.697,22.821L198.184,21.926L213.094,20.733L238.739,19.988L253.948,19.839L257.675,19.69L284.663,18.944L310.159,17.9L330.437,17.453L339.383,17.453M338.637,336.381L340.427,327.137L341.619,320.278L344.9,302.088L345.198,300.597M322.534,425.395L328.498,393.189L331.63,374.999L336.103,349.801L336.699,347.117L336.997,344.582L340.427,327.137L341.619,320.278L342.216,317.296M278.848,289.564L279.593,287.029L281.531,271.97L283.321,261.682L287.346,242.298L291.372,221.275L294.951,203.681L296.143,195.48L297.336,188.473L303.598,153.136L303.748,152.092L308.37,127.937L312.843,103.485M206.981,276.741L205.788,227.985L204.893,209.794L204.744,202.041L203.849,179.527L201.613,116.158L201.613,109.896L198.184,21.926M312.843,103.485L291.819,98.564L279.146,96.03L274.076,95.582L270.945,94.837L249.922,90.662M170.451,229.028L169.258,200.55L168.811,179.825M345.198,300.597L345.794,296.87L353.249,254.226L356.977,233.8L362.195,206.961L363.09,201.146L367.712,175.948L370.098,161.187L371.141,155.819L372.931,143.295L378,114.22L386.052,72.472L387.394,67.999M287.346,242.298L267.218,238.72L245.747,234.545L223.829,230.818L211.752,228.73L205.788,227.985L197.736,228.432L188.045,228.581L185.063,228.581L170.451,229.028L153.006,229.177L144.209,229.326L139.139,229.476L135.561,229.625L128.851,229.923L117.52,230.221L100.522,230.519L70.851,231.265L58.326,231.265L42.82,230.818L27.462,230.967L18.665,230.967L10.316,230.668L5.544,230.818L-7.278,230.221L-47.983,228.879L-59.315,229.028M300.765,197.717L296.143,195.48L280.488,192.647L274.524,191.306L255.737,188.174L253.948,188.025L238.292,185.192L235.608,184.745L232.775,184.298L203.849,179.527M69.36,182.359L76.964,182.359L92.172,181.614L98.733,181.614L110.064,181.167L116.178,180.868L127.808,180.57L134.517,180.421L151.067,180.123L163.592,179.825L168.811,179.825L185.957,179.527L203.849,179.527M209.068,321.77L190.728,321.919L176.266,322.217L173.731,322.068L171.047,322.366L155.54,322.515L148.085,322.515L138.99,322.813L124.527,323.111L116.327,322.962L113.494,323.111L108.275,322.813L103.355,322.962L80.244,323.559L75.622,323.857M271.094,335.189L261.552,333.399L250.667,331.461L246.492,330.716L229.346,327.584L216.374,325.497L211.305,324.155L209.068,323.41M271.094,335.189L261.552,333.399L250.667,331.461L246.492,330.716L229.346,327.584L216.374,325.497L211.305,324.155L209.068,323.41M303.748,152.092L261.552,145.084M232.775,184.298L223.829,230.818M414.977,313.122L411.25,336.381M414.381,317.296L411.101,337.574L412.89,348.161L411.25,354.721L406.031,358.15L372.632,351.739M443.605,114.816L442.859,90.215L442.263,69.042L441.816,49.063L461.05,48.317L474.32,47.87M455.235,48.615L461.05,48.317L478.644,47.721L482.222,51.299L482.52,56.816L483.117,67.551L483.713,76.05L479.687,81.567L478.346,88.873M441.816,49.063L420.941,49.957L421.836,69.937M463.137,114.369L462.392,89.469L461.944,68.297L461.05,48.317M474.32,67.849L461.944,68.297L442.263,69.042L421.836,69.937L421.985,91.109L423.476,115.264M483.117,67.551L461.944,68.297L455.235,68.595M471.636,117.202L469.996,114.22L463.137,114.369L443.605,114.816L423.476,115.264L423.178,131.069L427.502,136.734L432.422,136.287L433.466,134.647M471.636,117.202L469.996,114.22L463.137,114.369L455.235,114.518M417.214,91.258L421.985,91.109L442.859,90.215L462.392,89.469L474.32,89.022M474.32,115.115L471.636,117.202L470.592,128.534L468.505,135.094L460.602,140.462L452.402,139.269L433.466,134.647L436.001,124.806L440.026,120.631L449.122,120.333L461.05,119.439L471.636,117.202M455.235,89.767L462.392,89.469L478.346,88.873L479.986,108.405L477.004,113.027L471.636,117.202L470.592,128.534L468.505,135.094L460.602,140.462L455.235,139.716M455.235,119.886L461.05,119.439L471.636,117.202M410.355,288.371L406.479,311.631M474.32,299.106L410.355,288.371L414.53,264.962M492.361,302.088L455.235,295.826M357.871,302.834L359.362,296.273L361.599,286.134L361.599,285.836L361.301,285.389L360.704,284.792L356.679,284.047L356.082,284.047L355.635,284.345L355.038,284.941L354.74,285.389L353.249,293.738L353.249,294.335L353.398,294.782L353.697,295.08L354.442,295.379L359.362,296.273M189.387,276.592L188.045,228.581L185.957,179.527M365.177,63.675L356.828,110.642L356.38,114.518L349.224,152.241L348.627,156.714L340.576,203.383L340.128,205.172L332.822,247.368L332.226,250.35L324.025,296.571L317.316,336.381M320.596,317.296L316.123,343.837L315.527,345.924L307.624,389.76M151.067,180.123L153.006,229.177L154.348,277.486L155.54,322.515M190.728,321.919L191.325,336.381M190.728,321.919L192.07,355.168M116.178,180.868L117.52,230.221M378.149,326.988L341.619,320.278M378.149,326.988L341.619,320.278M373.527,257.656L381.728,210.689L396.638,124.955L397.085,120.631L394.401,116.606L378,114.22M420.941,49.957L416.021,50.405M274.524,191.306L273.927,194.288L273.48,199.357L272.734,204.427L269.603,224.704L267.218,238.72L265.279,249.903L258.719,285.985L253.053,317.744L250.667,331.461L249.624,336.381M253.202,317.296L253.053,317.744L250.667,331.461L249.325,337.872L246.492,355.616L244.554,365.754L242.467,378.577M117.52,230.221L119.16,278.083M541.565,7.761L540.968,-46.81L538.434,-137.464L535.899,-228.863M604.784,-231.398L567.061,-231.398L535.899,-228.863L492.958,-228.863L494.001,-135.525L494.896,-44.871L496.238,9.402M303.897,293.589L305.686,293.738L324.025,296.571L333.27,298.659L345.198,300.597L357.871,302.834L382.175,307.307L387.692,308.201L406.479,311.631L414.977,313.122L421.24,314.314L456.428,320.875L466.567,322.664L474.32,324.006M455.235,320.726L456.428,320.875L466.567,322.664L476.407,324.453L489.081,326.839L493.107,326.988L496.685,327.137L563.184,324.901L606.126,323.857L608.959,323.41L614.028,322.813L616.563,322.366L618.948,321.77L621.334,320.875L623.272,319.384L625.956,314.911M455.235,320.726L456.428,320.875L466.567,322.664L476.407,324.453L489.081,326.839L493.107,326.988L496.685,327.137L563.184,324.901L606.126,323.857L608.959,323.41L614.028,322.813L616.563,322.366L618.948,321.77L621.334,320.875L623.272,319.384L624.465,317.296M474.32,275.846L460.006,273.461L414.53,264.962L409.759,264.067L397.234,261.831L395.892,261.682L392.314,261.085L377.106,258.401L373.527,257.656L357.126,254.823L353.249,254.226L349.522,253.481L332.226,250.35L319.254,248.262L311.501,246.324M624.018,268.54L617.756,269.584L611.344,270.18L589.724,272.566L571.832,274.355L531.128,275.697L510.701,276.294L491.616,277.039L485.204,277.039L480.135,276.741L460.006,273.461L455.235,272.566M574.516,6.121L589.575,6.718L599.416,6.42L614.774,5.376L628.044,5.078L744.045,-0.439L838.426,-4.912L875.403,-6.552L885.393,-7L1083.102,-16.393L1085.04,-16.542M492.958,336.381L493.107,326.988L492.958,321.919L492.51,311.631L492.51,309.692L492.361,302.088L491.914,283.599L491.616,277.039L491.616,266.005M495.045,405.863L495.194,393.637L492.958,339.662L493.107,326.988L492.958,321.919L492.808,317.296M514.13,56.219L514.726,76.05M482.52,56.816L514.13,56.219L546.187,55.623L546.932,73.068L543.95,76.05L483.713,76.05M474.32,67.849L461.944,68.297L442.263,69.042L421.836,69.937L421.985,91.109L423.476,115.264M483.117,67.551L461.944,68.297L455.235,68.595M471.636,117.202L469.996,114.22L463.137,114.369L443.605,114.816L423.476,115.264L423.178,131.069L427.502,136.734L432.422,136.287L433.466,134.647M471.636,117.202L469.996,114.22L463.137,114.369L455.235,114.518M417.214,91.258L421.985,91.109L442.859,90.215L462.392,89.469L474.32,89.022M474.32,115.115L471.636,117.202L470.592,128.534L468.505,135.094L460.602,140.462L452.402,139.269L433.466,134.647L436.001,124.806L440.026,120.631L449.122,120.333L461.05,119.439L471.636,117.202M455.235,89.767L462.392,89.469L478.346,88.873L479.986,108.405L477.004,113.027L471.636,117.202L470.592,128.534L468.505,135.094L460.602,140.462L455.235,139.716M455.235,119.886L461.05,119.439L471.636,117.202M474.32,299.106L410.355,288.371L414.53,264.962M492.361,302.088L455.235,295.826M443.605,114.816L442.859,90.215L442.263,69.042L441.816,49.063L461.05,48.317L474.32,47.87M455.235,48.615L461.05,48.317L478.644,47.721L482.222,51.299L482.52,56.816L483.117,67.551L483.713,76.05L479.687,81.567L478.346,88.873M139.438,336.381L139.438,333.996L138.99,322.813L138.692,318.638L137.947,292.993L137.35,277.934M144.358,384.243L139.885,350.993L139.438,333.996L138.99,322.813L138.692,318.638L138.692,317.296M76.069,336.381L75.622,323.857L74.877,311.78L74.28,293.888L73.982,286.283L73.833,280.767M77.56,379.472L77.709,376.937L77.56,369.184L77.113,356.361L76.218,341.004L75.622,323.857L75.175,317.296M173.731,336.381L173.731,335.934L173.731,322.068L173.134,295.08L172.389,282.407L172.389,277.039M174.476,350.695L173.731,335.934L173.731,322.068L173.582,317.296M116.476,336.381L116.178,327.435L116.327,322.962M118.861,349.95L117.37,347.862L116.774,345.328L116.178,327.435L116.327,322.962M268.56,382.901L266.919,382.603L263.341,382.156L258.868,381.261L246.343,379.174L242.467,378.577L221.145,374.701L218.76,374.402L216.076,373.955L211.155,373.21M376.36,336.381L378.149,326.988L382.175,307.307M373.676,769.969L373.229,754.761L371.738,722.704L369.501,658.59L368.905,647.557L367.116,584.188L366.072,549.597L365.028,519.926L364.432,506.656L363.686,478.624L363.09,465.354L362.195,436.578L362.195,411.081L362.792,406.31L363.985,400.495L371.141,357.703L372.036,353.677L372.632,351.739L375.615,339.811L378.149,326.988L380.088,317.296M372.036,353.677L353.249,350.248L336.699,347.117L320.596,344.731L316.123,343.837L312.992,343.389L305.537,341.898L303.002,341.451L295.696,340.109M338.637,336.381L340.427,327.137L341.619,320.278L344.9,302.088L345.198,300.597M322.534,425.395L328.498,393.189L331.63,374.999L336.103,349.801L336.699,347.117L336.997,344.582L340.427,327.137L341.619,320.278L342.216,317.296M209.664,336.381L209.068,323.41L209.068,321.77L206.981,276.741M217.865,551.386L215.927,494.429L214.137,453.426L213.094,422.711L212.348,409.889L211.901,392.742L211.603,379.025L211.155,373.21L210.41,355.019L209.068,323.41L209.068,321.77L208.919,317.296M348.031,397.662L362.792,406.31L367.563,408.994L373.378,410.336L384.262,410.336L474.32,406.757M455.235,407.503L495.045,405.863L523.672,404.968L583.015,402.881L628.64,399.75L669.792,397.215L677.844,396.917M268.56,382.901L274.375,383.945L276.015,384.243L282.128,385.436L287.645,386.032L307.624,389.76L328.498,393.189L343.707,396.32L348.031,397.662L363.985,400.495M271.094,335.189L261.552,333.399L250.667,331.461L246.492,330.716L229.346,327.584L216.374,325.497L211.305,324.155L209.068,323.41M271.094,335.189L261.552,333.399L250.667,331.461L246.492,330.716L229.346,327.584L216.374,325.497L211.305,324.155L209.068,323.41M227.706,336.381L229.346,327.584L237.397,282.258M221.145,374.701L222.189,368.289L224.127,358.15L226.513,343.091L229.346,327.584L231.135,317.296M270.945,336.381L271.094,335.189L273.331,322.664L278.848,289.564M263.341,382.156L263.937,378.428L264.236,375.744L267.218,358.15L268.709,348.011L271.094,335.189L273.331,322.664L274.225,317.296M210.41,355.019L196.693,355.168L192.07,355.168L184.019,355.019L181.484,354.721L179.099,353.826L176.862,352.634L174.476,350.695L172.091,350.844L169.556,350.695L149.129,350.993L139.885,350.993L126.317,351.292L123.782,351.292L121.098,350.993L118.861,349.95M414.977,313.122L411.25,336.381M414.381,317.296L411.101,337.574L412.89,348.161L411.25,354.721L406.031,358.15L372.632,351.739M190.728,321.919L191.325,336.381M190.728,321.919L192.07,355.168M378.149,326.988L341.619,320.278M378.149,326.988L341.619,320.278M322.534,425.395L320.745,436.429L323.876,443.586L330.884,447.015L335.953,449.848L340.874,462.372L344.9,464.311M274.524,191.306L273.927,194.288L273.48,199.357L272.734,204.427L269.603,224.704L267.218,238.72L265.279,249.903L258.719,285.985L253.053,317.744L250.667,331.461L249.624,336.381M253.202,317.296L253.053,317.744L250.667,331.461L249.325,337.872L246.492,355.616L244.554,365.754L242.467,378.577M365.177,63.675L356.828,110.642L356.38,114.518L349.224,152.241L348.627,156.714L340.576,203.383L340.128,205.172L332.822,247.368L332.226,250.35L324.025,296.571L317.316,336.381M320.596,317.296L316.123,343.837L315.527,345.924L307.624,389.76M303.897,293.589L305.686,293.738L324.025,296.571L333.27,298.659L345.198,300.597L357.871,302.834L382.175,307.307L387.692,308.201L406.479,311.631L414.977,313.122L421.24,314.314L456.428,320.875L466.567,322.664L474.32,324.006M455.235,320.726L456.428,320.875L466.567,322.664L476.407,324.453L489.081,326.839L493.107,326.988L496.685,327.137L563.184,324.901L606.126,323.857L608.959,323.41L614.028,322.813L616.563,322.366L618.948,321.77L621.334,320.875L623.272,319.384L625.956,314.911M455.235,320.726L456.428,320.875L466.567,322.664L476.407,324.453L489.081,326.839L493.107,326.988L496.685,327.137L563.184,324.901L606.126,323.857L608.959,323.41L614.028,322.813L616.563,322.366L618.948,321.77L621.334,320.875L623.272,319.384L624.465,317.296M348.031,397.662L362.792,406.31L367.563,408.994L373.378,410.336L384.262,410.336L474.32,406.757M455.235,407.503L495.045,405.863L523.672,404.968L583.015,402.881L628.64,399.75L669.792,397.215L677.844,396.917M492.958,336.381L493.107,326.988L492.958,321.919L492.51,311.631L492.51,309.692L492.361,302.088L491.914,283.599L491.616,277.039L491.616,266.005M495.045,405.863L495.194,393.637L492.958,339.662L493.107,326.988L492.958,321.919L492.808,317.296" stroke="rgb(231,231,231)" id="road_minor" transform="translate(0.5, 0)" style="fill: none; stroke-width: 2.62368; stroke-linejoin: round; stroke-linecap: round; stroke: rgb(231, 231, 231);"/><path d="M414.679,11.489L465.523,10.594L474.32,10.296M455.235,10.743L465.523,10.594L496.238,9.402L541.565,7.761L566.316,6.867L574.516,6.121M290.776,291.353L285.557,290.458L283.768,290.16L278.848,289.564M278.848,289.564L258.719,285.985L237.397,282.258L206.981,276.741L193.86,276.443L189.387,276.592L172.389,277.039L154.348,277.486L137.35,277.934L119.16,278.083L102.013,278.977L78.902,279.872L73.833,280.767L66.378,283.599L56.984,287.774L52.064,289.265L49.529,289.713L46.995,290.011L-57.078,291.949L-155.486,292.993M296.292,336.381L303.897,293.589M254.842,570.918L258.421,550.939L269.305,491.298L283.768,407.056L287.645,386.032L295.696,340.109L299.722,317.296M303.897,293.589L311.501,246.324L320.447,200.103L328.946,152.39L336.699,107.063L345.645,59.798L347.882,51.448L350.416,45.484L353.697,40.266L357.126,35.643L362.046,29.978L369.501,23.417M369.501,23.417L381.28,17.006L391.27,13.726L406.628,11.936L414.679,11.489M303.897,293.589L298.082,292.695L292.416,291.651L290.776,291.353M414.679,11.489L465.523,10.594L474.32,10.296M455.235,10.743L465.523,10.594L496.238,9.402L541.565,7.761L566.316,6.867L574.516,6.121M574.516,6.121L581.822,2.99L586.295,0.754L590.768,-1.781L594.794,-5.21L598.372,-8.64L601.653,-12.516L604.486,-16.84L606.871,-21.612L608.959,-26.234L610.897,-31.154L611.642,-51.73L611.642,-52.923L610.897,-72.306L608.213,-140.744L604.784,-231.398L602.696,-283.136L602.249,-293.424M296.292,336.381L303.897,293.589M254.842,570.918L258.421,550.939L269.305,491.298L283.768,407.056L287.645,386.032L295.696,340.109L299.722,317.296" stroke="rgb(231,231,231)" id="road_primary" transform="translate(0.5, 0)" style="fill: none; stroke-width: 4.53887; stroke-linejoin: round; stroke-linecap: round; stroke: rgb(231, 231, 231);"/><path d="M290.776,291.353L285.557,290.458L283.768,290.16L278.848,289.564M278.848,289.564L258.719,285.985L237.397,282.258L206.981,276.741L193.86,276.443L189.387,276.592L172.389,277.039L154.348,277.486L137.35,277.934L119.16,278.083L102.013,278.977L78.902,279.872L73.833,280.767L66.378,283.599L56.984,287.774L52.064,289.265L49.529,289.713L46.995,290.011L-57.078,291.949L-155.486,292.993M303.897,293.589L298.082,292.695L292.416,291.651L290.776,291.353" stroke="rgb(231,231,231)" id="road_trunk" transform="translate(0.5, 0)" style="fill: none; stroke-width: 4.53887; stroke-linejoin: round; stroke-linecap: round; stroke: rgb(231, 231, 231);"/><path d="M282.724,336.381L290.776,291.353L299.274,244.237L323.876,104.081L324.622,100.204L331.033,63.525L337.444,27.294L339.383,17.453L382.771,-225.732L394.849,-293.424M174.476,947.102L218.61,698.102L244.703,551.386L253.5,503.524L267.516,423.308L274.375,383.945L282.575,337.425L286.154,317.296M396.638,-293.424L384.561,-225.732L341.023,17.304L300.765,244.535L292.416,291.651L284.513,336.381M287.943,317.296L276.015,384.243L269.007,423.606L175.967,947.102M324.622,100.204L325.665,92.004L325.964,83.356L323.578,63.376L323.876,55.027L324.92,49.808L330.437,17.453L339.532,-33.241M396.638,-293.424L384.561,-225.732L341.023,17.304L300.765,244.535L292.416,291.651L284.513,336.381M287.943,317.296L276.015,384.243L269.007,423.606L175.967,947.102M282.724,336.381L290.776,291.353L299.274,244.237L323.876,104.081L324.622,100.204L331.033,63.525L337.444,27.294L339.383,17.453L382.771,-225.732L394.849,-293.424M174.476,947.102L218.61,698.102L244.703,551.386L253.5,503.524L267.516,423.308L274.375,383.945L282.575,337.425L286.154,317.296" stroke="rgb(157,157,157)" id="railway" transform="translate(0.5, 0)" style="fill: none; stroke-width: 1; stroke-opacity: 0.650874; stroke-linejoin: miter; stroke-linecap: butt; stroke: rgb(157, 157, 157);"/><g id="N-svg FRONT-svg ST.-svg"><text transform="rotate(-80.29376226683763, 332.5373840332031, 131.39346313476562) translate(332.5373840332031, 125.89346313476562)" style="text-anchor: middle;"><tspan x="0" y="10" style="font-family: Roboto; font-weight: 400; font-stretch: 100%; font-size: 10px; stroke: rgb(255, 255, 255); stroke-width: 2; stroke-linejoin: round; stroke-linecap: round;">N FRONT ST.</tspan></text><text transform="rotate(-80.29376226683763, 332.53738, 131.39346) translate(332.5373840332031, 125.89346313476562)" style="text-anchor: middle;"><tspan fill="rgb(136, 136, 136)" x="0" y="10" style="font-family: Roboto; font-weight: 400; font-stretch: 100%; font-size: 10px;">N FRONT ST.</tspan></text></g><g id="W-svg SEMINARY-svg AVE.-svg"><text transform="rotate(-20.039849461800696, 58.00449752807617, 287.3204345703125) translate(58.00449752807617, 281.8204345703125)" style="text-anchor: middle;"><tspan x="0" y="10" style="font-family: Roboto; font-weight: 400; font-stretch: 100%; font-size: 10px; stroke: rgb(255, 255, 255); stroke-width: 2; stroke-linejoin: round; stroke-linecap: round;">W SEMINARY AVE.</tspan></text><text transform="rotate(-20.039849461800696, 58.0045, 287.32043) translate(58.00449752807617, 281.8204345703125)" style="text-anchor: middle;"><tspan fill="rgb(136, 136, 136)" x="0" y="10" style="font-family: Roboto; font-weight: 400; font-stretch: 100%; font-size: 10px;">W SEMINARY AVE.</tspan></text></g><g id="S-svg OAK-svg ST.-svg"><text transform="rotate(-80.00201727449446, 299.2836608886719, 319.75811767578125) translate(299.2836608886719, 314.25811767578125)" style="text-anchor: middle;"><tspan x="0" y="10" style="font-family: Roboto; font-weight: 400; font-stretch: 100%; font-size: 10px; stroke: rgb(255, 255, 255); stroke-width: 2; stroke-linejoin: round; stroke-linecap: round;">S OAK ST.</tspan></text><text transform="rotate(-80.00201727449446, 299.28366, 319.75812) translate(299.2836608886719, 314.25811767578125)" style="text-anchor: middle;"><tspan fill="rgb(136, 136, 136)" x="0" y="10" style="font-family: Roboto; font-weight: 400; font-stretch: 100%; font-size: 10px;">S OAK ST.</tspan></text></g><g id="E-svg LINCOLN-svg AVE.-svg"><text transform="rotate(9.592806179852241, 397.634521484375, 261.9024963378906) translate(397.634521484375, 256.4024963378906)" style="text-anchor: middle;"><tspan x="0" y="10" style="font-family: Roboto; font-weight: 400; font-stretch: 100%; font-size: 10px; stroke: rgb(255, 255, 255); stroke-width: 2; stroke-linejoin: round; stroke-linecap: round;">E LINCOLN AVE.</tspan></text><text transform="rotate(9.592806179852241, 397.63452, 261.9025) translate(397.634521484375, 256.4024963378906)" style="text-anchor: middle;"><tspan fill="rgb(136, 136, 136)" x="0" y="10" style="font-family: Roboto; font-weight: 400; font-stretch: 100%; font-size: 10px;">E LINCOLN AVE.</tspan></text></g><g id="N-svg ELM-svg ST.-svg"><text transform="rotate(87.6688382235278, 99.70870208740234, 214.730224609375) translate(99.70870208740234, 209.230224609375)" style="text-anchor: middle;"><tspan x="0" y="10" style="font-family: Roboto; font-weight: 400; font-stretch: 100%; font-size: 10px; stroke: rgb(255, 255, 255); stroke-width: 2; stroke-linejoin: round; stroke-linecap: round;">N ELM ST.</tspan></text><text transform="rotate(87.6688382235278, 99.7087, 214.73022) translate(99.70870208740234, 209.230224609375)" style="text-anchor: middle;"><tspan fill="rgb(136, 136, 136)" x="0" y="10" style="font-family: Roboto; font-weight: 400; font-stretch: 100%; font-size: 10px;">N ELM ST.</tspan></text></g><g id="N-svg WALNUT-svg ST.-svg"><text transform="rotate(-79.48678024341866, 257.8024597167969, 165.28872680664062) translate(257.8024597167969, 159.78872680664062)" style="text-anchor: middle;"><tspan x="0" y="10" style="font-family: Roboto; font-weight: 400; font-stretch: 100%; font-size: 10px; stroke: rgb(255, 255, 255); stroke-width: 2; stroke-linejoin: round; stroke-linecap: round;">N WALNUT ST.</tspan></text><text transform="rotate(-79.48678024341866, 257.80246, 165.28873) translate(257.8024597167969, 159.78872680664062)" style="text-anchor: middle;"><tspan fill="rgb(136, 136, 136)" x="0" y="10" style="font-family: Roboto; font-weight: 400; font-stretch: 100%; font-size: 10px;">N WALNUT ST.</tspan></text></g><g id="S-svg ASH-svg ST.-svg"><text transform="rotate(88.33600058603929, 138.4971923828125, 311.9321594238281) translate(138.4971923828125, 306.4321594238281)" style="text-anchor: middle;"><tspan x="0" y="10" style="font-family: Roboto; font-weight: 400; font-stretch: 100%; font-size: 10px; stroke: rgb(255, 255, 255); stroke-width: 2; stroke-linejoin: round; stroke-linecap: round;">S ASH ST.</tspan></text><text transform="rotate(88.33600058603929, 138.49719, 311.93216) translate(138.4971923828125, 306.4321594238281)" style="text-anchor: middle;"><tspan fill="rgb(136, 136, 136)" x="0" y="10" style="font-family: Roboto; font-weight: 400; font-stretch: 100%; font-size: 10px;">S ASH ST.</tspan></text></g><g id="PLUM-svg STREET-svg"><text transform="rotate(-78.0031238457837, 247.6248321533203, 102.77197265625) translate(247.6248321533203, 97.27197265625)" style="text-anchor: middle;"><tspan x="0" y="10" style="font-family: Roboto; font-weight: 400; font-stretch: 100%; font-size: 10px; stroke: rgb(255, 255, 255); stroke-width: 2; stroke-linejoin: round; stroke-linecap: round;">PLUM STREET</tspan></text><text transform="rotate(-78.0031238457837, 247.62483, 102.77197) translate(247.6248321533203, 97.27197265625)" style="text-anchor: middle;"><tspan fill="rgb(136, 136, 136)" x="0" y="10" style="font-family: Roboto; font-weight: 400; font-stretch: 100%; font-size: 10px;">PLUM STREET</tspan></text></g><g id="N-svg POPLAR-svg ST.-svg"><text transform="rotate(-80.31721795955904, 408.2863464355469, 191.01171875) translate(408.2863464355469, 185.51171875)" style="text-anchor: middle;"><tspan x="0" y="10" style="font-family: Roboto; font-weight: 400; font-stretch: 100%; font-size: 10px; stroke: rgb(255, 255, 255); stroke-width: 2; stroke-linejoin: round; stroke-linecap: round;">N POPLAR ST.</tspan></text><text transform="rotate(-80.31721795955904, 408.28635, 191.01172) translate(408.2863464355469, 185.51171875)" style="text-anchor: middle;"><tspan fill="rgb(136, 136, 136)" x="0" y="10" style="font-family: Roboto; font-weight: 400; font-stretch: 100%; font-size: 10px;">N POPLAR ST.</tspan></text></g><g id="N-svg EVERGREEN-svg ST.-svg"><text transform="rotate(87.97909561232758, 202.78338623046875, 149.32708740234375) translate(202.78338623046875, 143.82708740234375)" style="text-anchor: middle;"><tspan x="0" y="10" style="font-family: Roboto; font-weight: 400; font-stretch: 100%; font-size: 10px; stroke: rgb(255, 255, 255); stroke-width: 2; stroke-linejoin: round; stroke-linecap: round;">N EVERGREEN ST.</tspan></text><text transform="rotate(87.97909561232758, 202.78339, 149.32709) translate(202.78338623046875, 143.82708740234375)" style="text-anchor: middle;"><tspan fill="rgb(136, 136, 136)" x="0" y="10" style="font-family: Roboto; font-weight: 400; font-stretch: 100%; font-size: 10px;">N EVERGREEN ST.</tspan></text></g><g id="N-svg CHESTNUT-svg ST.-svg"><text transform="rotate(-81.04293078314623, 295.9840087890625, 196.57394409179688) translate(295.9840087890625, 191.07394409179688)" style="text-anchor: middle;"><tspan x="0" y="10" style="font-family: Roboto; font-weight: 400; font-stretch: 100%; font-size: 10px; stroke: rgb(255, 255, 255); stroke-width: 2; stroke-linejoin: round; stroke-linecap: round;">N CHESTNUT ST.</tspan></text><text transform="rotate(-81.04293078314623, 295.98401, 196.57394) translate(295.9840087890625, 191.07394409179688)" style="text-anchor: middle;"><tspan fill="rgb(136, 136, 136)" x="0" y="10" style="font-family: Roboto; font-weight: 400; font-stretch: 100%; font-size: 10px;">N CHESTNUT ST.</tspan></text></g><g id="W-svg WASHINGTON-svg AVE.-svg"><text transform="rotate(-0.5338563243228633, 137.30992126464844, 23.05755043029785) translate(137.30992126464844, 17.55755043029785)" style="text-anchor: middle;"><tspan x="0" y="10" style="font-family: Roboto; font-weight: 400; font-stretch: 100%; font-size: 10px; stroke: rgb(255, 255, 255); stroke-width: 2; stroke-linejoin: round; stroke-linecap: round;">W WASHINGTON AVE.</tspan></text><text transform="rotate(-0.5338563243228633, 137.30992, 23.05755) translate(137.30992126464844, 17.55755043029785)" style="text-anchor: middle;"><tspan fill="rgb(136, 136, 136)" x="0" y="10" style="font-family: Roboto; font-weight: 400; font-stretch: 100%; font-size: 10px;">W WASHINGTON AVE.</tspan></text></g><g id="S-svg MAPLE-svg ST.-svg"><text transform="rotate(88.73272433358353, 173.49667358398438, 311.474853515625) translate(173.49667358398438, 305.974853515625)" style="text-anchor: middle;"><tspan x="0" y="10" style="font-family: Roboto; font-weight: 400; font-stretch: 100%; font-size: 10px; stroke: rgb(255, 255, 255); stroke-width: 2; stroke-linejoin: round; stroke-linecap: round;">S MAPLE ST.</tspan></text><text transform="rotate(88.73272433358353, 173.49667, 311.47485) translate(173.49667358398438, 305.974853515625)" style="text-anchor: middle;"><tspan fill="rgb(136, 136, 136)" x="0" y="10" style="font-family: Roboto; font-weight: 400; font-stretch: 100%; font-size: 10px;">S MAPLE ST.</tspan></text></g><g id="700-svg EAST-svg"><text transform="rotate(88.02501312908154, 415.7355041503906, 42.126136779785156) translate(415.7355041503906, 36.626136779785156)" style="text-anchor: middle;"><tspan x="0" y="10" style="font-family: Roboto; font-weight: 400; font-stretch: 100%; font-size: 10px; stroke: rgb(255, 255, 255); stroke-width: 2; stroke-linejoin: round; stroke-linecap: round;">700 EAST</tspan></text><text transform="rotate(88.02501312908154, 415.7355, 42.12614) translate(415.7355041503906, 36.626136779785156)" style="text-anchor: middle;"><tspan fill="rgb(136, 136, 136)" x="0" y="10" style="font-family: Roboto; font-weight: 400; font-stretch: 100%; font-size: 10px;">700 EAST</tspan></text></g><g id="N-svg ASH-svg ST.-svg"><text transform="rotate(88.00460665819801, 135.55484008789062, 229.189697265625) translate(135.55484008789062, 223.689697265625)" style="text-anchor: middle;"><tspan x="0" y="10" style="font-family: Roboto; font-weight: 400; font-stretch: 100%; font-size: 10px; stroke: rgb(255, 255, 255); stroke-width: 2; stroke-linejoin: round; stroke-linecap: round;">N ASH ST.</tspan></text><text transform="rotate(88.00460665819801, 135.55484, 229.1897) translate(135.55484008789062, 223.689697265625)" style="text-anchor: middle;"><tspan fill="rgb(136, 136, 136)" x="0" y="10" style="font-family: Roboto; font-weight: 400; font-stretch: 100%; font-size: 10px;">N ASH ST.</tspan></text></g><g id="N-svg LOCUST-svg ST.-svg"><text transform="rotate(-79.60585064937112, 366.1875915527344, 184.25868225097656) translate(366.1875915527344, 178.75868225097656)" style="text-anchor: middle;"><tspan x="0" y="10" style="font-family: Roboto; font-weight: 400; font-stretch: 100%; font-size: 10px; stroke: rgb(255, 255, 255); stroke-width: 2; stroke-linejoin: round; stroke-linecap: round;">N LOCUST ST.</tspan></text><text transform="rotate(-79.60585064937112, 366.18759, 184.25868) translate(366.1875915527344, 178.75868225097656)" style="text-anchor: middle;"><tspan fill="rgb(136, 136, 136)" x="0" y="10" style="font-family: Roboto; font-weight: 400; font-stretch: 100%; font-size: 10px;">N LOCUST ST.</tspan></text></g><g id="E-svg SEMINARY-svg AVE.-svg"><text transform="rotate(10.227474075866526, 393.9303283691406, 309.3399353027344) translate(393.9303283691406, 303.8399353027344)" style="text-anchor: middle;"><tspan x="0" y="10" style="font-family: Roboto; font-weight: 400; font-stretch: 100%; font-size: 10px; stroke: rgb(255, 255, 255); stroke-width: 2; stroke-linejoin: round; stroke-linecap: round;">E SEMINARY AVE.</tspan></text><text transform="rotate(10.227474075866526, 393.93033, 309.33994) translate(393.9303283691406, 303.8399353027344)" style="text-anchor: middle;"><tspan fill="rgb(136, 136, 136)" x="0" y="10" style="font-family: Roboto; font-weight: 400; font-stretch: 100%; font-size: 10px;">E SEMINARY AVE.</tspan></text></g><g id="E-svg 1500-svg RD.-svg NORTH-svg"><text transform="rotate(-2.0734082331485886, 510.1220703125, 8.899348258972168) translate(510.1220703125, 3.399348258972168)" style="text-anchor: middle;"><tspan x="0" y="10" style="font-family: Roboto; font-weight: 400; font-stretch: 100%; font-size: 10px; stroke: rgb(255, 255, 255); stroke-width: 2; stroke-linejoin: round; stroke-linecap: round;">E 1500 RD. NORTH</tspan></text><text transform="rotate(-2.0734082331485886, 510.12207, 8.89935) translate(510.1220703125, 3.399348258972168)" style="text-anchor: middle;"><tspan fill="rgb(136, 136, 136)" x="0" y="10" style="font-family: Roboto; font-weight: 400; font-stretch: 100%; font-size: 10px;">E 1500 RD. NORTH</tspan></text></g><g id="E-svg SEMINARY-svg AVE.-svg"><text transform="rotate(-1.9258890587206805, 537.1585083007812, 325.7760925292969) translate(537.1585083007812, 320.2760925292969)" style="text-anchor: middle;"><tspan x="0" y="10" style="font-family: Roboto; font-weight: 400; font-stretch: 100%; font-size: 10px; stroke: rgb(255, 255, 255); stroke-width: 2; stroke-linejoin: round; stroke-linecap: round;">E SEMINARY AVE.</tspan></text><text transform="rotate(-1.9258890587206805, 537.15851, 325.77609) translate(537.1585083007812, 320.2760925292969)" style="text-anchor: middle;"><tspan fill="rgb(136, 136, 136)" x="0" y="10" style="font-family: Roboto; font-weight: 400; font-stretch: 100%; font-size: 10px;">E SEMINARY AVE.</tspan></text></g><g id="E-svg LINCOLN-svg AVE.-svg"><text transform="rotate(-1.83484666739647, 534.7578735351562, 275.57733154296875) translate(534.7578735351562, 270.07733154296875)" style="text-anchor: middle;"><tspan x="0" y="10" style="font-family: Roboto; font-weight: 400; font-stretch: 100%; font-size: 10px; stroke: rgb(255, 255, 255); stroke-width: 2; stroke-linejoin: round; stroke-linecap: round;">E LINCOLN AVE.</tspan></text><text transform="rotate(-1.83484666739647, 534.75787, 275.57733) translate(534.7578735351562, 270.07733154296875)" style="text-anchor: middle;"><tspan fill="rgb(136, 136, 136)" x="0" y="10" style="font-family: Roboto; font-weight: 400; font-stretch: 100%; font-size: 10px;">E LINCOLN AVE.</tspan></text></g><g id="S-svg OAK-svg ST.-svg"><text transform="rotate(-80.25821745322312, 278.22235107421875, 439.3575744628906) translate(278.22235107421875, 433.8575744628906)" style="text-anchor: middle;"><tspan x="0" y="10" style="font-family: Roboto; font-weight: 400; font-stretch: 100%; font-size: 10px; stroke: rgb(255, 255, 255); stroke-width: 2; stroke-linejoin: round; stroke-linecap: round;">S OAK ST.</tspan></text><text transform="rotate(-80.25821745322312, 278.22235, 439.35757) translate(278.22235107421875, 433.8575744628906)" style="text-anchor: middle;"><tspan fill="rgb(136, 136, 136)" x="0" y="10" style="font-family: Roboto; font-weight: 400; font-stretch: 100%; font-size: 10px;">S OAK ST.</tspan></text></g><g id="S-svg EVERGREEN-svg ST.-svg"><text transform="rotate(87.95797805490348, 213.32652282714844, 429.5587158203125) translate(213.32652282714844, 424.0587158203125)" style="text-anchor: middle;"><tspan x="0" y="10" style="font-family: Roboto; font-weight: 400; font-stretch: 100%; font-size: 10px; stroke: rgb(255, 255, 255); stroke-width: 2; stroke-linejoin: round; stroke-linecap: round;">S EVERGREEN ST.</tspan></text><text transform="rotate(87.95797805490348, 213.32652, 429.55872) translate(213.32652282714844, 424.0587158203125)" style="text-anchor: middle;"><tspan fill="rgb(136, 136, 136)" x="0" y="10" style="font-family: Roboto; font-weight: 400; font-stretch: 100%; font-size: 10px;">S EVERGREEN ST.</tspan></text></g><g id="S-svg LOCUST-svg ST.-svg"><text transform="rotate(-79.9341024873596, 333.12835693359375, 366.55816650390625) translate(333.12835693359375, 361.05816650390625)" style="text-anchor: middle;"><tspan x="0" y="10" style="font-family: Roboto; font-weight: 400; font-stretch: 100%; font-size: 10px; stroke: rgb(255, 255, 255); stroke-width: 2; stroke-linejoin: round; stroke-linecap: round;">S LOCUST ST.</tspan></text><text transform="rotate(-79.9341024873596, 333.12836, 366.55817) translate(333.12835693359375, 361.05816650390625)" style="text-anchor: middle;"><tspan fill="rgb(136, 136, 136)" x="0" y="10" style="font-family: Roboto; font-weight: 400; font-stretch: 100%; font-size: 10px;">S LOCUST ST.</tspan></text></g><g id="E-svg ROOSEVELT-svg AVE.-svg"><text transform="rotate(-2.314728732842996, 414.3612060546875, 409.11932373046875) translate(414.3612060546875, 403.61932373046875)" style="text-anchor: middle;"><tspan x="0" y="10" style="font-family: Roboto; font-weight: 400; font-stretch: 100%; font-size: 10px; stroke: rgb(255, 255, 255); stroke-width: 2; stroke-linejoin: round; stroke-linecap: round;">E ROOSEVELT AVE.</tspan></text><text transform="rotate(-2.314728732842996, 414.36121, 409.11932) translate(414.3612060546875, 403.61932373046875)" style="text-anchor: middle;"><tspan fill="rgb(136, 136, 136)" x="0" y="10" style="font-family: Roboto; font-weight: 400; font-stretch: 100%; font-size: 10px;">E ROOSEVELT AVE.</tspan></text></g><g id="E-svg ROOSEVELT-svg AVE.-svg"><text transform="rotate(-2.0141814614598563, 561.8321533203125, 403.6259765625) translate(561.8321533203125, 398.1259765625)" style="text-anchor: middle;"><tspan x="0" y="10" style="font-family: Roboto; font-weight: 400; font-stretch: 100%; font-size: 10px; stroke: rgb(255, 255, 255); stroke-width: 2; stroke-linejoin: round; stroke-linecap: round;">E ROOSEVELT AVE.</tspan></text><text transform="rotate(-2.0141814614598563, 561.83215, 403.62598) translate(561.8321533203125, 398.1259765625)" style="text-anchor: middle;"><tspan fill="rgb(136, 136, 136)" x="0" y="10" style="font-family: Roboto; font-weight: 400; font-stretch: 100%; font-size: 10px;">E ROOSEVELT AVE.</tspan></text></g></g><g id="Onarga-svg"><rect width="66.046875" height="37.796875" transform="translate(32.984375, 47.109375)" fill="rgb(255,255,255)" rx="10" style="fill: rgb(255, 255, 255);"/><path d="M 42.984375 47.109375 H 89.03125 a 10 10 0 0 1 10 10 V 74.90625 a 10,10 0 0 1 -10,10 H 42.984375 a 10,10 0 0 1 -10,-10 V 57.109375 a 10,10 0 0 1 10,-10 z" style="fill: none; stroke-width: 1; stroke: rgb(242, 243, 240);"/><text transform="translate(66.0078125, 46.609375)" style="text-anchor: middle;"><tspan fill="rgb(51,51,51)" x="0" y="25" style="font-family: Roboto; font-weight: 400; font-stretch: 100%; font-size: 14px;">Onarga</tspan></text></g><g id="svg-marker-svg" transform="translate(66, 66)"><g id="svg-id-de6BH9YZnK-svg" transform="translate(-14, -14)"/></g><rect width="156.96875" height="14" transform="translate(443.03125, 436)" fill="rgba(255,255,255,0.73)" style="fill: rgb(255, 255, 255); fill-opacity: 0.73;"/><text transform="translate(447, 437)"><tspan fill="rgba(119,119,119,0.87)" x="0" y="11" style="font-family: Roboto; font-weight: 400; font-stretch: 100%; font-size: 11px;">©</tspan><tspan fill="rgba(119,119,119,0.87)" dx="2.734375" style="font-family: Roboto; font-weight: 400; font-stretch: 100%; font-size: 11px;">OpenStreetMap</tspan><tspan fill="rgba(119,119,119,0.87)" dx="2.734375" style="font-family: Roboto; font-weight: 400; font-stretch: 100%; font-size: 11px;">contributors</tspan></text></g></g></g></g><g id="container-svg container-footer-svg datawrapper-CndaE-1la8dcw-svg"><text transform="translate(0, 470)"><tspan fill="rgb(136,136,136)" x="0" y="11" style="font-family: Roboto; font-weight: 400; font-stretch: 100%; font-size: 11px;">Created with</tspan><tspan fill="rgb(136,136,136)" dx="2.734375" style="font-family: Roboto; font-weight: 400; font-stretch: 100%; font-size: 11px;">Datawrapper</tspan></text></g></g></g></g></svg>