<svg xmlns="http://www.w3.org/2000/svg" xmlns:xlink="http://www.w3.org/1999/xlink" id="exportSvg" width="600" height="480"><defs/><g><g id="__svelte-dw-svg" clip-path="url(#rect-mask-xW993glAt8fB87LdnuNbH)"><clipPath id="rect-mask-xW993glAt8fB87LdnuNbH"><rect x="0" y="0" width="600" height="480"/></clipPath><g id="container-svg container-body-svg datawrapper-4zkWZ-1gvfeww-svg"><g id="container-svg container-bodyTop-svg datawrapper-4zkWZ-lmtz6e-svg"><g id="container-svg container-bodyCenter-svg datawrapper-4zkWZ-1fgvipr-svg"><g id="chart-svg"><g id="container-inner-svg export-group-svg maplibregl-map-svg" clip-path="url(#rect-mask-Lw3bR5LKHkkfFZo3cPsyo)"><clipPath id="rect-mask-Lw3bR5LKHkkfFZo3cPsyo"><rect x="0" y="0" width="600" height="447"/></clipPath><g id="basemap-svg" clip-path="url(#rect-mask-G_42Bpts7zDqOu5M4Grpz)"><clipPath id="rect-mask-G_42Bpts7zDqOu5M4Grpz"><rect x="0" y="0" width="600" height="447"/></clipPath><rect width="600" height="447" transform="translate(0, 0)" fill="rgb(255,255,255)" id="background" style="fill: rgb(255, 255, 255);"/><path d="M255.71,64.967L256.515,118.09M299.779,191.336L304.004,191.94L308.431,192.544M299.175,192.141L299.779,191.336L300.181,187.915L300.583,183.69M264.967,186.507L298.169,190.934L299.175,192.141L299.98,192.946L299.98,197.373L294.748,236.813L293.138,246.874L272.412,244.057M256.314,123.121L259.735,123.523L262.552,123.926M256.515,118.09L256.314,120.706L256.314,123.121M262.552,123.926L263.156,180.068L277.443,181.879L299.376,184.696L300.583,183.69L301.388,183.287L307.626,130.566M256.314,166.183L256.515,169L256.716,172.824M256.314,166.183L256.314,123.121M229.35,172.622L256.716,172.824L257.119,180.269M243.637,307.644L243.234,295.772L243.234,279.473L243.033,252.106L263.961,251.503M243.234,312.675L243.436,310.663L243.637,307.644M265.973,448.502L268.589,439.447L271.406,428.581L272.613,421.135L274.625,407.855L276.839,391.153L279.052,373.043L278.65,370.024L280.662,362.579L281.065,349.499L281.065,348.694L284.687,317.303M244.039,357.951L243.234,312.675M412.062,269.613L416.087,269.613M373.226,328.773L377.854,329.176L381.476,329.578L382.08,325.151L382.482,321.328L379.061,320.724L374.433,320.12L374.031,324.145L373.628,326.761M412.062,269.613L389.123,266.595M373.628,326.761L373.226,328.773L367.591,372.841L365.982,385.519M324.328,322.133L324.932,318.511L325.334,314.486M469.411,269.009L469.613,266.393L469.613,263.777M416.087,269.613L427.959,271.223L436.209,269.814M324.328,322.133L316.48,390.952M409.446,324.547L407.434,324.346L405.019,324.145M437.215,327.968L439.429,327.767L441.24,327.566M436.209,269.814L438.423,269.412L440.234,269.21M405.019,324.145L382.482,321.328M441.24,327.566L470.216,328.169L470.015,307.041L470.015,291.345L469.411,269.009L440.234,269.21M409.446,324.547L437.215,327.968M376.043,372.439L381.476,329.578L401.599,331.59M390.129,258.344L389.726,262.771L389.123,266.595L385.098,266.192L380.47,265.588L381.074,261.765L381.677,257.137M388.318,202.806L392.946,203.41L396.568,204.014M469.411,213.27L469.21,211.056L469.21,205.623M469.613,263.777L469.411,213.27M396.769,202.806L397.172,199.989L397.775,195.361M390.129,258.344L386.104,257.741L381.677,257.137M390.129,258.344L393.751,226.953L396.568,204.014L396.769,202.806M331.773,259.954L332.377,255.93L332.981,251.503L329.761,251.1L327.749,250.698M350.085,317.505L325.334,314.486L326.944,301.407L328.755,284.705L330.566,271.223L331.773,259.954L356.725,262.972L380.47,265.588L378.256,284.504L374.433,320.12L350.085,317.505M339.017,196.769L336.2,196.166L333.786,195.763M392.342,194.958L394.153,194.958L397.775,195.361M469.21,205.623L466.997,205.623L438.222,205.422L428.16,205.422L421.922,202.806L422.123,197.977L397.775,195.361M359.341,254.521L357.329,254.32L355.92,254.32M366.183,199.989L363.768,199.587L361.957,199.385M359.341,254.521L381.677,257.137L388.318,202.806L366.183,199.989M339.822,188.922L339.42,192.544L339.017,196.769M363.366,191.538L364.774,191.739L366.384,191.94M342.64,161.555L341.432,169.604L339.822,188.922L363.366,191.538M366.384,191.94L392.342,194.958M355.92,254.32L332.981,251.503L337.206,214.075L339.017,196.769L361.957,199.385M308.431,192.544L319.901,193.952L333.786,195.763M285.492,310.059L284.687,317.303M272.412,244.057L270.802,249.289L269.997,252.308L267.985,252.106L263.961,251.503M301.187,247.679L297.364,247.277L293.138,246.874M269.997,252.308L291.931,254.722L292.534,256.131L289.315,283.095L285.492,310.059M327.749,250.698L313.261,249.088L301.187,247.679" stroke="rgb(231,231,231)" id="road_path" transform="translate(0.5, 0)" style="fill: none; stroke-width: 1.19212; stroke-linejoin: bevel; stroke-linecap: square; stroke-dasharray: 0.75595, 1.88988; stroke: rgb(231, 231, 231);"/><path d="M201.178,312.071L205.203,311.669L223.715,310.864L241.222,310.663L262.351,310.663L283.882,313.48L285.089,313.681L289.516,313.882M659.167,211.258L614.696,211.258L590.951,211.056L466.393,211.056L453.716,210.855L445.667,210.855L438.423,210.05L430.776,208.642L421.319,205.825L416.489,204.215L404.818,201.196L393.348,199.385L364.372,195.763L339.42,192.544L337.206,192.342L320.304,190.531L304.407,188.519M86.279,208.44L85.876,183.69L85.474,158.335L84.669,126.139L85.675,122.517L87.888,119.298M128.536,233.594L116.06,233.392L105.395,233.594M200.373,249.289L164.756,248.887L134.17,248.082L128.737,248.082M242.228,251.1L244.643,249.893L247.259,249.49L263.759,249.289L268.589,249.289M135.176,268.406L129.945,270.217L125.518,271.625L118.475,272.631L111.432,273.235L104.188,273.235M226.533,159.342L229.35,154.11L229.149,119.901M227.74,210.855L227.136,181.879L227.136,174.836L227.941,168.799L228.142,166.183L228.142,163.97L227.539,161.354L226.533,159.342M414.276,265.588L414.477,262.168L420.916,209.447L421.319,205.825M-190.808,204.215L-35.865,206.428L79.437,208.44L83.26,208.44M329.157,255.527L329.761,251.1L336.2,196.166L337.206,192.342M365.579,398.196L370.006,401.415L373.829,403.428L380.671,406.245L388.921,408.861L396.367,410.672M241.625,384.11L241.625,344.67L241.222,324.346L241.222,310.663L240.417,306.84L240.216,273.235L240.216,256.332L240.618,253.515L242.228,251.1M268.589,249.289L267.985,252.106L267.583,254.119L265.772,263.576L263.961,279.875L263.558,283.296L262.149,296.175L261.948,303.419L262.351,310.663M525.151,328.974L526.358,327.163L526.761,326.358L527.163,323.541L527.163,313.882L525.956,275.851L525.956,266.192L525.754,246.271L524.748,211.056M525.956,266.192L498.992,266.796L472.832,266.595L469.613,266.393L438.423,267.198L426.55,267.399L414.276,265.588L405.221,264.381L389.726,262.771L385.501,262.168L381.074,261.765L357.128,258.747L351.493,257.942L342.841,257.338L332.377,255.93L329.157,255.527M308.029,432.404L309.035,426.971L310.242,414.294L317.889,354.329L322.718,318.108L323.724,305.23L328.353,267.601L329.157,255.527M86.279,208.44L83.26,208.44M85.474,158.335L95.937,158.335L139,159.14L145.238,158.738L152.079,156.927L160.128,156.122L191.318,156.323L223.313,156.927L225.325,157.732L226.533,159.342M259.936,169L256.515,169L227.941,168.799M474.241,331.188L473.838,319.114L473.436,278.467L472.832,266.595L472.43,211.056M525.151,328.974L524.748,329.578L523.541,330.785L521.126,331.792L518.51,331.993L496.778,332.194L474.241,331.188L463.375,331.188L439.429,330.383L424.136,329.377L406.83,327.566L404.416,327.365L391.738,326.358L382.08,325.151L378.659,324.749L374.031,324.145L364.372,322.938L349.481,321.328L335.395,320.12L324.932,318.511L322.718,318.108M258.93,32.368L259.332,7.417L258.326,-105.27L257.723,-144.307L257.32,-178.314L256.515,-281.543L256.314,-312.33L255.911,-351.77M364.372,195.763L364.774,191.739L366.183,181.476L367.994,168.799L369.402,156.726L369.201,152.097L368.396,148.073L366.787,144.652L364.573,141.231L361.957,138.213L355.92,132.579L352.298,130.969L347.268,131.17L343.646,133.383L341.835,136.402L341.03,142.439L340.829,151.293L338.816,155.116M201.178,312.071L200.172,301.407L199.77,285.308M87.888,119.298L90.706,117.889L94.931,117.487L133.969,118.493L229.149,119.901L237.399,120.304L256.314,120.706L259.735,121.109L263.156,121.712L284.083,123.523L294.748,124.53L304.206,125.334L311.852,126.139M268.589,249.289L270.802,249.289L271.808,249.49L277.04,249.692L289.315,251.301L296.961,251.905L312.657,253.917L329.157,255.527M350.286,462.789L350.487,458.966L352.097,449.911L353.103,434.215L353.707,426.971L354.914,422.142L357.53,415.099L360.75,408.257L365.579,398.196L370.207,384.513L372.22,372.841L377.854,329.176L378.659,324.749M150.067,300.4L153.085,296.98L159.726,287.723M400.19,379.482L402.001,367.61L406.428,329.779L406.83,327.566L407.434,324.346L407.635,323.944L413.672,269.613L414.276,265.588M201.178,312.071L199.971,310.864L199.166,310.462L195.141,310.26L187.495,310.059L179.848,309.254L172.805,307.443L168.177,305.833L163.75,303.821L157.11,299.797L153.085,296.98L148.658,292.754L144.03,287.321L140.811,282.29L137.792,276.656L136.183,272.028L135.176,268.406L134.17,264.18L133.567,256.533L134.17,248.082L134.371,213.471L134.573,209.245M129.14,209.245L128.536,233.594L128.737,248.082L128.737,263.777L129.945,270.217L132.359,276.052L135.981,282.894L140.006,289.534L143.024,293.559L146.244,296.98L150.067,300.4L155.299,304.425L159.726,307.242L166.769,310.059L171.196,311.267L175.421,312.273L182.867,313.279L190.111,313.681L196.349,313.48L198.361,313.078L201.178,312.071M378.659,324.749L379.061,320.724L379.061,319.517L382.683,289.132L385.098,266.192L385.501,262.168L386.104,257.741L392.946,203.41L393.348,199.385M268.589,249.289L270.198,240.435L271.808,224.538L271.808,220.112L271.406,218.099L270.4,215.483L268.589,213.471L266.979,212.264L265.57,211.66L263.961,211.459L261.546,211.258M261.546,211.258L261.143,184.092L259.936,169L259.534,125.938L259.735,123.523L259.735,117.487L258.93,62.955L258.93,32.368M304.407,188.519L300.181,187.915L289.919,187.111L277.04,185.702L268.79,184.696L261.143,184.092M261.546,211.258L227.74,210.855L134.573,209.245L129.14,209.245L86.279,208.44M338.816,155.116L340.426,163.366L338.011,188.72L337.206,192.342M316.279,90.12L300.583,88.108L297.364,90.12L295.352,107.224L293.339,112.255L292.534,118.694L293.943,121.31L294.748,124.53M277.04,185.702L277.443,181.879L281.467,145.457L284.083,123.523M349.481,321.328L345.859,350.304L341.835,383.104M285.492,350.505L281.065,349.499L268.991,346.883L263.156,343.865L261.143,342.054L260.338,338.834L260.54,320.12L260.137,312.675L259.936,310.663M364.372,195.763L363.768,199.587L357.329,254.32L357.128,258.747L356.725,262.972L355.317,273.839L350.085,317.505L349.481,321.328M499.193,211.056L499.595,252.509L498.992,266.796M438.423,267.198L438.423,269.412L439.026,306.84L439.429,327.767L439.429,333.2L439.831,360.768L437.618,366.805L431.179,370.024L405.824,369.622L402.001,367.61M393.348,199.385L394.153,194.958L395.964,175.842L395.964,167.793L397.976,145.256M263.961,279.875L266.174,280.077L289.315,283.095L293.138,283.497" stroke="rgb(231,231,231)" id="road_minor" transform="translate(0.5, 0)" style="fill: none; stroke-width: 3.12468; stroke-linejoin: round; stroke-linecap: round; stroke: rgb(231, 231, 231);"/><path d="M296.961,251.905L297.364,247.277L304.004,191.94L304.407,188.519L311.852,126.139L316.279,90.12L318.895,69.394L326.944,-6.267L343.444,-144.71L345.658,-164.631M249.674,498.205L252.692,492.772L258.125,481.302L263.759,467.417L267.784,456.149L271.808,442.465L275.229,428.178L277.443,416.306L279.656,399.202L285.492,350.505L289.516,313.882L293.138,283.497L296.961,251.905" stroke="rgb(231,231,231)" id="road_primary" transform="translate(0.5, 0)" style="fill: none; stroke-width: 5.21352; stroke-linejoin: round; stroke-linecap: round; stroke: rgb(231, 231, 231);"/><path d="M385.501,-351.77L384.293,-341.709L360.549,-144.307L320.304,190.531L319.901,193.952L313.261,249.088L312.657,253.917L311.852,261.966L303.199,334.005L285.492,483.113L283.681,498.205" stroke="rgb(157,157,157)" id="railway" transform="translate(0.5, 0)" style="fill: none; stroke-width: 1; stroke-opacity: 0.737377; stroke-linejoin: miter; stroke-linecap: butt; stroke: rgb(157, 157, 157);"/><g id="CHESTNUT-svg STREET-svg"><text transform="rotate(-83.92758117022107, 321.6309814453125, 43.67558288574219) translate(321.6309814453125, 38.17558288574219)" style="text-anchor: middle;"><tspan x="0" y="10" style="font-family: Roboto; font-weight: 400; font-stretch: 100%; font-size: 10px; stroke: rgb(255, 255, 255); stroke-width: 2; stroke-linejoin: round; stroke-linecap: round;">CHESTNUT STREET</tspan></text><text transform="rotate(-83.92758117022107, 321.63098, 43.67558) translate(321.6309814453125, 38.17558288574219)" style="text-anchor: middle;"><tspan fill="rgb(136, 136, 136)" x="0" y="10" style="font-family: Roboto; font-weight: 400; font-stretch: 100%; font-size: 10px;">CHESTNUT STREET</tspan></text></g><g id="S-svg CHESTNUT-svg ST.-svg"><text transform="rotate(-83.16601247286977, 281.39886474609375, 384.6590576171875) translate(281.39886474609375, 379.1590576171875)" style="text-anchor: middle;"><tspan x="0" y="10" style="font-family: Roboto; font-weight: 400; font-stretch: 100%; font-size: 10px; stroke: rgb(255, 255, 255); stroke-width: 2; stroke-linejoin: round; stroke-linecap: round;">S CHESTNUT ST.</tspan></text><text transform="rotate(-83.16601247286977, 281.39886, 384.65906) translate(281.39886474609375, 379.1590576171875)" style="text-anchor: middle;"><tspan fill="rgb(136, 136, 136)" x="0" y="10" style="font-family: Roboto; font-weight: 400; font-stretch: 100%; font-size: 10px;">S CHESTNUT ST.</tspan></text></g><g id="S-svg HICKORY-svg ST.-svg"><text transform="rotate(-90, 241.2220001220703, 317.3067626953125) translate(241.2220001220703, 311.8067626953125)" style="text-anchor: middle;"><tspan x="0" y="10" style="font-family: Roboto; font-weight: 400; font-stretch: 100%; font-size: 10px; stroke: rgb(255, 255, 255); stroke-width: 2; stroke-linejoin: round; stroke-linecap: round;">S HICKORY ST.</tspan></text><text transform="rotate(-90, 241.222, 317.30676) translate(241.2220001220703, 311.8067626953125)" style="text-anchor: middle;"><tspan fill="rgb(136, 136, 136)" x="0" y="10" style="font-family: Roboto; font-weight: 400; font-stretch: 100%; font-size: 10px;">S HICKORY ST.</tspan></text></g><g id="MADISON-svg STREET-svg"><text transform="rotate(4.865724802558989, 424.15875244140625, 329.3785095214844) translate(424.15875244140625, 323.8785095214844)" style="text-anchor: middle;"><tspan x="0" y="10" style="font-family: Roboto; font-weight: 400; font-stretch: 100%; font-size: 10px; stroke: rgb(255, 255, 255); stroke-width: 2; stroke-linejoin: round; stroke-linecap: round;">MADISON STREET</tspan></text><text transform="rotate(4.865724802558989, 424.15875, 329.37851) translate(424.15875244140625, 323.8785095214844)" style="text-anchor: middle;"><tspan fill="rgb(136, 136, 136)" x="0" y="10" style="font-family: Roboto; font-weight: 400; font-stretch: 100%; font-size: 10px;">MADISON STREET</tspan></text></g><g id="W-svg WASHINGTON-svg ST.-svg"><text transform="rotate(0.8475180196511672, 199.83192443847656, 119.4673080444336) translate(199.83192443847656, 113.9673080444336)" style="text-anchor: middle;"><tspan x="0" y="10" style="font-family: Roboto; font-weight: 400; font-stretch: 100%; font-size: 10px; stroke: rgb(255, 255, 255); stroke-width: 2; stroke-linejoin: round; stroke-linecap: round;">W WASHINGTON ST.</tspan></text><text transform="rotate(0.8475180196511672, 199.83192, 119.46731) translate(199.83192443847656, 113.9673080444336)" style="text-anchor: middle;"><tspan fill="rgb(136, 136, 136)" x="0" y="10" style="font-family: Roboto; font-weight: 400; font-stretch: 100%; font-size: 10px;">W WASHINGTON ST.</tspan></text></g><g id="W-svg ADAMS-svg ST.-svg"><text transform="rotate(0.9900345001904163, 173.91098022460938, 209.92478942871094) translate(173.91098022460938, 204.42478942871094)" style="text-anchor: middle;"><tspan x="0" y="10" style="font-family: Roboto; font-weight: 400; font-stretch: 100%; font-size: 10px; stroke: rgb(255, 255, 255); stroke-width: 2; stroke-linejoin: round; stroke-linecap: round;">W ADAMS ST.</tspan></text><text transform="rotate(0.9900345001904163, 173.91098, 209.92479) translate(173.91098022460938, 204.42478942871094)" style="text-anchor: middle;"><tspan fill="rgb(136, 136, 136)" x="0" y="10" style="font-family: Roboto; font-weight: 400; font-stretch: 100%; font-size: 10px;">W ADAMS ST.</tspan></text></g><g id="PARK-svg STREET-svg"><text transform="rotate(89.80134186090898, 525.9559936523438, 270.2614440917969) translate(525.9559936523438, 264.7614440917969)" style="text-anchor: middle;"><tspan x="0" y="10" style="font-family: Roboto; font-weight: 400; font-stretch: 100%; font-size: 10px; stroke: rgb(255, 255, 255); stroke-width: 2; stroke-linejoin: round; stroke-linecap: round;">PARK STREET</tspan></text><text transform="rotate(89.80134186090898, 525.95599, 270.26144) translate(525.9559936523438, 264.7614440917969)" style="text-anchor: middle;"><tspan fill="rgb(136, 136, 136)" x="0" y="10" style="font-family: Roboto; font-weight: 400; font-stretch: 100%; font-size: 10px;">PARK STREET</tspan></text></g><g id="N-svg ELM-svg ST.-svg"><text transform="rotate(89.46514283742708, 259.7036437988281, 144.10955810546875) translate(259.7036437988281, 138.60955810546875)" style="text-anchor: middle;"><tspan x="0" y="10" style="font-family: Roboto; font-weight: 400; font-stretch: 100%; font-size: 10px; stroke: rgb(255, 255, 255); stroke-width: 2; stroke-linejoin: round; stroke-linecap: round;">N ELM ST.</tspan></text><text transform="rotate(89.46514283742708, 259.70364, 144.10956) translate(259.7036437988281, 138.60955810546875)" style="text-anchor: middle;"><tspan fill="rgb(136, 136, 136)" x="0" y="10" style="font-family: Roboto; font-weight: 400; font-stretch: 100%; font-size: 10px;">N ELM ST.</tspan></text></g><g id="LOCUST-svg STREET-svg"><text transform="rotate(-69.60357053685507, 366.7933654785156, 394.60565185546875) translate(366.7933654785156, 389.10565185546875)" style="text-anchor: middle;"><tspan x="0" y="10" style="font-family: Roboto; font-weight: 400; font-stretch: 100%; font-size: 10px; stroke: rgb(255, 255, 255); stroke-width: 2; stroke-linejoin: round; stroke-linecap: round;">LOCUST STREET</tspan></text><text transform="rotate(-69.60357053685507, 366.79337, 394.60565) translate(366.7933654785156, 389.10565185546875)" style="text-anchor: middle;"><tspan fill="rgb(136, 136, 136)" x="0" y="10" style="font-family: Roboto; font-weight: 400; font-stretch: 100%; font-size: 10px;">LOCUST STREET</tspan></text></g><g id="W-svg MADISON-svg ST.-svg"><text transform="rotate(60.07743482325393, 136.47157287597656, 283.70330810546875) translate(136.47157287597656, 278.20330810546875)" style="text-anchor: middle;"><tspan x="0" y="10" style="font-family: Roboto; font-weight: 400; font-stretch: 100%; font-size: 10px; stroke: rgb(255, 255, 255); stroke-width: 2; stroke-linejoin: round; stroke-linecap: round;">W MADISON ST.</tspan></text><text transform="rotate(60.07743482325393, 136.47157, 283.70331) translate(136.47157287597656, 278.20330810546875)" style="text-anchor: middle;"><tspan fill="rgb(136, 136, 136)" x="0" y="10" style="font-family: Roboto; font-weight: 400; font-stretch: 100%; font-size: 10px;">W MADISON ST.</tspan></text></g><g id="W-svg LOCUST-svg ST.-svg"><text transform="rotate(-83.28188631684874, 385.52191162109375, 262.0144348144531) translate(385.52191162109375, 256.5144348144531)" style="text-anchor: middle;"><tspan x="0" y="10" style="font-family: Roboto; font-weight: 400; font-stretch: 100%; font-size: 10px; stroke: rgb(255, 255, 255); stroke-width: 2; stroke-linejoin: round; stroke-linecap: round;">W LOCUST ST.</tspan></text><text transform="rotate(-83.28188631684874, 385.52191, 262.01443) translate(385.52191162109375, 256.5144348144531)" style="text-anchor: middle;"><tspan fill="rgb(136, 136, 136)" x="0" y="10" style="font-family: Roboto; font-weight: 400; font-stretch: 100%; font-size: 10px;">W LOCUST ST.</tspan></text></g><g id="W-svg JEFFERSON-svg ST.-svg"><text transform="rotate(-6.232385632455514, 156.35728454589844, 156.49911499023438) translate(156.35728454589844, 150.99911499023438)" style="text-anchor: middle;"><tspan x="0" y="10" style="font-family: Roboto; font-weight: 400; font-stretch: 100%; font-size: 10px; stroke: rgb(255, 255, 255); stroke-width: 2; stroke-linejoin: round; stroke-linecap: round;">W JEFFERSON ST.</tspan></text><text transform="rotate(-6.232385632455514, 156.35728, 156.49911) translate(156.35728454589844, 150.99911499023438)" style="text-anchor: middle;"><tspan fill="rgb(136, 136, 136)" x="0" y="10" style="font-family: Roboto; font-weight: 400; font-stretch: 100%; font-size: 10px;">W JEFFERSON ST.</tspan></text></g><g id="S-svg OAK-svg ST.-svg"><text transform="rotate(-82.40613269256298, 319.2608642578125, 344.03912353515625) translate(319.2608642578125, 338.53912353515625)" style="text-anchor: middle;"><tspan x="0" y="10" style="font-family: Roboto; font-weight: 400; font-stretch: 100%; font-size: 10px; stroke: rgb(255, 255, 255); stroke-width: 2; stroke-linejoin: round; stroke-linecap: round;">S OAK ST.</tspan></text><text transform="rotate(-82.40613269256298, 319.26086, 344.03912) translate(319.2608642578125, 338.53912353515625)" style="text-anchor: middle;"><tspan fill="rgb(136, 136, 136)" x="0" y="10" style="font-family: Roboto; font-weight: 400; font-stretch: 100%; font-size: 10px;">S OAK ST.</tspan></text></g><g id="E-svg ADAMS-svg ST.-svg"><text transform="rotate(0, 487.20745849609375, 211.05599975585938) translate(487.20745849609375, 205.55599975585938)" style="text-anchor: middle;"><tspan x="0" y="10" style="font-family: Roboto; font-weight: 400; font-stretch: 100%; font-size: 10px; stroke: rgb(255, 255, 255); stroke-width: 2; stroke-linejoin: round; stroke-linecap: round;">E ADAMS ST.</tspan></text><text transform="translate(487.20745849609375, 205.55599975585938)" style="text-anchor: middle;"><tspan fill="rgb(136, 136, 136)" x="0" y="10" style="font-family: Roboto; font-weight: 400; font-stretch: 100%; font-size: 10px;">E ADAMS ST.</tspan></text></g><g id="ALLEY-svg STREET-svg"><text transform="rotate(-84.93548066953076, 357.13623046875, 258.56585693359375) translate(357.13623046875, 253.06585693359375)" style="text-anchor: middle;"><tspan x="0" y="10" style="font-family: Roboto; font-weight: 400; font-stretch: 100%; font-size: 10px; stroke: rgb(255, 255, 255); stroke-width: 2; stroke-linejoin: round; stroke-linecap: round;">ALLEY STREET</tspan></text><text transform="rotate(-84.93548066953076, 357.13623, 258.56586) translate(357.13623046875, 253.06585693359375)" style="text-anchor: middle;"><tspan fill="rgb(136, 136, 136)" x="0" y="10" style="font-family: Roboto; font-weight: 400; font-stretch: 100%; font-size: 10px;">ALLEY STREET</tspan></text></g></g><g id="Pesotum-svg"><text transform="translate(300, 231.609375)" style="text-anchor: middle;"><tspan x="0" y="14" style="font-family: Roboto; font-weight: 400; font-stretch: 100%; font-size: 14px; stroke: rgb(242, 243, 240); stroke-width: 2; stroke-linejoin: round; stroke-linecap: round;">Pesotum</tspan></text><text transform="translate(300, 231.609375)" style="text-anchor: middle;"><tspan fill="rgb(51,51,51)" x="0" y="14" style="font-family: Roboto; font-weight: 400; font-stretch: 100%; font-size: 14px;">Pesotum</tspan></text></g><g id="svg-marker-svg" transform="translate(300, 240)"><g id="svg-id-1nMAcQhvya-svg" transform="translate(-14, -14)"/></g><rect width="156.96875" height="14" transform="translate(443.03125, 433)" fill="rgba(255,255,255,0.73)" style="fill: rgb(255, 255, 255); fill-opacity: 0.73;"/><text transform="translate(447, 434)"><tspan fill="rgba(119,119,119,0.87)" x="0" y="11" style="font-family: Roboto; font-weight: 400; font-stretch: 100%; font-size: 11px;">©</tspan><tspan fill="rgba(119,119,119,0.87)" dx="2.734375" style="font-family: Roboto; font-weight: 400; font-stretch: 100%; font-size: 11px;">OpenStreetMap</tspan><tspan fill="rgba(119,119,119,0.87)" dx="2.734375" style="font-family: Roboto; font-weight: 400; font-stretch: 100%; font-size: 11px;">contributors</tspan></text></g></g></g></g><g id="container-svg container-footer-svg datawrapper-4zkWZ-1la8dcw-svg"><text transform="translate(0, 467)"><tspan fill="rgb(136,136,136)" x="0" y="11" style="font-family: Roboto; font-weight: 400; font-stretch: 100%; font-size: 11px;">Created with</tspan><tspan fill="rgb(136,136,136)" dx="2.734375" style="font-family: Roboto; font-weight: 400; font-stretch: 100%; font-size: 11px;">Datawrapper</tspan></text></g></g></g></g></svg>