<svg xmlns="http://www.w3.org/2000/svg" xmlns:xlink="http://www.w3.org/1999/xlink" id="exportSvg" width="600" height="480"><defs/><g><g id="__svelte-dw-svg" clip-path="url(#rect-mask-mwNWPoj8VN_PJ6WMdZLeu)"><clipPath id="rect-mask-mwNWPoj8VN_PJ6WMdZLeu"><rect x="0" y="0" width="600" height="480"/></clipPath><g id="container-svg container-body-svg datawrapper-Lk7eK-1gvfeww-svg"><g id="container-svg container-bodyTop-svg datawrapper-Lk7eK-lmtz6e-svg"><g id="container-svg container-bodyCenter-svg datawrapper-Lk7eK-1fgvipr-svg"><g id="chart-svg"><g id="container-inner-svg export-group-svg maplibregl-map-svg" clip-path="url(#rect-mask-cubqPXyCi6vvnen3CB0Kf)"><clipPath id="rect-mask-cubqPXyCi6vvnen3CB0Kf"><rect x="0" y="0" width="600" height="447"/></clipPath><g id="basemap-svg" clip-path="url(#rect-mask-pNKEO-GsLFEYGBq1QjAyk)"><clipPath id="rect-mask-pNKEO-GsLFEYGBq1QjAyk"><rect x="0" y="0" width="600" height="447"/></clipPath><rect width="600" height="447" transform="translate(0, 0)" fill="rgb(255,255,255)" id="background" style="fill: rgb(255, 255, 255);"/><path d="M405.044,190.566L341.462,180.311L318.645,176.722M301.724,172.876L314.03,98.526L316.081,80.067L325.823,15.716M191.225,219.024L185.584,216.46L180.713,212.615M293.52,222.357L255.576,219.793L247.115,219.793L230.194,219.28L204.044,218.768L191.225,219.024M191.225,219.024L184.302,222.357L177.637,226.972L116.619,278.76L86.622,303.372L32.27,344.393M75.854,311.577L-8.238,374.902L-35.157,394.9L-49.258,407.206M81.238,150.827L77.393,142.88L78.931,73.145M631.683,9.563L614.762,9.819L499.135,6.999L435.553,5.974M78.931,73.145L80.726,9.05L75.854,0.333M285.828,274.402L262.754,270.3L240.193,266.198M314.286,344.393L325.311,279.529L341.462,180.311L353.769,101.859M313.261,398.489L307.364,395.669L308.39,378.748L319.927,311.577M353.769,101.859L417.607,111.602M230.194,219.28L237.629,163.134L251.217,86.476M75.854,0.333L67.394,-1.974L-49.258,-6.332M277.111,332.087L272.24,333.112L253.268,329.267L231.22,326.703L223.016,326.447L205.325,323.37L169.945,317.986L165.33,317.473L148.922,315.422L103.543,308.244L93.032,306.449L86.622,303.372M277.111,332.087L272.24,333.112L253.268,329.267L231.22,326.703L223.016,326.447L205.325,323.37L169.945,317.986L165.33,317.473L148.922,315.422L124.566,311.577M251.217,86.476L262.754,11.358M399.404,290.554L325.311,279.529M468.882,199.283L479.65,143.136L482.727,122.882L485.034,109.55L488.111,85.195L499.135,6.999M277.111,332.087L280.701,326.19L285.828,274.402L293.52,222.357M277.111,332.087L280.701,326.19L282.239,311.577M314.03,98.526L307.364,94.424L251.217,86.476L186.097,75.709L78.931,73.145M177.637,226.972L179.688,219.793L180.713,212.615L180.2,203.898L181.995,154.417L183.021,135.957L186.097,75.709M186.097,75.709L187.892,-3.256M293.52,222.357L301.724,172.876M417.607,111.602L482.727,122.882M318.645,176.722L301.724,172.876L237.629,163.134L206.607,157.75L181.995,154.417L126.874,152.366L87.135,152.878L81.238,150.827M228.143,344.393L231.22,326.703L240.193,266.198L247.115,219.793M181.739,880.224L184.559,770.494L187.892,598.977L189.174,578.723L194.558,539.753L197.378,527.703L201.223,513.603L207.12,478.479L216.863,416.692L220.195,393.105L227.887,346.444L231.22,326.703L233.527,311.577M520.671,209.282L502.212,206.205L482.47,202.103L468.882,199.283L462.986,199.539L405.044,190.566M253.268,329.267L255.063,323.883L255.832,315.679L257.37,307.987L258.652,299.014L260.19,286.195L261.985,273.633L262.754,270.3M253.268,329.267L255.063,323.883L255.832,315.679L256.601,311.577M520.671,209.282L523.235,212.871L523.747,219.793L524.26,223.895L525.798,229.023L529.388,233.381L535.284,235.432L623.735,235.432L627.581,236.97L631.683,239.534L632.708,244.918L631.939,273.376L632.964,276.709L635.272,280.555L643.476,287.221M97.647,324.395L103.543,308.244M126.874,152.366L126.617,191.848M213.53,117.755L208.402,145.956L206.607,157.75M488.111,85.195L480.163,82.118L475.805,79.298L473.241,75.709L470.677,68.786L468.626,65.966L465.806,64.684L462.729,65.197L459.909,66.735L457.858,69.555L455.038,83.4M482.47,202.103L488.367,211.333L491.7,216.973L494.52,220.819L497.853,222.87L501.699,224.152L506.057,224.408L510.928,224.152L516.312,222.87L523.747,219.793M148.922,315.422L145.846,325.421L144.307,331.061L144.051,334.138L144.82,336.189L145.589,337.984L147.897,339.778L151.23,341.06L154.306,341.06L156.87,340.035L159.177,338.24L160.972,334.394L162.767,327.472L165.33,317.473M148.922,315.422L145.846,325.421L144.307,331.061L144.051,334.138L144.82,336.189L145.589,337.984L147.897,339.778L151.23,341.06L154.306,341.06L156.87,340.035L159.177,338.24L160.972,334.394L162.767,327.472L165.33,317.473M191.225,219.024L184.302,222.357L177.637,226.972L116.619,278.76L86.622,303.372L32.27,344.393M75.854,311.577L-8.238,374.902L-35.157,394.9L-49.258,407.206M228.143,344.393L231.22,326.703L240.193,266.198L247.115,219.793M181.739,880.224L184.559,770.494L187.892,598.977L189.174,578.723L194.558,539.753L197.378,527.703L201.223,513.603L207.12,478.479L216.863,416.692L220.195,393.105L227.887,346.444L231.22,326.703L233.527,311.577M402.737,418.486L351.461,407.206L323.003,400.796L313.261,398.489M314.286,344.393L325.311,279.529L341.462,180.311L353.769,101.859M313.261,398.489L307.364,395.669L308.39,378.748L319.927,311.577M277.111,332.087L272.24,333.112L253.268,329.267L231.22,326.703L223.016,326.447L205.325,323.37L169.945,317.986L165.33,317.473L148.922,315.422L103.543,308.244L93.032,306.449L86.622,303.372M277.111,332.087L272.24,333.112L253.268,329.267L231.22,326.703L223.016,326.447L205.325,323.37L169.945,317.986L165.33,317.473L148.922,315.422L124.566,311.577M277.111,332.087L280.701,326.19L285.828,274.402L293.52,222.357M277.111,332.087L280.701,326.19L282.239,311.577M608.352,450.534L549.898,450.277L494.007,448.995L403.506,445.662M253.268,329.267L255.063,323.883L255.832,315.679L257.37,307.987L258.652,299.014L260.19,286.195L261.985,273.633L262.754,270.3M253.268,329.267L255.063,323.883L255.832,315.679L256.601,311.577M323.003,400.796L318.132,431.818L318.132,433.356L319.414,434.638L324.029,438.484L330.951,441.817L334.027,442.586L335.822,442.586L338.899,441.304L341.206,439.253L343.001,436.946L345.052,433.613L346.846,427.46L351.461,407.206M148.922,315.422L145.846,325.421L144.307,331.061L144.051,334.138L144.82,336.189L145.589,337.984L147.897,339.778L151.23,341.06L154.306,341.06L156.87,340.035L159.177,338.24L160.972,334.394L162.767,327.472L165.33,317.473M148.922,315.422L145.846,325.421L144.307,331.061L144.051,334.138L144.82,336.189L145.589,337.984L147.897,339.778L151.23,341.06L154.306,341.06L156.87,340.035L159.177,338.24L160.972,334.394L162.767,327.472L165.33,317.473" stroke="rgb(231,231,231)" id="road_minor" transform="translate(0.5, 0)" style="fill: none; stroke-width: 3.60489; stroke-linejoin: round; stroke-linecap: round; stroke: rgb(231, 231, 231);"/><path d="M435.553,5.974L438.886,-18.126M405.044,190.566L417.607,111.602L435.553,5.974M400.686,344.393L399.404,290.554L399.66,241.585L405.044,190.566M405.813,886.633L406.839,812.027L407.095,789.722L407.608,757.162L407.608,729.73L406.839,687.171L404.788,571.544L403.506,445.662L402.737,418.486L401.968,393.105L399.917,311.577M400.686,344.393L399.404,290.554L399.66,241.585L405.044,190.566M405.813,886.633L406.839,812.027L407.095,789.722L407.608,757.162L407.608,729.73L406.839,687.171L404.788,571.544L403.506,445.662L402.737,418.486L401.968,393.105L399.917,311.577" stroke="rgb(231,231,231)" id="road_primary" transform="translate(0.5, 0)" style="fill: none; stroke-width: 5.83509; stroke-linejoin: round; stroke-linecap: round; stroke: rgb(231, 231, 231);"/><path d="M323.003,149.545L326.08,116.729L337.873,44.174M291.981,344.393L307.877,245.944L318.645,176.722L323.003,149.545L345.821,11.101L369.408,-135.291L380.688,-205.026L390.431,-265.531L403.506,-349.623L413.761,-413.461L418.376,-443.97L420.17,-453.969L426.836,-494.733L434.528,-540.881L440.168,-577.031L444.526,-604.463L454.525,-667.276L467.6,-738.549M123.797,1394.518L130.976,1349.396L137.642,1308.375L179.175,1049.69L183.021,1024.308L186.866,997.388L205.325,884.582L247.628,620.512L256.088,567.442L263.011,523.345L273.266,458.738L287.879,370.031L297.365,311.577M291.981,344.393L307.877,245.944L318.645,176.722L323.003,149.545L345.821,11.101L369.408,-135.291L380.688,-205.026L390.431,-265.531L403.506,-349.623L413.761,-413.461L418.376,-443.97L420.17,-453.969L426.836,-494.733L434.528,-540.881L440.168,-577.031L444.526,-604.463L454.525,-667.276L467.6,-738.549M123.797,1394.518L130.976,1349.396L137.642,1308.375L179.175,1049.69L183.021,1024.308L186.866,997.388L205.325,884.582L247.628,620.512L256.088,567.442L263.011,523.345L273.266,458.738L287.879,370.031L297.365,311.577" stroke="rgb(157,157,157)" id="railway" transform="translate(0.5, 0)" style="fill: none; stroke-width: 1; stroke-opacity: 0.807269; stroke-linejoin: miter; stroke-linecap: butt; stroke: rgb(157, 157, 157);"/><g id="W-svg BROADWAY-svg ST.-svg"><text transform="rotate(-40.32240802976255, 141.03347778320312, 258.03863525390625) translate(141.03347778320312, 252.53863525390625)" style="text-anchor: middle;"><tspan x="0" y="10" style="font-family: Roboto; font-weight: 400; font-stretch: 100%; font-size: 10px; stroke: rgb(255, 255, 255); stroke-width: 2; stroke-linejoin: round; stroke-linecap: round;">W BROADWAY ST.</tspan></text><text transform="rotate(-40.32240802976255, 141.03348, 258.03864) translate(141.03347778320312, 252.53863525390625)" style="text-anchor: middle;"><tspan fill="rgb(136, 136, 136)" x="0" y="10" style="font-family: Roboto; font-weight: 400; font-stretch: 100%; font-size: 10px;">W BROADWAY ST.</tspan></text></g><g id="W-svg OLIVE-svg ST.-svg"><text transform="rotate(8.652759740025058, 181.60482788085938, 319.7603454589844) translate(181.60482788085938, 314.2603454589844)" style="text-anchor: middle;"><tspan x="0" y="10" style="font-family: Roboto; font-weight: 400; font-stretch: 100%; font-size: 10px; stroke: rgb(255, 255, 255); stroke-width: 2; stroke-linejoin: round; stroke-linecap: round;">W OLIVE ST.</tspan></text><text transform="rotate(8.652759740025058, 181.60483, 319.76035) translate(181.60482788085938, 314.2603454589844)" style="text-anchor: middle;"><tspan fill="rgb(136, 136, 136)" x="0" y="10" style="font-family: Roboto; font-weight: 400; font-stretch: 100%; font-size: 10px;">W OLIVE ST.</tspan></text></g><g id="S-svg WALNUT-svg ST.-svg"><text transform="rotate(-79.94844112171391, 239.48052978515625, 152.68841552734375) translate(239.48052978515625, 147.18841552734375)" style="text-anchor: middle;"><tspan x="0" y="10" style="font-family: Roboto; font-weight: 400; font-stretch: 100%; font-size: 10px; stroke: rgb(255, 255, 255); stroke-width: 2; stroke-linejoin: round; stroke-linecap: round;">S WALNUT ST.</tspan></text><text transform="rotate(-79.94844112171391, 239.48053, 152.68842) translate(239.48052978515625, 147.18841552734375)" style="text-anchor: middle;"><tspan fill="rgb(136, 136, 136)" x="0" y="10" style="font-family: Roboto; font-weight: 400; font-stretch: 100%; font-size: 10px;">S WALNUT ST.</tspan></text></g><g id="S-svg SHANNON-svg ST.-svg"><text transform="rotate(-81.56446918965065, 236.6128387451172, 290.3389892578125) translate(236.6128387451172, 284.8389892578125)" style="text-anchor: middle;"><tspan x="0" y="10" style="font-family: Roboto; font-weight: 400; font-stretch: 100%; font-size: 10px; stroke: rgb(255, 255, 255); stroke-width: 2; stroke-linejoin: round; stroke-linecap: round;">S SHANNON ST.</tspan></text><text transform="rotate(-81.56446918965065, 236.61284, 290.33899) translate(236.6128387451172, 284.8389892578125)" style="text-anchor: middle;"><tspan fill="rgb(136, 136, 136)" x="0" y="10" style="font-family: Roboto; font-weight: 400; font-stretch: 100%; font-size: 10px;">S SHANNON ST.</tspan></text></g><g id="S-svg OAK-svg ST.-svg"><text transform="rotate(-80.75427561252143, 333.1429748535156, 231.416015625) translate(333.1429748535156, 225.916015625)" style="text-anchor: middle;"><tspan x="0" y="10" style="font-family: Roboto; font-weight: 400; font-stretch: 100%; font-size: 10px; stroke: rgb(255, 255, 255); stroke-width: 2; stroke-linejoin: round; stroke-linecap: round;">S OAK ST.</tspan></text><text transform="rotate(-80.75427561252143, 333.14297, 231.41602) translate(333.1429748535156, 225.916015625)" style="text-anchor: middle;"><tspan fill="rgb(136, 136, 136)" x="0" y="10" style="font-family: Roboto; font-weight: 400; font-stretch: 100%; font-size: 10px;">S OAK ST.</tspan></text></g><g id="S-svg HICKORY-svg ST.-svg"><text transform="rotate(-87.12459126567514, 182.15737915039062, 151.495361328125) translate(182.15737915039062, 145.995361328125)" style="text-anchor: middle;"><tspan x="0" y="10" style="font-family: Roboto; font-weight: 400; font-stretch: 100%; font-size: 10px; stroke: rgb(255, 255, 255); stroke-width: 2; stroke-linejoin: round; stroke-linecap: round;">S HICKORY ST.</tspan></text><text transform="rotate(-87.12459126567514, 182.15738, 151.49536) translate(182.15737915039062, 145.995361328125)" style="text-anchor: middle;"><tspan fill="rgb(136, 136, 136)" x="0" y="10" style="font-family: Roboto; font-weight: 400; font-stretch: 100%; font-size: 10px;">S HICKORY ST.</tspan></text></g><g id="S-svg GREEN-svg ST.-svg"><text transform="rotate(91.26346677734547, 78.06466674804688, 112.42557525634766) translate(78.06466674804688, 106.92557525634766)" style="text-anchor: middle;"><tspan x="0" y="10" style="font-family: Roboto; font-weight: 400; font-stretch: 100%; font-size: 10px; stroke: rgb(255, 255, 255); stroke-width: 2; stroke-linejoin: round; stroke-linecap: round;">S GREEN ST.</tspan></text><text transform="rotate(91.26346677734547, 78.06467, 112.42558) translate(78.06466674804688, 106.92557525634766)" style="text-anchor: middle;"><tspan fill="rgb(136, 136, 136)" x="0" y="10" style="font-family: Roboto; font-weight: 400; font-stretch: 100%; font-size: 10px;">S GREEN ST.</tspan></text></g><g id="N-svg WALNUT-svg ST.-svg"><text transform="rotate(-81.26844571624942, 256.9855041503906, 48.91699981689453) translate(256.9855041503906, 43.41699981689453)" style="text-anchor: middle;"><tspan x="0" y="10" style="font-family: Roboto; font-weight: 400; font-stretch: 100%; font-size: 10px; stroke: rgb(255, 255, 255); stroke-width: 2; stroke-linejoin: round; stroke-linecap: round;">N WALNUT ST.</tspan></text><text transform="rotate(-81.26844571624942, 256.9855, 48.917) translate(256.9855041503906, 43.41699981689453)" style="text-anchor: middle;"><tspan fill="rgb(136, 136, 136)" x="0" y="10" style="font-family: Roboto; font-weight: 400; font-stretch: 100%; font-size: 10px;">N WALNUT ST.</tspan></text></g><g id="CHESTNUT-svg STREET-svg"><text transform="rotate(-83.46172391677746, 285.5159606933594, 277.5539245605469) translate(285.5159606933594, 272.0539245605469)" style="text-anchor: middle;"><tspan x="0" y="10" style="font-family: Roboto; font-weight: 400; font-stretch: 100%; font-size: 10px; stroke: rgb(255, 255, 255); stroke-width: 2; stroke-linejoin: round; stroke-linecap: round;">CHESTNUT STREET</tspan></text><text transform="rotate(-83.46172391677746, 285.51596, 277.55392) translate(285.5159606933594, 272.0539245605469)" style="text-anchor: middle;"><tspan fill="rgb(136, 136, 136)" x="0" y="10" style="font-family: Roboto; font-weight: 400; font-stretch: 100%; font-size: 10px;">CHESTNUT STREET</tspan></text></g><g id="CHESTNUT-svg STREET-svg"><text transform="rotate(-82.84670102909492, 314.488037109375, 94.40371704101562) translate(314.488037109375, 88.90371704101562)" style="text-anchor: middle;"><tspan x="0" y="10" style="font-family: Roboto; font-weight: 400; font-stretch: 100%; font-size: 10px; stroke: rgb(255, 255, 255); stroke-width: 2; stroke-linejoin: round; stroke-linecap: round;">CHESTNUT STREET</tspan></text><text transform="rotate(-82.84670102909492, 314.48804, 94.40372) translate(314.488037109375, 88.90371704101562)" style="text-anchor: middle;"><tspan fill="rgb(136, 136, 136)" x="0" y="10" style="font-family: Roboto; font-weight: 400; font-stretch: 100%; font-size: 10px;">CHESTNUT STREET</tspan></text></g><g id="CALIFORNIA-svg ROAD-svg"><text transform="rotate(2.207029460562964, 5.2451934814453125, -4.369153022766113) translate(5.2451934814453125, -9.869153022766113)" style="text-anchor: middle;"><tspan x="0" y="10" style="font-family: Roboto; font-weight: 400; font-stretch: 100%; font-size: 10px; stroke: rgb(255, 255, 255); stroke-width: 2; stroke-linejoin: round; stroke-linecap: round;">CALIFORNIA ROAD</tspan></text><text transform="rotate(2.207029460562964, 5.24519, -4.36915) translate(5.2451934814453125, -9.869153022766113)" style="text-anchor: middle;"><tspan fill="rgb(136, 136, 136)" x="0" y="10" style="font-family: Roboto; font-weight: 400; font-stretch: 100%; font-size: 10px;">CALIFORNIA ROAD</tspan></text></g><g id="N-svg HICKORY-svg ST.-svg"><text transform="rotate(-88.69780841448417, 186.99449157714844, 36.226497650146484) translate(186.99449157714844, 30.726497650146484)" style="text-anchor: middle;"><tspan x="0" y="10" style="font-family: Roboto; font-weight: 400; font-stretch: 100%; font-size: 10px; stroke: rgb(255, 255, 255); stroke-width: 2; stroke-linejoin: round; stroke-linecap: round;">N HICKORY ST.</tspan></text><text transform="rotate(-88.69780841448417, 186.99449, 36.2265) translate(186.99449157714844, 30.726497650146484)" style="text-anchor: middle;"><tspan fill="rgb(136, 136, 136)" x="0" y="10" style="font-family: Roboto; font-weight: 400; font-stretch: 100%; font-size: 10px;">N HICKORY ST.</tspan></text></g><g id="MAIN-svg STREET-svg"><text transform="rotate(9.827163395305972, 450.1669921875, 117.24199676513672) translate(450.1669921875, 111.74199676513672)" style="text-anchor: middle;"><tspan x="0" y="10" style="font-family: Roboto; font-weight: 400; font-stretch: 100%; font-size: 10px; stroke: rgb(255, 255, 255); stroke-width: 2; stroke-linejoin: round; stroke-linecap: round;">MAIN STREET</tspan></text><text transform="rotate(9.827163395305972, 450.16699, 117.242) translate(450.1669921875, 111.74199676513672)" style="text-anchor: middle;"><tspan fill="rgb(136, 136, 136)" x="0" y="10" style="font-family: Roboto; font-weight: 400; font-stretch: 100%; font-size: 10px;">MAIN STREET</tspan></text></g><g id="E-svg NORTH-svg 1ST-svg ST.-svg"><text transform="rotate(1.3971008435529042, 533.6217651367188, 7.840089797973633) translate(533.6217651367188, 2.340089797973633)" style="text-anchor: middle;"><tspan x="0" y="10" style="font-family: Roboto; font-weight: 400; font-stretch: 100%; font-size: 10px; stroke: rgb(255, 255, 255); stroke-width: 2; stroke-linejoin: round; stroke-linecap: round;">E NORTH 1ST ST.</tspan></text><text transform="rotate(1.3971008435529042, 533.62177, 7.84009) translate(533.6217651367188, 2.340089797973633)" style="text-anchor: middle;"><tspan fill="rgb(136, 136, 136)" x="0" y="10" style="font-family: Roboto; font-weight: 400; font-stretch: 100%; font-size: 10px;">E NORTH 1ST ST.</tspan></text></g><g id="E-svg MAIN-svg ST.-svg"><text transform="rotate(8.677571885202193, 385.68798828125, 106.73049926757812) translate(385.68798828125, 101.23049926757812)" style="text-anchor: middle;"><tspan x="0" y="10" style="font-family: Roboto; font-weight: 400; font-stretch: 100%; font-size: 10px; stroke: rgb(255, 255, 255); stroke-width: 2; stroke-linejoin: round; stroke-linecap: round;">E MAIN ST.</tspan></text><text transform="rotate(8.677571885202193, 385.68799, 106.7305) translate(385.68798828125, 101.23049926757812)" style="text-anchor: middle;"><tspan fill="rgb(136, 136, 136)" x="0" y="10" style="font-family: Roboto; font-weight: 400; font-stretch: 100%; font-size: 10px;">E MAIN ST.</tspan></text></g><g id="E-svg JASON-svg ST.-svg"><text transform="rotate(8.463362538967349, 362.35748291015625, 285.04150390625) translate(362.35748291015625, 279.54150390625)" style="text-anchor: middle;"><tspan x="0" y="10" style="font-family: Roboto; font-weight: 400; font-stretch: 100%; font-size: 10px; stroke: rgb(255, 255, 255); stroke-width: 2; stroke-linejoin: round; stroke-linecap: round;">E JASON ST.</tspan></text><text transform="rotate(8.463362538967349, 362.35748, 285.0415) translate(362.35748291015625, 279.54150390625)" style="text-anchor: middle;"><tspan fill="rgb(136, 136, 136)" x="0" y="10" style="font-family: Roboto; font-weight: 400; font-stretch: 100%; font-size: 10px;">E JASON ST.</tspan></text></g><g id="E-svg 1ST-svg SOUTH-svg ST.-svg"><text transform="rotate(9.16219377946681, 361.8515625, 183.59959411621094) translate(361.8515625, 178.09959411621094)" style="text-anchor: middle;"><tspan x="0" y="10" style="font-family: Roboto; font-weight: 400; font-stretch: 100%; font-size: 10px; stroke: rgb(255, 255, 255); stroke-width: 2; stroke-linejoin: round; stroke-linecap: round;">E 1ST SOUTH ST.</tspan></text><text transform="rotate(9.16219377946681, 361.85156, 183.59959) translate(361.8515625, 178.09959411621094)" style="text-anchor: middle;"><tspan fill="rgb(136, 136, 136)" x="0" y="10" style="font-family: Roboto; font-weight: 400; font-stretch: 100%; font-size: 10px;">E 1ST SOUTH ST.</tspan></text></g><g id="E-svg 1ST-svg SOUTH-svg ST.-svg"><text transform="rotate(4.773981915565498, 462.9978942871094, 199.53848266601562) translate(462.9978942871094, 194.03848266601562)" style="text-anchor: middle;"><tspan x="0" y="10" style="font-family: Roboto; font-weight: 400; font-stretch: 100%; font-size: 10px; stroke: rgb(255, 255, 255); stroke-width: 2; stroke-linejoin: round; stroke-linecap: round;">E 1ST SOUTH ST.</tspan></text><text transform="rotate(4.773981915565498, 462.99789, 199.53848) translate(462.9978942871094, 194.03848266601562)" style="text-anchor: middle;"><tspan fill="rgb(136, 136, 136)" x="0" y="10" style="font-family: Roboto; font-weight: 400; font-stretch: 100%; font-size: 10px;">E 1ST SOUTH ST.</tspan></text></g><g id="W-svg BROADWAY-svg ST.-svg"><text transform="rotate(-37.01848268718375, 14.859535217285156, 357.485107421875) translate(14.859535217285156, 351.985107421875)" style="text-anchor: middle;"><tspan x="0" y="10" style="font-family: Roboto; font-weight: 400; font-stretch: 100%; font-size: 10px; stroke: rgb(255, 255, 255); stroke-width: 2; stroke-linejoin: round; stroke-linecap: round;">W BROADWAY ST.</tspan></text><text transform="rotate(-37.01848268718375, 14.85954, 357.48511) translate(14.859535217285156, 351.985107421875)" style="text-anchor: middle;"><tspan fill="rgb(136, 136, 136)" x="0" y="10" style="font-family: Roboto; font-weight: 400; font-stretch: 100%; font-size: 10px;">W BROADWAY ST.</tspan></text></g><g id="E-svg BRUSH-svg ST.-svg"><text transform="rotate(12.406684020202961, 357.9653015136719, 408.6368408203125) translate(357.9653015136719, 403.1368408203125)" style="text-anchor: middle;"><tspan x="0" y="10" style="font-family: Roboto; font-weight: 400; font-stretch: 100%; font-size: 10px; stroke: rgb(255, 255, 255); stroke-width: 2; stroke-linejoin: round; stroke-linecap: round;">E BRUSH ST.</tspan></text><text transform="rotate(12.406684020202961, 357.9653, 408.63684) translate(357.9653015136719, 403.1368408203125)" style="text-anchor: middle;"><tspan fill="rgb(136, 136, 136)" x="0" y="10" style="font-family: Roboto; font-weight: 400; font-stretch: 100%; font-size: 10px;">E BRUSH ST.</tspan></text></g><g id="S-svg OAK-svg ST.-svg"><text transform="rotate(-80.25314455091694, 313.5802307128906, 348.5328063964844) translate(313.5802307128906, 343.0328063964844)" style="text-anchor: middle;"><tspan x="0" y="10" style="font-family: Roboto; font-weight: 400; font-stretch: 100%; font-size: 10px; stroke: rgb(255, 255, 255); stroke-width: 2; stroke-linejoin: round; stroke-linecap: round;">S OAK ST.</tspan></text><text transform="rotate(-80.25314455091694, 313.58023, 348.53281) translate(313.5802307128906, 343.0328063964844)" style="text-anchor: middle;"><tspan fill="rgb(136, 136, 136)" x="0" y="10" style="font-family: Roboto; font-weight: 400; font-stretch: 100%; font-size: 10px;">S OAK ST.</tspan></text></g><g id="BERRY-svg AVENUE-svg"><text transform="rotate(1.313968383127912, 505.90283203125, 449.2678527832031) translate(505.90283203125, 443.7678527832031)" style="text-anchor: middle;"><tspan x="0" y="10" style="font-family: Roboto; font-weight: 400; font-stretch: 100%; font-size: 10px; stroke: rgb(255, 255, 255); stroke-width: 2; stroke-linejoin: round; stroke-linecap: round;">BERRY AVENUE</tspan></text><text transform="rotate(1.313968383127912, 505.90283, 449.26785) translate(505.90283203125, 443.7678527832031)" style="text-anchor: middle;"><tspan fill="rgb(136, 136, 136)" x="0" y="10" style="font-family: Roboto; font-weight: 400; font-stretch: 100%; font-size: 10px;">BERRY AVENUE</tspan></text></g></g><g id="Richview-svg"><text transform="translate(299, 181.609375)" style="text-anchor: middle;"><tspan x="0" y="14" style="font-family: Roboto; font-weight: 400; font-stretch: 100%; font-size: 14px; stroke: rgb(242, 243, 240); stroke-width: 2; stroke-linejoin: round; stroke-linecap: round;">Richview</tspan></text><text transform="translate(299, 181.609375)" style="text-anchor: middle;"><tspan fill="rgb(51,51,51)" x="0" y="14" style="font-family: Roboto; font-weight: 400; font-stretch: 100%; font-size: 14px;">Richview</tspan></text></g><g id="svg-marker-svg" transform="translate(299, 190)"><g id="svg-id-E3AyPRxVO5-svg" transform="translate(-14, -14)"/></g><rect width="156.96875" height="14" transform="translate(443.03125, 433)" fill="rgba(255,255,255,0.73)" style="fill: rgb(255, 255, 255); fill-opacity: 0.73;"/><text transform="translate(447, 434)"><tspan fill="rgba(119,119,119,0.87)" x="0" y="11" style="font-family: Roboto; font-weight: 400; font-stretch: 100%; font-size: 11px;">©</tspan><tspan fill="rgba(119,119,119,0.87)" dx="2.734375" style="font-family: Roboto; font-weight: 400; font-stretch: 100%; font-size: 11px;">OpenStreetMap</tspan><tspan fill="rgba(119,119,119,0.87)" dx="2.734375" style="font-family: Roboto; font-weight: 400; font-stretch: 100%; font-size: 11px;">contributors</tspan></text></g></g></g></g><g id="container-svg container-footer-svg datawrapper-Lk7eK-1la8dcw-svg"><text transform="translate(0, 467)"><tspan fill="rgb(136,136,136)" x="0" y="11" style="font-family: Roboto; font-weight: 400; font-stretch: 100%; font-size: 11px;">Created with</tspan><tspan fill="rgb(136,136,136)" dx="2.734375" style="font-family: Roboto; font-weight: 400; font-stretch: 100%; font-size: 11px;">Datawrapper</tspan></text></g></g></g></g></svg>