<svg xmlns="http://www.w3.org/2000/svg" xmlns:xlink="http://www.w3.org/1999/xlink" id="exportSvg" width="600" height="480"><defs/><g><g id="__svelte-dw-svg" clip-path="url(#rect-mask-POOq0I4xrl661AHVTsbpN)"><clipPath id="rect-mask-POOq0I4xrl661AHVTsbpN"><rect x="0" y="0" width="600" height="480"/></clipPath><g id="container-svg container-body-svg datawrapper-W7LRj-1gvfeww-svg"><g id="container-svg container-bodyTop-svg datawrapper-W7LRj-lmtz6e-svg"><g id="container-svg container-bodyCenter-svg datawrapper-W7LRj-1fgvipr-svg"><g id="chart-svg"><g id="container-inner-svg export-group-svg maplibregl-map-svg" clip-path="url(#rect-mask-BbUZHPwmFePpaPrS0iSBQ)"><clipPath id="rect-mask-BbUZHPwmFePpaPrS0iSBQ"><rect x="0" y="0" width="600" height="447"/></clipPath><g id="basemap-svg" clip-path="url(#rect-mask-2FLZwqgFEp21Pf7EJ3qT7)"><clipPath id="rect-mask-2FLZwqgFEp21Pf7EJ3qT7"><rect x="0" y="0" width="600" height="447"/></clipPath><rect width="600" height="447" transform="translate(0, 0)" fill="rgb(255,255,255)" id="background" style="fill: rgb(255, 255, 255);"/><path d="M-454.472,40.287L-434.813,40.287L-356.51,41.12L-347.181,41.286L-333.519,41.453L-288.204,41.786L-63.459,42.952L-45.466,43.119L-33.804,43.286L-28.306,43.286L-8.647,43.785L56.161,44.285M249.252,159.24L219.763,154.242L202.437,151.077L177.78,147.411L132.464,140.081L72.488,131.084M324.056,170.402L314.06,168.903L303.064,167.07L282.572,164.071L261.747,161.239L227.927,155.575M132.464,140.081L140.628,89.101M219.763,154.242L228.094,103.429L236.09,52.948L239.256,33.789L243.421,8.299L247.919,-17.357L248.419,-20.856L249.252,-26.854M227.927,104.428L228.094,103.429L236.09,52.948L239.256,33.789L243.421,8.299L247.919,-17.357L248.419,-20.856L249.918,-31.685L250.751,-36.017L258.582,-79.5M205.103,251.704L204.27,249.205L204.603,245.873L211.433,205.222L214.099,185.896L219.763,154.242M200.771,203.223L202.437,151.077M202.77,99.597L205.269,48.117M249.252,210.886L232.425,208.387L211.433,205.222L200.771,203.223L169.616,197.225L132.631,190.061L60.826,179.066M315.892,220.882L306.063,219.55L295.567,218.05L275.242,214.885L253.75,211.553L232.425,208.387L227.927,207.721M249.252,262.533L245.42,262.033L224.428,258.534L208.934,255.202L206.769,253.703L205.103,251.704M287.57,268.197L266.079,265.032L245.42,262.033L227.927,259.201M249.252,106.761L228.094,103.429L202.77,99.597L140.628,89.101L67.823,77.939M310.894,116.757L290.569,113.425L228.094,103.429L227.927,103.429M249.252,54.948L236.09,52.948L205.269,48.117L194.773,45.951L185.777,45.118L175.947,44.452L56.161,44.285M278.074,59.446L236.09,52.948L227.927,51.616M169.616,197.225L177.78,147.411M60.826,179.066L30.338,174.567M248.919,106.761L246.253,123.254L244.754,132.251L242.088,148.577L240.755,157.741L232.425,208.387L224.428,258.534M248.919,106.761L246.253,123.254L244.754,132.251L242.088,148.577L240.755,157.741L232.425,208.387L227.927,236.543M319.558,65.777L278.074,59.446M303.064,167.07L310.894,116.757L319.558,65.777M481.661,302.85L481.661,298.852L482.16,247.539L483.16,232.378L483.493,195.892L483.493,192.06L484.326,172.235L485.492,143.08L485.159,126.919L485.826,100.097L485.492,91.6M481.161,336.17L481.661,298.852L481.827,281.525M369.871,178.066L377.535,127.752L386.032,77.106M306.896,302.85L310.894,281.192L312.727,271.862L315.892,251.037L320.724,221.715L328.221,171.235M289.736,411.474L302.897,334.338L304.73,315.179L310.894,281.525M249.252,210.886L232.425,208.387L211.433,205.222L200.771,203.223L169.616,197.225L132.631,190.061L60.826,179.066M315.892,220.882L306.063,219.55L295.567,218.05L275.242,214.885L253.75,211.553L232.425,208.387L227.927,207.721M483.493,195.892L453.172,191.394L411.522,184.897L369.871,178.066L348.879,174.567L328.221,171.235L324.056,170.402M249.252,262.533L245.42,262.033L224.428,258.534L208.934,255.202L206.769,253.703L205.103,251.704M287.57,268.197L266.079,265.032L245.42,262.033L227.927,259.201M428.348,83.603L432.846,53.615M453.172,191.394L461.002,140.247L469.166,89.267M249.252,106.761L228.094,103.429L202.77,99.597L140.628,89.101L67.823,77.939M310.894,116.757L290.569,113.425L228.094,103.429L227.927,103.429M249.252,54.948L236.09,52.948L205.269,48.117L194.773,45.951L185.777,45.118L175.947,44.452L56.161,44.285M278.074,59.446L236.09,52.948L227.927,51.616M435.179,302.85L436.845,292.521L445.175,241.874L453.172,191.394M430.181,334.838L436.845,292.521L438.678,281.525M328.221,171.235L335.385,121.255M485.492,91.6L485.659,78.938L485.992,51.616L486.992,-3.363M282.072,302.85L287.57,268.197L290.736,247.372L295.567,218.05L303.064,167.07M276.741,332.672L277.574,330.839L278.074,328.84L285.404,281.525M931.651,61.278L913.158,61.278L628.936,55.114L599.781,54.614L491.324,51.282L485.992,51.616M249.252,159.24L219.763,154.242L202.437,151.077L177.78,147.411L132.464,140.081L72.488,131.084M324.056,170.402L314.06,168.903L303.064,167.07L282.572,164.071L261.747,161.239L227.927,155.575M219.763,154.242L228.094,103.429L236.09,52.948L239.256,33.789L243.421,8.299L247.919,-17.357L248.419,-20.856L249.252,-26.854M227.927,104.428L228.094,103.429L236.09,52.948L239.256,33.789L243.421,8.299L247.919,-17.357L248.419,-20.856L249.918,-31.685L250.751,-36.017L258.582,-79.5M482.16,247.539L445.175,241.874L403.358,234.877L361.708,228.213L340.716,224.881L320.724,221.715L315.892,220.882M481.661,298.852L436.845,292.521L394.528,285.524L374.203,282.691L354.044,279.359L332.719,275.361L312.727,271.862M481.661,298.852L436.845,292.521L394.528,285.524L374.203,282.691L367.206,281.525M485.492,143.08L461.002,140.247L420.185,133.917L398.86,130.585L377.535,127.752L357.043,124.587L335.385,121.255M485.492,91.6L469.166,89.267L428.348,83.603L406.357,80.271L386.032,77.106L351.712,71.108L349.046,70.775L346.88,71.275M392.029,302.85L394.528,285.524L403.358,234.877L411.522,184.897M387.698,334.338L394.528,285.524L395.195,281.525M411.522,184.897L420.185,133.917L428.348,83.603M335.385,121.255L342.715,78.938L343.881,75.44L345.048,73.107L346.88,71.275M350.379,302.85L354.044,279.359L361.708,228.213L369.871,178.066M335.551,629.722L334.885,621.059L336.051,519.432L336.218,495.441L335.718,418.305L337.051,384.318L345.547,334.171L353.711,281.525M248.919,106.761L246.253,123.254L244.754,132.251L242.088,148.577L240.755,157.741L232.425,208.387L224.428,258.534M248.919,106.761L246.253,123.254L244.754,132.251L242.088,148.577L240.755,157.741L232.425,208.387L227.927,236.543M266.079,265.032L269.744,247.205L272.576,231.545L273.409,225.547L274.409,220.049L275.242,214.885L282.572,164.071L290.569,113.425M406.357,80.271L407.023,76.273L409.356,60.112M398.86,130.585L400.359,120.755L402.692,106.094L404.358,96.265L406.357,80.271M484.326,172.235L494.989,172.735L502.652,171.902M374.203,282.691L371.204,302.85M374.203,282.691L370.204,310.181M483.493,192.06L503.152,191.894M483.16,232.378L489.491,231.378L502.652,230.712L516.147,232.378M599.781,54.614L599.614,59.446L599.781,61.612L600.114,63.611L601.28,65.61L602.447,67.443L602.946,69.608L603.113,71.275L602.78,73.44L600.947,79.938L600.114,81.77L599.115,83.436L597.948,84.436L596.782,85.102M332.719,275.361L340.716,224.881L348.879,174.567L357.043,124.587M48.831,336.837L-230.393,334.005L-335.852,333.671L-369.339,332.838L-454.472,333.005M235.091,455.29L237.257,443.462L239.089,430.633L243.421,404.144L248.086,376.988M235.091,455.29L237.257,443.462L239.089,430.633L243.421,404.144L248.086,376.988M239.089,430.633L212.6,425.969M239.089,430.633L227.927,428.634M249.252,404.977L243.421,404.144L216.431,399.646M264.579,407.143L243.421,404.144L227.927,401.478M48.831,336.837L186.943,336.504L191.774,336.17L195.773,335.171L200.604,333.838L204.436,333.172L207.935,332.838L226.428,333.005L249.252,333.338M227.927,333.005L272.909,333.671L274.742,333.505L276.741,332.672M249.252,377.154L248.086,376.988L220.263,372.49M267.411,379.987L248.086,376.988L227.927,373.656M249.252,404.977L243.421,404.144L216.431,399.646M264.579,407.143L243.421,404.144L227.927,401.478M435.179,302.85L436.845,292.521L445.175,241.874L453.172,191.394M430.181,334.838L436.845,292.521L438.678,281.525M282.072,302.85L287.57,268.197L290.736,247.372L295.567,218.05L303.064,167.07M276.741,332.672L277.574,330.839L278.074,328.84L285.404,281.525M48.831,336.837L186.943,336.504L191.774,336.17L195.773,335.171L200.604,333.838L204.436,333.172L207.935,332.838L226.428,333.005L249.252,333.338M227.927,333.005L272.909,333.671L274.742,333.505L276.741,332.672M249.252,377.154L248.086,376.988L220.263,372.49M267.411,379.987L248.086,376.988L227.927,373.656M481.661,298.852L436.845,292.521L394.528,285.524L374.203,282.691L354.044,279.359L332.719,275.361L312.727,271.862M481.661,298.852L436.845,292.521L394.528,285.524L374.203,282.691L367.206,281.525M235.091,455.29L237.257,443.462L239.089,430.633L243.421,404.144L248.086,376.988M235.091,455.29L237.257,443.462L239.089,430.633L243.421,404.144L248.086,376.988M392.029,302.85L394.528,285.524L403.358,234.877L411.522,184.897M387.698,334.338L394.528,285.524L395.195,281.525M387.698,334.338L345.547,334.171L302.897,334.338M350.379,302.85L354.044,279.359L361.708,228.213L369.871,178.066M335.551,629.722L334.885,621.059L336.051,519.432L336.218,495.441L335.718,418.305L337.051,384.318L345.547,334.171L353.711,281.525M239.089,430.633L212.6,425.969M239.089,430.633L227.927,428.634M481.661,302.85L481.661,298.852L482.16,247.539L483.16,232.378L483.493,195.892L483.493,192.06L484.326,172.235L485.492,143.08L485.159,126.919L485.826,100.097L485.492,91.6M481.161,336.17L481.661,298.852L481.827,281.525M306.896,302.85L310.894,281.192L312.727,271.862L315.892,251.037L320.724,221.715L328.221,171.235M289.736,411.474L302.897,334.338L304.73,315.179L310.894,281.525M680.749,359.495L672.586,345L624.604,340.336L617.94,340.169L553.299,338.836L543.303,338.503L481.161,336.17L430.181,334.838L387.698,334.338M335.718,418.305L321.224,416.472L289.736,411.474L280.573,409.642M374.203,282.691L371.204,302.85M374.203,282.691L370.204,310.181M553.299,338.836L554.632,336.504L555.298,326.508L556.631,322.842" stroke="rgb(231,231,231)" id="road_minor" transform="translate(0.5, 0)" style="fill: none; stroke-width: 2.79816; stroke-linejoin: round; stroke-linecap: round; stroke: rgb(231, 231, 231);"/><path d="M236.424,302.85L236.757,302.017L238.09,297.686L239.756,292.521L241.088,287.356L242.255,281.359L243.421,275.694L245.42,262.033L249.252,238.875M236.424,302.85L236.757,302.017L238.09,297.686L239.756,292.521L241.088,287.356L242.255,281.359L243.421,275.694L245.42,262.033L253.75,211.553L261.747,161.239M196.772,537.258L198.938,520.931L201.271,505.771L205.602,475.283L209.268,450.626L212.6,425.969L216.431,399.646L220.263,372.49L223.595,349.832L224.928,340.835L226.428,333.005L227.594,328.34L229.593,322.009L232.259,314.346L235.091,306.515L236.757,302.017L238.09,297.686L239.756,292.521L241.088,287.356L242.255,281.525M227.927,327.341L229.593,322.009L232.259,314.346L235.091,306.515L236.757,302.017L238.09,297.686L239.756,292.521L241.088,287.356L242.255,281.525M236.424,302.85L236.757,302.017L238.09,297.686L239.756,292.521L241.088,287.356L242.255,281.359L243.421,275.694L245.42,262.033L249.252,238.875M236.424,302.85L236.757,302.017L238.09,297.686L239.756,292.521L241.088,287.356L242.255,281.359L243.421,275.694L245.42,262.033L253.75,211.553L261.747,161.239M196.772,537.258L198.938,520.931L201.271,505.771L205.602,475.283L209.268,450.626L212.6,425.969L216.431,399.646L220.263,372.49L223.595,349.832L224.928,340.835L226.428,333.005L227.594,328.34L229.593,322.009L232.259,314.346L235.091,306.515L236.757,302.017L238.09,297.686L239.756,292.521L241.088,287.356L242.255,281.525M227.927,327.341L229.593,322.009L232.259,314.346L235.091,306.515L236.757,302.017L238.09,297.686L239.756,292.521L241.088,287.356L242.255,281.525M261.747,161.239L269.744,110.093L278.074,59.446L289.736,-10.527L290.902,-15.192L292.568,-22.189L295.734,-33.184L299.399,-44.014L303.231,-54.176L308.062,-65.339L309.228,-67.671M236.424,302.85L236.757,302.017L238.09,297.686L239.756,292.521L241.088,287.356L242.255,281.359L243.421,275.694L245.42,262.033L249.252,238.875M236.424,302.85L236.757,302.017L238.09,297.686L239.756,292.521L241.088,287.356L242.255,281.359L243.421,275.694L245.42,262.033L253.75,211.553L261.747,161.239M196.772,537.258L198.938,520.931L201.271,505.771L205.602,475.283L209.268,450.626L212.6,425.969L216.431,399.646L220.263,372.49L223.595,349.832L224.928,340.835L226.428,333.005L227.594,328.34L229.593,322.009L232.259,314.346L235.091,306.515L236.757,302.017L238.09,297.686L239.756,292.521L241.088,287.356L242.255,281.525M227.927,327.341L229.593,322.009L232.259,314.346L235.091,306.515L236.757,302.017L238.09,297.686L239.756,292.521L241.088,287.356L242.255,281.525M236.424,302.85L236.757,302.017L238.09,297.686L239.756,292.521L241.088,287.356L242.255,281.359L243.421,275.694L245.42,262.033L249.252,238.875M236.424,302.85L236.757,302.017L238.09,297.686L239.756,292.521L241.088,287.356L242.255,281.359L243.421,275.694L245.42,262.033L253.75,211.553L261.747,161.239M196.772,537.258L198.938,520.931L201.271,505.771L205.602,475.283L209.268,450.626L212.6,425.969L216.431,399.646L220.263,372.49L223.595,349.832L224.928,340.835L226.428,333.005L227.594,328.34L229.593,322.009L232.259,314.346L235.091,306.515L236.757,302.017L238.09,297.686L239.756,292.521L241.088,287.356L242.255,281.525M227.927,327.341L229.593,322.009L232.259,314.346L235.091,306.515L236.757,302.017L238.09,297.686L239.756,292.521L241.088,287.356L242.255,281.525" stroke="rgb(231,231,231)" id="road_primary" transform="translate(0.5, 0)" style="fill: none; stroke-width: 4.77723; stroke-linejoin: round; stroke-linecap: round; stroke: rgb(231, 231, 231);"/><path d="M295.734,302.85L307.229,268.364L309.895,256.702L312.061,245.539L315.892,220.882L324.056,170.402L336.218,91.1L339.55,76.439L342.549,67.109L345.881,59.612L349.712,52.449L354.211,45.285L361.541,36.122L369.205,27.792L375.869,21.294L383.532,15.463L389.863,11.465L398.693,6.966L408.023,2.801L417.019,-0.031L427.682,-2.53L437.678,-3.696L450.839,-4.196L486.992,-3.363L913.658,4.467L931.651,4.634M288.237,332.339L293.901,310.014L295.734,302.85L302.897,281.525M292.901,302.85L306.063,219.55L314.06,168.903L326.222,92.599L330.22,67.276L335.885,29.624L354.877,-90.995L366.373,-161.967L378.534,-235.605L380.7,-251.266L405.191,-400.873M288.237,332.339L296.233,281.525M326.222,92.599L329.72,79.105L331.22,70.941L348.38,-37.35M227.927,615.061L232.092,608.23L239.256,592.903L243.921,578.909L246.753,567.58L251.085,543.922L271.41,414.973L278.74,378.82L285.904,347.666M295.734,302.85L307.229,268.364L309.895,256.702L312.061,245.539L315.892,220.882L324.056,170.402L336.218,91.1L339.55,76.439L342.549,67.109L345.881,59.612L349.712,52.449L354.211,45.285L361.541,36.122L369.205,27.792L375.869,21.294L383.532,15.463L389.863,11.465L398.693,6.966L408.023,2.801L417.019,-0.031L427.682,-2.53L437.678,-3.696L450.839,-4.196L486.992,-3.363L913.658,4.467L931.651,4.634M288.237,332.339L293.901,310.014L295.734,302.85L302.897,281.525M292.901,302.85L306.063,219.55L314.06,168.903L326.222,92.599L330.22,67.276L335.885,29.624L354.877,-90.995L366.373,-161.967L378.534,-235.605L380.7,-251.266L405.191,-400.873M288.237,332.339L296.233,281.525M227.927,711.023L240.589,631.388L284.905,354.83L285.904,347.666M285.904,347.666L288.237,332.339" stroke="rgb(157,157,157)" id="railway" transform="translate(0.5, 0)" style="fill: none; stroke-width: 1; stroke-opacity: 0.682894; stroke-linejoin: miter; stroke-linecap: butt; stroke: rgb(157, 157, 157);"/><g id="W-svg 1ST-svg SOUTH-svg ST.-svg"><text transform="rotate(10.962450860170076, 160.43316650390625, 195.4462890625) translate(160.43316650390625, 189.9462890625)" style="text-anchor: middle;"><tspan x="0" y="10" style="font-family: Roboto; font-weight: 400; font-stretch: 100%; font-size: 10px; stroke: rgb(255, 255, 255); stroke-width: 2; stroke-linejoin: round; stroke-linecap: round;">W 1ST SOUTH ST.</tspan></text><text transform="rotate(10.962450860170076, 160.43317, 195.44629) translate(160.43316650390625, 189.9462890625)" style="text-anchor: middle;"><tspan fill="rgb(136, 136, 136)" x="0" y="10" style="font-family: Roboto; font-weight: 400; font-stretch: 100%; font-size: 10px;">W 1ST SOUTH ST.</tspan></text></g><g id="W-svg MAIN-svg ST.-svg"><text transform="rotate(9.188197668563996, 166.27403259277344, 145.54986572265625) translate(166.27403259277344, 140.04986572265625)" style="text-anchor: middle;"><tspan x="0" y="10" style="font-family: Roboto; font-weight: 400; font-stretch: 100%; font-size: 10px; stroke: rgb(255, 255, 255); stroke-width: 2; stroke-linejoin: round; stroke-linecap: round;">W MAIN ST.</tspan></text><text transform="rotate(9.188197668563996, 166.27403, 145.54987) translate(166.27403259277344, 140.04986572265625)" style="text-anchor: middle;"><tspan fill="rgb(136, 136, 136)" x="0" y="10" style="font-family: Roboto; font-weight: 400; font-stretch: 100%; font-size: 10px;">W MAIN ST.</tspan></text></g><g id="W-svg 2ND-svg NORTH-svg ST.-svg"><text transform="rotate(0.07987751082283007, 158.5069122314453, 44.42768478393555) translate(158.5069122314453, 38.92768478393555)" style="text-anchor: middle;"><tspan x="0" y="10" style="font-family: Roboto; font-weight: 400; font-stretch: 100%; font-size: 10px; stroke: rgb(255, 255, 255); stroke-width: 2; stroke-linejoin: round; stroke-linecap: round;">W 2ND NORTH ST.</tspan></text><text transform="rotate(0.07987751082283007, 158.50691, 44.42768) translate(158.5069122314453, 38.92768478393555)" style="text-anchor: middle;"><tspan fill="rgb(136, 136, 136)" x="0" y="10" style="font-family: Roboto; font-weight: 400; font-stretch: 100%; font-size: 10px;">W 2ND NORTH ST.</tspan></text></g><g id="S-svg HICKORY-svg ST.-svg"><text transform="rotate(-81.59014811513734, 211.73788452148438, 203.01182556152344) translate(211.73788452148438, 197.51182556152344)" style="text-anchor: middle;"><tspan x="0" y="10" style="font-family: Roboto; font-weight: 400; font-stretch: 100%; font-size: 10px; stroke: rgb(255, 255, 255); stroke-width: 2; stroke-linejoin: round; stroke-linecap: round;">S HICKORY ST.</tspan></text><text transform="rotate(-81.59014811513734, 211.73788, 203.01183) translate(211.73788452148438, 197.51182556152344)" style="text-anchor: middle;"><tspan fill="rgb(136, 136, 136)" x="0" y="10" style="font-family: Roboto; font-weight: 400; font-stretch: 100%; font-size: 10px;">S HICKORY ST.</tspan></text></g><g id="W-svg 1ST-svg NORTH-svg ST.-svg"><text transform="rotate(9.586980666852376, 163.9058380126953, 93.03270721435547) translate(163.9058380126953, 87.53270721435547)" style="text-anchor: middle;"><tspan x="0" y="10" style="font-family: Roboto; font-weight: 400; font-stretch: 100%; font-size: 10px; stroke: rgb(255, 255, 255); stroke-width: 2; stroke-linejoin: round; stroke-linecap: round;">W 1ST NORTH ST.</tspan></text><text transform="rotate(9.586980666852376, 163.90584, 93.03271) translate(163.9058380126953, 87.53270721435547)" style="text-anchor: middle;"><tspan fill="rgb(136, 136, 136)" x="0" y="10" style="font-family: Roboto; font-weight: 400; font-stretch: 100%; font-size: 10px;">W 1ST NORTH ST.</tspan></text></g><g id="S-svg WALNUT-svg ST.-svg"><text transform="rotate(-80.62974207538818, 249.39987182617188, 237.91488647460938) translate(249.39987182617188, 232.41488647460938)" style="text-anchor: middle;"><tspan x="0" y="10" style="font-family: Roboto; font-weight: 400; font-stretch: 100%; font-size: 10px; stroke: rgb(255, 255, 255); stroke-width: 2; stroke-linejoin: round; stroke-linecap: round;">S WALNUT ST.</tspan></text><text transform="rotate(-80.62974207538818, 249.39987, 237.91489) translate(249.39987182617188, 232.41488647460938)" style="text-anchor: middle;"><tspan fill="rgb(136, 136, 136)" x="0" y="10" style="font-family: Roboto; font-weight: 400; font-stretch: 100%; font-size: 10px;">S WALNUT ST.</tspan></text></g><g id="N-svg WALNUT-svg ST.-svg"><text transform="rotate(-80.53782316579891, 280.4043884277344, 45.463470458984375) translate(280.4043884277344, 39.963470458984375)" style="text-anchor: middle;"><tspan x="0" y="10" style="font-family: Roboto; font-weight: 400; font-stretch: 100%; font-size: 10px; stroke: rgb(255, 255, 255); stroke-width: 2; stroke-linejoin: round; stroke-linecap: round;">N WALNUT ST.</tspan></text><text transform="rotate(-80.53782316579891, 280.40439, 45.46347) translate(280.4043884277344, 39.963470458984375)" style="text-anchor: middle;"><tspan fill="rgb(136, 136, 136)" x="0" y="10" style="font-family: Roboto; font-weight: 400; font-stretch: 100%; font-size: 10px;">N WALNUT ST.</tspan></text></g><g id="W-svg MAIN-svg ST.-svg"><text transform="rotate(7.744204812113099, 270.6009521484375, 162.44305419921875) translate(270.6009521484375, 156.94305419921875)" style="text-anchor: middle;"><tspan x="0" y="10" style="font-family: Roboto; font-weight: 400; font-stretch: 100%; font-size: 10px; stroke: rgb(255, 255, 255); stroke-width: 2; stroke-linejoin: round; stroke-linecap: round;">W MAIN ST.</tspan></text><text transform="rotate(7.744204812113099, 270.60095, 162.44305) translate(270.6009521484375, 156.94305419921875)" style="text-anchor: middle;"><tspan fill="rgb(136, 136, 136)" x="0" y="10" style="font-family: Roboto; font-weight: 400; font-stretch: 100%; font-size: 10px;">W MAIN ST.</tspan></text></g><g id="S-svg OAK-svg ST.-svg"><text transform="rotate(-80.64232785981113, 317.3013916015625, 242.4844207763672) translate(317.3013916015625, 236.9844207763672)" style="text-anchor: middle;"><tspan x="0" y="10" style="font-family: Roboto; font-weight: 400; font-stretch: 100%; font-size: 10px; stroke: rgb(255, 255, 255); stroke-width: 2; stroke-linejoin: round; stroke-linecap: round;">S OAK ST.</tspan></text><text transform="rotate(-80.64232785981113, 317.30139, 242.48442) translate(317.3013916015625, 236.9844207763672)" style="text-anchor: middle;"><tspan fill="rgb(136, 136, 136)" x="0" y="10" style="font-family: Roboto; font-weight: 400; font-stretch: 100%; font-size: 10px;">S OAK ST.</tspan></text></g><g id="N-svg MAPLE-svg ST.-svg"><text transform="rotate(-89.47707509322943, 483.4322814941406, 202.5456085205078) translate(483.4322814941406, 197.0456085205078)" style="text-anchor: middle;"><tspan x="0" y="10" style="font-family: Roboto; font-weight: 400; font-stretch: 100%; font-size: 10px; stroke: rgb(255, 255, 255); stroke-width: 2; stroke-linejoin: round; stroke-linecap: round;">N MAPLE ST.</tspan></text><text transform="rotate(-89.47707509322943, 483.43228, 202.54561) translate(483.4322814941406, 197.0456085205078)" style="text-anchor: middle;"><tspan fill="rgb(136, 136, 136)" x="0" y="10" style="font-family: Roboto; font-weight: 400; font-stretch: 100%; font-size: 10px;">N MAPLE ST.</tspan></text></g><g id="N-svg HICKORY-svg ST.-svg"><text transform="rotate(-80.64097925956473, 238.678466796875, 37.28389358520508) translate(238.678466796875, 31.783893585205078)" style="text-anchor: middle;"><tspan x="0" y="10" style="font-family: Roboto; font-weight: 400; font-stretch: 100%; font-size: 10px; stroke: rgb(255, 255, 255); stroke-width: 2; stroke-linejoin: round; stroke-linecap: round;">N HICKORY ST.</tspan></text><text transform="rotate(-80.64097925956473, 238.67847, 37.28389) translate(238.678466796875, 31.783893585205078)" style="text-anchor: middle;"><tspan fill="rgb(136, 136, 136)" x="0" y="10" style="font-family: Roboto; font-weight: 400; font-stretch: 100%; font-size: 10px;">N HICKORY ST.</tspan></text></g><g id="N-svg ELM-svg ST.-svg"><text transform="rotate(-81.10158880486723, 460.9934387207031, 140.30300903320312) translate(460.9934387207031, 134.80300903320312)" style="text-anchor: middle;"><tspan x="0" y="10" style="font-family: Roboto; font-weight: 400; font-stretch: 100%; font-size: 10px; stroke: rgb(255, 255, 255); stroke-width: 2; stroke-linejoin: round; stroke-linecap: round;">N ELM ST.</tspan></text><text transform="rotate(-81.10158880486723, 460.99344, 140.30301) translate(460.9934387207031, 134.80300903320312)" style="text-anchor: middle;"><tspan fill="rgb(136, 136, 136)" x="0" y="10" style="font-family: Roboto; font-weight: 400; font-stretch: 100%; font-size: 10px;">N ELM ST.</tspan></text></g><g id="N-svg CHESTNUT-svg ST.-svg"><text transform="rotate(-80.73374310530443, 310.96038818359375, 116.36643981933594) translate(310.96038818359375, 110.86643981933594)" style="text-anchor: middle;"><tspan x="0" y="10" style="font-family: Roboto; font-weight: 400; font-stretch: 100%; font-size: 10px; stroke: rgb(255, 255, 255); stroke-width: 2; stroke-linejoin: round; stroke-linecap: round;">N CHESTNUT ST.</tspan></text><text transform="rotate(-80.73374310530443, 310.96039, 116.36644) translate(310.96038818359375, 110.86643981933594)" style="text-anchor: middle;"><tspan fill="rgb(136, 136, 136)" x="0" y="10" style="font-family: Roboto; font-weight: 400; font-stretch: 100%; font-size: 10px;">N CHESTNUT ST.</tspan></text></g><g id="MAPLE-svg STREET-svg"><text transform="rotate(-88.95804911005445, 486.12841796875, 44.116756439208984) translate(486.12841796875, 38.616756439208984)" style="text-anchor: middle;"><tspan x="0" y="10" style="font-family: Roboto; font-weight: 400; font-stretch: 100%; font-size: 10px; stroke: rgb(255, 255, 255); stroke-width: 2; stroke-linejoin: round; stroke-linecap: round;">MAPLE STREET</tspan></text><text transform="rotate(-88.95804911005445, 486.12842, 44.11676) translate(486.12841796875, 38.616756439208984)" style="text-anchor: middle;"><tspan fill="rgb(136, 136, 136)" x="0" y="10" style="font-family: Roboto; font-weight: 400; font-stretch: 100%; font-size: 10px;">MAPLE STREET</tspan></text></g><g id="E-svg MAIN-svg ST.-svg"><text transform="rotate(9.313919526330936, 403.6990051269531, 183.61398315429688) translate(403.6990051269531, 178.11398315429688)" style="text-anchor: middle;"><tspan x="0" y="10" style="font-family: Roboto; font-weight: 400; font-stretch: 100%; font-size: 10px; stroke: rgb(255, 255, 255); stroke-width: 2; stroke-linejoin: round; stroke-linecap: round;">E MAIN ST.</tspan></text><text transform="rotate(9.313919526330936, 403.69901, 183.61398) translate(403.6990051269531, 178.11398315429688)" style="text-anchor: middle;"><tspan fill="rgb(136, 136, 136)" x="0" y="10" style="font-family: Roboto; font-weight: 400; font-stretch: 100%; font-size: 10px;">E MAIN ST.</tspan></text></g><g id="E-svg 2ND-svg SOUTH-svg ST.-svg"><text transform="rotate(8.903563981670098, 397.09619140625, 285.9486389160156) translate(397.09619140625, 280.4486389160156)" style="text-anchor: middle;"><tspan x="0" y="10" style="font-family: Roboto; font-weight: 400; font-stretch: 100%; font-size: 10px; stroke: rgb(255, 255, 255); stroke-width: 2; stroke-linejoin: round; stroke-linecap: round;">E 2ND SOUTH ST.</tspan></text><text transform="rotate(8.903563981670098, 397.09619, 285.94864) translate(397.09619140625, 280.4486389160156)" style="text-anchor: middle;"><tspan fill="rgb(136, 136, 136)" x="0" y="10" style="font-family: Roboto; font-weight: 400; font-stretch: 100%; font-size: 10px;">E 2ND SOUTH ST.</tspan></text></g><g id="E-svg 2ND-svg NORTH-svg ST.-svg"><text transform="rotate(8.61570971903605, 416.057861328125, 81.7408447265625) translate(416.057861328125, 76.2408447265625)" style="text-anchor: middle;"><tspan x="0" y="10" style="font-family: Roboto; font-weight: 400; font-stretch: 100%; font-size: 10px; stroke: rgb(255, 255, 255); stroke-width: 2; stroke-linejoin: round; stroke-linecap: round;">E 2ND NORTH ST.</tspan></text><text transform="rotate(8.61570971903605, 416.05786, 81.74084) translate(416.057861328125, 76.2408447265625)" style="text-anchor: middle;"><tspan fill="rgb(136, 136, 136)" x="0" y="10" style="font-family: Roboto; font-weight: 400; font-stretch: 100%; font-size: 10px;">E 2ND NORTH ST.</tspan></text></g><g id="E-svg 1ST-svg SOUTH-svg ST.-svg"><text transform="rotate(9.177224913512568, 399.0308837890625, 234.18466186523438) translate(399.0308837890625, 228.68466186523438)" style="text-anchor: middle;"><tspan x="0" y="10" style="font-family: Roboto; font-weight: 400; font-stretch: 100%; font-size: 10px; stroke: rgb(255, 255, 255); stroke-width: 2; stroke-linejoin: round; stroke-linecap: round;">E 1ST SOUTH ST.</tspan></text><text transform="rotate(9.177224913512568, 399.03088, 234.18466) translate(399.0308837890625, 228.68466186523438)" style="text-anchor: middle;"><tspan fill="rgb(136, 136, 136)" x="0" y="10" style="font-family: Roboto; font-weight: 400; font-stretch: 100%; font-size: 10px;">E 1ST SOUTH ST.</tspan></text></g><g id="E-svg 1ST-svg NORTH-svg ST.-svg"><text transform="rotate(8.880588824120327, 410.4107666015625, 132.38980102539062) translate(410.4107666015625, 126.88980102539062)" style="text-anchor: middle;"><tspan x="0" y="10" style="font-family: Roboto; font-weight: 400; font-stretch: 100%; font-size: 10px; stroke: rgb(255, 255, 255); stroke-width: 2; stroke-linejoin: round; stroke-linecap: round;">E 1ST NORTH ST.</tspan></text><text transform="rotate(8.880588824120327, 410.41077, 132.3898) translate(410.4107666015625, 126.88980102539062)" style="text-anchor: middle;"><tspan fill="rgb(136, 136, 136)" x="0" y="10" style="font-family: Roboto; font-weight: 400; font-stretch: 100%; font-size: 10px;">E 1ST NORTH ST.</tspan></text></g><g id="CHESTNUT-svg STREET-svg"><text transform="rotate(-80.71280852047319, 291.8985290527344, 240.3158721923828) translate(291.8985290527344, 234.8158721923828)" style="text-anchor: middle;"><tspan x="0" y="10" style="font-family: Roboto; font-weight: 400; font-stretch: 100%; font-size: 10px; stroke: rgb(255, 255, 255); stroke-width: 2; stroke-linejoin: round; stroke-linecap: round;">CHESTNUT STREET</tspan></text><text transform="rotate(-80.71280852047319, 291.89853, 240.31587) translate(291.8985290527344, 234.8158721923828)" style="text-anchor: middle;"><tspan fill="rgb(136, 136, 136)" x="0" y="10" style="font-family: Roboto; font-weight: 400; font-stretch: 100%; font-size: 10px;">CHESTNUT STREET</tspan></text></g><g id="S-svg WALNUT-svg ST.-svg"><text transform="rotate(-81.77731054219792, 215.936279296875, 403.0453186035156) translate(215.936279296875, 397.5453186035156)" style="text-anchor: middle;"><tspan x="0" y="10" style="font-family: Roboto; font-weight: 400; font-stretch: 100%; font-size: 10px; stroke: rgb(255, 255, 255); stroke-width: 2; stroke-linejoin: round; stroke-linecap: round;">S WALNUT ST.</tspan></text><text transform="rotate(-81.77731054219792, 215.93628, 403.04532) translate(215.936279296875, 397.5453186035156)" style="text-anchor: middle;"><tspan fill="rgb(136, 136, 136)" x="0" y="10" style="font-family: Roboto; font-weight: 400; font-stretch: 100%; font-size: 10px;">S WALNUT ST.</tspan></text></g><g id="W-svg 3RD-svg SOUTH-svg ST.-svg"><text transform="rotate(-0.1381715240761023, 154.56878662109375, 336.5820617675781) translate(154.56878662109375, 331.0820617675781)" style="text-anchor: middle;"><tspan x="0" y="10" style="font-family: Roboto; font-weight: 400; font-stretch: 100%; font-size: 10px; stroke: rgb(255, 255, 255); stroke-width: 2; stroke-linejoin: round; stroke-linecap: round;">W 3RD SOUTH ST.</tspan></text><text transform="rotate(-0.1381715240761023, 154.56879, 336.58206) translate(154.56878662109375, 331.0820617675781)" style="text-anchor: middle;"><tspan fill="rgb(136, 136, 136)" x="0" y="10" style="font-family: Roboto; font-weight: 400; font-stretch: 100%; font-size: 10px;">W 3RD SOUTH ST.</tspan></text></g><g id="3RD-svg S-svg ST.-svg"><text transform="rotate(-0.011878805255117253, 345.2975158691406, 334.1719665527344) translate(345.2975158691406, 328.6719665527344)" style="text-anchor: middle;"><tspan x="0" y="10" style="font-family: Roboto; font-weight: 400; font-stretch: 100%; font-size: 10px; stroke: rgb(255, 255, 255); stroke-width: 2; stroke-linejoin: round; stroke-linecap: round;">3RD S ST.</tspan></text><text transform="rotate(-0.011878805255117253, 345.29752, 334.17197) translate(345.2975158691406, 328.6719665527344)" style="text-anchor: middle;"><tspan fill="rgb(136, 136, 136)" x="0" y="10" style="font-family: Roboto; font-weight: 400; font-stretch: 100%; font-size: 10px;">3RD S ST.</tspan></text></g><g id="S-svg OAK-svg ST.-svg"><text transform="rotate(-80.31738210961744, 301.7245788574219, 341.2095031738281) translate(301.7245788574219, 335.7095031738281)" style="text-anchor: middle;"><tspan x="0" y="10" style="font-family: Roboto; font-weight: 400; font-stretch: 100%; font-size: 10px; stroke: rgb(255, 255, 255); stroke-width: 2; stroke-linejoin: round; stroke-linecap: round;">S OAK ST.</tspan></text><text transform="rotate(-80.31738210961744, 301.72458, 341.2095) translate(301.7245788574219, 335.7095031738281)" style="text-anchor: middle;"><tspan fill="rgb(136, 136, 136)" x="0" y="10" style="font-family: Roboto; font-weight: 400; font-stretch: 100%; font-size: 10px;">S OAK ST.</tspan></text></g><g id="S-svg LOCUST-svg ST.-svg"><text transform="rotate(-90.37134916782675, 335.92059326171875, 449.55938720703125) translate(335.92059326171875, 444.05938720703125)" style="text-anchor: middle;"><tspan x="0" y="10" style="font-family: Roboto; font-weight: 400; font-stretch: 100%; font-size: 10px; stroke: rgb(255, 255, 255); stroke-width: 2; stroke-linejoin: round; stroke-linecap: round;">S LOCUST ST.</tspan></text><text transform="rotate(-90.37134916782675, 335.92059, 449.55939) translate(335.92059326171875, 444.05938720703125)" style="text-anchor: middle;"><tspan fill="rgb(136, 136, 136)" x="0" y="10" style="font-family: Roboto; font-weight: 400; font-stretch: 100%; font-size: 10px;">S LOCUST ST.</tspan></text></g><g id="E-svg 3RD-svg SOUTH-svg ST.-svg"><text transform="rotate(2.1034347932826902, 538.5548095703125, 338.3247375488281) translate(538.5548095703125, 332.8247375488281)" style="text-anchor: middle;"><tspan x="0" y="10" style="font-family: Roboto; font-weight: 400; font-stretch: 100%; font-size: 10px; stroke: rgb(255, 255, 255); stroke-width: 2; stroke-linejoin: round; stroke-linecap: round;">E 3RD SOUTH ST.</tspan></text><text transform="rotate(2.1034347932826902, 538.55481, 338.32474) translate(538.5548095703125, 332.8247375488281)" style="text-anchor: middle;"><tspan fill="rgb(136, 136, 136)" x="0" y="10" style="font-family: Roboto; font-weight: 400; font-stretch: 100%; font-size: 10px;">E 3RD SOUTH ST.</tspan></text></g></g><g id="Tamaroa-svg"><text transform="translate(91.0078125, -10.390625)" style="text-anchor: middle;"><tspan x="0" y="14" style="font-family: Roboto; font-weight: 400; font-stretch: 100%; font-size: 14px; stroke: rgb(242, 243, 240); stroke-width: 2; stroke-linejoin: round; stroke-linecap: round;">Tamaroa</tspan></text><text transform="translate(91.0078125, -10.390625)" style="text-anchor: middle;"><tspan fill="rgb(51,51,51)" x="0" y="14" style="font-family: Roboto; font-weight: 400; font-stretch: 100%; font-size: 14px;">Tamaroa</tspan></text></g><g id="svg-marker-svg" transform="translate(91, -2)"><g id="svg-id-vVSedpz3UV-svg" transform="translate(-14, -14)"/></g><rect width="156.96875" height="14" transform="translate(443.03125, 433)" fill="rgba(255,255,255,0.73)" style="fill: rgb(255, 255, 255); fill-opacity: 0.73;"/><text transform="translate(447, 434)"><tspan fill="rgba(119,119,119,0.87)" x="0" y="11" style="font-family: Roboto; font-weight: 400; font-stretch: 100%; font-size: 11px;">©</tspan><tspan fill="rgba(119,119,119,0.87)" dx="2.734375" style="font-family: Roboto; font-weight: 400; font-stretch: 100%; font-size: 11px;">OpenStreetMap</tspan><tspan fill="rgba(119,119,119,0.87)" dx="2.734375" style="font-family: Roboto; font-weight: 400; font-stretch: 100%; font-size: 11px;">contributors</tspan></text></g></g></g></g><g id="container-svg container-footer-svg datawrapper-W7LRj-1la8dcw-svg"><text transform="translate(0, 467)"><tspan fill="rgb(136,136,136)" x="0" y="11" style="font-family: Roboto; font-weight: 400; font-stretch: 100%; font-size: 11px;">Created with</tspan><tspan fill="rgb(136,136,136)" dx="2.734375" style="font-family: Roboto; font-weight: 400; font-stretch: 100%; font-size: 11px;">Datawrapper</tspan></text></g></g></g></g></svg>